<?xml version="1.0" encoding="UTF-8" standalone="no"?>
<svg
   width="64"
   height="64"
   viewBox="0 0 64 64"
   version="1.1"
   id="svg52"
   sodipodi:docname="rhythmbox.svg"
   inkscape:version="1.3.2 (091e20ef0f, 2023-11-25)"
   xmlns:inkscape="http://www.inkscape.org/namespaces/inkscape"
   xmlns:sodipodi="http://sodipodi.sourceforge.net/DTD/sodipodi-0.dtd"
   xmlns:xlink="http://www.w3.org/1999/xlink"
   xmlns="http://www.w3.org/2000/svg"
   xmlns:svg="http://www.w3.org/2000/svg">
  <sodipodi:namedview
     id="namedview54"
     pagecolor="#a4a4a4"
     bordercolor="#eeeeee"
     borderopacity="1"
     inkscape:pageshadow="0"
     inkscape:pageopacity="0"
     inkscape:pagecheckerboard="0"
     showgrid="false"
     inkscape:zoom="5.2604167"
     inkscape:cx="36.308911"
     inkscape:cy="-4.3722772"
     inkscape:window-width="1920"
     inkscape:window-height="994"
     inkscape:window-x="0"
     inkscape:window-y="0"
     inkscape:window-maximized="1"
     inkscape:current-layer="svg52"
     inkscape:showpageshadow="2"
     inkscape:deskcolor="#c9c9c9" />
  <defs
     id="defs32">
    <linearGradient
       xlink:href="#linearGradient4393"
       id="linearGradient4399"
       x1="424.44101"
       y1="502.85001"
       x2="440.87799"
       y2="529.57599"
       gradientUnits="userSpaceOnUse"
       gradientTransform="matrix(0.69224711,0,0,0.69224711,-215.22899,-357.13539)" />
    <linearGradient
       id="linearGradient4393">
      <stop
         style="stop-color:#000000;stop-opacity:1;"
         offset="0"
         id="stop3" />
      <stop
         style="stop-color:#000000;stop-opacity:0;"
         offset="1"
         id="stop5" />
    </linearGradient>
    <linearGradient
       xlink:href="#linearGradient4274"
       id="linearGradient4217"
       gradientUnits="userSpaceOnUse"
       gradientTransform="matrix(0.69224711,0,0,0.69224711,-199.3073,1639.8968)"
       x1="390.57101"
       y1="498.298"
       x2="442.57101"
       y2="498.298" />
    <linearGradient
       id="linearGradient4274">
      <stop
         offset="0"
         style="stop-color:#ffffff;stop-opacity:1;"
         id="stop9" />
      <stop
         offset="1"
         style="stop-color:#ffffff;stop-opacity:0.48760331"
         id="stop11" />
    </linearGradient>
    <linearGradient
       xlink:href="#linearGradient4227"
       id="linearGradient4225"
       gradientUnits="userSpaceOnUse"
       x1="396.57101"
       y1="498.798"
       x2="426.57101"
       y2="511.798"
       gradientTransform="matrix(0.69224711,0,0,0.69224711,-199.3073,-360.21214)" />
    <linearGradient
       id="linearGradient4227">
      <stop
         offset="0"
         style="stop-color:#f5f5f5;stop-opacity:1"
         id="stop21" />
      <stop
         offset="1"
         style="stop-color:#f9f9f9;stop-opacity:1"
         id="stop23" />
    </linearGradient>
    <style
       id="current-color-scheme"
       type="text/css">      .ColorScheme-Highlight {
        color:#3593e6;
      }
</style>
    <linearGradient
       id="d"
       gradientUnits="userSpaceOnUse"
       x1="4"
       x2="18.999998"
       xlink:href="#c"
       y1="5"
       y2="20"
       gradientTransform="matrix(2.7999616,0,0,2.7999616,1.095156,-2.3992319)" />
    <linearGradient
       id="c">
      <stop
         offset="0"
         stop-color="#292c2f"
         id="stop265" />
      <stop
         offset="1"
         stop-opacity="0"
         id="stop267" />
    </linearGradient>
    <linearGradient
       id="b"
       gradientUnits="userSpaceOnUse"
       x1="13.280776"
       x2="28.280775"
       xlink:href="#c"
       y1="5.088388"
       y2="20.088388"
       gradientTransform="matrix(2.7999616,0,0,2.7999616,1.095156,-2.3992319)" />
    <linearGradient
       id="c-3"
       gradientUnits="userSpaceOnUse"
       x1="5"
       x2="5"
       y1="20"
       y2="7"
       gradientTransform="matrix(3.4390082,0,0,3.4390082,-5.8290972,-4.015561)">
      <stop
         offset="0"
         stop-color="#999a9c"
         id="stop164" />
      <stop
         offset="1"
         stop-color="#f4f5f5"
         id="stop166" />
    </linearGradient>
    <linearGradient
       id="a"
       y1="44"
       y2="4"
       x2="0"
       gradientUnits="userSpaceOnUse">
      <stop
         stop-color="#7cbaf8"
         id="stop152" />
      <stop
         offset="1"
         stop-color="#f4fcff"
         id="stop154" />
    </linearGradient>
    <linearGradient
       id="b-3"
       y1="39"
       y2="9"
       gradientUnits="userSpaceOnUse"
       x2="0"
       gradientTransform="matrix(1.02857,0,0,1.2,-5.314,-2013.52)">
      <stop
         stop-color="#197cf1"
         id="stop157" />
      <stop
         offset="1"
         stop-color="#20bcfa"
         id="stop159" />
    </linearGradient>
    <linearGradient
       xlink:href="#c-7"
       id="d-6"
       y1="18.26"
       x1="14.59"
       y2="40.439999"
       x2="36.060001"
       gradientUnits="userSpaceOnUse" />
    <linearGradient
       id="c-7"
       y1="13.01"
       x1="25.040001"
       y2="30.26"
       x2="42.990002"
       gradientUnits="userSpaceOnUse">
      <stop
         stop-color="#292c2f"
         id="stop162" />
      <stop
         offset="1"
         stop-color="#292c2f"
         stop-opacity="0"
         id="stop164-5" />
    </linearGradient>
    <linearGradient
       xlink:href="#e"
       id="g"
       y1="12.375"
       x1="13.938"
       y2="28.542"
       x2="28.495001"
       gradientUnits="userSpaceOnUse" />
    <linearGradient
       id="e"
       y1="24.827"
       x1="10.281"
       y2="7.355"
       x2="3.5739999"
       gradientUnits="userSpaceOnUse"
       gradientTransform="matrix(-0.96593,0.25882,-0.25882,-0.96593,53.39,40.971)">
      <stop
         stop-color="#cfd5d5"
         id="stop188" />
      <stop
         offset="1"
         stop-color="#6f8181"
         id="stop190" />
    </linearGradient>
    <linearGradient
       xlink:href="#c-36"
       id="j"
       x1="29.653999"
       x2="19.886999"
       gradientUnits="userSpaceOnUse" />
    <linearGradient
       id="c-36"
       y1="23"
       x1="24"
       y2="39"
       x2="40"
       gradientUnits="userSpaceOnUse">
      <stop
         stop-color="#292c2f"
         id="stop178" />
      <stop
         offset="1"
         stop-opacity="0"
         id="stop180" />
    </linearGradient>
    <linearGradient
       id="b-7"
       y1="32.721001"
       y2="12.32"
       x1="33.404999"
       gradientUnits="userSpaceOnUse"
       x2="17.759001"
       gradientTransform="matrix(1.2189347,0,0,1.2189347,1.5751082,0.35219532)">
      <stop
         stop-color="#197cf1"
         id="stop173" />
      <stop
         offset="1"
         stop-color="#20bcfa"
         id="stop175" />
    </linearGradient>
    <linearGradient
       id="a-5"
       y1="12.997"
       y2="32.130001"
       x1="17.427999"
       x2="36.550999"
       gradientUnits="userSpaceOnUse"
       gradientTransform="matrix(1.2189347,0,0,1.2189347,1.5751082,0.35219532)">
      <stop
         stop-color="#abf9c7"
         id="stop168" />
      <stop
         offset="1"
         stop-color="#54d883"
         id="stop170" />
    </linearGradient>
    <linearGradient
       xlink:href="#c-36"
       id="h"
       y1="30.990999"
       x1="28.476"
       y2="41"
       x2="39.591999"
       gradientUnits="userSpaceOnUse" />
    <linearGradient
       xlink:href="#c-36"
       id="i"
       y1="13"
       x1="28"
       y2="19"
       x2="33.402"
       gradientUnits="userSpaceOnUse" />
    <linearGradient
       xlink:href="#e"
       id="f"
       y1="20.947001"
       x1="36.16"
       y2="39.029999"
       x2="49.299999"
       gradientUnits="userSpaceOnUse" />
    <linearGradient
       id="d-3"
       y1="12.911"
       x1="32.776001"
       y2="6.0840001"
       x2="27.52"
       gradientUnits="userSpaceOnUse">
      <stop
         stop-color="#95a5a6"
         id="stop183" />
      <stop
         offset="1"
         stop-color="#eff0f1"
         id="stop185" />
    </linearGradient>
    <linearGradient
       inkscape:collect="always"
       xlink:href="#linearGradient6386"
       id="linearGradient1096"
       gradientUnits="userSpaceOnUse"
       x1="735.66742"
       y1="660.83142"
       x2="735.66742"
       y2="388.10217"
       gradientTransform="matrix(0.17785263,0,0,0.16602597,-95.510003,-56.595021)" />
    <linearGradient
       inkscape:collect="always"
       id="linearGradient6386">
      <stop
         style="stop-color:#f2b187;stop-opacity:1"
         offset="0"
         id="stop6382" />
      <stop
         style="stop-color:#ec908c;stop-opacity:1;"
         offset="0.54933107"
         id="stop23871" />
      <stop
         style="stop-color:#ec8f8b;stop-opacity:1;"
         offset="0.8804239"
         id="stop23677" />
      <stop
         style="stop-color:#de6865;stop-opacity:1"
         offset="1"
         id="stop6384" />
    </linearGradient>
    <linearGradient
       inkscape:collect="always"
       xlink:href="#linearGradient26704"
       id="linearGradient26784"
       gradientUnits="userSpaceOnUse"
       x1="722.4295"
       y1="521.9483"
       x2="731.73212"
       y2="556.66614"
       gradientTransform="matrix(0.17785263,0,0,0.16602597,-95.510003,-56.595021)" />
    <linearGradient
       inkscape:collect="always"
       id="linearGradient26704">
      <stop
         style="stop-color:#f2bd9a;stop-opacity:0"
         offset="0"
         id="stop26700" />
      <stop
         style="stop-color:#1631cf;stop-opacity:0.61176471;"
         offset="0.10469195"
         id="stop26980" />
      <stop
         style="stop-color:#003cf2;stop-opacity:0.00045954"
         offset="1"
         id="stop26702" />
    </linearGradient>
    <linearGradient
       inkscape:collect="always"
       xlink:href="#linearGradient25252"
       id="linearGradient25254"
       x1="748.22168"
       y1="404.50122"
       x2="734.85419"
       y2="538.79596"
       gradientUnits="userSpaceOnUse"
       gradientTransform="matrix(0.17785263,0,0,0.16602597,-95.510003,-56.595021)" />
    <linearGradient
       inkscape:collect="always"
       id="linearGradient25252">
      <stop
         style="stop-color:#f2b187;stop-opacity:1;"
         offset="0"
         id="stop25248" />
      <stop
         style="stop-color:#f2a472;stop-opacity:1"
         offset="1"
         id="stop25250" />
    </linearGradient>
    <linearGradient
       inkscape:collect="always"
       xlink:href="#linearGradient25530"
       id="linearGradient25532"
       x1="740.75671"
       y1="450.95929"
       x2="687.04364"
       y2="584.65771"
       gradientUnits="userSpaceOnUse"
       gradientTransform="matrix(0.17785263,0,0,0.16602597,-95.510003,-56.595021)" />
    <linearGradient
       inkscape:collect="always"
       id="linearGradient25530">
      <stop
         style="stop-color:#f2bd9a;stop-opacity:1;"
         offset="0"
         id="stop25526" />
      <stop
         style="stop-color:#f26000;stop-opacity:0.25890476"
         offset="1"
         id="stop25528" />
    </linearGradient>
    <linearGradient
       inkscape:collect="always"
       xlink:href="#linearGradient26428"
       id="linearGradient26430"
       x1="746.40808"
       y1="555.41046"
       x2="681.24591"
       y2="574.94653"
       gradientUnits="userSpaceOnUse"
       gradientTransform="matrix(0.17785263,0,0,0.16602597,-95.510003,-56.595021)" />
    <linearGradient
       inkscape:collect="always"
       id="linearGradient26428">
      <stop
         style="stop-color:#f2bd9a;stop-opacity:0.69014871"
         offset="0"
         id="stop26424" />
      <stop
         style="stop-color:#f2bd9a;stop-opacity:0;"
         offset="1"
         id="stop26426" />
    </linearGradient>
    <linearGradient
       inkscape:collect="always"
       xlink:href="#linearGradient30948"
       id="linearGradient1098"
       gradientUnits="userSpaceOnUse"
       x1="674.57922"
       y1="450.78961"
       x2="786.78943"
       y2="568.28052"
       gradientTransform="matrix(0.17785263,0,0,0.16602597,-95.510003,-56.595021)" />
    <linearGradient
       inkscape:collect="always"
       id="linearGradient30948">
      <stop
         style="stop-color:#ffd14b;stop-opacity:1;"
         offset="0"
         id="stop30944" />
      <stop
         style="stop-color:#ffd14b;stop-opacity:0;"
         offset="1"
         id="stop30946" />
    </linearGradient>
    <linearGradient
       inkscape:collect="always"
       xlink:href="#linearGradient6386"
       id="linearGradient1"
       gradientUnits="userSpaceOnUse"
       gradientTransform="matrix(0.17785263,0,0,0.16602597,-95.510003,-56.595021)"
       x1="735.66742"
       y1="660.83142"
       x2="735.66742"
       y2="388.10217" />
    <linearGradient
       inkscape:collect="always"
       xlink:href="#linearGradient30948"
       id="linearGradient2"
       gradientUnits="userSpaceOnUse"
       gradientTransform="matrix(0.17785263,0,0,0.16602597,-95.510003,-56.595021)"
       x1="674.57922"
       y1="450.78961"
       x2="786.78943"
       y2="568.28052" />
  </defs>
  <path
     d="m 2.9999985,10.25 c 0,-4.0041748 3.245938,-7.25 7.2500005,-7.25 h 43.500003 c 4.004173,0 7.249999,3.2458252 7.249999,7.25 v 43.5 c 0,4.004173 -3.245827,7.25 -7.25,7.25 H 10.249999 C 6.2459365,61 2.9999985,57.754173 2.9999985,53.75 Z"
     id="path736"
     style="fill:#606c86;fill-opacity:1;stroke-width:3.625" />
  <path
     d="M 2.9999985,9.796875 C 2.9999985,6.0431877 6.2459365,3 10.249999,3 h 43.500003 c 4.004173,0 7.249999,3.0431877 7.249999,6.796875 v 40.781249 c 0,3.753693 -3.245827,6.796876 -7.25,6.796876 H 10.249999 c -4.0040625,0 -7.2500005,-3.043183 -7.2500005,-6.796876 z"
     id="path738"
     style="fill:#3b4252;fill-opacity:1;stroke-width:3.625" />
  <path
     id="path1211"
     style="fill:#45007e;fill-opacity:0.0695295;stroke:none;stroke-width:0.171828px;stroke-linecap:butt;stroke-linejoin:miter;stroke-opacity:1"
     d="m 37.273869,6.756246 c -1.720851,-0.0062 -3.233129,2.169602 -3.233129,2.169602 0.229925,-0.281137 0.530452,-0.538765 0.870081,-0.69225 -1.099761,0.553411 -2.174295,2.454534 -3.087144,4.935203 -1.14776,3.119145 -1.033875,6.784532 -0.654023,9.797516 -7.193872,4.341902 -8.176256,5.993936 -9.888222,8.761918 -3.636932,5.880502 -0.950908,12.232541 3.657481,15.38697 0,0 0.0013,9.8e-4 0.0013,9.8e-4 0.005,0.003 0.01216,0.0062 0.01948,0.01332 0.0039,0.003 0.01105,0.0062 0.01726,0.01031 0.185244,0.125015 0.373397,0.246479 0.564484,0.36156 0.03751,0.02009 0.07529,0.0454 0.112728,0.06653 0.06071,0.03668 0.12178,0.06992 0.182988,0.105626 0.05875,0.03276 0.117813,0.06548 0.177139,0.09866 0,0 0.0013,9.8e-4 0.0013,9.8e-4 0.0023,9.81e-4 0.005,0.003 0.0085,0.0062 0.144392,0.07794 0.290901,0.153385 0.437965,0.225475 0.04153,0.02007 0.08287,0.04245 0.124428,0.06147 0.03356,0.01669 0.06753,0.03276 0.101081,0.0475 0.09229,0.04348 0.185171,0.08332 0.278362,0.12271 0.0099,0.003 0.02204,0.0103 0.0333,0.0133 0.08766,0.03843 0.17624,0.07255 0.264724,0.109015 0.03198,0.01332 0.0635,0.02341 0.09518,0.03908 0.111329,0.04375 0.22239,0.08713 0.334787,0.124645 2.362997,0.835983 5.713831,1.222494 9.055106,0.505152 0.0533,0.264111 0.101408,0.5179 0.140148,0.752321 0.02417,0.146982 0.04563,0.287614 0.06422,0.423328 0.129928,0.951278 0.123572,1.635439 0.0026,2.120555 -0.01691,0.06848 -0.0368,0.132711 -0.05837,0.194375 -0.02204,0.06106 -0.04586,0.119956 -0.07207,0.174457 -0.0259,0.05382 -0.05538,0.10426 -0.08581,0.150831 -0.03043,0.04704 -0.06277,0.09178 -0.09747,0.129814 -0.03457,0.0408 -0.07038,0.07586 -0.109092,0.110633 -0.03878,0.03618 -0.08029,0.0638 -0.122626,0.09358 -0.04234,0.0278 -0.08627,0.05342 -0.132474,0.07515 -0.138742,0.06747 -0.293158,0.113001 -0.463272,0.139872 -0.05672,0.0103 -0.115335,0.01334 -0.175177,0.02008 -0.05974,0.003 -0.121966,0.0103 -0.184909,0.0103 -0.126164,0.003 -0.257569,3.3e-4 -0.395145,-0.006 -0.137718,-0.006 -0.282093,-0.01667 -0.430179,-0.03617 -0.14807,-0.01337 -0.299939,-0.03617 -0.457429,-0.05445 -0.157482,-0.02009 -0.318847,-0.04126 -0.484677,-0.06151 -0.06952,-0.0103 -0.137197,-0.0167 -0.202416,-0.02007 -0.06517,-0.003 -0.129493,-0.006 -0.190753,-0.006 -0.06118,2.85e-4 -0.120088,0.002 -0.177148,0.006 -0.05714,0.003 -0.112138,0.0103 -0.165434,0.01668 -0.106213,0.01669 -0.204603,0.04196 -0.29587,0.07183 -0.04561,0.01331 -0.09035,0.03618 -0.132493,0.05277 -0.04192,0.01667 -0.08211,0.03914 -0.120782,0.05975 -0.03869,0.0201 -0.07422,0.04515 -0.109124,0.06816 -0.03508,0.02362 -0.06778,0.04987 -0.09923,0.07534 -0.03146,0.02701 -0.06125,0.05619 -0.08936,0.08635 -0.02818,0.02758 -0.05667,0.05781 -0.08165,0.08995 -0.200652,0.248298 -0.299943,0.555904 -0.323116,0.857662 -0.0039,0.07454 -0.0064,0.149821 -0.0026,0.223615 0.0024,0.07286 0.01078,0.145953 0.02327,0.216283 0.01136,0.0695 0.02894,0.138902 0.04847,0.203602 0.0195,0.06418 0.04147,0.125653 0.06819,0.183506 0.05327,0.113671 0.12172,0.209971 0.198551,0.281684 0,0 0.03009,0.04197 0.09165,0.109013 0.06152,0.06682 0.153456,0.161795 0.276399,0.267228 0.06145,0.05278 0.131557,0.106942 0.208265,0.163518 0.07668,0.05662 0.160877,0.113661 0.253048,0.170931 0.138332,0.08583 0.294403,0.16843 0.467162,0.243682 0.05771,0.02359 0.115782,0.04984 0.177148,0.07184 0.06146,0.02361 0.125625,0.04543 0.190745,0.0648 0.130382,0.04178 0.268754,0.0765 0.414609,0.105605 0.07277,0.01333 0.147091,0.02348 0.223846,0.0371 0.07662,0.01032 0.154964,0.01668 0.235534,0.02373 0.08061,0.0058 0.16476,0.01032 0.249171,0.01032 0.08427,0.0011 0.170665,-0.0011 0.258883,-0.0058 0.08814,-0.0032 0.17655,-0.01032 0.268601,-0.02009 0.09216,-0.01032 0.186343,-0.02372 0.282246,-0.04081 0.0958,-0.0167 0.194208,-0.03616 0.293916,-0.05779 0.09979,-0.02373 0.202046,-0.05012 0.30559,-0.07907 0.103606,-0.03273 0.207957,-0.06195 0.315353,-0.100267 0.107213,-0.0384 0.21775,-0.07932 0.328945,-0.124647 0.111214,-0.04611 0.223664,-0.09564 0.3387,-0.149044 0.115102,-0.05408 0.231534,-0.113011 0.350379,-0.17619 0.118701,-0.06271 0.239373,-0.129805 0.362059,-0.203596 0.107525,-0.06314 0.212294,-0.128022 0.311431,-0.19617 0.09907,-0.06653 0.193188,-0.136775 0.284194,-0.207108 0.09121,-0.06947 0.177641,-0.140993 0.260852,-0.214524 0.08326,-0.07232 0.163739,-0.149073 0.239406,-0.225359 0.07564,-0.07478 0.147617,-0.152249 0.216061,-0.230704 0.06858,-0.07835 0.133135,-0.158978 0.194658,-0.239806 0.06156,-0.08064 0.120336,-0.162412 0.175196,-0.245468 0.05491,-0.08332 0.10515,-0.167688 0.153751,-0.252371 0.04846,-0.08574 0.09544,-0.169872 0.138298,-0.256352 0.08542,-0.173 0.158874,-0.349214 0.221891,-0.526996 0.03146,-0.08994 0.05916,-0.178959 0.08582,-0.269036 0.02641,-0.09115 0.05041,-0.180002 0.07208,-0.270735 0.02163,-0.09177 0.04132,-0.181409 0.05839,-0.272511 0.102765,-0.546674 0.126523,-1.099917 0.10507,-1.635354 -0.0061,-0.17822 -0.01881,-0.35517 -0.035,-0.52879 -0.0164,-0.173701 -0.03579,-0.343831 -0.05835,-0.510604 -0.02592,-0.19261 -0.05626,-0.380284 -0.08749,-0.561411 -0.0083,-0.05549 -0.01912,-0.107318 -0.02945,-0.161796 -0.01691,-0.09402 -0.03356,-0.181735 -0.05059,-0.270732 -0.0077,-0.04441 -0.01467,-0.07823 -0.0233,-0.12099 -0.01254,-0.06818 -0.02546,-0.129039 -0.03904,-0.196211 -0.0031,-0.02007 -0.0083,-0.0431 -0.01255,-0.06314 -0.02793,-0.135812 -0.05323,-0.265127 -0.07784,-0.387029 0,0 -0.05165,-0.247876 -0.05257,-0.252442 1.016743,-0.474562 2.000569,-1.082316 2.919761,-1.838875 9.98e-4,-9.82e-4 0.0017,-0.002 0.0026,-0.003 0.212709,-0.175117 0.423285,-0.355173 0.628723,-0.546937 0,0 0,-9.81e-4 0,-9.81e-4 0.03044,-0.02796 0.05956,-0.05785 0.08936,-0.0883 0.0075,-0.0062 0.01691,-0.01335 0.02517,-0.0237 0.0075,-0.0062 0.0151,-0.01668 0.02327,-0.02358 0.06661,-0.06585 0.132763,-0.135123 0.196581,-0.205375 0.03578,-0.04011 0.07224,-0.07664 0.1069,-0.117665 0,0 0,-9.82e-4 0,-9.82e-4 0.02695,-0.03291 0.05339,-0.06379 0.07998,-0.09695 0.0039,-0.0062 0.01136,-0.0133 0.01727,-0.02008 0.0017,-0.002 0.0036,-0.0062 0.0066,-0.0103 0.0031,-0.0062 0.008,-0.0103 0.01257,-0.01669 0.02893,-0.03667 0.05906,-0.06993 0.08747,-0.107327 0.01948,-0.02341 0.03709,-0.05232 0.0565,-0.07701 0.04669,-0.06147 0.09325,-0.122709 0.138299,-0.186988 0,0 0,-9.81e-4 0,-9.81e-4 0.01463,-0.02006 0.02818,-0.04311 0.04264,-0.06315 0.0021,-0.003 0.0057,-0.0062 0.0085,-0.01331 0.01254,-0.02008 0.02767,-0.04052 0.04096,-0.0598 0.03046,-0.04608 0.06186,-0.09243 0.09165,-0.138095 0,0 0,-9.82e-4 0,-9.82e-4 0.01691,-0.02824 0.03382,-0.05486 0.05065,-0.08218 0.0028,-0.0062 0.0064,-0.01333 0.01105,-0.02005 0.0077,-0.01327 0.01849,-0.0287 0.02733,-0.04247 0.02858,-0.04775 0.0578,-0.09432 0.08583,-0.141698 0,0 0,-9.83e-4 0,-9.83e-4 0.05615,-0.0976 0.11098,-0.195873 0.163516,-0.296171 0,0 0,-9.83e-4 0,-9.83e-4 0.158244,-0.302446 0.300727,-0.619802 0.426277,-0.946675 0.04164,-0.108627 0.08271,-0.217993 0.120774,-0.328843 0,0 0,-9.81e-4 0,-9.81e-4 0,0 0,-9.81e-4 0,-9.81e-4 0.03815,-0.11063 0.07482,-0.221565 0.109092,-0.334466 0,0 0,-9.8e-4 0,-9.8e-4 0.03427,-0.112366 0.06684,-0.225405 0.09743,-0.339678 0,0 0,-9.81e-4 0,-9.81e-4 0.03044,-0.114071 0.05899,-0.229579 0.08582,-0.345196 0,0 0,-9.8e-4 0,-9.8e-4 0.0036,-0.02366 0.0088,-0.04776 0.01563,-0.07011 9.98e-4,-0.0062 0.0018,-0.0103 0.0026,-0.01669 8.09e-4,-0.003 9.99e-4,-0.0062 0.0013,-0.0103 0.01849,-0.08481 0.03818,-0.167701 0.05437,-0.252476 0.02255,-0.115551 0.04346,-0.232059 0.06232,-0.348777 1.85e-4,-9.83e-4 -1.98e-4,-0.002 0,-0.003 0.01881,-0.116591 0.03577,-0.233126 0.05061,-0.350552 0,0 0,-9.81e-4 0,-9.81e-4 0.01464,-0.117298 0.02793,-0.236646 0.03902,-0.354346 0,0 0,-9.82e-4 0,-9.82e-4 0.0099,-0.117301 0.0185,-0.234886 0.0252,-0.352535 0,0 0,-9.82e-4 0,-9.82e-4 0.0052,-0.117311 0.01198,-0.23521 0.01563,-0.352495 0,0 0,-9.82e-4 0,-9.82e-4 0.0019,-0.116332 0.0023,-0.23451 0.0013,-0.350557 -2e-5,-9.82e-4 1.3e-5,-0.002 0,-0.003 -9.99e-4,-0.116326 -0.0041,-0.231379 -0.01105,-0.34705 0,0 0,-9.81e-4 0,-9.81e-4 -0.0039,-0.115256 -0.01253,-0.231038 -0.02328,-0.345318 0,0 0,-9.81e-4 0,-9.81e-4 -0.0085,-0.113694 -0.02129,-0.227516 -0.03506,-0.339678 0,0 0,-9.81e-4 0,-9.81e-4 0,0 0,-9.8e-4 0,-9.8e-4 -0.01295,-0.111939 -0.03047,-0.223988 -0.04849,-0.334404 -1.91e-4,-9.81e-4 1.9e-4,-0.002 0,-0.003 -0.0185,-0.110898 -0.03964,-0.220136 -0.06233,-0.328788 0,0 0,-9.81e-4 0,-9.81e-4 -0.02255,-0.108354 -0.04712,-0.215564 -0.07408,-0.321694 0,0 0,-9.82e-4 0,-9.82e-4 0,0 0,-9.81e-4 0,-9.81e-4 -0.02732,-0.106674 -0.05815,-0.210566 -0.08936,-0.314303 0,0 0,-9.83e-4 0,-9.83e-4 -0.03148,-0.103944 -0.06514,-0.2064 -0.101052,-0.306953 0,0 0,-9.81e-4 0,-9.81e-4 -0.0358,-0.101295 -0.07458,-0.200473 -0.114951,-0.297839 0,0 0,-9.84e-4 0,-9.84e-4 -0.04041,-0.09796 -0.08347,-0.193056 -0.128433,-0.287286 0,0 0,-9.82e-4 0,-9.82e-4 -0.04528,-0.0953 -0.09227,-0.187411 -0.142014,-0.27814 -0.06782,-0.122724 -0.139575,-0.243674 -0.212193,-0.363403 -0.0039,-0.01031 -0.01136,-0.01671 -0.01761,-0.0273 -0.361915,-0.592365 -0.78173,-1.140916 -1.245764,-1.637229 -0.0061,-0.0062 -0.01311,-0.01334 -0.02166,-0.02007 -0.748809,-0.79586 -1.61136,-1.45892 -2.532398,-1.960577 -0.0031,-0.002 -0.008,-0.003 -0.01255,-0.0062 -0.693646,-0.376438 -1.419646,-0.661033 -2.154781,-0.843135 -0.0026,-9.82e-4 -0.0066,-7.42e-4 -0.01105,-9.82e-4 -0.48913,-0.119957 -0.981812,-0.195841 -1.471559,-0.221482 -0.0036,-2.8e-4 -0.0096,2.78e-4 -0.01564,0 -0.14179,-0.0062 -0.283213,-0.0103 -0.424453,-0.0103 v 9.83e-4 c -0.09989,6.84e-4 -0.198497,9.82e-4 -0.297787,0.0062 -0.09171,0.003 -0.183363,0.0103 -0.274451,0.02006 -0.06248,0.0062 -0.124538,0.0133 -0.186861,0.02007 -0.384809,-1.84069 -0.712976,-3.399954 -1.09783,-5.244036 -2.47e-4,-9.83e-4 2.55e-4,-0.002 0,-0.003 -0.04375,-0.209904 -0.08011,-0.412767 -0.118606,-0.617779 1.06987,-1.061075 2.048398,-2.072046 2.635689,-2.796463 0.05176,-0.06316 0.104205,-0.131511 0.157669,-0.203576 0.05342,-0.07055 0.108812,-0.144896 0.163513,-0.223635 0.0548,-0.07784 0.109567,-0.161735 0.165429,-0.247191 0.05597,-0.0862 0.112585,-0.173707 0.169359,-0.265163 0.453313,-0.734163 0.924505,-1.671213 1.323616,-2.727407 0.04985,-0.130791 0.09864,-0.264755 0.146,-0.399764 0,0 0,-9.82e-4 0,-9.82e-4 0.04749,-0.135783 0.09342,-0.271813 0.138293,-0.410687 0.581473,-1.804714 0.91496,-3.870224 0.620924,-5.836392 -0.04518,-0.30207 -0.104901,-0.601674 -0.181018,-0.897682 0,0 0,-9.82e-4 0,-9.82e-4 -0.03839,-0.148363 -0.08021,-0.295331 -0.126599,-0.441526 -0.09289,-0.29253 -0.202647,-0.58038 -0.330894,-0.863098 -0.03817,-0.08481 -0.07615,-0.162795 -0.114944,-0.241568 -0.01467,-0.02716 -0.02818,-0.05784 -0.04264,-0.0884 -0.0075,-0.01668 -0.01691,-0.03276 -0.02512,-0.04751 -0.04473,-0.0884 -0.08903,-0.171959 -0.134279,-0.252474 -9.99e-4,-0.002 -0.0019,-0.003 -0.0026,-0.0062 -0.106473,-0.189883 -0.213648,-0.362274 -0.323116,-0.517862 -0.0052,-0.0103 -0.01198,-0.01668 -0.01946,-0.02761 -0.104077,-0.145945 -0.20931,-0.277077 -0.315345,-0.394352 -0.0036,-0.0062 -0.0088,-0.01031 -0.0156,-0.01669 -0.05094,-0.05578 -0.102661,-0.108662 -0.153758,-0.158232 -9.99e-4,-9.81e-4 -0.002,-7.06e-4 -0.0026,-9.81e-4 -0.169277,-0.163141 -0.338635,-0.295039 -0.509979,-0.396115 -0.0023,-9.81e-4 -0.005,-0.003 -0.0085,-0.0062 -0.100316,-0.0581 -0.201293,-0.105956 -0.30172,-0.14526 -0.02065,-0.0062 -0.04144,-0.01669 -0.06233,-0.02367 -0.162419,-0.05741 -0.324074,-0.09358 -0.484669,-0.107329 -0.0022,-2.87e-4 -0.005,2.84e-4 -0.0085,0 -0.05345,-0.003 -0.10627,-0.01031 -0.159629,-0.01031 z M 36.506952,8.46623 c 0.03974,0.03291 0.07911,0.06612 0.118604,0.103942 0.308002,0.286338 0.614658,0.714468 0.905118,1.330179 0.394874,0.805518 1.591403,6.373558 -2.937268,10.658782 -6.3e-5,-9.81e-4 5.7e-5,-0.002 0,-0.003 -0.0093,-0.19808 -0.01641,-0.393367 -0.02167,-0.585163 -0.0034,-0.174737 -0.008,-0.346375 -0.0085,-0.516095 -4.39e-4,-0.08365 9.98e-4,-0.164838 0.0013,-0.247058 9.98e-4,-0.2568 0.0066,-0.507561 0.01725,-0.752414 0.0016,-0.05721 0.0021,-0.115322 0.0041,-0.172473 0.0041,-0.127362 0.01216,-0.254616 0.02163,-0.379781 0.0042,-0.08941 0.01156,-0.175189 0.01944,-0.261583 0.0077,-0.107558 0.01723,-0.216301 0.02735,-0.321885 0.01564,-0.16162 0.03356,-0.319895 0.05259,-0.476014 0.016,-0.131495 0.03259,-0.261225 0.05061,-0.388945 0.005,-0.04477 0.01198,-0.08969 0.0195,-0.131814 0.04172,-0.277764 0.08885,-0.544994 0.140138,-0.803203 0.02128,-0.106673 0.04545,-0.210955 0.06815,-0.31435 0.0085,-0.04582 0.01879,-0.09244 0.02943,-0.136148 0.02694,-0.116578 0.05538,-0.232298 0.08361,-0.345208 9.19e-4,-0.003 9.98e-4,-0.0062 0.0013,-0.0103 0.06388,-0.252488 0.131585,-0.494195 0.202429,-0.725039 0.03151,-0.10268 0.06282,-0.201883 0.09513,-0.299989 0.0077,-0.02347 0.0185,-0.05212 0.02731,-0.07713 0.0333,-0.09866 0.06701,-0.195173 0.10104,-0.288994 h -0.0013 c 0.867226,-2.384699 2.004889,-3.41969 2.004889,-3.41969 -0.296166,-0.593374 -0.598661,-1.031886 -0.905117,-1.330152 -0.0393,-0.03912 -0.07935,-0.06929 -0.118621,-0.103945 z m -4.558693,19.090137 c 0.02818,0.148634 0.06564,0.333586 0.08751,0.459574 0.06249,0.360456 0.154424,0.842064 0.270572,1.419145 0.116161,0.577088 0.255565,1.249898 0.414601,1.997064 0.01915,0.09063 0.04468,0.20079 0.06425,0.292517 -0.285289,0.169843 -0.550053,0.343225 -0.794169,0.519635 -9.98e-4,9.81e-4 -0.0031,0.003 -0.0039,0.0062 -0.0015,9.82e-4 -0.0025,0.003 -0.0039,0.0062 -0.09489,0.06818 -0.187361,0.137121 -0.276405,0.207122 -0.0031,0.003 -0.008,0.0062 -0.01253,0.0103 -0.0031,0.003 -0.008,0.0062 -0.01257,0.01031 -0.07016,0.05549 -0.141682,0.112638 -0.208259,0.169173 -0.05136,0.04375 -0.100505,0.0884 -0.149874,0.129779 -0.02793,0.02344 -0.05663,0.04845 -0.08359,0.07182 -0.0047,0.0062 -0.01259,0.01329 -0.01949,0.01668 -0.042,0.03907 -0.08209,0.0769 -0.122614,0.115967 -0.05091,0.04915 -0.101409,0.09694 -0.149876,0.145164 -0.0083,0.01031 -0.01761,0.02007 -0.02732,0.02809 -0.04425,0.04581 -0.08661,0.09176 -0.128433,0.136174 -0.0535,0.05785 -0.105537,0.115561 -0.155726,0.174384 -0.01079,0.01334 -0.02204,0.02773 -0.0333,0.04075 -0.03081,0.0374 -0.06183,0.07305 -0.09164,0.110662 -0.05712,0.06991 -0.115031,0.139612 -0.1674,0.210605 -0.288944,0.390952 -0.506491,0.787063 -0.66764,1.184753 -0.03257,0.0792 -0.06197,0.158536 -0.08936,0.238043 0,0 0,9.81e-4 0,9.81e-4 -0.05538,0.158907 -0.102231,0.317546 -0.140134,0.476107 -0.01879,0.07833 -0.03579,0.157178 -0.05064,0.236245 0,0 0,9.81e-4 0,9.81e-4 -0.01512,0.0788 -0.02793,0.157539 -0.03901,0.236311 -0.0099,0.07813 -0.01991,0.156139 -0.0273,0.234545 0,0 0,9.82e-4 0,9.82e-4 -0.140255,1.489505 0.369139,2.90157 0.93043,3.959431 0.05905,0.111284 0.119534,0.21833 0.17906,0.321716 0,0 0,9.82e-4 0,9.82e-4 0.05911,0.102913 0.118775,0.200445 0.17711,0.294296 0,0 0,9.8e-4 0,9.8e-4 0.05828,0.09461 0.117311,0.182817 0.173239,0.267229 0,0 0,9.82e-4 0,9.82e-4 0.167917,0.25391 0.322505,0.464446 0.443798,0.621403 0.161889,0.209594 0.264726,0.323528 0.264726,0.323528 0,0 -0.02981,-0.07285 -0.07583,-0.217995 -0.02292,-0.0708 -0.05047,-0.161771 -0.08,-0.267224 0,0 0,-9.81e-4 0,-9.81e-4 -0.0014,-0.0062 -0.0026,-0.01668 -0.0039,-0.02345 -0.02793,-0.101611 -0.05726,-0.215242 -0.08752,-0.345356 -0.0013,-0.0062 -0.0026,-0.01669 -0.0039,-0.02348 -0.02593,-0.112986 -0.05368,-0.240189 -0.08,-0.374325 -0.0019,-0.01331 -0.0034,-0.02367 -0.0066,-0.04078 0,0 0,-9.84e-4 0,-9.84e-4 -0.0011,-0.0062 -0.0028,-0.01669 -0.0039,-0.02369 -0.0011,-0.0062 -0.0016,-0.01669 -0.0026,-0.0276 -0.03044,-0.164307 -0.0606,-0.342116 -0.08749,-0.534317 -0.02818,-0.201797 -0.05466,-0.418939 -0.07584,-0.650396 0,0 0,-9.83e-4 0,-9.83e-4 -0.0213,-0.231648 -0.03818,-0.477459 -0.04846,-0.737604 0,0 0,-9.82e-4 0,-9.82e-4 -0.03113,-0.612414 0.04248,-1.174177 0.19855,-1.684412 0,0 0,-9.82e-4 0,-9.82e-4 0.104037,-0.339936 0.245361,-0.656532 0.418502,-0.950214 0,0 0,-9.82e-4 0,-9.82e-4 0.04288,-0.07226 0.08921,-0.144105 0.136094,-0.214432 0,0 0,-9.82e-4 0,-9.82e-4 0.04702,-0.0695 0.09741,-0.138294 0.147924,-0.2054 0,0 0,-9.83e-4 0,-9.83e-4 0.101511,-0.135136 0.211612,-0.263794 0.327019,-0.387169 0,0 0,-9.8e-4 0,-9.8e-4 0.05798,-0.06111 0.116104,-0.120329 0.177147,-0.180017 0.305335,-0.293949 0.650128,-0.549914 1.021913,-0.768517 0.01466,-0.0062 0.02981,-0.01668 0.04478,-0.02369 0.544227,2.460602 1.171956,5.233164 1.788833,7.873437 0.129353,0.553964 0.25483,1.077604 0.381518,1.613391 h -0.0013 c 0.05914,0.250354 0.115068,0.483559 0.173234,0.728665 0.0099,0.04581 0.02229,0.09022 0.0333,0.134476 -2.273751,0.252204 -4.817348,-0.375079 -7.015194,-2.071463 -0.07715,-0.05915 -0.150974,-0.120324 -0.223859,-0.181686 -0.02448,-0.02006 -0.04792,-0.04176 -0.07207,-0.06148 -0.01198,-0.0103 -0.0259,-0.02006 -0.03904,-0.03278 -0.03458,-0.03196 -0.06948,-0.06014 -0.103254,-0.09175 -0.09867,-0.09022 -0.193979,-0.180833 -0.284195,-0.272496 -0.08548,-0.088 -0.165399,-0.174867 -0.243331,-0.263432 -0.06232,-0.07015 -0.1232,-0.142036 -0.181024,-0.214424 -0.03301,-0.04146 -0.06419,-0.08281 -0.09518,-0.122711 -0.01295,-0.0167 -0.02893,-0.03879 -0.04264,-0.05619 -0.04823,-0.06514 -0.09507,-0.131883 -0.140143,-0.198087 -7.71e-4,-9.81e-4 -9.98e-4,-0.002 -0.0013,-0.003 -0.0041,-0.0103 -0.01216,-0.02005 -0.01946,-0.02736 -0.01252,-0.02008 -0.02546,-0.04176 -0.03901,-0.06148 -0.132702,-0.20536 -0.251132,-0.414189 -0.352303,-0.62684 -0.0023,-0.0062 -0.005,-0.01335 -0.0085,-0.02009 -0.111937,-0.238079 -0.20634,-0.481471 -0.282238,-0.726851 -9.98e-4,-0.003 -0.0019,-0.0062 -0.0026,-0.01031 -0.01078,-0.0374 -0.02072,-0.0716 -0.03111,-0.109013 -0.0064,-0.02759 -0.01311,-0.05316 -0.02167,-0.07946 -4.98e-4,-9.82e-4 -9.99e-4,-0.003 -0.0013,-0.0062 -0.02767,-0.102251 -0.0523,-0.204325 -0.07413,-0.306971 -0.01764,-0.08529 -0.03426,-0.169498 -0.04849,-0.25426 -0.01136,-0.07141 -0.02165,-0.145193 -0.03109,-0.217992 -5.44e-4,-0.003 -9.99e-4,-0.0062 -0.0013,-0.01335 -0.03384,-0.26372 -0.05208,-0.52963 -0.05435,-0.795877 -7.7e-4,-0.07921 1.19e-4,-0.158561 0.0013,-0.238013 0.0028,-0.178992 0.01469,-0.358772 0.03114,-0.537852 0.02295,-0.249996 0.05681,-0.499945 0.101084,-0.748618 0,0 0,-9.81e-4 0,-9.81e-4 0.0061,-0.04073 0.01598,-0.07975 0.02326,-0.119351 9.98e-4,-0.0062 0.0019,-0.0103 0.0026,-0.0167 0.01763,-0.09231 0.03611,-0.181844 0.05649,-0.27252 0.0031,-0.02007 0.008,-0.04176 0.01257,-0.06147 0.01198,-0.05549 0.02737,-0.109986 0.04096,-0.165211 0.02417,-0.09828 0.04922,-0.195514 0.07586,-0.292585 0.01641,-0.05851 0.03146,-0.117286 0.04848,-0.176115 0.01946,-0.06676 0.04143,-0.134591 0.06233,-0.201866 0.01473,-0.04704 0.02981,-0.0942 0.04481,-0.139909 0.0088,-0.03277 0.01918,-0.06148 0.02894,-0.09338 0,0 0,-9.81e-4 0,-9.81e-4 0.0151,-0.04542 0.03113,-0.0906 0.04677,-0.134299 0.05375,-0.155792 0.110289,-0.310504 0.169349,-0.463356 0.04807,-0.124025 0.09698,-0.250383 0.147927,-0.372494 0.0066,-0.01668 0.0172,-0.03667 0.0251,-0.05445 0.06135,-0.145247 0.123996,-0.28938 0.188825,-0.43066 0.20754,-0.451986 0.428785,-0.881828 0.654024,-1.282829 0,0 0,-9.82e-4 0,-9.82e-4 0.0052,-0.0103 0.01467,-0.02007 0.02163,-0.03618 0.174139,-0.308401 0.350908,-0.599211 0.521666,-0.868564 -0.0036,0.0062 -0.0088,0.01333 -0.01565,0.02007 0.424724,-0.672169 0.822109,-1.215705 1.101717,-1.568118 0.09841,-0.123355 0.183773,-0.224659 0.249166,-0.299915 0.06525,-0.0739 0.145183,-0.162451 0.239414,-0.261615 0.374486,-0.394664 1.010601,-1.014621 1.703186,-1.684408 z m 5.035588,6.083457 c 0.58466,0.0062 1.16382,0.08218 1.709026,0.230607 0.164227,0.04544 0.325124,0.09692 0.482729,0.154484 0.394021,0.145087 0.764497,0.331589 1.101721,0.559654 0.202336,0.136731 0.392839,0.288987 0.568376,0.456103 0.117001,0.111293 0.227553,0.229214 0.330901,0.354303 0.310127,0.375098 0.554554,0.81111 0.716306,1.310076 0,0 0,9.83e-4 0,9.83e-4 0.02692,0.08248 0.05206,0.166754 0.07413,0.252408 0,0 0,9.8e-4 0,9.8e-4 0.02228,0.08683 0.04295,0.174039 0.0603,0.263259 0,0 0,9.8e-4 0,9.8e-4 0.03427,0.179661 0.05825,0.366119 0.07208,0.55965 0,0 0,9.81e-4 0,9.81e-4 0.0052,0.09732 0.01136,0.196199 0.01253,0.295962 9.99e-4,0.100938 3.73e-4,0.19946 -0.0013,0.298225 0,0 0,9.81e-4 0,9.81e-4 -0.0031,0.196901 -0.01563,0.390376 -0.03507,0.579735 0,0 0,9.82e-4 0,9.82e-4 -0.0085,0.09488 -0.02204,0.187367 -0.03512,0.279835 0,0 0,9.82e-4 0,9.82e-4 -0.01216,0.09338 -0.02981,0.183874 -0.04676,0.27414 0,0 0,9.84e-4 0,9.84e-4 -0.03384,0.181545 -0.07344,0.358931 -0.120785,0.532423 0,0 0,9.8e-4 0,9.8e-4 -0.02367,0.08779 -0.04897,0.171819 -0.07584,0.256321 0,0 0,9.8e-4 0,9.8e-4 -0.005,0.02008 -0.01468,0.04052 -0.02164,0.05981 -0.04887,0.148689 -0.102905,0.293942 -0.161558,0.436037 -0.03356,0.08097 -0.06672,0.159395 -0.103276,0.238096 0,0 0,9.82e-4 0,9.82e-4 -0.07262,0.156834 -0.153031,0.309779 -0.237495,0.458014 0,0 0,9.8e-4 0,9.8e-4 -0.04193,0.07285 -0.08571,0.14629 -0.130262,0.217979 0,0 0,9.81e-4 0,9.81e-4 -0.02229,0.03648 -0.04709,0.0695 -0.07004,0.105625 -0.02295,0.03618 -0.04636,0.06991 -0.07003,0.105592 0,0 0,9.81e-4 0,9.81e-4 -0.04759,0.06887 -0.09772,0.137933 -0.147926,0.205403 0,0 0,9.83e-4 0,9.83e-4 -0.05036,0.06652 -0.102895,0.132867 -0.155709,0.198091 0,0 0,9.85e-4 0,9.85e-4 -0.05289,0.06444 -0.108239,0.126945 -0.163523,0.190917 0,0 0,9.83e-4 0,9.83e-4 -0.11119,0.125019 -0.227726,0.246592 -0.34841,0.363398 0,0 0,9.82e-4 0,9.82e-4 -0.234745,0.227176 -0.489761,0.435914 -0.757195,0.62699 -0.02482,0.01331 -0.05071,0.03648 -0.07586,0.05282 -0.08336,0.05781 -0.166896,0.114298 -0.25304,0.169252 -0.560505,-2.679986 -1.098975,-5.249794 -2.11779,-10.117556 z" />
  <path
     id="path860-0"
     style="fill:#45007e;fill-opacity:0.0695295;stroke:none;stroke-width:0.171828px;stroke-linecap:butt;stroke-linejoin:miter;stroke-opacity:1"
     d="M 36.615821,5.815933 C 34.894974,5.809733 33.3827,7.985548 33.3827,7.985548 33.612619,7.704376 33.913147,7.446794 34.252777,7.29328 c -1.099763,0.553432 -2.174295,2.454547 -3.087142,4.935196 -1.147766,3.119165 -1.033874,6.784542 -0.654018,9.797554 -7.193885,4.341847 -8.176244,5.993906 -9.888235,8.761892 -3.636937,5.880513 -0.950907,12.232646 3.657475,15.386976 0,0 0.0013,9.8e-4 0.0013,9.8e-4 0.005,0.003 0.01216,0.0062 0.01944,0.01332 0.0039,0.003 0.01105,0.0062 0.01725,0.0103 0.185242,0.125014 0.373395,0.246466 0.564493,0.361552 0.03747,0.02006 0.0752,0.04542 0.112747,0.06653 0.06085,0.03668 0.121796,0.06989 0.182995,0.105612 0.05869,0.03291 0.117849,0.06549 0.177147,0.09866 0,0 0.0013,9.82e-4 0.0013,9.82e-4 0.0023,9.81e-4 0.005,0.003 0.0085,0.0062 0.144386,0.07746 0.290901,0.153384 0.437968,0.22548 0.04149,0.02007 0.08289,0.04245 0.124432,0.06149 0.03356,0.01668 0.06753,0.03291 0.101071,0.04751 0.09229,0.04349 0.185206,0.084 0.278362,0.122702 0.0099,0.003 0.02204,0.0103 0.0333,0.01333 0.08761,0.03843 0.176237,0.07255 0.264713,0.109015 0.03149,0.01331 0.06353,0.02367 0.09515,0.03907 0.111329,0.04375 0.222393,0.08713 0.334789,0.124641 2.362998,0.835969 5.71384,1.222481 9.055112,0.505156 0.0533,0.264134 0.101408,0.517916 0.140148,0.752334 0.02418,0.146966 0.04563,0.287612 0.06425,0.423328 0.129922,0.95129 0.123575,1.635449 0.0026,2.12054 -0.01691,0.06848 -0.03678,0.13252 -0.05837,0.194375 -0.02204,0.0611 -0.0459,0.119954 -0.07208,0.174467 -0.02588,0.05384 -0.05538,0.104258 -0.08582,0.150809 -0.03043,0.04704 -0.06282,0.09176 -0.09744,0.129828 -0.03459,0.04078 -0.07037,0.07584 -0.109111,0.110634 -0.03879,0.03618 -0.08029,0.06384 -0.122611,0.09358 -0.04238,0.02773 -0.08622,0.05347 -0.132486,0.07518 -0.138754,0.06757 -0.29317,0.112991 -0.463272,0.139886 -0.05671,0.01031 -0.115361,0.01334 -0.175189,0.02006 -0.05976,0.003 -0.121987,0.0103 -0.184908,0.0103 -0.126149,0.003 -0.257571,3.07e-4 -0.395146,-0.0061 -0.137727,-0.0061 -0.282083,-0.01669 -0.430172,-0.03618 -0.148071,-0.01333 -0.299939,-0.03618 -0.457427,-0.05449 -0.157488,-0.02007 -0.318851,-0.04126 -0.484677,-0.06146 -0.06953,-0.0103 -0.137215,-0.01669 -0.202427,-0.02008 -0.06513,-0.003 -0.129453,-0.0062 -0.190739,-0.0062 -0.06123,2.88e-4 -0.120101,0.002 -0.177152,0.0062 -0.05719,0.003 -0.112113,0.01031 -0.165432,0.01669 -0.106236,0.01669 -0.204611,0.04214 -0.295875,0.07181 -0.04562,0.01334 -0.09035,0.03618 -0.132478,0.05279 -0.04192,0.01671 -0.08218,0.03911 -0.120767,0.05975 -0.03866,0.0201 -0.0742,0.04515 -0.109102,0.06817 -0.03514,0.0237 -0.06779,0.04984 -0.09929,0.0752 -0.03151,0.02772 -0.06128,0.05618 -0.08936,0.0866 -0.02818,0.02757 -0.05668,0.05781 -0.08165,0.08997 -0.200648,0.248244 -0.299941,0.555879 -0.323102,0.857608 -0.0039,0.07454 -0.0064,0.149816 -0.0026,0.223641 0.0023,0.07285 0.01078,0.145927 0.02329,0.216257 0.01136,0.06949 0.02894,0.138932 0.04849,0.203617 0.01953,0.06418 0.04147,0.12565 0.06813,0.183502 0.05331,0.113708 0.121746,0.209973 0.198543,0.28166 0,0 0.03013,0.04198 0.09164,0.109012 0.06148,0.06696 0.153481,0.161808 0.2764,0.267255 0.0615,0.0528 0.131582,0.106941 0.208262,0.163518 0.07669,0.05646 0.16087,0.113672 0.253047,0.170919 0.138325,0.08597 0.294408,0.16844 0.467166,0.243651 0.05771,0.02372 0.115779,0.04985 0.177143,0.07183 0.06146,0.02341 0.125617,0.04547 0.190743,0.06479 0.130368,0.04177 0.268758,0.07637 0.414605,0.105614 0.07286,0.01333 0.147094,0.02369 0.223859,0.03711 0.0766,0.01032 0.154958,0.01669 0.235523,0.02373 0.08064,0.0059 0.164755,0.01032 0.24917,0.01032 0.08428,0.0011 0.170636,-0.0011 0.258884,-0.0059 0.0881,-0.0032 0.176547,-0.01032 0.268606,-0.02009 0.09216,-0.01032 0.186344,-0.02341 0.282243,-0.04079 0.09584,-0.01668 0.19421,-0.03616 0.293914,-0.05781 0.09977,-0.02373 0.20205,-0.05024 0.305595,-0.07907 0.103619,-0.03261 0.207963,-0.06195 0.315352,-0.100294 0.107279,-0.03842 0.217757,-0.0801 0.328939,-0.124638 0.111218,-0.04611 0.223674,-0.09564 0.338707,-0.149057 0.115105,-0.05408 0.231545,-0.112975 0.350377,-0.176155 0.118716,-0.0627 0.239374,-0.12982 0.362058,-0.203608 0.107429,-0.06315 0.212292,-0.128027 0.311431,-0.196199 0.09906,-0.06654 0.193197,-0.13675 0.284195,-0.207079 0.09119,-0.06948 0.177642,-0.14103 0.260849,-0.214528 0.08327,-0.07231 0.163739,-0.149076 0.239412,-0.225368 0.07566,-0.07479 0.147615,-0.152263 0.216058,-0.230672 0.06856,-0.07825 0.133137,-0.158975 0.194664,-0.239839 0.06156,-0.08105 0.120331,-0.162436 0.175188,-0.245444 0.05493,-0.08366 0.105161,-0.167707 0.153754,-0.252403 0.04844,-0.08579 0.09545,-0.169856 0.13829,-0.256369 0.08542,-0.172965 0.158885,-0.349169 0.221905,-0.526976 0.03151,-0.09011 0.05917,-0.178943 0.08581,-0.26902 0.02648,-0.09119 0.05042,-0.180029 0.07207,-0.270731 0.02162,-0.09176 0.0413,-0.18143 0.05838,-0.272522 0.102765,-0.546668 0.126567,-1.099919 0.10507,-1.635353 -0.0061,-0.178273 -0.01882,-0.355173 -0.03516,-0.528797 -0.01641,-0.17371 -0.03578,-0.343837 -0.05837,-0.510583 -0.02587,-0.192632 -0.05625,-0.380281 -0.08749,-0.561426 -0.0082,-0.05549 -0.01915,-0.107308 -0.02943,-0.161797 -0.01691,-0.09388 -0.03355,-0.181743 -0.05063,-0.270719 -0.0077,-0.04443 -0.01467,-0.07824 -0.02327,-0.121027 -0.01253,-0.06819 -0.0255,-0.129039 -0.03904,-0.196183 -0.0031,-0.02007 -0.0082,-0.04312 -0.01257,-0.06313 -0.02793,-0.135787 -0.05321,-0.265103 -0.07784,-0.38704 0,0 -0.05158,-0.247873 -0.05257,-0.252427 1.016737,-0.474527 2.000549,-1.082317 2.919745,-1.838853 9.99e-4,-9.82e-4 0.0017,-0.002 0.0026,-0.003 0.212708,-0.175106 0.423292,-0.355176 0.628726,-0.546932 0,0 0,-9.81e-4 0,-9.81e-4 0.03041,-0.02773 0.05957,-0.05779 0.08936,-0.0883 0.0075,-0.0062 0.01691,-0.01333 0.02514,-0.02365 0.0075,-0.0062 0.01509,-0.01669 0.02328,-0.02359 0.06658,-0.06585 0.13276,-0.134924 0.19658,-0.205375 0.03578,-0.04014 0.07224,-0.07663 0.106921,-0.117678 0,0 0,-9.83e-4 0,-9.83e-4 0.02694,-0.03264 0.05334,-0.06383 0.08001,-0.09693 0.0039,-0.0062 0.01136,-0.01333 0.01722,-0.02008 0.0017,-0.002 0.0036,-0.0062 0.0066,-0.01031 0.0031,-0.0062 0.008,-0.0103 0.01254,-0.01669 0.02893,-0.03668 0.05905,-0.06989 0.0875,-0.107329 0.01945,-0.02342 0.03708,-0.0525 0.05652,-0.07712 0.0467,-0.06146 0.09318,-0.122711 0.138284,-0.186997 0,0 0,-9.82e-4 0,-9.82e-4 0.01463,-0.02008 0.02818,-0.04312 0.04264,-0.06316 0.0021,-0.003 0.0052,-0.0062 0.0085,-0.01329 0.01253,-0.02009 0.02767,-0.04052 0.04096,-0.05981 0.03045,-0.04609 0.06186,-0.0923 0.09163,-0.138112 0,0 0,-9.81e-4 0,-9.81e-4 0.01691,-0.02876 0.03382,-0.05489 0.05062,-0.08282 0.0028,-0.0062 0.0064,-0.01331 0.01105,-0.02006 0.0077,-0.01334 0.01851,-0.029 0.0273,-0.04245 0.0286,-0.04778 0.05782,-0.0942 0.08581,-0.141683 0,0 0,-9.82e-4 0,-9.82e-4 0.05616,-0.0976 0.110981,-0.195836 0.163516,-0.296155 0,0 0,-9.82e-4 0,-9.82e-4 0.158236,-0.30247 0.300729,-0.619813 0.426284,-0.94667 0.04162,-0.108661 0.08265,-0.21802 0.120781,-0.328887 0,0 0,-9.81e-4 0,-9.81e-4 0,0 0,-9.81e-4 0,-9.81e-4 0.03817,-0.110654 0.07481,-0.221593 0.109091,-0.334505 0,0 0,-9.82e-4 0,-9.82e-4 0.03425,-0.112355 0.06683,-0.225479 0.09745,-0.33975 0,0 0,-9.8e-4 0,-9.8e-4 0.03047,-0.114072 0.05897,-0.229587 0.08581,-0.34519 0,0 0,-9.81e-4 0,-9.81e-4 0.0036,-0.02343 0.0088,-0.04777 0.01565,-0.07015 9.99e-4,-0.0062 0.0018,-0.0103 0.0026,-0.01668 8.11e-4,-0.003 9.98e-4,-0.0062 0.0013,-0.01031 0.0185,-0.08493 0.03818,-0.167718 0.0544,-0.252421 0.02255,-0.115719 0.04354,-0.232116 0.06232,-0.348772 1.86e-4,-9.81e-4 -1.94e-4,-0.002 0,-0.003 0.01881,-0.116582 0.03576,-0.233108 0.05061,-0.350537 0,0 0,-9.84e-4 0,-9.84e-4 0.01468,-0.117286 0.02793,-0.236581 0.03902,-0.354322 0,0 0,-9.81e-4 0,-9.81e-4 0.0099,-0.117309 0.0185,-0.234882 0.02514,-0.352551 0,0 0,-9.81e-4 0,-9.81e-4 0.0052,-0.117417 0.01198,-0.235307 0.01559,-0.352546 0,0 0,-9.81e-4 0,-9.81e-4 0.0019,-0.116325 0.0023,-0.234571 0.0013,-0.350619 -2.3e-5,-9.8e-4 1.1e-5,-0.002 0,-0.003 -9.98e-4,-0.116326 -0.0041,-0.23135 -0.01105,-0.347031 0,0 0,-9.8e-4 0,-9.8e-4 -0.0039,-0.115258 -0.01255,-0.230992 -0.0233,-0.345277 0,0 0,-9.81e-4 0,-9.81e-4 -0.0085,-0.113687 -0.02129,-0.227515 -0.03503,-0.339723 0,0 0,-9.84e-4 0,-9.84e-4 0,0 0,-9.81e-4 0,-9.81e-4 -0.01297,-0.112002 -0.03045,-0.224013 -0.04846,-0.33444 -2.01e-4,-9.81e-4 1.87e-4,-0.002 0,-0.003 -0.01852,-0.110894 -0.03963,-0.220106 -0.06233,-0.328757 0,0 0,-9.82e-4 0,-9.82e-4 -0.02255,-0.108329 -0.04714,-0.215576 -0.07417,-0.321769 0,0 0,-9.82e-4 0,-9.82e-4 0,0 0,-9.82e-4 0,-9.82e-4 -0.02732,-0.106664 -0.05818,-0.210618 -0.08936,-0.314356 0,0 0,-9.82e-4 0,-9.82e-4 -0.03146,-0.103947 -0.06518,-0.206401 -0.101051,-0.306979 0,0 0,-9.8e-4 0,-9.8e-4 -0.03576,-0.101314 -0.07455,-0.200394 -0.114954,-0.297804 0,0 0,-9.83e-4 0,-9.83e-4 -0.04038,-0.09798 -0.08347,-0.192987 -0.128428,-0.287243 0,0 0,-9.81e-4 0,-9.81e-4 -0.04528,-0.09529 -0.09228,-0.187386 -0.142027,-0.278103 -0.0678,-0.122726 -0.13956,-0.243695 -0.212182,-0.363424 -0.0039,-0.01031 -0.01136,-0.0167 -0.01765,-0.02761 -0.361907,-0.592373 -0.78173,-1.140925 -1.24576,-1.637202 -0.0061,-0.0062 -0.01311,-0.0133 -0.02166,-0.02006 -0.748806,-0.795862 -1.611357,-1.458894 -2.532391,-1.960575 -0.0031,-0.002 -0.008,-0.003 -0.01255,-0.0062 -0.693638,-0.376441 -1.419646,-0.660996 -2.15477,-0.843146 -0.0026,-9.81e-4 -0.0066,-7.09e-4 -0.01105,-9.81e-4 -0.489137,-0.119954 -0.981819,-0.195848 -1.471672,-0.22153 -0.0036,-2.66e-4 -0.0096,2.52e-4 -0.01562,0 -0.141797,-0.0062 -0.283221,-0.0103 -0.424335,-0.0103 v 9.82e-4 c -0.09986,7.24e-4 -0.198504,9.8e-4 -0.297802,0.0062 -0.0917,0.003 -0.183363,0.0103 -0.274438,0.02007 -0.06247,0.0062 -0.124537,0.01333 -0.18687,0.02007 -0.384804,-1.840637 -0.712975,-3.399874 -1.097822,-5.243992 -2.58e-4,-9.81e-4 2.42e-4,-0.002 0,-0.003 -0.04386,-0.209934 -0.08013,-0.412757 -0.118592,-0.617794 1.069854,-1.06105 2.048388,-2.072017 2.635553,-2.796465 0.05187,-0.06317 0.104206,-0.131857 0.157676,-0.203636 0.0534,-0.07054 0.108782,-0.144832 0.163523,-0.223599 0.05481,-0.07764 0.109568,-0.161795 0.165434,-0.247181 0.05597,-0.08594 0.112576,-0.173705 0.16935,-0.26513 0.453314,-0.734179 0.924492,-1.671281 1.323618,-2.727421 0.04981,-0.130761 0.09864,-0.264798 0.145996,-0.399776 0,0 0,-9.83e-4 0,-9.83e-4 0.04751,-0.135769 0.09342,-0.271808 0.138293,-0.410607 0.581471,-1.8047 0.914957,-3.870214 0.620929,-5.836416 -0.04515,-0.302051 -0.10486,-0.601711 -0.181026,-0.897622 0,0 0,-9.82e-4 0,-9.82e-4 C 39.716723,9.42944 39.674843,9.282437 39.628425,9.136301 39.535545,8.843725 39.425776,8.555908 39.29752,8.273197 39.25935,8.188547 39.22135,8.110395 39.182572,8.031609 c -0.01467,-0.02773 -0.02818,-0.05784 -0.04264,-0.0883 -0.0075,-0.01669 -0.01691,-0.03291 -0.02514,-0.04746 -0.04473,-0.0884 -0.08903,-0.17188 -0.134274,-0.252398 -9.99e-4,-0.002 -0.0019,-0.003 -0.0026,-0.0062 -0.106474,-0.189879 -0.21365,-0.362304 -0.323095,-0.517888 -0.0052,-0.0103 -0.01198,-0.01668 -0.01948,-0.02783 -0.104067,-0.145866 -0.209323,-0.277079 -0.315361,-0.39426 -0.0036,-0.0062 -0.0088,-0.0103 -0.01562,-0.01668 -0.05097,-0.05578 -0.10265,-0.108628 -0.153756,-0.158225 -9.99e-4,-9.82e-4 -0.002,-6.97e-4 -0.0026,-9.82e-4 -0.169275,-0.163169 -0.338625,-0.29496 -0.509968,-0.396061 -0.0023,-9.81e-4 -0.005,-0.003 -0.0085,-0.0062 -0.100335,-0.05812 -0.201287,-0.105997 -0.301711,-0.145168 -0.02073,-0.0062 -0.04148,-0.01668 -0.06231,-0.02367 -0.162417,-0.05741 -0.324091,-0.09368 -0.484671,-0.107339 -0.0022,-3.27e-4 -0.005,3e-4 -0.0085,0 -0.05345,-0.003 -0.106269,-0.0103 -0.159635,-0.0103 z m -0.766914,1.709991 c 0.03974,0.03278 0.07911,0.06612 0.118595,0.103944 0.307999,0.286324 0.614649,0.714456 0.905113,1.330179 0.394876,0.805517 1.59141,6.373567 -2.937264,10.658833 -5.7e-5,-9.82e-4 6.1e-5,-0.002 0,-0.003 -0.0088,-0.198062 -0.0164,-0.393356 -0.02162,-0.585139 -0.0031,-0.174729 -0.0077,-0.346352 -0.0085,-0.516077 -4.3e-4,-0.08387 9.99e-4,-0.164852 0.0013,-0.247094 9.98e-4,-0.256756 0.0066,-0.507537 0.01723,-0.752369 0.0016,-0.05721 0.0021,-0.115274 0.0039,-0.172497 0.0041,-0.127369 0.01216,-0.254631 0.02163,-0.379799 0.0041,-0.08944 0.0116,-0.175167 0.01945,-0.261561 0.0077,-0.107721 0.01725,-0.216311 0.02732,-0.321904 0.01562,-0.161595 0.03355,-0.319825 0.05259,-0.476006 0.01599,-0.131057 0.03243,-0.26123 0.05063,-0.388939 0.005,-0.04478 0.01198,-0.0897 0.01952,-0.131821 0.04173,-0.277768 0.08885,-0.544976 0.140145,-0.803202 0.0213,-0.106652 0.04545,-0.210912 0.06818,-0.314323 0.0085,-0.04582 0.01879,-0.09226 0.02893,-0.136161 0.02692,-0.116578 0.05538,-0.232269 0.0836,-0.345195 9.13e-4,-0.003 9.98e-4,-0.0062 0.0013,-0.01031 0.06388,-0.25246 0.131568,-0.494202 0.202415,-0.724996 0.03153,-0.102665 0.06287,-0.201868 0.09516,-0.30001 0.0077,-0.02351 0.01851,-0.05212 0.02734,-0.07728 0.0333,-0.09866 0.06702,-0.195191 0.101082,-0.289001 h -0.0013 c 0.867233,-2.38472 2.004897,-3.41969 2.004897,-3.41969 -0.296168,-0.593383 -0.59866,-1.031869 -0.905113,-1.330162 -0.0393,-0.03913 -0.07938,-0.06928 -0.118605,-0.103948 z m -4.558698,19.090137 c 0.02818,0.148643 0.06565,0.333588 0.08756,0.459603 0.06249,0.360415 0.154423,0.842041 0.270559,1.419106 0.116202,0.577233 0.25557,1.249926 0.414615,1.997062 0.01914,0.09059 0.04468,0.200779 0.06422,0.292557 -0.285291,0.169799 -0.550057,0.343175 -0.794179,0.519589 -9.98e-4,9.8e-4 -0.0031,0.003 -0.0039,0.0062 -0.0015,9.81e-4 -0.0025,0.003 -0.0039,0.0062 -0.0949,0.06817 -0.187362,0.1371 -0.276414,0.207107 -0.0031,0.003 -0.008,0.0062 -0.01253,0.0103 -0.0031,0.003 -0.008,0.0062 -0.01255,0.0103 -0.07018,0.05549 -0.141689,0.112641 -0.208264,0.169174 -0.05133,0.04377 -0.100505,0.0884 -0.149873,0.129793 -0.02793,0.02358 -0.05665,0.04845 -0.08359,0.07184 -0.0041,0.0062 -0.01255,0.01331 -0.01944,0.0167 -0.042,0.0391 -0.08207,0.07764 -0.12262,0.115971 -0.05092,0.04915 -0.101389,0.09695 -0.149876,0.145166 -0.0083,0.0103 -0.01764,0.02005 -0.0273,0.02795 -0.04427,0.0458 -0.08658,0.09176 -0.128438,0.136156 -0.05353,0.05782 -0.105537,0.115555 -0.155711,0.174421 -0.01079,0.01333 -0.02204,0.02678 -0.0333,0.04075 -0.03082,0.03741 -0.06184,0.07305 -0.09168,0.110652 -0.05714,0.0699 -0.115023,0.139623 -0.1674,0.210634 -0.288939,0.390957 -0.5065,0.78707 -0.667643,1.184762 -0.03209,0.07853 -0.06195,0.158532 -0.08936,0.238014 0,0 0,9.81e-4 0,9.81e-4 -0.05538,0.158909 -0.102225,0.317562 -0.140146,0.476125 -0.01879,0.07834 -0.03578,0.157176 -0.05062,0.23626 0,0 0,9.81e-4 0,9.81e-4 -0.0151,0.07833 -0.02793,0.157526 -0.03901,0.236298 -0.0099,0.07813 -0.01986,0.156152 -0.02733,0.234532 0,0 0,9.83e-4 0,9.83e-4 -0.140258,1.489512 0.36914,2.90157 0.930424,3.959438 0.05901,0.111297 0.119596,0.218333 0.179068,0.32171 0,0 0,9.81e-4 0,9.81e-4 0.05914,0.102924 0.118794,0.200421 0.177109,0.29427 0,0 0,9.81e-4 0,9.81e-4 0.05825,0.0946 0.117305,0.182841 0.173238,0.267238 0,0 0,9.81e-4 0,9.81e-4 0.167909,0.253912 0.322503,0.464438 0.4438,0.621408 0.161885,0.20962 0.26472,0.323538 0.26472,0.323538 0,0 -0.02982,-0.07285 -0.07584,-0.217987 -0.02294,-0.07081 -0.05047,-0.161771 -0.08,-0.26727 0,0 0,-9.82e-4 0,-9.82e-4 -0.0014,-0.0062 -0.0026,-0.01669 -0.0039,-0.02349 -0.02793,-0.101611 -0.05728,-0.215225 -0.08754,-0.34535 -0.0013,-0.0062 -0.0026,-0.0167 -0.0039,-0.02341 -0.0259,-0.112981 -0.05369,-0.240194 -0.07998,-0.374358 -0.0019,-0.01334 -0.0034,-0.02368 -0.0066,-0.04075 0,0 0,-9.81e-4 0,-9.81e-4 -0.0011,-0.0062 -0.0028,-0.01668 -0.0039,-0.02351 -0.0011,-0.0062 -0.0016,-0.01668 -0.0026,-0.02759 -0.03047,-0.16433 -0.0606,-0.342155 -0.08748,-0.534352 -0.02818,-0.201812 -0.05459,-0.418921 -0.07585,-0.650386 0,0 0,-9.81e-4 0,-9.81e-4 -0.02129,-0.231673 -0.03813,-0.477432 -0.04848,-0.737632 0,0 0,-9.81e-4 0,-9.81e-4 -0.03113,-0.612435 0.04246,-1.174202 0.198543,-1.684394 0,0 0,-9.82e-4 0,-9.82e-4 0.104036,-0.339953 0.24536,-0.65653 0.418503,-0.950175 0,0 0,-9.8e-4 0,-9.8e-4 0.04286,-0.07227 0.08921,-0.144082 0.136082,-0.214424 0,0 0,-9.82e-4 0,-9.82e-4 0.04701,-0.0695 0.09741,-0.138318 0.147913,-0.205413 0,0 0,-9.82e-4 0,-9.82e-4 0.101582,-0.135159 0.211623,-0.263823 0.32703,-0.387191 0,0 0,-9.81e-4 0,-9.81e-4 0.05797,-0.06124 0.116082,-0.12033 0.177152,-0.180024 0.305335,-0.293942 0.650125,-0.549903 1.021911,-0.76851 0.01464,-0.0062 0.02981,-0.01668 0.04478,-0.02359 0.544231,2.460592 1.171962,5.233171 1.788839,7.873454 0.129399,0.553986 0.254816,1.077583 0.381508,1.613411 h -0.0013 c 0.05914,0.250391 0.115063,0.483555 0.173231,0.728703 0.0099,0.04582 0.02229,0.09022 0.0333,0.134218 -2.273746,0.252198 -4.81733,-0.375069 -7.015189,-2.071448 -0.07704,-0.05915 -0.15097,-0.120315 -0.223852,-0.181702 -0.02446,-0.02006 -0.04792,-0.04176 -0.07204,-0.06148 -0.01198,-0.01031 -0.02587,-0.02006 -0.03901,-0.0329 -0.03459,-0.03194 -0.06944,-0.06016 -0.103257,-0.09175 -0.09868,-0.09022 -0.193986,-0.180873 -0.284196,-0.272535 -0.0855,-0.0881 -0.165397,-0.174856 -0.243331,-0.263438 -0.06233,-0.07012 -0.123205,-0.142035 -0.181029,-0.214379 -0.03304,-0.04146 -0.06415,-0.08322 -0.09515,-0.122714 -0.01282,-0.01668 -0.02893,-0.0388 -0.04264,-0.05619 -0.04823,-0.06523 -0.09508,-0.131426 -0.140146,-0.198119 -7.64e-4,-9.84e-4 -9.98e-4,-0.002 -0.0013,-0.003 -0.0047,-0.0103 -0.01216,-0.02006 -0.01946,-0.02728 -0.01255,-0.02007 -0.02548,-0.04176 -0.03901,-0.06146 -0.132706,-0.205325 -0.251132,-0.414158 -0.352299,-0.626814 -0.0023,-0.0062 -0.005,-0.01332 -0.0085,-0.02009 -0.111921,-0.238082 -0.206344,-0.481433 -0.282238,-0.726814 -9.98e-4,-0.003 -0.0019,-0.0062 -0.0026,-0.0103 -0.01078,-0.03739 -0.02072,-0.0716 -0.03114,-0.10901 -0.0064,-0.02692 -0.01311,-0.05319 -0.02167,-0.07975 -4.97e-4,-9.81e-4 -9.99e-4,-0.003 -0.0013,-0.0062 -0.02767,-0.102257 -0.0523,-0.204329 -0.0741,-0.306961 -0.01764,-0.08503 -0.03429,-0.169507 -0.04848,-0.254241 -0.01136,-0.07161 -0.02168,-0.145193 -0.03111,-0.218023 -5.43e-4,-0.003 -9.99e-4,-0.0062 -0.0013,-0.01333 -0.03382,-0.263709 -0.05208,-0.529593 -0.05434,-0.795837 -7.72e-4,-0.07948 1.19e-4,-0.158601 0.0013,-0.23804 0.0028,-0.178974 0.01467,-0.358762 0.03113,-0.537844 0.02292,-0.249992 0.0568,-0.499935 0.101051,-0.74864 0,0 0,-9.81e-4 0,-9.81e-4 0.0061,-0.04075 0.01597,-0.07985 0.02329,-0.11935 9.98e-4,-0.0062 0.0019,-0.0103 0.0026,-0.01669 0.01765,-0.09232 0.03608,-0.181861 0.0565,-0.2725 0.0031,-0.0201 0.008,-0.04176 0.01254,-0.06146 0.01198,-0.05549 0.02735,-0.109965 0.04096,-0.1652 0.02419,-0.09827 0.04918,-0.195515 0.07584,-0.292575 0.0164,-0.05847 0.03148,-0.117273 0.04849,-0.176136 0.01943,-0.06678 0.0414,-0.134784 0.0623,-0.201852 0.01469,-0.04704 0.02982,-0.09419 0.04481,-0.139907 0.0085,-0.03278 0.01882,-0.06145 0.02893,-0.09348 0,0 0,-9.82e-4 0,-9.82e-4 0.0151,-0.04542 0.03113,-0.09071 0.04676,-0.134086 0.05376,-0.155811 0.110315,-0.310485 0.169347,-0.463377 0.0481,-0.12402 0.09697,-0.250383 0.147919,-0.372504 0.0066,-0.01671 0.01727,-0.03668 0.02514,-0.05448 0.06141,-0.145255 0.123993,-0.289361 0.188822,-0.430656 0.207544,-0.451969 0.428792,-0.88184 0.654025,-1.28282 0,0 0,-9.82e-4 0,-9.82e-4 0.0052,-0.0103 0.01469,-0.02009 0.02164,-0.03618 0.174138,-0.308387 0.350907,-0.599168 0.521665,-0.868563 -0.0036,0.0062 -0.0088,0.01327 -0.01562,0.02007 0.424726,-0.672193 0.822103,-1.215734 1.101716,-1.568125 0.09841,-0.123359 0.183783,-0.224682 0.249176,-0.299934 0.06524,-0.07389 0.145161,-0.162439 0.239405,-0.261608 0.374489,-0.394668 1.010607,-1.014612 1.703184,-1.684424 z m 5.035592,6.083466 c 0.584666,0.0062 1.163818,0.08177 1.709026,0.230613 0.164232,0.04541 0.325137,0.0969 0.482738,0.154457 0.394019,0.145091 0.764495,0.331568 1.101721,0.559656 0.20233,0.136742 0.392822,0.288986 0.568377,0.456088 0.117,0.111295 0.227546,0.22924 0.330897,0.354307 0.310118,0.375107 0.55454,0.811139 0.716307,1.310075 0,0 0,9.83e-4 0,9.83e-4 0.02694,0.08312 0.05206,0.166765 0.07414,0.252433 0,0 0,9.81e-4 0,9.81e-4 0.02229,0.08736 0.04293,0.174057 0.06026,0.26327 0,0 0,9.8e-4 0,9.8e-4 0.0343,0.179687 0.05819,0.366141 0.07205,0.55966 0,0 0,9.8e-4 0,9.8e-4 0.0052,0.09717 0.01136,0.196199 0.01252,0.295978 9.99e-4,0.10093 3.75e-4,0.199447 -0.0013,0.298198 0,0 0,9.81e-4 0,9.81e-4 -0.0031,0.1969 -0.01563,0.39037 -0.03512,0.579749 0,0 0,9.8e-4 0,9.8e-4 -0.0085,0.09483 -0.02204,0.187357 -0.03502,0.279821 0,0 0,9.81e-4 0,9.81e-4 -0.01216,0.09348 -0.02981,0.183924 -0.04676,0.274187 0,0 0,9.83e-4 0,9.83e-4 -0.03384,0.181544 -0.07343,0.358925 -0.120784,0.532414 0,0 0,9.8e-4 0,9.8e-4 -0.02369,0.08778 -0.04901,0.171833 -0.07585,0.256319 0,0 0,9.82e-4 0,9.82e-4 -0.005,0.02006 -0.01467,0.04041 -0.02162,0.05983 -0.04882,0.148683 -0.102905,0.293927 -0.161551,0.436036 -0.03355,0.08045 -0.06674,0.159394 -0.103257,0.238088 0,0 0,9.81e-4 0,9.81e-4 -0.07264,0.156816 -0.153042,0.309746 -0.237493,0.457995 0,0 0,9.82e-4 0,9.82e-4 -0.042,0.07285 -0.08571,0.146304 -0.130257,0.217982 0,0 0,9.82e-4 0,9.82e-4 -0.02229,0.03648 -0.04708,0.0695 -0.07001,0.105625 -0.02296,0.03618 -0.04636,0.06992 -0.07002,0.105625 0,0 0,9.81e-4 0,9.81e-4 -0.04762,0.06883 -0.09774,0.137956 -0.147918,0.205385 0,0 0,9.82e-4 0,9.82e-4 -0.05036,0.06653 -0.102978,0.132751 -0.155714,0.198091 0,0 0,9.83e-4 0,9.83e-4 -0.05288,0.06446 -0.108176,0.126941 -0.163517,0.190917 0,0 0,9.82e-4 0,9.82e-4 -0.111191,0.12502 -0.227729,0.246628 -0.348425,0.363437 0,0 0,9.81e-4 0,9.81e-4 -0.234732,0.22716 -0.489757,0.435908 -0.757182,0.626977 -0.02481,0.01334 -0.05065,0.03648 -0.07586,0.05278 -0.08336,0.05783 -0.166907,0.114296 -0.253052,0.169247 -0.560505,-2.672071 -1.098976,-5.241919 -2.11779,-10.109486 z" />
  <path
     style="fill:url(#linearGradient1);fill-opacity:1;stroke:none;stroke-width:0.171828px;stroke-linecap:butt;stroke-linejoin:miter;stroke-opacity:1"
     d="m 35.94328,8.14305 c 0,0 -4.629773,4.203345 -2.329312,15.226819 2.300466,11.023305 4.831516,23.081629 4.831516,23.081629 0.393652,1.949451 1.341174,5.805479 -2.1007,7.842973 -3.925138,2.323816 -5.893462,-0.309462 -5.893462,-0.309462 -0.614973,-0.574176 -0.571845,-2.756349 1.652467,-2.472252 2.653237,0.33865 4.307181,0.726488 2.768712,-5.53719 C 33.334032,39.711895 30.948127,29.142787 30.447779,26.260427 30.019691,23.794604 28.258292,16.78539 30.235351,11.412756 31.879288,6.945197 34.047708,4.345662 35.94328,8.143012 Z"
     id="path860"
     sodipodi:nodetypes="cscscssssc" />
  <path
     style="opacity:0.500664;fill:url(#linearGradient26784);fill-opacity:1;stroke:none;stroke-width:0.171828px;stroke-linecap:butt;stroke-linejoin:miter;stroke-opacity:1"
     d="m 33.613968,23.369869 c 2.300466,11.023305 4.831516,23.081629 4.831516,23.081629 0.393652,1.949451 1.341174,5.805479 -2.1007,7.842973 -3.925138,2.323816 -5.893462,-0.309462 -5.893462,-0.309462 -0.614973,-0.574176 -0.571845,-2.756349 1.652467,-2.472252 2.653237,0.33865 4.307181,0.726488 2.768712,-5.53719 -1.538469,-6.263672 -3.924374,-16.83278 -4.424722,-19.71514 z"
     id="path26641"
     sodipodi:nodetypes="ccscsscc" />
  <path
     style="fill:url(#linearGradient25254);fill-opacity:1;stroke:none;stroke-width:0.171828px;stroke-linecap:butt;stroke-linejoin:miter;stroke-opacity:1"
     d="m 32.453794,7.169561 c 0,0 3.50812,-5.054254 5.921822,0.266714 2.05187,4.523574 -0.590039,10.477225 -2.245433,12.519659 -1.700852,2.098461 -6.667134,6.59011 -7.713061,7.789979 -1.045925,1.199676 -6.833385,9.003461 -1.244651,13.316959 5.60231,4.32413 13.450029,1.706365 13.352762,-4.735513 -0.09739,-6.441819 -11.51741,-5.657103 -11.183691,0.882294 0.08503,2.086655 0.563682,3.275314 0.563682,3.275314 0,0 -6.617211,-7.368972 3.138826,-11.432386 3.613832,-1.505234 8.361938,0.641071 10.546058,4.614189 1.594786,2.90095 0.817449,7.843688 -1.643187,10.140648 -4.83141,4.510124 -11.786188,4.39443 -15.837111,2.96135 C 19.969179,44.596418 15.376233,36.952026 19.693331,29.971814 21.482862,27.078447 22.457932,25.412185 30.58262,20.610018 37.909221,16.279406 36.396919,9.068855 35.94328,8.143291 34.715626,5.541792 33.20994,6.244995 32.453794,7.169742 Z"
     id="path2652"
     sodipodi:nodetypes="csssssccsssscscc" />
  <path
     id="path25289"
     style="fill:url(#linearGradient25532);fill-opacity:1;stroke:none;stroke-width:0.171828px;stroke-linecap:butt;stroke-linejoin:miter;stroke-opacity:1"
     d="m 35.685467,5.000143 c -0.03816,-1.44e-4 -0.07549,0.002 -0.1132,0.0062 2.391026,2.253318 8.428446,10.315971 -10.119176,22.834677 -8.217965,5.546869 -6.995568,11.837255 -2.100197,17.517792 0.861541,0.58949 1.789981,1.067725 2.757062,1.409842 4.050908,1.433134 11.005461,1.548611 15.836869,-2.961529 2.460629,-2.296951 3.23818,-7.239427 1.643397,-10.140524 -2.184128,-3.973076 -6.932278,-6.119612 -10.546096,-4.614374 -9.756061,4.063544 -3.138831,11.432716 -3.138831,11.432716 0,0 -0.478851,-1.188915 -0.563783,-3.27566 -0.333713,-6.539433 11.086617,-7.324098 11.183882,-0.88223 0.09739,6.441827 -7.750536,9.059691 -13.352848,4.735633 -5.58873,-4.313532 0.198702,-12.117273 1.244629,-13.316985 1.045928,-1.199833 6.012114,-5.691738 7.712962,-7.790187 1.655404,-2.042471 4.297266,-7.99606 2.245396,-12.519597 C 37.545819,5.606937 36.586905,5.003901 35.685507,5 Z" />
  <path
     id="path25643"
     style="fill:url(#linearGradient26430);fill-opacity:1;stroke:none;stroke-width:0.171828px;stroke-linecap:butt;stroke-linejoin:miter;stroke-opacity:1"
     d="m 27.081852,29.5934 c -7.497131,9.490363 1.15658,19.391784 11.84525,13.884677 3.881375,-1.999793 4.892426,-8.208373 1.519051,-11.093008 -4.640963,-3.968437 -14.76857,-0.411087 -10.540899,8.099937 0,0 -0.478851,-1.188998 -0.563774,-3.275832 -0.333716,-6.539355 11.086606,-7.323853 11.183871,-0.882011 0.09741,6.441894 -7.750534,9.059757 -13.352849,4.735606 -4.260155,-3.288066 -1.912048,-8.596185 -0.09069,-11.469369 z" />
  <path
     id="path30388"
     style="fill:url(#linearGradient2);fill-opacity:1;stroke:none;stroke-width:0.171828px;stroke-linecap:butt;stroke-linejoin:miter;stroke-opacity:1"
     d="m 35.470445,28.569991 c -0.09986,6.48e-4 -0.199131,0.002 -0.298388,0.0062 -0.732977,0.03845 -1.450389,0.191513 -2.127972,0.473567 -2.662669,1.10903 -4.099733,2.464521 -4.790565,3.849092 -0.737663,4.016754 1.651733,7.583665 1.651733,7.583665 -4.22767,-8.511075 5.899933,-12.068345 10.540897,-8.099917 3.373378,2.884373 2.362327,9.093006 -1.519048,11.092795 -1.242584,0.64025 -2.456948,1.0699 -3.622344,1.318539 l 1.122337,2.14222 c 1.954056,-0.592078 3.862393,-1.584478 5.519694,-3.131494 2.460626,-2.297053 3.238181,-7.239622 1.64339,-10.140627 -1.719133,-3.12725 -5.027038,-5.122555 -8.119734,-5.096474 z m 5.042387,8.292962 c -0.0012,0.03456 -0.0021,0.06196 -0.0036,0.09368 0.0014,-0.03456 0.0023,-0.06148 0.0036,-0.09368 z m -0.05556,0.585568 c -0.003,0.03456 -0.0086,0.06328 -0.01472,0.09647 0.0036,-0.03456 0.0095,-0.0633 0.01472,-0.09647 z m -0.104563,0.581352 c -0.0013,0.0062 -0.003,0.0141 -0.0042,0.02473 0.0013,-0.0062 0.003,-0.01411 0.0042,-0.02473 z m -0.130141,0.479115 c -0.0067,0.02486 -0.01537,0.05059 -0.02269,0.07388 0.0067,-0.02487 0.0153,-0.05021 0.02269,-0.07388 z m -0.179262,0.504158 c -0.01198,0.03456 -0.02545,0.06125 -0.03863,0.09293 0.01198,-0.03456 0.02583,-0.06124 0.03863,-0.09293 z m -0.227895,0.500595 c -0.0067,0.01409 -0.0168,0.03456 -0.02437,0.04674 0.0067,-0.01409 0.0168,-0.03456 0.02437,-0.04674 z m -0.240055,0.423852 c -0.0098,0.01412 -0.02138,0.03456 -0.03181,0.05264 0.0098,-0.01773 0.02139,-0.03456 0.03181,-0.05264 z m -0.282391,0.418606 c -0.01844,0.02487 -0.03738,0.05058 -0.05666,0.07433 0.0191,-0.02473 0.03807,-0.05021 0.05666,-0.07433 z m -0.335195,0.418048 c -0.01092,0.0103 -0.02345,0.02486 -0.03524,0.03922 0.01093,-0.0103 0.02347,-0.02486 0.03524,-0.03922 z m -0.322371,0.339902 c -0.01753,0.01772 -0.03464,0.03456 -0.05278,0.05265 0.01785,-0.01773 0.03529,-0.03456 0.05278,-0.05265 z M 38.261297,41.4543 c -0.02592,0.02113 -0.05225,0.04387 -0.07839,0.06433 0.02627,-0.02113 0.05253,-0.04348 0.07839,-0.06433 z m -0.417884,0.324912 c -0.02475,0.01426 -0.05085,0.03456 -0.07601,0.05222 0.02504,-0.01409 0.05109,-0.03456 0.07601,-0.05222 z m -0.406429,0.268676 c -0.01992,0.0103 -0.04003,0.02486 -0.06034,0.03858 0.0204,-0.0103 0.04011,-0.02474 0.06034,-0.03858 z m -0.440111,0.248352 c -0.03372,0.01772 -0.06775,0.03456 -0.101687,0.05222 0.03416,-0.01412 0.068,-0.03456 0.101687,-0.05222 z m -0.495343,0.235506 c -0.0275,0.01031 -0.05483,0.02113 -0.08225,0.03456 0.0275,-0.0103 0.05524,-0.02113 0.08225,-0.03456 z m -0.349449,0.136851 c -0.12223,0.04595 -0.246105,0.08919 -0.371339,0.126932 0.125287,-0.04062 0.249098,-0.08259 0.371339,-0.126932 z m -0.562048,0.18683 c -0.136907,0.04063 -0.27579,0.07317 -0.415801,0.107165 0.140001,-0.03456 0.278923,-0.06653 0.415801,-0.107165 z m -0.575592,0.145503 c -0.19598,0.04246 -0.39435,0.07632 -0.595384,0.105345 0.201049,-0.03017 0.39939,-0.06331 0.595384,-0.105345 z" />
  <path
     style="fill:url(#linearGradient1096);fill-opacity:1;stroke:none;stroke-width:0.171828px;stroke-linecap:butt;stroke-linejoin:miter;stroke-opacity:1"
     d="m 37.399089,41.46216 c 0.637916,3.043246 1.046395,4.989338 1.046395,4.989338 0.393652,1.949451 1.341174,5.805479 -2.1007,7.842973 -3.925138,2.323816 -5.893462,-0.309462 -5.893462,-0.309462 -0.614973,-0.574176 -0.571845,-2.756349 1.652467,-2.472252 2.653237,0.33865 4.307181,0.726488 2.768712,-5.53719 -0.275097,-1.120079 -0.577306,-2.377746 -0.890995,-3.704583 z"
     id="path27384"
     sodipodi:nodetypes="ccscsscc" />
  <path
     id="path27666"
     style="fill:#f6ebff;fill-opacity:0.197812;stroke:none;stroke-width:0.171828px;stroke-linecap:butt;stroke-linejoin:miter;stroke-opacity:1"
     d="m 33.786065,11.560145 c -1.346884,2.264207 -1.86619,5.071613 -1.874401,8.161989 0.397941,-0.299321 0.761627,-0.607987 1.094897,-0.923529 -0.160455,-3.168266 0.317208,-5.542867 0.933029,-7.235415 z m -0.293188,11.180894 c -0.435775,0.432286 -0.863049,0.859864 -1.310614,1.294117 0.195768,1.645888 0.483707,3.333259 0.828464,5.031774 0.01081,-0.0062 0.02207,-0.01031 0.03342,-0.01031 0.535329,-0.223071 1.096026,-0.362684 1.669104,-0.431373 -0.514719,-2.46072 -0.575723,-2.743235 -1.099092,-5.251263 -0.04469,-0.213682 -0.08166,-0.420057 -0.121308,-0.628628 z m 1.902197,9.128727 c -0.586302,0.04166 -1.047773,0.01031 -1.605194,0.172759 2.167842,9.63689 5.277124,18.247306 3.043642,21.921637 2.850076,-2.100864 1.985589,-5.663118 1.612139,-7.512624 0,0 -1.582423,-7.567254 -3.050587,-14.581875 z" />
  <path
     id="path31535"
     style="fill:url(#linearGradient1098);fill-opacity:1;stroke:none;stroke-width:0.171828px;stroke-linecap:butt;stroke-linejoin:miter;stroke-opacity:1"
     d="m 35.470445,28.569991 c -0.09986,6.48e-4 -0.199131,0.002 -0.298388,0.0062 -0.732977,0.03845 -1.450389,0.191513 -2.127972,0.473567 -2.662669,1.10903 -4.099733,2.464521 -4.790565,3.849092 -0.737663,4.016754 1.651733,7.583665 1.651733,7.583665 -4.22767,-8.511075 5.899933,-12.068345 10.540897,-8.099917 3.373378,2.884373 2.362327,9.093006 -1.519048,11.092795 -1.242584,0.64025 -2.456948,1.0699 -3.622344,1.318539 l 1.122337,2.14222 c 1.954056,-0.592078 3.862393,-1.584478 5.519694,-3.131494 2.460626,-2.297053 3.238181,-7.239622 1.64339,-10.140627 -1.719133,-3.12725 -5.027038,-5.122555 -8.119734,-5.096474 z m 5.042387,8.292962 c -0.0012,0.03456 -0.0021,0.06196 -0.0036,0.09368 0.0014,-0.03456 0.0023,-0.06148 0.0036,-0.09368 z m -0.05556,0.585568 c -0.003,0.03456 -0.0086,0.06328 -0.01472,0.09647 0.0036,-0.03456 0.0095,-0.0633 0.01472,-0.09647 z m -0.104563,0.581352 c -0.0013,0.0062 -0.003,0.0141 -0.0042,0.02473 0.0013,-0.0062 0.003,-0.01411 0.0042,-0.02473 z m -0.130141,0.479115 c -0.0067,0.02486 -0.01537,0.05059 -0.02269,0.07388 0.0067,-0.02487 0.0153,-0.05021 0.02269,-0.07388 z m -0.179262,0.504158 c -0.01198,0.03456 -0.02545,0.06125 -0.03863,0.09293 0.01198,-0.03456 0.02583,-0.06124 0.03863,-0.09293 z m -0.227895,0.500595 c -0.0067,0.01409 -0.0168,0.03456 -0.02437,0.04674 0.0067,-0.01409 0.0168,-0.03456 0.02437,-0.04674 z m -0.240055,0.423852 c -0.0098,0.01412 -0.02138,0.03456 -0.03181,0.05264 0.0098,-0.01773 0.02139,-0.03456 0.03181,-0.05264 z m -0.282391,0.418606 c -0.01844,0.02487 -0.03738,0.05058 -0.05666,0.07433 0.0191,-0.02473 0.03807,-0.05021 0.05666,-0.07433 z m -0.335195,0.418048 c -0.01092,0.0103 -0.02345,0.02486 -0.03524,0.03922 0.01093,-0.0103 0.02347,-0.02486 0.03524,-0.03922 z m -0.322371,0.339902 c -0.01753,0.01772 -0.03464,0.03456 -0.05278,0.05265 0.01785,-0.01773 0.03529,-0.03456 0.05278,-0.05265 z M 38.261297,41.4543 c -0.02592,0.02113 -0.05225,0.04387 -0.07839,0.06433 0.02627,-0.02113 0.05253,-0.04348 0.07839,-0.06433 z m -0.417884,0.324912 c -0.02475,0.01426 -0.05085,0.03456 -0.07601,0.05222 0.02504,-0.01409 0.05109,-0.03456 0.07601,-0.05222 z m -0.406429,0.268676 c -0.01992,0.0103 -0.04003,0.02486 -0.06034,0.03858 0.0204,-0.0103 0.04011,-0.02474 0.06034,-0.03858 z m -0.440111,0.248352 c -0.03372,0.01772 -0.06775,0.03456 -0.101687,0.05222 0.03416,-0.01412 0.068,-0.03456 0.101687,-0.05222 z m -0.495343,0.235506 c -0.0275,0.01031 -0.05483,0.02113 -0.08225,0.03456 0.0275,-0.0103 0.05524,-0.02113 0.08225,-0.03456 z m -0.349449,0.136851 c -0.12223,0.04595 -0.246105,0.08919 -0.371339,0.126932 0.125287,-0.04062 0.249098,-0.08259 0.371339,-0.126932 z m -0.562048,0.18683 c -0.136907,0.04063 -0.27579,0.07317 -0.415801,0.107165 0.140001,-0.03456 0.278923,-0.06653 0.415801,-0.107165 z m -0.575592,0.145503 c -0.19598,0.04246 -0.39435,0.07632 -0.595384,0.105345 0.201049,-0.03017 0.39939,-0.06331 0.595384,-0.105345 z" />
</svg>
