<?xml version="1.0" encoding="UTF-8" standalone="no"?>
<svg
   height="64"
   width="64"
   version="1.1"
   id="svg10"
   sodipodi:docname="kahla.svg"
   inkscape:version="1.4.2 (unknown)"
   xmlns:inkscape="http://www.inkscape.org/namespaces/inkscape"
   xmlns:sodipodi="http://sodipodi.sourceforge.net/DTD/sodipodi-0.dtd"
   xmlns:xlink="http://www.w3.org/1999/xlink"
   xmlns="http://www.w3.org/2000/svg"
   xmlns:svg="http://www.w3.org/2000/svg"
   xmlns:rdf="http://www.w3.org/1999/02/22-rdf-syntax-ns#"
   xmlns:cc="http://creativecommons.org/ns#"
   xmlns:dc="http://purl.org/dc/elements/1.1/">
  <metadata
     id="metadata16">
    <rdf:RDF>
      <cc:Work
         rdf:about="">
        <dc:format>image/svg+xml</dc:format>
        <dc:type
           rdf:resource="http://purl.org/dc/dcmitype/StillImage" />
      </cc:Work>
    </rdf:RDF>
  </metadata>
  <defs
     id="defs14">
    <linearGradient
       id="c"
       x1="31.458"
       x2="31.458"
       y1="51.726002"
       y2="62.897999"
       gradientTransform="matrix(0.36079,0,0,0.36079,-2.8832,-9.4399)"
       gradientUnits="userSpaceOnUse">
      <stop
         stop-color="#1776ff"
         offset="0"
         id="stop292" />
      <stop
         stop-color="#2fceff"
         offset="1"
         id="stop294" />
    </linearGradient>
    <linearGradient
       id="d"
       x1="31.458"
       x2="31.458"
       y1="36.897999"
       y2="59.897999"
       gradientTransform="matrix(0.36079,0,0,0.36079,-2.8832,-9.4399)"
       gradientUnits="userSpaceOnUse">
      <stop
         stop-color="#ff5514"
         offset="0"
         id="stop297" />
      <stop
         stop-color="#ff9014"
         offset="1"
         id="stop299" />
    </linearGradient>
    <linearGradient
       id="a"
       x1="31.458"
       x2="31.458"
       y1="46.897999"
       y2="56.897999"
       gradientTransform="matrix(0.36079,0,0,0.36079,-2.8832,-9.4399)"
       gradientUnits="userSpaceOnUse">
      <stop
         stop-color="#c0e5fb"
         offset="0"
         id="stop302" />
      <stop
         stop-color="#c3faff"
         offset="1"
         id="stop304" />
    </linearGradient>
    <linearGradient
       gradientTransform="matrix(1.0394952,0,0,1.0394363,-448.49881,-520.66414)"
       gradientUnits="userSpaceOnUse"
       x2="426.69501"
       y2="499.92099"
       y1="547.67499"
       id="a-6"
       x1="389.32001">
      <stop
         stop-color="#18222a"
         style="stop-color:#436077;stop-opacity:1;"
         id="stop216"
         offset="0" />
      <stop
         stop-color="#566069"
         offset="1"
         style="stop-color:#6d7983;stop-opacity:1"
         id="stop218" />
    </linearGradient>
    <linearGradient
       id="e"
       x1="8.4461002"
       x2="24.603001"
       y1="6.2688999"
       y2="24.570999"
       gradientUnits="userSpaceOnUse"
       gradientTransform="translate(0.254427,-38.49298)">
      <stop
         stop-opacity=".2088"
         offset="0"
         id="stop4" />
      <stop
         stop-opacity="0"
         offset="1"
         id="stop6" />
    </linearGradient>
    <linearGradient
       id="d-3"
       x1="7.8488002"
       x2="14.108"
       y1="3.5121"
       y2="14.183"
       gradientUnits="userSpaceOnUse"
       gradientTransform="translate(0.254427,-38.49298)">
      <stop
         stop-opacity=".2088"
         offset="0"
         id="stop14" />
      <stop
         stop-opacity="0"
         offset="1"
         id="stop16" />
    </linearGradient>
    <linearGradient
       id="c-6"
       x1="31.458"
       x2="31.458"
       y1="51.726002"
       y2="62.897999"
       gradientTransform="matrix(0.36079,0,0,0.36079,-2.8832,-9.4399)"
       gradientUnits="userSpaceOnUse">
      <stop
         stop-color="#1776ff"
         offset="0"
         id="stop292-7"
         style="stop-color:#55ddff;stop-opacity:1" />
      <stop
         stop-color="#2fceff"
         offset="1"
         id="stop294-5"
         style="stop-color:#00ccff;stop-opacity:1" />
    </linearGradient>
    <linearGradient
       id="d-35"
       x1="31.458"
       x2="31.458"
       y1="36.897999"
       y2="59.897999"
       gradientTransform="matrix(0.36079,0,0,0.36079,-2.8832,-9.4399)"
       gradientUnits="userSpaceOnUse">
      <stop
         stop-color="#ff5514"
         offset="0"
         id="stop297-6"
         style="stop-color:#ffccaa;stop-opacity:1" />
      <stop
         stop-color="#ff9014"
         offset="1"
         id="stop299-2"
         style="stop-color:#ff9955;stop-opacity:1" />
    </linearGradient>
    <linearGradient
       id="a-9"
       x1="31.458"
       x2="31.458"
       y1="46.897999"
       y2="56.897999"
       gradientTransform="matrix(0.36079,0,0,0.36079,-2.8832,-9.4399)"
       gradientUnits="userSpaceOnUse">
      <stop
         stop-color="#c0e5fb"
         offset="0"
         id="stop302-1"
         style="stop-color:#e3d7f4;stop-opacity:1" />
      <stop
         stop-color="#c3faff"
         offset="1"
         id="stop304-2"
         style="stop-color:#aa87de;stop-opacity:1" />
    </linearGradient>
    <linearGradient
       inkscape:collect="always"
       xlink:href="#linearGradient22063"
       id="linearGradient22065"
       x1="-14"
       y1="6"
       x2="-14"
       y2="-9.999999"
       gradientUnits="userSpaceOnUse"
       gradientTransform="matrix(3.6250002,0,0,3.6250002,82.750002,39.249998)" />
    <linearGradient
       inkscape:collect="always"
       id="linearGradient22063">
      <stop
         style="stop-color:#292f3a;stop-opacity:1;"
         offset="0"
         id="stop22059" />
      <stop
         style="stop-color:#535e75;stop-opacity:1;"
         offset="1"
         id="stop22061" />
    </linearGradient>
    <clipPath
       id="a-3">
      <circle
         cx="8.467"
         cy="288.53"
         r="6.8790002"
         fill="#d86eb0"
         stroke-opacity="0.039"
         stroke-width="0.491"
         style="paint-order:stroke markers fill"
         id="circle2-6" />
    </clipPath>
    <radialGradient
       inkscape:collect="always"
       xlink:href="#linearGradient7"
       id="radialGradient9"
       cx="35.969051"
       cy="34"
       fx="35.969051"
       fy="34"
       r="28"
       gradientUnits="userSpaceOnUse"
       gradientTransform="matrix(1,0.99999999,-0.99999994,0.99999994,29.030945,-37.635717)" />
    <linearGradient
       id="linearGradient7"
       inkscape:collect="always">
      <stop
         style="stop-color:#2a7fff;stop-opacity:1"
         offset="0"
         id="stop8" />
      <stop
         style="stop-color:#1a75ff;stop-opacity:1;"
         offset="0.59162253"
         id="stop10" />
      <stop
         style="stop-color:#eff2f6;stop-opacity:1;"
         offset="0.92173076"
         id="stop11" />
      <stop
         style="stop-color:#eff2f6;stop-opacity:1;"
         offset="1"
         id="stop9" />
    </linearGradient>
    <linearGradient
       inkscape:collect="always"
       xlink:href="#linearGradient1"
       id="linearGradient6"
       x1="17.408081"
       y1="16.037786"
       x2="49.155514"
       y2="50.137749"
       gradientUnits="userSpaceOnUse"
       gradientTransform="matrix(1.3333333,0,0,1.3333333,-13.403184,-14.333334)" />
    <linearGradient
       id="linearGradient1"
       inkscape:collect="always">
      <stop
         style="stop-color:#5599ff;stop-opacity:1"
         offset="0"
         id="stop5" />
      <stop
         style="stop-color:#5599ff;stop-opacity:1"
         offset="0.28848785"
         id="stop7" />
      <stop
         style="stop-color:#2a7fff;stop-opacity:1"
         offset="1"
         id="stop6-3" />
    </linearGradient>
  </defs>
  <sodipodi:namedview
     pagecolor="#ffffff"
     bordercolor="#666666"
     borderopacity="1"
     objecttolerance="10"
     gridtolerance="10"
     guidetolerance="10"
     inkscape:pageopacity="0"
     inkscape:pageshadow="2"
     inkscape:window-width="1920"
     inkscape:window-height="996"
     id="namedview12"
     showgrid="false"
     inkscape:zoom="9.9597502"
     inkscape:cx="31.627299"
     inkscape:cy="30.824066"
     inkscape:window-x="0"
     inkscape:window-y="0"
     inkscape:window-maximized="1"
     inkscape:current-layer="svg10"
     inkscape:document-rotation="0"
     inkscape:showpageshadow="2"
     inkscape:pagecheckerboard="0"
     inkscape:deskcolor="#d1d1d1">
    <inkscape:grid
       type="xygrid"
       id="grid801"
       originx="0"
       originy="0"
       spacingy="1"
       spacingx="1"
       units="px"
       visible="false" />
  </sodipodi:namedview>
  <path
     d="M 2.999999,10.25 C 2.999999,6.245825 6.245933,3 10.249993,3 h 43.500009 c 4.00417,0 7.25,3.245825 7.25,7.25 v 43.499999 c 0,4.004173 -3.24583,7.25 -7.25,7.25 H 10.249993 c -4.00406,0 -7.249994,-3.245827 -7.249994,-7.25 z"
     id="path736"
     style="fill:#606c86;fill-opacity:1;stroke-width:3.625" />
  <path
     d="M 2.999999,9.7968747 C 2.999999,6.043188 6.245933,3 10.249993,3 h 43.500009 c 4.00417,0 7.25,3.043188 7.25,6.7968747 V 50.578123 c 0,3.753693 -3.24583,6.796876 -7.25,6.796876 H 10.249993 c -4.00406,0 -7.249995,-3.043183 -7.249995,-6.796876 z"
     id="path738"
     style="fill:url(#linearGradient22065);fill-opacity:1;stroke-width:3.625" />
  <g
     id="g2"
     transform="matrix(0.75,0,0,0.75,8.7500005,7.75)"
     style="stroke-width:1.33333">
    <path
       d="M 59,31 C 59,46.46415 46.464172,59 30.999998,59 15.535835,59 3.0000001,46.46415 3.0000001,31 3.0000001,15.535835 15.535835,3 30.999998,3 46.464172,3 59,15.535835 59,31 Z"
       id="path154"
       style="fill:url(#radialGradient9);stroke-width:1.33333" />
    <path
       d="m 54.333333,31 c 0,12.88701 -10.446332,23.33332 -23.333335,23.33332 C 18.112999,54.33332 7.6666671,43.88701 7.6666671,31 7.6666671,18.113006 18.112999,7.666668 30.999998,7.666668 43.887001,7.666668 54.333333,18.113006 54.333333,31 Z"
       id="path155"
       style="fill:url(#linearGradient6);stroke-width:1.33333" />
    <g
       id="g1"
       transform="translate(-2.9094331,-61.508866)"
       style="stroke-width:1.33333">
      <path
         style="opacity:0.1;stroke-width:1.33333"
         d="m 25.825379,112.71941 c -0.7823,-0.99654 -1.452756,-3.04337 -1.758854,-5.36954 -0.16836,-1.27955 -0.207644,-3.78992 -0.0867,-4.85135 0.11588,-1.89855 1.284888,-3.129233 2.284402,-4.681747 0.03096,-0.0013 0.18238,0.13088 0.33651,0.2937 0.15416,0.16286 0.394544,0.36998 0.534202,0.460312 0.785392,0.507988 2.550084,0.518164 3.376872,0.02426 0.447112,-0.26709 1.041482,-1.212146 1.251544,-1.989946 0.1517,-0.56172 0.13936,-1.093982 -0.02524,-1.682458 -0.352068,-1.258804 -1.34239,-2.599502 -2.329504,-3.272846 -0.606284,-0.413564 -1.683236,-0.574088 -2.866402,-0.729498 -0.32865,-0.0432 -0.339032,-0.04986 -0.407836,-0.264238 -0.15976,-0.497716 -0.205472,-1.539114 -0.13594,-3.096352 0.04206,-0.9421 0.06816,-3.89335 0.07024,-7.947175 0.0019,-3.546707 0.02226,-6.497682 0.0453,-6.557725 0.0352,-0.09147 0.07034,-0.05799 0.216754,0.206471 0.260952,0.471318 0.4349,0.919112 0.897392,2.31016 0.230604,0.693576 0.516044,1.472078 0.634322,1.730001 0.298842,0.651696 0.833482,1.430634 2.055556,2.994857 1.584206,2.027731 2.493576,3.481015 2.064458,3.299247 -0.833794,-0.353182 -1.806184,-0.202536 -2.252108,0.348928 -0.583478,0.721562 -0.757182,1.561784 -0.519082,2.510792 0.221886,0.88435 0.76048,1.727176 1.6764,2.62332 0.53878,0.527134 2.39503,1.425772 2.567516,1.42514 0.12354,-4.16e-4 0.705764,-0.507718 0.873764,-0.761258 0.461962,-0.697182 0.468126,-1.476833 0.0192,-3.105607 -0.0908,-0.32958 -0.15054,-0.62325 -0.13268,-0.6526 0.07062,-0.11644 0.308258,-0.03812 0.8986,0.296168 0.832864,0.471632 1.240226,0.776382 1.656196,1.239002 0.76038,0.845666 1.182216,1.947191 1.182216,3.627343 0,0.308206 -0.02074,0.560372 -0.04614,0.560372 -0.02536,0 -0.16034,-0.1115 -0.299896,-0.247812 -0.272478,-0.26614 -0.669346,-0.423086 -0.912532,-0.360866 -0.16646,0.04262 -0.46254,0.287636 -0.550878,0.455888 -0.361312,0.688186 0.595892,1.875249 1.429076,2.308539 0.521592,0.271248 1.22104,0.19434 2.019878,-0.222098 2.134236,-1.112592 2.293656,-3.281343 2.171132,-5.745593 -0.0186,-0.381442 -0.12574,-1.233898 -0.237284,-1.89435 -0.290678,-1.721124 -0.29669,-1.762738 -0.266168,-1.843822 0.0902,-0.23961 0.305534,0.04138 0.949748,1.23951 1.035536,1.925876 1.622488,3.877552 1.69099,5.622756 0.0519,1.322322 -0.11648,2.327508 -0.69573,4.152768 -0.200604,0.63216 -0.401064,1.207418 -0.445456,1.278348 -0.05658,0.0905 -0.13534,0.12896 -0.263706,0.12896 -0.232578,0 -0.393798,0.11538 -0.509978,0.364936 -0.1412,0.30339 -0.122,0.43738 0.06294,0.438432 0.284632,0.0013 0.320134,0.06502 0.215768,0.385334 -0.05112,0.15674 -0.16742,0.404824 -0.258516,0.55126 -0.15644,0.251466 -0.17952,0.266258 -0.415328,0.266258 -0.368232,0 -0.414916,0.0346 -0.62727,0.46439 -0.279738,0.566242 -0.254602,0.682018 0.14806,0.682018 0.206584,0 0.20639,0.0672 -0.0013,0.332951 -0.09082,0.11638 -0.322538,0.52113 -0.514976,0.89944 -0.41593,0.8177 -0.697716,1.2366 -1.349466,2.00615 -1.101474,1.30055 -2.599282,2.60272 -4.465888,3.88259 -0.432636,0.29664 -0.99264,0.6856 -1.244466,0.86436 -0.89287,0.63381 -1.71763,0.91526 -1.196638,0.40835 0.408934,-0.39788 1.154956,-1.91437 1.415504,-2.88946 0.209456,-1.01482 0.15732,-1.3903 -0.158,-2.05363 -0.636578,-1.2288 -1.453496,-1.27361 -2.354264,-1.01582 -2.20819,0.63198 -4.067246,3.39988 -4.671632,6.37088 -0.20306,0.9982 -0.309042,1.98301 -0.353424,3.28416 -0.02374,0.69578 -0.06274,1.17692 -0.09616,1.18647 -0.03096,0.009 -0.164,-0.12118 -0.295724,-0.28902 z"
         id="path2-6" />
      <path
         style="fill:#e8f2fd;fill-opacity:1;stroke-width:1.33333"
         d="m 25.825379,111.71941 c -0.7823,-0.99654 -1.452756,-3.04337 -1.758854,-5.36954 -0.16836,-1.27955 -0.207644,-3.78992 -0.0867,-4.85135 0.11588,-1.898551 1.284888,-3.129233 2.284402,-4.681747 0.03096,-0.0013 0.18238,0.13088 0.33651,0.2937 0.15416,0.16286 0.394544,0.36998 0.534202,0.460312 0.785392,0.507988 2.550084,0.518164 3.376872,0.02426 0.447112,-0.26709 1.041482,-1.212146 1.251544,-1.989946 0.1517,-0.56172 0.13936,-1.093982 -0.02524,-1.682458 -0.352068,-1.258804 -1.34239,-2.599502 -2.329504,-3.272846 -0.606284,-0.413564 -1.683236,-0.574088 -2.866402,-0.729498 -0.32865,-0.0432 -0.339032,-0.04986 -0.407836,-0.264238 -0.15976,-0.497716 -0.205472,-1.539114 -0.13594,-3.096352 0.04206,-0.9421 0.06816,-3.89335 0.07024,-7.947175 0.0019,-3.546707 0.02226,-6.497682 0.0453,-6.557725 0.0352,-0.09147 0.07034,-0.05799 0.216754,0.206471 0.260952,0.471318 0.4349,0.919112 0.897392,2.31016 0.230604,0.693576 0.516044,1.472078 0.634322,1.730001 0.298842,0.651696 0.833482,1.430634 2.055556,2.994857 1.584206,2.027731 2.493576,3.481015 2.064458,3.299247 -0.833794,-0.353182 -1.806184,-0.202536 -2.252108,0.348928 -0.583478,0.721562 -0.757182,1.561784 -0.519082,2.510792 0.221886,0.88435 0.76048,1.727176 1.6764,2.62332 0.53878,0.527134 2.39503,1.425772 2.567516,1.42514 0.12354,-4.16e-4 0.705764,-0.507718 0.873764,-0.761258 0.461962,-0.697182 0.468126,-1.476833 0.0192,-3.105607 -0.0908,-0.32958 -0.15054,-0.62325 -0.13268,-0.6526 0.07062,-0.11644 0.308258,-0.03812 0.8986,0.296168 0.832864,0.471632 1.240226,0.776382 1.656196,1.239002 0.76038,0.845666 1.182216,1.947191 1.182216,3.627343 0,0.308206 -0.02074,0.560372 -0.04614,0.560372 -0.02536,0 -0.16034,-0.1115 -0.299896,-0.247812 -0.272478,-0.26614 -0.669346,-0.423086 -0.912532,-0.360866 -0.16646,0.04262 -0.46254,0.287636 -0.550878,0.455888 -0.361312,0.688186 0.595892,1.875249 1.429076,2.308539 0.521592,0.271248 1.22104,0.19434 2.019878,-0.222098 2.134236,-1.112592 2.293656,-3.281343 2.171132,-5.745593 -0.0186,-0.381442 -0.12574,-1.233898 -0.237284,-1.89435 -0.290678,-1.721124 -0.29669,-1.762738 -0.266168,-1.843822 0.0902,-0.23961 0.305534,0.04138 0.949748,1.23951 1.035536,1.925876 1.622488,3.877552 1.69099,5.622756 0.0519,1.322322 -0.11648,2.327508 -0.69573,4.152768 -0.200604,0.63216 -0.401064,1.207418 -0.445456,1.278348 -0.05658,0.0905 -0.13534,0.12896 -0.263706,0.12896 -0.232578,0 -0.393798,0.11538 -0.509978,0.364936 -0.1412,0.30339 -0.122,0.43738 0.06294,0.438432 0.284632,0.0013 0.320134,0.06502 0.215768,0.385334 -0.05112,0.15674 -0.16742,0.404824 -0.258516,0.55126 -0.15644,0.251466 -0.17952,0.266258 -0.415328,0.266258 -0.368232,0 -0.414916,0.0346 -0.62727,0.46439 -0.279738,0.566242 -0.254602,0.682018 0.14806,0.682018 0.206584,0 0.20639,0.0672 -0.0013,0.33295 -0.09082,0.11638 -0.322538,0.521126 -0.514976,0.899444 -0.41593,0.817697 -0.697716,1.236597 -1.349466,2.006147 -1.101474,1.30055 -2.599282,2.60272 -4.465888,3.88259 -0.432636,0.29664 -0.99264,0.6856 -1.244466,0.86436 -0.89287,0.63381 -1.71763,0.91526 -1.196638,0.40835 0.408934,-0.39788 1.154956,-1.91437 1.415504,-2.88946 0.209456,-1.01482 0.15732,-1.3903 -0.158,-2.05363 -0.636578,-1.2288 -1.453496,-1.27361 -2.354264,-1.01582 -2.20819,0.63198 -4.067246,3.39988 -4.671632,6.37088 -0.20306,0.9982 -0.309042,1.98301 -0.353424,3.28416 -0.02374,0.69578 -0.06274,1.17692 -0.09616,1.18647 -0.03096,0.009 -0.164,-0.12118 -0.295724,-0.28902 z"
         id="path3" />
    </g>
  </g>
</svg>
