<?xml version="1.0" encoding="UTF-8" standalone="no"?>
<svg
   width="64"
   height="64"
   version="1.1"
   id="svg32"
   sodipodi:docname="kitty.svg"
   inkscape:version="1.3.2 (091e20ef0f, 2023-11-25)"
   xmlns:inkscape="http://www.inkscape.org/namespaces/inkscape"
   xmlns:sodipodi="http://sodipodi.sourceforge.net/DTD/sodipodi-0.dtd"
   xmlns:xlink="http://www.w3.org/1999/xlink"
   xmlns="http://www.w3.org/2000/svg"
   xmlns:svg="http://www.w3.org/2000/svg">
  <sodipodi:namedview
     id="namedview34"
     pagecolor="#ffffff"
     bordercolor="#666666"
     borderopacity="1.0"
     inkscape:showpageshadow="2"
     inkscape:pageopacity="0.0"
     inkscape:pagecheckerboard="0"
     inkscape:deskcolor="#d1d1d1"
     showgrid="false"
     inkscape:zoom="4.9166667"
     inkscape:cx="77.898305"
     inkscape:cy="50.338983"
     inkscape:window-width="1920"
     inkscape:window-height="1007"
     inkscape:window-x="0"
     inkscape:window-y="0"
     inkscape:window-maximized="1"
     inkscape:current-layer="svg32" />
  <defs
     id="defs20">
    <linearGradient
       id="c"
       y1="523.79999"
       x1="403.57001"
       y2="536.79999"
       x2="416.57001"
       gradientUnits="userSpaceOnUse"
       gradientTransform="translate(-278.40057,-549.68001)">
      <stop
         stop-color="#292c2f"
         id="stop2" />
      <stop
         offset="1"
         stop-opacity="0"
         id="stop4" />
    </linearGradient>
    <linearGradient
       xlink:href="#b-2"
       id="linearGradient4189"
       x1="14.369"
       y1="22.521999"
       x2="26.521999"
       y2="22.521999"
       gradientUnits="userSpaceOnUse" />
    <linearGradient
       x1="428.81601"
       gradientTransform="translate(-384.57,-499.8)"
       gradientUnits="userSpaceOnUse"
       x2="388.86499"
       y2="499.67899"
       y1="547.63397"
       id="a-8">
      <stop
         stop-color="#2a2c2f"
         id="stop8" />
      <stop
         stop-color="#536161"
         offset="1"
         id="stop10" />
    </linearGradient>
    <linearGradient
       x1="36"
       gradientUnits="userSpaceOnUse"
       x2="14"
       y2="12"
       y1="44"
       id="b-2">
      <stop
         style="stop-color:#bfc9c9;stop-opacity:1"
         stop-color="#536161"
         id="stop13" />
      <stop
         style="stop-color:#fbfbfb;stop-opacity:1"
         stop-color="#f4f5f5"
         offset="1"
         id="stop15" />
    </linearGradient>
    <linearGradient
       xlink:href="#a-8"
       id="linearGradient4424"
       x1="25"
       y1="44"
       x2="25"
       y2="4"
       gradientUnits="userSpaceOnUse"
       gradientTransform="translate(106.16943,-49.880009)" />
    <linearGradient
       xlink:href="#b-2"
       id="linearGradient4428"
       gradientUnits="userSpaceOnUse"
       x1="31.586"
       y1="36.345001"
       x2="1.2029999"
       y2="6.723" />
    <linearGradient
       inkscape:collect="always"
       xlink:href="#linearGradient22063-0"
       id="linearGradient22065-6"
       x1="-22"
       y1="5.1111121"
       x2="-6.4444442"
       y2="-9.1111107"
       gradientUnits="userSpaceOnUse"
       gradientTransform="matrix(3.6250002,0,0,3.6250002,82.750001,39.249999)" />
    <linearGradient
       inkscape:collect="always"
       id="linearGradient22063-0">
      <stop
         style="stop-color:#363d4b;stop-opacity:1;"
         offset="0"
         id="stop22059-6" />
      <stop
         style="stop-color:#606f85;stop-opacity:1;"
         offset="1"
         id="stop22061-2" />
    </linearGradient>
    <linearGradient
       xlink:href="#b-2"
       id="linearGradient4189-7"
       x1="14.369"
       y1="22.521999"
       x2="26.521999"
       y2="22.521999"
       gradientUnits="userSpaceOnUse" />
    <linearGradient
       xlink:href="#b-2"
       id="linearGradient4428-5"
       gradientUnits="userSpaceOnUse"
       x1="31.586"
       y1="36.345001"
       x2="1.2029999"
       y2="6.723" />
    <linearGradient
       xlink:href="#b-2"
       id="linearGradient4189-7-7"
       x1="14.369"
       y1="22.521999"
       x2="26.521999"
       y2="22.521999"
       gradientUnits="userSpaceOnUse" />
    <linearGradient
       xlink:href="#b-2"
       id="linearGradient4428-5-3"
       gradientUnits="userSpaceOnUse"
       x1="31.586"
       y1="36.345001"
       x2="1.2029999"
       y2="6.723" />
    <linearGradient
       id="linearGradient4"
       x1="0"
       x2="0"
       y1="0"
       y2="1">
      <stop
         offset="0"
         style="stop-color:#4bc0c8;stop-opacity:1;"
         id="stop1" />
      <stop
         offset="0.52062726"
         style="stop-color:#c779d0;stop-opacity:1;"
         id="stop4-7" />
      <stop
         offset="100%"
         style="stop-color:#ffe680;stop-opacity:1"
         id="stop2-5" />
    </linearGradient>
    <linearGradient
       id="linearGradient17"
       x1="6.0302329"
       x2="6.0302329"
       y1="3.1042628"
       y2="9.3494005"
       gradientTransform="scale(0.82737599,1.2086403)"
       gradientUnits="userSpaceOnUse">
      <stop
         offset="0"
         style="stop-color:#d35f8d;stop-opacity:1"
         id="stop15-7" />
      <stop
         offset="0.99989998"
         style="stop-color:#c779d0;stop-opacity:1;"
         id="stop16" />
      <stop
         offset="100%"
         style="stop-color:#ffe680;stop-opacity:1"
         id="stop17" />
    </linearGradient>
    <filter
       id="filter4905"
       x="-0.104776"
       y="-0.053014193"
       width="1.2095499"
       height="1.1060227"
       color-interpolation-filters="sRGB">
      <feGaussianBlur
         stdDeviation="0.12690267"
         id="feGaussianBlur6" />
    </filter>
  </defs>
  <path
     d="m 2.9999985,10.25 c 0,-4.004175 3.245938,-7.25 7.2499995,-7.25 h 43.500003 c 4.004173,0 7.25,3.245825 7.25,7.25 v 43.5 c 0,4.004173 -3.245827,7.25 -7.25,7.25 H 10.249998 C 6.2459365,61 2.9999985,57.754173 2.9999985,53.75 Z"
     id="path736-7"
     style="fill:#606c86;fill-opacity:1;stroke-width:3.625" />
  <path
     d="M 2.9999985,9.7968752 C 2.9999985,6.043188 6.2459365,3 10.249998,3 h 43.500003 c 4.004173,0 7.25,3.043188 7.25,6.7968752 V 50.578124 c 0,3.753693 -3.245827,6.796876 -7.25,6.796876 H 10.249998 c -4.0040615,0 -7.2499995,-3.043183 -7.2499995,-6.796876 z"
     id="path738-9"
     style="fill:url(#linearGradient22065-6);fill-opacity:1;stroke-width:3.625" />
  <g
     id="g2"
     transform="matrix(1.2767666,0,0,1.3070184,-3.7494645,-5.4157208)"
     style="stroke-width:0.774118">
    <path
       d="m 39.960228,22.331683 c 1.196904,-2.888537 2.817988,-7.470258 1.529476,-8.480201 -0.328822,-0.257739 -0.817807,-0.32795 -1.401887,-0.266181 v -3e-6 c -1.855204,0.196217 -4.660629,1.712031 -6.364797,2.72506"
       fill="none"
       stroke="#d8dee9"
       stroke-linecap="round"
       stroke-width="1.73919px"
       id="path4"
       style="stroke-width:2.00493;stroke-dasharray:none" />
    <path
       d="m 47.775824,22.324564 v -0.312346 c -2.34798,-0.412017 -6.692972,-0.540616 -10.103712,5.22815 0,0 3.950169,-3.845875 10.103712,-4.915865 z"
       id="path6"
       style="fill:#d8dee9;stroke-width:0.77411" />
    <path
       d="M 47.775824,25.242287 V 24.25651 c -2.687361,-0.28935 -6.291766,0.255119 -10.003098,3.932653 0,0 4.104906,-2.384249 10.003098,-2.946876 z"
       id="path7"
       style="fill:#d8dee9;stroke-width:0.77411" />
    <path
       d="m 47.775824,27.994016 v -0.772279 c -2.2822,-0.846504 -5.734989,-1.159734 -9.734563,2.442074 0,0 4.203716,-2.096522 9.734563,-1.669795 z"
       id="path8-3"
       style="fill:#d8dee9;stroke-width:0.774118;stroke-dasharray:none" />
    <path
       d="M 8.2241756,22.012143 V 22.32449 C 14.377371,23.394479 18.327887,27.240355 18.327887,27.240355 14.917424,21.471575 10.572294,21.60012 8.2241756,22.012205 Z"
       id="path9-6"
       style="fill:#d8dee9;stroke-width:0.77411" />
    <path
       d="M 8.2241756,24.256442 V 25.24222 C 14.122367,25.80484 18.227273,28.189096 18.227273,28.189096 14.51594,24.511575 10.911606,23.967099 8.2241756,24.256442 Z"
       id="path10"
       style="fill:#d8dee9;stroke-width:0.77411" />
    <path
       d="m 8.2241756,27.222075 v 0.772279 c 5.5313324,-0.426889 9.7345624,1.669794 9.7345624,1.669794 -3.999781,-3.601875 -7.452363,-3.288578 -9.7345624,-2.442073 z"
       id="path11"
       style="fill:#d8dee9;stroke-width:0.77411" />
    <path
       d="m 16.402425,22.357187 c -1.188721,-2.891853 -2.797007,-7.477655 -1.505454,-8.484282 0.329557,-0.256821 0.818751,-0.325757 1.402648,-0.262406 v -4e-6 c 1.854653,0.201196 4.655647,1.724503 6.35693,2.742148"
       fill="none"
       stroke="#d8dee9"
       stroke-linecap="round"
       stroke-width="1.73919px"
       id="path12"
       style="stroke-width:2.00493;stroke-dasharray:none" />
    <ellipse
       cx="23.373568"
       cy="25.318665"
       rx="3.2082314"
       ry="3.1690767"
       fill="none"
       stroke="#d8dee9"
       stroke-width="1.75654"
       id="ellipse12"
       style="stroke-width:1.54977;stroke-dasharray:none" />
    <ellipse
       cx="23.364914"
       cy="25.666788"
       rx="0.6371879"
       ry="1.5822432"
       fill="#d8dee9"
       fill-rule="evenodd"
       stroke-width="1.17258"
       id="ellipse13" />
    <ellipse
       cx="32.915913"
       cy="25.318665"
       rx="3.2082314"
       ry="3.1690767"
       fill="none"
       stroke="#d8dee9"
       stroke-width="1.75654"
       id="ellipse14"
       style="stroke-width:1.54977;stroke-dasharray:none" />
    <ellipse
       cx="32.908047"
       cy="25.666788"
       rx="0.6371879"
       ry="1.5822432"
       fill="#d8dee9"
       fill-rule="evenodd"
       stroke-width="1.17258"
       id="ellipse15" />
    <path
       d="m 17.835208,29.791533 6.950544,6.950544 -7.07473,7.074731"
       id="path15"
       style="fill:none;stroke:#d8dee9;stroke-width:1.75412;stroke-linecap:round;stroke-linejoin:round" />
    <path
       d="m 28.864049,43.378068 h 9.424929"
       id="path16"
       style="fill:none;stroke:#d8dee9;stroke-width:1.75412;stroke-linecap:round;stroke-linejoin:round" />
    <ellipse
       cx="32.790508"
       cy="-28"
       fill="#ffffff"
       rx="2.1975002"
       ry="3.0409598"
       style="fill:#d8dee9;fill-opacity:1;stroke-width:2.9258;paint-order:stroke fill markers"
       id="ellipse6"
       transform="rotate(90)" />
  </g>
</svg>
