<?xml version="1.0" encoding="UTF-8" standalone="no"?>
<svg
   viewBox="0 0 64 64"
   style="display:inline;enable-background:new"
   version="1.0"
   id="svg11300"
   height="64"
   width="64"
   sodipodi:docname="wine.svg"
   inkscape:version="1.4 (unknown)"
   xmlns:inkscape="http://www.inkscape.org/namespaces/inkscape"
   xmlns:sodipodi="http://sodipodi.sourceforge.net/DTD/sodipodi-0.dtd"
   xmlns:xlink="http://www.w3.org/1999/xlink"
   xmlns="http://www.w3.org/2000/svg"
   xmlns:svg="http://www.w3.org/2000/svg"
   xmlns:rdf="http://www.w3.org/1999/02/22-rdf-syntax-ns#"
   xmlns:cc="http://creativecommons.org/ns#"
   xmlns:dc="http://purl.org/dc/elements/1.1/">
  <sodipodi:namedview
     id="namedview14"
     pagecolor="#ffffff"
     bordercolor="#666666"
     borderopacity="1.0"
     inkscape:showpageshadow="2"
     inkscape:pageopacity="0.0"
     inkscape:pagecheckerboard="0"
     inkscape:deskcolor="#d1d1d1"
     showgrid="false"
     inkscape:zoom="5.2149124"
     inkscape:cx="35.37931"
     inkscape:cy="63.951218"
     inkscape:window-width="1920"
     inkscape:window-height="1000"
     inkscape:window-x="0"
     inkscape:window-y="0"
     inkscape:window-maximized="1"
     inkscape:current-layer="svg11300" />
  <title
     id="title4162">Adwaita Icon Template</title>
  <defs
     id="defs3">
    <clipPath
       id="clipPath16-6"
       clipPathUnits="userSpaceOnUse">
      <path
         id="path18-8"
         d="M 0,500 H 500 V 0 H 0 Z" />
    </clipPath>
    <linearGradient
       inkscape:collect="always"
       xlink:href="#linearGradient22063"
       id="linearGradient22065"
       x1="-13.20652"
       y1="-9.999999"
       x2="-13.365215"
       y2="5"
       gradientUnits="userSpaceOnUse"
       gradientTransform="matrix(3.6250002,0,0,3.6250002,82.750004,39.249999)" />
    <linearGradient
       inkscape:collect="always"
       id="linearGradient22063">
      <stop
         style="stop-color:#0082c9;stop-opacity:1;"
         offset="0"
         id="stop22059" />
      <stop
         style="stop-color:#33b7ff;stop-opacity:1;"
         offset="1"
         id="stop22061" />
    </linearGradient>
    <linearGradient
       id="a-3"
       x1="99.036003"
       x2="99.036003"
       y1="-0.50471997"
       y2="199.84"
       gradientTransform="matrix(0.23000011,0,0,0.23000011,9.0002195,6.9999571)"
       gradientUnits="userSpaceOnUse">
      <stop
         stop-color="#4bd2f5"
         offset="0"
         id="stop5318" />
      <stop
         stop-color="#5587ff"
         offset="1"
         id="stop5320" />
    </linearGradient>
    <filter
       id="filter1305"
       x="-0.060002353"
       y="-0.060002353"
       width="1.1200047"
       height="1.1200047"
       color-interpolation-filters="sRGB">
      <feGaussianBlur
         stdDeviation="0.61852427"
         id="feGaussianBlur5323" />
    </filter>
  </defs>
  <metadata
     id="metadata4">
    <rdf:RDF>
      <cc:Work
         rdf:about="">
        <dc:format>image/svg+xml</dc:format>
        <dc:type
           rdf:resource="http://purl.org/dc/dcmitype/StillImage" />
        <dc:creator>
          <cc:Agent>
            <dc:title>GNOME Design Team</dc:title>
          </cc:Agent>
        </dc:creator>
        <dc:source />
        <cc:license
           rdf:resource="http://creativecommons.org/licenses/by-sa/4.0/" />
        <dc:title>Adwaita Icon Template</dc:title>
        <dc:subject>
          <rdf:Bag />
        </dc:subject>
        <dc:date />
        <dc:rights>
          <cc:Agent>
            <dc:title />
          </cc:Agent>
        </dc:rights>
        <dc:publisher>
          <cc:Agent>
            <dc:title />
          </cc:Agent>
        </dc:publisher>
        <dc:identifier />
        <dc:relation />
        <dc:language />
        <dc:coverage />
        <dc:description />
        <dc:contributor>
          <cc:Agent>
            <dc:title />
          </cc:Agent>
        </dc:contributor>
      </cc:Work>
      <cc:License
         rdf:about="http://creativecommons.org/licenses/by-sa/4.0/">
        <cc:permits
           rdf:resource="http://creativecommons.org/ns#Reproduction" />
        <cc:permits
           rdf:resource="http://creativecommons.org/ns#Distribution" />
        <cc:requires
           rdf:resource="http://creativecommons.org/ns#Notice" />
        <cc:requires
           rdf:resource="http://creativecommons.org/ns#Attribution" />
        <cc:permits
           rdf:resource="http://creativecommons.org/ns#DerivativeWorks" />
        <cc:requires
           rdf:resource="http://creativecommons.org/ns#ShareAlike" />
      </cc:License>
    </rdf:RDF>
  </metadata>
  <path
     d="M 3,10.25 C 3,6.245825 6.24594,3 10.25,3 h 43.5 C 57.75417,3 61,6.245825 61,10.25 v 43.5 C 61,57.754173 57.75417,61 53.75,61 H 10.25 C 6.24594,61 3,57.754173 3,53.75 Z"
     id="path736"
     style="fill:#606c86;fill-opacity:1;stroke-width:3.625" />
  <path
     d="M 3,9.796875 C 3,6.043188 6.24594,3 10.25,3 h 43.5 C 57.75417,3 61,6.043188 61,9.796875 V 50.578124 C 61,54.331817 57.75417,57.375 53.75,57.375 H 10.25 C 6.24594,57.375 3,54.331817 3,50.578124 Z"
     id="path738"
     style="fill:url(#linearGradient22065);fill-opacity:1;stroke-width:3.625" />
  <g
     id="g2"
     transform="matrix(1.1590911,0,0,1.149475,-0.46176029,-2.9439293)">
    <path
       style="opacity:0.2;stroke-width:1.00993"
       d="m 11.00622,15.760543 -5.0000001,5.099774 v 18.359194 l 5.0000001,5.09979 h 17 l -6,-6.11974 h -11 v -5.09977 h 11 v -6.119738 h -11 V 21.88027 h 11 l 6,-6.119727 z m 22,0 -5,5.099774 v 7.139689 l 5,5.099785 h 12 v 5.09977 h -17 l 6,6.11974 h 11 l 5,-5.09979 v -7.139684 l -5,-5.099774 h -12 V 21.88027 h 11 l 6,-6.119727 z"
       id="path3-3" />
    <path
       style="fill:#ffffff;stroke-width:1.00993"
       d="m 11.00622,14.740581 -5.0000001,5.099783 v 18.359197 l 5.0000001,5.09978 h 17 l -6,-6.11973 h -11 v -5.099784 h 11 V 25.9601 h -11 v -5.099783 h 11 l 6,-6.119736 z m 22,0 -5,5.099783 v 7.139689 l 5,5.099774 h 12 v 5.099784 h -17 l 6,6.11973 h 11 l 5,-5.09978 v -7.139687 l -5,-5.099774 h -12 v -5.099783 h 11 l 6,-6.119736 z"
       id="path4" />
  </g>
</svg>
