<?xml version="1.0" encoding="UTF-8" standalone="no"?>
<svg
   width="64"
   height="64"
   version="1.1"
   id="svg57"
   sodipodi:docname="netsurf.svg"
   inkscape:version="1.4 (unknown)"
   xmlns:inkscape="http://www.inkscape.org/namespaces/inkscape"
   xmlns:sodipodi="http://sodipodi.sourceforge.net/DTD/sodipodi-0.dtd"
   xmlns:xlink="http://www.w3.org/1999/xlink"
   xmlns="http://www.w3.org/2000/svg"
   xmlns:svg="http://www.w3.org/2000/svg">
  <sodipodi:namedview
     id="namedview59"
     pagecolor="#ffffff"
     bordercolor="#666666"
     borderopacity="1.0"
     inkscape:showpageshadow="2"
     inkscape:pageopacity="0.0"
     inkscape:pagecheckerboard="0"
     inkscape:deskcolor="#d1d1d1"
     showgrid="false"
     inkscape:zoom="8.0667981"
     inkscape:cx="30.433388"
     inkscape:cy="48.656232"
     inkscape:window-width="1920"
     inkscape:window-height="998"
     inkscape:window-x="0"
     inkscape:window-y="0"
     inkscape:window-maximized="1"
     inkscape:current-layer="svg57">
    <inkscape:grid
       type="xygrid"
       id="grid788"
       originx="0"
       originy="0"
       spacingy="1"
       spacingx="1"
       units="px"
       visible="false" />
  </sodipodi:namedview>
  <defs
     id="defs31">
    <linearGradient
       id="a"
       y1="543.79999"
       y2="513.79999"
       x2="0"
       gradientUnits="userSpaceOnUse"
       gradientTransform="matrix(1.125,0,0,1,-51.07,0)">
      <stop
         stop-color="#197cf1"
         id="stop2" />
      <stop
         offset="1"
         stop-color="#20bcfa"
         id="stop4" />
    </linearGradient>
    <linearGradient
       xlink:href="#a"
       id="b"
       y1="44"
       y2="11"
       x2="0"
       gradientUnits="userSpaceOnUse" />
    <linearGradient
       id="c"
       y1="10"
       y2="14"
       x2="0"
       gradientUnits="userSpaceOnUse">
      <stop
         stop-color="#1d1e1e"
         id="stop8" />
      <stop
         offset="1"
         stop-color="#44484c"
         id="stop10" />
    </linearGradient>
    <linearGradient
       xlink:href="#a"
       id="d"
       y1="14"
       y2="10"
       gradientUnits="userSpaceOnUse"
       x2="0" />
    <linearGradient
       xlink:href="#a"
       id="e"
       y1="516.79999"
       y2="503.79999"
       x2="0"
       gradientUnits="userSpaceOnUse" />
    <linearGradient
       id="f"
       y1="18"
       y2="15"
       x2="0"
       gradientUnits="userSpaceOnUse">
      <stop
         stop-color="#c6cdd1"
         id="stop15" />
      <stop
         offset="1"
         stop-color="#e0e5e7"
         id="stop17" />
    </linearGradient>
    <linearGradient
       xlink:href="#f"
       id="g"
       y1="517.79999"
       y2="514.79999"
       x2="0"
       gradientUnits="userSpaceOnUse" />
    <linearGradient
       id="h"
       y1="19"
       y2="3"
       x2="0"
       gradientUnits="userSpaceOnUse"
       gradientTransform="translate(0,-2)">
      <stop
         stop-color="#7cbaf8"
         id="stop21" />
      <stop
         offset="1"
         stop-color="#f4fcff"
         id="stop23" />
    </linearGradient>
    <linearGradient
       id="i"
       y1="23"
       x1="16"
       y2="39"
       x2="32"
       gradientUnits="userSpaceOnUse">
      <stop
         stop-color="#292c2f"
         id="stop26" />
      <stop
         offset="1"
         stop-opacity="0"
         id="stop28" />
    </linearGradient>
    <linearGradient
       inkscape:collect="always"
       xlink:href="#linearGradient22063"
       id="linearGradient22065"
       x1="-22"
       y1="5.1111121"
       x2="-6.4444442"
       y2="-9.1111107"
       gradientUnits="userSpaceOnUse"
       gradientTransform="matrix(3.6250002,0,0,3.6250002,82.750003,39.249999)" />
    <linearGradient
       inkscape:collect="always"
       id="linearGradient22063">
      <stop
         style="stop-color:#88c0d0;stop-opacity:1;"
         offset="0"
         id="stop22059" />
      <stop
         style="stop-color:#5e81ac;stop-opacity:1;"
         offset="1"
         id="stop22061" />
    </linearGradient>
    <linearGradient
       id="d-7"
       x2="0"
       y1="44"
       y2="4"
       gradientTransform="matrix(-0.67500012,0,0,0.67500013,40.200007,7.6593637)"
       gradientUnits="userSpaceOnUse">
      <stop
         stop-color="#2f74c8"
         offset="0"
         id="stop13-4" />
      <stop
         stop-color="#4699d7"
         offset="1"
         id="stop15-4" />
    </linearGradient>
    <linearGradient
       id="b-3"
       x1="405.57001"
       x2="427.57001"
       y1="509.79999"
       y2="533.79999"
       gradientUnits="userSpaceOnUse">
      <stop
         stop-opacity=".286"
         offset="0"
         id="stop7" />
      <stop
         stop-opacity="0"
         offset="1"
         id="stop9" />
    </linearGradient>
    <linearGradient
       id="a-7"
       x2="0"
       y1="34"
       y2="4"
       gradientUnits="userSpaceOnUse"
       gradientTransform="matrix(0.67500012,0,0,0.67500013,7.799999,7.6593637)">
      <stop
         stop-color="#7cbaf8"
         offset="0"
         id="stop2-8" />
      <stop
         stop-color="#f4fcff"
         offset="1"
         id="stop4-6" />
    </linearGradient>
    <linearGradient
       inkscape:collect="always"
       xlink:href="#linearGradient11"
       id="linearGradient12"
       x1="29.51911"
       y1="60"
       x2="29.67421"
       y2="5"
       gradientUnits="userSpaceOnUse" />
    <linearGradient
       id="linearGradient11"
       inkscape:collect="always">
      <stop
         style="stop-color:#0066ff;stop-opacity:1"
         offset="0"
         id="stop11" />
      <stop
         style="stop-color:#34b3fe;stop-opacity:1;"
         offset="1"
         id="stop12" />
    </linearGradient>
  </defs>
  <path
     d="M 3,10.25 C 3,6.2458252 6.245938,3 10.25,3 h 43.500003 c 4.004173,0 7.25,3.2458252 7.25,7.25 v 43.5 c 0,4.004173 -3.245827,7.25 -7.25,7.25 H 10.25 C 6.245938,61 3,57.754173 3,53.75 Z"
     id="path736"
     style="fill:#a6aebf;fill-opacity:1;stroke-width:3.625" />
  <path
     d="M 3,9.796875 C 3,6.0431877 6.245938,3 10.25,3 h 43.500003 c 4.004173,0 7.25,3.0431877 7.25,6.796875 v 40.781249 c 0,3.753693 -3.245827,6.796876 -7.25,6.796876 H 10.25 C 6.245938,57.375 3,54.331817 3,50.578124 Z"
     id="path738"
     style="fill:url(#linearGradient22065);fill-opacity:1;stroke-width:3.625" />
  <g
     id="g10"
     transform="matrix(0.71050494,0,0,0.71204862,8.9085892,8.1518064)">
    <g
       id="g9">
      <path
         style="opacity:0.2"
         d="M 46,8.7512899 A 28,28 0 0 0 7.7512896,19 28,28 0 0 0 18.000001,57.248712 28,28 0 0 0 56.24871,47 28,28 0 0 0 46,8.7512899 Z"
         id="path1" />
      <path
         style="fill:url(#linearGradient12)"
         d="M 46,7.7512888 A 28,28 0 0 0 7.7512896,18 28,28 0 0 0 18.000001,56.248712 28,28 0 0 0 56.24871,46 28,28 0 0 0 46,7.7512888 Z"
         id="path2" />
      <path
         style="opacity:0.2;fill:#ffffff"
         d="M 32.660156,4.0078125 A 28,28 0 0 0 7.75,18 28,28 0 0 0 4.0449219,32.279297 28,28 0 0 1 7.75,19 28,28 0 0 1 32.660156,5.0078125 28,28 0 0 1 46,8.75 28,28 0 0 1 59.945312,32.945312 28,28 0 0 1 59.953125,33.1875 28,28 0 0 0 46,7.75 28,28 0 0 0 32.660156,4.0078125 Z"
         id="path3" />
      <path
         style="opacity:0.2;stroke-width:1.42918"
         d="m 46.150923,15.008787 -1.780514,5.476682 5.629592,1.21325 -5.131613,2.613585 3.122825,4.838619 L 42.514531,27.370409 41.301282,33 l -2.613585,-5.131613 -4.83862,3.122826 1.780515,-5.476683 -5.629591,-1.213248 5.131614,-2.613585 -3.122828,-4.83862 5.476683,1.780516 L 38.69872,13 l 2.613585,5.131614 z"
         id="path4" />
      <path
         style="fill:#f2f2f2;fill-opacity:1;stroke-width:1.42918"
         d="m 46.150923,14.008787 -1.780514,5.476682 5.629592,1.21325 -5.131613,2.613585 3.122825,4.838619 L 42.514531,26.370409 41.301282,32 l -2.613585,-5.131613 -4.83862,3.122826 1.780515,-5.476683 -5.629591,-1.213248 5.131614,-2.613585 -3.122828,-4.83862 5.476683,1.780516 L 38.69872,12 l 2.613585,5.131614 z"
         id="path5" />
      <path
         style="opacity:0.2;fill:none;stroke:#000000;stroke-width:3;stroke-linecap:round;stroke-linejoin:round"
         d="m 17.5,7.4847354 c -6,21.9999996 1.692192,38.4563076 17,53.9999996"
         id="path6" />
      <path
         style="fill:none;stroke:#2d3d53;stroke-width:3;stroke-linecap:round;stroke-linejoin:round;stroke-opacity:1"
         d="m 17.5,6.5 c -6,22 1.692192,38.456308 17,54"
         id="path7" />
      <path
         style="opacity:0.2;fill:none;stroke:#000000;stroke-width:3;stroke-linecap:round;stroke-linejoin:round"
         d="m 59.5,32.484735 c -15.761826,15.681734 -33,19 -53,13"
         id="path8" />
      <path
         style="fill:none;stroke:#2d3d53;stroke-width:3;stroke-linecap:round;stroke-linejoin:round;stroke-opacity:1"
         d="m 59.5,31.5 c -15.761826,15.681734 -33,19 -53,13"
         id="path9" />
    </g>
  </g>
</svg>
