<?xml version="1.0" encoding="UTF-8" standalone="no"?>
<svg
   height="64"
   width="64"
   version="1.1"
   id="svg10"
   sodipodi:docname="caffeine.svg"
   inkscape:version="1.4.2 (unknown)"
   xmlns:inkscape="http://www.inkscape.org/namespaces/inkscape"
   xmlns:sodipodi="http://sodipodi.sourceforge.net/DTD/sodipodi-0.dtd"
   xmlns:xlink="http://www.w3.org/1999/xlink"
   xmlns="http://www.w3.org/2000/svg"
   xmlns:svg="http://www.w3.org/2000/svg"
   xmlns:rdf="http://www.w3.org/1999/02/22-rdf-syntax-ns#"
   xmlns:cc="http://creativecommons.org/ns#"
   xmlns:dc="http://purl.org/dc/elements/1.1/">
  <metadata
     id="metadata16">
    <rdf:RDF>
      <cc:Work
         rdf:about="">
        <dc:format>image/svg+xml</dc:format>
        <dc:type
           rdf:resource="http://purl.org/dc/dcmitype/StillImage" />
      </cc:Work>
    </rdf:RDF>
  </metadata>
  <defs
     id="defs14">
    <linearGradient
       id="c"
       x1="31.458"
       x2="31.458"
       y1="51.726002"
       y2="62.897999"
       gradientTransform="matrix(0.36079,0,0,0.36079,-2.8832,-9.4399)"
       gradientUnits="userSpaceOnUse">
      <stop
         stop-color="#1776ff"
         offset="0"
         id="stop292" />
      <stop
         stop-color="#2fceff"
         offset="1"
         id="stop294" />
    </linearGradient>
    <linearGradient
       id="d"
       x1="31.458"
       x2="31.458"
       y1="36.897999"
       y2="59.897999"
       gradientTransform="matrix(0.36079,0,0,0.36079,-2.8832,-9.4399)"
       gradientUnits="userSpaceOnUse">
      <stop
         stop-color="#ff5514"
         offset="0"
         id="stop297" />
      <stop
         stop-color="#ff9014"
         offset="1"
         id="stop299" />
    </linearGradient>
    <linearGradient
       id="a"
       x1="31.458"
       x2="31.458"
       y1="46.897999"
       y2="56.897999"
       gradientTransform="matrix(0.36079,0,0,0.36079,-2.8832,-9.4399)"
       gradientUnits="userSpaceOnUse">
      <stop
         stop-color="#c0e5fb"
         offset="0"
         id="stop302" />
      <stop
         stop-color="#c3faff"
         offset="1"
         id="stop304" />
    </linearGradient>
    <linearGradient
       gradientTransform="matrix(1.0394952,0,0,1.0394363,-448.49881,-520.66414)"
       gradientUnits="userSpaceOnUse"
       x2="426.69501"
       y2="499.92099"
       y1="547.67499"
       id="a-6"
       x1="389.32001">
      <stop
         stop-color="#18222a"
         style="stop-color:#436077;stop-opacity:1;"
         id="stop216"
         offset="0" />
      <stop
         stop-color="#566069"
         offset="1"
         style="stop-color:#6d7983;stop-opacity:1"
         id="stop218" />
    </linearGradient>
    <linearGradient
       id="e"
       x1="8.4461002"
       x2="24.603001"
       y1="6.2688999"
       y2="24.570999"
       gradientUnits="userSpaceOnUse"
       gradientTransform="translate(0.254427,-38.49298)">
      <stop
         stop-opacity=".2088"
         offset="0"
         id="stop4" />
      <stop
         stop-opacity="0"
         offset="1"
         id="stop6" />
    </linearGradient>
    <linearGradient
       id="d-3"
       x1="7.8488002"
       x2="14.108"
       y1="3.5121"
       y2="14.183"
       gradientUnits="userSpaceOnUse"
       gradientTransform="translate(0.254427,-38.49298)">
      <stop
         stop-opacity=".2088"
         offset="0"
         id="stop14" />
      <stop
         stop-opacity="0"
         offset="1"
         id="stop16" />
    </linearGradient>
    <linearGradient
       id="c-6"
       x1="31.458"
       x2="31.458"
       y1="51.726002"
       y2="62.897999"
       gradientTransform="matrix(0.36079,0,0,0.36079,-2.8832,-9.4399)"
       gradientUnits="userSpaceOnUse">
      <stop
         stop-color="#1776ff"
         offset="0"
         id="stop292-7"
         style="stop-color:#55ddff;stop-opacity:1" />
      <stop
         stop-color="#2fceff"
         offset="1"
         id="stop294-5"
         style="stop-color:#00ccff;stop-opacity:1" />
    </linearGradient>
    <linearGradient
       id="d-35"
       x1="31.458"
       x2="31.458"
       y1="36.897999"
       y2="59.897999"
       gradientTransform="matrix(0.36079,0,0,0.36079,-2.8832,-9.4399)"
       gradientUnits="userSpaceOnUse">
      <stop
         stop-color="#ff5514"
         offset="0"
         id="stop297-6"
         style="stop-color:#ffccaa;stop-opacity:1" />
      <stop
         stop-color="#ff9014"
         offset="1"
         id="stop299-2"
         style="stop-color:#ff9955;stop-opacity:1" />
    </linearGradient>
    <linearGradient
       id="a-9"
       x1="31.458"
       x2="31.458"
       y1="46.897999"
       y2="56.897999"
       gradientTransform="matrix(0.36079,0,0,0.36079,-2.8832,-9.4399)"
       gradientUnits="userSpaceOnUse">
      <stop
         stop-color="#c0e5fb"
         offset="0"
         id="stop302-1"
         style="stop-color:#e3d7f4;stop-opacity:1" />
      <stop
         stop-color="#c3faff"
         offset="1"
         id="stop304-2"
         style="stop-color:#aa87de;stop-opacity:1" />
    </linearGradient>
    <linearGradient
       inkscape:collect="always"
       xlink:href="#linearGradient22063"
       id="linearGradient22065"
       x1="-14"
       y1="6"
       x2="-14"
       y2="-9.999999"
       gradientUnits="userSpaceOnUse"
       gradientTransform="matrix(3.6250002,0,0,3.6250002,82.750002,39.249998)" />
    <linearGradient
       inkscape:collect="always"
       id="linearGradient22063">
      <stop
         style="stop-color:#483e37;stop-opacity:1"
         offset="0"
         id="stop22059" />
      <stop
         style="stop-color:#ac9d93;stop-opacity:1"
         offset="1"
         id="stop22061" />
    </linearGradient>
    <clipPath
       id="a-3">
      <circle
         cx="8.467"
         cy="288.53"
         r="6.8790002"
         fill="#d86eb0"
         stroke-opacity="0.039"
         stroke-width="0.491"
         style="paint-order:stroke markers fill"
         id="circle2-6" />
    </clipPath>
    <linearGradient
       id="linearGradient4235">
      <stop
         style="stop-color:#abdaf9;stop-opacity:1"
         offset="0"
         id="stop7" />
      <stop
         style="stop-color:#7cbcec;stop-opacity:1"
         offset="1"
         id="stop9" />
    </linearGradient>
    <linearGradient
       id="linearGradient4255">
      <stop
         style="stop-color:#000000;stop-opacity:1;"
         offset="0"
         id="stop2" />
      <stop
         style="stop-color:#000000;stop-opacity:0;"
         offset="1"
         id="stop4-5" />
    </linearGradient>
    <linearGradient
       id="linearGradient4216">
      <stop
         style="stop-color:#c42c2c;stop-opacity:1"
         offset="0"
         id="stop17" />
      <stop
         style="stop-color:#f36856;stop-opacity:1"
         offset="1"
         id="stop19" />
    </linearGradient>
    <linearGradient
       id="linearGradient4224">
      <stop
         style="stop-color:#375a7d;stop-opacity:1"
         offset="0"
         id="stop12" />
      <stop
         style="stop-color:#54a3d8;stop-opacity:1"
         offset="1"
         id="stop14-6" />
    </linearGradient>
    <linearGradient
       id="d-36"
       x1="-37.637001"
       x2="-36.792999"
       y1="280.01001"
       y2="273.35999"
       gradientTransform="matrix(1.8392,0,0,1.8328,109.49,-464.48)"
       gradientUnits="userSpaceOnUse">
      <stop
         offset="0"
         stop-color="#fefefe"
         id="stop5" />
      <stop
         offset="1"
         stop-color="#8c8c8c"
         id="stop6-7" />
    </linearGradient>
    <radialGradient
       id="e-5"
       cx="-42.763"
       cy="277.01999"
       r="7.1999998"
       gradientTransform="matrix(1.8392,0,0,0.86064,109.49,-195.17)"
       gradientUnits="userSpaceOnUse">
      <stop
         offset="0"
         stop-color="#fff"
         id="stop15" />
      <stop
         offset="1"
         stop-color="#ccc"
         id="stop16-3" />
    </radialGradient>
    <radialGradient
       xlink:href="#linearGradient4255"
       id="f"
       cx="62.625"
       cy="4.625"
       r="10.625"
       gradientTransform="matrix(1.7391,0,0,0.57509,-78.662001,41.25)"
       gradientUnits="userSpaceOnUse" />
    <radialGradient
       id="g"
       cx="118.48"
       cy="58.118999"
       r="13.983"
       gradientTransform="matrix(-0.40417,0.40574,-0.25545,-0.25844,110.32,-1.386)"
       gradientUnits="userSpaceOnUse">
      <stop
         offset="0"
         stop-color="#fefefe"
         id="stop17-62" />
      <stop
         offset="1"
         stop-color="#b4b4b3"
         id="stop18-9" />
    </radialGradient>
    <radialGradient
       id="h"
       cx="94.238998"
       cy="62.312"
       r="13.983"
       gradientTransform="matrix(-0.45004,0.02307,-0.01995,-0.39523,97.52,46.108)"
       gradientUnits="userSpaceOnUse">
      <stop
         offset="0"
         stop-color="#fff"
         id="stop19-12" />
      <stop
         offset="1"
         stop-color="#fff"
         stop-opacity="0"
         id="stop20-7" />
    </radialGradient>
    <radialGradient
       xlink:href="#linearGradient4255"
       id="i"
       cx="106.33"
       cy="65.468002"
       r="13.983"
       gradientTransform="matrix(-0.34634,3.8e-4,0,-0.12996,85.336999,34.41)"
       gradientUnits="userSpaceOnUse" />
    <radialGradient
       xlink:href="#linearGradient4255"
       id="j"
       cx="62.625"
       cy="4.625"
       r="10.625"
       gradientTransform="matrix(2.3888,0,0,0.78994,-119.35,40.256)"
       gradientUnits="userSpaceOnUse" />
    <radialGradient
       id="k"
       cx="-6.454"
       cy="29.205999"
       r="32"
       gradientTransform="matrix(0,0.82021,-0.85578,0,46.668,35.563)"
       gradientUnits="userSpaceOnUse">
      <stop
         offset="0"
         stop-color="#eeeeec"
         id="stop21" />
      <stop
         offset=".5"
         stop-color="#cacac9"
         id="stop22" />
      <stop
         offset="1"
         stop-color="#6b6b6b"
         id="stop23" />
    </radialGradient>
    <linearGradient
       id="m"
       x1="5.684"
       x2="35.033001"
       y1="16.365999"
       y2="16.365999"
       gradientTransform="matrix(0.55458,0,0,0.40424,27.390999,16.4)"
       gradientUnits="userSpaceOnUse"
       spreadMethod="reflect">
      <stop
         offset="0"
         stop-color="#d1d1d1"
         id="stop9-6" />
      <stop
         offset="1"
         stop-color="#959594"
         id="stop10" />
    </linearGradient>
    <radialGradient
       id="n"
       cx="8.4379997"
       cy="32.535"
       r="26.406"
       gradientTransform="matrix(0.68425,0,0,0.27936,24.806999,18.405)"
       gradientUnits="userSpaceOnUse">
      <stop
         offset="0"
         stop-color="#8b6a35"
         id="stop24" />
      <stop
         offset=".371"
         stop-color="#885f22"
         id="stop25" />
      <stop
         offset=".686"
         stop-color="#754d0d"
         id="stop26" />
      <stop
         offset="1"
         stop-color="#483816"
         id="stop27" />
    </radialGradient>
    <linearGradient
       id="o"
       x1="87.050003"
       x2="87.050003"
       y1="53.75"
       y2="41.73"
       gradientTransform="matrix(0.57744,0,0,0.58194,-18.676122,15.085963)"
       gradientUnits="userSpaceOnUse">
      <stop
         offset="0"
         stop-color="#fff"
         id="stop11" />
      <stop
         offset="1"
         stop-color="#fff"
         stop-opacity="0"
         id="stop12-0" />
    </linearGradient>
    <linearGradient
       xlink:href="#a-61"
       id="q"
       x1="56.576"
       x2="56.576"
       y1="13.28"
       y2="18.039"
       gradientTransform="matrix(2.1563,0,0,2.4869,-97.612,-21.443)"
       gradientUnits="userSpaceOnUse" />
    <linearGradient
       id="linearGradient29">
      <stop
         offset="0"
         stop-color="#ad9177"
         stop-opacity=".373"
         id="stop13"
         style="stop-color:#efeae5;stop-opacity:1;" />
      <stop
         offset=".251"
         stop-color="#947b62"
         id="stop14-62" />
      <stop
         offset=".721"
         stop-color="#947b62"
         id="stop28" />
      <stop
         offset="1"
         stop-color="#947b62"
         stop-opacity=".009"
         id="stop29" />
    </linearGradient>
    <linearGradient
       xlink:href="#linearGradient35"
       id="r"
       x1="56.576"
       x2="56.576"
       y1="13.718"
       y2="18.039"
       gradientTransform="matrix(2.1563,0,0,2.4869,-91.609,-21.553)"
       gradientUnits="userSpaceOnUse" />
    <linearGradient
       id="linearGradient35">
      <stop
         offset="0"
         stop-color="#ad9177"
         stop-opacity=".373"
         id="stop32"
         style="stop-color:#e2d8ce;stop-opacity:1;" />
      <stop
         offset=".251"
         stop-color="#947b62"
         id="stop33" />
      <stop
         offset=".721"
         stop-color="#947b62"
         id="stop34" />
      <stop
         offset="1"
         stop-color="#947b62"
         stop-opacity=".009"
         id="stop35" />
    </linearGradient>
    <linearGradient
       xlink:href="#a-61"
       id="s"
       x1="56.576"
       x2="56.576"
       y1="13.28"
       y2="18.039"
       gradientTransform="matrix(2.1563,0,0,2.4869,-85.700001,-21.553)"
       gradientUnits="userSpaceOnUse" />
    <linearGradient
       id="a-61">
      <stop
         offset="0"
         stop-color="#ad9177"
         stop-opacity=".373"
         id="stop30"
         style="stop-color:#e4dad1;stop-opacity:1;" />
      <stop
         offset=".251"
         stop-color="#947b62"
         id="stop31" />
      <stop
         offset=".721"
         stop-color="#947b62"
         id="stop36" />
      <stop
         offset="1"
         stop-color="#947b62"
         stop-opacity=".009"
         id="stop37" />
    </linearGradient>
    <linearGradient
       inkscape:collect="always"
       xlink:href="#a-61"
       id="linearGradient3"
       x1="23.899857"
       y1="18.7215"
       x2="27.704"
       y2="18.7215"
       gradientUnits="userSpaceOnUse" />
  </defs>
  <sodipodi:namedview
     pagecolor="#ffffff"
     bordercolor="#666666"
     borderopacity="1"
     objecttolerance="10"
     gridtolerance="10"
     guidetolerance="10"
     inkscape:pageopacity="0"
     inkscape:pageshadow="2"
     inkscape:window-width="1920"
     inkscape:window-height="996"
     id="namedview12"
     showgrid="false"
     inkscape:zoom="7.0426069"
     inkscape:cx="39.048041"
     inkscape:cy="45.011741"
     inkscape:window-x="0"
     inkscape:window-y="0"
     inkscape:window-maximized="1"
     inkscape:current-layer="svg10"
     inkscape:document-rotation="0"
     inkscape:showpageshadow="2"
     inkscape:pagecheckerboard="0"
     inkscape:deskcolor="#d1d1d1">
    <inkscape:grid
       type="xygrid"
       id="grid801"
       originx="0"
       originy="0"
       spacingy="1"
       spacingx="1"
       units="px"
       visible="false" />
  </sodipodi:namedview>
  <path
     d="M 2.999999,10.25 C 2.999999,6.245825 6.245933,3 10.249993,3 h 43.500009 c 4.00417,0 7.25,3.245825 7.25,7.25 v 43.499999 c 0,4.004173 -3.24583,7.25 -7.25,7.25 H 10.249993 c -4.00406,0 -7.249994,-3.245827 -7.249994,-7.25 z"
     id="path736"
     style="fill:#917c6f;fill-opacity:1;stroke-width:3.625" />
  <path
     d="M 2.999999,9.7968747 C 2.999999,6.043188 6.245933,3 10.249993,3 h 43.500009 c 4.00417,0 7.25,3.043188 7.25,6.7968747 V 50.578123 c 0,3.753693 -3.24583,6.796876 -7.25,6.796876 H 10.249993 c -4.00406,0 -7.249995,-3.043183 -7.249995,-6.796876 z"
     id="path738"
     style="fill:url(#linearGradient22065);fill-opacity:1;stroke-width:3.625" />
  <g
     id="g1">
    <ellipse
       cx="32.453003"
       cy="43.795002"
       fill="#808080"
       rx="17.377001"
       ry="8.7060003"
       id="ellipse29" />
    <ellipse
       cx="32.453003"
       cy="42.824001"
       fill="url(#d)"
       rx="17.377001"
       ry="8.7060003"
       id="ellipse30"
       style="fill:url(#d-36)" />
    <ellipse
       cx="32.453003"
       cy="43.913998"
       fill="url(#e)"
       rx="13.242"
       ry="6.1960001"
       id="ellipse31"
       style="fill:url(#e-5)" />
    <path
       fill="url(#f)"
       fill-rule="evenodd"
       d="m 50.147,44.575 c 0,3.375 -8.273,6.11 -18.478,6.11 -10.205,0 -18.478,-2.735 -18.478,-6.11 0,-3.375 8.273,-6.11 18.478,-6.11 10.205,0 18.478,2.735 18.478,6.11"
       opacity="0.3"
       id="path31"
       style="fill:url(#f)" />
    <path
       fill="url(#g)"
       d="M 46.002,39.2 C 49.547,38.884 57.358,38.009 56.797,28.944 56.767,28.462 56.643,27.968 56.43,27.587 A 3.4,3.4 0 0 0 55.475,26.53 c -1.822,-1.316 -5.123,-1.111 -7.49,-1.111 -7.761,1.632 -9.403,14.803 -1.983,13.782 z m 1.244,-10.636 c 0,0 6.243,-0.938 6.458,0.262 0.702,7.325 -6.439,6.31 -6.439,6.31 l -0.019,-6.147 z"
       id="path32"
       style="fill:url(#g)" />
    <path
       fill="url(#h)"
       d="m 48.031,25.71 c -3.732,0.785 -6.007,4.373 -6.442,7.638 -0.218,1.633 0.027,3.167 0.74,4.2 0.713,1.035 1.87,1.609 3.645001,1.365 h 0.018 c 1.61,-0.144 5.83,-1.023 8.058,-3.127 1.115,-1.052 0.607,-3.05 1.325,-4.111 0.719,-1.062 1.136999,-2.047 1.136999,-2.728 0,-0.415 -0.15,-0.874 -0.343,-1.218 A 3,3 0 0 0 55.303,26.765 C 53.639,25.563 50.41,25.708 48.031,25.71 m -0.83,2.982 a 0.3,0.3 0 0 1 0.054,0 c 0,0 4.112,-0.17 5.482999,-0.17 0.077,0 -0.054,-0.054 0,0 0.055,0.055 0,-0.076 0,0 0,1.624 0.255,4.295 -0.893,5.042 a 10.6,10.6 0 0 1 -2.291,1.11 0.29,0.29 0 0 1 -0.258,-0.04 0.29,0.29 0 0 1 -0.121,-0.234 l -2.21,-5.417 a 0.29,0.29 0 0 1 0.235,-0.29 z"
       id="path33"
       style="fill:url(#h)" />
    <path
       d="m 48.32,25.419 c -3.732,0.785 -6.007,4.373 -6.442,7.638 -0.218,1.633 0.027,3.167 0.74,4.2 0.713,1.035 1.87,1.609 3.645,1.365 h 0.018 c 1.61,-0.144 6.512,-0.844 8.74,-2.949 1.115001,-1.052 -0.075,-3.228 0.643,-4.289 0.718001,-1.061 1.137,-2.047 1.137,-2.728 0,-0.415 -0.15,-0.874 -0.343,-1.218 A 3,3 0 0 0 55.592,26.474 C 53.928,25.272 50.699,25.417 48.32,25.419 m -0.83,2.982 a 0.3,0.3 0 0 1 0.054,0 c 0,0 5.136,0.136 6.507,0.136 a 0.287,0.287 0 0 1 0.288,0.291 c 0,1.624 -1.057,3.698 -2.205,4.445 a 10.6,10.6 0 0 1 -2.291,1.11 0.29,0.29 0 0 1 -0.259,-0.04 0.29,0.29 0 0 1 -0.12,-0.234 l -2.21,-5.417 a 0.29,0.29 0 0 1 0.235,-0.29 z"
       opacity="0.3"
       id="path34"
       style="fill:url(#i)" />
    <path
       fill-rule="evenodd"
       d="m 57.05,44.575 c 0,4.636 -11.364,8.393 -25.381,8.393 -14.018,0 -25.3809995,-3.758 -25.3809995,-8.393 0,-4.635 11.3639995,-8.393 25.3809995,-8.393 14.018,0 25.381,3.758 25.381,8.393"
       opacity="0.3"
       id="path35"
       style="fill:url(#j)" />
    <path
       d="m 32,16.515 c -9.66,0 -17.568,2.8 -18.152999,6.329 h -0.036 v 4.255 c 0.13,11.277 8.23,20.386 18.189,20.386 9.96,0 18.059,-9.109 18.189,-20.386 V 22.844 H 50.153 C 49.568,19.316 41.66,16.516 32,16.516 Z"
       id="path36"
       style="fill:url(#k)" />
    <path
       fill="#ffffff"
       d="m 49.597747,23.757732 c 0.0018,3.934163 -7.843827,7.123526 -17.52175,7.123526 -9.678522,0 -17.523545,-3.189363 -17.52175,-7.123526 -0.0018,-3.934164 7.843827,-7.123527 17.52175,-7.123527 9.678522,0 17.523545,3.189363 17.52175,7.123527"
       opacity="0.6"
       id="path37"
       style="stroke-width:0.539546" />
    <path
       fill="url(#m)"
       d="m 48.239,23.682 c 0.002,3.269 -7.27,5.92 -16.239,5.92 -8.969,0 -16.239999,-2.651 -16.239,-5.92 -0.002,-3.269 7.27,-5.92 16.239,-5.92 8.969,0 16.24,2.651 16.239001,5.92"
       id="path38"
       style="fill:url(#m)" />
    <path
       fill="#36290f"
       d="m 31.999,20.425 c -7.522,0 -14.08,2.103 -15.922,4.45 1.294,2.334 8.033,4.696 15.545,4.696 7.511,0 15.546,-2.446 16.418,-4.949 -1.844,-2.347 -8.52,-4.197 -16.041,-4.197"
       id="path39" />
    <path
       d="m 31.999,20.922 c -7.522,0 -13.817,1.83 -15.659,4.346 1.851,2.51 8.146,4.383 15.659,4.383 7.511,0 13.803,-1.88 15.655,-4.39 -1.843,-2.515 -8.134,-4.339 -15.655,-4.339"
       id="path40"
       style="fill:url(#n)" />
    <path
       d="m 46.477816,37.702155 c -3.013082,4.14574 -8.285109,6.892497 -14.29164,6.892497 -5.994405,0 -11.257771,-2.742101 -14.27374,-6.873875 2.320154,5.460925 7.837016,9.31104 14.27374,9.31104 6.444808,0 11.976683,-3.856517 14.29164,-9.32908 z"
       opacity="0.3"
       id="path41"
       style="fill:url(#o);stroke-width:0.579686" />
    <path
       fill="none"
       d="m 48.739,23.682 c 0.002,3.373 -7.493,6.107 -16.739,6.107 -9.246,0 -16.741,-2.733 -16.739,-6.107 -0.002,-3.373 7.493,-6.107 16.739,-6.107 9.246,0 16.741,2.734 16.739001,6.107"
       opacity="0.4"
       id="path42" />
    <path
       fill="none"
       stroke-linecap="round"
       stroke-width="2.316"
       d="m 26.546,25.096 c 0,0 -2.097,-2.33 -1.319,-5.677 0.778,-3.348 0.926,-5.222 0,-7.072"
       id="path43"
       style="stroke:url(#q);fill:url(#linearGradient3)" />
    <path
       fill="none"
       stroke-linecap="round"
       stroke-width="2.316"
       d="m 32.55,24.986 c 0,0 -2.097,-2.33 -1.319,-5.677 0.778,-3.348 0.926,-5.222 0,-7.072"
       id="path44"
       style="stroke:url(#r)" />
    <path
       fill="none"
       stroke-linecap="round"
       stroke-width="2.316"
       d="m 38.458,24.986 c 0,0 -2.097,-2.33 -1.319,-5.677 0.778,-3.348 0.926,-5.222 0,-7.072"
       id="path45"
       style="stroke:url(#s)" />
  </g>
</svg>
