<?xml version="1.0" encoding="UTF-8" standalone="no"?>
<svg
   version="1.0"
   width="21.999998"
   height="21.999998"
   id="svg2"
   inkscape:version="1.3.2 (091e20ef0f, 2023-11-25)"
   sodipodi:docname="alldesktops.svg"
   viewBox="0 0 20.625 20.624998"
   xmlns:inkscape="http://www.inkscape.org/namespaces/inkscape"
   xmlns:sodipodi="http://sodipodi.sourceforge.net/DTD/sodipodi-0.dtd"
   xmlns:xlink="http://www.w3.org/1999/xlink"
   xmlns="http://www.w3.org/2000/svg"
   xmlns:svg="http://www.w3.org/2000/svg"
   xmlns:rdf="http://www.w3.org/1999/02/22-rdf-syntax-ns#"
   xmlns:cc="http://creativecommons.org/ns#"
   xmlns:dc="http://purl.org/dc/elements/1.1/">
  <sodipodi:namedview
     pagecolor="#262626"
     bordercolor="#000000"
     borderopacity="1"
     objecttolerance="10"
     gridtolerance="10"
     guidetolerance="10"
     inkscape:pageopacity="1"
     inkscape:pageshadow="2"
     inkscape:window-width="1920"
     inkscape:window-height="994"
     id="namedview32"
     showgrid="true"
     inkscape:zoom="4.5"
     inkscape:cx="-80.666667"
     inkscape:cy="25.666667"
     inkscape:window-x="0"
     inkscape:window-y="0"
     inkscape:window-maximized="1"
     inkscape:current-layer="svg2"
     inkscape:document-rotation="0"
     showguides="false"
     inkscape:showpageshadow="true"
     inkscape:lockguides="true"
     inkscape:pagecheckerboard="true"
     guidecolor="#0000ff"
     guideopacity="0.76862745"
     inkscape:deskcolor="#333333">
    <inkscape:grid
       type="xygrid"
       id="grid7639"
       originx="-175.38818"
       originy="5.8143214e-05"
       spacingy="1"
       spacingx="1"
       units="px"
       visible="true" />
  </sodipodi:namedview>
  <metadata
     id="metadata11">
    <rdf:RDF>
      <cc:Work
         rdf:about="">
        <dc:format>image/svg+xml</dc:format>
        <dc:type
           rdf:resource="http://purl.org/dc/dcmitype/StillImage" />
      </cc:Work>
    </rdf:RDF>
  </metadata>
  <defs
     id="defs4">
    <linearGradient
       id="linearGradient3587-6-5">
      <stop
         id="stop3589-9-2"
         style="stop-color:#000000;stop-opacity:1"
         offset="0" />
      <stop
         id="stop3591-7-4"
         style="stop-color:#646464;stop-opacity:1"
         offset="1" />
    </linearGradient>
    <linearGradient
       x1="7.0799088"
       y1="7.6944885"
       x2="11.317808"
       y2="11.932388"
       id="linearGradient2388"
       xlink:href="#linearGradient3587-6-5"
       gradientUnits="userSpaceOnUse"
       gradientTransform="rotate(45,12.12132,10.707107)" />
    <linearGradient
       x1="8.1313992"
       y1="19.049677"
       x2="8.1313992"
       y2="15.935893"
       id="linearGradient5038"
       xlink:href="#linearGradient3732-77"
       gradientUnits="userSpaceOnUse"
       gradientTransform="matrix(0.8666667,0,0,0.73333335,2.0666666,-16.066667)" />
    <linearGradient
       id="linearGradient3732-77">
      <stop
         id="stop3734-3"
         style="stop-color:#000000;stop-opacity:1"
         offset="0" />
      <stop
         id="stop3736-71"
         style="stop-color:#000000;stop-opacity:0"
         offset="1" />
    </linearGradient>
    <linearGradient
       x1="8.1313992"
       y1="19.049677"
       x2="8.1313992"
       y2="15.935893"
       id="linearGradient3794"
       xlink:href="#linearGradient3788"
       gradientUnits="userSpaceOnUse"
       gradientTransform="matrix(1.1333334,0,0,0.99999997,-0.06666673,-2.9999999)" />
    <linearGradient
       id="linearGradient3788">
      <stop
         id="stop3790"
         style="stop-color:#ffffff;stop-opacity:1"
         offset="0" />
      <stop
         id="stop3792"
         style="stop-color:#ffffff;stop-opacity:0"
         offset="1" />
    </linearGradient>
    <linearGradient
       x1="22.863201"
       y1="-0.94923496"
       x2="26.23391"
       y2="2.4214737"
       id="linearGradient6695"
       xlink:href="#linearGradient3587-6-5-1-5"
       gradientUnits="userSpaceOnUse"
       gradientTransform="rotate(45,4.0355353,-15.642136)" />
    <linearGradient
       id="linearGradient3587-6-5-1-5">
      <stop
         id="stop3589-9-2-8-5"
         style="stop-color:#000000;stop-opacity:1"
         offset="0" />
      <stop
         id="stop3591-7-4-3-0"
         style="stop-color:#646464;stop-opacity:1"
         offset="1" />
    </linearGradient>
    <linearGradient
       x1="19.490692"
       y1="-4.321744"
       x2="22.886868"
       y2="-0.92556846"
       id="linearGradient6693"
       xlink:href="#linearGradient3587-6-5-1-5"
       gradientUnits="userSpaceOnUse"
       gradientTransform="rotate(45,4.0355353,-15.642136)" />
    <linearGradient
       id="linearGradient3059">
      <stop
         id="stop3061"
         style="stop-color:#000000;stop-opacity:1"
         offset="0" />
      <stop
         id="stop3063"
         style="stop-color:#646464;stop-opacity:1"
         offset="1" />
    </linearGradient>
    <linearGradient
       x1="20.534313"
       y1="-4.3515615"
       x2="26.152533"
       y2="1.2666581"
       id="linearGradient6693-5"
       xlink:href="#linearGradient3587-6-5-1-5-2"
       gradientUnits="userSpaceOnUse"
       gradientTransform="rotate(45,4.0355353,-15.642136)" />
    <linearGradient
       id="linearGradient3587-6-5-1-5-2">
      <stop
         id="stop3589-9-2-8-5-0"
         style="stop-color:#000000;stop-opacity:1"
         offset="0" />
      <stop
         id="stop3591-7-4-3-0-1"
         style="stop-color:#646464;stop-opacity:1"
         offset="1" />
    </linearGradient>
    <linearGradient
       x1="19.490692"
       y1="-4.321744"
       x2="22.886868"
       y2="-0.92556846"
       id="linearGradient3054"
       xlink:href="#linearGradient3587-6-5-1-5-2"
       gradientUnits="userSpaceOnUse"
       gradientTransform="rotate(45,3.1568563,-28.006097)" />
    <linearGradient
       x1="20.534313"
       y1="-4.3515615"
       x2="26.152533"
       y2="1.2666581"
       id="linearGradient6693-5-4"
       xlink:href="#linearGradient3587-6-5-1-5-2-1"
       gradientUnits="userSpaceOnUse"
       gradientTransform="rotate(45,-6.6146827,-50.612924)" />
    <linearGradient
       id="linearGradient3587-6-5-1-5-2-1">
      <stop
         id="stop3589-9-2-8-5-0-2"
         style="stop-color:#000000;stop-opacity:1"
         offset="0" />
      <stop
         id="stop3591-7-4-3-0-1-4"
         style="stop-color:#646464;stop-opacity:1"
         offset="1" />
    </linearGradient>
    <linearGradient
       x1="8.1313992"
       y1="19.049677"
       x2="8.1313992"
       y2="15.935893"
       id="linearGradient5038-3"
       xlink:href="#linearGradient3732-77-1"
       gradientUnits="userSpaceOnUse"
       gradientTransform="matrix(0.8666667,0,0,0.73333335,-25.780791,-13.354803)" />
    <linearGradient
       id="linearGradient3732-77-1">
      <stop
         id="stop3734-3-1"
         style="stop-color:#000000;stop-opacity:1"
         offset="0" />
      <stop
         id="stop3736-71-8"
         style="stop-color:#000000;stop-opacity:0"
         offset="1" />
    </linearGradient>
    <linearGradient
       x1="8.1313992"
       y1="19.049677"
       x2="8.1313992"
       y2="15.935893"
       id="linearGradient3794-3"
       xlink:href="#linearGradient3788-3"
       gradientUnits="userSpaceOnUse"
       gradientTransform="matrix(1.1333334,0,0,0.99999997,-27.914124,-5.7118643)" />
    <linearGradient
       id="linearGradient3788-3">
      <stop
         id="stop3790-8"
         style="stop-color:#ffffff;stop-opacity:1"
         offset="0" />
      <stop
         id="stop3792-3"
         style="stop-color:#ffffff;stop-opacity:0"
         offset="1" />
    </linearGradient>
    <linearGradient
       inkscape:collect="always"
       xlink:href="#linearGradient3788-3"
       id="linearGradient3210"
       gradientUnits="userSpaceOnUse"
       gradientTransform="matrix(1.1333334,0,0,0.99999997,-27.914124,-5.7118643)"
       x1="8.1313992"
       y1="19.049677"
       x2="8.1313992"
       y2="15.935893" />
    <linearGradient
       inkscape:collect="always"
       xlink:href="#linearGradient3732-77-1"
       id="linearGradient3212"
       gradientUnits="userSpaceOnUse"
       gradientTransform="matrix(0.8666667,0,0,0.73333335,-25.780791,-13.354803)"
       x1="8.1313992"
       y1="19.049677"
       x2="8.1313992"
       y2="15.935893" />
    <linearGradient
       inkscape:collect="always"
       xlink:href="#linearGradient3587-6-5-1-5-2-1"
       id="linearGradient3214"
       gradientUnits="userSpaceOnUse"
       gradientTransform="rotate(45,-6.6146827,-50.612924)"
       x1="20.534313"
       y1="-4.3515615"
       x2="26.152533"
       y2="1.2666581" />
    <linearGradient
       id="linearGradient3587-6-5-1-5-2-7">
      <stop
         offset="0"
         style="stop-color:#000000;stop-opacity:1"
         id="stop3589-9-2-8-5-0-9" />
      <stop
         offset="1"
         style="stop-color:#646464;stop-opacity:1"
         id="stop3591-7-4-3-0-1-5" />
    </linearGradient>
    <linearGradient
       id="linearGradient3732-77-2"
       inkscape:collect="always">
      <stop
         id="stop3734-3-2"
         offset="0"
         style="stop-color:#000000;stop-opacity:1;" />
      <stop
         id="stop3736-71-0"
         offset="1"
         style="stop-color:#000000;stop-opacity:0;" />
    </linearGradient>
    <linearGradient
       inkscape:collect="always"
       id="linearGradient3788-8">
      <stop
         style="stop-color:#ffffff;stop-opacity:1;"
         offset="0"
         id="stop3790-7" />
      <stop
         style="stop-color:#ffffff;stop-opacity:0;"
         offset="1"
         id="stop3792-4" />
    </linearGradient>
    <linearGradient
       inkscape:collect="always"
       xlink:href="#linearGradient3788-8"
       id="linearGradient3298"
       gradientUnits="userSpaceOnUse"
       gradientTransform="matrix(1.1333334,0,0,0.99999997,-5.0666667,42)"
       x1="8.1313992"
       y1="19.049677"
       x2="8.1313992"
       y2="15.935893" />
    <linearGradient
       inkscape:collect="always"
       xlink:href="#linearGradient3732-77-2"
       id="linearGradient3300"
       gradientUnits="userSpaceOnUse"
       gradientTransform="matrix(0.8666667,0,0,0.73333335,-2.9333334,-61.066667)"
       x1="8.1313992"
       y1="19.049677"
       x2="8.1313992"
       y2="15.935893" />
    <linearGradient
       inkscape:collect="always"
       xlink:href="#linearGradient3587-6-5-1-5-2-7"
       id="linearGradient3302"
       gradientUnits="userSpaceOnUse"
       gradientTransform="rotate(45,-52.784269,0.82232777)"
       x1="20.534313"
       y1="-4.3515615"
       x2="26.152533"
       y2="1.2666581" />
    <linearGradient
       x1="20.534313"
       y1="-4.3515615"
       x2="26.152533"
       y2="1.2666581"
       id="linearGradient6693-5-9"
       xlink:href="#linearGradient3587-6-5-1-5-2-4"
       gradientUnits="userSpaceOnUse"
       gradientTransform="rotate(45,24.578427,37.367009)" />
    <linearGradient
       id="linearGradient3587-6-5-1-5-2-4">
      <stop
         id="stop3589-9-2-8-5-0-4"
         style="stop-color:#000000;stop-opacity:1"
         offset="0" />
      <stop
         id="stop3591-7-4-3-0-1-0"
         style="stop-color:#646464;stop-opacity:1"
         offset="1" />
    </linearGradient>
  </defs>
  <g
     id="g6456"
     transform="matrix(0.93750004,0,0,0.93750004,-90.075606,-554.40192)" />
  <g
     id="g6466"
     transform="matrix(0.93750004,0,0,0.93750004,-58.507469,-554.40192)" />
  <g
     id="active-center"
     transform="translate(-175.38811,3.0486683e-5)">
    <g
       id="g2515">
      <rect
         height="20.625002"
         ry="5.6253052"
         width="20.625002"
         x="0"
         y="0"
         id="rect4310-6-6"
         style="fill:#4a557c;fill-opacity:0.85;stroke-width:0.515625"
         rx="5.6250005" />
      <path
         inkscape:connector-curvature="0"
         d="m 13.125037,9.8437502 c 1.294429,0 2.343785,-1.049328 2.343785,-2.343774 0,-1.294397 -1.049356,-2.343726 -2.343785,-2.343726 -1.294424,0 -2.343785,1.049329 -2.343785,2.343726 0,1.294446 1.049361,2.343774 2.343785,2.343774"
         style="fill:#999999;fill-opacity:1;fill-rule:evenodd;stroke:none;stroke-width:0.00599276;enable-background:new"
         id="path16-6-3-62" />
      <path
         inkscape:connector-curvature="0"
         d="m 13.125081,15.468786 c 1.294432,0 2.343793,-1.049328 2.343793,-2.343774 0,-1.294397 -1.049361,-2.343726 -2.343793,-2.343726 -1.29442,0 -2.343783,1.049329 -2.343783,2.343726 0,1.294446 1.049363,2.343774 2.343783,2.343774"
         style="fill:#999999;fill-opacity:1;fill-rule:evenodd;stroke:none;stroke-width:0.00599276;enable-background:new"
         id="path16-6-3-6-91" />
      <path
         inkscape:connector-curvature="0"
         d="m 7.5000352,15.468751 c 1.294428,0 2.343791,-1.049327 2.343791,-2.343774 0,-1.294395 -1.049363,-2.343726 -2.343791,-2.343726 -1.294423,0 -2.343785,1.049331 -2.343785,2.343726 0,1.294447 1.049362,2.343774 2.343785,2.343774"
         style="fill:#999999;fill-opacity:1;fill-rule:evenodd;stroke:none;stroke-width:0.00599276;enable-background:new"
         id="path16-6-3-7-2" />
      <path
         inkscape:connector-curvature="0"
         d="m 7.5000782,9.8437502 c 1.294434,0 2.343788,-1.049331 2.343788,-2.343773 0,-1.294401 -1.049354,-2.343727 -2.343788,-2.343727 -1.294419,0 -2.343782,1.049326 -2.343782,2.343727 0,1.294442 1.049363,2.343773 2.343782,2.343773"
         style="fill:#ffffff;fill-opacity:1;fill-rule:evenodd;stroke:none;stroke-width:0.00599275;enable-background:new"
         id="path16-6-3-5-7" />
    </g>
  </g>
  <g
     id="hover-center"
     transform="translate(-141.63811,1.9042591e-5)">
    <rect
       height="20.625002"
       ry="5.6253052"
       width="20.625002"
       x="0"
       y="0"
       id="rect4310-6-6-7"
       style="fill:#0090b2;fill-opacity:1;stroke-width:0.515625"
       rx="5.6250005" />
    <path
       inkscape:connector-curvature="0"
       d="m 13.125037,9.8437502 c 1.294429,0 2.343785,-1.049328 2.343785,-2.343774 0,-1.294397 -1.049356,-2.343726 -2.343785,-2.343726 -1.294424,0 -2.343785,1.049329 -2.343785,2.343726 0,1.294446 1.049361,2.343774 2.343785,2.343774"
       style="fill:#ffffff;fill-opacity:0.6;fill-rule:evenodd;stroke:none;stroke-width:0.00599276;enable-background:new"
       id="path16-6-3-62-7" />
    <path
       inkscape:connector-curvature="0"
       d="m 13.125081,15.468786 c 1.294432,0 2.343793,-1.049328 2.343793,-2.343774 0,-1.294397 -1.049361,-2.343726 -2.343793,-2.343726 -1.29442,0 -2.343783,1.049329 -2.343783,2.343726 0,1.294446 1.049363,2.343774 2.343783,2.343774"
       style="fill:#ffffff;fill-opacity:0.6;fill-rule:evenodd;stroke:none;stroke-width:0.00599276;enable-background:new"
       id="path16-6-3-6-91-1" />
    <path
       inkscape:connector-curvature="0"
       d="m 7.5000352,15.468751 c 1.294428,0 2.343791,-1.049327 2.343791,-2.343774 0,-1.294395 -1.049363,-2.343726 -2.343791,-2.343726 -1.294423,0 -2.343785,1.049331 -2.343785,2.343726 0,1.294447 1.049362,2.343774 2.343785,2.343774"
       style="fill:#ffffff;fill-opacity:0.6;fill-rule:evenodd;stroke:none;stroke-width:0.00599276;enable-background:new"
       id="path16-6-3-7-2-1" />
    <path
       inkscape:connector-curvature="0"
       d="m 7.5000782,9.8437502 c 1.294434,0 2.343788,-1.049331 2.343788,-2.343773 0,-1.294401 -1.049354,-2.343727 -2.343788,-2.343727 -1.294419,0 -2.343782,1.049326 -2.343782,2.343727 0,1.294442 1.049363,2.343773 2.343782,2.343773"
       style="fill:#ffffff;fill-opacity:1;fill-rule:evenodd;stroke:none;stroke-width:0.00599275;enable-background:new"
       id="path16-6-3-5-7-5" />
  </g>
  <g
     id="pressed-center"
     transform="translate(-102.26311,3.0486683e-5)">
    <rect
       height="20.625002"
       ry="5.6253052"
       width="20.625002"
       x="0"
       y="0"
       id="rect4310-6-6-6"
       style="fill:#00b8e5;fill-opacity:1;stroke-width:0.515625"
       rx="5.6250005" />
    <path
       inkscape:connector-curvature="0"
       d="m 13.125037,9.8437502 c 1.294429,0 2.343785,-1.049328 2.343785,-2.343774 0,-1.294397 -1.049356,-2.343726 -2.343785,-2.343726 -1.294424,0 -2.343785,1.049329 -2.343785,2.343726 0,1.294446 1.049361,2.343774 2.343785,2.343774"
       style="fill:#ffffff;fill-opacity:1;fill-rule:evenodd;stroke:none;stroke-width:0.00599276;enable-background:new"
       id="path16-6-3-62-73" />
    <path
       inkscape:connector-curvature="0"
       d="m 13.125081,15.468786 c 1.294432,0 2.343793,-1.049328 2.343793,-2.343774 0,-1.294397 -1.049361,-2.343726 -2.343793,-2.343726 -1.29442,0 -2.343783,1.049329 -2.343783,2.343726 0,1.294446 1.049363,2.343774 2.343783,2.343774"
       style="fill:#ffffff;fill-opacity:1;fill-rule:evenodd;stroke:none;stroke-width:0.00599276;enable-background:new"
       id="path16-6-3-6-91-6" />
    <path
       inkscape:connector-curvature="0"
       d="m 7.5000352,15.468751 c 1.294428,0 2.343791,-1.049327 2.343791,-2.343774 0,-1.294395 -1.049363,-2.343726 -2.343791,-2.343726 -1.294423,0 -2.343785,1.049331 -2.343785,2.343726 0,1.294447 1.049362,2.343774 2.343785,2.343774"
       style="fill:#fdfdfd;fill-opacity:1;fill-rule:evenodd;stroke:none;stroke-width:0.00599276;enable-background:new"
       id="path16-6-3-7-2-5" />
    <path
       inkscape:connector-curvature="0"
       d="m 7.5000782,9.8437502 c 1.294434,0 2.343788,-1.049331 2.343788,-2.343773 0,-1.294401 -1.049354,-2.343727 -2.343788,-2.343727 -1.294419,0 -2.343782,1.049326 -2.343782,2.343727 0,1.294442 1.049363,2.343773 2.343782,2.343773"
       style="fill:#ffffff;fill-opacity:1;fill-rule:evenodd;stroke:none;stroke-width:0.00599275;enable-background:new"
       id="path16-6-3-5-7-6" />
  </g>
  <g
     id="inactive-center"
     transform="translate(-65.700609,3.0486683e-5)">
    <rect
       height="20.625002"
       ry="5.6253052"
       width="20.625002"
       x="0"
       y="0"
       id="rect4310-6-6-4"
       style="fill:#4c5880;fill-opacity:0.54901963;stroke-width:0.515625"
       rx="5.6250005" />
    <path
       inkscape:connector-curvature="0"
       d="m 13.125037,9.8437502 c 1.294429,0 2.343785,-1.049328 2.343785,-2.343774 0,-1.294397 -1.049356,-2.343726 -2.343785,-2.343726 -1.294424,0 -2.343785,1.049329 -2.343785,2.343726 0,1.294446 1.049361,2.343774 2.343785,2.343774"
       style="fill:#808080;fill-opacity:1;fill-rule:evenodd;stroke:none;stroke-width:0.00599276;enable-background:new"
       id="path16-6-3-62-8" />
    <path
       inkscape:connector-curvature="0"
       d="m 13.125081,15.468786 c 1.294432,0 2.343793,-1.049328 2.343793,-2.343774 0,-1.294397 -1.049361,-2.343726 -2.343793,-2.343726 -1.29442,0 -2.343783,1.049329 -2.343783,2.343726 0,1.294446 1.049363,2.343774 2.343783,2.343774"
       style="fill:#808080;fill-opacity:1;fill-rule:evenodd;stroke:none;stroke-width:0.00599276;enable-background:new"
       id="path16-6-3-6-91-12" />
    <path
       inkscape:connector-curvature="0"
       d="m 7.5000352,15.468751 c 1.294428,0 2.343791,-1.049327 2.343791,-2.343774 0,-1.294395 -1.049363,-2.343726 -2.343791,-2.343726 -1.294423,0 -2.343785,1.049331 -2.343785,2.343726 0,1.294447 1.049362,2.343774 2.343785,2.343774"
       style="fill:#808080;fill-opacity:1;fill-rule:evenodd;stroke:none;stroke-width:0.00599276;enable-background:new"
       id="path16-6-3-7-2-9" />
    <path
       inkscape:connector-curvature="0"
       d="m 7.5000782,9.8437502 c 1.294434,0 2.343788,-1.049331 2.343788,-2.343773 0,-1.294401 -1.049354,-2.343727 -2.343788,-2.343727 -1.294419,0 -2.343782,1.049326 -2.343782,2.343727 0,1.294442 1.049363,2.343773 2.343782,2.343773"
       style="fill:#d9d9d9;fill-opacity:1;fill-rule:evenodd;stroke:none;stroke-width:0.00599275;enable-background:new"
       id="path16-6-3-5-7-3" />
  </g>
  <g
     id="hover-inactive-center"
     transform="translate(-34.13247,3.0486683e-5)">
    <rect
       height="20.625002"
       ry="5.6253052"
       width="20.625002"
       x="0.025312521"
       y="0"
       id="rect4310-6-6-8"
       style="fill:#0090b2;fill-opacity:1;stroke-width:0.515625"
       rx="5.6250005" />
    <path
       inkscape:connector-curvature="0"
       d="m 13.15035,9.8437502 c 1.294429,0 2.343785,-1.049328 2.343785,-2.343774 0,-1.294397 -1.049356,-2.343726 -2.343785,-2.343726 -1.294424,0 -2.343785,1.049329 -2.343785,2.343726 0,1.294446 1.049361,2.343774 2.343785,2.343774"
       style="fill:#ffffff;fill-opacity:0.6;fill-rule:evenodd;stroke:none;stroke-width:0.00599276;enable-background:new"
       id="path16-6-3-62-5" />
    <path
       inkscape:connector-curvature="0"
       d="m 13.150394,15.468786 c 1.294432,0 2.343793,-1.049328 2.343793,-2.343774 0,-1.294397 -1.049361,-2.343726 -2.343793,-2.343726 -1.29442,0 -2.343783,1.049329 -2.343783,2.343726 0,1.294446 1.049363,2.343774 2.343783,2.343774"
       style="fill:#ffffff;fill-opacity:0.6;fill-rule:evenodd;stroke:none;stroke-width:0.00599276;enable-background:new"
       id="path16-6-3-6-91-0" />
    <path
       inkscape:connector-curvature="0"
       d="m 7.5253477,15.468751 c 1.294428,0 2.343791,-1.049327 2.343791,-2.343774 0,-1.294395 -1.049363,-2.343726 -2.343791,-2.343726 -1.294423,0 -2.343785,1.049331 -2.343785,2.343726 0,1.294447 1.049362,2.343774 2.343785,2.343774"
       style="fill:#ffffff;fill-opacity:0.6;fill-rule:evenodd;stroke:none;stroke-width:0.00599276;enable-background:new"
       id="path16-6-3-7-2-96" />
    <path
       inkscape:connector-curvature="0"
       d="m 7.5253907,9.8437502 c 1.294434,0 2.343788,-1.049331 2.343788,-2.343773 0,-1.294401 -1.049354,-2.343727 -2.343788,-2.343727 -1.294419,0 -2.343782,1.049326 -2.343782,2.343727 0,1.294442 1.049363,2.343773 2.343782,2.343773"
       style="fill:#ffffff;fill-opacity:1;fill-rule:evenodd;stroke:none;stroke-width:0.00599275;enable-background:new"
       id="path16-6-3-5-7-38" />
  </g>
  <g
     id="pressed-inactive-center">
    <rect
       height="20.625002"
       ry="5.6253052"
       width="20.625002"
       x="0"
       y="0"
       id="rect4310-6-6-1"
       style="fill:#00b8e5;fill-opacity:1;stroke-width:0.515625"
       rx="5.6250005" />
    <path
       inkscape:connector-curvature="0"
       d="m 13.125037,9.8437502 c 1.294429,0 2.343785,-1.049328 2.343785,-2.343774 0,-1.294397 -1.049356,-2.343726 -2.343785,-2.343726 -1.294424,0 -2.343785,1.049329 -2.343785,2.343726 0,1.294446 1.049361,2.343774 2.343785,2.343774"
       style="fill:#fdfdfd;fill-opacity:1;fill-rule:evenodd;stroke:none;stroke-width:0.00599276;enable-background:new"
       id="path16-6-3-62-1" />
    <path
       inkscape:connector-curvature="0"
       d="m 13.125081,15.468786 c 1.294432,0 2.343793,-1.049328 2.343793,-2.343774 0,-1.294397 -1.049361,-2.343726 -2.343793,-2.343726 -1.29442,0 -2.343783,1.049329 -2.343783,2.343726 0,1.294446 1.049363,2.343774 2.343783,2.343774"
       style="fill:#f9f9f9;fill-opacity:1;fill-rule:evenodd;stroke:none;stroke-width:0.00599276;enable-background:new"
       id="path16-6-3-6-91-5" />
    <path
       inkscape:connector-curvature="0"
       d="m 7.5000352,15.468751 c 1.294428,0 2.343791,-1.049327 2.343791,-2.343774 0,-1.294395 -1.049363,-2.343726 -2.343791,-2.343726 -1.294423,0 -2.343785,1.049331 -2.343785,2.343726 0,1.294447 1.049362,2.343774 2.343785,2.343774"
       style="fill:#fafafa;fill-opacity:1;fill-rule:evenodd;stroke:none;stroke-width:0.00599276;enable-background:new"
       id="path16-6-3-7-2-98" />
    <path
       inkscape:connector-curvature="0"
       d="m 7.5000782,9.8437502 c 1.294434,0 2.343788,-1.049331 2.343788,-2.343773 0,-1.294401 -1.049354,-2.343727 -2.343788,-2.343727 -1.294419,0 -2.343782,1.049326 -2.343782,2.343727 0,1.294442 1.049363,2.343773 2.343782,2.343773"
       style="fill:#ffffff;fill-opacity:1;fill-rule:evenodd;stroke:none;stroke-width:0.00599275;enable-background:new"
       id="path16-6-3-5-7-4" />
  </g>
</svg>
