<?xml version="1.0" encoding="UTF-8" standalone="no"?>
<svg
   width="22"
   height="22"
   id="svg4428"
   version="1.1"
   inkscape:version="1.2.2 (b0a8486541, 2022-12-01)"
   sodipodi:docname="close.svg"
   xmlns:inkscape="http://www.inkscape.org/namespaces/inkscape"
   xmlns:sodipodi="http://sodipodi.sourceforge.net/DTD/sodipodi-0.dtd"
   xmlns="http://www.w3.org/2000/svg"
   xmlns:svg="http://www.w3.org/2000/svg">
  <defs
     id="defs3">
    <style
       id="current-color-scheme"
       type="text/css">.ColorScheme-Text {
        color:#e0e0e0;
        stop-color:#e0e0e0;
      }
      .ColorScheme-Background {
        color:#2c2c2c;
        stop-color:#2c2c2c;
      }
      .ColorScheme-HeaderBackground {
        color:#242424;
        stop-color:#242424;
      }
      .ColorScheme-Highlight {
        color:#e0e0e0;
        stop-color:#e0e0e0;
      }</style>
  </defs>
  <sodipodi:namedview
     id="base"
     pagecolor="#333333"
     bordercolor="#000000"
     borderopacity="1"
     inkscape:pageopacity="1"
     inkscape:pageshadow="2"
     inkscape:zoom="3.0598356"
     inkscape:cx="-239.06513"
     inkscape:cy="54.904911"
     inkscape:document-units="px"
     inkscape:current-layer="layer1"
     showgrid="true"
     inkscape:snap-bbox="true"
     inkscape:window-width="1920"
     inkscape:window-height="994"
     inkscape:window-x="0"
     inkscape:window-y="0"
     inkscape:window-maximized="1"
     showborder="true"
     inkscape:showpageshadow="true"
     inkscape:snap-nodes="false"
     inkscape:bbox-nodes="true"
     inkscape:snap-bbox-edge-midpoints="false"
     inkscape:snap-global="true"
     inkscape:pagecheckerboard="true"
     inkscape:deskcolor="#404040">
    <inkscape:grid
       type="xygrid"
       id="grid4436"
       empspacing="5"
       visible="true"
       enabled="true"
       snapvisiblegridlinesonly="true"
       originx="-152.08064"
       originy="-0.99948817"
       spacingx="1"
       spacingy="1" />
  </sodipodi:namedview>
  <g
     inkscape:label="Layer 1"
     inkscape:groupmode="layer"
     id="layer1"
     transform="translate(-152.08064,-1099.5197)">
    <g
       id="use1845"
       transform="translate(17,508.15764)" />
    <g
       id="g6456"
       transform="translate(56,508.15764)" />
    <g
       id="g6466"
       transform="translate(89.672677,508.15764)" />
    <g
       id="active-center">
      <rect
         height="22"
         ry="6.0003252"
         width="22"
         x="-35"
         y="1099.5197"
         id="rect4310-6-6"
         style="fill:#bbbfc3;fill-opacity:1;stroke-width:0.55"
         rx="6" />
      <path
         d="m -24,1109.3028 4.282462,-4.2831 1.217593,1.231 -4.268605,4.2689 4.268605,4.2831 -1.217593,1.217 -4.282462,-4.2689 -4.268617,4.2689 -1.231328,-1.217 4.282465,-4.2831 -4.282465,-4.2689 1.231328,-1.231 z"
         fill-rule="evenodd"
         id="path2252-36"
         style="fill:#171b27;fill-opacity:1;stroke-width:0.020694" />
    </g>
    <g
       id="hover-center">
      <rect
         height="22"
         ry="6.0003252"
         width="22"
         x="1"
         y="1099.5197"
         id="rect4310-6-6-3"
         style="fill:#bb445a;fill-opacity:1;stroke-width:0.55"
         rx="6" />
      <path
         d="m 12,1109.3026 4.282462,-4.2831 1.217593,1.231 -4.268605,4.2689 4.268605,4.2831 -1.217593,1.217 L 12,1111.7506 l -4.2686169,4.2689 -1.231328,-1.217 4.2824649,-4.2831 -4.2824649,-4.2689 1.231328,-1.231 z"
         fill-rule="evenodd"
         id="path2252-36-6"
         style="fill:#ffffff;fill-opacity:1;stroke-width:0.020694" />
    </g>
    <g
       id="pressed-center">
      <rect
         height="22"
         ry="6.0003252"
         width="22"
         x="43"
         y="1099.5197"
         id="rect4310-6-6-7"
         style="fill:#c66c79;fill-opacity:1;stroke-width:0.55"
         rx="6" />
      <path
         d="m 54.000024,1109.3028 4.282461,-4.2831 1.217593,1.231 -4.268605,4.2689 4.268605,4.2831 -1.217593,1.217 -4.282461,-4.2689 -4.268618,4.2689 -1.231328,-1.217 4.282465,-4.2831 -4.282465,-4.2689 1.231328,-1.231 z"
         fill-rule="evenodd"
         id="path2252-36-5"
         style="fill:#ffffff;fill-opacity:1;stroke-width:0.020694" />
    </g>
    <g
       id="inactive-center">
      <rect
         height="22"
         ry="6.0003252"
         width="22"
         x="82"
         y="1099.5197"
         id="rect4310-6-6-35"
         style="fill:#bbbfc3;fill-opacity:0.75;stroke-width:0.55"
         rx="6" />
      <path
         d="m 92.999979,1109.303 4.28246,-4.2831 1.21759,1.231 -4.2686,4.2689 4.2686,4.2831 -1.21759,1.217 -4.28246,-4.2689 -4.26862,4.2689 -1.23132,-1.217 4.28246,-4.2831 -4.28246,-4.2689 1.23132,-1.231 z"
         fill-rule="evenodd"
         id="path2252-36-62"
         style="fill:#ffffff;fill-opacity:1;stroke-width:0.020694" />
    </g>
    <g
       id="hover-inactive-center">
      <rect
         height="22"
         ry="6.0003252"
         width="22"
         x="115.67268"
         y="1099.5887"
         id="rect4310-6-6-9"
         style="fill:#bb445a;fill-opacity:1;stroke-width:0.55"
         rx="6" />
      <path
         d="m 126.67271,1109.3714 4.28246,-4.2831 1.21759,1.231 -4.2686,4.2689 4.2686,4.2831 -1.21759,1.217 -4.28246,-4.2689 -4.26862,4.2689 -1.23133,-1.217 4.28247,-4.2831 -4.28247,-4.2689 1.23133,-1.231 z"
         fill-rule="evenodd"
         id="path2252-36-1"
         style="fill:#ffffff;fill-opacity:1;stroke-width:0.020694" />
    </g>
    <g
       id="pressed-inactive-center">
      <rect
         height="22"
         ry="6.0003252"
         width="22"
         x="152.16861"
         y="1099.5197"
         id="rect4310-6-6-2"
         style="fill:#c66c79;fill-opacity:1;stroke-width:0.55"
         rx="6" />
      <path
         d="m 163.16864,1109.3032 4.28246,-4.2831 1.21759,1.231 -4.2686,4.2689 4.2686,4.2831 -1.21759,1.217 -4.28246,-4.2689 -4.26862,4.2689 -1.23133,-1.217 4.28247,-4.2831 -4.28247,-4.2689 1.23133,-1.231 z"
         fill-rule="evenodd"
         id="path2252-36-7"
         style="fill:#ffffff;fill-opacity:1;stroke-width:0.020694" />
    </g>
  </g>
</svg>
