<?xml version="1.0" encoding="UTF-8" standalone="no"?>
<svg
   width="22"
   height="22"
   id="svg4428"
   version="1.1"
   inkscape:version="1.3.2 (091e20ef0f, 2023-11-25)"
   sodipodi:docname="maximize.svg"
   xmlns:inkscape="http://www.inkscape.org/namespaces/inkscape"
   xmlns:sodipodi="http://sodipodi.sourceforge.net/DTD/sodipodi-0.dtd"
   xmlns="http://www.w3.org/2000/svg"
   xmlns:svg="http://www.w3.org/2000/svg">
  <defs
     id="defs3">
    <style
       id="current-color-scheme"
       type="text/css">.ColorScheme-Text {
        color:#e0e0e0;
        stop-color:#e0e0e0;
      }
      .ColorScheme-Background {
        color:#2c2c2c;
        stop-color:#2c2c2c;
      }
      .ColorScheme-HeaderBackground {
        color:#242424;
        stop-color:#242424;
      }
      .ColorScheme-Highlight {
        color:#e0e0e0;
        stop-color:#e0e0e0;
      }</style>
  </defs>
  <sodipodi:namedview
     id="base"
     pagecolor="#333333"
     bordercolor="#000000"
     borderopacity="1"
     inkscape:pageopacity="0"
     inkscape:pageshadow="2"
     inkscape:zoom="3.266542"
     inkscape:cx="-87.860496"
     inkscape:cy="42.552644"
     inkscape:document-units="px"
     inkscape:current-layer="layer1"
     showgrid="true"
     inkscape:snap-bbox="true"
     inkscape:window-width="1920"
     inkscape:window-height="994"
     inkscape:window-x="0"
     inkscape:window-y="0"
     inkscape:window-maximized="1"
     showborder="true"
     inkscape:showpageshadow="true"
     inkscape:pagecheckerboard="true"
     inkscape:deskcolor="#333333">
    <inkscape:grid
       type="xygrid"
       id="grid1495"
       originx="-180"
       originy="0.00037343751"
       spacingy="1"
       spacingx="1"
       units="px"
       visible="true" />
  </sodipodi:namedview>
  <g
     inkscape:label="Layer 1"
     inkscape:groupmode="layer"
     id="layer1"
     transform="translate(-145,-1099.5197)">
    <g
       id="use1853-7"
       transform="translate(16,505.15761)" />
    <g
       id="active-center">
      <rect
         height="22"
         ry="6.0003252"
         width="22"
         x="-35"
         y="1099.5197"
         id="rect4310-6-6"
         style="fill:#bbbfc3;fill-opacity:1;stroke-width:0.55"
         rx="6" />
      <path
         d="m -27,1104.5197 c -1.662,0 -3,1.339 -3,3 v 6 c 0,1.661 1.33801,3 3,3 h 6 c 1.662,0 3,-1.339 3,-3 v -6 c 0,-1.661 -1.33801,-3 -3,-3 z m 0,1.5 h 6 c 0.831,0 1.5,0.6697 1.5,1.5 v 6 c 0,0.8304 -0.669024,1.5 -1.5,1.5 h -6 c -0.83096,0 -1.49999,-0.6696 -1.49999,-1.5 v -6 c 0,-0.8303 0.66903,-1.5 1.49999,-1.5 z"
         style="fill:#171b27;fill-opacity:1;stroke-width:1.5;paint-order:stroke fill markers"
         id="path1596-7" />
      <rect
         height="4"
         ry="0.90833372"
         width="4"
         x="-25.999996"
         y="1108.5189"
         id="rect4310-6-6-3-5"
         style="fill:#171b27;fill-opacity:1;stroke-width:0.1"
         rx="0.90000027" />
    </g>
    <g
       id="hover-center">
      <rect
         height="22"
         ry="6.0003252"
         width="22"
         x="-1.5000095"
         y="1099.5197"
         id="rect4310-6-6-3"
         style="fill:#008080;fill-opacity:1;stroke-width:0.55"
         rx="6" />
      <path
         d="m 6.4999898,1104.52 c -1.662,0 -3,1.339 -3,3 v 6 c 0,1.661 1.33801,3 3,3 H 12.49999 c 1.662,0 3,-1.339 3,-3 v -6 c 0,-1.661 -1.33801,-3 -3,-3 z m 0,1.5 H 12.49999 c 0.831,0 1.5,0.6697 1.5,1.5 v 6 c 0,0.8304 -0.669024,1.5 -1.5,1.5 H 6.4999898 c -0.83096,0 -1.49999,-0.6696 -1.49999,-1.5 v -6 c 0,-0.8303 0.66903,-1.5 1.49999,-1.5 z"
         style="fill:#ffffff;fill-opacity:1;stroke-width:1.5;paint-order:stroke fill markers"
         id="path1596-7-6" />
    </g>
    <g
       id="pressed-center">
      <rect
         height="22"
         ry="6.0003252"
         width="22"
         x="35"
         y="1099.5195"
         id="rect4310-6-6-5"
         style="fill:#00b2b2;fill-opacity:1;stroke-width:0.55"
         rx="6" />
      <path
         d="m 43.00001,1104.5197 c -1.662,0 -3,1.339 -3,3 v 6 c 0,1.661 1.33801,3 3,3 h 6 c 1.662,0 3,-1.339 3,-3 v -6 c 0,-1.661 -1.33801,-3 -3,-3 z m 0,1.5 h 6 c 0.831,0 1.5,0.6697 1.5,1.5 v 6 c 0,0.8304 -0.669024,1.5 -1.5,1.5 h -6 c -0.83096,0 -1.49999,-0.6696 -1.49999,-1.5 v -6 c 0,-0.8303 0.66903,-1.5 1.49999,-1.5 z"
         style="fill:#ffffff;fill-opacity:1;stroke-width:1.5;paint-order:stroke fill markers"
         id="path1596-7-3" />
    </g>
    <g
       id="inactive-center">
      <rect
         height="22"
         ry="6.0003252"
         width="22"
         x="75"
         y="1099.5197"
         id="rect4310-6-6-6"
         style="fill:#bbbfc3;fill-opacity:0.75;stroke-width:0.55"
         rx="6" />
      <path
         d="m 83.000044,1104.5195 c -1.662,0 -3,1.339 -3,3 v 6 c 0,1.661 1.33801,3 3,3 h 6 c 1.662,0 3,-1.339 3,-3 v -6 c 0,-1.661 -1.33801,-3 -3,-3 z m 0,1.5 h 6 c 0.831,0 1.5,0.6697 1.5,1.5 v 6 c 0,0.8304 -0.66902,1.5 -1.5,1.5 h -6 c -0.83096,0 -1.49999,-0.6696 -1.49999,-1.5 v -6 c 0,-0.8303 0.66903,-1.5 1.49999,-1.5 z"
         style="fill:#ffffff;fill-opacity:1;stroke-width:1.5;paint-order:stroke fill markers"
         id="path1596-7-2" />
      <rect
         height="4"
         ry="0.90833372"
         width="4"
         x="84"
         y="1108.5189"
         id="rect4310-6-6-3-5-9"
         style="fill:#ffffff;fill-opacity:1;stroke-width:0.1"
         rx="0.90000027" />
    </g>
    <g
       id="hover-inactive-center">
      <rect
         height="22"
         ry="6.0003252"
         width="22"
         x="111"
         y="1099.7197"
         id="rect4310-6-6-1"
         style="fill:#008080;fill-opacity:1;stroke-width:0.55"
         rx="6" />
      <path
         d="m 119,1104.72 c -1.662,0 -3,1.339 -3,3 v 6 c 0,1.661 1.33801,3 3,3 h 6 c 1.662,0 3,-1.339 3,-3 v -6 c 0,-1.661 -1.33801,-3 -3,-3 z m 0,1.5 h 6 c 0.831,0 1.5,0.6697 1.5,1.5 v 6 c 0,0.8304 -0.66902,1.5 -1.5,1.5 h -6 c -0.83096,0 -1.49999,-0.6696 -1.49999,-1.5 v -6 c 0,-0.8303 0.66903,-1.5 1.49999,-1.5 z"
         style="fill:#ffffff;fill-opacity:1;stroke-width:1.5;paint-order:stroke fill markers"
         id="path1596-7-27" />
    </g>
    <g
       id="pressed-inactive-center">
      <g
         id="g2082">
        <rect
           height="22"
           ry="6.0003252"
           width="22"
           x="145"
           y="1099.5197"
           id="rect4310-6-6-9"
           style="fill:#00b2b2;fill-opacity:1;stroke-width:0.55"
           rx="6" />
        <path
           d="m 152.99995,1104.52 c -1.662,0 -3,1.339 -3,3 v 6 c 0,1.661 1.33801,3 3,3 h 6 c 1.662,0 3,-1.339 3,-3 v -6 c 0,-1.661 -1.33801,-3 -3,-3 z m 0,1.5 h 6 c 0.831,0 1.5,0.6697 1.5,1.5 v 6 c 0,0.8304 -0.66902,1.5 -1.5,1.5 h -6 c -0.83096,0 -1.49999,-0.6696 -1.49999,-1.5 v -6 c 0,-0.8303 0.66903,-1.5 1.49999,-1.5 z"
           style="fill:#ffffff;fill-opacity:1;stroke-width:1.5;paint-order:stroke fill markers"
           id="path1596-7-36" />
      </g>
    </g>
  </g>
</svg>
