<?xml version="1.0" encoding="UTF-8" standalone="no"?>
<svg
   width="22"
   height="22"
   id="svg4428"
   version="1.1"
   inkscape:version="1.2.2 (b0a8486541, 2022-12-01)"
   sodipodi:docname="minimize.svg"
   xmlns:inkscape="http://www.inkscape.org/namespaces/inkscape"
   xmlns:sodipodi="http://sodipodi.sourceforge.net/DTD/sodipodi-0.dtd"
   xmlns="http://www.w3.org/2000/svg"
   xmlns:svg="http://www.w3.org/2000/svg">
  <defs
     id="defs4430" />
  <sodipodi:namedview
     id="base"
     pagecolor="#333333"
     bordercolor="#000000"
     borderopacity="1"
     inkscape:pageopacity="1"
     inkscape:pageshadow="2"
     inkscape:zoom="4.0703125"
     inkscape:cx="-138.93282"
     inkscape:cy="16.460653"
     inkscape:document-units="px"
     inkscape:current-layer="layer1"
     showgrid="true"
     inkscape:snap-bbox="true"
     inkscape:window-width="1920"
     inkscape:window-height="994"
     inkscape:window-x="0"
     inkscape:window-y="0"
     inkscape:window-maximized="1"
     showborder="true"
     inkscape:showpageshadow="true"
     inkscape:pagecheckerboard="true"
     inkscape:deskcolor="#3f3f3f">
    <inkscape:grid
       type="xygrid"
       id="grid1523"
       originx="-172.5"
       originy="0.00023593751" />
  </sodipodi:namedview>
  <defs
     id="defs3">
    <style
       id="current-color-scheme"
       type="text/css">.ColorScheme-Text {
        color:#e0e0e0;
        stop-color:#e0e0e0;
      }
      .ColorScheme-Background {
        color:#2c2c2c;
        stop-color:#2c2c2c;
      }
      .ColorScheme-HeaderBackground {
        color:#242424;
        stop-color:#242424;
      }
      .ColorScheme-Highlight {
        color:#e0e0e0;
        stop-color:#e0e0e0;
      }</style>
  </defs>
  <g
     inkscape:label="Layer 1"
     inkscape:groupmode="layer"
     id="layer1"
     transform="translate(-142.5,-1099.5197)">
    <g
       id="use1861-5"
       transform="translate(15,506.15761)" />
    <g
       id="active-center">
      <rect
         height="22"
         ry="6.0003252"
         width="22"
         x="-29.999996"
         y="1099.5198"
         id="rect4310-6-6"
         style="fill:#bbbfc3;fill-opacity:1;stroke-width:0.55"
         rx="6" />
      <path
         d="m -19.500013,1109.5197 -0.999987,10e-5 h -4 v 2 h 4 l 0.999987,3e-4 h 0.999998 l 1.000015,-3e-4 h 4 v -2 h -4 l -1.000015,-10e-5 z"
         id="path67-3-3"
         style="fill:#171b27;fill-opacity:1;stroke-width:0.0272368"
         sodipodi:nodetypes="ccccccccccccc" />
    </g>
    <g
       id="hover-center">
      <rect
         height="22"
         ry="6.0003252"
         width="22"
         x="1"
         y="1099.5197"
         id="rect4310-6-6-2"
         style="fill:#d99d26;fill-opacity:1;stroke-width:0.55"
         rx="6" />
      <path
         d="m 11.499982,1109.5192 -0.999987,10e-5 H 6.4999956 v 2 h 3.9999994 l 0.999987,3e-4 h 0.999998 l 1.000015,-3e-4 h 4 v -2 h -4 l -1.000015,-10e-5 z"
         id="path67-3-3-6"
         style="fill:#ffffff;fill-opacity:1;stroke-width:0.0272368"
         sodipodi:nodetypes="ccccccccccccc" />
    </g>
    <g
       id="pressed-center">
      <rect
         height="22"
         ry="6.0003252"
         width="22"
         x="38.000004"
         y="1099.5199"
         id="rect4310-6-6-1"
         style="fill:#e3ba68;fill-opacity:1;stroke-width:0.55"
         rx="6" />
      <path
         d="m 48.499983,1109.5202 -0.999987,10e-5 h -4 v 2 h 4 l 0.999987,3e-4 h 0.999998 l 1.000015,-3e-4 h 4 v -2 h -4 l -1.000015,-10e-5 z"
         id="path67-3-3-8"
         style="fill:#ffffff;fill-opacity:1;stroke-width:0.0272368"
         sodipodi:nodetypes="ccccccccccccc" />
    </g>
    <g
       id="inactive-center">
      <rect
         height="22"
         ry="6.0003252"
         width="22"
         x="75"
         y="1099.5199"
         id="rect4310-6-6-7"
         style="fill:#bbbfc3;fill-opacity:0.75;stroke-width:0.55"
         rx="6" />
      <path
         d="m 85.500009,1109.5198 -0.99999,10e-5 h -4 v 2 h 4 l 0.99999,3e-4 h 1 l 1.00001,-3e-4 h 4 v -2 h -4 l -1.00001,-10e-5 z"
         id="path67-3-3-9"
         style="fill:#ffffff;fill-opacity:1;stroke-width:0.0272368"
         sodipodi:nodetypes="ccccccccccccc" />
    </g>
    <g
       id="pressed-inactive-center">
      <rect
         height="22"
         ry="6.0003252"
         width="22"
         x="142.5"
         y="1099.5199"
         id="rect4310-6-6-20"
         style="fill:#e3ba68;fill-opacity:1;stroke-width:0.55"
         rx="6" />
      <path
         d="M 152.99999,1109.5198 152,1109.5199 h -4 v 2 h 4 l 0.99999,3e-4 h 1 l 1.00001,-3e-4 h 4 v -2 h -4 l -1.00001,-10e-5 z"
         id="path67-3-3-2"
         style="fill:#ffffff;fill-opacity:1;stroke-width:0.0272368"
         sodipodi:nodetypes="ccccccccccccc" />
    </g>
    <g
       id="hover-inactive-center">
      <rect
         height="22"
         ry="6.0003252"
         width="22"
         x="109"
         y="1099.5199"
         id="rect4310-6-6-3"
         style="fill:#d99d26;fill-opacity:1;stroke-width:0.55"
         rx="6" />
      <path
         d="m 119.49999,1109.5198 -0.99999,10e-5 h -4 v 2 h 4 l 0.99999,3e-4 h 0.99999 l 1.00002,-3e-4 h 4 v -2 h -4 l -1.00002,-10e-5 z"
         id="path67-3-3-7"
         style="fill:#ffffff;fill-opacity:1;stroke-width:0.0272368"
         sodipodi:nodetypes="ccccccccccccc" />
    </g>
  </g>
</svg>
