<?xml version="1.0" encoding="UTF-8" standalone="no"?>
<svg
   width="22"
   height="22"
   id="svg4428"
   version="1.1"
   inkscape:version="1.2.2 (b0a8486541, 2022-12-01)"
   sodipodi:docname="restore.svg"
   xmlns:inkscape="http://www.inkscape.org/namespaces/inkscape"
   xmlns:sodipodi="http://sodipodi.sourceforge.net/DTD/sodipodi-0.dtd"
   xmlns="http://www.w3.org/2000/svg"
   xmlns:svg="http://www.w3.org/2000/svg">
  <defs
     id="defs4430" />
  <sodipodi:namedview
     id="base"
     pagecolor="#333333"
     bordercolor="#000000"
     borderopacity="1"
     inkscape:pageopacity="1"
     inkscape:pageshadow="2"
     inkscape:zoom="4.0703124"
     inkscape:cx="-81.689062"
     inkscape:cy="24.81382"
     inkscape:document-units="px"
     inkscape:current-layer="layer1"
     showgrid="true"
     inkscape:snap-bbox="true"
     inkscape:window-width="1920"
     inkscape:window-height="994"
     inkscape:window-x="0"
     inkscape:window-y="0"
     inkscape:window-maximized="1"
     showborder="true"
     inkscape:showpageshadow="true"
     inkscape:pagecheckerboard="true"
     inkscape:deskcolor="#434343">
    <inkscape:grid
       type="xygrid"
       id="grid4436"
       empspacing="5"
       visible="true"
       enabled="true"
       snapvisiblegridlinesonly="true"
       originx="-141"
       originy="-0.99959359"
       spacingx="1"
       spacingy="1" />
  </sodipodi:namedview>
  <defs
     id="defs3">
    <style
       id="current-color-scheme"
       type="text/css">.ColorScheme-Text {
        color:#e0e0e0;
        stop-color:#e0e0e0;
      }
      .ColorScheme-Background {
        color:#2c2c2c;
        stop-color:#2c2c2c;
      }
      .ColorScheme-HeaderBackground {
        color:#242424;
        stop-color:#242424;
      }
      .ColorScheme-Highlight {
        color:#e0e0e0;
        stop-color:#e0e0e0;
      }</style>
  </defs>
  <g
     inkscape:label="Layer 1"
     inkscape:groupmode="layer"
     id="layer1"
     transform="translate(-141,-1099.5195)">
    <g
       id="active-center">
      <rect
         height="22"
         ry="6.0003252"
         width="22"
         x="-35.000008"
         y="1099.5197"
         id="rect4310-6-6"
         style="fill:#4c5880;fill-opacity:0.8509804;stroke-width:0.55"
         rx="6" />
      <path
         d="m -27,1104.5197 c -1.662,0 -3,1.339 -3,3 v 6 c 0,1.661 1.33801,3 3,3 h 6 c 1.662,0 3,-1.339 3,-3 v -6 c 0,-1.661 -1.33801,-3 -3,-3 z m 0,1.5 h 6 c 0.831,0 1.5,0.6697 1.5,1.5 v 6 c 0,0.8304 -0.669024,1.5 -1.5,1.5 h -6 c -0.83096,0 -1.49999,-0.6696 -1.49999,-1.5 v -6 c 0,-0.8303 0.66903,-1.5 1.49999,-1.5 z"
         style="fill:#ffffff;fill-opacity:1;stroke-width:1.5;paint-order:stroke fill markers"
         id="path1596-0-9" />
    </g>
    <g
       id="inactive-center">
      <rect
         height="22"
         ry="6.0003252"
         width="22"
         x="75"
         y="1099.5197"
         id="rect4310-6-6-9"
         style="fill:#4c5880;fill-opacity:0.54902;stroke-width:0.55"
         rx="6" />
      <path
         d="m 83.000023,1104.5202 c -1.662,0 -3,1.339 -3,3 v 6 c 0,1.661 1.33801,3 3,3 h 6 c 1.662,0 3,-1.339 3,-3 v -6 c 0,-1.661 -1.33801,-3 -3,-3 z m 0,1.5 h 6 c 0.831,0 1.5,0.6697 1.5,1.5 v 6 c 0,0.8304 -0.669024,1.5 -1.5,1.5 h -6 c -0.83096,0 -1.49999,-0.6696 -1.49999,-1.5 v -6 c 0,-0.8303 0.66903,-1.5 1.49999,-1.5 z"
         style="fill:#b2b2b2;fill-opacity:1;stroke-width:1.5;paint-order:stroke fill markers"
         id="path1596-0-9-4" />
    </g>
    <g
       id="hover-center">
      <rect
         height="22"
         ry="6.0003252"
         width="22"
         x="2"
         y="1099.5199"
         id="rect4310-6-6-3"
         style="fill:#159e79;fill-opacity:1;stroke-width:0.55"
         rx="6" />
      <path
         d="m 10.000008,1104.5202 c -1.6620006,0 -3.0000006,1.339 -3.0000006,3 v 6 c 0,1.661 1.33801,3 3.0000006,3 h 6 c 1.662,0 3,-1.339 3,-3 v -6 c 0,-1.661 -1.33801,-3 -3,-3 z m 0,1.5 h 6 c 0.831,0 1.5,0.6697 1.5,1.5 v 6 c 0,0.8304 -0.669024,1.5 -1.5,1.5 h -6 c -0.8309606,0 -1.4999906,-0.6696 -1.4999906,-1.5 v -6 c 0,-0.8303 0.66903,-1.5 1.4999906,-1.5 z"
         style="fill:#ffffff;fill-opacity:1;stroke-width:1.5;paint-order:stroke fill markers"
         id="path1596-0-9-1" />
      <rect
         height="4"
         ry="0.90833372"
         width="4"
         x="11"
         y="1108.5199"
         id="rect4310-6-6-3-7-6"
         style="fill:#ffffff;fill-opacity:1;stroke-width:0.1"
         rx="0.90000027" />
    </g>
    <g
       id="pressed-center">
      <rect
         height="22"
         ry="6.0003252"
         width="22"
         x="37"
         y="1099.5201"
         id="rect4310-6-6-3-1"
         style="fill:#1ab288;fill-opacity:1;stroke-width:0.55"
         rx="6" />
      <path
         d="m 44.999998,1104.5201 c -1.662001,0 -3.000001,1.339 -3.000001,3 v 6 c 0,1.661 1.33801,3 3.000001,3 h 6 c 1.662,0 3,-1.339 3,-3 v -6 c 0,-1.661 -1.33801,-3 -3,-3 z m 0,1.5 h 6 c 0.831,0 1.5,0.6697 1.5,1.5 v 6 c 0,0.8304 -0.669024,1.5 -1.5,1.5 h -6 c -0.830961,0 -1.499991,-0.6696 -1.499991,-1.5 v -6 c 0,-0.8303 0.66903,-1.5 1.499991,-1.5 z"
         style="fill:#ffffff;fill-opacity:1;stroke-width:1.5;paint-order:stroke fill markers"
         id="path1596-0-9-1-0" />
      <rect
         height="4"
         ry="0.90833372"
         width="4"
         x="46"
         y="1108.5201"
         id="rect4310-6-6-3-7-6-6"
         style="fill:#ffffff;fill-opacity:1;stroke-width:0.1"
         rx="0.90000027" />
    </g>
    <g
       id="hover-inactive-center">
      <rect
         height="22"
         ry="6.0003252"
         width="22"
         x="107"
         y="1099.5197"
         id="rect4310-6-6-3-3"
         style="fill:#159e79;fill-opacity:1;stroke-width:0.55"
         rx="6" />
      <path
         d="m 115.00001,1104.5199 c -1.662,0 -3,1.339 -3,3 v 6 c 0,1.661 1.33801,3 3,3 h 6 c 1.662,0 3,-1.339 3,-3 v -6 c 0,-1.661 -1.33801,-3 -3,-3 z m 0,1.5 h 6 c 0.831,0 1.5,0.6697 1.5,1.5 v 6 c 0,0.8304 -0.66903,1.5 -1.5,1.5 h -6 c -0.83096,0 -1.49999,-0.6696 -1.49999,-1.5 v -6 c 0,-0.8303 0.66903,-1.5 1.49999,-1.5 z"
         style="fill:#ffffff;fill-opacity:1;stroke-width:1.5;paint-order:stroke fill markers"
         id="path1596-0-9-1-2" />
      <rect
         height="4"
         ry="0.90833372"
         width="4"
         x="116"
         y="1108.5197"
         id="rect4310-6-6-3-7-6-0"
         style="fill:#ffffff;fill-opacity:1;stroke-width:0.1"
         rx="0.90000027" />
    </g>
    <g
       id="pressed-inactive-center">
      <rect
         height="22"
         ry="6.0003252"
         width="22"
         x="141"
         y="1099.5195"
         id="rect4310-6-6-3-6"
         style="fill:#1ab288;fill-opacity:1;stroke-width:0.55"
         rx="6" />
      <path
         d="m 148.99997,1104.5195 c -1.662,0 -3,1.339 -3,3 v 6 c 0,1.661 1.33801,3 3,3 h 6 c 1.662,0 3,-1.339 3,-3 v -6 c 0,-1.661 -1.33801,-3 -3,-3 z m 0,1.5 h 6 c 0.831,0 1.5,0.6697 1.5,1.5 v 6 c 0,0.8304 -0.66903,1.5 -1.5,1.5 h -6 c -0.83096,0 -1.49999,-0.6696 -1.49999,-1.5 v -6 c 0,-0.8303 0.66903,-1.5 1.49999,-1.5 z"
         style="fill:#ffffff;fill-opacity:1;stroke-width:1.5;paint-order:stroke fill markers"
         id="path1596-0-9-1-1" />
      <rect
         height="4"
         ry="0.90833372"
         width="4"
         x="150"
         y="1108.5195"
         id="rect4310-6-6-3-7-6-5"
         style="fill:#ffffff;fill-opacity:1;stroke-width:0.1"
         rx="0.90000027" />
    </g>
  </g>
</svg>
