<?xml version="1.0" encoding="UTF-8" standalone="no"?>
<svg
   version="1.0"
   width="22"
   height="22"
   id="svg2"
   inkscape:version="1.3.2 (091e20ef0f, 2023-11-25)"
   sodipodi:docname="shade.svg"
   viewBox="0 0 20.625002 20.625"
   xmlns:inkscape="http://www.inkscape.org/namespaces/inkscape"
   xmlns:sodipodi="http://sodipodi.sourceforge.net/DTD/sodipodi-0.dtd"
   xmlns:xlink="http://www.w3.org/1999/xlink"
   xmlns="http://www.w3.org/2000/svg"
   xmlns:svg="http://www.w3.org/2000/svg"
   xmlns:rdf="http://www.w3.org/1999/02/22-rdf-syntax-ns#"
   xmlns:cc="http://creativecommons.org/ns#"
   xmlns:dc="http://purl.org/dc/elements/1.1/">
  <g
     id="pressed-inactive-center">
    <rect
       height="20.625"
       ry="5.6253052"
       width="20.625"
       x="0"
       y="0"
       id="rect4310-6-6-6-3"
       style="fill:#00b2b2;fill-opacity:1;stroke-width:0.515625"
       rx="5.6250005" />
    <path
       d="m 8.2026103,7.4999979 c 0,-1.190772 0.96547,-2.15625 2.1562497,-2.15625 1.190771,0 2.156241,0.965478 2.156241,2.15625 0,1.190779 -0.96547,2.156251 -2.156241,2.156251 -1.1907797,0 -2.1562497,-0.965472 -2.1562497,-2.156251 z"
       id="path4-3-7-3-3-6-1-3-7-1-6-8-1"
       style="fill:#ffffff;fill-opacity:1;stroke-width:0.00440058;enable-background:new" />
    <path
       d="m 10.3199,15 c 0.0156,-1.78e-4 0.0312,-0.0013 0.0467,-0.0028 0.10721,-0.01077 0.20697,-0.05172 0.28322,-0.116646 l 6.222381,-5.2788151 c 0.091,-0.07594 0.14249,-0.179644 0.14288,-0.288048 4.3e-4,-0.108312 -0.0501,-0.212269 -0.14054,-0.288862 -0.0903,-0.07653 -0.21295,-0.119209 -0.34067,-0.118559 H 4.0909703 c -0.12781,-0.0011 -0.25065,0.04166 -0.34121,0.118169 -0.0906,0.07655 -0.14127,0.180553 -0.14084,0.289056 3.1e-4,0.108381 0.0519,0.21218 0.14278,0.288229 L 9.97519,14.880633 c 0.0913,0.07758 0.21573,0.12047 0.34484,0.119001 z"
       fill-rule="evenodd"
       id="path2-3-8-8-8-4-4"
       style="fill:#ffffff;fill-opacity:1;stroke-width:0.025186;enable-background:new" />
  </g>
  <g
     id="pressed-center"
     transform="translate(-98.136108,0.52233106)">
    <rect
       height="20.625"
       ry="5.6253052"
       width="20.625"
       x="1.4210855e-14"
       y="0"
       id="rect4310-6-6-6"
       style="fill:#00b1b1;fill-opacity:1;stroke-width:0.515625"
       rx="5.6250005" />
    <path
       d="m 8.2026092,7.5000002 c 0,-1.190772 0.96547,-2.15625 2.1562498,-2.15625 1.19077,0 2.15624,0.965478 2.15624,2.15625 0,1.190779 -0.96547,2.1562508 -2.15624,2.1562508 -1.1907798,0 -2.1562498,-0.9654718 -2.1562498,-2.1562508 z"
       id="path4-3-7-3-3-6-1-3-7-1-6-8"
       style="fill:#ffffff;fill-opacity:1;stroke-width:0.00440058;enable-background:new" />
    <path
       d="m 10.319899,15.000002 c 0.0156,-1.78e-4 0.0312,-0.0013 0.0467,-0.0028 0.10721,-0.01077 0.20697,-0.05172 0.28322,-0.116646 l 6.22238,-5.278815 c 0.091,-0.07594 0.14249,-0.179644 0.14288,-0.288048 4.3e-4,-0.108312 -0.0501,-0.212269 -0.14054,-0.288862 -0.0903,-0.07653 -0.21295,-0.119209 -0.34067,-0.118559 H 4.0909692 c -0.12781,-0.0011 -0.25065,0.04166 -0.34121,0.118169 -0.0906,0.07655 -0.14127,0.180553 -0.14084,0.289056 3.1e-4,0.108381 0.0519,0.21218 0.14278,0.288229 l 6.22349,5.278909 c 0.0913,0.07758 0.2157298,0.12047 0.3448398,0.119001 z"
       fill-rule="evenodd"
       id="path2-3-8-8-8-4"
       style="fill:#ffffff;fill-opacity:1;stroke-width:0.025186;enable-background:new" />
  </g>
  <sodipodi:namedview
     pagecolor="#262626"
     bordercolor="#000000"
     borderopacity="1"
     objecttolerance="10"
     gridtolerance="10"
     guidetolerance="10"
     inkscape:pageopacity="1"
     inkscape:pageshadow="2"
     inkscape:window-width="1920"
     inkscape:window-height="994"
     id="namedview32"
     showgrid="true"
     inkscape:zoom="4.5"
     inkscape:cx="-84.888889"
     inkscape:cy="45.222222"
     inkscape:window-x="0"
     inkscape:window-y="0"
     inkscape:window-maximized="1"
     inkscape:current-layer="svg2"
     inkscape:document-rotation="0"
     showguides="false"
     inkscape:showpageshadow="true"
     inkscape:lockguides="true"
     inkscape:pagecheckerboard="true"
     guidecolor="#0000ff"
     guideopacity="0.76862745"
     inkscape:deskcolor="#262626">
    <inkscape:grid
       type="xygrid"
       id="grid2961"
       originx="-168.75013"
       originy="-9.5343477e-05"
       spacingy="1"
       spacingx="1"
       units="px"
       visible="true" />
  </sodipodi:namedview>
  <metadata
     id="metadata11">
    <rdf:RDF>
      <cc:Work
         rdf:about="">
        <dc:format>image/svg+xml</dc:format>
        <dc:type
           rdf:resource="http://purl.org/dc/dcmitype/StillImage" />
      </cc:Work>
    </rdf:RDF>
  </metadata>
  <defs
     id="defs4">
    <linearGradient
       id="linearGradient3587-6-5">
      <stop
         id="stop3589-9-2"
         style="stop-color:#000000;stop-opacity:1"
         offset="0" />
      <stop
         id="stop3591-7-4"
         style="stop-color:#646464;stop-opacity:1"
         offset="1" />
    </linearGradient>
    <linearGradient
       x1="7.0799088"
       y1="7.6944885"
       x2="11.317808"
       y2="11.932388"
       id="linearGradient2388"
       xlink:href="#linearGradient3587-6-5"
       gradientUnits="userSpaceOnUse"
       gradientTransform="rotate(45,12.12132,10.707107)" />
    <linearGradient
       x1="8.1313992"
       y1="19.049677"
       x2="8.1313992"
       y2="15.935893"
       id="linearGradient5038"
       xlink:href="#linearGradient3732-77"
       gradientUnits="userSpaceOnUse"
       gradientTransform="matrix(0.8666667,0,0,0.73333335,2.0666666,-16.066667)" />
    <linearGradient
       id="linearGradient3732-77">
      <stop
         id="stop3734-3"
         style="stop-color:#000000;stop-opacity:1"
         offset="0" />
      <stop
         id="stop3736-71"
         style="stop-color:#000000;stop-opacity:0"
         offset="1" />
    </linearGradient>
    <linearGradient
       x1="8.1313992"
       y1="19.049677"
       x2="8.1313992"
       y2="15.935893"
       id="linearGradient3794"
       xlink:href="#linearGradient3788"
       gradientUnits="userSpaceOnUse"
       gradientTransform="matrix(1.1333334,0,0,0.99999997,-0.06666673,-2.9999999)" />
    <linearGradient
       id="linearGradient3788">
      <stop
         id="stop3790"
         style="stop-color:#ffffff;stop-opacity:1"
         offset="0" />
      <stop
         id="stop3792"
         style="stop-color:#ffffff;stop-opacity:0"
         offset="1" />
    </linearGradient>
    <linearGradient
       x1="22.863201"
       y1="-0.94923496"
       x2="26.23391"
       y2="2.4214737"
       id="linearGradient6695"
       xlink:href="#linearGradient3587-6-5-1-5"
       gradientUnits="userSpaceOnUse"
       gradientTransform="rotate(45,4.0355353,-15.642136)" />
    <linearGradient
       id="linearGradient3587-6-5-1-5">
      <stop
         id="stop3589-9-2-8-5"
         style="stop-color:#000000;stop-opacity:1"
         offset="0" />
      <stop
         id="stop3591-7-4-3-0"
         style="stop-color:#646464;stop-opacity:1"
         offset="1" />
    </linearGradient>
    <linearGradient
       x1="19.490692"
       y1="-4.321744"
       x2="22.886868"
       y2="-0.92556846"
       id="linearGradient6693"
       xlink:href="#linearGradient3587-6-5-1-5"
       gradientUnits="userSpaceOnUse"
       gradientTransform="rotate(45,4.0355353,-15.642136)" />
    <linearGradient
       id="linearGradient3059">
      <stop
         id="stop3061"
         style="stop-color:#000000;stop-opacity:1"
         offset="0" />
      <stop
         id="stop3063"
         style="stop-color:#646464;stop-opacity:1"
         offset="1" />
    </linearGradient>
    <linearGradient
       x1="20.534313"
       y1="-4.3515615"
       x2="26.152533"
       y2="1.2666581"
       id="linearGradient6693-5"
       xlink:href="#linearGradient3587-6-5-1-5-2"
       gradientUnits="userSpaceOnUse"
       gradientTransform="rotate(45,4.0355353,-15.642136)" />
    <linearGradient
       id="linearGradient3587-6-5-1-5-2">
      <stop
         id="stop3589-9-2-8-5-0"
         style="stop-color:#000000;stop-opacity:1"
         offset="0" />
      <stop
         id="stop3591-7-4-3-0-1"
         style="stop-color:#646464;stop-opacity:1"
         offset="1" />
    </linearGradient>
    <linearGradient
       x1="19.490692"
       y1="-4.321744"
       x2="22.886868"
       y2="-0.92556846"
       id="linearGradient3054"
       xlink:href="#linearGradient3587-6-5-1-5-2"
       gradientUnits="userSpaceOnUse"
       gradientTransform="rotate(45,3.1568563,-28.006097)" />
    <linearGradient
       x1="20.534313"
       y1="-4.3515615"
       x2="26.152533"
       y2="1.2666581"
       id="linearGradient6693-5-4"
       xlink:href="#linearGradient3587-6-5-1-5-2-1"
       gradientUnits="userSpaceOnUse"
       gradientTransform="rotate(45,-6.6146827,-50.612924)" />
    <linearGradient
       id="linearGradient3587-6-5-1-5-2-1">
      <stop
         id="stop3589-9-2-8-5-0-2"
         style="stop-color:#000000;stop-opacity:1"
         offset="0" />
      <stop
         id="stop3591-7-4-3-0-1-4"
         style="stop-color:#646464;stop-opacity:1"
         offset="1" />
    </linearGradient>
    <linearGradient
       x1="8.1313992"
       y1="19.049677"
       x2="8.1313992"
       y2="15.935893"
       id="linearGradient5038-3"
       xlink:href="#linearGradient3732-77-1"
       gradientUnits="userSpaceOnUse"
       gradientTransform="matrix(0.8666667,0,0,0.73333335,-25.780791,-13.354803)" />
    <linearGradient
       id="linearGradient3732-77-1">
      <stop
         id="stop3734-3-1"
         style="stop-color:#000000;stop-opacity:1"
         offset="0" />
      <stop
         id="stop3736-71-8"
         style="stop-color:#000000;stop-opacity:0"
         offset="1" />
    </linearGradient>
    <linearGradient
       x1="8.1313992"
       y1="19.049677"
       x2="8.1313992"
       y2="15.935893"
       id="linearGradient3794-3"
       xlink:href="#linearGradient3788-3"
       gradientUnits="userSpaceOnUse"
       gradientTransform="matrix(1.1333334,0,0,0.99999997,-27.914124,-5.7118643)" />
    <linearGradient
       id="linearGradient3788-3">
      <stop
         id="stop3790-8"
         style="stop-color:#ffffff;stop-opacity:1"
         offset="0" />
      <stop
         id="stop3792-3"
         style="stop-color:#ffffff;stop-opacity:0"
         offset="1" />
    </linearGradient>
    <linearGradient
       inkscape:collect="always"
       xlink:href="#linearGradient3788-3"
       id="linearGradient3210"
       gradientUnits="userSpaceOnUse"
       gradientTransform="matrix(1.1333334,0,0,0.99999997,-27.914124,-5.7118643)"
       x1="8.1313992"
       y1="19.049677"
       x2="8.1313992"
       y2="15.935893" />
    <linearGradient
       inkscape:collect="always"
       xlink:href="#linearGradient3732-77-1"
       id="linearGradient3212"
       gradientUnits="userSpaceOnUse"
       gradientTransform="matrix(0.8666667,0,0,0.73333335,-25.780791,-13.354803)"
       x1="8.1313992"
       y1="19.049677"
       x2="8.1313992"
       y2="15.935893" />
    <linearGradient
       inkscape:collect="always"
       xlink:href="#linearGradient3587-6-5-1-5-2-1"
       id="linearGradient3214"
       gradientUnits="userSpaceOnUse"
       gradientTransform="rotate(45,-6.6146827,-50.612924)"
       x1="20.534313"
       y1="-4.3515615"
       x2="26.152533"
       y2="1.2666581" />
    <linearGradient
       id="linearGradient3587-6-5-1-5-2-7">
      <stop
         offset="0"
         style="stop-color:#000000;stop-opacity:1"
         id="stop3589-9-2-8-5-0-9" />
      <stop
         offset="1"
         style="stop-color:#646464;stop-opacity:1"
         id="stop3591-7-4-3-0-1-5" />
    </linearGradient>
    <linearGradient
       id="linearGradient3732-77-2"
       inkscape:collect="always">
      <stop
         id="stop3734-3-2"
         offset="0"
         style="stop-color:#000000;stop-opacity:1;" />
      <stop
         id="stop3736-71-0"
         offset="1"
         style="stop-color:#000000;stop-opacity:0;" />
    </linearGradient>
    <linearGradient
       inkscape:collect="always"
       id="linearGradient3788-8">
      <stop
         style="stop-color:#ffffff;stop-opacity:1;"
         offset="0"
         id="stop3790-7" />
      <stop
         style="stop-color:#ffffff;stop-opacity:0;"
         offset="1"
         id="stop3792-4" />
    </linearGradient>
    <linearGradient
       inkscape:collect="always"
       xlink:href="#linearGradient3788-8"
       id="linearGradient3298"
       gradientUnits="userSpaceOnUse"
       gradientTransform="matrix(1.1333334,0,0,0.99999997,-5.0666667,42)"
       x1="8.1313992"
       y1="19.049677"
       x2="8.1313992"
       y2="15.935893" />
    <linearGradient
       inkscape:collect="always"
       xlink:href="#linearGradient3732-77-2"
       id="linearGradient3300"
       gradientUnits="userSpaceOnUse"
       gradientTransform="matrix(0.8666667,0,0,0.73333335,-2.9333334,-61.066667)"
       x1="8.1313992"
       y1="19.049677"
       x2="8.1313992"
       y2="15.935893" />
    <linearGradient
       inkscape:collect="always"
       xlink:href="#linearGradient3587-6-5-1-5-2-7"
       id="linearGradient3302"
       gradientUnits="userSpaceOnUse"
       gradientTransform="rotate(45,-52.784269,0.82232777)"
       x1="20.534313"
       y1="-4.3515615"
       x2="26.152533"
       y2="1.2666581" />
    <linearGradient
       x1="20.534313"
       y1="-4.3515615"
       x2="26.152533"
       y2="1.2666581"
       id="linearGradient6693-5-9"
       xlink:href="#linearGradient3587-6-5-1-5-2-4"
       gradientUnits="userSpaceOnUse"
       gradientTransform="rotate(45,24.578427,37.367009)" />
    <linearGradient
       id="linearGradient3587-6-5-1-5-2-4">
      <stop
         id="stop3589-9-2-8-5-0-4"
         style="stop-color:#000000;stop-opacity:1"
         offset="0" />
      <stop
         id="stop3591-7-4-3-0-1-0"
         style="stop-color:#646464;stop-opacity:1"
         offset="1" />
    </linearGradient>
  </defs>
  <g
     id="active-center"
     transform="translate(-168.75001,-9.5373486e-5)">
    <rect
       height="20.625"
       ry="5.6253052"
       width="20.625"
       x="0"
       y="3.7999826e-11"
       id="rect4310-6-6"
       style="fill:#4a557c;fill-opacity:0.85;stroke-width:0.515625"
       rx="5.6250005" />
    <path
       d="m 12.421872,13.406251 c 0,1.190772 -0.965473,2.15625 -2.156247,2.15625 -1.1907724,0 -2.1562504,-0.965478 -2.1562504,-2.15625 0,-1.190779 0.965478,-2.15625 2.1562504,-2.15625 1.190774,0 2.156247,0.965471 2.156247,2.15625 z"
       id="path4-3-7-3-3-6-1-3-7-67"
       style="fill:#ffffff;fill-opacity:1;stroke-width:0.00440058;enable-background:new" />
    <path
       d="m 10.304579,6.0937502 c -0.0156,1.78e-4 -0.03118,0.0013 -0.04672,0.0028 -0.107212,0.01077 -0.206972,0.05172 -0.2832212,0.116646 l -6.222381,5.2788148 c -0.09104,0.07594 -0.14249,0.179644 -0.142879,0.288048 -4.26e-4,0.108312 0.0501,0.212269 0.140541,0.288862 0.09033,0.07653 0.21295,0.119209 0.340674,0.118559 H 16.533494 c 0.127807,0.0011 0.250645,-0.04166 0.341205,-0.118169 0.09063,-0.07655 0.141274,-0.180553 0.140839,-0.289056 -3.08e-4,-0.108381 -0.05187,-0.21218 -0.142781,-0.288229 L 10.649266,6.2131182 c -0.0913,-0.07758 -0.215728,-0.120471 -0.344835,-0.119002 z"
       fill-rule="evenodd"
       id="path2-3-8-5"
       style="fill:#ffffff;fill-opacity:1;stroke-width:0.025186;enable-background:new" />
  </g>
  <g
     id="hover-center"
     transform="translate(-135.00001,-7.6293486e-5)">
    <rect
       height="20.625"
       ry="5.6253052"
       width="20.625"
       x="0"
       y="0"
       id="rect4310-6-6-5"
       style="fill:#008080;fill-opacity:1;stroke-width:0.515625"
       rx="5.6250005" />
    <path
       d="m 12.421871,13.406253 c 0,1.190772 -0.965473,2.15625 -2.156247,2.15625 -1.1907722,0 -2.1562502,-0.965478 -2.1562502,-2.15625 0,-1.190779 0.965478,-2.15625 2.1562502,-2.15625 1.190774,0 2.156247,0.965471 2.156247,2.15625 z"
       id="path4-3-7-3-3-6-1-3-7-67-4"
       style="fill:#ffffff;fill-opacity:1;stroke-width:0.00440058;enable-background:new" />
    <path
       d="m 10.304578,6.0937518 c -0.0156,1.78e-4 -0.03118,0.0013 -0.04672,0.0028 -0.107212,0.01077 -0.206972,0.05172 -0.283221,0.116646 L 3.7522562,11.492013 c -0.09104,0.07594 -0.14249,0.179644 -0.142879,0.288048 -4.26e-4,0.108312 0.0501,0.212269 0.140541,0.288862 0.09033,0.07653 0.21295,0.119209 0.340674,0.118559 H 16.533493 c 0.127807,0.0011 0.250645,-0.04166 0.341205,-0.118169 0.09063,-0.07655 0.141274,-0.180553 0.140839,-0.289056 -3.08e-4,-0.108381 -0.05187,-0.21218 -0.142781,-0.288229 L 10.649265,6.2131198 c -0.0913,-0.07758 -0.215728,-0.120471 -0.344835,-0.119002 z"
       fill-rule="evenodd"
       id="path2-3-8-5-7"
       style="fill:#ffffff;fill-opacity:1;stroke-width:0.025186;enable-background:new" />
  </g>
  <g
     id="inactive-center"
     transform="translate(-65.625,-3.8153486e-5)">
    <rect
       height="20.625"
       ry="5.6253052"
       width="20.625"
       x="0"
       y="0"
       id="rect4310-6-6-9"
       style="fill:#4c5880;fill-opacity:0.54902;stroke-width:0.515625"
       rx="5.6250005" />
    <path
       d="m 12.421871,13.406253 c 0,1.190772 -0.96547,2.15625 -2.15624,2.15625 -1.19078,0 -2.1562599,-0.965478 -2.1562599,-2.15625 0,-1.190779 0.9654799,-2.15625 2.1562599,-2.15625 1.19077,0 2.15624,0.965471 2.15624,2.15625 z"
       id="path4-3-7-3-3-6-1-3-7-67-3"
       style="fill:#cccccc;fill-opacity:1;stroke-width:0.00440058;enable-background:new" />
    <path
       d="m 10.304581,6.093752 c -0.0156,1.78e-4 -0.0312,0.0013 -0.0467,0.0028 -0.10721,0.01077 -0.20697,0.05172 -0.28322,0.116646 l -6.2223799,5.278815 c -0.091,0.07594 -0.14249,0.179644 -0.14288,0.288048 -4.3e-4,0.108312 0.0501,0.212269 0.14054,0.288862 0.0903,0.07653 0.21295,0.119209 0.34067,0.118559 H 16.533511 c 0.12781,0.0011 0.25065,-0.04166 0.34121,-0.118169 0.0906,-0.07655 0.14127,-0.180553 0.14084,-0.289056 -3.1e-4,-0.108381 -0.0519,-0.21218 -0.14278,-0.288229 L 10.649291,6.21312 c -0.0913,-0.07758 -0.21573,-0.120471 -0.34484,-0.119002 z"
       fill-rule="evenodd"
       id="path2-3-8-5-74"
       style="fill:#cccccc;fill-opacity:1;stroke-width:0.025186;enable-background:new" />
  </g>
  <g
     id="hover-inactive-center"
     transform="translate(-31.875,-1.9073486e-5)">
    <rect
       height="20.625"
       ry="5.6253052"
       width="20.625"
       x="0"
       y="0"
       id="rect4310-6-6-52"
       style="fill:#008080;fill-opacity:1;stroke-width:0.515625"
       rx="5.6250005" />
    <path
       d="m 12.421855,13.406253 c 0,1.190772 -0.96547,2.15625 -2.15625,2.15625 -1.1907702,0 -2.1562502,-0.965478 -2.1562502,-2.15625 0,-1.190779 0.96548,-2.15625 2.1562502,-2.15625 1.19078,0 2.15625,0.965471 2.15625,2.15625 z"
       id="path4-3-7-3-3-6-1-3-7-67-54"
       style="fill:#ffffff;fill-opacity:1;stroke-width:0.00440058;enable-background:new" />
    <path
       d="m 10.304565,6.0937522 c -0.0156,1.78e-4 -0.0312,0.0013 -0.0467,0.0028 -0.10721,0.01077 -0.20697,0.05172 -0.2832199,0.116646 L 3.7522648,11.492013 c -0.091,0.07594 -0.14249,0.179644 -0.14288,0.288048 -4.3e-4,0.108312 0.0501,0.212269 0.14054,0.288862 0.0903,0.07653 0.21295,0.119209 0.34067,0.118559 H 16.533495 c 0.12781,0.0011 0.25065,-0.04166 0.34121,-0.118169 0.0906,-0.07655 0.14127,-0.180553 0.14084,-0.289056 -3.1e-4,-0.108381 -0.0519,-0.21218 -0.14278,-0.288229 l -6.22349,-5.2789078 c -0.0913,-0.07758 -0.21573,-0.120471 -0.34484,-0.119002 z"
       fill-rule="evenodd"
       id="path2-3-8-5-744"
       style="fill:#ffffff;fill-opacity:1;stroke-width:0.025186;enable-background:new" />
  </g>
</svg>
