<?xml version="1.0" encoding="UTF-8" standalone="no"?>
<svg
   width="64"
   version="1.1"
   height="64"
   id="svg15"
   sodipodi:docname="folder-IOTA.svg"
   inkscape:version="1.2.2 (b0a8486541, 2022-12-01)"
   xmlns:inkscape="http://www.inkscape.org/namespaces/inkscape"
   xmlns:sodipodi="http://sodipodi.sourceforge.net/DTD/sodipodi-0.dtd"
   xmlns:xlink="http://www.w3.org/1999/xlink"
   xmlns="http://www.w3.org/2000/svg"
   xmlns:svg="http://www.w3.org/2000/svg"
   xmlns:rdf="http://www.w3.org/1999/02/22-rdf-syntax-ns#"
   xmlns:cc="http://creativecommons.org/ns#"
   xmlns:dc="http://purl.org/dc/elements/1.1/">
  <sodipodi:namedview
     pagecolor="#ffffff"
     bordercolor="#666666"
     borderopacity="1"
     objecttolerance="10"
     gridtolerance="10"
     guidetolerance="10"
     inkscape:pageopacity="0"
     inkscape:pageshadow="2"
     inkscape:window-width="1920"
     inkscape:window-height="994"
     id="namedview17"
     showgrid="true"
     inkscape:zoom="6.9384853"
     inkscape:cx="-0.50443286"
     inkscape:cy="52.605141"
     inkscape:window-x="0"
     inkscape:window-y="0"
     inkscape:window-maximized="1"
     inkscape:current-layer="layer1"
     inkscape:document-rotation="0"
     showguides="false"
     inkscape:showpageshadow="2"
     inkscape:pagecheckerboard="0"
     inkscape:deskcolor="#d1d1d1">
    <inkscape:grid
       type="xygrid"
       id="grid919" />
  </sodipodi:namedview>
  <defs
     id="defs5455">
    <linearGradient
       inkscape:collect="always"
       id="linearGradient16104">
      <stop
         style="stop-color:#008080;stop-opacity:1"
         offset="0"
         id="stop16100" />
      <stop
         style="stop-color:#00ae46;stop-opacity:1;"
         offset="1"
         id="stop16102" />
    </linearGradient>
    <linearGradient
       inkscape:collect="always"
       id="linearGradient15539">
      <stop
         style="stop-color:#008080;stop-opacity:1"
         offset="0"
         id="stop15535" />
      <stop
         style="stop-color:#55ff99;stop-opacity:1"
         offset="1"
         id="stop15537" />
    </linearGradient>
    <linearGradient
       inkscape:collect="always"
       xlink:href="#linearGradient16104"
       id="linearGradient1419"
       x1="0.52915627"
       y1="5.0269842"
       x2="16.403845"
       y2="5.0269842"
       gradientUnits="userSpaceOnUse"
       gradientTransform="matrix(3.779602,0,0,3.8662747,384.57143,480.49989)" />
    <clipPath
       clipPathUnits="userSpaceOnUse"
       id="clipPath79425-9-5-3">
      <rect
         style="opacity:0.5;fill:#000000;fill-opacity:1;stroke:none;stroke-width:0.855869;stroke-dasharray:none;stroke-opacity:1;paint-order:stroke fill markers"
         id="rect79427-1-9-6"
         width="26.417742"
         height="29.037542"
         x="-16.227774"
         y="-6.4845476" />
    </clipPath>
    <filter
       inkscape:collect="always"
       style="color-interpolation-filters:sRGB"
       id="filter77953-2-4-7"
       x="-0.040508607"
       y="-0.067265661"
       width="1.0810172"
       height="1.1345313">
      <feGaussianBlur
         inkscape:collect="always"
         stdDeviation="0.44602907"
         id="feGaussianBlur77955-7-9-5" />
    </filter>
    <clipPath
       clipPathUnits="userSpaceOnUse"
       id="clipPath79425-9-5-5">
      <rect
         style="opacity:0.5;fill:#000000;fill-opacity:1;stroke:none;stroke-width:0.855869;stroke-dasharray:none;stroke-opacity:1;paint-order:stroke fill markers"
         id="rect79427-1-9-62"
         width="26.417742"
         height="29.037542"
         x="-16.227774"
         y="-6.4845476" />
    </clipPath>
    <filter
       inkscape:collect="always"
       style="color-interpolation-filters:sRGB"
       id="filter77953-2-4-9"
       x="-0.040520865"
       y="-0.064907304"
       width="1.0810417"
       height="1.1298146">
      <feGaussianBlur
         inkscape:collect="always"
         stdDeviation="0.44602907"
         id="feGaussianBlur77955-7-9-1" />
    </filter>
    <linearGradient
       inkscape:collect="always"
       xlink:href="#linearGradient15539"
       id="linearGradient1662"
       gradientUnits="userSpaceOnUse"
       gradientTransform="matrix(3.7757185,0,0,3.9032702,384.57656,479.89311)"
       x1="9.3259869"
       y1="14.831515"
       x2="2.3822937"
       y2="3.5623693" />
  </defs>
  <metadata
     id="metadata5458">
    <rdf:RDF>
      <cc:Work
         rdf:about="">
        <dc:format>image/svg+xml</dc:format>
        <dc:type
           rdf:resource="http://purl.org/dc/dcmitype/StillImage" />
      </cc:Work>
    </rdf:RDF>
  </metadata>
  <g
     inkscape:label="Capa 1"
     inkscape:groupmode="layer"
     id="layer1"
     transform="translate(-384.57143,-483.798)">
    <path
       id="path32082-9"
       style="fill:url(#linearGradient1419);fill-opacity:1.0;stroke:none;stroke-width:5.11694;stroke-linecap:round;stroke-linejoin:round;stroke-opacity:0.03"
       d="m 393.57143,493.798 c -4,0 -7,3.06879 -7,7.16052 v 5.11466 c 0,0 2,-5.11466 5,-5.11466 h 8 12 6 24 c 3,0 5,2.04586 5,5.11466 v 0 0 -5.11466 c 0,-4.09173 -3,-7.16052 -7,-7.16052 h -24.07114 -5.92886 -9 z"
       sodipodi:nodetypes="sccsccccccccccccs" />
    <rect
       x="410.57144"
       y="494.82108"
       width="12"
       height="2.0458624"
       ry="1.0248643"
       stroke-width="3.41941"
       style="fill:#222638;fill-opacity:1;paint-order:stroke markers fill"
       id="rect12-5-9-3-9" />
    <path
       d="m 418.30476,497.88973 h -3.46666 -4.33334 -16.93333 c -2,0 -3,1.02292 -3,3.06879 v 0 0 h 52 v 0 0 c 0,-2.04587 -1,-3.06879 -3,-3.06879 z"
       style="fill:#222638;fill-opacity:1;stroke-width:2.33915;paint-order:markers stroke fill"
       id="path8-7-2-9-6-1-7-5"
       sodipodi:nodetypes="cccccccccccc"
       opacity="0.6" />
    <path
       style="display:inline;fill:#ffffff;fill-opacity:1;stroke:none;stroke-width:2.77827;stroke-linecap:round;stroke-linejoin:round;stroke-opacity:0.03;filter:url(#filter77953-2-4-7)"
       d="m -14.025629,3.0793846 h 6.1660045 4.8447182 3.08300239 7.92771991 c 1.3212868,0 2.202145,0.9435823 2.202145,2.3589558 l -0.0082,11.1961006 c 0.0082,1.415373 -1.496833,2.225381 -2.6343739,2.232069 L -14.02563,18.993397 c -1.321286,0.0078 -2.202145,-0.943583 -2.202145,-2.358956 l 1e-6,-11.3229881 c -1e-6,-1.288486 0.882451,-2.2155179 2.202145,-2.2320683 z"
       id="path1611-1-8-0-7-3"
       clip-path="url(#clipPath79425-9-5-3)"
       transform="matrix(2.270514,0,0,2.1681872,423.41682,494.28184)"
       sodipodi:nodetypes="cccccccssccc" />
    <path
       style="display:inline;fill:#4f4f4f;fill-opacity:1;stroke:none;stroke-width:2.77827;stroke-linecap:round;stroke-linejoin:round;stroke-opacity:0.03;filter:url(#filter77953-2-4-9)"
       d="m -14.026297,2.5011118 6.1666725,0.1211316 H -3.014907 0.06809547 L 7.9884881,2.5011118 C 9.3097749,2.5157128 10.189967,3.444358 10.189967,4.874457 l -2.06e-4,11.759984 c 0.0082,1.415373 -0.872618,2.358956 -2.6343739,2.358956 H -14.02563 c -1.321306,0 -2.202145,-0.943583 -2.202145,-2.358956 V 4.874457 c 0,-1.4240071 0.880591,-2.3733452 2.201478,-2.3733452 z"
       id="path1611-1-8-0-7-2"
       clip-path="url(#clipPath79425-9-5-5)"
       transform="matrix(2.271201,0,0,2.155042,423.42797,495.56852)"
       sodipodi:nodetypes="cccccccssccc" />
    <path
       d="m 418.57143,500.95852 h -4 -5 -18 c -3,0 -4.99999,2.04587 -4.99999,5.11466 v 26.59622 c 0,3.06876 1.99999,5.11463 4.99999,5.11463 h 49.99999 c 3,0 5,-2.04587 5,-5.11463 v -26.59622 c 0,-3.06879 -2,-5.11466 -5,-5.11466 z"
       style="fill:url(#linearGradient1662);fill-opacity:1;stroke-width:3.83803;paint-order:markers stroke fill"
       id="path8-7-2-9-6-1-9"
       sodipodi:nodetypes="ccccsssssscc"
       opacity="0.6" />
    <path
       d="m 386.57143,518.748 17.1,19 h -10e-6 0.65001 l -17.75,-19.65 v 0 0 z"
       id="path2653-4"
       style="fill:#bac8df;fill-opacity:1;stroke-width:0.48092"
       sodipodi:nodetypes="cccccccc" />
    <path
       d="m 386.57143,524.79794 11.48548,12.98879 -1e-5,0.0113 0.64953,-0.006 v 0.006 l -12.12986,-13.65007 v 0 0 z"
       id="path2653-4-3"
       style="fill:#bac8df;fill-opacity:1;stroke-width:0.330034"
       sodipodi:nodetypes="ccccccccc" />
    <path
       style="isolation:isolate;fill:#d8f0f3;fill-opacity:1;stroke-width:1.15003"
       class="ColorScheme-Text"
       d="m 427.549,528.29675 c 0.36112,-0.0176 0.68963,-0.22577 0.86961,-0.55372 0.14064,-0.2551 0.18002,-0.55719 0.10687,-0.84167 -0.0732,-0.2845 -0.25084,-0.52663 -0.49501,-0.67474 -0.24408,-0.14698 -0.53436,-0.18695 -0.80661,-0.11055 -0.27112,0.0765 -0.50402,0.26218 -0.64472,0.51728 -0.14062,0.25504 -0.17878,0.55719 -0.10571,0.84167 0.072,0.28444 0.25094,0.52664 0.495,0.67357 0.17552,0.107 0.37802,0.15874 0.58057,0.14816 z m 6.83357,-1.73397 c 0.17774,0 0.34874,-0.0743 0.47475,-0.20571 0.126,-0.13165 0.19579,-0.30919 0.19579,-0.49491 0,-0.38678 -0.30047,-0.69943 -0.67054,-0.69943 -0.36901,0 -0.66831,0.31389 -0.66831,0.69943 0,0.38557 0.2993,0.69945 0.66831,0.70062 z m -1.68649,-0.17867 c 0.15529,0 0.30494,-0.0644 0.41401,-0.17866 0.11028,-0.11522 0.17215,-0.27037 0.17103,-0.43261 0,-0.33741 -0.26209,-0.61011 -0.58504,-0.61011 -0.32171,0 -0.58273,0.27389 -0.58391,0.61011 0,0.33738 0.26105,0.61127 0.58391,0.61127 z m 3.64631,-0.0704 c 0.20926,0 0.41065,-0.0866 0.55803,-0.24104 0.14852,-0.15514 0.23175,-0.36555 0.23175,-0.58423 0,-0.21865 -0.0825,-0.42789 -0.23175,-0.58305 -0.14738,-0.15401 -0.34877,-0.24098 -0.55803,-0.24098 -0.20925,0 -0.40948,0.0866 -0.55805,0.24098 -0.14844,0.15516 -0.23061,0.3644 -0.23061,0.58305 0,0.21868 0.0821,0.42909 0.23061,0.58423 0.14857,0.15405 0.3488,0.24104 0.55805,0.24104 z m -5.03465,-0.42796 c 0.28129,0 0.50858,-0.23746 0.50858,-0.53012 8.1e-4,-0.14112 -0.0528,-0.27629 -0.14857,-0.37618 -0.0954,-0.0999 -0.22499,-0.15636 -0.36001,-0.15518 -0.2801,0 -0.50736,0.23743 -0.50736,0.53136 8.7e-4,0.29266 0.22726,0.52899 0.50736,0.53012 z m -4.05129,-0.57601 c 0.30837,-0.015 0.58956,-0.19396 0.74366,-0.47374 0.25095,-0.45494 0.10128,-1.0345 -0.33299,-1.29658 -0.43425,-0.26218 -0.98897,-0.10701 -1.24099,0.34673 -0.1203,0.21868 -0.15302,0.47731 -0.0911,0.72066 0.0631,0.24333 0.21482,0.45137 0.42301,0.57714 0.15189,0.0906 0.32402,0.13404 0.49838,0.12579 z m 2.99493,-0.0999 c 0.11699,0 0.22953,-0.0482 0.31269,-0.13404 0.082,-0.0856 0.1294,-0.20338 0.1294,-0.32563 0,-0.12225 -0.0457,-0.2398 -0.1294,-0.32561 -0.0825,-0.0867 -0.19458,-0.13521 -0.31269,-0.13521 -0.11592,0 -0.22843,0.0495 -0.31049,0.13521 -0.0825,0.0867 -0.12942,0.20336 -0.12831,0.32561 0,0.25392 0.19689,0.45967 0.4388,0.45967 z m -5.30461,-0.24099 c 0.30819,-0.015 0.58834,-0.19399 0.7436,-0.47373 0.24974,-0.45377 0.10126,-1.03331 -0.333,-1.29667 -0.20811,-0.12578 -0.4568,-0.15985 -0.68963,-0.0951 -0.23288,0.0658 -0.43087,0.22453 -0.55126,0.44322 -0.25095,0.45376 -0.10127,1.0333 0.33301,1.2954 0.15075,0.0918 0.32286,0.1352 0.49728,0.12699 z m 9.13085,-0.43613 c 0.36903,0 0.66946,-0.31387 0.6683,-0.70065 0,-0.38557 -0.29927,-0.69828 -0.6683,-0.69828 -0.37008,0 -0.67049,0.31271 -0.67049,0.69828 0,0.18692 0.0695,0.36445 0.19575,0.49612 0.12601,0.13162 0.29702,0.20453 0.47474,0.20453 z m -4.60926,-0.12464 c 0.099,9.3e-4 0.19352,-0.04 0.26321,-0.11281 0.0694,-0.073 0.1091,-0.17167 0.1091,-0.27509 0,-0.10348 -0.0399,-0.2022 -0.1091,-0.27505 -0.0695,-0.073 -0.16422,-0.11404 -0.26321,-0.11404 -0.0979,0 -0.1935,0.0412 -0.26328,0.11404 -0.0694,0.073 -0.10799,0.17157 -0.10799,0.27505 0,0.10342 0.0385,0.20218 0.10799,0.27509 0.0695,0.073 0.16537,0.11405 0.26328,0.11281 z m 2.92285,-0.0527 c 0.32179,-9.3e-4 0.58387,-0.27392 0.58387,-0.61133 -8.5e-4,-0.33733 -0.26208,-0.61009 -0.58387,-0.61009 -0.32286,0 -0.58506,0.27276 -0.58506,0.61009 -8.3e-4,0.16225 0.0615,0.31744 0.17101,0.43264 0.10919,0.11399 0.25883,0.1787 0.41405,0.17869 z m 3.64405,-0.0703 c 0.20928,0 0.41066,-0.0867 0.55913,-0.24221 0.1474,-0.15396 0.23064,-0.36437 0.23064,-0.58305 0,-0.21862 -0.0825,-0.42788 -0.23064,-0.58306 -0.14847,-0.15519 -0.34985,-0.24214 -0.55913,-0.24214 -0.20929,0 -0.40953,0.0867 -0.558,0.24214 -0.14737,0.15518 -0.23068,0.36444 -0.23068,0.58306 0,0.21868 0.0825,0.42909 0.23068,0.58305 0.14847,0.15521 0.34871,0.24221 0.558,0.24221 z m -5.03232,-0.42793 c 0.28008,-8.8e-4 0.5062,-0.2386 0.50737,-0.5313 0,-0.29276 -0.22729,-0.53022 -0.50737,-0.53137 -0.13501,0 -0.26445,0.0567 -0.36002,0.15635 -0.0955,0.0987 -0.14965,0.23508 -0.14965,0.37502 7.9e-4,0.29383 0.22836,0.5313 0.50967,0.5313 z m 7.17892,-0.39148 c 0.50176,0 0.90904,-0.42558 0.90904,-0.94982 0,-0.52431 -0.40728,-0.94868 -0.90904,-0.94868 -0.50178,0 -0.90791,0.42437 -0.90791,0.94868 0,0.52424 0.40613,0.94982 0.90791,0.94982 z m -8.2354,-0.28448 c 0.24301,0 0.43992,-0.20576 0.43992,-0.45967 0,-0.25392 -0.19691,-0.45962 -0.43992,-0.45962 -0.24299,0 -0.4399,0.2057 -0.4399,0.45962 0,0.25391 0.19691,0.45967 0.4399,0.45967 z m -2.40429,-0.41026 c 0.26783,-0.0128 0.51194,-0.16815 0.64589,-0.41027 0.10457,-0.19043 0.13381,-0.41501 0.0792,-0.62657 -0.054,-0.21162 -0.18678,-0.39149 -0.36792,-0.50081 -0.37804,-0.22802 -0.85963,-0.0918 -1.07781,0.30211 -0.21719,0.39384 -0.0888,0.89812 0.288,1.12622 0.13163,0.0789 0.28122,0.11751 0.4331,0.10932 z m -2.30966,-0.33973 c 0.26778,-0.0139 0.51078,-0.16812 0.64578,-0.41148 0.1046,-0.18927 0.13275,-0.41495 0.0795,-0.62537 -0.0539,-0.21163 -0.18559,-0.39262 -0.36784,-0.50193 -0.18121,-0.10937 -0.39721,-0.13872 -0.59853,-0.0824 -0.20253,0.0567 -0.37577,0.19517 -0.48045,0.38442 -0.21713,0.39496 -0.0875,0.89928 0.29024,1.12618 0.1305,0.0802 0.28133,0.11755 0.43202,0.11051 z m 7.971,-0.1587 c 0.37009,0 0.67054,-0.31269 0.67054,-0.69949 0,-0.18569 -0.0694,-0.36325 -0.1958,-0.49491 -0.12599,-0.13163 -0.29701,-0.20567 -0.47474,-0.20567 -0.17777,0 -0.34765,0.0742 -0.47366,0.20567 -0.12599,0.13166 -0.19685,0.30922 -0.19578,0.49491 0,0.3868 0.30043,0.69949 0.66944,0.69949 z m -1.68648,-0.17634 c 0.15528,0 0.30496,-0.0645 0.41401,-0.17986 0.1103,-0.11403 0.17101,-0.27038 0.17101,-0.43146 0,-0.16219 -0.0614,-0.31857 -0.17101,-0.43257 -0.10905,-0.1152 -0.25873,-0.17984 -0.41401,-0.17984 -0.32292,8.7e-4 -0.58394,0.27507 -0.58394,0.61241 0,0.33626 0.26102,0.61012 0.58394,0.61132 z m 3.6463,-0.0729 c 0.20926,0 0.41062,-0.0867 0.55801,-0.24096 0.14858,-0.15519 0.23181,-0.3644 0.23181,-0.58307 0,-0.21864 -0.0828,-0.42909 -0.23181,-0.58306 -0.14739,-0.15521 -0.34875,-0.24216 -0.55801,-0.24216 -0.20923,0 -0.40946,0.0867 -0.55803,0.24216 -0.14739,0.15398 -0.23066,0.36442 -0.23066,0.58306 0,0.21868 0.0825,0.42788 0.23066,0.58307 0.14857,0.15404 0.3488,0.24097 0.55803,0.24097 z m -11.76688,-0.32914 c 0.26881,-0.0129 0.51301,-0.16809 0.64684,-0.41143 0.1046,-0.18925 0.13394,-0.41499 0.0794,-0.62656 -0.0539,-0.21162 -0.18675,-0.39149 -0.36783,-0.50078 -0.37801,-0.22689 -0.85961,-0.0918 -1.07789,0.30209 -0.21709,0.395 -0.0887,0.89811 0.28799,1.12619 0.13161,0.0789 0.28126,0.11753 0.43205,0.11049 z m 6.73227,-0.0975 c 0.13499,0 0.26436,-0.0554 0.36,-0.15514 0.0955,-0.0999 0.14967,-0.23514 0.14967,-0.37618 -8.4e-4,-0.29273 -0.22844,-0.53017 -0.50967,-0.53017 -0.28013,0 -0.50625,0.23744 -0.50735,0.53017 0,0.29386 0.22722,0.53133 0.50735,0.53133 z m 7.18123,-0.39144 c 0.50175,0 0.90791,-0.42435 0.90791,-0.94867 0,-0.52431 -0.40616,-0.94983 -0.90791,-0.94983 -0.50177,0 -0.90796,0.42552 -0.90796,0.94983 0,0.52432 0.40619,0.94867 0.90796,0.94867 z m -9.10389,-0.51842 c 0.2272,-0.0104 0.43427,-0.14222 0.54901,-0.34913 0.18443,-0.33504 0.0745,-0.76292 -0.24645,-0.95572 -0.31951,-0.1928 -0.72904,-0.0776 -0.91462,0.25623 -0.18456,0.33504 -0.0759,0.76297 0.24412,0.95572 0.11135,0.067 0.23969,0.1 0.36794,0.0931 z m -2.30977,-0.33971 c 0.22838,-0.0117 0.43423,-0.14347 0.54783,-0.35036 0.18458,-0.33382 0.076,-0.76175 -0.24408,-0.95571 -0.15417,-0.093 -0.33753,-0.11757 -0.50852,-0.0691 -0.17215,0.0482 -0.31842,0.16575 -0.40726,0.32677 -0.18448,0.33389 -0.076,0.76177 0.24525,0.95571 0.11136,0.067 0.23851,0.0988 0.36678,0.0931 z m 7.22281,-0.55608 c 0.0853,-8.7e-4 0.16877,-0.0271 0.24302,-0.0717 0.24303,-0.14693 0.32513,-0.4714 0.18564,-0.72531 -0.14063,-0.25392 -0.45226,-0.33971 -0.69416,-0.19394 -0.24299,0.14691 -0.32623,0.47255 -0.18559,0.7253 0.0924,0.16812 0.26547,0.27039 0.45109,0.26567 z m 6.39144,-0.0975 c 0.2813,0 0.55132,-0.11757 0.75045,-0.3256 0.19916,-0.20812 0.31053,-0.49023 0.31053,-0.78414 0,-0.61246 -0.47484,-1.10968 -1.06098,-1.10968 -0.2824,0 -0.5524,0.11636 -0.75152,0.32442 -0.19916,0.2081 -0.31164,0.49021 -0.31164,0.78526 0,0.29391 0.11248,0.57602 0.31164,0.78529 0.19912,0.20802 0.46912,0.32443 0.75152,0.32443 z m -15.44924,-0.0833 c 0.22723,-0.0117 0.43423,-0.14341 0.54904,-0.35029 0.18453,-0.33388 0.0745,-0.76179 -0.24647,-0.95573 -0.32058,-0.19278 -0.72902,-0.0776 -0.91463,0.2574 -0.18442,0.33389 -0.0759,0.76175 0.24422,0.95578 0.1114,0.0668 0.23959,0.0987 0.36784,0.0931 z m 5.05823,-0.49253 c 0.19804,-0.0107 0.37914,-0.12463 0.47815,-0.30571 0.078,-0.13986 0.099,-0.30678 0.0591,-0.46313 -0.0399,-0.15755 -0.13838,-0.29036 -0.27225,-0.37148 -0.13504,-0.0811 -0.29477,-0.10341 -0.4444,-0.0613 -0.14965,0.0411 -0.27789,0.14462 -0.35553,0.2845 -0.0781,0.14108 -0.099,0.30801 -0.0593,0.46432 0.041,0.15635 0.13843,0.29039 0.27344,0.37151 0.0967,0.0589 0.20815,0.0866 0.32061,0.0811 z m 5.46103,-0.0589 c 0.0745,-0.002 0.14736,-0.0235 0.21036,-0.0623 0.10131,-0.0613 0.17554,-0.16108 0.20596,-0.27861 0.0285,-0.11871 0.013,-0.24334 -0.045,-0.34913 -0.059,-0.10583 -0.15423,-0.18221 -0.26781,-0.21395 -0.11249,-0.0316 -0.23286,-0.015 -0.33411,0.0456 -0.20934,0.12813 -0.28135,0.40794 -0.15977,0.62771 0.08,0.14579 0.22944,0.23396 0.39037,0.23043 z m -7.77185,-0.28327 c 0.19914,-0.01 0.37916,-0.12347 0.47816,-0.30333 0.0795,-0.13987 0.099,-0.30677 0.0603,-0.46433 -0.0397,-0.15634 -0.1384,-0.29038 -0.2723,-0.37144 -0.13394,-0.0811 -0.29366,-0.10231 -0.44434,-0.0613 -0.14966,0.0425 -0.27678,0.14457 -0.35441,0.28566 -0.16096,0.29154 -0.0646,0.66533 0.21375,0.83347 0.0966,0.059 0.20806,0.0867 0.31945,0.0811 z m 9.08702,-0.006 c 0.0622,-0.002 0.12262,-0.0202 0.17664,-0.0528 0.17779,-0.10694 0.23854,-0.34443 0.13617,-0.53015 -0.0493,-0.0893 -0.13056,-0.15516 -0.22619,-0.18106 -0.0955,-0.0271 -0.1968,-0.0127 -0.28238,0.0391 -0.0854,0.0515 -0.14739,0.13635 -0.17325,0.23624 -0.0261,0.1 -0.0106,0.20573 0.0385,0.29507 0.0673,0.12232 0.19469,0.19753 0.33088,0.194 z M 432.7726,518.405 c 0.099,-0.002 0.19465,-0.0292 0.28014,-0.0811 0.13386,-0.0811 0.23178,-0.2151 0.2723,-0.37147 0.0409,-0.15636 0.0193,-0.32329 -0.0591,-0.46433 -0.078,-0.1399 -0.20583,-0.24221 -0.35552,-0.28332 -0.14964,-0.0424 -0.30933,-0.0202 -0.44325,0.0613 -0.28013,0.16927 -0.37579,0.54192 -0.21488,0.8346 0.10687,0.19265 0.306,0.31026 0.51981,0.30433 z m -7.79774,-0.36677 c 0.19801,-0.01 0.37801,-0.12344 0.47812,-0.30331 0.078,-0.14103 0.099,-0.30798 0.0591,-0.46434 -0.0412,-0.15635 -0.13836,-0.29033 -0.27223,-0.37143 -0.13502,-0.0811 -0.29477,-0.10229 -0.44441,-0.0613 -0.1496,0.0424 -0.27791,0.14456 -0.35557,0.28562 -0.16081,0.29155 -0.0646,0.66536 0.21383,0.83346 0.0978,0.0589 0.20923,0.0866 0.32174,0.0811 z m 5.18201,-0.0482 c 0.17321,-0.008 0.3296,-0.10935 0.4162,-0.26567 0.0658,-0.12227 0.0852,-0.26683 0.0502,-0.40322 -0.036,-0.13638 -0.12147,-0.25158 -0.23742,-0.3221 -0.11702,-0.0703 -0.25531,-0.0893 -0.38581,-0.0527 -0.13053,0.0364 -0.24077,0.12578 -0.30829,0.24805 -0.0672,0.12226 -0.0852,0.26686 -0.0502,0.40322 0.0346,0.13515 0.1204,0.25152 0.23741,0.32209 0.0839,0.0502 0.17999,0.0756 0.27791,0.0703 z m 4.39899,-0.11877 c 0.0854,-0.002 0.1687,-0.0271 0.243,-0.0703 0.24302,-0.14699 0.32626,-0.4726 0.18562,-0.72532 -0.14062,-0.25391 -0.45119,-0.34095 -0.6942,-0.19395 -0.243,0.14693 -0.32623,0.47136 -0.18566,0.7253 0.0937,0.16693 0.26558,0.268 0.45124,0.26448 z m 1.55369,-0.10459 c 0.0745,-0.002 0.14509,-0.0235 0.20922,-0.0625 0.10123,-0.0613 0.17552,-0.16106 0.20586,-0.27861 0.0299,-0.11873 0.0143,-0.24334 -0.0441,-0.34914 -0.0588,-0.1058 -0.15518,-0.18341 -0.26775,-0.21397 -0.11244,-0.0314 -0.23283,-0.015 -0.3341,0.0458 -0.10129,0.0613 -0.17433,0.16217 -0.20472,0.27974 -0.0299,0.11756 -0.0131,0.24333 0.0452,0.34914 0.0802,0.14462 0.22952,0.23278 0.39048,0.22926 z m -8.26354,-0.11644 c 0.17324,-0.01 0.32961,-0.10933 0.41623,-0.26683 0.14064,-0.2539 0.0579,-0.57839 -0.18563,-0.72533 -0.11702,-0.0692 -0.2554,-0.0893 -0.38584,-0.0515 -0.12938,0.0364 -0.24077,0.12583 -0.30833,0.24686 -0.14058,0.25391 -0.0577,0.57841 0.18568,0.72532 0.0839,0.0515 0.18107,0.0765 0.27789,0.0717 z m 4.16044,-0.72643 c 0.11254,-0.002 0.2216,-0.0353 0.31954,-0.0942 0.31949,-0.1928 0.42861,-0.62071 0.24409,-0.9557 -0.18447,-0.33382 -0.59403,-0.44902 -0.91464,-0.25627 -0.15413,0.0931 -0.26668,0.24565 -0.31278,0.42554 -0.0458,0.17986 -0.0229,0.3703 0.0671,0.53135 0.1226,0.22218 0.35103,0.35614 0.59621,0.34911 z m -3.13438,0 c 0.1508,-0.007 0.2858,-0.0931 0.36109,-0.22802 0.0591,-0.1058 0.0745,-0.23162 0.0439,-0.34915 -0.0299,-0.11875 -0.10457,-0.21868 -0.20585,-0.27982 -0.21036,-0.12576 -0.47816,-0.0501 -0.59967,0.16928 -0.0588,0.10465 -0.0745,0.2304 -0.0452,0.34801 0.0299,0.11876 0.10467,0.21865 0.20481,0.27978 0.0733,0.0436 0.15751,0.0646 0.24075,0.06 z m -2.86103,-0.0117 c 0.17332,-0.008 0.33078,-0.10816 0.41738,-0.26573 0.066,-0.12107 0.0839,-0.26683 0.0494,-0.40202 -0.0346,-0.13635 -0.1204,-0.25272 -0.23621,-0.32329 -0.11702,-0.0691 -0.25656,-0.0893 -0.38591,-0.0527 -0.13053,0.0378 -0.24188,0.127 -0.30829,0.24808 -0.0672,0.12224 -0.0854,0.26683 -0.05,0.40321 0.0346,0.13638 0.12032,0.25269 0.23623,0.32209 0.0839,0.0502 0.18001,0.0757 0.27793,0.0703 z m 10.07371,-0.33282 c 0.0839,-0.002 0.16764,-0.0271 0.24189,-0.0718 0.117,-0.069 0.20137,-0.18573 0.23739,-0.3221 0.0346,-0.13519 0.0168,-0.28096 -0.0502,-0.4032 -0.14064,-0.25275 -0.45112,-0.33975 -0.69411,-0.19399 -0.11702,0.0703 -0.20257,0.1869 -0.23739,0.32326 -0.0346,0.13522 -0.0168,0.28098 0.0501,0.40322 0.0936,0.16695 0.2666,0.26924 0.45223,0.26449 z m -1.8732,-0.0942 c 0.0979,-0.002 0.19351,-0.0292 0.27789,-0.0811 0.13503,-0.0811 0.23287,-0.21397 0.27342,-0.37034 0.0398,-0.15751 0.0193,-0.32443 -0.059,-0.46434 -0.0781,-0.14101 -0.20591,-0.24332 -0.35554,-0.28566 -0.15076,-0.0412 -0.31048,-0.0202 -0.44441,0.0613 -0.13503,0.0811 -0.23289,0.21517 -0.2734,0.37147 -0.04,0.15639 -0.018,0.32327 0.0591,0.46436 0.10802,0.19394 0.30824,0.31032 0.52204,0.30445 z m -7.17339,-0.2974 c 0.14971,-0.008 0.2847,-0.0941 0.36003,-0.22924 0.0589,-0.10581 0.0745,-0.23157 0.0445,-0.34915 -0.0299,-0.11752 -0.10357,-0.21865 -0.20478,-0.27977 -0.10123,-0.0613 -0.22159,-0.0776 -0.33415,-0.0458 -0.11246,0.0316 -0.20928,0.10933 -0.26769,0.21516 -0.0592,0.10582 -0.0745,0.23039 -0.0444,0.34915 0.0299,0.11753 0.10357,0.21747 0.20481,0.27861 0.0732,0.0447 0.15747,0.0645 0.24183,0.0613 z m 0.99346,-0.41619 c 0.126,-0.006 0.2408,-0.079 0.30484,-0.19279 0.10243,-0.18574 0.041,-0.42318 -0.13722,-0.53012 -0.0854,-0.0527 -0.18677,-0.0667 -0.28237,-0.0401 -0.0955,0.0271 -0.17668,0.0918 -0.2261,0.18102 -0.0492,0.0893 -0.0632,0.19515 -0.0374,0.29504 0.0263,0.1 0.0875,0.18459 0.17324,0.2363 0.0635,0.0378 0.1339,0.0554 0.20478,0.0502 z m 2.68777,-0.30799 c 0.13161,-0.003 0.26102,-0.0424 0.3757,-0.11165 0.37694,-0.22806 0.50747,-0.73122 0.28922,-1.12617 -0.10465,-0.18929 -0.27679,-0.32802 -0.47931,-0.38444 -0.20253,-0.058 -0.41737,-0.027 -0.59961,0.0825 -0.18116,0.10933 -0.31277,0.28919 -0.36678,0.5008 -0.0539,0.21161 -0.0265,0.43732 0.0795,0.62654 0.14399,0.26097 0.41279,0.41854 0.702,0.4126 z m 5.01888,-0.27039 c 0.099,-0.002 0.19464,-0.0292 0.28008,-0.0811 0.13392,-0.0811 0.23293,-0.21394 0.27229,-0.37144 0.0408,-0.15635 0.0193,-0.32331 -0.0588,-0.46322 -0.078,-0.14101 -0.20485,-0.24331 -0.35559,-0.28561 -0.14964,-0.0425 -0.30937,-0.0202 -0.44332,0.0613 -0.13499,0.0812 -0.23281,0.2151 -0.27334,0.37144 -0.0408,0.15638 -0.0193,0.32331 0.0591,0.46435 0.10695,0.19278 0.30604,0.31033 0.51985,0.30446 z m -2.29514,-0.18922 c 0.11247,-0.002 0.22276,-0.0353 0.31947,-0.0931 0.15419,-0.0942 0.26668,-0.24687 0.31167,-0.42552 0.0461,-0.17987 0.0229,-0.37149 -0.067,-0.53257 -0.1845,-0.33382 -0.594,-0.44784 -0.91466,-0.25507 -0.31951,0.19396 -0.42984,0.6219 -0.24529,0.95571 0.12266,0.22224 0.35103,0.35621 0.59632,0.35036 z m -4.57565,-0.88638 c 0.15197,-0.004 0.30043,-0.0482 0.43208,-0.12693 0.20932,-0.12583 0.36113,-0.33388 0.42412,-0.57723 0.063,-0.24334 0.0299,-0.50196 -0.0912,-0.72058 -0.12039,-0.21867 -0.31838,-0.3774 -0.55123,-0.44204 -0.23286,-0.0658 -0.48148,-0.0317 -0.6897,0.0951 -0.43421,0.26216 -0.58276,0.84171 -0.33182,1.29546 0.16531,0.30094 0.47582,0.48314 0.80768,0.47609 z m 6.10463,-0.40436 c 0.11248,-0.003 0.22156,-0.0353 0.31948,-0.0951 0.31953,-0.19281 0.42866,-0.62072 0.24414,-0.95571 -0.18448,-0.33388 -0.59407,-0.4491 -0.91464,-0.25628 -0.32066,0.19281 -0.42982,0.62064 -0.24526,0.9557 0.12147,0.22218 0.35103,0.35732 0.59628,0.35147 z m -2.81606,-0.17048 c 0.13277,-0.003 0.26215,-0.0412 0.37695,-0.11045 0.37686,-0.22687 0.50625,-0.73123 0.28908,-1.12623 -0.1046,-0.18923 -0.27784,-0.32795 -0.47925,-0.38438 -0.20248,-0.0566 -0.41851,-0.0272 -0.59967,0.0821 -0.18114,0.10934 -0.31385,0.29037 -0.36786,0.50194 -0.0539,0.21045 -0.0264,0.43613 0.0798,0.62539 0.144,0.26096 0.41295,0.4185 0.70096,0.41143 z m -5.77034,-0.42087 c 0.17665,-0.004 0.35099,-0.0566 0.50401,-0.14927 0.50738,-0.30561 0.68173,-0.98387 0.38923,-1.51409 -0.29356,-0.53014 -0.94283,-0.71239 -1.45014,-0.40556 -0.50744,0.30567 -0.68072,0.98394 -0.38819,1.51409 0.19348,0.35143 0.55577,0.56426 0.94509,0.55482 z m 7.29933,-0.87107 c 0.13157,-0.003 0.261,-0.0412 0.37577,-0.11048 0.37802,-0.22686 0.50742,-0.73119 0.2891,-1.1262 -0.10463,-0.18925 -0.27673,-0.32797 -0.47929,-0.38437 -0.20248,-0.0566 -0.41738,-0.0271 -0.59958,0.0821 -0.18117,0.10933 -0.31281,0.28919 -0.36681,0.50082 -0.0539,0.21158 -0.0264,0.4373 0.0795,0.62658 0.14514,0.26095 0.41399,0.41844 0.702,0.41139 z m -3.3808,-0.0541 c 0.15184,-0.003 0.30147,-0.0483 0.43205,-0.12693 0.43537,-0.26214 0.58381,-0.8417 0.33412,-1.29663 -0.12039,-0.21745 -0.31948,-0.37735 -0.55244,-0.44317 -0.23289,-0.0644 -0.48036,-0.0306 -0.6896,0.0951 -0.20928,0.12578 -0.36121,0.33387 -0.42301,0.5772 -0.0627,0.24335 -0.0285,0.50199 0.0913,0.7206 0.16648,0.29983 0.47588,0.48201 0.80778,0.47375 z"
       id="start-here-kde-9-7-3-6-1-8" />
  </g>
</svg>
