<?xml version="1.0" encoding="UTF-8" standalone="no"?>
<svg
   width="64"
   version="1.1"
   height="64"
   id="svg16"
   sodipodi:docname="folder-java.svg"
   inkscape:version="1.2.2 (b0a8486541, 2022-12-01)"
   xmlns:inkscape="http://www.inkscape.org/namespaces/inkscape"
   xmlns:sodipodi="http://sodipodi.sourceforge.net/DTD/sodipodi-0.dtd"
   xmlns:xlink="http://www.w3.org/1999/xlink"
   xmlns="http://www.w3.org/2000/svg"
   xmlns:svg="http://www.w3.org/2000/svg"
   xmlns:rdf="http://www.w3.org/1999/02/22-rdf-syntax-ns#"
   xmlns:cc="http://creativecommons.org/ns#"
   xmlns:dc="http://purl.org/dc/elements/1.1/">
  <sodipodi:namedview
     pagecolor="#ffffff"
     bordercolor="#666666"
     borderopacity="1"
     objecttolerance="10"
     gridtolerance="10"
     guidetolerance="10"
     inkscape:pageopacity="0"
     inkscape:pageshadow="2"
     inkscape:window-width="1920"
     inkscape:window-height="994"
     id="namedview18"
     showgrid="true"
     inkscape:zoom="4.90625"
     inkscape:cx="-52.89172"
     inkscape:cy="14.471338"
     inkscape:window-x="0"
     inkscape:window-y="0"
     inkscape:window-maximized="1"
     inkscape:current-layer="layer1-2"
     inkscape:document-rotation="0"
     inkscape:showpageshadow="2"
     inkscape:pagecheckerboard="0"
     inkscape:deskcolor="#d1d1d1">
    <inkscape:grid
       type="xygrid"
       id="grid1438" />
  </sodipodi:namedview>
  <defs
     id="defs5455">
    <linearGradient
       inkscape:collect="always"
       id="linearGradient16919">
      <stop
         style="stop-color:#d08770;stop-opacity:1;"
         offset="0"
         id="stop16915" />
      <stop
         style="stop-color:#e6beb2;stop-opacity:1;"
         offset="0.50679404"
         id="stop16921" />
      <stop
         style="stop-color:#d08770;stop-opacity:1;"
         offset="1"
         id="stop16917" />
    </linearGradient>
    <linearGradient
       inkscape:collect="always"
       id="linearGradient16913">
      <stop
         style="stop-color:#d08770;stop-opacity:1;"
         offset="0"
         id="stop16909" />
      <stop
         style="stop-color:#ffb380;stop-opacity:1"
         offset="1"
         id="stop16911" />
    </linearGradient>
    <linearGradient
       id="linearGradient4172-0">
      <stop
         style="stop-color:#f89406"
         id="stop4174-4" />
      <stop
         offset="1"
         style="stop-color:#faa938"
         id="stop4176-5" />
    </linearGradient>
    <linearGradient
       inkscape:collect="always"
       xlink:href="#linearGradient16919"
       id="linearGradient1419"
       x1="0.52915627"
       y1="5.0269842"
       x2="16.403845"
       y2="5.0269842"
       gradientUnits="userSpaceOnUse"
       gradientTransform="matrix(3.779602,0,0,3.8662747,384.57143,480.4999)" />
    <clipPath
       clipPathUnits="userSpaceOnUse"
       id="clipPath79425-9-5-3">
      <rect
         style="opacity:0.5;fill:#000000;fill-opacity:1;stroke:none;stroke-width:0.855869;stroke-dasharray:none;stroke-opacity:1;paint-order:stroke fill markers"
         id="rect79427-1-9-6"
         width="26.417742"
         height="29.037542"
         x="-16.227774"
         y="-6.4845476" />
    </clipPath>
    <filter
       inkscape:collect="always"
       style="color-interpolation-filters:sRGB"
       id="filter77953-2-4-7"
       x="-0.040508607"
       y="-0.067265661"
       width="1.0810172"
       height="1.1345313">
      <feGaussianBlur
         inkscape:collect="always"
         stdDeviation="0.44602907"
         id="feGaussianBlur77955-7-9-5" />
    </filter>
    <clipPath
       clipPathUnits="userSpaceOnUse"
       id="clipPath79425-9-5-5">
      <rect
         style="opacity:0.5;fill:#000000;fill-opacity:1;stroke:none;stroke-width:0.855869;stroke-dasharray:none;stroke-opacity:1;paint-order:stroke fill markers"
         id="rect79427-1-9-62"
         width="26.417742"
         height="29.037542"
         x="-16.227774"
         y="-6.4845476" />
    </clipPath>
    <filter
       inkscape:collect="always"
       style="color-interpolation-filters:sRGB"
       id="filter77953-2-4-9"
       x="-0.040520865"
       y="-0.064907304"
       width="1.0810417"
       height="1.1298146">
      <feGaussianBlur
         inkscape:collect="always"
         stdDeviation="0.44602907"
         id="feGaussianBlur77955-7-9-1" />
    </filter>
    <linearGradient
       inkscape:collect="always"
       xlink:href="#linearGradient16913"
       id="linearGradient1662"
       gradientUnits="userSpaceOnUse"
       gradientTransform="matrix(3.7757185,0,0,3.9032702,384.57656,479.89312)"
       x1="1.3228925"
       y1="15.091164"
       x2="9.3259869"
       y2="4.269978" />
  </defs>
  <metadata
     id="metadata5458">
    <rdf:RDF>
      <cc:Work
         rdf:about="">
        <dc:format>image/svg+xml</dc:format>
        <dc:type
           rdf:resource="http://purl.org/dc/dcmitype/StillImage" />
      </cc:Work>
    </rdf:RDF>
  </metadata>
  <g
     inkscape:label="Capa 1"
     inkscape:groupmode="layer"
     id="layer1-2"
     transform="translate(-384.57143,-483.79801)">
    <path
       id="path32082-9"
       style="fill:url(#linearGradient1419);fill-opacity:1.0;stroke:none;stroke-width:5.11694;stroke-linecap:round;stroke-linejoin:round;stroke-opacity:0.03"
       d="m 393.57143,493.79801 c -4,0 -7,3.06879 -7,7.16052 v 5.11466 c 0,0 2,-5.11466 5,-5.11466 h 8 12 6 24 c 3,0 5,2.04586 5,5.11466 v 0 0 -5.11466 c 0,-4.09173 -3,-7.16052 -7,-7.16052 h -24.07114 -5.92886 -9 z"
       sodipodi:nodetypes="sccsccccccccccccs" />
    <rect
       x="410.57138"
       y="494.82092"
       width="12"
       height="2.0458624"
       ry="1.0248643"
       stroke-width="3.41941"
       style="fill:#222638;fill-opacity:1;paint-order:stroke markers fill"
       id="rect12-5-9-3-9" />
    <path
       d="m 418.30476,497.88974 h -3.46666 -4.33334 -16.93333 c -2,0 -3,1.02292 -3,3.06879 v 0 0 h 52 v 0 0 c 0,-2.04587 -1,-3.06879 -3,-3.06879 z"
       style="fill:#222638;fill-opacity:1;stroke-width:2.33915;paint-order:markers stroke fill"
       id="path8-7-2-9-6-1-7-5"
       sodipodi:nodetypes="cccccccccccc"
       opacity="0.6" />
    <path
       style="display:inline;fill:#ffffff;fill-opacity:1;stroke:none;stroke-width:2.77827;stroke-linecap:round;stroke-linejoin:round;stroke-opacity:0.03;filter:url(#filter77953-2-4-7)"
       d="m -14.025629,3.0793846 h 6.1660045 4.8447182 3.08300239 7.92771991 c 1.3212868,0 2.202145,0.9435823 2.202145,2.3589558 l -0.0082,11.1961006 c 0.0082,1.415373 -1.496833,2.225381 -2.6343739,2.232069 L -14.02563,18.993397 c -1.321286,0.0078 -2.202145,-0.943583 -2.202145,-2.358956 l 1e-6,-11.3229881 c -1e-6,-1.288486 0.882451,-2.2155179 2.202145,-2.2320683 z"
       id="path1611-1-8-0-7-3"
       clip-path="url(#clipPath79425-9-5-3)"
       transform="matrix(2.270514,0,0,2.1681872,423.41682,494.28185)"
       sodipodi:nodetypes="cccccccssccc" />
    <path
       style="display:inline;fill:#4f4f4f;fill-opacity:1;stroke:none;stroke-width:2.77827;stroke-linecap:round;stroke-linejoin:round;stroke-opacity:0.03;filter:url(#filter77953-2-4-9)"
       d="m -14.026297,2.5011118 6.1666725,0.1211316 H -3.014907 0.06809547 L 7.9884881,2.5011118 C 9.3097749,2.5157128 10.189967,3.444358 10.189967,4.874457 l -2.06e-4,11.759984 c 0.0082,1.415373 -0.872618,2.358956 -2.6343739,2.358956 H -14.02563 c -1.321306,0 -2.202145,-0.943583 -2.202145,-2.358956 V 4.874457 c 0,-1.4240071 0.880591,-2.3733452 2.201478,-2.3733452 z"
       id="path1611-1-8-0-7-2"
       clip-path="url(#clipPath79425-9-5-5)"
       transform="matrix(2.271201,0,0,2.155042,423.42797,495.56853)"
       sodipodi:nodetypes="cccccccssccc" />
    <path
       d="m 418.57143,500.95853 h -4 -5 -18 c -3,0 -4.99999,2.04587 -4.99999,5.11466 v 26.59622 c 0,3.06876 1.99999,5.11463 4.99999,5.11463 h 49.99999 c 3,0 5,-2.04587 5,-5.11463 v -26.59622 c 0,-3.06879 -2,-5.11466 -5,-5.11466 z"
       style="fill:url(#linearGradient1662);fill-opacity:1;stroke-width:3.83803;paint-order:markers stroke fill"
       id="path8-7-2-9-6-1-9"
       sodipodi:nodetypes="ccccsssssscc"
       opacity="0.6" />
    <path
       d="m 386.57143,518.74801 17.1,19 h -10e-6 0.65001 l -17.75,-19.65 v 0 0 z"
       id="path2653-4"
       style="fill:#bac8df;fill-opacity:1;stroke-width:0.48092"
       sodipodi:nodetypes="cccccccc" />
    <path
       d="m 386.57143,524.79795 11.48548,12.98879 -1e-5,0.0113 0.64953,-0.006 v 0.006 l -12.12986,-13.65007 v 0 0 z"
       id="path2653-4-3"
       style="fill:#bac8df;fill-opacity:1;stroke-width:0.330034"
       sodipodi:nodetypes="ccccccccc" />
    <path
       d="m 438.38855,527.8173 h -17.87036 c -0.24618,0 -0.44676,-0.34953 -0.44676,-0.59571 0,-0.2461 0.2006,-0.59562 0.44676,-0.59562 h 17.87036 c 0.24618,0 0.4467,0.34952 0.4467,0.59562 0,0.24618 -0.20052,0.59571 -0.4467,0.59571 z"
       id="path2-3-2-4"
       style="color:#eff0f1;fill:#d8f0f3;fill-opacity:1;stroke-width:0.044676"
       sodipodi:nodetypes="sssssss"
       class="ColorScheme-Text" />
    <path
       d="m 435.70932,524.5411 h -0.002 c -0.23586,0 -0.43151,-0.18457 -0.44546,-0.42042 -0.0152,-0.24577 0.17334,-0.45751 0.41957,-0.47227 h 4.1e-4 c 0.002,-4.6e-4 0.007,-8.7e-4 0.0152,-9.7e-4 0.021,-0.002 0.0435,-0.004 0.0682,-0.007 0.0573,-0.006 0.15189,-0.0203 0.27387,-0.0443 0.21849,-0.0432 0.56162,-0.12923 0.95649,-0.29043 1.01511,-0.41551 1.84202,-1.09365 2.45675,-2.01529 0.68445,-1.0173 0.72694,-1.51591 0.72373,-1.64458 -8.9e-4,-0.118 -0.0245,-0.1742 -0.0477,-0.21399 -0.0287,-0.0465 -0.0672,-0.0812 -0.12866,-0.11613 -0.13269,-0.0778 -0.38825,-0.12601 -0.66791,-0.12601 -0.006,0 -0.0135,0 -0.0199,0 h -0.009 c -0.54953,0 -1.18841,0.15767 -1.29113,0.18848 -0.004,9e-4 -0.004,9e-4 -0.004,9e-4 -0.0399,0.0116 -0.0815,0.0175 -0.12287,0.0175 -0.19834,0 -0.37481,-0.13315 -0.42934,-0.32399 -0.0335,-0.11476 -0.019,-0.23539 0.0386,-0.33992 0.0577,-0.10438 0.15325,-0.17962 0.26805,-0.21266 8.9e-4,0 0.007,-0.002 0.0167,-0.004 0.24256,-0.0657 0.87743,-0.21802 1.53458,-0.22031 0.33466,9.2e-4 0.60409,0.0386 0.84841,0.11936 0.2279,0.0748 0.54014,0.23226 0.73448,0.55661 0.11528,0.19075 0.176,0.424 0.17513,0.67373 -0.006,0.57588 -0.27614,1.23572 -0.8739,2.13995 -0.39271,0.58972 -0.87068,1.1017 -1.42023,1.52216 -0.44095,0.33727 -0.92609,0.61472 -1.44209,0.82515 -0.83412,0.33993 -1.47614,0.39936 -1.59629,0.40785 h -0.002 c -0.008,4.2e-4 -0.0175,8.9e-4 -0.0253,8.9e-4 z"
       id="path6-6-9-5"
       style="color:#eff0f1;fill:#d8f0f3;fill-opacity:1;stroke-width:0.044676"
       class="ColorScheme-Text" />
    <path
       d="m 437.94179,517.39294 h -9.38188 c -0.24625,0 -0.44677,-0.20059 -0.44677,-0.44677 0,-0.24618 0.20052,-0.44678 0.44677,-0.44678 h 8.56287 v -1.34032 H 421.784 v 1.34032 h 2.30826 c 0.24618,0 0.44676,0.2006 0.44676,0.44678 0,0.24618 -0.20058,0.44677 -0.44676,0.44677 h -3.12727 c -0.11753,0 -0.23281,-0.0477 -0.31587,-0.13097 -0.0832,-0.0832 -0.13091,-0.19834 -0.13091,-0.3158 v -2.23379 c 0,-0.11754 0.0477,-0.60492 0.13091,-0.68805 0.0832,-0.0832 0.19834,-0.13105 0.31587,-0.13105 h 16.97681 c 0.11752,0 0.23278,0.0479 0.31582,0.13105 0.0832,0.0832 0.13094,0.57051 0.13094,0.68805 v 2.23379 c 0,0.11746 -0.0477,0.23271 -0.13094,0.3158 -0.0831,0.0832 -0.19832,0.13097 -0.31583,0.13097 z m -11.61575,0 c -0.24664,0 -0.44677,-0.20059 -0.44677,-0.44677 0,-0.24618 0.20013,-0.44678 0.44677,-0.44678 0.24618,0 0.44677,0.2006 0.44677,0.44678 0,0.24618 -0.20059,0.44677 -0.44677,0.44677 z"
       id="path10-7-3-0"
       style="color:#eff0f1;fill:#d8f0f3;fill-opacity:1;stroke-width:0.044676"
       sodipodi:nodetypes="ssssccccsssssssssscsscssssss"
       class="ColorScheme-Text" />
    <path
       d="m 428.5599,515.15907 c -0.24624,0 -0.44676,-0.20052 -0.44676,-0.44669 v -0.89355 c 0,-0.3578 0.13932,-0.69467 0.39271,-0.94755 0.2528,-0.25292 0.58926,-0.39271 0.94753,-0.39271 h 5.36114 c 0.24564,-4.5e-4 0.44631,-0.20106 0.44676,-0.44677 -4.8e-4,-0.2457 -0.20115,-0.4463 -0.44676,-0.44669 h -8.48849 c -0.35783,0 -0.69467,-0.13946 -0.94758,-0.39273 -0.25327,-0.25293 -0.39264,-0.58927 -0.39264,-0.9476 0,-0.24617 0.20059,-0.44677 0.44668,-0.44677 0.24624,0 0.44678,0.2006 0.44678,0.44677 4.7e-4,0.24572 0.20107,0.44631 0.44676,0.44678 h 8.48849 c 0.35826,0 0.69467,0.13932 0.94753,0.39271 0.25333,0.2528 0.39271,0.58967 0.39271,0.94753 0,0.35833 -0.13938,0.69468 -0.39271,0.94761 -0.25286,0.25326 -0.58927,0.39264 -0.94753,0.39264 h -5.36114 c -0.24576,4.6e-4 -0.4463,0.20107 -0.44678,0.44678 v 0.89355 c 0,0.24617 -0.20059,0.44669 -0.4467,0.44669 z"
       id="path14-5-9-3"
       style="color:#eff0f1;fill:#d8f0f3;fill-opacity:1;stroke-width:0.044676"
       class="ColorScheme-Text" />
    <path
       d="m 430.82854,527.66837 h -2.71501 c -0.0327,0 -0.0577,-0.002 -0.0898,-0.008 -1.01458,-0.20818 -1.98849,-0.62947 -2.89448,-1.2518 -0.87886,-0.60405 -1.577,-1.24596 -2.25115,-2.16797 -0.19902,-0.29429 -0.0495,-0.64714 0.16056,-0.81619 0.0766,-0.0561 0.23871,-0.12936 0.40736,-0.17577 0.17018,-0.0469 0.42596,0.0688 0.51002,0.18317 1.23394,1.68745 2.43839,2.5986 4.20354,2.97168 h 2.62287 c 1.7638,-0.37343 3.03931,-1.13999 4.26659,-2.83362 1.24823,-1.72182 1.98127,-3.91541 2.06479,-6.17602 h -15.32985 c 0.0295,0.78093 0.14448,1.55786 0.32541,2.30926 0.007,0.0351 0.0125,0.0708 0.0125,0.10642 -0.0695,0.23732 -0.28591,0.3656 -0.48691,0.41386 -0.0347,0.007 -0.14833,0.0315 -0.18323,0.0315 -0.20731,0 -0.53476,-0.14073 -0.58345,-0.34221 -0.20099,-0.8359 -0.31627,-1.69951 -0.3435,-2.56665 -0.004,-0.15144 -0.006,-0.27832 -0.006,-0.39848 0,-0.11753 0.0478,-0.2328 0.13097,-0.31587 0.0832,-0.0832 0.19829,-0.1309 0.31574,-0.1309 h 16.97685 c 0.11761,0 0.23286,0.0477 0.3159,0.13088 0.0832,0.0832 0.13086,0.19836 0.13086,0.31589 0,0.12104 -0.002,0.24792 -0.006,0.39848 -0.0386,1.25361 -0.25779,2.48129 -0.65093,3.64776 -0.38106,1.13031 -0.91453,2.17346 -1.58599,3.10094 -0.67105,0.92615 -1.45603,1.70305 -2.33299,2.30932 -0.90472,0.62545 -1.87821,1.04808 -2.89363,1.25671 -0.032,0.006 -0.0573,0.008 -0.0898,0.008 z m -8.80169,-5.30529 c -0.17509,0 -0.33454,-0.10284 -0.40696,-0.26174 v -4.6e-4 c -0.05,-0.10853 -0.0537,-0.23009 -0.0116,-0.34138 0.042,-0.1117 0.12468,-0.20053 0.23366,-0.25019 0.0585,-0.0261 0.12063,-0.0394 0.18454,-0.0394 0.17463,0 0.33461,0.10285 0.40697,0.26183 v 4.8e-4 c 0.1021,0.22421 0.002,0.4891 -0.22203,0.59102 -0.0582,0.0268 -0.12063,0.0399 -0.18453,0.0399 z"
       id="path22-3-0-6"
       style="color:#eff0f1;fill:#d8f0f3;fill-opacity:1;stroke-width:0.044676"
       sodipodi:nodetypes="ssccccscccccccccsccsssscscccccssccccscccs"
       class="ColorScheme-Text" />
    <path
       d="m 436.82491,519.62673 h -9.82873 c -0.24618,0 -0.44676,-0.20066 -0.44676,-0.44677 0,-0.24617 0.20058,-0.44678 0.44676,-0.44678 h 9.82873 c 0.24612,0 0.44671,0.20061 0.44671,0.44678 0,0.24611 -0.2006,0.44677 -0.44671,0.44677 z"
       id="path26-5-8-1"
       style="color:#eff0f1;fill:#d8f0f3;fill-opacity:1;stroke-width:0.044676"
       class="ColorScheme-Text" />
  </g>
</svg>
