<?xml version="1.0" encoding="UTF-8" standalone="no"?>
<svg
   width="64"
   version="1.1"
   height="64"
   id="svg17"
   sodipodi:docname="folder-presentation.svg"
   inkscape:version="1.2.2 (b0a8486541, 2022-12-01)"
   xmlns:inkscape="http://www.inkscape.org/namespaces/inkscape"
   xmlns:sodipodi="http://sodipodi.sourceforge.net/DTD/sodipodi-0.dtd"
   xmlns:xlink="http://www.w3.org/1999/xlink"
   xmlns="http://www.w3.org/2000/svg"
   xmlns:svg="http://www.w3.org/2000/svg"
   xmlns:rdf="http://www.w3.org/1999/02/22-rdf-syntax-ns#"
   xmlns:cc="http://creativecommons.org/ns#"
   xmlns:dc="http://purl.org/dc/elements/1.1/">
  <sodipodi:namedview
     pagecolor="#ffffff"
     bordercolor="#666666"
     borderopacity="1"
     objecttolerance="10"
     gridtolerance="10"
     guidetolerance="10"
     inkscape:pageopacity="0"
     inkscape:pageshadow="2"
     inkscape:window-width="1920"
     inkscape:window-height="994"
     id="namedview19"
     showgrid="true"
     inkscape:zoom="3.4692426"
     inkscape:cx="-93.824514"
     inkscape:cy="-5.1884524"
     inkscape:window-x="0"
     inkscape:window-y="0"
     inkscape:window-maximized="1"
     inkscape:current-layer="layer1"
     inkscape:document-rotation="0"
     inkscape:showpageshadow="2"
     inkscape:pagecheckerboard="0"
     inkscape:deskcolor="#d1d1d1">
    <inkscape:grid
       type="xygrid"
       id="grid931" />
  </sodipodi:namedview>
  <defs
     id="defs5455">
    <linearGradient
       inkscape:collect="always"
       id="linearGradient32287">
      <stop
         style="stop-color:#3771c8;stop-opacity:1;"
         offset="0"
         id="stop32283" />
      <stop
         style="stop-color:#00ccff;stop-opacity:1;"
         offset="0.51433659"
         id="stop32289" />
      <stop
         style="stop-color:#3771c8;stop-opacity:1"
         offset="1"
         id="stop32285" />
    </linearGradient>
    <linearGradient
       inkscape:collect="always"
       xlink:href="#linearGradient32287"
       id="linearGradient1419"
       x1="0.52915627"
       y1="5.0269842"
       x2="16.403845"
       y2="5.0269842"
       gradientUnits="userSpaceOnUse"
       gradientTransform="matrix(3.779602,0,0,3.8662747,384.57143,480.49989)" />
    <linearGradient
       inkscape:collect="always"
       id="linearGradient2303">
      <stop
         style="stop-color:#00ccff;stop-opacity:1"
         offset="0"
         id="stop2299" />
      <stop
         style="stop-color:#3771c8;stop-opacity:1"
         offset="1"
         id="stop2301" />
    </linearGradient>
    <clipPath
       clipPathUnits="userSpaceOnUse"
       id="clipPath79425-9-5-3">
      <rect
         style="opacity:0.5;fill:#000000;fill-opacity:1;stroke:none;stroke-width:0.855869;stroke-dasharray:none;stroke-opacity:1;paint-order:stroke fill markers"
         id="rect79427-1-9-6"
         width="26.417742"
         height="29.037542"
         x="-16.227774"
         y="-6.4845476" />
    </clipPath>
    <filter
       inkscape:collect="always"
       style="color-interpolation-filters:sRGB"
       id="filter77953-2-4-7"
       x="-0.040508607"
       y="-0.067265661"
       width="1.0810172"
       height="1.1345313">
      <feGaussianBlur
         inkscape:collect="always"
         stdDeviation="0.44602907"
         id="feGaussianBlur77955-7-9-5" />
    </filter>
    <clipPath
       clipPathUnits="userSpaceOnUse"
       id="clipPath79425-9-5-5">
      <rect
         style="opacity:0.5;fill:#000000;fill-opacity:1;stroke:none;stroke-width:0.855869;stroke-dasharray:none;stroke-opacity:1;paint-order:stroke fill markers"
         id="rect79427-1-9-62"
         width="26.417742"
         height="29.037542"
         x="-16.227774"
         y="-6.4845476" />
    </clipPath>
    <filter
       inkscape:collect="always"
       style="color-interpolation-filters:sRGB"
       id="filter77953-2-4-9"
       x="-0.040520865"
       y="-0.064907304"
       width="1.0810417"
       height="1.1298146">
      <feGaussianBlur
         inkscape:collect="always"
         stdDeviation="0.44602907"
         id="feGaussianBlur77955-7-9-1" />
    </filter>
    <linearGradient
       inkscape:collect="always"
       xlink:href="#linearGradient2303"
       id="linearGradient1662"
       gradientUnits="userSpaceOnUse"
       gradientTransform="matrix(3.7757185,0,0,3.9032702,384.57656,479.89311)"
       x1="386.57144"
       y1="519.37127"
       x2="446.57142"
       y2="519.37127" />
  </defs>
  <metadata
     id="metadata5458">
    <rdf:RDF>
      <cc:Work
         rdf:about="">
        <dc:format>image/svg+xml</dc:format>
        <dc:type
           rdf:resource="http://purl.org/dc/dcmitype/StillImage" />
      </cc:Work>
    </rdf:RDF>
  </metadata>
  <g
     inkscape:label="Capa 1"
     inkscape:groupmode="layer"
     id="layer1"
     transform="translate(-384.57143,-483.798)">
    <path
       id="path32082-9"
       style="fill:url(#linearGradient1419);fill-opacity:1;stroke:none;stroke-width:5.11694;stroke-linecap:round;stroke-linejoin:round;stroke-opacity:0.03"
       d="m 393.57143,493.798 c -4,0 -7,3.06879 -7,7.16052 v 5.11466 c 0,0 2,-5.11466 5,-5.11466 h 8 12 6 24 c 3,0 5,2.04586 5,5.11466 v 0 0 -5.11466 c 0,-4.09173 -3,-7.16052 -7,-7.16052 h -24.07114 -5.92886 -9 z"
       sodipodi:nodetypes="sccsccccccccccccs" />
    <rect
       x="410.57138"
       y="494.82092"
       width="12"
       height="2.0458624"
       ry="1.0248643"
       stroke-width="3.41941"
       style="fill:#222638;fill-opacity:1;paint-order:stroke markers fill"
       id="rect12-5-9-3-9" />
    <path
       d="m 418.30476,497.88973 h -3.46666 -4.33334 -16.93333 c -2,0 -3,1.02292 -3,3.06879 v 0 0 h 52 v 0 0 c 0,-2.04587 -1,-3.06879 -3,-3.06879 z"
       style="fill:#222638;fill-opacity:1;stroke-width:2.33915;paint-order:markers stroke fill"
       id="path8-7-2-9-6-1-7-5"
       sodipodi:nodetypes="cccccccccccc"
       opacity="0.6" />
    <path
       style="display:inline;fill:#ffffff;fill-opacity:1;stroke:none;stroke-width:2.77827;stroke-linecap:round;stroke-linejoin:round;stroke-opacity:0.03;filter:url(#filter77953-2-4-7)"
       d="m -14.025629,3.0793846 h 6.1660045 4.8447182 3.08300239 7.92771991 c 1.3212868,0 2.202145,0.9435823 2.202145,2.3589558 l -0.0082,11.1961006 c 0.0082,1.415373 -1.496833,2.225381 -2.6343739,2.232069 L -14.02563,18.993397 c -1.321286,0.0078 -2.202145,-0.943583 -2.202145,-2.358956 l 1e-6,-11.3229881 c -1e-6,-1.288486 0.882451,-2.2155179 2.202145,-2.2320683 z"
       id="path1611-1-8-0-7-3"
       clip-path="url(#clipPath79425-9-5-3)"
       transform="matrix(2.270514,0,0,2.1681872,423.41682,494.28184)"
       sodipodi:nodetypes="cccccccssccc" />
    <path
       style="display:inline;fill:#4f4f4f;fill-opacity:1;stroke:none;stroke-width:2.77827;stroke-linecap:round;stroke-linejoin:round;stroke-opacity:0.03;filter:url(#filter77953-2-4-9)"
       d="m -14.026297,2.5011118 6.1666725,0.1211316 H -3.014907 0.06809547 L 7.9884881,2.5011118 C 9.3097749,2.5157128 10.189967,3.444358 10.189967,4.874457 l -2.06e-4,11.759984 c 0.0082,1.415373 -0.872618,2.358956 -2.6343739,2.358956 H -14.02563 c -1.321306,0 -2.202145,-0.943583 -2.202145,-2.358956 V 4.874457 c 0,-1.4240071 0.880591,-2.3733452 2.201478,-2.3733452 z"
       id="path1611-1-8-0-7-2"
       clip-path="url(#clipPath79425-9-5-5)"
       transform="matrix(2.271201,0,0,2.155042,423.42797,495.56852)"
       sodipodi:nodetypes="cccccccssccc" />
    <path
       d="m 418.57143,500.95852 h -4 -5 -18 c -3,0 -4.99999,2.04587 -4.99999,5.11466 v 26.59622 c 0,3.06876 1.99999,5.11463 4.99999,5.11463 h 49.99999 c 3,0 5,-2.04587 5,-5.11463 v -26.59622 c 0,-3.06879 -2,-5.11466 -5,-5.11466 z"
       style="fill:url(#linearGradient1662);fill-opacity:1;stroke-width:3.83803;paint-order:markers stroke fill"
       id="path8-7-2-9-6-1-9"
       sodipodi:nodetypes="ccccsssssscc"
       opacity="0.6" />
    <path
       d="m 386.57143,518.748 17.1,19 h -10e-6 0.65001 l -17.75,-19.65 v 0 0 z"
       id="path2653-4"
       style="fill:#bac8df;fill-opacity:1;stroke-width:0.48092"
       sodipodi:nodetypes="cccccccc" />
    <path
       d="m 386.57143,524.79794 11.48548,12.98879 -1e-5,0.0113 0.64953,-0.006 v 0.006 l -12.12986,-13.65007 v 0 0 z"
       id="path2653-4-3"
       style="fill:#bac8df;fill-opacity:1;stroke-width:0.330034"
       sodipodi:nodetypes="ccccccccc" />
    <path
       fill-rule="evenodd"
       clip-rule="evenodd"
       d="m 438.00065,528.298 h -9.64346 c -0.35454,0 -0.64226,-0.28852 -0.64226,-0.64286 0,-0.3553 0.28772,-0.64321 0.64226,-0.64321 h 9.64346 c 0.71003,0 1.28571,-0.57568 1.28571,-1.28568 v -12.8571 c 0,-0.71008 -0.57568,-1.28538 -1.28571,-1.28538 h -12.85747 c -0.70984,0 -1.28584,0.5753 -1.28584,1.28538 v 12.21424 c 0,0.35531 -0.2876,0.64287 -0.64289,0.64287 -0.3547,0 -0.64302,-0.28756 -0.64302,-0.64287 v -12.21424 c 0,-1.42008 1.15184,-2.57115 2.57175,-2.57115 h 12.85747 c 1.41971,0 2.57078,1.15107 2.57078,2.57115 v 12.8571 c 0,1.42008 -1.15107,2.57175 -2.57078,2.57175 z m -12.21445,-1.28607 c 0.35453,0 0.64285,0.28791 0.64285,0.64321 0,0.35434 -0.28832,0.64286 -0.64285,0.64286 -0.35538,0 -0.64302,-0.28852 -0.64302,-0.64286 0,-0.3553 0.28764,-0.64321 0.64302,-0.64321 z"
       id="path2-7-4"
       style="fill:#d8f0f3;fill-opacity:1;stroke-width:0.0401785" />
    <path
       fill-rule="evenodd"
       clip-rule="evenodd"
       d="m 436.10593,521.96793 c -0.16568,0 -0.3,-0.13439 -0.3,-0.30007 v -4.79996 c 0,-0.16568 -0.13433,-0.29997 -0.3,-0.29997 h -0.6 c -0.16564,0 -0.3,0.13429 -0.3,0.29997 v 6.14996 c 0,0.4143 -0.3357,0.75007 -0.75,0.75007 h -0.3 c -0.41422,0 -0.75,-0.33577 -0.75,-0.75007 v -3.15 c 0,-0.16567 -0.13432,-0.29997 -0.3,-0.29997 h -0.6 c -0.16567,0 -0.3,0.1343 -0.3,0.29997 v 3.15 c 0,0.4143 -0.33578,0.75007 -0.75,0.75007 h -0.3 c -0.4143,0 -0.75,-0.33577 -0.75,-0.75007 v -1.94993 c 0,-0.1657 -0.13436,-0.30007 -0.3,-0.30007 h -0.6 c -0.16567,0 -0.3,0.13436 -0.3,0.30007 v 2.09997 c 0,0.33135 -0.26866,0.60003 -0.6,0.60003 -0.6627,0 -1.2,-0.53734 -1.2,-1.20007 v -5.4 -2.09997 c 0,-0.16567 0.13433,-0.29996 0.3,-0.29996 0.16568,0 0.3,0.13429 0.3,0.29996 v 1.06189 1.03808 5.4 c 0,0.33135 0.23115,0.60003 0.45,0.60003 0.0825,0 0.15,-0.0667 0.15,-0.15003 v -2.09997 c 0,-0.41426 0.3357,-0.74996 0.75,-0.74996 h 0.9 c 0.41426,0 0.75,0.3357 0.75,0.74996 v 1.95005 c 0,0.16567 0.13433,0.29995 0.3,0.29995 0.16567,0 0.3,-0.13428 0.3,-0.29995 v -3.15001 c 0,-0.4143 0.33578,-0.75007 0.75,-0.75007 h 0.9 c 0.41422,0 0.75,0.33577 0.75,0.75007 v 3.15001 c 0,0.16567 0.13432,0.29995 0.3,0.29995 0.16567,0 0.3,-0.13428 0.3,-0.29995 v -6.15008 c 0,-0.41419 0.33574,-0.74997 0.75,-0.74997 h 0.9 c 0.4143,0 0.75,0.33578 0.75,0.74997 v 4.95 c 0,0.16568 -0.13433,0.30007 -0.3,0.30007 z m 0,0.59993 c 0.16567,0 0.3,0.13436 0.3,0.30007 0,0.16568 -0.13433,0.29997 -0.3,0.29997 -0.16568,0 -0.3,-0.13429 -0.3,-0.29997 0,-0.1657 0.13432,-0.30007 0.3,-0.30007 z"
       id="path2-3-3-5-9"
       style="fill:#d8f0f3;fill-opacity:1;stroke-width:0.0187496" />
  </g>
</svg>
