<?xml version="1.0" encoding="UTF-8" standalone="no"?>
<svg
   width="64"
   version="1.1"
   height="64"
   id="svg17"
   sodipodi:docname="folder-book.svg"
   inkscape:version="1.2.2 (b0a8486541, 2022-12-01)"
   xmlns:inkscape="http://www.inkscape.org/namespaces/inkscape"
   xmlns:sodipodi="http://sodipodi.sourceforge.net/DTD/sodipodi-0.dtd"
   xmlns:xlink="http://www.w3.org/1999/xlink"
   xmlns="http://www.w3.org/2000/svg"
   xmlns:svg="http://www.w3.org/2000/svg"
   xmlns:rdf="http://www.w3.org/1999/02/22-rdf-syntax-ns#"
   xmlns:cc="http://creativecommons.org/ns#"
   xmlns:dc="http://purl.org/dc/elements/1.1/">
  <sodipodi:namedview
     pagecolor="#ffffff"
     bordercolor="#666666"
     borderopacity="1"
     objecttolerance="10"
     gridtolerance="10"
     guidetolerance="10"
     inkscape:pageopacity="0"
     inkscape:pageshadow="2"
     inkscape:window-width="1920"
     inkscape:window-height="994"
     id="namedview19"
     showgrid="true"
     inkscape:zoom="4.90625"
     inkscape:cx="-53.095541"
     inkscape:cy="44.229299"
     inkscape:window-x="0"
     inkscape:window-y="0"
     inkscape:window-maximized="1"
     inkscape:current-layer="layer1"
     inkscape:document-rotation="0"
     inkscape:showpageshadow="2"
     inkscape:pagecheckerboard="0"
     inkscape:deskcolor="#d1d1d1">
    <inkscape:grid
       type="xygrid"
       id="grid877" />
  </sodipodi:namedview>
  <defs
     id="defs5455">
    <linearGradient
       inkscape:collect="always"
       id="linearGradient3475">
      <stop
         style="stop-color:#a78bda;stop-opacity:1;"
         offset="0"
         id="stop3471" />
      <stop
         style="stop-color:#eeaaff;stop-opacity:1"
         offset="1"
         id="stop3473" />
    </linearGradient>
    <linearGradient
       inkscape:collect="always"
       xlink:href="#linearGradient3475"
       id="linearGradient1419"
       x1="0.52915627"
       y1="5.0269842"
       x2="16.403845"
       y2="5.0269842"
       gradientUnits="userSpaceOnUse"
       gradientTransform="matrix(3.779602,0,0,3.8662747,384.57143,480.49989)" />
    <clipPath
       clipPathUnits="userSpaceOnUse"
       id="clipPath79425-9-5-3">
      <rect
         style="opacity:0.5;fill:#000000;fill-opacity:1;stroke:none;stroke-width:0.855869;stroke-dasharray:none;stroke-opacity:1;paint-order:stroke fill markers"
         id="rect79427-1-9-6"
         width="26.417742"
         height="29.037542"
         x="-16.227774"
         y="-6.4845476" />
    </clipPath>
    <filter
       inkscape:collect="always"
       style="color-interpolation-filters:sRGB"
       id="filter77953-2-4-7"
       x="-0.040508607"
       y="-0.067265661"
       width="1.0810172"
       height="1.1345313">
      <feGaussianBlur
         inkscape:collect="always"
         stdDeviation="0.44602907"
         id="feGaussianBlur77955-7-9-5" />
    </filter>
    <clipPath
       clipPathUnits="userSpaceOnUse"
       id="clipPath79425-9-5-5">
      <rect
         style="opacity:0.5;fill:#000000;fill-opacity:1;stroke:none;stroke-width:0.855869;stroke-dasharray:none;stroke-opacity:1;paint-order:stroke fill markers"
         id="rect79427-1-9-62"
         width="26.417742"
         height="29.037542"
         x="-16.227774"
         y="-6.4845476" />
    </clipPath>
    <filter
       inkscape:collect="always"
       style="color-interpolation-filters:sRGB"
       id="filter77953-2-4-9"
       x="-0.040520865"
       y="-0.064907304"
       width="1.0810417"
       height="1.1298146">
      <feGaussianBlur
         inkscape:collect="always"
         stdDeviation="0.44602907"
         id="feGaussianBlur77955-7-9-1" />
    </filter>
    <linearGradient
       inkscape:collect="always"
       xlink:href="#linearGradient2303"
       id="linearGradient1662"
       gradientUnits="userSpaceOnUse"
       gradientTransform="matrix(3.7757185,0,0,3.9032702,384.57656,479.89311)"
       x1="1.3228925"
       y1="15.091164"
       x2="17.213907"
       y2="3.5623693" />
    <linearGradient
       inkscape:collect="always"
       id="linearGradient2303">
      <stop
         style="stop-color:#a78bda;stop-opacity:1;"
         offset="0"
         id="stop2299" />
      <stop
         style="stop-color:#916f8a;stop-opacity:1"
         offset="1"
         id="stop2301" />
    </linearGradient>
  </defs>
  <metadata
     id="metadata5458">
    <rdf:RDF>
      <cc:Work
         rdf:about="">
        <dc:format>image/svg+xml</dc:format>
        <dc:type
           rdf:resource="http://purl.org/dc/dcmitype/StillImage" />
      </cc:Work>
    </rdf:RDF>
  </metadata>
  <g
     inkscape:label="Capa 1"
     inkscape:groupmode="layer"
     id="layer1"
     transform="translate(-384.57143,-483.798)">
    <path
       id="path32082-9"
       style="fill:url(#linearGradient1419);fill-opacity:1.0;stroke:none;stroke-width:5.11694;stroke-linecap:round;stroke-linejoin:round;stroke-opacity:0.03"
       d="m 393.57143,493.798 c -4,0 -7,3.06879 -7,7.16052 v 5.11466 c 0,0 2,-5.11466 5,-5.11466 h 8 12 6 24 c 3,0 5,2.04586 5,5.11466 v 0 0 -5.11466 c 0,-4.09173 -3,-7.16052 -7,-7.16052 h -24.07114 -5.92886 -9 z"
       sodipodi:nodetypes="sccsccccccccccccs" />
    <rect
       x="410.57144"
       y="494.82092"
       width="12"
       height="2.0458624"
       ry="1.0248643"
       stroke-width="3.41941"
       style="fill:#222638;fill-opacity:1;paint-order:stroke markers fill"
       id="rect12-5-9-3-9" />
    <path
       d="m 418.30476,497.88973 h -3.46666 -4.33334 -16.93333 c -2,0 -3,1.02292 -3,3.06879 v 0 0 h 52 v 0 0 c 0,-2.04587 -1,-3.06879 -3,-3.06879 z"
       style="fill:#222638;fill-opacity:1;stroke-width:2.33915;paint-order:markers stroke fill"
       id="path8-7-2-9-6-1-7-5"
       sodipodi:nodetypes="cccccccccccc"
       opacity="0.6" />
    <path
       style="display:inline;fill:#ffffff;fill-opacity:1;stroke:none;stroke-width:2.77827;stroke-linecap:round;stroke-linejoin:round;stroke-opacity:0.03;filter:url(#filter77953-2-4-7)"
       d="m -14.025629,3.0793846 h 6.1660045 4.8447182 3.08300239 7.92771991 c 1.3212868,0 2.202145,0.9435823 2.202145,2.3589558 l -0.0082,11.1961006 c 0.0082,1.415373 -1.496833,2.225381 -2.6343739,2.232069 L -14.02563,18.993397 c -1.321286,0.0078 -2.202145,-0.943583 -2.202145,-2.358956 l 1e-6,-11.3229881 c -1e-6,-1.288486 0.882451,-2.2155179 2.202145,-2.2320683 z"
       id="path1611-1-8-0-7-3"
       clip-path="url(#clipPath79425-9-5-3)"
       transform="matrix(2.270514,0,0,2.1681872,423.41682,494.28184)"
       sodipodi:nodetypes="cccccccssccc" />
    <path
       style="display:inline;fill:#4f4f4f;fill-opacity:1;stroke:none;stroke-width:2.77827;stroke-linecap:round;stroke-linejoin:round;stroke-opacity:0.03;filter:url(#filter77953-2-4-9)"
       d="m -14.026297,2.5011118 6.1666725,0.1211316 H -3.014907 0.06809547 L 7.9884881,2.5011118 C 9.3097749,2.5157128 10.189967,3.444358 10.189967,4.874457 l -2.06e-4,11.759984 c 0.0082,1.415373 -0.872618,2.358956 -2.6343739,2.358956 H -14.02563 c -1.321306,0 -2.202145,-0.943583 -2.202145,-2.358956 V 4.874457 c 0,-1.4240071 0.880591,-2.3733452 2.201478,-2.3733452 z"
       id="path1611-1-8-0-7-2"
       clip-path="url(#clipPath79425-9-5-5)"
       transform="matrix(2.271201,0,0,2.155042,423.42797,495.56852)"
       sodipodi:nodetypes="cccccccssccc" />
    <path
       d="m 418.57143,500.95852 h -4 -5 -18 c -3,0 -4.99999,2.04587 -4.99999,5.11466 v 26.59622 c 0,3.06876 1.99999,5.11463 4.99999,5.11463 h 49.99999 c 3,0 5,-2.04587 5,-5.11463 v -26.59622 c 0,-3.06879 -2,-5.11466 -5,-5.11466 z"
       style="fill:url(#linearGradient1662);fill-opacity:1;stroke-width:3.83803;paint-order:markers stroke fill"
       id="path8-7-2-9-6-1-9"
       sodipodi:nodetypes="ccccsssssscc"
       opacity="0.6" />
    <path
       d="m 386.57143,518.748 17.1,19 h -10e-6 0.65001 l -17.75,-19.65 v 0 0 z"
       id="path2653-4"
       style="fill:#bac8df;fill-opacity:1;stroke-width:0.48092"
       sodipodi:nodetypes="cccccccc" />
    <path
       d="m 386.57143,524.79794 11.48548,12.98879 -1e-5,0.0113 0.64953,-0.006 v 0.006 L 386.57657,524.148 v 0 0 z"
       id="path2653-4-3"
       style="fill:#bac8df;fill-opacity:1;stroke-width:0.330034"
       sodipodi:nodetypes="ccccccccc" />
    <path
       fill-rule="evenodd"
       clip-rule="evenodd"
       d="m 438.98092,525.01281 -7.08909,2.93401 c -0.56508,0.22549 -1.17778,0.35118 -1.82018,0.35118 -0.64775,0 -1.26594,-0.12705 -1.83398,-0.35648 l -7.07186,-2.92638 c -0.64805,-0.33731 -1.09438,-1.01976 -1.09438,-1.81172 v -7.81012 -1.35877 c 0,-0.37548 0.29912,-0.67926 0.66664,-0.67926 0.36852,0 0.66699,0.30378 0.66699,0.67926 v 0.55216 0.80661 7.71489 c 0,0.24506 0.13145,0.45464 0.32295,0.5741 l 6.80684,2.93435 c 0.0148,0.006 0.0281,0.009 0.0427,0.0152 0.45887,0.19799 0.9641,0.30743 1.49406,0.30743 0.52657,0 1.02849,-0.10808 1.48548,-0.30378 0.0149,-0.006 0.0284,-0.01 0.0425,-0.0159 l 6.81438,-2.93736 c 0.19144,-0.11945 0.32361,-0.32902 0.32361,-0.57409 v -4.99849 -0.80656 -0.55217 c 0,-0.37478 0.29882,-0.67854 0.66669,-0.67854 0.36846,0 0.66663,0.30376 0.66663,0.67854 v 1.3587 5.0937 c 3e-5,0.79062 -0.4446,1.47054 -1.09043,1.80943 z m 0.42385,-10.29878 c -0.3678,0 -0.66664,-0.30476 -0.66664,-0.6795 0,-0.37548 0.29884,-0.67925 0.66664,-0.67925 0.36848,0 0.66666,0.30377 0.66666,0.67925 0,0.37474 -0.29818,0.6795 -0.66666,0.6795 z m -3.22523,8.33112 -3.1445,1.33483 v -8.8e-4 c -0.0853,0.0392 -0.17968,0.0606 -0.27864,0.0606 -0.37765,0 -0.68492,-0.31214 -0.68492,-0.69751 0,-0.29848 0.18425,-0.55054 0.44275,-0.65105 l 3.20307,-1.428 c 0.20762,-0.11406 0.35413,-0.33429 0.35413,-0.59335 v -8.89289 c 0,-0.18736 -0.14902,-0.33961 -0.33331,-0.33961 -0.0484,0 -0.0941,0.011 -0.13673,0.0299 v -7.2e-4 l -4.50842,2.01042 c -0.2096,0.11415 -0.35419,0.33433 -0.35419,0.59229 v 8.05488 1.35845 c 0,0.7502 -0.59746,1.35874 -1.33381,1.35874 -0.1846,0 -0.35935,-0.0382 -0.51954,-0.10742 l -4.92571,-2.09102 c -0.71842,-0.31007 -1.22129,-1.03344 -1.22129,-1.87634 v -9.5092 c 0,-0.75021 0.59733,-1.35875 1.33329,-1.35875 0.18163,0 0.35349,0.0375 0.51203,0.10516 l 3.05959,1.29838 c 0.25125,0.10747 0.42834,0.36076 0.42834,0.65562 0,0.393 -0.31253,0.71132 -0.69759,0.71132 -0.11655,0 -0.22491,-0.0321 -0.32125,-0.0837 l -2.51077,-1.11928 c -8.6e-4,0 0,6.3e-4 -8.6e-4,6.3e-4 -0.0413,-0.0189 -0.0874,-0.0299 -0.13573,-0.0299 -0.185,0 -0.33369,0.15226 -0.33369,0.33965 v 8.89292 c 0,0.25903 0.14584,0.47922 0.3545,0.59334 l 4.50875,2.00975 c 6.7e-4,0 0,-7.1e-4 6.7e-4,-7.1e-4 0.0406,0.0189 0.0878,0.0299 0.13609,0.0299 0.18388,0 0.33332,-0.15157 0.33332,-0.33961 v -8.6485 -0.33996 c 0,-0.84437 0.50392,-1.56935 1.22315,-1.87775 l 4.93093,-2.09271 c 0.15884,-0.0676 0.33077,-0.10507 0.51236,-0.10507 0.73635,0 1.33403,0.60853 1.33403,1.35872 v 9.50914 c -6e-5,0.84432 -0.50653,1.56934 -1.22599,1.87874 z"
       id="path806-7-6"
       style="fill:#d8f0f3;fill-opacity:1;stroke-width:0.0420563" />
  </g>
</svg>
