<?xml version="1.0" encoding="UTF-8" standalone="no"?>
<svg
   width="64"
   version="1.1"
   height="64"
   id="svg15"
   sodipodi:docname="folder-Pop_OS.svg"
   inkscape:version="1.2.2 (b0a8486541, 2022-12-01)"
   xmlns:inkscape="http://www.inkscape.org/namespaces/inkscape"
   xmlns:sodipodi="http://sodipodi.sourceforge.net/DTD/sodipodi-0.dtd"
   xmlns:xlink="http://www.w3.org/1999/xlink"
   xmlns="http://www.w3.org/2000/svg"
   xmlns:svg="http://www.w3.org/2000/svg"
   xmlns:rdf="http://www.w3.org/1999/02/22-rdf-syntax-ns#"
   xmlns:cc="http://creativecommons.org/ns#"
   xmlns:dc="http://purl.org/dc/elements/1.1/">
  <sodipodi:namedview
     pagecolor="#ffffff"
     bordercolor="#666666"
     borderopacity="1"
     objecttolerance="10"
     gridtolerance="10"
     guidetolerance="10"
     inkscape:pageopacity="0"
     inkscape:pageshadow="2"
     inkscape:window-width="1920"
     inkscape:window-height="994"
     id="namedview17"
     showgrid="true"
     inkscape:zoom="4.90625"
     inkscape:cx="-1.3248408"
     inkscape:cy="35.974522"
     inkscape:window-x="0"
     inkscape:window-y="0"
     inkscape:window-maximized="1"
     inkscape:current-layer="layer1"
     inkscape:document-rotation="0"
     inkscape:showpageshadow="2"
     inkscape:pagecheckerboard="0"
     inkscape:deskcolor="#d1d1d1">
    <inkscape:grid
       type="xygrid"
       id="grid919" />
  </sodipodi:namedview>
  <defs
     id="defs5455">
    <linearGradient
       inkscape:collect="always"
       id="linearGradient1523">
      <stop
         style="stop-color:#00cccc;stop-opacity:1;"
         offset="0"
         id="stop1517" />
      <stop
         style="stop-color:#ffe680;stop-opacity:1"
         offset="0.5061571"
         id="stop1519" />
      <stop
         style="stop-color:#00bdff;stop-opacity:1;"
         offset="1"
         id="stop1521" />
    </linearGradient>
    <linearGradient
       inkscape:collect="always"
       id="linearGradient1513">
      <stop
         style="stop-color:#00cccc;stop-opacity:1;"
         offset="0"
         id="stop1509" />
      <stop
         style="stop-color:#ffe680;stop-opacity:1"
         offset="0"
         id="stop1515" />
      <stop
         style="stop-color:#00bdff;stop-opacity:1;"
         offset="1"
         id="stop1511" />
    </linearGradient>
    <linearGradient
       inkscape:collect="always"
       xlink:href="#linearGradient1523"
       id="linearGradient1419"
       x1="0.52915627"
       y1="5.0269842"
       x2="16.403845"
       y2="5.0269842"
       gradientUnits="userSpaceOnUse"
       gradientTransform="matrix(3.779602,0,0,3.8662747,384.57143,480.49989)" />
    <clipPath
       clipPathUnits="userSpaceOnUse"
       id="clipPath79425-9-5-3">
      <rect
         style="opacity:0.5;fill:#000000;fill-opacity:1;stroke:none;stroke-width:0.855869;stroke-dasharray:none;stroke-opacity:1;paint-order:stroke fill markers"
         id="rect79427-1-9-6"
         width="26.417742"
         height="29.037542"
         x="-16.227774"
         y="-6.4845476" />
    </clipPath>
    <filter
       inkscape:collect="always"
       style="color-interpolation-filters:sRGB"
       id="filter77953-2-4-7"
       x="-0.040508607"
       y="-0.067265661"
       width="1.0810172"
       height="1.1345313">
      <feGaussianBlur
         inkscape:collect="always"
         stdDeviation="0.44602907"
         id="feGaussianBlur77955-7-9-5" />
    </filter>
    <clipPath
       clipPathUnits="userSpaceOnUse"
       id="clipPath79425-9-5-5">
      <rect
         style="opacity:0.5;fill:#000000;fill-opacity:1;stroke:none;stroke-width:0.855869;stroke-dasharray:none;stroke-opacity:1;paint-order:stroke fill markers"
         id="rect79427-1-9-62"
         width="26.417742"
         height="29.037542"
         x="-16.227774"
         y="-6.4845476" />
    </clipPath>
    <filter
       inkscape:collect="always"
       style="color-interpolation-filters:sRGB"
       id="filter77953-2-4-9"
       x="-0.040520865"
       y="-0.064907304"
       width="1.0810417"
       height="1.1298146">
      <feGaussianBlur
         inkscape:collect="always"
         stdDeviation="0.44602907"
         id="feGaussianBlur77955-7-9-1" />
    </filter>
    <linearGradient
       inkscape:collect="always"
       xlink:href="#linearGradient1513"
       id="linearGradient1662"
       gradientUnits="userSpaceOnUse"
       gradientTransform="matrix(3.7757185,0,0,3.9032702,384.57656,479.89311)"
       x1="0.85077876"
       y1="14.570424"
       x2="16.289692"
       y2="5.5754323" />
  </defs>
  <metadata
     id="metadata5458">
    <rdf:RDF>
      <cc:Work
         rdf:about="">
        <dc:format>image/svg+xml</dc:format>
        <dc:type
           rdf:resource="http://purl.org/dc/dcmitype/StillImage" />
      </cc:Work>
    </rdf:RDF>
  </metadata>
  <g
     inkscape:label="Capa 1"
     inkscape:groupmode="layer"
     id="layer1"
     transform="translate(-384.57143,-483.798)">
    <path
       id="path32082-9"
       style="fill:url(#linearGradient1419);fill-opacity:1;stroke:none;stroke-width:5.11694;stroke-linecap:round;stroke-linejoin:round;stroke-opacity:0.03"
       d="m 393.57143,493.798 c -4,0 -7,3.06879 -7,7.16052 v 5.11466 c 0,0 2,-5.11466 5,-5.11466 h 8 12 6 24 c 3,0 5,2.04586 5,5.11466 v 0 0 -5.11466 c 0,-4.09173 -3,-7.16052 -7,-7.16052 h -24.07114 -5.92886 -9 z"
       sodipodi:nodetypes="sccsccccccccccccs" />
    <rect
       x="410.57135"
       y="494.82098"
       width="12"
       height="2.0458624"
       ry="1.0248643"
       stroke-width="3.41941"
       style="fill:#222638;fill-opacity:1;paint-order:stroke markers fill"
       id="rect12-5-9-3-9" />
    <path
       d="m 418.30476,497.88973 h -3.46666 -4.33334 -16.93333 c -2,0 -3,1.02292 -3,3.06879 v 0 0 h 52 v 0 0 c 0,-2.04587 -1,-3.06879 -3,-3.06879 z"
       style="fill:#222638;fill-opacity:1;stroke-width:2.33915;paint-order:markers stroke fill"
       id="path8-7-2-9-6-1-7-5"
       sodipodi:nodetypes="cccccccccccc"
       opacity="0.6" />
    <path
       style="display:inline;fill:#ffffff;fill-opacity:1;stroke:none;stroke-width:2.77827;stroke-linecap:round;stroke-linejoin:round;stroke-opacity:0.03;filter:url(#filter77953-2-4-7)"
       d="m -14.025629,3.0793846 h 6.1660045 4.8447182 3.08300239 7.92771991 c 1.3212868,0 2.202145,0.9435823 2.202145,2.3589558 l -0.0082,11.1961006 c 0.0082,1.415373 -1.496833,2.225381 -2.6343739,2.232069 L -14.02563,18.993397 c -1.321286,0.0078 -2.202145,-0.943583 -2.202145,-2.358956 l 1e-6,-11.3229881 c -1e-6,-1.288486 0.882451,-2.2155179 2.202145,-2.2320683 z"
       id="path1611-1-8-0-7-3"
       clip-path="url(#clipPath79425-9-5-3)"
       transform="matrix(2.270514,0,0,2.1681872,423.41682,494.28184)"
       sodipodi:nodetypes="cccccccssccc" />
    <path
       style="display:inline;fill:#4f4f4f;fill-opacity:1;stroke:none;stroke-width:2.77827;stroke-linecap:round;stroke-linejoin:round;stroke-opacity:0.03;filter:url(#filter77953-2-4-9)"
       d="m -14.026297,2.5011118 6.1666725,0.1211316 H -3.014907 0.06809547 L 7.9884881,2.5011118 C 9.3097749,2.5157128 10.189967,3.444358 10.189967,4.874457 l -2.06e-4,11.759984 c 0.0082,1.415373 -0.872618,2.358956 -2.6343739,2.358956 H -14.02563 c -1.321306,0 -2.202145,-0.943583 -2.202145,-2.358956 V 4.874457 c 0,-1.4240071 0.880591,-2.3733452 2.201478,-2.3733452 z"
       id="path1611-1-8-0-7-2"
       clip-path="url(#clipPath79425-9-5-5)"
       transform="matrix(2.271201,0,0,2.155042,423.42797,495.56852)"
       sodipodi:nodetypes="cccccccssccc" />
    <path
       d="m 418.57143,500.95852 h -4 -5 -18 c -3,0 -4.99999,2.04587 -4.99999,5.11466 v 26.59622 c 0,3.06876 1.99999,5.11463 4.99999,5.11463 h 49.99999 c 3,0 5,-2.04587 5,-5.11463 v -26.59622 c 0,-3.06879 -2,-5.11466 -5,-5.11466 z"
       style="fill:url(#linearGradient1662);fill-opacity:1;stroke-width:3.83803;paint-order:markers stroke fill"
       id="path8-7-2-9-6-1-9"
       sodipodi:nodetypes="ccccsssssscc"
       opacity="0.6" />
    <path
       d="m 386.57143,518.748 17.1,19 h -10e-6 0.65001 l -17.75,-19.65 v 0 0 z"
       id="path2653-4"
       style="fill:#bac8df;fill-opacity:1;stroke-width:0.48092"
       sodipodi:nodetypes="cccccccc" />
    <path
       d="m 386.57143,524.79794 11.48548,12.98879 -1e-5,0.0113 0.64953,-0.006 v 0.006 l -12.12986,-13.65007 v 0 0 z"
       id="path2653-4-3"
       style="fill:#bac8df;fill-opacity:1;stroke-width:0.330034"
       sodipodi:nodetypes="ccccccccc" />
    <path
       style="fill:#d8f0f3;fill-opacity:1;stroke-width:0.0246999"
       id="path2-3-6-4-3"
       d="m 438.06933,520.49671 c -0.0453,0.20293 -0.14253,0.38279 -0.30874,0.49577 -0.26122,0.17731 -0.57949,0.1259 -0.80502,-0.0899 -0.21142,-0.20039 -0.28265,-0.53945 -0.21614,-0.83233 0.0687,-0.30575 0.28735,-0.57544 0.56753,-0.66028 0.62463,-0.18748 0.88343,0.5472 0.76237,1.08677 z m -0.38235,-2.08606 c -0.3871,-0.16698 -0.25415,-2.36345 0.10008,-5.02997 0.10009,-0.74505 0.27072,-1.09711 0.46305,-1.27695 0.27546,-0.25424 0.7766,-0.26461 1.11613,-0.21067 0.38956,0.0607 0.76232,0.25701 1.04492,0.55239 0.24937,0.26212 0.27793,0.52921 0.19235,0.87607 -0.1401,0.55239 -0.37993,1.0816 -0.61032,1.59789 -0.0542,0.12586 -0.53198,1.10461 -0.596,1.22534 -1.15183,2.19396 -1.38213,2.40728 -1.70991,2.2659 z" />
    <path
       style="fill:#d8f0f3;fill-opacity:1;stroke-width:0.0246999"
       id="path4-6-7-4-6"
       d="m 429.87389,517.42165 c 0.228,1.05327 0.20424,2.2093 0.008,3.04162 -0.18287,0.78609 -0.67919,1.48996 -1.46766,1.72632 -0.69102,0.20811 -1.49609,0.0559 -1.99003,-0.45726 -0.8122,-0.84258 -1.28714,-2.82071 -1.07578,-4.25672 0.17095,-1.1535 0.74567,-2.63074 2.00667,-2.69499 0.0809,-0.004 0.16148,-0.002 0.24226,0.004 1.28474,0.12588 1.98532,1.29733 2.27503,2.63579 z m -2.32249,2.39676 c 0.0707,0.0135 0.14246,0.0135 0.21374,-0.008 0.23981,-0.0739 0.37755,-0.34434 0.44166,-0.60628 0.0974,-0.39823 0.0835,-0.82729 -0.0426,-1.2178 -0.0646,-0.19782 -0.15908,-0.3905 -0.30401,-0.53436 -0.51056,-0.50607 -1.0211,0.02 -1.10901,0.61914 -0.0687,0.46759 0.0312,1.00961 0.30162,1.38731 0.12586,0.17468 0.30638,0.32621 0.4987,0.36217 z" />
    <path
       style="fill:#d8f0f3;fill-opacity:1;stroke-width:0.0246999"
       id="path6-7-5-7-7"
       d="m 432.65482,519.6541 c -0.002,1.94463 0.17808,3.43217 -0.61276,3.60937 -0.64114,0.14134 -0.61975,-0.46753 -0.66967,-0.97875 -0.18991,-1.98068 -0.36328,-5.27156 -0.43697,-7.26249 0.052,-0.85556 0.5819,-1.37967 1.13283,-1.50799 0.85015,-0.19783 1.75732,-0.14137 2.5101,0.36215 1.48902,0.99684 1.60773,2.82591 0.70534,4.31842 -0.49392,0.81447 -1.9877,1.40535 -2.62887,1.35393 z m 0.18996,-4.35956 c -0.0925,0.016 -0.24457,0.0607 -0.28734,0.15918 -0.10211,0.22863 -0.0955,1.68018 0.0835,2.28901 0.0287,0.10102 0.0922,0.19521 0.18523,0.23119 0.33727,0.1336 0.64127,-0.31342 0.779,-0.58318 0.19234,-0.37506 0.25405,-0.81685 0.13292,-1.22801 -0.11427,-0.38266 -0.4678,-0.93764 -0.89288,-0.86819 z" />
    <path
       style="fill:#d8f0f3;fill-opacity:1;stroke-width:0.0246999"
       id="path8-5-3-6-5"
       d="m 424.13878,516.2604 c -0.55808,1.27687 -1.48422,2.29163 -2.76661,2.79256 0.36814,1.04043 0.74334,2.06805 1.10903,3.10586 0.20428,0.55997 0.39894,1.17407 0.22088,1.72632 -0.18525,0.56518 -0.90718,0.72186 -1.43202,0.12101 -1.00927,-1.16123 -4.42181,-8.51879 -4.67352,-9.07118 -0.21382,-0.47525 -0.53431,-0.98393 -0.52491,-1.53367 0.0167,-0.82724 1.19935,-1.66474 1.76684,-2.09365 0.79322,-0.59867 1.70984,-1.00717 2.69062,-1.00965 0.76473,0 1.41775,0.22615 1.99725,0.62675 0.88816,0.6167 1.50563,1.60049 1.73364,2.71288 0.1994,0.97877 0.1567,1.98081 -0.1211,2.62304 m -2.60038,-1.39764 c -0.19946,-0.78342 -0.65076,-1.50529 -1.21829,-2.01141 -0.12349,-0.11016 -0.25651,-0.21333 -0.41081,-0.26973 -1.06389,-0.3777 -0.60318,1.54648 -0.42982,2.03204 0.23985,0.68078 0.60319,1.54134 1.09,2.05511 0.10652,0.11277 0.23275,0.21328 0.37755,0.24406 0.22087,0.0491 0.42507,-0.11842 0.53676,-0.31336 0.0921,-0.16188 0.1281,-0.35454 0.14962,-0.542 0.0401,-0.39819 0.004,-0.8042 -0.0955,-1.19471 z" />
    <path
       style="fill:#d8f0f3;fill-opacity:1;stroke-width:0.0246999"
       id="path10-5-3-3"
       d="m 436.86137,526.03978 c -0.004,1.12783 -0.6412,2.25569 -2.04466,2.25569 -1.40352,0 -2.05655,-1.10987 -2.05655,-2.24276 0,-1.41296 0.90953,-2.28646 2.08502,-2.28646 1.36312,0.0132 2.02808,1.10733 2.01619,2.27353 z m -2.01619,-1.56191 c -0.88105,0 -1.37504,0.66284 -1.3797,1.5671 0,0.78609 0.40606,1.52343 1.36307,1.52343 0.95703,0 1.32276,-0.79894 1.32276,-1.53115 0.0126,-0.76037 -0.36096,-1.54139 -1.30613,-1.55938 z m 2.60517,3.23947 c 0,0.16701 0.004,-0.79382 0,-0.94023 h 0.64595 l 0.0454,0.58835 c 0.21142,0.13103 0.53911,0.22864 0.80744,0.22864 0.49876,0 1.01883,-0.13626 1.01883,-0.66283 -0.0167,-0.47786 -0.5961,-0.57545 -1.06389,-0.62688 -0.79556,-0.088 -1.43674,-0.29793 -1.43674,-1.26387 0,-0.86067 0.89998,-1.28961 1.56968,-1.28961 0.53909,-0.0133 0.92141,0.0787 1.40822,0.50087 0,0.34688 -0.004,0.55238 -0.004,0.8992 h -0.62444 l -0.0401,-0.5703 c -0.25171,-0.13109 -0.51064,-0.16703 -0.71005,-0.16184 -0.42988,0.004 -0.88815,0.22344 -0.88815,0.61394 0,0.3828 0.29678,0.4881 0.82397,0.57037 0.85975,0.12344 1.68854,0.3339 1.68854,1.32557 -0.004,1.08414 -0.94517,1.36926 -1.75259,1.36926 -0.6151,0.002 -0.99979,-0.121 -1.48665,-0.58065 z"
       inkscape:connector-curvature="0" />
    <path
       style="fill:#d8f0f3;fill-opacity:1;stroke-width:0.0246999"
       id="path12-6-1-5"
       d="m 431.88856,527.92546 c 0,0.19784 -0.14722,0.35706 -0.33009,0.35706 h -3.81631 c -0.18279,0 -0.33004,-0.15922 -0.33004,-0.35706 v -0.0314 c 0,-0.19778 0.14725,-0.35711 0.33004,-0.35711 h 3.81631 c 0.18287,0 0.33009,0.15933 0.33009,0.35711 z"
       inkscape:connector-curvature="0" />
  </g>
</svg>
