<?xml version="1.0" encoding="UTF-8" standalone="no"?>
<svg
   width="64"
   version="1.1"
   height="64"
   id="svg17"
   sodipodi:docname="folder-Arch.svg"
   inkscape:version="1.2.2 (b0a8486541, 2022-12-01)"
   xmlns:inkscape="http://www.inkscape.org/namespaces/inkscape"
   xmlns:sodipodi="http://sodipodi.sourceforge.net/DTD/sodipodi-0.dtd"
   xmlns:xlink="http://www.w3.org/1999/xlink"
   xmlns="http://www.w3.org/2000/svg"
   xmlns:svg="http://www.w3.org/2000/svg"
   xmlns:rdf="http://www.w3.org/1999/02/22-rdf-syntax-ns#"
   xmlns:cc="http://creativecommons.org/ns#"
   xmlns:dc="http://purl.org/dc/elements/1.1/">
  <sodipodi:namedview
     pagecolor="#ffffff"
     bordercolor="#666666"
     borderopacity="1"
     objecttolerance="10"
     gridtolerance="10"
     guidetolerance="10"
     inkscape:pageopacity="0"
     inkscape:pageshadow="2"
     inkscape:window-width="1920"
     inkscape:window-height="994"
     id="namedview19"
     showgrid="true"
     inkscape:zoom="6.9384856"
     inkscape:cx="11.025461"
     inkscape:cy="22.339169"
     inkscape:window-x="0"
     inkscape:window-y="0"
     inkscape:window-maximized="1"
     inkscape:current-layer="layer1"
     inkscape:document-rotation="0"
     inkscape:lockguides="false"
     inkscape:showpageshadow="2"
     inkscape:pagecheckerboard="0"
     inkscape:deskcolor="#d1d1d1">
    <inkscape:grid
       type="xygrid"
       id="grid844" />
  </sodipodi:namedview>
  <defs
     id="defs5455">
    <linearGradient
       inkscape:collect="always"
       id="linearGradient408">
      <stop
         style="stop-color:#b380ff;stop-opacity:1"
         offset="0"
         id="stop404" />
      <stop
         style="stop-color:#00bdff;stop-opacity:1;"
         offset="1"
         id="stop406" />
    </linearGradient>
    <linearGradient
       inkscape:collect="always"
       xlink:href="#linearGradient408"
       id="linearGradient1419"
       x1="0.52915627"
       y1="5.0269842"
       x2="16.403845"
       y2="5.0269842"
       gradientUnits="userSpaceOnUse"
       gradientTransform="matrix(3.779602,0,0,3.8662747,384.57143,480.49989)" />
    <clipPath
       clipPathUnits="userSpaceOnUse"
       id="clipPath79425-9-5-3">
      <rect
         style="opacity:0.5;fill:#000000;fill-opacity:1;stroke:none;stroke-width:0.855869;stroke-dasharray:none;stroke-opacity:1;paint-order:stroke fill markers"
         id="rect79427-1-9-6"
         width="26.417742"
         height="29.037542"
         x="-16.227774"
         y="-6.4845476" />
    </clipPath>
    <filter
       inkscape:collect="always"
       style="color-interpolation-filters:sRGB"
       id="filter77953-2-4-7"
       x="-0.040508607"
       y="-0.067265661"
       width="1.0810172"
       height="1.1345313">
      <feGaussianBlur
         inkscape:collect="always"
         stdDeviation="0.44602907"
         id="feGaussianBlur77955-7-9-5" />
    </filter>
    <clipPath
       clipPathUnits="userSpaceOnUse"
       id="clipPath79425-9-5-5">
      <rect
         style="opacity:0.5;fill:#000000;fill-opacity:1;stroke:none;stroke-width:0.855869;stroke-dasharray:none;stroke-opacity:1;paint-order:stroke fill markers"
         id="rect79427-1-9-62"
         width="26.417742"
         height="29.037542"
         x="-16.227774"
         y="-6.4845476" />
    </clipPath>
    <filter
       inkscape:collect="always"
       style="color-interpolation-filters:sRGB"
       id="filter77953-2-4-9"
       x="-0.040520865"
       y="-0.064907304"
       width="1.0810417"
       height="1.1298146">
      <feGaussianBlur
         inkscape:collect="always"
         stdDeviation="0.44602907"
         id="feGaussianBlur77955-7-9-1" />
    </filter>
    <linearGradient
       inkscape:collect="always"
       xlink:href="#linearGradient408"
       id="linearGradient1662"
       gradientUnits="userSpaceOnUse"
       gradientTransform="matrix(3.7757185,0,0,3.9032702,384.57656,479.89311)"
       x1="9.3259869"
       y1="14.831515"
       x2="9.3259869"
       y2="4.269978" />
  </defs>
  <metadata
     id="metadata5458">
    <rdf:RDF>
      <cc:Work
         rdf:about="">
        <dc:format>image/svg+xml</dc:format>
        <dc:type
           rdf:resource="http://purl.org/dc/dcmitype/StillImage" />
      </cc:Work>
    </rdf:RDF>
  </metadata>
  <g
     inkscape:label="Capa 1"
     inkscape:groupmode="layer"
     id="layer1"
     transform="translate(-384.57143,-483.798)">
    <path
       id="path32082-9"
       style="fill:url(#linearGradient1419);fill-opacity:1.0;stroke:none;stroke-width:5.11694;stroke-linecap:round;stroke-linejoin:round;stroke-opacity:0.03"
       d="m 393.57143,493.798 c -4,0 -7,3.06879 -7,7.16052 v 5.11466 c 0,0 2,-5.11466 5,-5.11466 h 8 12 6 24 c 3,0 5,2.04586 5,5.11466 v 0 0 -5.11466 c 0,-4.09173 -3,-7.16052 -7,-7.16052 h -24.07114 -5.92886 -9 z"
       sodipodi:nodetypes="sccsccccccccccccs" />
    <rect
       x="410.57144"
       y="494.82095"
       width="12"
       height="2.0458624"
       ry="1.0248643"
       stroke-width="3.41941"
       style="fill:#222638;fill-opacity:1;paint-order:stroke markers fill"
       id="rect12-5-9-3-9" />
    <path
       d="m 418.30476,497.88973 h -3.46666 -4.33334 -16.93333 c -2,0 -3,1.02292 -3,3.06879 v 0 0 h 52 v 0 0 c 0,-2.04587 -1,-3.06879 -3,-3.06879 z"
       style="fill:#222638;fill-opacity:1;stroke-width:2.33915;paint-order:markers stroke fill"
       id="path8-7-2-9-6-1-7-5"
       sodipodi:nodetypes="cccccccccccc"
       opacity="0.6" />
    <path
       style="display:inline;fill:#ffffff;fill-opacity:1;stroke:none;stroke-width:2.77827;stroke-linecap:round;stroke-linejoin:round;stroke-opacity:0.03;filter:url(#filter77953-2-4-7)"
       d="m -14.025629,3.0793846 h 6.1660045 4.8447182 3.08300239 7.92771991 c 1.3212868,0 2.202145,0.9435823 2.202145,2.3589558 l -0.0082,11.1961006 c 0.0082,1.415373 -1.496833,2.225381 -2.6343739,2.232069 L -14.02563,18.993397 c -1.321286,0.0078 -2.202145,-0.943583 -2.202145,-2.358956 l 1e-6,-11.3229881 c -1e-6,-1.288486 0.882451,-2.2155179 2.202145,-2.2320683 z"
       id="path1611-1-8-0-7-3"
       clip-path="url(#clipPath79425-9-5-3)"
       transform="matrix(2.270514,0,0,2.1681872,423.41682,494.28184)"
       sodipodi:nodetypes="cccccccssccc" />
    <path
       style="display:inline;fill:#4f4f4f;fill-opacity:1;stroke:none;stroke-width:2.77827;stroke-linecap:round;stroke-linejoin:round;stroke-opacity:0.03;filter:url(#filter77953-2-4-9)"
       d="m -14.026297,2.5011118 6.1666725,0.1211316 H -3.014907 0.06809547 L 7.9884881,2.5011118 C 9.3097749,2.5157128 10.189967,3.444358 10.189967,4.874457 l -2.06e-4,11.759984 c 0.0082,1.415373 -0.872618,2.358956 -2.6343739,2.358956 H -14.02563 c -1.321306,0 -2.202145,-0.943583 -2.202145,-2.358956 V 4.874457 c 0,-1.4240071 0.880591,-2.3733452 2.201478,-2.3733452 z"
       id="path1611-1-8-0-7-2"
       clip-path="url(#clipPath79425-9-5-5)"
       transform="matrix(2.271201,0,0,2.155042,423.42797,495.56852)"
       sodipodi:nodetypes="cccccccssccc" />
    <path
       d="m 418.57143,500.95852 h -4 -5 -18 c -3,0 -4.99999,2.04587 -4.99999,5.11466 v 26.59622 c 0,3.06876 1.99999,5.11463 4.99999,5.11463 h 49.99999 c 3,0 5,-2.04587 5,-5.11463 v -26.59622 c 0,-3.06879 -2,-5.11466 -5,-5.11466 z"
       style="fill:url(#linearGradient1662);fill-opacity:1;stroke-width:3.83803;paint-order:markers stroke fill"
       id="path8-7-2-9-6-1-9"
       sodipodi:nodetypes="ccccsssssscc"
       opacity="0.6" />
    <path
       d="m 386.57143,518.748 17.1,19 h -10e-6 0.65001 l -17.75,-19.65 v 0 0 z"
       id="path2653-4"
       style="fill:#bac8df;fill-opacity:1;stroke-width:0.48092"
       sodipodi:nodetypes="cccccccc" />
    <path
       d="m 386.57143,524.79794 11.48548,12.98879 -1e-5,0.0113 0.64953,-0.006 v 0.006 L 386.57657,524.148 v 0 0 z"
       id="path2653-4-3"
       style="fill:#bac8df;fill-opacity:1;stroke-width:0.330034"
       sodipodi:nodetypes="ccccccccc" />
    <path
       d="m 423.13365,528.298 c -0.144,0 -0.2865,-0.0555 -0.3945,-0.162 -0.18,-0.177 -0.21975,-0.453 -0.0967,-0.67425 3.1515,-5.661 4.986,-9.09975 6.13575,-11.49825 0.0427,-0.0908 0.1095,-0.1665 0.1905,-0.222 -0.008,-0.0967 0.008,-0.19575 0.051,-0.288 0.64575,-1.37925 1.05225,-2.3895 1.5675,-3.6675 l 0.4605,-1.13775 c 0.0855,-0.21 0.2895,-0.348 0.516,-0.35025 0.2475,0.0157 0.43275,0.13275 0.522,0.342 l 0.43875,1.03425 c 1.23675,2.9235 1.91774,4.5345 5.96025,12.05625 0.0952,0.177 0.087,0.38775 -0.012,0.55425 0.0113,0.009 0.0218,0.018 0.0322,0.027 0.14476,0.11775 0.282,0.23025 0.4185,0.33525 0.0622,0.048 0.11326,0.10875 0.15075,0.17775 l 1.42801,2.6415 c 0.11999,0.22125 0.0787,0.49575 -0.102,0.67125 -0.18149,0.17625 -0.45599,0.21 -0.6735,0.084 -2.79825,-1.6155 -4.7205,-2.448 -6.42825,-2.78175 -0.1485,-0.0292 -0.27974,-0.117 -0.36225,-0.24375 -0.0832,-0.12675 -0.111,-0.282 -0.0787,-0.42975 0.0555,-0.2505 0.0877,-0.52425 0.0952,-0.813 0.0368,-1.51575 -0.66676,-2.63475 -1.32,-2.6895 -0.20476,-0.0225 -0.39976,0.0622 -0.59251,0.234 -0.46347,0.41475 -0.76496,1.24275 -0.78821,2.16075 l -0.002,0.0802 c -0.003,0.339 0.0345,0.678 0.11175,1.008 0.0345,0.14925 0.007,0.30675 -0.0765,0.435 -0.084,0.12829 -0.21672,0.21754 -0.36672,0.24529 -1.731,0.327 -3.67575,1.1625 -6.504,2.7945 -0.087,0.0518 -0.1845,0.0765 -0.2805,0.0765 z m 10.91325,-3.8445 c 1.3125,0.321 2.751,0.906 4.55175,1.857 l -0.45751,-0.8475 c -0.1125,-0.0892 -0.22724,-0.18225 -0.345,-0.279 -0.58574,-0.477 -1.24949,-1.017 -2.38499,-1.59975 -0.255,-0.13125 -0.37125,-0.43275 -0.2685,-0.70125 0.102,-0.26775 0.39075,-0.41475 0.66675,-0.34425 0.32175,0.084 0.624,0.17325 0.906,0.26925 -3.2955,-6.17625 -4.0575,-7.935 -5.13375,-10.47825 -0.438,1.08675 -0.831,2.055 -1.38,3.24975 0.4425,0.453 0.996,0.969 1.81575,1.542 0.23475,0.16425 0.309,0.47925 0.17175,0.73125 -0.13725,0.25125 -0.441,0.35925 -0.708,0.24975 -0.78075,-0.321 -1.437,-0.66375 -1.98675,-1.03725 -1.038,2.11275 -2.56275,4.9755 -4.9155,9.22725 1.81275,-0.95325 3.2625,-1.5375 4.58925,-1.85475 -0.0292,-0.237 -0.0435,-0.4755 -0.0412,-0.714 0,-0.003 0,-0.006 0,-0.01 l 0.002,-0.0855 c 0.0315,-1.23526 0.46575,-2.34601 1.16175,-2.97 0.42675,-0.3825 0.92475,-0.561 1.43775,-0.5175 1.3665,0.11475 2.39925,1.80076 2.3505,3.8385 -0.006,0.16276 -0.0157,0.32026 -0.0322,0.474 z"
       id="path2"
       style="fill:#d8f0f3;fill-opacity:1;stroke-width:0.749997" />
  </g>
</svg>
