<?xml version="1.0" encoding="UTF-8" standalone="no"?>
<svg
   width="64"
   version="1.1"
   height="64"
   id="svg15"
   sodipodi:docname="folder-crash.svg"
   inkscape:version="1.3.2 (091e20ef0f, 2023-11-25)"
   xmlns:inkscape="http://www.inkscape.org/namespaces/inkscape"
   xmlns:sodipodi="http://sodipodi.sourceforge.net/DTD/sodipodi-0.dtd"
   xmlns:xlink="http://www.w3.org/1999/xlink"
   xmlns="http://www.w3.org/2000/svg"
   xmlns:svg="http://www.w3.org/2000/svg"
   xmlns:rdf="http://www.w3.org/1999/02/22-rdf-syntax-ns#"
   xmlns:cc="http://creativecommons.org/ns#"
   xmlns:dc="http://purl.org/dc/elements/1.1/">
  <sodipodi:namedview
     pagecolor="#ffffff"
     bordercolor="#666666"
     borderopacity="1"
     objecttolerance="10"
     gridtolerance="10"
     guidetolerance="10"
     inkscape:pageopacity="0"
     inkscape:pageshadow="2"
     inkscape:window-width="1920"
     inkscape:window-height="996"
     id="namedview17"
     showgrid="true"
     inkscape:zoom="4.90625"
     inkscape:cx="54.624204"
     inkscape:cy="32.407643"
     inkscape:window-x="0"
     inkscape:window-y="0"
     inkscape:window-maximized="1"
     inkscape:current-layer="layer1"
     inkscape:document-rotation="0"
     inkscape:showpageshadow="2"
     inkscape:pagecheckerboard="0"
     inkscape:deskcolor="#d1d1d1">
    <inkscape:grid
       type="xygrid"
       id="grid1384"
       originx="0"
       originy="0"
       spacingy="1"
       spacingx="1"
       units="px"
       visible="true" />
  </sodipodi:namedview>
  <defs
     id="defs5455">
    <linearGradient
       inkscape:collect="always"
       id="linearGradient10917">
      <stop
         style="stop-color:#ff5555;stop-opacity:1"
         offset="0"
         id="stop10913" />
      <stop
         style="stop-color:#de8787;stop-opacity:1"
         offset="1"
         id="stop10915" />
    </linearGradient>
    <clipPath
       clipPathUnits="userSpaceOnUse"
       id="clipPath79425-9-5-3">
      <rect
         style="opacity:0.5;fill:#000000;fill-opacity:1;stroke:none;stroke-width:0.855869;stroke-dasharray:none;stroke-opacity:1;paint-order:stroke fill markers"
         id="rect79427-1-9-6"
         width="26.417742"
         height="29.037542"
         x="-16.227774"
         y="-6.4845476" />
    </clipPath>
    <clipPath
       clipPathUnits="userSpaceOnUse"
       id="clipPath79425-9-5-5">
      <rect
         style="opacity:0.5;fill:#000000;fill-opacity:1;stroke:none;stroke-width:0.855869;stroke-dasharray:none;stroke-opacity:1;paint-order:stroke fill markers"
         id="rect79427-1-9-62"
         width="26.417742"
         height="29.037542"
         x="-16.227774"
         y="-6.4845476" />
    </clipPath>
    <linearGradient
       inkscape:collect="always"
       xlink:href="#linearGradient10917"
       id="linearGradient1419-3"
       x1="0.52915627"
       y1="5.0269842"
       x2="16.403845"
       y2="5.0269842"
       gradientUnits="userSpaceOnUse"
       gradientTransform="matrix(3.779602,0,0,3.8662743,384.57143,480.49982)" />
    <clipPath
       clipPathUnits="userSpaceOnUse"
       id="clipPath79425-9-5-5-6">
      <rect
         style="opacity:0.5;fill:#000000;fill-opacity:1;stroke:none;stroke-width:0.855869;stroke-dasharray:none;stroke-opacity:1;paint-order:stroke fill markers"
         id="rect79427-1-9-62-7"
         width="26.417742"
         height="29.037542"
         x="-16.227774"
         y="-6.4845476" />
    </clipPath>
    <linearGradient
       inkscape:collect="always"
       xlink:href="#linearGradient10917"
       id="linearGradient1662-5"
       gradientUnits="userSpaceOnUse"
       gradientTransform="matrix(3.7757185,0,0,3.9032699,384.57656,479.89307)"
       x1="9.3259869"
       y1="14.831515"
       x2="9.3259869"
       y2="4.269978" />
  </defs>
  <metadata
     id="metadata5458">
    <rdf:RDF>
      <cc:Work
         rdf:about="">
        <dc:format>image/svg+xml</dc:format>
        <dc:type
           rdf:resource="http://purl.org/dc/dcmitype/StillImage" />
      </cc:Work>
    </rdf:RDF>
  </metadata>
  <g
     inkscape:label="Capa 1"
     inkscape:groupmode="layer"
     id="layer1"
     transform="translate(-384.57143,-483.798)">
    <path
       id="path32082-9-2"
       style="fill:url(#linearGradient1419-3);fill-opacity:1;stroke:none;stroke-width:5.11693;stroke-linecap:round;stroke-linejoin:round;stroke-opacity:0.03"
       d="m 393.57143,493.798 c -4,0 -7,3.14014 -7,7.32703 v 5.2336 c 0,0 2,-5.2336 5,-5.2336 h 8 12 6 24 c 3,0 5,2.09345 5,5.2336 v 0 0 -5.2336 c 0,-4.18689 -3,-7.32703 -7,-7.32703 h -24.07114 -5.92886 -9 z"
       sodipodi:nodetypes="sccsccccccccccccs" />
    <rect
       x="410.57166"
       y="494.84454"
       width="12"
       height="2.0934412"
       ry="1.0248641"
       stroke-width="3.41941"
       style="fill:#222638;fill-opacity:1;paint-order:stroke markers fill"
       id="rect12-5-9-3-9-9"
       rx="1.0248643" />
    <path
       d="m 418.30476,497.98488 h -3.46666 -4.33334 -16.93333 c -2,0 -3,1.04672 -3,3.14015 v 0 0 h 52 v 0 0 c 0,-2.09343 -1,-3.14015 -3,-3.14015 z"
       style="fill:#222638;fill-opacity:1;stroke-width:2.33915;paint-order:markers stroke fill"
       id="path8-7-2-9-6-1-7-5-1"
       sodipodi:nodetypes="cccccccccccc"
       opacity="0.6" />
    <path
       style="display:inline;fill:#4f4f4f;fill-opacity:1;stroke:none;stroke-width:2.74813;stroke-linecap:round;stroke-linejoin:round;stroke-opacity:0.03"
       d="m -14.026297,2.5011118 6.1666725,4.13e-5 H -3.014907 0.06809547 L 7.9884881,2.5011118 C 9.3097749,2.5157128 10.189967,3.444358 10.189967,4.874457 l -2.06e-4,11.759984 c 0.0082,1.415373 -0.872618,2.358956 -2.6343739,2.358956 H -14.02563 c -1.321306,0 -2.202145,-0.943583 -2.202145,-2.358956 V 4.874457 c 0,-1.4240071 0.880591,-2.3733452 2.201478,-2.3733452 z"
       id="path1611-1-8-0-7-2-2"
       clip-path="url(#clipPath79425-9-5-5-6)"
       transform="matrix(2.271201,0,0,2.2025816,423.42797,495.2891)"
       sodipodi:nodetypes="cccccccssccc" />
    <path
       d="m 418.57143,500.798 h -4 -5 -18.00001 c -3,0 -4.99999,2.05557 -4.99999,5.13889 v 26.72227 c 0,3.08331 1.99999,5.13884 4.99999,5.13884 h 50.00001 c 3,0 5,-2.05553 5,-5.13884 v -26.72227 c 0,-3.08332 -2,-5.13889 -5,-5.13889 z"
       style="fill:url(#linearGradient1662-5);fill-opacity:1;stroke-width:3.83804;paint-order:markers stroke fill"
       id="path8-7-2-9-6-1-9-2"
       sodipodi:nodetypes="ccccsssssscc"
       opacity="0.6" />
    <path
       d="m 386.57143,519.28096 17.1,18.06042 h -10e-6 0.65001 l -17.75,-18.67826 v 0 0 z"
       id="path2653-4-7"
       style="fill:#bac8df;fill-opacity:1;stroke-width:0.48092"
       sodipodi:nodetypes="cccccccc" />
    <path
       d="m 386.57143,525.03173 11.48548,12.3465 -1e-5,0.0102 0.64953,-0.006 v 0.006 l -12.12986,-12.97496 v 0 0 z"
       id="path2653-4-3-0"
       style="fill:#bac8df;fill-opacity:1;stroke-width:0.330034"
       sodipodi:nodetypes="ccccccccc" />
    <path
       fill-rule="evenodd"
       clip-rule="evenodd"
       d="m 438.00065,528.298 h -9.6435 c -0.35454,0 -0.64225,-0.28848 -0.64225,-0.64285 0,-0.35535 0.28771,-0.64318 0.64225,-0.64318 h 9.6435 c 0.71001,0 1.28571,-0.57569 1.28571,-1.28574 V 512.8691 c 0,-0.71003 -0.5757,-1.28538 -1.28571,-1.28538 H 425.1432 c -0.70989,0 -1.2859,0.57535 -1.2859,1.28538 v 12.2143 c 0,0.35527 -0.28751,0.64283 -0.64285,0.64283 -0.35472,0 -0.64302,-0.28756 -0.64302,-0.64283 v -12.2143 c 0,-1.42007 1.15183,-2.5711 2.57177,-2.5711 h 12.85745 c 1.41975,0 2.57078,1.15103 2.57078,2.5711 v 12.85713 c 0,1.42007 -1.15103,2.57177 -2.57078,2.57177 z m -12.21445,-1.28603 c 0.35453,0 0.64285,0.28783 0.64285,0.64318 0,0.35437 -0.28832,0.64285 -0.64285,0.64285 -0.35534,0 -0.643,-0.28848 -0.643,-0.64285 0,-0.35535 0.28765,-0.64318 0.643,-0.64318 z"
       id="path2-0-1-2"
       style="fill:#d8f0f3;fill-opacity:1;stroke-width:0.0401785" />
    <rect
       x="426.92874"
       y="514.71552"
       width="2.249933"
       height="2.2499382"
       id="rect6-6-2-8"
       style="fill:#d8f0f3;fill-opacity:1;stroke-width:0.190028" />
    <rect
       x="430.34207"
       y="516.94611"
       width="2.249933"
       height="2.2499382"
       id="rect8-3-7-9"
       style="fill:#d8f0f3;fill-opacity:1;stroke-width:0.190028" />
    <rect
       x="426.64786"
       y="521.46521"
       width="2.249933"
       height="2.2499382"
       id="rect10-2-0-7"
       style="fill:#d8f0f3;fill-opacity:1;stroke-width:0.190028" />
    <rect
       x="434.0361"
       y="521.46521"
       width="2.249933"
       height="2.2499382"
       id="rect12-0-9-3"
       style="fill:#d8f0f3;fill-opacity:1;stroke-width:0.190028" />
    <rect
       x="429.04813"
       y="520.26569"
       width="2.249933"
       height="2.2499382"
       id="rect14-6-3-6"
       style="fill:#d8f0f3;fill-opacity:1;stroke-width:0.190028" />
    <rect
       x="431.63617"
       y="520.26569"
       width="2.249933"
       height="2.2499382"
       id="rect16-1-6-1"
       style="fill:#d8f0f3;fill-opacity:1;stroke-width:0.190028" />
    <rect
       x="433.67892"
       y="514.71552"
       width="2.249933"
       height="2.2499382"
       id="rect18-5-0-2"
       style="fill:#d8f0f3;fill-opacity:1;stroke-width:0.190028" />
  </g>
</svg>
