<?xml version="1.0" encoding="UTF-8" standalone="no"?>
<svg
   width="64"
   version="1.1"
   height="64"
   id="svg2"
   inkscape:version="1.2.2 (b0a8486541, 2022-12-01)"
   sodipodi:docname="folder-build.svg"
   xmlns:inkscape="http://www.inkscape.org/namespaces/inkscape"
   xmlns:sodipodi="http://sodipodi.sourceforge.net/DTD/sodipodi-0.dtd"
   xmlns:xlink="http://www.w3.org/1999/xlink"
   xmlns="http://www.w3.org/2000/svg"
   xmlns:svg="http://www.w3.org/2000/svg"
   xmlns:rdf="http://www.w3.org/1999/02/22-rdf-syntax-ns#"
   xmlns:cc="http://creativecommons.org/ns#"
   xmlns:dc="http://purl.org/dc/elements/1.1/">
  <sodipodi:namedview
     pagecolor="#ffffff"
     bordercolor="#666666"
     borderopacity="1"
     objecttolerance="10"
     gridtolerance="10"
     guidetolerance="10"
     inkscape:pageopacity="0"
     inkscape:pageshadow="2"
     inkscape:window-width="1920"
     inkscape:window-height="994"
     id="namedview45"
     showgrid="true"
     inkscape:zoom="5.2149125"
     inkscape:cx="20.805718"
     inkscape:cy="45.63835"
     inkscape:window-x="0"
     inkscape:window-y="0"
     inkscape:window-maximized="1"
     inkscape:current-layer="layer1"
     inkscape:document-rotation="0"
     inkscape:showpageshadow="2"
     inkscape:pagecheckerboard="0"
     inkscape:deskcolor="#d1d1d1">
    <inkscape:grid
       type="xygrid"
       id="grid921" />
  </sodipodi:namedview>
  <defs
     id="defs5455">
    <linearGradient
       inkscape:collect="always"
       id="linearGradient7127">
      <stop
         style="stop-color:#ffb380;stop-opacity:1"
         offset="0"
         id="stop7123" />
      <stop
         style="stop-color:#ffeeaa;stop-opacity:1"
         offset="1"
         id="stop7125" />
    </linearGradient>
    <linearGradient
       inkscape:collect="always"
       xlink:href="#linearGradient7127"
       id="linearGradient1419"
       x1="0.52915627"
       y1="5.0269842"
       x2="16.403845"
       y2="5.0269842"
       gradientUnits="userSpaceOnUse"
       gradientTransform="matrix(3.779602,0,0,3.8662747,384.57143,480.49989)" />
    <clipPath
       clipPathUnits="userSpaceOnUse"
       id="clipPath79425-9-5-3">
      <rect
         style="opacity:0.5;fill:#000000;fill-opacity:1;stroke:none;stroke-width:0.855869;stroke-dasharray:none;stroke-opacity:1;paint-order:stroke fill markers"
         id="rect79427-1-9-6"
         width="26.417742"
         height="29.037542"
         x="-16.227774"
         y="-6.4845476" />
    </clipPath>
    <filter
       inkscape:collect="always"
       style="color-interpolation-filters:sRGB"
       id="filter77953-2-4-7"
       x="-0.040508607"
       y="-0.067265661"
       width="1.0810172"
       height="1.1345313">
      <feGaussianBlur
         inkscape:collect="always"
         stdDeviation="0.44602907"
         id="feGaussianBlur77955-7-9-5" />
    </filter>
    <clipPath
       clipPathUnits="userSpaceOnUse"
       id="clipPath79425-9-5-5">
      <rect
         style="opacity:0.5;fill:#000000;fill-opacity:1;stroke:none;stroke-width:0.855869;stroke-dasharray:none;stroke-opacity:1;paint-order:stroke fill markers"
         id="rect79427-1-9-62"
         width="26.417742"
         height="29.037542"
         x="-16.227774"
         y="-6.4845476" />
    </clipPath>
    <filter
       inkscape:collect="always"
       style="color-interpolation-filters:sRGB"
       id="filter77953-2-4-9"
       x="-0.040520865"
       y="-0.064907304"
       width="1.0810417"
       height="1.1298146">
      <feGaussianBlur
         inkscape:collect="always"
         stdDeviation="0.44602907"
         id="feGaussianBlur77955-7-9-1" />
    </filter>
    <linearGradient
       inkscape:collect="always"
       xlink:href="#linearGradient7127"
       id="linearGradient1662"
       gradientUnits="userSpaceOnUse"
       gradientTransform="matrix(3.7757185,0,0,3.9032702,384.57656,479.89311)"
       x1="0.52834183"
       y1="14.822159"
       x2="12.825878"
       y2="7.9449944" />
  </defs>
  <metadata
     id="metadata5458">
    <rdf:RDF>
      <cc:Work
         rdf:about="">
        <dc:format>image/svg+xml</dc:format>
        <dc:type
           rdf:resource="http://purl.org/dc/dcmitype/StillImage" />
      </cc:Work>
    </rdf:RDF>
  </metadata>
  <g
     inkscape:label="Capa 1"
     inkscape:groupmode="layer"
     id="layer1"
     transform="translate(-384.57143,-483.798)">
    <path
       id="path32082-9"
       style="fill:url(#linearGradient1419);fill-opacity:1.0;stroke:none;stroke-width:5.11694;stroke-linecap:round;stroke-linejoin:round;stroke-opacity:0.03"
       d="m 393.57143,493.798 c -4,0 -7,3.06879 -7,7.16052 v 5.11466 c 0,0 2,-5.11466 5,-5.11466 h 8 12 6 24 c 3,0 5,2.04586 5,5.11466 v 0 0 -5.11466 c 0,-4.09173 -3,-7.16052 -7,-7.16052 h -24.07114 -5.92886 -9 z"
       sodipodi:nodetypes="sccsccccccccccccs" />
    <rect
       x="410.57138"
       y="494.82092"
       width="12"
       height="2.0458624"
       ry="1.0248643"
       stroke-width="3.41941"
       style="fill:#222638;fill-opacity:1;paint-order:stroke markers fill"
       id="rect12-5-9-3-9" />
    <path
       d="m 418.30476,497.88973 h -3.46666 -4.33334 -16.93333 c -2,0 -3,1.02292 -3,3.06879 v 0 0 h 52 v 0 0 c 0,-2.04587 -1,-3.06879 -3,-3.06879 z"
       style="fill:#222638;fill-opacity:1;stroke-width:2.33915;paint-order:markers stroke fill"
       id="path8-7-2-9-6-1-7-5"
       sodipodi:nodetypes="cccccccccccc"
       opacity="0.6" />
    <path
       style="display:inline;fill:#ffffff;fill-opacity:1;stroke:none;stroke-width:2.77827;stroke-linecap:round;stroke-linejoin:round;stroke-opacity:0.03;filter:url(#filter77953-2-4-7)"
       d="m -14.025629,3.0793846 h 6.1660045 4.8447182 3.08300239 7.92771991 c 1.3212868,0 2.202145,0.9435823 2.202145,2.3589558 l -0.0082,11.1961006 c 0.0082,1.415373 -1.496833,2.225381 -2.6343739,2.232069 L -14.02563,18.993397 c -1.321286,0.0078 -2.202145,-0.943583 -2.202145,-2.358956 l 1e-6,-11.3229881 c -1e-6,-1.288486 0.882451,-2.2155179 2.202145,-2.2320683 z"
       id="path1611-1-8-0-7-3"
       clip-path="url(#clipPath79425-9-5-3)"
       transform="matrix(2.270514,0,0,2.1681872,423.41682,494.28184)"
       sodipodi:nodetypes="cccccccssccc" />
    <path
       style="display:inline;fill:#4f4f4f;fill-opacity:1;stroke:none;stroke-width:2.77827;stroke-linecap:round;stroke-linejoin:round;stroke-opacity:0.03;filter:url(#filter77953-2-4-9)"
       d="m -14.026297,2.5011118 6.1666725,0.1211316 H -3.014907 0.06809547 L 7.9884881,2.5011118 C 9.3097749,2.5157128 10.189967,3.444358 10.189967,4.874457 l -2.06e-4,11.759984 c 0.0082,1.415373 -0.872618,2.358956 -2.6343739,2.358956 H -14.02563 c -1.321306,0 -2.202145,-0.943583 -2.202145,-2.358956 V 4.874457 c 0,-1.4240071 0.880591,-2.3733452 2.201478,-2.3733452 z"
       id="path1611-1-8-0-7-2"
       clip-path="url(#clipPath79425-9-5-5)"
       transform="matrix(2.271201,0,0,2.155042,423.42797,495.56852)"
       sodipodi:nodetypes="cccccccssccc" />
    <path
       d="m 418.57143,500.95852 h -4 -5 -18 c -3,0 -4.99999,2.04587 -4.99999,5.11466 v 26.59622 c 0,3.06876 1.99999,5.11463 4.99999,5.11463 h 49.99999 c 3,0 5,-2.04587 5,-5.11463 v -26.59622 c 0,-3.06879 -2,-5.11466 -5,-5.11466 z"
       style="fill:url(#linearGradient1662);fill-opacity:1;stroke-width:3.83803;paint-order:markers stroke fill"
       id="path8-7-2-9-6-1-9"
       sodipodi:nodetypes="ccccsssssscc"
       opacity="0.6" />
    <path
       d="m 386.57143,518.748 17.1,19 h -10e-6 0.65001 l -17.75,-19.65 v 0 0 z"
       id="path2653-4"
       style="fill:#bac8df;fill-opacity:1;stroke-width:0.48092"
       sodipodi:nodetypes="cccccccc" />
    <path
       d="m 386.57143,524.79794 11.48548,12.98879 -1e-5,0.0113 0.64953,-0.006 v 0.006 l -12.12986,-13.65007 v 0 0 z"
       id="path2653-4-3"
       style="fill:#bac8df;fill-opacity:1;stroke-width:0.330034"
       sodipodi:nodetypes="ccccccccc" />
    <path
       style="color:#232629;fill:#d8f0f3;fill-opacity:1;stroke:none;stroke-width:0.781282"
       d="m 435.81962,510.298 -0.24263,0.82857 c -0.49692,-0.0412 -0.99748,0.0137 -1.47405,0.16023 l -0.41358,-0.75687 -1.37179,0.74928 0.41352,0.75685 c -0.382,0.32186 -0.69796,0.71297 -0.93234,1.15368 l -0.82555,-0.24118 -0.43946,1.49849 0.82861,0.24262 c -0.0412,0.49687 0.0118,0.999 0.1587,1.47558 l -0.75689,0.41351 0.74931,1.37183 0.75677,-0.41506 c 0.32193,0.38208 0.71449,0.6995 1.15518,0.9339 l -0.24268,0.8255 1.50003,0.43948 0.24264,-0.82856 c 0.49691,0.0412 0.99747,-0.0137 1.47402,-0.16023 l 0.41512,0.75688 1.37028,-0.74926 -0.41353,-0.75688 c 0.38201,-0.32185 0.69796,-0.71296 0.93236,-1.15361 l 0.82552,0.24108 0.43947,-1.49845 -0.8285,-0.24262 c 0.0412,-0.49687 -0.0119,-0.99901 -0.15881,-1.47559 l 0.7569,-0.41351 -0.74925,-1.37183 -0.75685,0.41508 c -0.32194,-0.38208 -0.71449,-0.69952 -1.15518,-0.9339 l 0.24266,-0.82554 z m -0.77213,1.60068 c 0.15504,-0.0108 0.31147,-0.0108 0.46691,0.006 0.20721,0.0173 0.41394,0.0554 0.61654,0.1144 0.77963,0.22887 1.44019,0.75247 1.84026,1.46036 0.41564,0.7344 0.51672,1.60686 0.2792,2.41703 -0.22887,0.77977 -0.75246,1.44032 -1.46032,1.84036 -0.7344,0.41564 -1.60689,0.51675 -2.41705,0.27923 -0.77976,-0.22891 -1.4418,-0.75246 -1.84186,-1.46032 -0.41561,-0.73441 -0.51671,-1.60691 -0.2792,-2.41707 0.22888,-0.77974 0.75249,-1.44028 1.46033,-1.84038 0.4131,-0.23375 0.87,-0.36793 1.33519,-0.39819 z m -10.41457,2.28278 -1.55491,0.15262 0.084,0.85914 c -0.47664,0.14685 -0.92024,0.38332 -1.30778,0.69734 l -0.66839,-0.5478 -0.99184,1.20701 0.66685,0.54782 c -0.23437,0.44143 -0.38021,0.9238 -0.43335,1.42066 l -0.85607,0.0841 0.15259,1.55489 0.85914,-0.0841 c 0.14685,0.47652 0.38325,0.92018 0.69733,1.30772 l -0.54781,0.66834 1.20704,0.99181 0.5478,-0.66678 c 0.44138,0.23434 0.92372,0.3802 1.4206,0.43337 l 0.084,0.85603 1.55496,-0.15256 -0.084,-0.85914 c 0.47653,-0.14684 0.92019,-0.3833 1.30771,-0.69736 l 0.66834,0.54779 0.99188,-1.20697 -0.66682,-0.54783 c 0.2344,-0.44136 0.38025,-0.92373 0.43333,-1.4206 l 0.85608,-0.084 -0.15255,-1.55498 -0.85912,0.0841 c -0.1469,-0.47648 -0.38331,-0.92016 -0.6974,-1.30766 l 0.54786,-0.6684 -1.20707,-0.99188 -0.54776,0.66685 c -0.44143,-0.23438 -0.92378,-0.3802 -1.42066,-0.43334 z m -0.0211,1.62972 c 0.59851,0.0575 1.17261,0.28809 1.64959,0.66841 0.66013,0.5266 1.07915,1.29718 1.1612,2.13779 0.0794,0.80947 -0.15978,1.61793 -0.66684,2.25387 -0.52658,0.66018 -1.29871,1.07922 -2.13936,1.16122 -0.80944,0.0794 -1.61635,-0.1598 -2.25234,-0.6668 -0.66013,-0.5266 -1.07914,-1.29875 -1.16118,-2.1394 -0.0794,-0.80941 0.15974,-1.61633 0.66681,-2.25228 0.52661,-0.66017 1.29715,-1.07922 2.13787,-1.16121 0.20236,-0.0201 0.40476,-0.0209 0.60425,-0.002 z m 6.73242,3.11144 v 0.86365 c -0.48905,0.10034 -0.9538,0.29266 -1.37028,0.56768 l -0.61039,-0.61039 -1.10473,1.10478 0.61035,0.61038 c -0.2758,0.41647 -0.4699,0.88121 -0.57068,1.37032 h -0.86065 v 1.56255 h 0.86366 c 0.10035,0.48915 0.2927,0.9539 0.56767,1.37032 l -0.61035,0.61036 1.10473,1.10473 0.61039,-0.61031 c 0.41648,0.27578 0.88123,0.46988 1.37028,0.57066 v 0.86065 h 1.56264 v -0.86371 c 0.48904,-0.0998 0.95378,-0.29258 1.37024,-0.5676 l 0.61041,0.61031 1.10478,-1.10473 -0.61034,-0.61036 c 0.27573,-0.41642 0.46988,-0.88117 0.57068,-1.37032 h 0.86059 v -1.56255 h -0.86366 c -0.10034,-0.48911 -0.29264,-0.95385 -0.56761,-1.37032 l 0.61034,-0.61038 -1.10478,-1.10478 -0.61041,0.61039 c -0.41646,-0.27581 -0.8812,-0.46991 -1.37024,-0.57069 v -0.86064 z m 0.78133,1.56256 c 0.81332,0 1.59388,0.31712 2.1775,0.88349 0.60554,0.58834 0.94764,1.39699 0.94764,2.24168 0,0.81328 -0.31708,1.59386 -0.88355,2.17748 -0.58831,0.6055 -1.39703,0.94757 -2.24159,0.94757 -0.81331,0 -1.59392,-0.31702 -2.17754,-0.88345 -0.60549,-0.58834 -0.94758,-1.39711 -0.94758,-2.2416 0,-0.81336 0.31702,-1.59394 0.88348,-2.17757 0.58832,-0.60545 1.39707,-0.9476 2.24164,-0.9476 z"
       class="ColorScheme-Text"
       id="path1935-0-5" />
  </g>
</svg>
