<?xml version="1.0" encoding="UTF-8" standalone="no"?>
<svg
   viewBox="0 0 16 16"
   version="1.1"
   id="svg29"
   sodipodi:docname="konversation.svg"
   inkscape:version="1.2.1 (9c6d41e410, 2022-07-14)"
   xmlns:inkscape="http://www.inkscape.org/namespaces/inkscape"
   xmlns:sodipodi="http://sodipodi.sourceforge.net/DTD/sodipodi-0.dtd"
   xmlns:xlink="http://www.w3.org/1999/xlink"
   xmlns="http://www.w3.org/2000/svg"
   xmlns:svg="http://www.w3.org/2000/svg">
  <defs
     id="defs33">
    <linearGradient
       inkscape:collect="always"
       id="linearGradient22063">
      <stop
         style="stop-color:#5e81ac;stop-opacity:1;"
         offset="0"
         id="stop22059" />
      <stop
         style="stop-color:#8cc3d4;stop-opacity:1;"
         offset="1"
         id="stop22061" />
    </linearGradient>
    <linearGradient
       inkscape:collect="always"
       xlink:href="#linearGradient22063"
       id="linearGradient22065"
       x1="-15"
       y1="6"
       x2="-15"
       y2="-10"
       gradientUnits="userSpaceOnUse"
       gradientTransform="translate(22,10)" />
    <linearGradient
       id="d-7"
       x2="0"
       y1="44"
       y2="4"
       gradientTransform="matrix(-0.30000006,0,0,0.30000006,15.200004,0.737495)"
       gradientUnits="userSpaceOnUse">
      <stop
         stop-color="#2f74c8"
         offset="0"
         id="stop13-4" />
      <stop
         stop-color="#4699d7"
         offset="1"
         id="stop15-4" />
    </linearGradient>
    <linearGradient
       id="linearGradient22275"
       x1="405.57001"
       x2="427.57001"
       y1="509.79999"
       y2="533.79999"
       gradientUnits="userSpaceOnUse"
       xlink:href="#b"
       gradientTransform="matrix(0.30000006,0,0,0.30000006,-115.57102,-174.20255)" />
    <linearGradient
       id="linearGradient22279"
       x1="405.57001"
       x2="427.57001"
       y1="509.79999"
       y2="533.79999"
       gradientUnits="userSpaceOnUse">
      <stop
         stop-opacity=".286"
         offset="0"
         id="stop7-3" />
      <stop
         stop-opacity="0"
         offset="1"
         id="stop9-0" />
    </linearGradient>
    <linearGradient
       id="linearGradient22281"
       x1="412.57001"
       x2="425.57001"
       y1="514.79999"
       y2="527.79999"
       gradientUnits="userSpaceOnUse"
       xlink:href="#b"
       gradientTransform="matrix(0.30000006,0,0,0.30000006,-115.57102,-174.20255)" />
    <linearGradient
       id="a-7"
       x2="0"
       y1="34"
       y2="4"
       gradientUnits="userSpaceOnUse"
       gradientTransform="matrix(0.30000006,0,0,0.30000006,0.8,0.737495)">
      <stop
         stop-color="#7cbaf8"
         offset="0"
         id="stop2-8" />
      <stop
         stop-color="#f4fcff"
         offset="1"
         id="stop4-6" />
    </linearGradient>
    <linearGradient
       inkscape:collect="always"
       xlink:href="#b"
       id="linearGradient22291"
       gradientUnits="userSpaceOnUse"
       gradientTransform="matrix(0.30000006,0,0,0.30000006,-114.57102,-149.20255)"
       x1="405.57001"
       y1="509.79999"
       x2="427.57001"
       y2="533.79999" />
    <linearGradient
       inkscape:collect="always"
       xlink:href="#b"
       id="linearGradient22293"
       gradientUnits="userSpaceOnUse"
       gradientTransform="matrix(0.30000006,0,0,0.30000006,-114.57102,-149.20255)"
       x1="412.57001"
       y1="514.79999"
       x2="425.57001"
       y2="527.79999" />
  </defs>
  <sodipodi:namedview
     id="namedview31"
     pagecolor="#ffffff"
     bordercolor="#666666"
     borderopacity="1.0"
     inkscape:pageshadow="2"
     inkscape:pageopacity="0.0"
     inkscape:pagecheckerboard="0"
     showgrid="true"
     inkscape:zoom="19.4375"
     inkscape:cx="-4.4501608"
     inkscape:cy="4.2958199"
     inkscape:window-width="1920"
     inkscape:window-height="1002"
     inkscape:window-x="0"
     inkscape:window-y="0"
     inkscape:window-maximized="1"
     inkscape:current-layer="svg29"
     inkscape:showpageshadow="2"
     inkscape:deskcolor="#d1d1d1">
    <inkscape:grid
       type="xygrid"
       id="grid907" />
  </sodipodi:namedview>
  <linearGradient
     id="a"
     x2="0"
     y1="34"
     y2="4"
     gradientUnits="userSpaceOnUse"
     gradientTransform="matrix(0.30000006,0,0,0.30000006,-0.20000002,-24.262505)">
    <stop
       stop-color="#7cbaf8"
       offset="0"
       id="stop2" />
    <stop
       stop-color="#f4fcff"
       offset="1"
       id="stop4" />
  </linearGradient>
  <linearGradient
     id="b"
     x1="405.57001"
     x2="427.57001"
     y1="509.79999"
     y2="533.79999"
     gradientUnits="userSpaceOnUse">
    <stop
       stop-opacity=".286"
       offset="0"
       id="stop7" />
    <stop
       stop-opacity="0"
       offset="1"
       id="stop9" />
  </linearGradient>
  <linearGradient
     id="c"
     x1="412.57001"
     x2="425.57001"
     y1="514.79999"
     y2="527.79999"
     gradientUnits="userSpaceOnUse"
     xlink:href="#b"
     gradientTransform="matrix(0.30000006,0,0,0.30000006,-115.57102,-174.20255)" />
  <linearGradient
     id="d"
     x2="0"
     y1="44"
     y2="4"
     gradientTransform="matrix(-0.30000006,0,0,0.30000006,14.200004,-24.262505)"
     gradientUnits="userSpaceOnUse">
    <stop
       stop-color="#2f74c8"
       offset="0"
       id="stop13" />
    <stop
       stop-color="#4699d7"
       offset="1"
       id="stop15" />
  </linearGradient>
  <linearGradient
     id="e"
     x1="405.57001"
     x2="427.57001"
     y1="509.79999"
     y2="533.79999"
     gradientUnits="userSpaceOnUse"
     xlink:href="#b"
     gradientTransform="matrix(0.30000006,0,0,0.30000006,-115.57102,-174.20255)" />
  <path
     d="M 0,2 C 0,0.8954 0.895431,0 2,0 h 12 c 1.1046,0 2,0.8954 2,2 v 12 c 0,1.1046 -0.8954,2 -2,2 H 2 C 0.895431,16 0,15.1046 0,14 Z"
     id="path736"
     style="fill:#34495e;fill-opacity:1" />
  <path
     d="M 0,1.875 C 0,0.8395 0.895431,0 2,0 h 12 c 1.1046,0 2,0.8395 2,1.875 v 11.25 C 16,14.1605 15.1046,15 14,15 H 2 C 0.895431,15 0,14.1605 0,13.125 Z"
     id="path738"
     style="fill:url(#linearGradient22065);fill-opacity:1" />
  <path
     d="m 14,3.4375 v 6 c 0,0.75 -0.75,1.5 -1.490756,1.5 H 8 l -3,3 v -3 H 3.5 C 2.75,10.9375 2,10.1875 2,9.425044 V 3.4375 c 0,-0.75 0.75,-1.5 1.470425,-1.5 h 8.993628 C 13.25,1.9375 14,2.6875 14,3.4375 Z"
     fill="url(#d)"
     id="path19-8"
     sodipodi:nodetypes="cccccccccccc"
     style="fill:url(#d-7);fill-rule:evenodd;stroke-width:0.3" />
  <path
     d="m 6.5,11.6875 -2.25,-2.25 v -0.75 L 3.5,7.9375 v -3 H 4.25 L 5,5.6875 v -0.75 l 6,-1.875 3,3 v 4.875 H 6.503312 Z"
     fill="url(#e)"
     opacity="0.2"
     id="path21-8"
     style="fill:url(#linearGradient22291);fill-rule:evenodd;stroke-width:0.3" />
  <path
     d="m 11.75,7.9375 2.25,2.25 v -3.75 l -1.5,-1.5 h -0.75 z"
     fill="url(#c)"
     opacity="0.2"
     id="path23-4"
     style="fill:url(#linearGradient22293);fill-rule:evenodd;stroke-width:0.3" />
  <path
     d="m 11,3.0625 -6,1.875 v 3 l 6,1.875 z m -7.5,1.875 v 3 h 0.75 v -3 z m 8.25,0 v 3 h 0.75 v -3 z m -7.5,3 v 1.5 H 5 v -1.5 z"
     fill="url(#a)"
     id="path25-3"
     style="fill:url(#a-7);fill-rule:evenodd;stroke-width:0.3" />
</svg>
