<?xml version="1.0" encoding="UTF-8" standalone="no"?>
<svg
   id="svg2"
   height="64"
   version="1.1"
   width="64"
   sodipodi:docname="folder-decrypted.svg"
   inkscape:version="1.2.2 (b0a8486541, 2022-12-01)"
   xmlns:inkscape="http://www.inkscape.org/namespaces/inkscape"
   xmlns:sodipodi="http://sodipodi.sourceforge.net/DTD/sodipodi-0.dtd"
   xmlns:xlink="http://www.w3.org/1999/xlink"
   xmlns="http://www.w3.org/2000/svg"
   xmlns:svg="http://www.w3.org/2000/svg"
   xmlns:rdf="http://www.w3.org/1999/02/22-rdf-syntax-ns#"
   xmlns:cc="http://creativecommons.org/ns#"
   xmlns:dc="http://purl.org/dc/elements/1.1/">
  <sodipodi:namedview
     pagecolor="#ffffff"
     bordercolor="#666666"
     borderopacity="1"
     objecttolerance="10"
     gridtolerance="10"
     guidetolerance="10"
     inkscape:pageopacity="0"
     inkscape:pageshadow="2"
     inkscape:window-width="1920"
     inkscape:window-height="994"
     id="namedview40"
     showgrid="true"
     inkscape:zoom="4"
     inkscape:cx="5.625"
     inkscape:cy="24.75"
     inkscape:window-x="0"
     inkscape:window-y="0"
     inkscape:window-maximized="1"
     inkscape:current-layer="svg2"
     inkscape:document-rotation="0"
     inkscape:showpageshadow="2"
     inkscape:pagecheckerboard="0"
     inkscape:deskcolor="#d1d1d1">
    <inkscape:grid
       type="xygrid"
       id="grid1240" />
  </sodipodi:namedview>
  <defs
     id="defs5455">
    <linearGradient
       id="linearGradient4172-5">
      <stop
         id="stop4174-6"
         style="stop-color:#3e3e3e" />
      <stop
         id="stop4176-6"
         style="stop-color:#494949"
         offset="1" />
    </linearGradient>
    <linearGradient
       gradientTransform="matrix(1,0,0,0.99967455,0,0.176455)"
       x2="0"
       gradientUnits="userSpaceOnUse"
       y2="499.78421"
       y1="541.79797"
       xlink:href="#linearGradient4172-5"
       id="linearGradient4178-3-3-1" />
    <linearGradient
       inkscape:collect="always"
       xlink:href="#linearGradient2303"
       id="linearGradient1419"
       x1="0.52915627"
       y1="5.0269842"
       x2="16.403845"
       y2="5.0269842"
       gradientUnits="userSpaceOnUse"
       gradientTransform="matrix(3.779602,0,0,3.8662747,-1.9999999e-8,-3.29811)" />
    <linearGradient
       inkscape:collect="always"
       id="linearGradient2303">
      <stop
         style="stop-color:#00ccff;stop-opacity:1"
         offset="0"
         id="stop2299" />
      <stop
         style="stop-color:#3771c8;stop-opacity:1"
         offset="1"
         id="stop2301" />
    </linearGradient>
    <clipPath
       clipPathUnits="userSpaceOnUse"
       id="clipPath79425-9-5-3">
      <rect
         style="opacity:0.5;fill:#000000;fill-opacity:1;stroke:none;stroke-width:0.855869;stroke-dasharray:none;stroke-opacity:1;paint-order:stroke fill markers"
         id="rect79427-1-9-6"
         width="26.417742"
         height="29.037542"
         x="-16.227774"
         y="-6.4845476" />
    </clipPath>
    <filter
       inkscape:collect="always"
       style="color-interpolation-filters:sRGB"
       id="filter77953-2-4-7"
       x="-0.040508607"
       y="-0.067265661"
       width="1.0810172"
       height="1.1345313">
      <feGaussianBlur
         inkscape:collect="always"
         stdDeviation="0.44602907"
         id="feGaussianBlur77955-7-9-5" />
    </filter>
    <clipPath
       clipPathUnits="userSpaceOnUse"
       id="clipPath79425-9-5-5">
      <rect
         style="opacity:0.5;fill:#000000;fill-opacity:1;stroke:none;stroke-width:0.855869;stroke-dasharray:none;stroke-opacity:1;paint-order:stroke fill markers"
         id="rect79427-1-9-62"
         width="26.417742"
         height="29.037542"
         x="-16.227774"
         y="-6.4845476" />
    </clipPath>
    <filter
       inkscape:collect="always"
       style="color-interpolation-filters:sRGB"
       id="filter77953-2-4-9"
       x="-0.040520865"
       y="-0.064907304"
       width="1.0810417"
       height="1.1298146">
      <feGaussianBlur
         inkscape:collect="always"
         stdDeviation="0.44602907"
         id="feGaussianBlur77955-7-9-1" />
    </filter>
    <linearGradient
       inkscape:collect="always"
       xlink:href="#linearGradient2303"
       id="linearGradient1662"
       gradientUnits="userSpaceOnUse"
       gradientTransform="matrix(3.7757185,0,0,3.9032702,0.00512998,-3.90489)"
       x1="9.3259869"
       y1="14.831515"
       x2="9.3259869"
       y2="4.269978" />
  </defs>
  <metadata
     id="metadata5458">
    <rdf:RDF>
      <cc:Work
         rdf:about="">
        <dc:format>image/svg+xml</dc:format>
        <dc:type
           rdf:resource="http://purl.org/dc/dcmitype/StillImage" />
      </cc:Work>
    </rdf:RDF>
  </metadata>
  <path
     id="path32082-9"
     style="fill:url(#linearGradient1419);fill-opacity:1;stroke:none;stroke-width:5.11694;stroke-linecap:round;stroke-linejoin:round;stroke-opacity:0.03"
     d="m 9,10 c -4,0 -7,3.06879 -7,7.16052 v 5.11466 c 0,0 2,-5.11466 5,-5.11466 h 8 12 6 24 c 3,0 5,2.04586 5,5.11466 v 0 0 -5.11466 C 62,13.06879 59,10 55,10 H 30.92886 25 16 Z"
     sodipodi:nodetypes="sccsccccccccccccs" />
  <rect
     x="25.999958"
     y="11.022959"
     width="12"
     height="2.0458624"
     ry="1.0248643"
     stroke-width="3.41941"
     style="fill:#222638;fill-opacity:1;paint-order:stroke markers fill"
     id="rect12-5-9-3-9" />
  <path
     d="M 33.73333,14.09173 H 30.26667 25.93333 9 c -2,0 -3,1.02292 -3,3.06879 v 0 0 h 52 v 0 0 c 0,-2.04587 -1,-3.06879 -3,-3.06879 z"
     style="fill:#222638;fill-opacity:1;stroke-width:2.33915;paint-order:markers stroke fill"
     id="path8-7-2-9-6-1-7-5"
     sodipodi:nodetypes="cccccccccccc"
     opacity="0.6" />
  <path
     style="display:inline;fill:#ffffff;fill-opacity:1;stroke:none;stroke-width:2.77827;stroke-linecap:round;stroke-linejoin:round;stroke-opacity:0.03;filter:url(#filter77953-2-4-7)"
     d="m -14.025629,3.0793846 h 6.1660045 4.8447182 3.08300239 7.92771991 c 1.3212868,0 2.202145,0.9435823 2.202145,2.3589558 l -0.0082,11.1961006 c 0.0082,1.415373 -1.496833,2.225381 -2.6343739,2.232069 L -14.02563,18.993397 c -1.321286,0.0078 -2.202145,-0.943583 -2.202145,-2.358956 l 1e-6,-11.3229881 c -1e-6,-1.288486 0.882451,-2.2155179 2.202145,-2.2320683 z"
     id="path1611-1-8-0-7-3"
     clip-path="url(#clipPath79425-9-5-3)"
     transform="matrix(2.270514,0,0,2.1681872,38.84539,10.48384)"
     sodipodi:nodetypes="cccccccssccc" />
  <path
     style="display:inline;fill:#4f4f4f;fill-opacity:1;stroke:none;stroke-width:2.77827;stroke-linecap:round;stroke-linejoin:round;stroke-opacity:0.03;filter:url(#filter77953-2-4-9)"
     d="m -14.026297,2.5011118 6.1666725,0.1211316 H -3.014907 0.06809547 L 7.9884881,2.5011118 C 9.3097749,2.5157128 10.189967,3.444358 10.189967,4.874457 l -2.06e-4,11.759984 c 0.0082,1.415373 -0.872618,2.358956 -2.6343739,2.358956 H -14.02563 c -1.321306,0 -2.202145,-0.943583 -2.202145,-2.358956 V 4.874457 c 0,-1.4240071 0.880591,-2.3733452 2.201478,-2.3733452 z"
     id="path1611-1-8-0-7-2"
     clip-path="url(#clipPath79425-9-5-5)"
     transform="matrix(2.271201,0,0,2.155042,38.85654,11.77052)"
     sodipodi:nodetypes="cccccccssccc" />
  <path
     d="M 34,17.16052 H 30 25 7 c -3,0 -4.99999,2.04587 -4.99999,5.11466 V 48.8714 C 2.00001,51.94016 4,53.98603 7,53.98603 h 49.99999 c 3,0 5,-2.04587 5,-5.11463 V 22.27518 c 0,-3.06879 -2,-5.11466 -5,-5.11466 z"
     style="fill:url(#linearGradient1662);fill-opacity:1;stroke-width:3.83803;paint-order:markers stroke fill"
     id="path8-7-2-9-6-1-9"
     sodipodi:nodetypes="ccccsssssscc"
     opacity="0.6" />
  <path
     d="m 2,34.95 17.1,19 h -1e-5 H 19.75 L 2,34.3 v 0 0 z"
     id="path2653-4"
     style="fill:#bac8df;fill-opacity:1;stroke-width:0.48092"
     sodipodi:nodetypes="cccccccc" />
  <path
     d="m 2,40.99994 11.48548,12.98879 -1e-5,0.0113 0.64953,-0.006 v 0.006 L 2.00514,40.34996 v 0 0 z"
     id="path2653-4-3"
     style="fill:#bac8df;fill-opacity:1;stroke-width:0.330034"
     sodipodi:nodetypes="ccccccccc" />
  <path
     style="fill:#d8f0f3;fill-opacity:1;stroke-width:0.744071"
     d="m 48.634095,35 c -1.97179,0 -3.559205,1.734444 -3.559205,3.888888 h 0.711855 c 0,-1.885132 1.36851,-3.111107 2.84735,-3.111107 1.478865,0 2.847385,1.225975 2.847385,3.111107 V 42.014 h -5.694735 -2.18207 C 42.95,42.02205 42.95,42.200517 42.95,42.83475 v 0.71419 4.85256 -0.175 c 0,0.421985 0,0.751068 0.758276,0.7735 h 9.881034 c 0.73568,-0.007 0.73568,-0.320226 0.73568,-0.7735 l 2e-5,-5.355 c -2e-5,-0.728297 -2e-5,-0.82069 -0.719815,-0.8575 h -1.41188 V 38.888888 C 52.193305,36.734444 50.60592,35 48.634095,35 Z m -4.9829,7.777781 h 9.96579 v 5.444438 h -9.96579 z"
     id="rect4136-9-5-3-3-3-3-3-5-6"
     sodipodi:nodetypes="sccsscccccccccccccssccccc" />
  <g
     transform="matrix(1.0281555,0,0,0.92815545,-396.24363,-443.4032)"
     id="layer1-7-6-2-4-1"
     style="fill:#d8f0f3;fill-opacity:1">
    <g
       transform="translate(-129,59.999995)"
       id="g5881-5-7-3-7-8"
       style="fill:#d8f0f3;fill-opacity:1">
      <g
         id="g4154-5-3-3-5-7-4-7"
         transform="translate(129,-60)"
         style="fill:#d8f0f3;fill-opacity:1" />
      <g
         id="g4445-8-6-2-6-3-5-4-9"
         transform="translate(127.99999,-59.99997)"
         style="fill:#d8f0f3;fill-opacity:1">
        <rect
           y="507.79797"
           x="391.57144"
           height="4"
           width="4"
           id="rect4179-2-9-6-5-8-0-0-2-5-9-3-2"
           style="opacity:0.6;fill:#d8f0f3;fill-opacity:1;stroke:none;stroke-width:2;stroke-miterlimit:4;stroke-dasharray:none;stroke-opacity:1" />
        <rect
           y="507.79797"
           x="399.57144"
           height="4"
           width="4"
           id="rect4179-5-61-4-1-4-1-2-8-9-6-2-0-0"
           style="opacity:0.6;fill:#d8f0f3;fill-opacity:1;stroke:none;stroke-width:2;stroke-miterlimit:4;stroke-dasharray:none;stroke-opacity:1" />
        <rect
           y="507.79797"
           x="407.57144"
           height="4"
           width="4"
           id="rect4179-5-6-8-7-5-7-0-8-6-1-2-2-7-2"
           style="opacity:0.6;fill:#d8f0f3;fill-opacity:1;stroke:none;stroke-width:2;stroke-miterlimit:4;stroke-dasharray:none;stroke-opacity:1" />
        <rect
           y="507.79797"
           x="415.57144"
           height="4"
           width="4"
           id="rect4179-5-6-2-7-8-5-4-3-3-2-2-9-8-8-3"
           style="opacity:0.6;fill:#d8f0f3;fill-opacity:1;stroke:none;stroke-width:2;stroke-miterlimit:4;stroke-dasharray:none;stroke-opacity:1" />
        <rect
           y="507.79797"
           x="423.57144"
           height="4"
           width="4"
           id="rect4179-5-6-2-9-9-4-4-4-0-8-4-7-1-9-6-7"
           style="opacity:0.6;fill:#d8f0f3;fill-opacity:1;stroke:none;stroke-width:2;stroke-miterlimit:4;stroke-dasharray:none;stroke-opacity:1" />
        <rect
           y="507.79797"
           x="431.57144"
           height="4"
           width="4"
           id="rect4179-5-6-2-9-1-20-5-7-3-4-0-7-0-2-7-8-5"
           style="opacity:0.6;fill:#d8f0f3;fill-opacity:1;stroke:none;stroke-width:2;stroke-miterlimit:4;stroke-dasharray:none;stroke-opacity:1" />
        <rect
           y="507.79797"
           x="439.57144"
           height="4"
           width="4"
           id="rect4179-5-6-2-9-1-2-2-0-6-0-4-4-9-9-7-3-8-9"
           style="opacity:0.6;fill:#d8f0f3;fill-opacity:1;stroke:none;stroke-width:2;stroke-miterlimit:4;stroke-dasharray:none;stroke-opacity:1" />
        <rect
           y="503.79797"
           x="388.57144"
           height="4"
           width="3"
           id="rect4179-7-3-5-7-4-0-3-3-0-6-4-2"
           style="opacity:0.6;fill:#d8f0f3;fill-opacity:1;stroke:none;stroke-width:2;stroke-miterlimit:4;stroke-dasharray:none;stroke-opacity:1" />
        <rect
           y="503.79797"
           x="395.57144"
           height="4"
           width="4"
           id="rect4179-5-5-6-6-8-4-9-9-6-9-1-3-2"
           style="opacity:0.6;fill:#d8f0f3;fill-opacity:1;stroke:none;stroke-width:2;stroke-miterlimit:4;stroke-dasharray:none;stroke-opacity:1" />
        <rect
           y="503.79797"
           x="403.57144"
           height="4"
           width="4"
           id="rect4179-5-6-9-1-9-6-7-1-2-0-3-2-1-8"
           style="opacity:0.6;fill:#d8f0f3;fill-opacity:1;stroke:none;stroke-width:2;stroke-miterlimit:4;stroke-dasharray:none;stroke-opacity:1" />
        <rect
           y="503.79797"
           x="411.57144"
           height="4"
           width="4"
           id="rect4179-5-6-2-2-0-3-8-6-9-8-6-6-9-4-9"
           style="opacity:0.6;fill:#d8f0f3;fill-opacity:1;stroke:none;stroke-width:2;stroke-miterlimit:4;stroke-dasharray:none;stroke-opacity:1" />
        <rect
           y="503.79797"
           x="419.57144"
           height="4"
           width="4"
           id="rect4179-5-6-2-9-2-6-7-8-3-6-3-2-0-3-9-7"
           style="opacity:0.6;fill:#d8f0f3;fill-opacity:1;stroke:none;stroke-width:2;stroke-miterlimit:4;stroke-dasharray:none;stroke-opacity:1" />
        <rect
           y="503.79797"
           x="427.57144"
           height="4"
           width="4"
           id="rect4179-5-6-2-9-1-8-3-4-4-1-2-0-6-6-1-2-3"
           style="opacity:0.6;fill:#d8f0f3;fill-opacity:1;stroke:none;stroke-width:2;stroke-miterlimit:4;stroke-dasharray:none;stroke-opacity:1" />
        <rect
           y="503.79797"
           x="435.57144"
           height="4"
           width="4"
           id="rect4179-5-6-2-9-1-2-9-2-5-3-7-5-1-1-2-9-0-6"
           style="opacity:0.6;fill:#d8f0f3;fill-opacity:1;stroke:none;stroke-width:2;stroke-miterlimit:4;stroke-dasharray:none;stroke-opacity:1" />
        <rect
           y="503.79797"
           x="443.57144"
           height="4"
           width="2.9999826"
           id="rect4179-5-6-2-9-1-2-7-7-0-2-1-5-4-7-8-6-4-6-1"
           style="opacity:0.6;fill:#d8f0f3;fill-opacity:1;stroke:none;stroke-width:2;stroke-miterlimit:4;stroke-dasharray:none;stroke-opacity:1" />
        <rect
           y="499.79797"
           x="415.57144"
           height="4"
           width="4"
           id="rect4179-5-6-2-7-8-5-4-0-1-3-5-9-8-8-8-2"
           style="opacity:0.6;fill:#d8f0f3;fill-opacity:1;stroke:none;stroke-width:2;stroke-miterlimit:4;stroke-dasharray:none;stroke-opacity:1" />
        <rect
           y="499.79797"
           x="423.57144"
           height="4"
           width="4"
           id="rect4179-5-6-2-9-9-4-4-4-6-7-6-4-2-7-4-9-9"
           style="opacity:0.6;fill:#d8f0f3;fill-opacity:1;stroke:none;stroke-width:2;stroke-miterlimit:4;stroke-dasharray:none;stroke-opacity:1" />
        <rect
           y="499.79797"
           x="431.57144"
           height="4"
           width="4"
           id="rect4179-5-6-2-9-1-20-5-7-3-8-8-0-9-0-9-5-2-3"
           style="opacity:0.6;fill:#d8f0f3;fill-opacity:1;stroke:none;stroke-width:2;stroke-miterlimit:4;stroke-dasharray:none;stroke-opacity:1" />
        <rect
           y="499.79797"
           x="439.57144"
           height="4"
           width="4"
           id="rect4179-5-6-2-9-1-2-2-0-6-0-9-5-5-2-2-2-0-6-1"
           style="opacity:0.6;fill:#d8f0f3;fill-opacity:1;stroke:none;stroke-width:2;stroke-miterlimit:4;stroke-dasharray:none;stroke-opacity:1" />
      </g>
    </g>
  </g>
  <rect
     y="20.487007"
     x="5.324491"
     height="3.7126207"
     width="4.112618"
     id="rect4179-5-6-2-7-8-5-4-0-1-3-5-9-8-8-3-6-9"
     style="opacity:0.6;fill:#d8f0f3;fill-opacity:1;stroke:none;stroke-width:1.95378;stroke-miterlimit:4;stroke-dasharray:none;stroke-opacity:1" />
  <rect
     y="20.487007"
     x="13.549738"
     height="3.7126207"
     width="4.112618"
     id="rect4179-5-6-2-7-8-5-4-0-1-3-5-9-8-8-6-4-4"
     style="opacity:0.6;fill:#d8f0f3;fill-opacity:1;stroke:none;stroke-width:1.95378;stroke-miterlimit:4;stroke-dasharray:none;stroke-opacity:1" />
  <rect
     y="20.487"
     x="21.774818"
     height="3.7126207"
     width="4.112618"
     id="rect4179-5-6-2-7-8-5-4-0-1-3-5-9-8-8-7-9-7"
     style="opacity:0.6;fill:#d8f0f3;fill-opacity:1;stroke:none;stroke-width:1.95378;stroke-miterlimit:4;stroke-dasharray:none;stroke-opacity:1" />
</svg>
