<?xml version="1.0" encoding="UTF-8" standalone="no"?>
<svg
   width="64"
   version="1.1"
   height="64"
   id="svg17"
   sodipodi:docname="folder-inkscape.svg"
   inkscape:version="1.2.2 (b0a8486541, 2022-12-01)"
   xmlns:inkscape="http://www.inkscape.org/namespaces/inkscape"
   xmlns:sodipodi="http://sodipodi.sourceforge.net/DTD/sodipodi-0.dtd"
   xmlns:xlink="http://www.w3.org/1999/xlink"
   xmlns="http://www.w3.org/2000/svg"
   xmlns:svg="http://www.w3.org/2000/svg"
   xmlns:rdf="http://www.w3.org/1999/02/22-rdf-syntax-ns#"
   xmlns:cc="http://creativecommons.org/ns#"
   xmlns:dc="http://purl.org/dc/elements/1.1/">
  <sodipodi:namedview
     pagecolor="#ffffff"
     bordercolor="#666666"
     borderopacity="1"
     objecttolerance="10"
     gridtolerance="10"
     guidetolerance="10"
     inkscape:pageopacity="0"
     inkscape:pageshadow="2"
     inkscape:window-width="1920"
     inkscape:window-height="994"
     id="namedview19"
     showgrid="true"
     inkscape:zoom="8.0000004"
     inkscape:cx="-0.68749997"
     inkscape:cy="44.374998"
     inkscape:window-x="0"
     inkscape:window-y="0"
     inkscape:window-maximized="1"
     inkscape:current-layer="layer1"
     inkscape:document-rotation="0"
     inkscape:showpageshadow="2"
     inkscape:pagecheckerboard="0"
     inkscape:deskcolor="#d1d1d1">
    <inkscape:grid
       type="xygrid"
       id="grid908" />
  </sodipodi:namedview>
  <defs
     id="defs5455">
    <linearGradient
       inkscape:collect="always"
       xlink:href="#linearGradient2303"
       id="linearGradient1419"
       x1="0.52915627"
       y1="5.0269842"
       x2="16.403845"
       y2="5.0269842"
       gradientUnits="userSpaceOnUse"
       gradientTransform="matrix(3.779602,0,0,3.8662747,384.57143,480.49989)" />
    <clipPath
       clipPathUnits="userSpaceOnUse"
       id="clipPath79425-9-5-3">
      <rect
         style="opacity:0.5;fill:#000000;fill-opacity:1;stroke:none;stroke-width:0.855869;stroke-dasharray:none;stroke-opacity:1;paint-order:stroke fill markers"
         id="rect79427-1-9-6"
         width="26.417742"
         height="29.037542"
         x="-16.227774"
         y="-6.4845476" />
    </clipPath>
    <filter
       inkscape:collect="always"
       style="color-interpolation-filters:sRGB"
       id="filter77953-2-4-7"
       x="-0.040508607"
       y="-0.067265661"
       width="1.0810172"
       height="1.1345313">
      <feGaussianBlur
         inkscape:collect="always"
         stdDeviation="0.44602907"
         id="feGaussianBlur77955-7-9-5" />
    </filter>
    <clipPath
       clipPathUnits="userSpaceOnUse"
       id="clipPath79425-9-5-5">
      <rect
         style="opacity:0.5;fill:#000000;fill-opacity:1;stroke:none;stroke-width:0.855869;stroke-dasharray:none;stroke-opacity:1;paint-order:stroke fill markers"
         id="rect79427-1-9-62"
         width="26.417742"
         height="29.037542"
         x="-16.227774"
         y="-6.4845476" />
    </clipPath>
    <filter
       inkscape:collect="always"
       style="color-interpolation-filters:sRGB"
       id="filter77953-2-4-9"
       x="-0.040520865"
       y="-0.064907304"
       width="1.0810417"
       height="1.1298146">
      <feGaussianBlur
         inkscape:collect="always"
         stdDeviation="0.44602907"
         id="feGaussianBlur77955-7-9-1" />
    </filter>
    <linearGradient
       inkscape:collect="always"
       xlink:href="#linearGradient2303"
       id="linearGradient1662"
       gradientUnits="userSpaceOnUse"
       gradientTransform="matrix(3.7757185,0,0,3.9032702,384.57656,479.89311)"
       x1="9.3259869"
       y1="14.831515"
       x2="9.3259869"
       y2="4.269978" />
    <linearGradient
       inkscape:collect="always"
       id="linearGradient2303">
      <stop
         style="stop-color:#a78bda;stop-opacity:1;"
         offset="0"
         id="stop2299" />
      <stop
         style="stop-color:#ffe680;stop-opacity:1"
         offset="0.4817889"
         id="stop11969" />
      <stop
         style="stop-color:#00bdff;stop-opacity:1;"
         offset="1"
         id="stop2301" />
    </linearGradient>
  </defs>
  <metadata
     id="metadata5458">
    <rdf:RDF>
      <cc:Work
         rdf:about="">
        <dc:format>image/svg+xml</dc:format>
        <dc:type
           rdf:resource="http://purl.org/dc/dcmitype/StillImage" />
      </cc:Work>
    </rdf:RDF>
  </metadata>
  <g
     inkscape:label="Capa 1"
     inkscape:groupmode="layer"
     id="layer1"
     transform="translate(-384.57143,-483.798)">
    <path
       id="path32082-9"
       style="fill:url(#linearGradient1419);fill-opacity:1.0;stroke:none;stroke-width:5.11694;stroke-linecap:round;stroke-linejoin:round;stroke-opacity:0.03"
       d="m 393.57143,493.798 c -4,0 -7,3.06879 -7,7.16052 v 5.11466 c 0,0 2,-5.11466 5,-5.11466 h 8 12 6 24 c 3,0 5,2.04586 5,5.11466 v 0 0 -5.11466 c 0,-4.09173 -3,-7.16052 -7,-7.16052 h -24.07114 -5.92886 -9 z"
       sodipodi:nodetypes="sccsccccccccccccs" />
    <rect
       x="410.57144"
       y="494.82095"
       width="12"
       height="2.0458624"
       ry="1.0248643"
       stroke-width="3.41941"
       style="fill:#222638;fill-opacity:1;paint-order:stroke markers fill"
       id="rect12-5-9-3-9" />
    <path
       d="m 418.30476,497.88973 h -3.46666 -4.33334 -16.93333 c -2,0 -3,1.02292 -3,3.06879 v 0 0 h 52 v 0 0 c 0,-2.04587 -1,-3.06879 -3,-3.06879 z"
       style="fill:#222638;fill-opacity:1;stroke-width:2.33915;paint-order:markers stroke fill"
       id="path8-7-2-9-6-1-7-5"
       sodipodi:nodetypes="cccccccccccc"
       opacity="0.6" />
    <path
       style="display:inline;fill:#ffffff;fill-opacity:1;stroke:none;stroke-width:2.77827;stroke-linecap:round;stroke-linejoin:round;stroke-opacity:0.03;filter:url(#filter77953-2-4-7)"
       d="m -14.025629,3.0793846 h 6.1660045 4.8447182 3.08300239 7.92771991 c 1.3212868,0 2.202145,0.9435823 2.202145,2.3589558 l -0.0082,11.1961006 c 0.0082,1.415373 -1.496833,2.225381 -2.6343739,2.232069 L -14.02563,18.993397 c -1.321286,0.0078 -2.202145,-0.943583 -2.202145,-2.358956 l 1e-6,-11.3229881 c -1e-6,-1.288486 0.882451,-2.2155179 2.202145,-2.2320683 z"
       id="path1611-1-8-0-7-3"
       clip-path="url(#clipPath79425-9-5-3)"
       transform="matrix(2.270514,0,0,2.1681872,423.41682,494.28184)"
       sodipodi:nodetypes="cccccccssccc" />
    <path
       style="display:inline;fill:#4f4f4f;fill-opacity:1;stroke:none;stroke-width:2.77827;stroke-linecap:round;stroke-linejoin:round;stroke-opacity:0.03;filter:url(#filter77953-2-4-9)"
       d="m -14.026297,2.5011118 6.1666725,0.1211316 H -3.014907 0.06809547 L 7.9884881,2.5011118 C 9.3097749,2.5157128 10.189967,3.444358 10.189967,4.874457 l -2.06e-4,11.759984 c 0.0082,1.415373 -0.872618,2.358956 -2.6343739,2.358956 H -14.02563 c -1.321306,0 -2.202145,-0.943583 -2.202145,-2.358956 V 4.874457 c 0,-1.4240071 0.880591,-2.3733452 2.201478,-2.3733452 z"
       id="path1611-1-8-0-7-2"
       clip-path="url(#clipPath79425-9-5-5)"
       transform="matrix(2.271201,0,0,2.155042,423.42797,495.56852)"
       sodipodi:nodetypes="cccccccssccc" />
    <path
       d="m 418.57143,500.95852 h -4 -5 -18 c -3,0 -4.99999,2.04587 -4.99999,5.11466 v 26.59622 c 0,3.06876 1.99999,5.11463 4.99999,5.11463 h 49.99999 c 3,0 5,-2.04587 5,-5.11463 v -26.59622 c 0,-3.06879 -2,-5.11466 -5,-5.11466 z"
       style="fill:url(#linearGradient1662);fill-opacity:1;stroke-width:3.83803;paint-order:markers stroke fill"
       id="path8-7-2-9-6-1-9"
       sodipodi:nodetypes="ccccsssssscc"
       opacity="0.6" />
    <path
       d="m 386.57143,518.748 17.1,19 h -10e-6 0.65001 l -17.75,-19.65 v 0 0 z"
       id="path2653-4"
       style="fill:#bac8df;fill-opacity:1;stroke-width:0.48092"
       sodipodi:nodetypes="cccccccc" />
    <path
       d="m 386.57143,524.79794 11.48548,12.98879 -1e-5,0.0113 0.64953,-0.006 v 0.006 L 386.57657,524.148 v 0 0 z"
       id="path2653-4-3"
       style="fill:#bac8df;fill-opacity:1;stroke-width:0.330034"
       sodipodi:nodetypes="ccccccccc" />
    <path
       d="m 431.45946,528.29797 c -0.25647,0 -0.49495,-0.0337 -0.70193,-0.10877 -0.42446,-0.1545 -0.69818,-0.4673 -0.77017,-0.88059 -0.0653,-0.37429 -0.18899,-0.43129 -0.73868,-0.53106 -0.35922,-0.0653 -0.80767,-0.14701 -1.13614,-0.49956 -0.63594,-0.66307 0.0315,-1.36814 0.28197,-1.63368 0.0457,-0.048 0.10799,-0.11326 0.15899,-0.17326 -0.31497,-0.17477 -1.05665,-0.41931 -1.52835,-0.57532 -1.11214,-0.36754 -1.81332,-0.61657 -2.15904,-0.9781 -0.18223,-0.18604 -0.26247,-0.42681 -0.22048,-0.67283 0.0863,-0.50931 0.63669,-0.78084 1.21863,-1.06737 0,0 7.5e-4,0 7.5e-4,0 -0.26772,-0.0908 -0.57144,-0.17328 -0.86841,-0.25503 -1.0559,-0.28803 -2.14704,-0.58657 -2.38326,-1.45891 -0.20623,-0.76734 0.39146,-1.48892 0.86016,-1.96522 l 6.19514,-6.45297 c 0.48295,-0.48755 1.13164,-0.75608 1.81482,-0.74708 0.004,0 0.008,0 0.0112,0 0.66894,0 1.31611,0.25803 1.81257,0.72833 l 6.44261,6.70424 c 0.65468,0.66608 0.91415,1.31715 0.77017,1.93372 -0.27447,1.18288 -1.88382,1.74469 -3.4384,2.28775 -0.46947,0.16427 -0.95016,0.33153 -1.32437,0.50031 0.0119,0.008 0.0232,0.0128 0.0346,0.0188 0.56994,0.32105 1.43009,0.80635 1.11213,1.61194 -0.35695,0.92485 -1.03265,1.10563 -1.62959,1.26614 -0.40645,0.10877 -0.82492,0.22053 -1.26963,0.57982 0.22124,0.1245 0.46796,0.31053 0.50997,0.64806 0.0225,0.18303 -0.0157,0.45681 -0.32322,0.72383 -0.65695,0.55282 -1.80734,0.99687 -2.73198,0.99687 z m -2.39751,-2.7168 c 0.10574,0.0383 0.24822,0.0638 0.38846,0.0892 0.5377,0.0975 1.43761,0.26177 1.64459,1.44316 0.18598,0.17177 1.21113,0.0383 1.98881,-0.40805 -0.18974,-0.12301 -0.37347,-0.29928 -0.42146,-0.57981 -0.0299,-0.17702 -0.0104,-0.4478 0.25721,-0.72683 0.76943,-0.7906 1.51786,-0.99086 2.06455,-1.13787 0.4882,-0.13052 0.67793,-0.19278 0.81591,-0.45906 -0.13348,-0.11026 -0.40195,-0.26253 -0.56019,-0.35104 -0.47769,-0.26928 -0.92765,-0.5228 -0.9539,-0.99986 -0.009,-0.14777 0.0247,-0.4298 0.33822,-0.65557 0.48595,-0.34729 1.26437,-0.61957 2.08629,-0.90686 1.02739,-0.35929 2.579,-0.90159 2.71398,-1.48066 0.0668,-0.28503 -0.27072,-0.68107 -0.47846,-0.89185 -0.003,-0.002 -0.004,-0.003 -0.006,-0.005 l -6.42568,-6.68773 c -0.26698,-0.25203 -0.63969,-0.4013 -1.03041,-0.4013 -0.009,0 -0.018,0 -0.0278,0 -0.37121,0 -0.72443,0.14777 -0.98165,0.4073 l -6.19433,6.45151 c -0.63669,0.64657 -0.58044,0.88585 -0.58044,0.88809 0.0675,0.24978 1.06039,0.52132 1.59359,0.66683 0.64943,0.17702 1.32212,0.36078 1.80507,0.67283 0.34497,0.22877 0.36371,0.5363 0.35621,0.65857 -0.0315,0.49505 -0.52269,0.73733 -1.09264,1.01786 -0.09,0.0442 -0.20548,0.10126 -0.31647,0.15977 0.37947,0.16576 0.94491,0.35329 1.33262,0.48155 1.08289,0.35779 1.76533,0.59933 2.10504,0.94511 0.64644,0.67432 -0.0195,1.37939 -0.27072,1.64417 -0.0427,0.0465 -0.10049,0.10802 -0.15073,0.16503 z m 6.80557,-1.71094 h 0.009 z m -0.01,-0.19727 c -7.5e-4,7.4e-4 -7.5e-4,0.002 -0.002,0.003 7.5e-4,-7.5e-4 7.5e-4,-0.002 0.002,-0.003 z m -10.18264,-1.53768 c 0,7.5e-4 7.5e-4,0.002 0.001,0.002 -7.5e-4,0 -0.001,-7.5e-4 -0.001,-0.002 z"
       id="path2"
       style="fill:#d8f0f3;fill-opacity:1;stroke-width:0.75001" />
    <path
       d="m 430.96526,517.43826 c -0.0705,0 -0.14099,-0.0135 -0.20848,-0.0398 -0.16873,-0.0675 -0.29472,-0.21228 -0.33747,-0.38855 l -0.16873,-0.68857 -0.22198,0.48755 c -0.0915,0.20027 -0.29097,0.32929 -0.51145,0.32929 -7.5e-4,0 -0.001,0 -0.002,0 l -4.36154,-0.015 c -0.31046,-7.5e-4 -0.56093,-0.25353 -0.56018,-0.56407 7.5e-4,-0.31053 0.25272,-0.56106 0.56244,-0.56106 7.5e-4,0 0.001,0 0.002,0 l 3.99708,0.0143 0.74318,-1.63443 c 0.099,-0.21902 0.32396,-0.35329 0.56469,-0.32778 0.23847,0.0225 0.4372,0.19352 0.4942,0.42604 l 0.36746,1.50017 1.01765,-0.65407 c 0.17323,-0.11102 0.39221,-0.11777 0.57445,-0.0202 l 0.3307,0.18152 0.11925,-0.73134 c 0.0322,-0.19877 0.16948,-0.36529 0.35847,-0.43654 0.18597,-0.0705 0.4012,-0.0353 0.55644,0.0937 l 0.76567,0.63608 0.4837,-0.72233 c 0.17174,-0.25728 0.52044,-0.32779 0.77992,-0.15527 0.25798,0.17252 0.32772,0.52206 0.15449,0.78084 l -0.82942,1.24138 c -0.0877,0.13202 -0.22872,0.22128 -0.38697,0.24378 -0.15223,0.024 -0.31721,-0.0225 -0.4402,-0.12376 l -0.48895,-0.40655 -0.0892,0.54531 c -0.0293,0.18002 -0.14399,0.33454 -0.30821,0.4148 -0.165,0.0802 -0.35697,0.0758 -0.5167,-0.012 l -0.73497,-0.4028 -1.39936,0.89935 c -0.093,0.06 -0.19948,0.09 -0.30597,0.09 z m 6.39986,9.57407 c -0.37271,0 -0.72892,-0.15301 -0.95689,-0.4448 -0.30447,-0.39079 -0.35248,-1.02612 0.23021,-1.56543 0.132,-0.12226 0.31047,-0.17477 0.49121,-0.13951 0.83542,0.16502 1.23063,0.70132 1.31386,1.10937 0.0668,0.32554 -0.045,0.63158 -0.29021,0.79884 -0.003,0.003 -0.007,0.004 -0.01,0.007 -0.24223,0.15902 -0.51445,0.23552 -0.77842,0.23552 z m 0.47096,-0.70583 h 0.009 z m -12.05206,0.33978 c -0.31197,0 -0.60444,-0.10951 -0.84592,-0.32102 -0.52119,-0.44781 -0.4312,-0.93237 -0.36821,-1.12064 0.20623,-0.61356 0.96816,-0.9331 1.58909,-0.96986 0.0113,-7.4e-4 0.0225,-7.4e-4 0.0337,-7.4e-4 0.54595,-0.0241 1.00865,0.16201 1.27413,0.51755 0.11623,0.15602 0.14323,0.3608 0.0727,0.54231 -0.25272,0.64058 -0.82342,1.16788 -1.42186,1.3119 -0.11249,0.027 -0.22423,0.0405 -0.33371,0.0405 z m -0.0637,-1.13862 c 0.0285,0.0142 0.0697,0.0195 0.13423,0.005 0.087,-0.0209 0.18073,-0.0728 0.27073,-0.14402 -0.17024,0.0255 -0.31497,0.0848 -0.40496,0.1395 z m 13.29618,-1.02462 c -0.54444,0 -1.09563,-0.10125 -1.37461,-0.23701 -0.40346,-0.19653 -0.44696,-0.51156 -0.44696,-0.63834 0,-0.0473 0.007,-0.0938 0.0172,-0.13951 0.17697,-0.69233 0.82791,-1.18138 1.62808,-1.22788 0.0151,-0.002 0.0293,-0.003 0.0442,-0.004 0.86541,-0.0352 1.5291,0.4403 1.67084,1.18138 0.0601,0.29253 -0.0488,0.57906 -0.29248,0.76959 -0.27221,0.21374 -0.75666,0.2955 -1.24637,0.2955 z m 0.43721,-0.83858 c 0,0 0,7.4e-4 0,7.4e-4 0,0 0,-7.4e-4 0,-7.4e-4 z"
       id="path4"
       style="fill:#d8f0f3;fill-opacity:1;stroke-width:0.75001" />
  </g>
</svg>
