<?xml version="1.0" encoding="UTF-8" standalone="no"?>
<svg
   width="64"
   version="1.1"
   height="64"
   id="svg16"
   sodipodi:docname="folder-docker.svg"
   inkscape:version="1.2.2 (b0a8486541, 2022-12-01)"
   xmlns:inkscape="http://www.inkscape.org/namespaces/inkscape"
   xmlns:sodipodi="http://sodipodi.sourceforge.net/DTD/sodipodi-0.dtd"
   xmlns:xlink="http://www.w3.org/1999/xlink"
   xmlns="http://www.w3.org/2000/svg"
   xmlns:svg="http://www.w3.org/2000/svg"
   xmlns:rdf="http://www.w3.org/1999/02/22-rdf-syntax-ns#"
   xmlns:cc="http://creativecommons.org/ns#"
   xmlns:dc="http://purl.org/dc/elements/1.1/">
  <sodipodi:namedview
     pagecolor="#ffffff"
     bordercolor="#666666"
     borderopacity="1"
     objecttolerance="10"
     gridtolerance="10"
     guidetolerance="10"
     inkscape:pageopacity="0"
     inkscape:pageshadow="2"
     inkscape:window-width="1920"
     inkscape:window-height="994"
     id="namedview18"
     showgrid="true"
     inkscape:zoom="6.938485"
     inkscape:cx="9.7283485"
     inkscape:cy="27.383499"
     inkscape:window-x="0"
     inkscape:window-y="0"
     inkscape:window-maximized="1"
     inkscape:current-layer="layer1"
     inkscape:document-rotation="0"
     inkscape:showpageshadow="2"
     inkscape:pagecheckerboard="0"
     inkscape:deskcolor="#d1d1d1">
    <inkscape:grid
       type="xygrid"
       id="grid925" />
  </sodipodi:namedview>
  <defs
     id="defs5455">
    <linearGradient
       inkscape:collect="always"
       id="linearGradient3122">
      <stop
         style="stop-color:#00ccff;stop-opacity:1"
         offset="0"
         id="stop3118" />
      <stop
         style="stop-color:#ff80ff;stop-opacity:1;"
         offset="1"
         id="stop3120" />
    </linearGradient>
    <linearGradient
       inkscape:collect="always"
       xlink:href="#linearGradient3122"
       id="linearGradient1419"
       x1="0.52915627"
       y1="5.0269842"
       x2="16.403845"
       y2="5.0269842"
       gradientUnits="userSpaceOnUse"
       gradientTransform="matrix(3.779602,0,0,3.8662747,384.57143,480.49989)" />
    <clipPath
       clipPathUnits="userSpaceOnUse"
       id="clipPath79425-9-5-3">
      <rect
         style="opacity:0.5;fill:#000000;fill-opacity:1;stroke:none;stroke-width:0.855869;stroke-dasharray:none;stroke-opacity:1;paint-order:stroke fill markers"
         id="rect79427-1-9-6"
         width="26.417742"
         height="29.037542"
         x="-16.227774"
         y="-6.4845476" />
    </clipPath>
    <filter
       inkscape:collect="always"
       style="color-interpolation-filters:sRGB"
       id="filter77953-2-4-7"
       x="-0.040508607"
       y="-0.067265661"
       width="1.0810172"
       height="1.1345313">
      <feGaussianBlur
         inkscape:collect="always"
         stdDeviation="0.44602907"
         id="feGaussianBlur77955-7-9-5" />
    </filter>
    <clipPath
       clipPathUnits="userSpaceOnUse"
       id="clipPath79425-9-5-5">
      <rect
         style="opacity:0.5;fill:#000000;fill-opacity:1;stroke:none;stroke-width:0.855869;stroke-dasharray:none;stroke-opacity:1;paint-order:stroke fill markers"
         id="rect79427-1-9-62"
         width="26.417742"
         height="29.037542"
         x="-16.227774"
         y="-6.4845476" />
    </clipPath>
    <filter
       inkscape:collect="always"
       style="color-interpolation-filters:sRGB"
       id="filter77953-2-4-9"
       x="-0.040520865"
       y="-0.064907304"
       width="1.0810417"
       height="1.1298146">
      <feGaussianBlur
         inkscape:collect="always"
         stdDeviation="0.44602907"
         id="feGaussianBlur77955-7-9-1" />
    </filter>
    <linearGradient
       inkscape:collect="always"
       xlink:href="#linearGradient3122"
       id="linearGradient1662"
       gradientUnits="userSpaceOnUse"
       gradientTransform="matrix(3.7757185,0,0,3.9032702,384.57656,479.89311)"
       x1="0.52834183"
       y1="14.822159"
       x2="16.414551"
       y2="4.8022385" />
  </defs>
  <metadata
     id="metadata5458">
    <rdf:RDF>
      <cc:Work
         rdf:about="">
        <dc:format>image/svg+xml</dc:format>
        <dc:type
           rdf:resource="http://purl.org/dc/dcmitype/StillImage" />
      </cc:Work>
    </rdf:RDF>
  </metadata>
  <g
     inkscape:label="Capa 1"
     inkscape:groupmode="layer"
     id="layer1"
     transform="translate(-384.57143,-483.798)">
    <path
       id="path32082-9"
       style="fill:url(#linearGradient1419);fill-opacity:1.0;stroke:none;stroke-width:5.11694;stroke-linecap:round;stroke-linejoin:round;stroke-opacity:0.03"
       d="m 393.57143,493.798 c -4,0 -7,3.06879 -7,7.16052 v 5.11466 c 0,0 2,-5.11466 5,-5.11466 h 8 12 6 24 c 3,0 5,2.04586 5,5.11466 v 0 0 -5.11466 c 0,-4.09173 -3,-7.16052 -7,-7.16052 h -24.07114 -5.92886 -9 z"
       sodipodi:nodetypes="sccsccccccccccccs" />
    <rect
       x="410.57126"
       y="494.82074"
       width="12"
       height="2.0458624"
       ry="1.0248643"
       stroke-width="3.41941"
       style="fill:#222638;fill-opacity:1;paint-order:stroke markers fill"
       id="rect12-5-9-3-9" />
    <path
       d="m 418.30476,497.88973 h -3.46666 -4.33334 -16.93333 c -2,0 -3,1.02292 -3,3.06879 v 0 0 h 52 v 0 0 c 0,-2.04587 -1,-3.06879 -3,-3.06879 z"
       style="fill:#222638;fill-opacity:1;stroke-width:2.33915;paint-order:markers stroke fill"
       id="path8-7-2-9-6-1-7-5"
       sodipodi:nodetypes="cccccccccccc"
       opacity="0.6" />
    <path
       style="display:inline;fill:#ffffff;fill-opacity:1;stroke:none;stroke-width:2.77827;stroke-linecap:round;stroke-linejoin:round;stroke-opacity:0.03;filter:url(#filter77953-2-4-7)"
       d="m -14.025629,3.0793846 h 6.1660045 4.8447182 3.08300239 7.92771991 c 1.3212868,0 2.202145,0.9435823 2.202145,2.3589558 l -0.0082,11.1961006 c 0.0082,1.415373 -1.496833,2.225381 -2.6343739,2.232069 L -14.02563,18.993397 c -1.321286,0.0078 -2.202145,-0.943583 -2.202145,-2.358956 l 1e-6,-11.3229881 c -1e-6,-1.288486 0.882451,-2.2155179 2.202145,-2.2320683 z"
       id="path1611-1-8-0-7-3"
       clip-path="url(#clipPath79425-9-5-3)"
       transform="matrix(2.270514,0,0,2.1681872,423.41682,494.28184)"
       sodipodi:nodetypes="cccccccssccc" />
    <path
       style="display:inline;fill:#4f4f4f;fill-opacity:1;stroke:none;stroke-width:2.77827;stroke-linecap:round;stroke-linejoin:round;stroke-opacity:0.03;filter:url(#filter77953-2-4-9)"
       d="m -14.026297,2.5011118 6.1666725,0.1211316 H -3.014907 0.06809547 L 7.9884881,2.5011118 C 9.3097749,2.5157128 10.189967,3.444358 10.189967,4.874457 l -2.06e-4,11.759984 c 0.0082,1.415373 -0.872618,2.358956 -2.6343739,2.358956 H -14.02563 c -1.321306,0 -2.202145,-0.943583 -2.202145,-2.358956 V 4.874457 c 0,-1.4240071 0.880591,-2.3733452 2.201478,-2.3733452 z"
       id="path1611-1-8-0-7-2"
       clip-path="url(#clipPath79425-9-5-5)"
       transform="matrix(2.271201,0,0,2.155042,423.42797,495.56852)"
       sodipodi:nodetypes="cccccccssccc" />
    <path
       d="m 418.57143,500.95852 h -4 -5 -18 c -3,0 -4.99999,2.04587 -4.99999,5.11466 v 26.59622 c 0,3.06876 1.99999,5.11463 4.99999,5.11463 h 49.99999 c 3,0 5,-2.04587 5,-5.11463 v -26.59622 c 0,-3.06879 -2,-5.11466 -5,-5.11466 z"
       style="fill:url(#linearGradient1662);fill-opacity:1;stroke-width:3.83803;paint-order:markers stroke fill"
       id="path8-7-2-9-6-1-9"
       sodipodi:nodetypes="ccccsssssscc"
       opacity="0.6" />
    <path
       d="m 386.57143,518.748 17.1,19 h -10e-6 0.65001 l -17.75,-19.65 v 0 0 z"
       id="path2653-4"
       style="fill:#bac8df;fill-opacity:1;stroke-width:0.48092"
       sodipodi:nodetypes="cccccccc" />
    <path
       d="m 386.57143,524.79794 11.48548,12.98879 -1e-5,0.0113 0.64953,-0.006 v 0.006 l -12.12986,-13.65007 v 0 0 z"
       id="path2653-4-3"
       style="fill:#bac8df;fill-opacity:1;stroke-width:0.330034"
       sodipodi:nodetypes="ccccccccc" />
    <path
       d="m 426.32143,528.298 c -4.16348,0 -6.75,-3.1611 -6.75,-8.25001 0,-0.41415 0.33584,-0.74999 0.74999,-0.74999 h 12.10622 c -0.071,-0.28823 -0.1062,-0.57457 -0.1062,-0.85734 0,-1.91053 1.62666,-3.38924 1.69625,-3.45156 0.28418,-0.25486 0.71633,-0.25486 1.0005,0 0.0696,0.0624 1.69629,1.54103 1.69629,3.45156 0,0.0736 -0.002,0.1476 -0.007,0.22156 1.99072,-0.12119 3.60862,1.61723 3.67311,1.689 0.25484,0.28494 0.25484,0.71557 0,1.0005 -0.0623,0.0692 -1.54027,1.69629 -3.45187,1.69629 -0.48708,0 -0.9807,-0.10366 -1.47584,-0.3091 -1.45824,3.13185 -5.35216,5.55909 -9.13111,5.55909 z m -5.22398,-7.49999 c 0.14024,2.05116 0.96495,5.99998 5.22398,5.99998 3.43904,0 7.11256,-2.44296 8.02148,-5.33459 0.0704,-0.2223 0.23948,-0.39953 0.45778,-0.4797 0.22118,-0.0803 0.46217,-0.0535 0.65995,0.0714 0.51554,0.327 1.00926,0.4929 1.46774,0.4929 0.68556,0 1.32938,-0.36877 1.76662,-0.69729 -0.43582,-0.32775 -1.07887,-0.69576 -1.76662,-0.69576 -0.29445,0 -0.60496,0.0725 -0.94919,0.22155 -0.28201,0.12271 -0.61089,0.0594 -0.82838,-0.15781 -0.2175,-0.2175 -0.2805,-0.54561 -0.15817,-0.82836 0.1494,-0.34463 0.22191,-0.65512 0.22191,-0.94958 0,-0.6852 -0.36916,-1.32899 -0.69727,-1.76626 -0.3282,0.43613 -0.69586,1.07881 -0.69586,1.76618 0,0.38895 0.12158,0.80858 0.3618,1.24696 0.12744,0.23256 0.12232,0.5145 -0.0124,0.74264 -0.13479,0.22784 -0.38012,0.36774 -0.64522,0.36774 z"
       id="path2-7"
       style="fill:#d8f0f3;fill-opacity:1;stroke-width:0.749999" />
    <path
       d="m 430.82143,518.54801 h -2.25 c -0.41415,0 -0.74999,-0.33586 -0.74999,-0.75002 v -2.25 c 0,-0.41415 0.33584,-0.74999 0.74999,-0.74999 h 2.25 c 0.41453,0 0.74999,0.33584 0.74999,0.74999 v 2.25 c 0,0.41416 -0.33546,0.75002 -0.74999,0.75002 z m -1.50001,-1.50001 h 0.75002 v -0.74999 h -0.75002 z"
       id="path4-5"
       style="fill:#d8f0f3;fill-opacity:1;stroke-width:0.749999" />
    <path
       d="m 424.07143,518.54801 h -2.25 c -0.41415,0 -0.74999,-0.33586 -0.74999,-0.75002 v -2.25 c 0,-0.41415 0.33584,-0.74999 0.74999,-0.74999 h 2.25 c 0.41415,0 0.74999,0.33584 0.74999,0.74999 v 2.25 c 0,0.41416 -0.33584,0.75002 -0.74999,0.75002 z m -1.50001,-1.50001 h 0.75002 v -0.74999 h -0.75002 z"
       id="path6-3"
       style="fill:#d8f0f3;fill-opacity:1;stroke-width:0.749999" />
    <path
       d="m 426.32143,516.29801 h -2.25 c -0.41415,0 -0.74999,-0.33586 -0.74999,-0.75002 v -2.25 c 0,-0.41415 0.33584,-0.74999 0.74999,-0.74999 h 2.25 c 0.41415,0 0.74999,0.33584 0.74999,0.74999 v 2.25 c 0,0.41416 -0.33584,0.75002 -0.74999,0.75002 z m -1.50001,-1.50001 h 0.75002 v -0.74999 h -0.75002 z"
       id="path8-5"
       style="fill:#d8f0f3;fill-opacity:1;stroke-width:0.749999" />
    <path
       d="m 426.32143,518.54801 h -2.25 c -0.41415,0 -0.74999,-0.33586 -0.74999,-0.75002 v -2.25 c 0,-0.41415 0.33584,-0.74999 0.74999,-0.74999 h 2.25 c 0.41415,0 0.74999,0.33584 0.74999,0.74999 v 2.25 c 0,0.41416 -0.33584,0.75002 -0.74999,0.75002 z m -1.50001,-1.50001 h 0.75002 v -0.74999 h -0.75002 z"
       id="path10-5-6"
       style="fill:#d8f0f3;fill-opacity:1;stroke-width:0.749999" />
    <path
       d="m 428.57143,514.04801 h -2.25 c -0.41415,0 -0.74999,-0.33586 -0.74999,-0.75002 v -2.25 c 0,-0.41415 0.33584,-0.74999 0.74999,-0.74999 h 2.25 c 0.41415,0 0.74999,0.33584 0.74999,0.74999 v 2.25 c 0,0.41416 -0.33584,0.75002 -0.74999,0.75002 z m -1.50001,-1.50001 h 0.75002 v -0.74999 h -0.75002 z"
       id="path12-2"
       style="fill:#d8f0f3;fill-opacity:1;stroke-width:0.749999" />
    <path
       d="m 428.57143,516.29801 h -2.25 c -0.41415,0 -0.74999,-0.33586 -0.74999,-0.75002 v -2.25 c 0,-0.41415 0.33584,-0.74999 0.74999,-0.74999 h 2.25 c 0.41415,0 0.74999,0.33584 0.74999,0.74999 v 2.25 c 0,0.41416 -0.33584,0.75002 -0.74999,0.75002 z m -1.50001,-1.50001 h 0.75002 v -0.74999 h -0.75002 z"
       id="path14-9"
       style="fill:#d8f0f3;fill-opacity:1;stroke-width:0.749999" />
    <path
       d="m 428.57143,518.54801 h -2.25 c -0.41415,0 -0.74999,-0.33586 -0.74999,-0.75002 v -2.25 c 0,-0.41415 0.33584,-0.74999 0.74999,-0.74999 h 2.25 c 0.41415,0 0.74999,0.33584 0.74999,0.74999 v 2.25 c 0,0.41416 -0.33584,0.75002 -0.74999,0.75002 z m -1.50001,-1.50001 h 0.75002 v -0.74999 h -0.75002 z"
       id="path16-1"
       style="fill:#d8f0f3;fill-opacity:1;stroke-width:0.749999" />
    <circle
       cx="423.6962"
       cy="522.67255"
       id="circle18-2"
       style="fill:#d8f0f3;fill-opacity:1;stroke-width:0.749999"
       r="1.125" />
  </g>
</svg>
