<?xml version="1.0" encoding="UTF-8" standalone="no"?>
<svg
   width="64"
   version="1.1"
   height="64"
   id="svg17"
   sodipodi:docname="folder-gimp.svg"
   inkscape:version="1.2.2 (b0a8486541, 2022-12-01)"
   xmlns:inkscape="http://www.inkscape.org/namespaces/inkscape"
   xmlns:sodipodi="http://sodipodi.sourceforge.net/DTD/sodipodi-0.dtd"
   xmlns:xlink="http://www.w3.org/1999/xlink"
   xmlns="http://www.w3.org/2000/svg"
   xmlns:svg="http://www.w3.org/2000/svg"
   xmlns:rdf="http://www.w3.org/1999/02/22-rdf-syntax-ns#"
   xmlns:cc="http://creativecommons.org/ns#"
   xmlns:dc="http://purl.org/dc/elements/1.1/">
  <sodipodi:namedview
     pagecolor="#ffffff"
     bordercolor="#666666"
     borderopacity="1"
     objecttolerance="10"
     gridtolerance="10"
     guidetolerance="10"
     inkscape:pageopacity="0"
     inkscape:pageshadow="2"
     inkscape:window-width="1920"
     inkscape:window-height="994"
     id="namedview19"
     showgrid="true"
     inkscape:zoom="8.0000004"
     inkscape:cx="-8.3124996"
     inkscape:cy="44.374998"
     inkscape:window-x="0"
     inkscape:window-y="0"
     inkscape:window-maximized="1"
     inkscape:current-layer="layer1"
     inkscape:document-rotation="0"
     inkscape:showpageshadow="2"
     inkscape:pagecheckerboard="0"
     inkscape:deskcolor="#d1d1d1">
    <inkscape:grid
       type="xygrid"
       id="grid908" />
  </sodipodi:namedview>
  <defs
     id="defs5455">
    <linearGradient
       inkscape:collect="always"
       id="linearGradient459">
      <stop
         style="stop-color:#a78bda;stop-opacity:1;"
         offset="0"
         id="stop453" />
      <stop
         style="stop-color:#ffd0b3;stop-opacity:1;"
         offset="0.4817889"
         id="stop455" />
      <stop
         style="stop-color:#ff66ff;stop-opacity:1;"
         offset="1"
         id="stop457" />
    </linearGradient>
    <linearGradient
       inkscape:collect="always"
       xlink:href="#linearGradient2303"
       id="linearGradient1419"
       x1="0.52915627"
       y1="5.0269842"
       x2="16.403845"
       y2="5.0269842"
       gradientUnits="userSpaceOnUse"
       gradientTransform="matrix(3.779602,0,0,3.8662747,384.57143,480.49989)" />
    <clipPath
       clipPathUnits="userSpaceOnUse"
       id="clipPath79425-9-5-3">
      <rect
         style="opacity:0.5;fill:#000000;fill-opacity:1;stroke:none;stroke-width:0.855869;stroke-dasharray:none;stroke-opacity:1;paint-order:stroke fill markers"
         id="rect79427-1-9-6"
         width="26.417742"
         height="29.037542"
         x="-16.227774"
         y="-6.4845476" />
    </clipPath>
    <filter
       inkscape:collect="always"
       style="color-interpolation-filters:sRGB"
       id="filter77953-2-4-7"
       x="-0.040508607"
       y="-0.067265661"
       width="1.0810172"
       height="1.1345313">
      <feGaussianBlur
         inkscape:collect="always"
         stdDeviation="0.44602907"
         id="feGaussianBlur77955-7-9-5" />
    </filter>
    <clipPath
       clipPathUnits="userSpaceOnUse"
       id="clipPath79425-9-5-5">
      <rect
         style="opacity:0.5;fill:#000000;fill-opacity:1;stroke:none;stroke-width:0.855869;stroke-dasharray:none;stroke-opacity:1;paint-order:stroke fill markers"
         id="rect79427-1-9-62"
         width="26.417742"
         height="29.037542"
         x="-16.227774"
         y="-6.4845476" />
    </clipPath>
    <filter
       inkscape:collect="always"
       style="color-interpolation-filters:sRGB"
       id="filter77953-2-4-9"
       x="-0.040520865"
       y="-0.064907304"
       width="1.0810417"
       height="1.1298146">
      <feGaussianBlur
         inkscape:collect="always"
         stdDeviation="0.44602907"
         id="feGaussianBlur77955-7-9-1" />
    </filter>
    <linearGradient
       inkscape:collect="always"
       xlink:href="#linearGradient459"
       id="linearGradient1662"
       gradientUnits="userSpaceOnUse"
       gradientTransform="matrix(3.7757185,0,0,3.9032702,384.57656,479.89311)"
       x1="9.3259869"
       y1="14.831515"
       x2="9.3259869"
       y2="4.269978" />
    <linearGradient
       inkscape:collect="always"
       id="linearGradient2303">
      <stop
         style="stop-color:#a78bda;stop-opacity:1;"
         offset="0"
         id="stop2299" />
      <stop
         style="stop-color:#ffe680;stop-opacity:1"
         offset="0.4817889"
         id="stop11969" />
      <stop
         style="stop-color:#00bdff;stop-opacity:1;"
         offset="1"
         id="stop2301" />
    </linearGradient>
  </defs>
  <metadata
     id="metadata5458">
    <rdf:RDF>
      <cc:Work
         rdf:about="">
        <dc:format>image/svg+xml</dc:format>
        <dc:type
           rdf:resource="http://purl.org/dc/dcmitype/StillImage" />
      </cc:Work>
    </rdf:RDF>
  </metadata>
  <g
     inkscape:label="Capa 1"
     inkscape:groupmode="layer"
     id="layer1"
     transform="translate(-384.57143,-483.798)">
    <path
       id="path32082-9"
       style="fill:url(#linearGradient1419);fill-opacity:1.0;stroke:none;stroke-width:5.11694;stroke-linecap:round;stroke-linejoin:round;stroke-opacity:0.03"
       d="m 393.57143,493.798 c -4,0 -7,3.06879 -7,7.16052 v 5.11466 c 0,0 2,-5.11466 5,-5.11466 h 8 12 6 24 c 3,0 5,2.04586 5,5.11466 v 0 0 -5.11466 c 0,-4.09173 -3,-7.16052 -7,-7.16052 h -24.07114 -5.92886 -9 z"
       sodipodi:nodetypes="sccsccccccccccccs" />
    <rect
       x="410.57144"
       y="494.82095"
       width="12"
       height="2.0458624"
       ry="1.0248643"
       stroke-width="3.41941"
       style="fill:#222638;fill-opacity:1;paint-order:stroke markers fill"
       id="rect12-5-9-3-9" />
    <path
       d="m 418.30476,497.88973 h -3.46666 -4.33334 -16.93333 c -2,0 -3,1.02292 -3,3.06879 v 0 0 h 52 v 0 0 c 0,-2.04587 -1,-3.06879 -3,-3.06879 z"
       style="fill:#222638;fill-opacity:1;stroke-width:2.33915;paint-order:markers stroke fill"
       id="path8-7-2-9-6-1-7-5"
       sodipodi:nodetypes="cccccccccccc"
       opacity="0.6" />
    <path
       style="display:inline;fill:#ffffff;fill-opacity:1;stroke:none;stroke-width:2.77827;stroke-linecap:round;stroke-linejoin:round;stroke-opacity:0.03;filter:url(#filter77953-2-4-7)"
       d="m -14.025629,3.0793846 h 6.1660045 4.8447182 3.08300239 7.92771991 c 1.3212868,0 2.202145,0.9435823 2.202145,2.3589558 l -0.0082,11.1961006 c 0.0082,1.415373 -1.496833,2.225381 -2.6343739,2.232069 L -14.02563,18.993397 c -1.321286,0.0078 -2.202145,-0.943583 -2.202145,-2.358956 l 1e-6,-11.3229881 c -1e-6,-1.288486 0.882451,-2.2155179 2.202145,-2.2320683 z"
       id="path1611-1-8-0-7-3"
       clip-path="url(#clipPath79425-9-5-3)"
       transform="matrix(2.270514,0,0,2.1681872,423.41682,494.28184)"
       sodipodi:nodetypes="cccccccssccc" />
    <path
       style="display:inline;fill:#4f4f4f;fill-opacity:1;stroke:none;stroke-width:2.77827;stroke-linecap:round;stroke-linejoin:round;stroke-opacity:0.03;filter:url(#filter77953-2-4-9)"
       d="m -14.026297,2.5011118 6.1666725,0.1211316 H -3.014907 0.06809547 L 7.9884881,2.5011118 C 9.3097749,2.5157128 10.189967,3.444358 10.189967,4.874457 l -2.06e-4,11.759984 c 0.0082,1.415373 -0.872618,2.358956 -2.6343739,2.358956 H -14.02563 c -1.321306,0 -2.202145,-0.943583 -2.202145,-2.358956 V 4.874457 c 0,-1.4240071 0.880591,-2.3733452 2.201478,-2.3733452 z"
       id="path1611-1-8-0-7-2"
       clip-path="url(#clipPath79425-9-5-5)"
       transform="matrix(2.271201,0,0,2.155042,423.42797,495.56852)"
       sodipodi:nodetypes="cccccccssccc" />
    <path
       d="m 418.57143,500.95852 h -4 -5 -18 c -3,0 -4.99999,2.04587 -4.99999,5.11466 v 26.59622 c 0,3.06876 1.99999,5.11463 4.99999,5.11463 h 49.99999 c 3,0 5,-2.04587 5,-5.11463 v -26.59622 c 0,-3.06879 -2,-5.11466 -5,-5.11466 z"
       style="fill:url(#linearGradient1662);fill-opacity:1;stroke-width:3.83803;paint-order:markers stroke fill"
       id="path8-7-2-9-6-1-9"
       sodipodi:nodetypes="ccccsssssscc"
       opacity="0.6" />
    <path
       d="m 386.57143,518.748 17.1,19 h -10e-6 0.65001 l -17.75,-19.65 v 0 0 z"
       id="path2653-4"
       style="fill:#bac8df;fill-opacity:1;stroke-width:0.48092"
       sodipodi:nodetypes="cccccccc" />
    <path
       d="m 386.57143,524.79794 11.48548,12.98879 -1e-5,0.0113 0.64953,-0.006 v 0.006 L 386.57657,524.148 v 0 0 z"
       id="path2653-4-3"
       style="fill:#bac8df;fill-opacity:1;stroke-width:0.330034"
       sodipodi:nodetypes="ccccccccc" />
    <g
       id="g1404"
       transform="matrix(0.87298075,0,0,0.87298075,415.76115,504.86905)"
       style="fill:#d8f0f3;fill-opacity:1">

<path
   class="st0"
   d="m 17.3,24.5 c -4.7,0 -7.7,-1.1 -9.6,-2.6 0.4,-0.1 0.8,-0.3 1.2,-0.6 0.8,-0.8 1,-1.9 0.9,-2.9 0,-0.2 -0.1,-0.4 -0.1,-0.6 0.2,0 0.4,0.1 0.6,0.1 0.9,0 1.7,-0.4 2.3,-1 0.6,1.1 1.8,1.9 3.2,1.9 1.7,0 3.2,-1.2 3.5,-2.9 0,-0.2 0.1,-0.5 0.1,-0.7 0,-0.4 -0.1,-0.8 -0.2,-1.2 -0.5,-1.4 -1.8,-2.4 -3.4,-2.4 -0.9,0 -1.8,0.3 -2.4,0.9 -0.2,0.2 -0.4,0.4 -0.6,0.7 C 12.6,13 12.4,12.7 12.2,12.6 11.7,12.2 11,11.9 10.3,11.9 8.8,11.9 7.5,13 7.3,14.5 7,14.3 6.8,14.1 6.5,14 6.7,13.2 7.2,12.4 7.8,11.9 V 8.1 C 7.8,7.8 8.1,7.7 8.2,8 v 0.1 c 0.4,0.9 0.9,2.1 2,3 0.9,0 1.8,0.3 2.4,0.9 0.8,-0.7 1.9,-1.2 3,-1.2 1.2,0 2.3,0.5 3.1,1.2 3.8,-1.1 5.8,-3.6 6.8,-5.6 0.1,-0.3 0.7,-0.2 0.7,0.1 0.6,5.9 0.3,12 -2.5,15.4 -1,-0.7 -2,-1.2 -2.7,-1.6 -0.1,0 -0.1,-0.1 -0.2,-0.1 0,-0.1 0,-0.2 0,-0.2 v 0 c -0.2,-0.6 -0.7,-1.2 -1.4,-1.4 v 0 c -0.2,-0.1 -0.5,0 -0.5,0.3 -0.1,0.2 0,0.5 0.3,0.5 v 0 c 0,0 0.1,0 0.1,0 -1.7,1.1 -3.7,1.6 -5.8,1.5 H 13 c -0.2,0 -0.4,0.2 -0.5,0.4 0,0.2 0.2,0.4 0.4,0.5 h 0.5 c 1.8,0.1 3.7,-0.2 5.3,-1 0,0 0,0 0,0 0.1,0.1 0.2,0.3 0.3,0.4 0.2,0.2 0.5,0.5 0.9,0.8 0.5,0.5 1.2,1 2,1.6 -1.2,0.5 -2.7,0.9 -4.6,0.9 z"
   id="path1394"
   style="fill:#d8f0f3;fill-opacity:1" />


<path
   class="st0"
   d="m 22.5,23 c -1.2,-0.9 -2.2,-1.7 -2.8,-2.2 -0.1,-0.1 -0.1,-0.1 -0.2,-0.2 -0.1,-0.2 -0.2,-0.3 -0.3,-0.4 0,-0.1 0,-0.1 0,-0.1 0,0 0.1,-0.1 0.2,0 0.1,0 0.2,0.1 0.3,0.1 0.1,0 0.1,0.1 0.2,0.1 0.7,0.3 2,1 3.3,1.9 0.2,0.1 0.4,0.3 0.6,0.4 1.1,0.7 2,1.5 2.7,2 1.2,-1.3 2.7,2.2 2.7,2.2 0,0 -3.8,0.4 -3.1,-1.4 C 25.3,25 24.3,24.3 23.2,23.6 23,23.4 22.7,23.2 22.5,23 Z"
   id="path1396"
   style="fill:#d8f0f3;fill-opacity:1" />


<path
   class="st1"
   d="M 8.5,20.4 C 8.4,20.5 8.3,20.6 8.2,20.7 7.1,21.7 5,21.2 3.5,19.5 2,17.8 1.6,15.7 2.7,14.7 3.6,14 5,14.1 6.3,14.9 c 0.3,0.2 0.7,0.5 1,0.8 0.1,0.1 0.2,0.2 0.3,0.3 0.4,0.5 0.8,1 1,1.5 0.3,0.7 0.4,1.4 0.4,2 -0.1,0.3 -0.2,0.6 -0.5,0.9 z M 5.2,16.2 C 5.2,17 4.7,17.6 4,17.6 3.3,17.6 2.8,17 2.8,16.2 c 0,-0.8 0.5,-1.4 1.2,-1.4 0.7,0 1.2,0.6 1.2,1.4 z"
   id="path1398"
   style="clip-rule:evenodd;fill:#d8f0f3;fill-opacity:1;fill-rule:evenodd" />


<path
   class="st0"
   d="m 10.9,16.8 c 1,0 1.7,-0.8 1.7,-1.7 0,-1 -0.8,-1.7 -1.7,-1.7 -0.1,0 -0.3,0 -0.4,0 0.4,0.1 0.7,0.5 0.7,1 0,0.6 -0.5,1 -1,1 -0.4,0 -0.8,-0.3 -1,-0.7 0,0.1 0,0.3 0,0.4 0,0.9 0.8,1.7 1.7,1.7 z"
   id="path1400"
   style="fill:#d8f0f3;fill-opacity:1" />


<path
   class="st0"
   d="m 16.4,17.6 c 1.1,0 2,-0.9 2,-2 0,-1.1 -0.9,-2 -2,-2 -0.1,0 -0.2,0 -0.3,0 0.5,0.1 0.9,0.6 0.9,1.1 0,0.6 -0.5,1.2 -1.2,1.2 -0.6,0 -1.2,-0.5 -1.2,-1.2 0,-0.1 0,-0.1 0,-0.2 -0.2,0.3 -0.3,0.7 -0.3,1.1 0.1,1.1 1,2 2.1,2 z"
   id="path1402"
   style="fill:#d8f0f3;fill-opacity:1" />


</g>
  </g>
</svg>
