<?xml version="1.0" encoding="UTF-8" standalone="no"?>
<svg
   width="64"
   version="1.1"
   height="64"
   id="svg15"
   sodipodi:docname="folder-download.svg"
   inkscape:version="1.3.2 (091e20ef0f, 2023-11-25)"
   xmlns:inkscape="http://www.inkscape.org/namespaces/inkscape"
   xmlns:sodipodi="http://sodipodi.sourceforge.net/DTD/sodipodi-0.dtd"
   xmlns:xlink="http://www.w3.org/1999/xlink"
   xmlns="http://www.w3.org/2000/svg"
   xmlns:svg="http://www.w3.org/2000/svg"
   xmlns:rdf="http://www.w3.org/1999/02/22-rdf-syntax-ns#"
   xmlns:cc="http://creativecommons.org/ns#"
   xmlns:dc="http://purl.org/dc/elements/1.1/">
  <sodipodi:namedview
     pagecolor="#ffffff"
     bordercolor="#666666"
     borderopacity="1"
     objecttolerance="10"
     gridtolerance="10"
     guidetolerance="10"
     inkscape:pageopacity="0"
     inkscape:pageshadow="2"
     inkscape:window-width="1920"
     inkscape:window-height="996"
     id="namedview17"
     showgrid="true"
     inkscape:zoom="3.4692426"
     inkscape:cx="-0.86474205"
     inkscape:cy="44.678339"
     inkscape:window-x="0"
     inkscape:window-y="0"
     inkscape:window-maximized="1"
     inkscape:current-layer="layer1"
     inkscape:document-rotation="0"
     showguides="true"
     inkscape:showpageshadow="2"
     inkscape:pagecheckerboard="0"
     inkscape:deskcolor="#d1d1d1">
    <inkscape:grid
       type="xygrid"
       id="grid919"
       originx="0"
       originy="0"
       spacingy="1"
       spacingx="1"
       units="px"
       visible="true" />
  </sodipodi:namedview>
  <defs
     id="defs5455">
    <linearGradient
       inkscape:collect="always"
       id="linearGradient1417">
      <stop
         style="stop-color:#3cb2c3;stop-opacity:1;"
         offset="0"
         id="stop1413" />
      <stop
         style="stop-color:#9d7ed5;stop-opacity:1"
         offset="1"
         id="stop1415" />
    </linearGradient>
    <clipPath
       clipPathUnits="userSpaceOnUse"
       id="clipPath79425-9-5-3">
      <rect
         style="opacity:0.5;fill:#000000;fill-opacity:1;stroke:none;stroke-width:0.855869;stroke-dasharray:none;stroke-opacity:1;paint-order:stroke fill markers"
         id="rect79427-1-9-6"
         width="26.417742"
         height="29.037542"
         x="-16.227774"
         y="-6.4845476" />
    </clipPath>
    <clipPath
       clipPathUnits="userSpaceOnUse"
       id="clipPath79425-9-5-5">
      <rect
         style="opacity:0.5;fill:#000000;fill-opacity:1;stroke:none;stroke-width:0.855869;stroke-dasharray:none;stroke-opacity:1;paint-order:stroke fill markers"
         id="rect79427-1-9-62"
         width="26.417742"
         height="29.037542"
         x="-16.227774"
         y="-6.4845476" />
    </clipPath>
    <linearGradient
       inkscape:collect="always"
       id="linearGradient2303">
      <stop
         style="stop-color:#a78bda;stop-opacity:1;"
         offset="0"
         id="stop2299" />
      <stop
         style="stop-color:#00bdff;stop-opacity:1;"
         offset="1"
         id="stop2301" />
    </linearGradient>
    <linearGradient
       inkscape:collect="always"
       xlink:href="#linearGradient1417"
       id="linearGradient1419-3"
       x1="0.52915627"
       y1="5.0269842"
       x2="16.403845"
       y2="5.0269842"
       gradientUnits="userSpaceOnUse"
       gradientTransform="matrix(3.779602,0,0,3.8662743,384.57143,480.49982)" />
    <clipPath
       clipPathUnits="userSpaceOnUse"
       id="clipPath79425-9-5-5-6">
      <rect
         style="opacity:0.5;fill:#000000;fill-opacity:1;stroke:none;stroke-width:0.855869;stroke-dasharray:none;stroke-opacity:1;paint-order:stroke fill markers"
         id="rect79427-1-9-62-7"
         width="26.417742"
         height="29.037542"
         x="-16.227774"
         y="-6.4845476" />
    </clipPath>
    <linearGradient
       inkscape:collect="always"
       xlink:href="#linearGradient2303"
       id="linearGradient1662-5"
       gradientUnits="userSpaceOnUse"
       gradientTransform="matrix(3.7757185,0,0,3.9032699,384.57656,479.89307)"
       x1="9.3259869"
       y1="14.831515"
       x2="9.3259869"
       y2="4.269978" />
  </defs>
  <metadata
     id="metadata5458">
    <rdf:RDF>
      <cc:Work
         rdf:about="">
        <dc:format>image/svg+xml</dc:format>
        <dc:type
           rdf:resource="http://purl.org/dc/dcmitype/StillImage" />
      </cc:Work>
    </rdf:RDF>
  </metadata>
  <g
     inkscape:label="Capa 1"
     inkscape:groupmode="layer"
     id="layer1"
     transform="translate(-384.57143,-483.798)">
    <g
       transform="matrix(0.30872123,0,0,0.34545448,401.36492,176.76352)"
       id="g4" />
    <path
       id="path32082-9-2"
       style="fill:url(#linearGradient1419-3);fill-opacity:1;stroke:none;stroke-width:5.11693;stroke-linecap:round;stroke-linejoin:round;stroke-opacity:0.03"
       d="m 393.57143,493.798 c -4,0 -7,3.14014 -7,7.32703 v 5.2336 c 0,0 2,-5.2336 5,-5.2336 h 8 12 6 24 c 3,0 5,2.09345 5,5.2336 v 0 0 -5.2336 c 0,-4.18689 -3,-7.32703 -7,-7.32703 h -24.07114 -5.92886 -9 z"
       sodipodi:nodetypes="sccsccccccccccccs" />
    <rect
       x="410.57162"
       y="494.84448"
       width="12"
       height="2.0934412"
       ry="1.0248641"
       stroke-width="3.41941"
       style="fill:#222638;fill-opacity:1;paint-order:stroke markers fill"
       id="rect12-5-9-3-9-9"
       rx="1.0248643" />
    <path
       d="m 418.30476,497.98488 h -3.46666 -4.33334 -16.93333 c -2,0 -3,1.04672 -3,3.14015 v 0 0 h 52 v 0 0 c 0,-2.09343 -1,-3.14015 -3,-3.14015 z"
       style="fill:#222638;fill-opacity:1;stroke-width:2.33915;paint-order:markers stroke fill"
       id="path8-7-2-9-6-1-7-5-1"
       sodipodi:nodetypes="cccccccccccc"
       opacity="0.6" />
    <path
       style="display:inline;fill:#4f4f4f;fill-opacity:1;stroke:none;stroke-width:2.74813;stroke-linecap:round;stroke-linejoin:round;stroke-opacity:0.03"
       d="m -14.026297,2.5011118 6.1666725,4.13e-5 H -3.014907 0.06809547 L 7.9884881,2.5011118 C 9.3097749,2.5157128 10.189967,3.444358 10.189967,4.874457 l -2.06e-4,11.759984 c 0.0082,1.415373 -0.872618,2.358956 -2.6343739,2.358956 H -14.02563 c -1.321306,0 -2.202145,-0.943583 -2.202145,-2.358956 V 4.874457 c 0,-1.4240071 0.880591,-2.3733452 2.201478,-2.3733452 z"
       id="path1611-1-8-0-7-2-7"
       clip-path="url(#clipPath79425-9-5-5-6)"
       transform="matrix(2.271201,0,0,2.2025816,423.42797,495.2891)"
       sodipodi:nodetypes="cccccccssccc" />
    <path
       d="m 418.57143,500.798 h -4 -5 -18.00001 c -3,0 -4.99999,2.05557 -4.99999,5.13889 v 26.72227 c 0,3.08331 1.99999,5.13884 4.99999,5.13884 h 50.00001 c 3,0 5,-2.05553 5,-5.13884 v -26.72227 c 0,-3.08332 -2,-5.13889 -5,-5.13889 z"
       style="fill:url(#linearGradient1662-5);fill-opacity:1;stroke-width:3.83804;paint-order:markers stroke fill"
       id="path8-7-2-9-6-1-9-2"
       sodipodi:nodetypes="ccccsssssscc"
       opacity="0.6" />
    <path
       d="m 386.57143,519.28096 17.1,18.06042 h -10e-6 0.65001 l -17.75,-18.67826 v 0 0 z"
       id="path2653-4-7"
       style="fill:#bac8df;fill-opacity:1;stroke-width:0.48092"
       sodipodi:nodetypes="cccccccc" />
    <path
       d="m 386.57143,525.03173 11.48548,12.3465 -1e-5,0.0102 0.64953,-0.006 v 0.006 l -12.12986,-12.97496 v 0 0 z"
       id="path2653-4-3-0"
       style="fill:#bac8df;fill-opacity:1;stroke-width:0.330034"
       sodipodi:nodetypes="ccccccccc" />
    <path
       fill-rule="evenodd"
       clip-rule="evenodd"
       d="m 432.94648,515.36051 c 0,-0.31064 0.25183,-0.56251 0.56235,-0.56251 0.31057,0 0.56233,0.25189 0.56233,0.56251 0,0.31062 -0.2518,0.5625 -0.56233,0.5625 -0.31053,0 -0.56235,-0.2519 -0.56235,-0.5625 z m 4.97628,5.5286 -6.75984,6.76153 c -0.43919,0.43946 -1.01484,0.64736 -1.59051,0.64736 -0.57568,0 -1.15135,-0.20776 -1.59054,-0.64736 l -6.76,-6.76153 c -0.47033,-0.47077 -0.68041,-1.09726 -0.64701,-1.71333 v 0.1222 c 0,-1.24257 1.00702,-2.25 2.24937,-2.25 h 1.1247 c 0.62114,0 1.12471,-0.50373 1.12471,-1.125 v -3.37497 c 0,-1.24257 1.00705,-2.25001 2.2494,-2.25001 h 4.49881 c 1.24221,0 2.24939,1.00744 2.24939,2.25001 v 0.56249 c 0,0.31063 -0.25179,0.56251 -0.56233,0.56251 -0.31053,0 -0.56236,-0.25189 -0.56236,-0.56251 v -0.56249 c 0,-0.62129 -0.50356,-1.125 -1.12467,-1.125 h -4.49887 c -0.62111,0 -1.1247,0.50371 -1.1247,1.125 v 3.37499 c 0,1.24257 -1.00703,2.25001 -2.24941,2.25001 h -1.12467 c -0.6211,0 -1.12466,0.50371 -1.12466,1.125 0,0 -0.004,0.002 -0.0113,0.004 7.5e-4,0.28647 0.1104,0.57267 0.32894,0.79102 l 6.75983,6.76184 c 0.43933,0.43947 1.15132,0.43947 1.59068,0 l 6.75966,-6.76162 c 0.21876,-0.21867 0.32822,-0.50481 0.32905,-0.79158 -0.009,-0.002 -0.0147,-0.003 -0.0147,-0.003 0,-0.62128 -0.50357,-1.125 -1.12468,-1.125 h -0.56155 c -0.31034,0 -0.56235,-0.25189 -0.56235,-0.5625 0,-0.31064 0.25179,-0.5625 0.56235,-0.5625 h 0.56253 c 1.2422,0 2.24939,1.00744 2.24939,2.25001 v -0.12224 c 0.0348,0.61607 -0.17685,1.24257 -0.64725,1.71334 z"
       id="path2-7-5"
       style="fill:#d8f0f3;fill-opacity:1;fill-rule:nonzero;stroke-width:0.0351562" />
  </g>
</svg>
