<?xml version="1.0" encoding="UTF-8" standalone="no"?>
<svg
   width="64"
   version="1.1"
   height="64"
   id="svg17"
   sodipodi:docname="favorites.svg"
   inkscape:version="1.2.2 (b0a8486541, 2022-12-01)"
   xmlns:inkscape="http://www.inkscape.org/namespaces/inkscape"
   xmlns:sodipodi="http://sodipodi.sourceforge.net/DTD/sodipodi-0.dtd"
   xmlns:xlink="http://www.w3.org/1999/xlink"
   xmlns="http://www.w3.org/2000/svg"
   xmlns:svg="http://www.w3.org/2000/svg"
   xmlns:rdf="http://www.w3.org/1999/02/22-rdf-syntax-ns#"
   xmlns:cc="http://creativecommons.org/ns#"
   xmlns:dc="http://purl.org/dc/elements/1.1/">
  <sodipodi:namedview
     pagecolor="#ffffff"
     bordercolor="#666666"
     borderopacity="1"
     objecttolerance="10"
     gridtolerance="10"
     guidetolerance="10"
     inkscape:pageopacity="0"
     inkscape:pageshadow="2"
     inkscape:window-width="1920"
     inkscape:window-height="996"
     id="namedview19"
     showgrid="true"
     inkscape:zoom="9.8125"
     inkscape:cx="13.910828"
     inkscape:cy="43.261147"
     inkscape:window-x="0"
     inkscape:window-y="0"
     inkscape:window-maximized="1"
     inkscape:current-layer="layer1"
     inkscape:document-rotation="0"
     inkscape:showpageshadow="2"
     inkscape:pagecheckerboard="0"
     inkscape:deskcolor="#d1d1d1">
    <inkscape:grid
       type="xygrid"
       id="grid844" />
  </sodipodi:namedview>
  <defs
     id="defs5455">
    <linearGradient
       inkscape:collect="always"
       xlink:href="#linearGradient2303"
       id="linearGradient1419"
       x1="0.52915627"
       y1="5.0269842"
       x2="16.403845"
       y2="5.0269842"
       gradientUnits="userSpaceOnUse"
       gradientTransform="matrix(3.779602,0,0,3.8662747,384.57144,480.49989)" />
    <clipPath
       clipPathUnits="userSpaceOnUse"
       id="clipPath79425-9-5-3">
      <rect
         style="opacity:0.5;fill:#000000;fill-opacity:1;stroke:none;stroke-width:0.855869;stroke-dasharray:none;stroke-opacity:1;paint-order:stroke fill markers"
         id="rect79427-1-9-6"
         width="26.417742"
         height="29.037542"
         x="-16.227774"
         y="-6.4845476" />
    </clipPath>
    <filter
       inkscape:collect="always"
       style="color-interpolation-filters:sRGB"
       id="filter77953-2-4-7"
       x="-0.040508607"
       y="-0.067265661"
       width="1.0810172"
       height="1.1345313">
      <feGaussianBlur
         inkscape:collect="always"
         stdDeviation="0.44602907"
         id="feGaussianBlur77955-7-9-5" />
    </filter>
    <clipPath
       clipPathUnits="userSpaceOnUse"
       id="clipPath79425-9-5-5">
      <rect
         style="opacity:0.5;fill:#000000;fill-opacity:1;stroke:none;stroke-width:0.855869;stroke-dasharray:none;stroke-opacity:1;paint-order:stroke fill markers"
         id="rect79427-1-9-62"
         width="26.417742"
         height="29.037542"
         x="-16.227774"
         y="-6.4845476" />
    </clipPath>
    <filter
       inkscape:collect="always"
       style="color-interpolation-filters:sRGB"
       id="filter77953-2-4-9"
       x="-0.040520865"
       y="-0.064907304"
       width="1.0810417"
       height="1.1298146">
      <feGaussianBlur
         inkscape:collect="always"
         stdDeviation="0.44602907"
         id="feGaussianBlur77955-7-9-1" />
    </filter>
    <linearGradient
       inkscape:collect="always"
       xlink:href="#linearGradient2303"
       id="linearGradient1662"
       gradientUnits="userSpaceOnUse"
       gradientTransform="matrix(3.7757185,0,0,3.9032702,384.57656,479.89311)"
       x1="9.3259869"
       y1="14.831515"
       x2="9.3259869"
       y2="4.269978" />
    <linearGradient
       inkscape:collect="always"
       id="linearGradient2303">
      <stop
         style="stop-color:#33ffd7;stop-opacity:1;"
         offset="0"
         id="stop2299" />
      <stop
         style="stop-color:#00bdff;stop-opacity:1;"
         offset="1"
         id="stop2301" />
    </linearGradient>
  </defs>
  <metadata
     id="metadata5458">
    <rdf:RDF>
      <cc:Work
         rdf:about="">
        <dc:format>image/svg+xml</dc:format>
        <dc:type
           rdf:resource="http://purl.org/dc/dcmitype/StillImage" />
      </cc:Work>
    </rdf:RDF>
  </metadata>
  <g
     inkscape:label="Capa 1"
     inkscape:groupmode="layer"
     id="layer1"
     transform="translate(-384.57143,-483.798)">
    <path
       id="path32082-9"
       style="fill:url(#linearGradient1419);fill-opacity:1.0;stroke:none;stroke-width:5.11694;stroke-linecap:round;stroke-linejoin:round;stroke-opacity:0.03"
       d="m 393.57144,493.798 c -4,0 -7,3.06879 -7,7.16052 v 5.11466 c 0,0 2,-5.11466 5,-5.11466 h 8 12 6 24 c 3,0 5,2.04586 5,5.11466 v 0 0 -5.11466 c 0,-4.09173 -3,-7.16052 -7,-7.16052 h -24.07114 -5.92886 -9 z"
       sodipodi:nodetypes="sccsccccccccccccs" />
    <rect
       x="410.57138"
       y="494.82095"
       width="12"
       height="2.0458624"
       ry="1.0248643"
       stroke-width="3.41941"
       style="fill:#222638;fill-opacity:1;paint-order:stroke markers fill"
       id="rect12-5-9-3-9" />
    <path
       d="m 418.30476,497.88973 h -3.46666 -4.33334 -16.93333 c -2,0 -3,1.02292 -3,3.06879 v 0 0 h 52 v 0 0 c 0,-2.04587 -1,-3.06879 -3,-3.06879 z"
       style="fill:#222638;fill-opacity:1;stroke-width:2.33915;paint-order:markers stroke fill"
       id="path8-7-2-9-6-1-7-5"
       sodipodi:nodetypes="cccccccccccc"
       opacity="0.6" />
    <path
       style="display:inline;fill:#ffffff;fill-opacity:1;stroke:none;stroke-width:2.77827;stroke-linecap:round;stroke-linejoin:round;stroke-opacity:0.03;filter:url(#filter77953-2-4-7)"
       d="m -14.025629,3.0793846 h 6.1660045 4.8447182 3.08300239 7.92771991 c 1.3212868,0 2.202145,0.9435823 2.202145,2.3589558 l -0.0082,11.1961006 c 0.0082,1.415373 -1.496833,2.225381 -2.6343739,2.232069 L -14.02563,18.993397 c -1.321286,0.0078 -2.202145,-0.943583 -2.202145,-2.358956 l 1e-6,-11.3229881 c -1e-6,-1.288486 0.882451,-2.2155179 2.202145,-2.2320683 z"
       id="path1611-1-8-0-7-3"
       clip-path="url(#clipPath79425-9-5-3)"
       transform="matrix(2.270514,0,0,2.1681872,423.41682,494.28184)"
       sodipodi:nodetypes="cccccccssccc" />
    <path
       style="display:inline;fill:#4f4f4f;fill-opacity:1;stroke:none;stroke-width:2.77827;stroke-linecap:round;stroke-linejoin:round;stroke-opacity:0.03;filter:url(#filter77953-2-4-9)"
       d="m -14.026297,2.5011118 6.1666725,0.1211316 H -3.014907 0.06809547 L 7.9884881,2.5011118 C 9.3097749,2.5157128 10.189967,3.444358 10.189967,4.874457 l -2.06e-4,11.759984 c 0.0082,1.415373 -0.872618,2.358956 -2.6343739,2.358956 H -14.02563 c -1.321306,0 -2.202145,-0.943583 -2.202145,-2.358956 V 4.874457 c 0,-1.4240071 0.880591,-2.3733452 2.201478,-2.3733452 z"
       id="path1611-1-8-0-7-2"
       clip-path="url(#clipPath79425-9-5-5)"
       transform="matrix(2.271201,0,0,2.155042,423.42798,495.56852)"
       sodipodi:nodetypes="cccccccssccc" />
    <path
       d="m 418.57144,500.95852 h -4 -5 -18 c -3,0 -5,2.04587 -5,5.11466 v 26.59622 c 0,3.06876 2,5.11463 5,5.11463 h 49.99998 c 3,0 5,-2.04587 5,-5.11463 v -26.59622 c 0,-3.06879 -2,-5.11466 -5,-5.11466 z"
       style="fill:url(#linearGradient1662);fill-opacity:1;stroke-width:3.83803;paint-order:markers stroke fill"
       id="path8-7-2-9-6-1-9"
       sodipodi:nodetypes="ccccsssssscc"
       opacity="0.6" />
    <path
       d="m 386.57144,518.748 17.1,19 h -1e-5 0.65001 l -17.75,-19.65 v 0 0 z"
       id="path2653-4"
       style="fill:#bac8df;fill-opacity:1;stroke-width:0.48092"
       sodipodi:nodetypes="cccccccc" />
    <path
       d="m 386.57144,524.79794 11.48548,12.98879 -10e-6,0.0113 0.64953,-0.006 v 0.006 l -12.12986,-13.65007 v 0 0 z"
       id="path2653-4-3"
       style="fill:#bac8df;fill-opacity:1;stroke-width:0.330034"
       sodipodi:nodetypes="ccccccccc" />
    <path
       d="m 435.54183,528.29725 a 2.9702945,2.9702945 0 0 1 -1.7343,-0.66245 l -2.87667,-1.81134 -2.87671,1.81134 c -1.41707,1.02969 -2.38633,0.634 -2.83958,0.30496 -0.45326,-0.32906 -1.12767,-1.12729 -0.58901,-2.79029 l 0.81838,-3.41565 -2.60809,-2.10618 c -1.42216,-1.03085 -1.3455,-2.07672 -1.17227,-2.6099 0.17314,-0.53325 0.72469,-1.42215 2.47628,-1.42215 v 0 l 3.41062,-0.22649 1.2619,-3.15502 c 0.54186,-1.66624 1.55861,-1.91608 2.11848,-1.91608 0.55984,0 1.57658,0.24984 2.11775,1.91576 l 1.26191,3.155 3.41066,0.22643 v 0 c 1.75156,0 2.30421,0.89005 2.47628,1.42216 0.17208,0.53211 0.24949,1.57696 -1.16795,2.60629 l -2.61784,2.18145 0.21857,0.9289 a 0.72012371,0.72012371 0 0 1 -1.40196,0.32982 l -0.32044,-1.36206 a 0.72007136,0.72007136 0 0 1 0.24011,-0.71826 l 2.97893,-2.48243 c 0.013,-0.0108 0.0272,-0.0218 0.0409,-0.0315 0.36506,-0.26244 0.77617,-0.64983 0.6599,-1.00808 -0.11627,-0.35823 -0.65923,-0.42809 -1.12615,-0.42734 -0.0156,0 -0.034,0 -0.0512,0 l -3.86352,-0.25527 a 0.74383374,0.74383374 0 0 1 -0.64378,-0.4515 l -1.44015,-3.60033 q -0.01,-0.0244 -0.0172,-0.0484 c -0.13681,-0.42954 -0.37876,-0.94005 -0.75429,-0.94005 -0.37549,0 -0.61747,0.51051 -0.75429,0.93896 q -0.009,0.0248 -0.0172,0.0484 l -1.44012,3.6004 a 0.72007136,0.72007136 0 0 1 -0.66864,0.45253 l -3.83972,0.25529 c -0.0168,0 -0.0328,0 -0.0512,0 -0.45974,-0.002 -1.01028,0.0696 -1.12618,0.42735 -0.11596,0.35753 0.29489,0.74489 0.65992,1.00807 0.0104,0.009 0.022,0.016 0.0317,0.0248 l 2.97714,2.40432 a 0.72007136,0.72007136 0 0 1 0.24774,0.72797 l -0.93031,3.88697 c -0.005,0.02 -0.0102,0.0396 -0.0164,0.0586 -0.14116,0.42697 -0.24593,0.9822 0.0584,1.20288 0.30385,0.22068 0.79958,-0.0497 1.16216,-0.31609 0.0137,-0.0103 0.0279,-0.02 0.0428,-0.0288 l 3.28137,-2.06627 a 0.72007136,0.72007136 0 0 1 0.76763,0 l 3.28136,2.06483 c 0.014,0.01 0.0284,0.0188 0.0428,0.0288 0.3622,0.26605 0.85726,0.53678 1.16216,0.31611 0.30499,-0.22072 0.19914,-0.7759 0.0584,-1.20293 a 0.72047512,0.72047512 0 1 1 1.36816,-0.45219 c 0.55661,1.68352 -0.12385,2.48966 -0.57891,2.82019 a 1.8639047,1.8639047 0 0 1 -1.10605,0.35929 z"
       id="path4-5-0"
       style="fill:#d8f0f3;fill-opacity:1;stroke-width:0.36004" />
  </g>
</svg>
