<?xml version="1.0" encoding="UTF-8" standalone="no"?>
<svg
   width="64"
   version="1.1"
   height="64"
   id="svg19"
   sodipodi:docname="folder-development.svg"
   inkscape:version="1.3.2 (091e20ef0f, 2023-11-25)"
   xmlns:inkscape="http://www.inkscape.org/namespaces/inkscape"
   xmlns:sodipodi="http://sodipodi.sourceforge.net/DTD/sodipodi-0.dtd"
   xmlns:xlink="http://www.w3.org/1999/xlink"
   xmlns="http://www.w3.org/2000/svg"
   xmlns:svg="http://www.w3.org/2000/svg"
   xmlns:rdf="http://www.w3.org/1999/02/22-rdf-syntax-ns#"
   xmlns:cc="http://creativecommons.org/ns#"
   xmlns:dc="http://purl.org/dc/elements/1.1/">
  <sodipodi:namedview
     pagecolor="#ffffff"
     bordercolor="#666666"
     borderopacity="1"
     objecttolerance="10"
     gridtolerance="10"
     guidetolerance="10"
     inkscape:pageopacity="0"
     inkscape:pageshadow="2"
     inkscape:window-width="1920"
     inkscape:window-height="996"
     id="namedview21"
     showgrid="true"
     inkscape:zoom="4.9062501"
     inkscape:cx="2.4458598"
     inkscape:cy="65.834394"
     inkscape:window-x="0"
     inkscape:window-y="0"
     inkscape:window-maximized="1"
     inkscape:current-layer="layer1"
     inkscape:document-rotation="0"
     inkscape:showpageshadow="2"
     inkscape:pagecheckerboard="0"
     inkscape:deskcolor="#d1d1d1">
    <inkscape:grid
       type="xygrid"
       id="grid941"
       originx="0"
       originy="0"
       spacingy="1"
       spacingx="1"
       units="px"
       visible="true" />
  </sodipodi:namedview>
  <defs
     id="defs5455">
    <clipPath
       clipPathUnits="userSpaceOnUse"
       id="clipPath79425-9-5-3">
      <rect
         style="opacity:0.5;fill:#000000;fill-opacity:1;stroke:none;stroke-width:0.855869;stroke-dasharray:none;stroke-opacity:1;paint-order:stroke fill markers"
         id="rect79427-1-9-6"
         width="26.417742"
         height="29.037542"
         x="-16.227774"
         y="-6.4845476" />
    </clipPath>
    <clipPath
       clipPathUnits="userSpaceOnUse"
       id="clipPath79425-9-5-5">
      <rect
         style="opacity:0.5;fill:#000000;fill-opacity:1;stroke:none;stroke-width:0.855869;stroke-dasharray:none;stroke-opacity:1;paint-order:stroke fill markers"
         id="rect79427-1-9-62"
         width="26.417742"
         height="29.037542"
         x="-16.227774"
         y="-6.4845476" />
    </clipPath>
    <linearGradient
       inkscape:collect="always"
       id="linearGradient2303">
      <stop
         style="stop-color:#00cccc;stop-opacity:1;"
         offset="0"
         id="stop2299" />
      <stop
         style="stop-color:#00bdff;stop-opacity:1;"
         offset="1"
         id="stop2301" />
    </linearGradient>
    <clipPath
       clipPathUnits="userSpaceOnUse"
       id="clipPath79425-9-5-5-6">
      <rect
         style="opacity:0.5;fill:#000000;fill-opacity:1;stroke:none;stroke-width:0.855869;stroke-dasharray:none;stroke-opacity:1;paint-order:stroke fill markers"
         id="rect79427-1-9-62-7"
         width="26.417742"
         height="29.037542"
         x="-16.227774"
         y="-6.4845476" />
    </clipPath>
    <linearGradient
       inkscape:collect="always"
       xlink:href="#linearGradient2303"
       id="linearGradient1419-3-4"
       x1="0.52915627"
       y1="5.0269842"
       x2="16.403845"
       y2="5.0269842"
       gradientUnits="userSpaceOnUse"
       gradientTransform="matrix(3.779602,0,0,3.8662743,384.57143,480.49982)" />
    <clipPath
       clipPathUnits="userSpaceOnUse"
       id="clipPath79425-9-5-5-6-5">
      <rect
         style="opacity:0.5;fill:#000000;fill-opacity:1;stroke:none;stroke-width:0.855869;stroke-dasharray:none;stroke-opacity:1;paint-order:stroke fill markers"
         id="rect79427-1-9-62-7-0"
         width="26.417742"
         height="29.037542"
         x="-16.227774"
         y="-6.4845476" />
    </clipPath>
    <linearGradient
       inkscape:collect="always"
       xlink:href="#linearGradient2303"
       id="linearGradient1662-5-3"
       gradientUnits="userSpaceOnUse"
       gradientTransform="matrix(3.7757185,0,0,3.9032699,384.57656,479.89307)"
       x1="9.3259869"
       y1="14.831515"
       x2="9.3259869"
       y2="4.269978" />
  </defs>
  <metadata
     id="metadata5458">
    <rdf:RDF>
      <cc:Work
         rdf:about="">
        <dc:format>image/svg+xml</dc:format>
        <dc:type
           rdf:resource="http://purl.org/dc/dcmitype/StillImage" />
      </cc:Work>
    </rdf:RDF>
  </metadata>
  <g
     inkscape:label="Capa 1"
     inkscape:groupmode="layer"
     id="layer1"
     transform="translate(-384.57143,-483.798)">
    <path
       id="path32082-9-2-6"
       style="fill:url(#linearGradient1419-3-4);fill-opacity:1;stroke:none;stroke-width:5.11693;stroke-linecap:round;stroke-linejoin:round;stroke-opacity:0.03"
       d="m 393.57143,493.798 c -4,0 -7,3.14014 -7,7.32703 v 5.2336 c 0,0 2,-5.2336 5,-5.2336 h 8 12 6 24 c 3,0 5,2.09345 5,5.2336 v 0 0 -5.2336 c 0,-4.18689 -3,-7.32703 -7,-7.32703 h -24.07114 -5.92886 -9 z"
       sodipodi:nodetypes="sccsccccccccccccs" />
    <rect
       x="410.57162"
       y="494.84448"
       width="12"
       height="2.0934412"
       ry="1.0248641"
       stroke-width="3.41941"
       style="fill:#222638;fill-opacity:1;paint-order:stroke markers fill"
       id="rect12-5-9-3-9-9-3"
       rx="1.0248643" />
    <path
       d="m 418.30476,497.98488 h -3.46666 -4.33334 -16.93333 c -2,0 -3,1.04672 -3,3.14015 v 0 0 h 52 v 0 0 c 0,-2.09343 -1,-3.14015 -3,-3.14015 z"
       style="fill:#222638;fill-opacity:1;stroke-width:2.33915;paint-order:markers stroke fill"
       id="path8-7-2-9-6-1-7-5-1-2"
       sodipodi:nodetypes="cccccccccccc"
       opacity="0.6" />
    <path
       style="display:inline;fill:#4f4f4f;fill-opacity:1;stroke:none;stroke-width:2.74813;stroke-linecap:round;stroke-linejoin:round;stroke-opacity:0.03"
       d="m -14.026297,2.5011118 6.1666725,4.13e-5 H -3.014907 0.06809547 L 7.9884881,2.5011118 C 9.3097749,2.5157128 10.189967,3.444358 10.189967,4.874457 l -2.06e-4,11.759984 c 0.0082,1.415373 -0.872618,2.358956 -2.6343739,2.358956 H -14.02563 c -1.321306,0 -2.202145,-0.943583 -2.202145,-2.358956 V 4.874457 c 0,-1.4240071 0.880591,-2.3733452 2.201478,-2.3733452 z"
       id="path1611-1-8-0-7-2"
       clip-path="url(#clipPath79425-9-5-5-6-5)"
       transform="matrix(2.271201,0,0,2.2025816,423.42797,495.2891)"
       sodipodi:nodetypes="cccccccssccc" />
    <path
       d="m 418.57143,500.798 h -4 -5 -18.00001 c -3,0 -4.99999,2.05557 -4.99999,5.13889 v 26.72227 c 0,3.08331 1.99999,5.13884 4.99999,5.13884 h 50.00001 c 3,0 5,-2.05553 5,-5.13884 v -26.72227 c 0,-3.08332 -2,-5.13889 -5,-5.13889 z"
       style="fill:url(#linearGradient1662-5-3);fill-opacity:1;stroke-width:3.83804;paint-order:markers stroke fill"
       id="path8-7-2-9-6-1-9-2-0"
       sodipodi:nodetypes="ccccsssssscc"
       opacity="0.6" />
    <path
       d="m 386.57143,519.28096 17.1,18.06042 h -10e-6 0.65001 l -17.75,-18.67826 v 0 0 z"
       id="path2653-4-7-6"
       style="fill:#bac8df;fill-opacity:1;stroke-width:0.48092"
       sodipodi:nodetypes="cccccccc" />
    <path
       d="m 386.57143,525.03173 11.48548,12.3465 -1e-5,0.0102 0.64953,-0.006 v 0.006 l -12.12986,-12.97496 v 0 0 z"
       id="path2653-4-3-0-1"
       style="fill:#bac8df;fill-opacity:1;stroke-width:0.330034"
       sodipodi:nodetypes="ccccccccc" />
    <path
       fill-rule="evenodd"
       clip-rule="evenodd"
       d="m 423.07143,513.5123 c 0,-0.35495 0.27986,-0.64285 0.62498,-0.64285 0.34519,0 0.62499,0.2879 0.62499,0.64285 0,0.355 -0.2798,0.64284 -0.62499,0.64284 -0.34512,0 -0.62498,-0.28784 -0.62498,-0.64284 z m 2.5,0 c 0,-0.35495 0.27988,-0.64285 0.62499,-0.64285 0.34517,0 0.62508,0.2879 0.62508,0.64285 0,0.355 -0.27991,0.64284 -0.62508,0.64284 -0.34511,0 -0.62499,-0.28784 -0.62499,-0.64284 z m 2.5,0 c 0,-0.35495 0.27984,-0.64285 0.62498,-0.64285 0.34517,0 0.625,0.2879 0.625,0.64285 0,0.355 -0.27982,0.64284 -0.625,0.64284 -0.34514,0 -0.62498,-0.28784 -0.62498,-0.64284 z m 12.49999,3.53571 v 8.67854 c 0,1.42007 -1.11931,2.57145 -2.49999,2.57145 h -15 c -1.38064,0 -2.5,-1.15138 -2.5,-2.57145 v -7.07141 c 0,-0.355 0.27986,-0.64284 0.62497,-0.64284 0.34519,0 0.62499,0.28784 0.62499,0.64284 v 7.07141 c 0,0.71005 0.55975,1.28574 1.25004,1.28574 h 15 c 0.69027,0 1.24998,-0.57569 1.24998,-1.28574 v -8.3571 c 0,-0.35506 -0.27981,-0.64289 -0.625,-0.64289 h -16.56245 c -0.86308,0 -1.56252,-0.71937 -1.56252,-1.60711 v -2.25 c 0,-1.42008 1.11935,-2.57145 2.49999,-2.57145 h 15 c 1.38068,0 2.5,1.15137 2.5,2.57145 v 0.64285 c 0,0.355 -0.27986,0.64284 -0.62499,0.64284 -0.34518,0 -0.62503,-0.28784 -0.62503,-0.64284 v -0.64285 c 0,-0.71006 -0.55971,-1.28574 -1.24998,-1.28574 h -15 c -0.69029,0 -1.24995,0.57568 -1.24995,1.28574 v 1.92855 c 0,0.35499 0.27978,0.64285 0.62499,0.64285 h 16.56244 c 0.8631,0 1.56251,0.71947 1.56251,1.60716 z"
       id="path2-36-7-5"
       style="fill:#d8f0f3;fill-opacity:1;stroke-width:0.0396167" />
    <path
       fill-rule="evenodd"
       clip-rule="evenodd"
       d="m 433.54467,522.85527 c -6.7e-4,5.6e-4 -0.002,9.2e-4 -0.003,9.2e-4 -0.10214,0.0355 -0.17581,0.13488 -0.17581,0.25213 v 2.75326 c 0,0.1471 -0.11578,0.26617 -0.2588,0.26617 -0.1428,0 -0.25849,-0.11907 -0.25849,-0.26617 v -2.75326 c 0,-0.34612 0.21417,-0.64105 0.51386,-0.75184 0.004,-8.7e-4 0.008,-0.004 0.0109,-0.006 0.29713,-0.11219 0.51045,-0.40316 0.51045,-0.74769 0,-0.22023 -0.0865,-0.41976 -0.22663,-0.56386 -0.0476,-0.0487 -0.0765,-0.11517 -0.0765,-0.1889 0,-0.14702 0.11593,-0.26631 0.25911,-0.26631 0.0754,0 0.14322,0.0341 0.1905,0.0876 0.22896,0.24027 0.37136,0.5682 0.37136,0.93148 0,0.57719 -0.35708,1.06747 -0.85681,1.25207 z m -0.69224,-2.0059 c -0.004,0.002 -0.008,0.004 -0.0109,0.006 -0.2972,0.11195 -0.51034,0.40294 -0.51034,0.74771 0,0.22048 0.087,0.42013 0.22744,0.56453 0.0471,0.0484 0.0753,0.1149 0.0753,0.18833 0,0.14689 -0.11569,0.26602 -0.25878,0.26602 -0.0744,0 -0.14123,-0.0331 -0.18862,-0.0852 -0.23034,-0.24057 -0.37331,-0.56968 -0.37331,-0.93412 0,-0.57699 0.35675,-1.06607 0.85585,-1.2512 8.6e-4,-7.3e-4 0.003,-0.002 0.004,-0.002 0.10227,-0.0356 0.17581,-0.1349 0.17581,-0.25223 v -1.15611 c 0,-0.1469 0.11576,-0.26631 0.25853,-0.26631 0.14305,0 0.25871,0.11941 0.25871,0.26631 v 1.15614 c -2e-5,0.3466 -0.21403,0.64113 -0.51373,0.75188 z m 0.25495,-2.70674 c -0.14279,0 -0.25848,-0.11907 -0.25848,-0.26597 0,-0.14709 0.1157,-0.26611 0.25848,-0.26611 0.14302,0 0.25878,0.11902 0.25878,0.26611 0,0.1469 -0.11576,0.26597 -0.25878,0.26597 z m -2.15,6.8418 c -0.002,6.2e-4 -0.002,0.002 -0.003,0.002 -0.10218,0.0355 -0.17595,0.13515 -0.17595,0.2521 v 0.62381 c 0,0.14718 -0.11566,0.26623 -0.25867,0.26623 -0.1428,0 -0.25854,-0.11905 -0.25854,-0.26623 v -0.62381 c 0,-0.34617 0.2141,-0.64102 0.51375,-0.75168 0.004,-9.1e-4 0.008,-0.004 0.0109,-0.006 0.2971,-0.11219 0.51044,-0.40327 0.51044,-0.74753 0,-0.22023 -0.0865,-0.41965 -0.22667,-0.5638 -0.0477,-0.0487 -0.0764,-0.11516 -0.0764,-0.18897 0,-0.14717 0.1159,-0.26621 0.25893,-0.26621 0.0754,0 0.14328,0.034 0.19053,0.0876 0.22908,0.2402 0.37149,0.5682 0.37149,0.93152 -2e-5,0.57682 -0.35698,1.06723 -0.85632,1.25156 z m -0.69281,-2.00564 c -0.005,9e-4 -0.008,0.005 -0.0116,0.007 -0.29638,0.11205 -0.50948,0.40296 -0.50948,0.74706 0,0.2204 0.0871,0.42016 0.22747,0.56459 0.0472,0.0484 0.0755,0.11489 0.0755,0.18828 0,0.147 -0.1157,0.26597 -0.25877,0.26597 -0.0727,0 -0.13843,-0.0316 -0.18537,-0.0811 -0.23274,-0.24056 -0.37671,-0.57159 -0.37671,-0.93769 0,-0.57699 0.35696,-1.06624 0.85598,-1.2511 9.2e-4,-8.2e-4 0.003,-0.002 0.004,-0.002 0.10228,-0.0355 0.17575,-0.13488 0.17575,-0.25216 v -4.3503 c 0,-0.14722 0.11574,-0.26626 0.25852,-0.26626 0.14299,0 0.25875,0.11904 0.25875,0.26626 v 4.35029 c -1e-5,0.34644 -0.21405,0.64134 -0.51375,0.75173 z M 428.36952,521.79 c -0.002,7e-4 -0.002,8.7e-4 -0.003,8.7e-4 -0.10235,0.0358 -0.17588,0.13516 -0.17588,0.25214 v 3.81814 c 0,0.14718 -0.11569,0.26623 -0.25845,0.26623 -0.14311,0 -0.2589,-0.11905 -0.2589,-0.26623 v -3.81814 c 0,-0.34605 0.21423,-0.64104 0.51404,-0.75179 0.004,-0.002 0.008,-0.004 0.0109,-0.006 0.29705,-0.11193 0.5103,-0.40296 0.5103,-0.74738 0,-0.22067 -0.0872,-0.42033 -0.22755,-0.56462 -0.0474,-0.0487 -0.0752,-0.11468 -0.0752,-0.18836 0,-0.14684 0.11576,-0.26631 0.25879,-0.26631 0.0742,0 0.14137,0.0333 0.18866,0.0852 0.23034,0.24056 0.37334,0.56964 0.37334,0.93415 0,0.57689 -0.35726,1.06693 -0.85618,1.25142 z m -0.69287,-2.00528 c -0.004,8.6e-4 -0.008,0.004 -0.0107,0.006 -0.29714,0.11206 -0.51046,0.40318 -0.51046,0.74751 0,0.22069 0.0872,0.41996 0.22755,0.56449 0.047,0.0484 0.0754,0.1148 0.0754,0.18822 0,0.14688 -0.11579,0.26618 -0.25879,0.26618 -0.0739,0 -0.1408,-0.0328 -0.1881,-0.0844 -0.23104,-0.2399 -0.37407,-0.57033 -0.37407,-0.93479 0,-0.57695 0.35696,-1.06721 0.85629,-1.25156 8.8e-4,-7.7e-4 0.002,-9.6e-4 0.004,-9.6e-4 0.10216,-0.0355 0.17577,-0.13517 0.17577,-0.25215 v -1.15622 c 0,-0.14722 0.11569,-0.26625 0.25881,-0.26625 0.14279,0 0.25851,0.11903 0.25851,0.26625 v 1.15622 c 0,0.34609 -0.21402,0.64105 -0.51377,0.75181 z"
       id="path2-3-0-0-5"
       style="fill:#d8f0f3;fill-opacity:1;stroke-width:0.0164037" />
  </g>
</svg>
