<?xml version="1.0" encoding="UTF-8" standalone="no"?>
<svg
   width="64"
   version="1.1"
   height="64"
   id="svg15"
   sodipodi:docname="folder-notes.svg"
   inkscape:version="1.2.2 (b0a8486541, 2022-12-01)"
   xmlns:inkscape="http://www.inkscape.org/namespaces/inkscape"
   xmlns:sodipodi="http://sodipodi.sourceforge.net/DTD/sodipodi-0.dtd"
   xmlns:xlink="http://www.w3.org/1999/xlink"
   xmlns="http://www.w3.org/2000/svg"
   xmlns:svg="http://www.w3.org/2000/svg"
   xmlns:rdf="http://www.w3.org/1999/02/22-rdf-syntax-ns#"
   xmlns:cc="http://creativecommons.org/ns#"
   xmlns:dc="http://purl.org/dc/elements/1.1/">
  <sodipodi:namedview
     pagecolor="#ffffff"
     bordercolor="#666666"
     borderopacity="1"
     objecttolerance="10"
     gridtolerance="10"
     guidetolerance="10"
     inkscape:pageopacity="0"
     inkscape:pageshadow="2"
     inkscape:window-width="1920"
     inkscape:window-height="994"
     id="namedview17"
     showgrid="true"
     inkscape:zoom="4.90625"
     inkscape:cx="-17.426752"
     inkscape:cy="28.738854"
     inkscape:window-x="0"
     inkscape:window-y="0"
     inkscape:window-maximized="1"
     inkscape:current-layer="layer1"
     inkscape:document-rotation="0"
     inkscape:showpageshadow="2"
     inkscape:pagecheckerboard="0"
     inkscape:deskcolor="#d1d1d1">
    <inkscape:grid
       type="xygrid"
       id="grid919" />
  </sodipodi:namedview>
  <defs
     id="defs5455">
    <linearGradient
       inkscape:collect="always"
       id="linearGradient25164">
      <stop
         style="stop-color:#ffc095;stop-opacity:1;"
         offset="0"
         id="stop25160" />
      <stop
         style="stop-color:#ffdd55;stop-opacity:1"
         offset="0.50679404"
         id="stop25166" />
      <stop
         style="stop-color:#ffc095;stop-opacity:1;"
         offset="1"
         id="stop25162" />
    </linearGradient>
    <linearGradient
       inkscape:collect="always"
       id="linearGradient25158">
      <stop
         style="stop-color:#ffe680;stop-opacity:1"
         offset="0"
         id="stop25154" />
      <stop
         style="stop-color:#ffc095;stop-opacity:1;"
         offset="1"
         id="stop25156" />
    </linearGradient>
    <linearGradient
       inkscape:collect="always"
       xlink:href="#linearGradient25164"
       id="linearGradient1419"
       x1="0.52915627"
       y1="5.0269842"
       x2="16.403845"
       y2="5.0269842"
       gradientUnits="userSpaceOnUse"
       gradientTransform="matrix(3.779602,0,0,3.8662747,384.57143,480.49989)" />
    <clipPath
       clipPathUnits="userSpaceOnUse"
       id="clipPath79425-9-5-3">
      <rect
         style="opacity:0.5;fill:#000000;fill-opacity:1;stroke:none;stroke-width:0.855869;stroke-dasharray:none;stroke-opacity:1;paint-order:stroke fill markers"
         id="rect79427-1-9-6"
         width="26.417742"
         height="29.037542"
         x="-16.227774"
         y="-6.4845476" />
    </clipPath>
    <filter
       inkscape:collect="always"
       style="color-interpolation-filters:sRGB"
       id="filter77953-2-4-7"
       x="-0.040508607"
       y="-0.067265661"
       width="1.0810172"
       height="1.1345313">
      <feGaussianBlur
         inkscape:collect="always"
         stdDeviation="0.44602907"
         id="feGaussianBlur77955-7-9-5" />
    </filter>
    <clipPath
       clipPathUnits="userSpaceOnUse"
       id="clipPath79425-9-5-5">
      <rect
         style="opacity:0.5;fill:#000000;fill-opacity:1;stroke:none;stroke-width:0.855869;stroke-dasharray:none;stroke-opacity:1;paint-order:stroke fill markers"
         id="rect79427-1-9-62"
         width="26.417742"
         height="29.037542"
         x="-16.227774"
         y="-6.4845476" />
    </clipPath>
    <filter
       inkscape:collect="always"
       style="color-interpolation-filters:sRGB"
       id="filter77953-2-4-9"
       x="-0.040520865"
       y="-0.064907304"
       width="1.0810417"
       height="1.1298146">
      <feGaussianBlur
         inkscape:collect="always"
         stdDeviation="0.44602907"
         id="feGaussianBlur77955-7-9-1" />
    </filter>
    <linearGradient
       inkscape:collect="always"
       xlink:href="#linearGradient25158"
       id="linearGradient1662"
       gradientUnits="userSpaceOnUse"
       gradientTransform="matrix(3.7757185,0,0,3.9032702,384.57656,479.89311)"
       x1="15.889656"
       y1="15.091164"
       x2="1.5877428"
       y2="5.396862" />
  </defs>
  <metadata
     id="metadata5458">
    <rdf:RDF>
      <cc:Work
         rdf:about="">
        <dc:format>image/svg+xml</dc:format>
        <dc:type
           rdf:resource="http://purl.org/dc/dcmitype/StillImage" />
      </cc:Work>
    </rdf:RDF>
  </metadata>
  <g
     inkscape:label="Capa 1"
     inkscape:groupmode="layer"
     id="layer1"
     transform="translate(-384.57143,-483.798)">
    <path
       id="path32082-9"
       style="fill:url(#linearGradient1419);fill-opacity:1.0;stroke:none;stroke-width:5.11694;stroke-linecap:round;stroke-linejoin:round;stroke-opacity:0.03"
       d="m 393.57143,493.798 c -4,0 -7,3.06879 -7,7.16052 v 5.11466 c 0,0 2,-5.11466 5,-5.11466 h 8 12 6 24 c 3,0 5,2.04586 5,5.11466 v 0 0 -5.11466 c 0,-4.09173 -3,-7.16052 -7,-7.16052 h -24.07114 -5.92886 -9 z"
       sodipodi:nodetypes="sccsccccccccccccs" />
    <rect
       x="410.57138"
       y="494.82092"
       width="12"
       height="2.0458624"
       ry="1.0248643"
       stroke-width="3.41941"
       style="fill:#222638;fill-opacity:1;paint-order:stroke markers fill"
       id="rect12-5-9-3-9" />
    <path
       d="m 418.30476,497.88973 h -3.46666 -4.33334 -16.93333 c -2,0 -3,1.02292 -3,3.06879 v 0 0 h 52 v 0 0 c 0,-2.04587 -1,-3.06879 -3,-3.06879 z"
       style="fill:#222638;fill-opacity:1;stroke-width:2.33915;paint-order:markers stroke fill"
       id="path8-7-2-9-6-1-7-5"
       sodipodi:nodetypes="cccccccccccc"
       opacity="0.6" />
    <path
       style="display:inline;fill:#ffffff;fill-opacity:1;stroke:none;stroke-width:2.77827;stroke-linecap:round;stroke-linejoin:round;stroke-opacity:0.03;filter:url(#filter77953-2-4-7)"
       d="m -14.025629,3.0793846 h 6.1660045 4.8447182 3.08300239 7.92771991 c 1.3212868,0 2.202145,0.9435823 2.202145,2.3589558 l -0.0082,11.1961006 c 0.0082,1.415373 -1.496833,2.225381 -2.6343739,2.232069 L -14.02563,18.993397 c -1.321286,0.0078 -2.202145,-0.943583 -2.202145,-2.358956 l 1e-6,-11.3229881 c -1e-6,-1.288486 0.882451,-2.2155179 2.202145,-2.2320683 z"
       id="path1611-1-8-0-7-3"
       clip-path="url(#clipPath79425-9-5-3)"
       transform="matrix(2.270514,0,0,2.1681872,423.41682,494.28184)"
       sodipodi:nodetypes="cccccccssccc" />
    <path
       style="display:inline;fill:#4f4f4f;fill-opacity:1;stroke:none;stroke-width:2.77827;stroke-linecap:round;stroke-linejoin:round;stroke-opacity:0.03;filter:url(#filter77953-2-4-9)"
       d="m -14.026297,2.5011118 6.1666725,0.1211316 H -3.014907 0.06809547 L 7.9884881,2.5011118 C 9.3097749,2.5157128 10.189967,3.444358 10.189967,4.874457 l -2.06e-4,11.759984 c 0.0082,1.415373 -0.872618,2.358956 -2.6343739,2.358956 H -14.02563 c -1.321306,0 -2.202145,-0.943583 -2.202145,-2.358956 V 4.874457 c 0,-1.4240071 0.880591,-2.3733452 2.201478,-2.3733452 z"
       id="path1611-1-8-0-7-2"
       clip-path="url(#clipPath79425-9-5-5)"
       transform="matrix(2.271201,0,0,2.155042,423.42797,495.56852)"
       sodipodi:nodetypes="cccccccssccc" />
    <path
       d="m 418.57143,500.95852 h -4 -5 -18 c -3,0 -4.99999,2.04587 -4.99999,5.11466 v 26.59622 c 0,3.06876 1.99999,5.11463 4.99999,5.11463 h 49.99999 c 3,0 5,-2.04587 5,-5.11463 v -26.59622 c 0,-3.06879 -2,-5.11466 -5,-5.11466 z"
       style="fill:url(#linearGradient1662);fill-opacity:1;stroke-width:3.83803;paint-order:markers stroke fill"
       id="path8-7-2-9-6-1-9"
       sodipodi:nodetypes="ccccsssssscc"
       opacity="0.6" />
    <path
       d="m 386.57143,518.748 17.1,19 h -10e-6 0.65001 l -17.75,-19.65 v 0 0 z"
       id="path2653-4"
       style="fill:#bac8df;fill-opacity:1;stroke-width:0.48092"
       sodipodi:nodetypes="cccccccc" />
    <path
       d="m 386.57143,524.79794 11.48548,12.98879 -1e-5,0.0113 0.64953,-0.006 v 0.006 l -12.12986,-13.65007 v 0 0 z"
       id="path2653-4-3"
       style="fill:#bac8df;fill-opacity:1;stroke-width:0.330034"
       sodipodi:nodetypes="ccccccccc" />
    <path
       fill-rule="evenodd"
       clip-rule="evenodd"
       d="m 431.85124,515.07784 c 0,-0.31091 0.25185,-0.56249 0.56273,-0.56249 0.31062,0 0.56246,0.25158 0.56246,0.56249 0,0.31008 -0.25184,0.56192 -0.56246,0.56192 -0.31088,0 -0.56273,-0.25184 -0.56273,-0.56192 z m 8.07004,0.0442 -0.23698,0.23672 c -0.002,0.002 -0.004,0.002 -0.007,0.005 -0.43168,0.43202 -1.12629,0.43662 -1.56713,0.0192 l -1.44962,-1.4504 c -0.21945,-0.21939 -0.21945,-0.57562 0,-0.7951 0.21952,-0.21946 0.57573,-0.21946 0.79515,0 l 1.22494,1.2241 c 7.6e-4,0.002 0.002,0 0.003,0.002 0.1096,0.10963 0.28758,0.10963 0.39711,0 0.004,-0.004 0.007,-7.3e-4 0.0107,-0.002 l 0.034,-0.034 c 0.4397,-0.43916 0.4397,-1.15131 0,-1.59104 l -0.99393,-0.99398 c -0.43967,-0.43978 -1.15191,-0.43978 -1.59108,0 l -1.92988,1.92992 h -1.59164 -4.82315 -3.09398 c -0.77666,0 -1.40617,0.63006 -1.40617,1.40679 v 10.68688 c 0,0.77671 0.62951,1.40626 1.40617,1.40626 h 10.68696 c 0.77694,0 1.4062,-0.62955 1.4062,-1.40626 v -7.23343 c 0,-0.15489 -0.12577,-0.28096 -0.281,-0.28096 -0.0772,0 -0.148,0.032 -0.19851,0.0826 -9e-4,7.2e-4 -7.4e-4,-0.004 -0.002,-0.003 l -3.12551,3.125 c -0.33869,0.33898 -0.75857,0.54414 -1.19725,0.62158 -0.0831,0.0197 -0.16888,0.0323 -0.25758,0.0323 h -0.0792 c -0.0371,7.9e-4 -0.0751,7.9e-4 -0.11225,0 h -2.05879 c -0.62099,0 -1.12435,-0.50341 -1.12435,-1.12439 v -2.05874 c -6.3e-4,-0.0371 -6.3e-4,-0.0751 0,-0.11208 v -0.0792 c 0,-0.089 0.0128,-0.17506 0.0325,-0.258 0.0775,-0.43828 0.28288,-0.85904 0.62185,-1.19773 l 1.19468,-1.19493 0.003,0.003 c 0.1016,-0.10245 0.24278,-0.16494 0.39799,-0.16494 0.31088,0 0.56249,0.25183 0.56249,0.56284 0,0.1705 -0.0778,0.32218 -0.19804,0.42506 l -1.16452,1.16453 c -0.24528,0.24475 -0.3482,0.57348 -0.3202,0.89371 -6.1e-4,0.0162 -0.005,0.032 -0.005,0.048 v 0.84354 c -2e-5,0.62093 0.50419,1.12522 1.12518,1.12522 h 0.84351 c 0.0162,0 0.0319,-0.004 0.048,-0.005 0.32047,0.0284 0.64894,-0.0751 0.89368,-0.3205 l 3.61222,-3.61224 c 0.20295,-0.19943 0.48205,-0.2815 0.78991,-0.2815 0.62151,0 1.12525,0.50343 1.12525,1.12497 v 8.15574 c 0,1.24279 -1.00717,2.25049 -2.24969,2.25049 h -11.24966 c -1.24279,0 -2.25023,-1.0077 -2.25023,-2.25049 V 514.7976 c 0,-1.24279 1.00744,-2.24965 2.25023,-2.24965 h 9.32275 l 1.60117,-1.60125 c 0.43925,-0.43943 1.0151,-0.6487 1.59098,-0.6487 0.57585,0 1.15172,0.20927 1.59117,0.6487 l 0.99448,0.99453 c 0.43992,0.43987 0.64933,1.024 0.64875,1.60058 -6.7e-4,0.57506 -0.21004,1.14265 -0.64875,1.58156 z"
       id="path2-1-5"
       style="fill:#d8f0f3;fill-opacity:1;stroke-width:0.0351552" />
  </g>
</svg>
