<?xml version="1.0" encoding="UTF-8" standalone="no"?>
<svg
   width="64"
   version="1.1"
   height="64"
   id="svg15"
   sodipodi:docname="folder-Neon.svg"
   inkscape:version="1.2.2 (b0a8486541, 2022-12-01)"
   xmlns:inkscape="http://www.inkscape.org/namespaces/inkscape"
   xmlns:sodipodi="http://sodipodi.sourceforge.net/DTD/sodipodi-0.dtd"
   xmlns:xlink="http://www.w3.org/1999/xlink"
   xmlns="http://www.w3.org/2000/svg"
   xmlns:svg="http://www.w3.org/2000/svg"
   xmlns:rdf="http://www.w3.org/1999/02/22-rdf-syntax-ns#"
   xmlns:cc="http://creativecommons.org/ns#"
   xmlns:dc="http://purl.org/dc/elements/1.1/">
  <sodipodi:namedview
     pagecolor="#ffffff"
     bordercolor="#666666"
     borderopacity="1"
     objecttolerance="10"
     gridtolerance="10"
     guidetolerance="10"
     inkscape:pageopacity="0"
     inkscape:pageshadow="2"
     inkscape:window-width="1920"
     inkscape:window-height="994"
     id="namedview17"
     showgrid="true"
     inkscape:zoom="6.9384853"
     inkscape:cx="7.4223693"
     inkscape:cy="58.730398"
     inkscape:window-x="0"
     inkscape:window-y="0"
     inkscape:window-maximized="1"
     inkscape:current-layer="layer1"
     inkscape:document-rotation="0"
     showguides="false"
     inkscape:showpageshadow="2"
     inkscape:pagecheckerboard="0"
     inkscape:deskcolor="#d1d1d1">
    <inkscape:grid
       type="xygrid"
       id="grid919" />
  </sodipodi:namedview>
  <defs
     id="defs5455">
    <linearGradient
       inkscape:collect="always"
       xlink:href="#linearGradient2303"
       id="linearGradient1419"
       x1="0.52915627"
       y1="5.0269842"
       x2="16.403845"
       y2="5.0269842"
       gradientUnits="userSpaceOnUse"
       gradientTransform="matrix(3.779602,0,0,3.8662747,384.57144,480.49989)" />
    <clipPath
       clipPathUnits="userSpaceOnUse"
       id="clipPath79425-9-5-3">
      <rect
         style="opacity:0.5;fill:#000000;fill-opacity:1;stroke:none;stroke-width:0.855869;stroke-dasharray:none;stroke-opacity:1;paint-order:stroke fill markers"
         id="rect79427-1-9-6"
         width="26.417742"
         height="29.037542"
         x="-16.227774"
         y="-6.4845476" />
    </clipPath>
    <filter
       inkscape:collect="always"
       style="color-interpolation-filters:sRGB"
       id="filter77953-2-4-7"
       x="-0.040508607"
       y="-0.067265661"
       width="1.0810172"
       height="1.1345313">
      <feGaussianBlur
         inkscape:collect="always"
         stdDeviation="0.44602907"
         id="feGaussianBlur77955-7-9-5" />
    </filter>
    <clipPath
       clipPathUnits="userSpaceOnUse"
       id="clipPath79425-9-5-5">
      <rect
         style="opacity:0.5;fill:#000000;fill-opacity:1;stroke:none;stroke-width:0.855869;stroke-dasharray:none;stroke-opacity:1;paint-order:stroke fill markers"
         id="rect79427-1-9-62"
         width="26.417742"
         height="29.037542"
         x="-16.227774"
         y="-6.4845476" />
    </clipPath>
    <filter
       inkscape:collect="always"
       style="color-interpolation-filters:sRGB"
       id="filter77953-2-4-9"
       x="-0.040520865"
       y="-0.064907304"
       width="1.0810417"
       height="1.1298146">
      <feGaussianBlur
         inkscape:collect="always"
         stdDeviation="0.44602907"
         id="feGaussianBlur77955-7-9-1" />
    </filter>
    <linearGradient
       inkscape:collect="always"
       xlink:href="#linearGradient2303"
       id="linearGradient1662"
       gradientUnits="userSpaceOnUse"
       gradientTransform="matrix(3.7757185,0,0,3.9032702,384.57656,479.89311)"
       x1="9.3259869"
       y1="14.831515"
       x2="9.3259869"
       y2="4.269978" />
    <linearGradient
       inkscape:collect="always"
       id="linearGradient2303">
      <stop
         style="stop-color:#8080ff;stop-opacity:1"
         offset="0"
         id="stop2299" />
      <stop
         style="stop-color:#00bdff;stop-opacity:1;"
         offset="1"
         id="stop2301" />
    </linearGradient>
  </defs>
  <metadata
     id="metadata5458">
    <rdf:RDF>
      <cc:Work
         rdf:about="">
        <dc:format>image/svg+xml</dc:format>
        <dc:type
           rdf:resource="http://purl.org/dc/dcmitype/StillImage" />
      </cc:Work>
    </rdf:RDF>
  </metadata>
  <g
     inkscape:label="Capa 1"
     inkscape:groupmode="layer"
     id="layer1"
     transform="translate(-384.57143,-483.798)">
    <path
       id="path32082-9"
       style="fill:url(#linearGradient1419);fill-opacity:1.0;stroke:none;stroke-width:5.11694;stroke-linecap:round;stroke-linejoin:round;stroke-opacity:0.03"
       d="m 393.57144,493.798 c -4,0 -7,3.06879 -7,7.16052 v 5.11466 c 0,0 2,-5.11466 5,-5.11466 h 8 12 6 24 c 3,0 5,2.04586 5,5.11466 v 0 0 -5.11466 c 0,-4.09173 -3,-7.16052 -7,-7.16052 h -24.07114 -5.92886 -9 z"
       sodipodi:nodetypes="sccsccccccccccccs" />
    <rect
       x="410.57135"
       y="494.82098"
       width="12"
       height="2.0458624"
       ry="1.0248643"
       stroke-width="3.41941"
       style="fill:#222638;fill-opacity:1;paint-order:stroke markers fill"
       id="rect12-5-9-3-9" />
    <path
       d="m 418.30476,497.88973 h -3.46665 -4.33335 -16.93333 c -2,0 -3,1.02292 -3,3.06879 v 0 0 h 52 v 0 0 c 0,-2.04587 -1,-3.06879 -3,-3.06879 z"
       style="fill:#222638;fill-opacity:1;stroke-width:2.33915;paint-order:markers stroke fill"
       id="path8-7-2-9-6-1-7-5"
       sodipodi:nodetypes="cccccccccccc"
       opacity="0.6" />
    <path
       style="display:inline;fill:#ffffff;fill-opacity:1;stroke:none;stroke-width:2.77827;stroke-linecap:round;stroke-linejoin:round;stroke-opacity:0.03;filter:url(#filter77953-2-4-7)"
       d="m -14.025629,3.0793846 h 6.1660045 4.8447182 3.08300239 7.92771991 c 1.3212868,0 2.202145,0.9435823 2.202145,2.3589558 l -0.0082,11.1961006 c 0.0082,1.415373 -1.496833,2.225381 -2.6343739,2.232069 L -14.02563,18.993397 c -1.321286,0.0078 -2.202145,-0.943583 -2.202145,-2.358956 l 1e-6,-11.3229881 c -1e-6,-1.288486 0.882451,-2.2155179 2.202145,-2.2320683 z"
       id="path1611-1-8-0-7-3"
       clip-path="url(#clipPath79425-9-5-3)"
       transform="matrix(2.270514,0,0,2.1681872,423.41682,494.28184)"
       sodipodi:nodetypes="cccccccssccc" />
    <path
       style="display:inline;fill:#4f4f4f;fill-opacity:1;stroke:none;stroke-width:2.77827;stroke-linecap:round;stroke-linejoin:round;stroke-opacity:0.03;filter:url(#filter77953-2-4-9)"
       d="m -14.026297,2.5011118 6.1666725,0.1211316 H -3.014907 0.06809547 L 7.9884881,2.5011118 C 9.3097749,2.5157128 10.189967,3.444358 10.189967,4.874457 l -2.06e-4,11.759984 c 0.0082,1.415373 -0.872618,2.358956 -2.6343739,2.358956 H -14.02563 c -1.321306,0 -2.202145,-0.943583 -2.202145,-2.358956 V 4.874457 c 0,-1.4240071 0.880591,-2.3733452 2.201478,-2.3733452 z"
       id="path1611-1-8-0-7-2"
       clip-path="url(#clipPath79425-9-5-5)"
       transform="matrix(2.271201,0,0,2.155042,423.42798,495.56852)"
       sodipodi:nodetypes="cccccccssccc" />
    <path
       d="m 418.57144,500.95852 h -4 -5 -18 c -3,0 -4.99999,2.04587 -4.99999,5.11466 v 26.59622 c 0,3.06876 1.99999,5.11463 4.99999,5.11463 h 49.99998 c 3,0 5,-2.04587 5,-5.11463 v -26.59622 c 0,-3.06879 -2,-5.11466 -5,-5.11466 z"
       style="fill:url(#linearGradient1662);fill-opacity:1;stroke-width:3.83803;paint-order:markers stroke fill"
       id="path8-7-2-9-6-1-9"
       sodipodi:nodetypes="ccccsssssscc"
       opacity="0.6" />
    <path
       d="m 386.57144,518.748 17.1,19 h -1e-5 0.65001 l -17.75,-19.65 v 0 0 z"
       id="path2653-4"
       style="fill:#bac8df;fill-opacity:1;stroke-width:0.48092"
       sodipodi:nodetypes="cccccccc" />
    <path
       d="m 386.57144,524.79794 11.48548,12.98879 -10e-6,0.0113 0.64953,-0.006 v 0.006 l -12.12986,-13.65007 v 0 0 z"
       id="path2653-4-3"
       style="fill:#bac8df;fill-opacity:1;stroke-width:0.330034"
       sodipodi:nodetypes="ccccccccc" />
    <g
       id="g8-3-3-4-5"
       transform="matrix(0.2,0,0,0.2,421.57143,509.298)"
       style="fill:#d8f0f3;fill-opacity:1">
      <path
         d="m 50,38.312 c -6.455,0 -11.688,5.233 -11.688,11.688 0,6.455 5.233,11.688 11.688,11.688 6.455,0 11.688,-5.233 11.688,-11.688 0,-6.455 -5.233,-11.688 -11.688,-11.688 z m -2.028,3.759 c -2.191,0.559 -4.072,2.022 -5.159,4.02 -0.106,0.193 -0.308,0.305 -0.514,0.305 -0.095,0 -0.19,-0.023 -0.279,-0.071 -0.283,-0.155 -0.389,-0.51 -0.234,-0.793 1.243,-2.28 3.393,-3.954 5.898,-4.592 0.315,-0.084 0.631,0.109 0.71,0.422 0.08,0.313 -0.11,0.63 -0.422,0.709 z"
         id="path2-6-6-5-6"
         style="fill:#d8f0f3;fill-opacity:1" />
      <path
         d="M 54.078,23.573 C 54.009,21.374 52.217,19.61 50,19.61 c -2.217,0 -4.009,1.764 -4.078,3.963 C 33.107,25.544 23.263,36.643 23.263,50 c 0,13.357 9.845,24.456 22.659,26.427 0.069,2.199 1.861,3.963 4.078,3.963 2.217,0 4.009,-1.764 4.078,-3.963 C 66.893,74.456 76.737,63.357 76.737,50 76.737,36.643 66.893,25.544 54.078,23.573 Z m -0.062,51.975 c -0.354,-1.9 -2.013,-3.34 -4.016,-3.34 -2.003,0 -3.662,1.439 -4.016,3.34 C 33.625,73.611 24.14,62.895 24.14,50 c 0,-12.895 9.485,-23.611 21.845,-25.548 0.354,1.9 2.013,3.34 4.016,3.34 2.003,0 3.662,-1.439 4.016,-3.34 C 66.375,26.389 75.86,37.105 75.86,50 c 0,12.895 -9.485,23.611 -21.844,25.548 z"
         id="path4-3-7-0-2"
         style="fill:#d8f0f3;fill-opacity:1" />
      <path
         d="M 95,50 C 95,47.821 93.294,46.058 91.146,45.933 90.327,37.579 87.011,29.948 81.958,23.795 83.401,22.189 83.365,19.726 81.819,18.18 80.274,16.635 77.81,16.598 76.205,18.042 70.053,12.988 62.421,9.674 54.068,8.854 53.942,6.708 52.179,5 50,5 47.821,5 46.058,6.708 45.933,8.854 37.58,9.673 29.949,12.988 23.796,18.042 22.191,16.598 19.726,16.635 18.18,18.18 16.635,19.726 16.598,22.191 18.042,23.796 12.988,29.948 9.674,37.58 8.854,45.933 6.706,46.058 5,47.821 5,50 c 0,2.179 1.706,3.942 3.854,4.067 0.819,8.353 4.134,15.983 9.187,22.136 -1.444,1.606 -1.407,4.071 0.138,5.617 1.546,1.545 4.01,1.582 5.617,0.138 6.152,5.055 13.784,8.368 22.137,9.188 C 46.058,93.292 47.821,95 50,95 c 2.179,0 3.942,-1.708 4.067,-3.854 8.353,-0.819 15.984,-4.133 22.137,-9.188 1.607,1.444 4.07,1.407 5.616,-0.138 1.545,-1.546 1.582,-4.011 0.138,-5.616 C 87.013,70.052 90.326,62.42 91.146,54.067 93.294,53.942 95,52.179 95,50 Z m -4.73,4.027 c -0.808,8.143 -4.04,15.583 -8.963,21.589 -1.599,-1.15 -3.833,-1.02 -5.271,0.419 -1.438,1.439 -1.57,3.673 -0.419,5.271 -6.005,4.923 -13.446,8.155 -21.591,8.963 -0.308,-1.954 -1.984,-3.451 -4.025,-3.451 -2.041,0 -3.718,1.497 -4.025,3.451 -8.145,-0.808 -15.586,-4.04 -21.591,-8.963 1.151,-1.6 1.02,-3.835 -0.419,-5.272 -1.438,-1.438 -3.673,-1.571 -5.272,-0.42 C 13.771,69.61 10.538,62.17 9.73,54.027 c 1.954,-0.31 3.451,-1.986 3.451,-4.027 0,-2.041 -1.497,-3.718 -3.451,-4.027 0.808,-8.143 4.04,-15.582 8.962,-21.588 1.6,1.152 3.836,1.02 5.273,-0.419 1.438,-1.438 1.569,-3.674 0.419,-5.273 6.006,-4.922 13.445,-8.154 21.59,-8.962 0.308,1.954 1.984,3.451 4.025,3.451 2.041,0 3.718,-1.497 4.025,-3.451 8.145,0.808 15.585,4.04 21.59,8.962 -1.15,1.6 -1.02,3.834 0.419,5.272 1.438,1.438 3.673,1.569 5.272,0.419 4.923,6.005 8.155,13.446 8.963,21.589 -1.954,0.31 -3.451,1.986 -3.451,4.027 0,2.041 1.498,3.718 3.453,4.027 z"
         id="path6-6-5-3-9"
         style="fill:#d8f0f3;fill-opacity:1" />
    </g>
  </g>
</svg>
