<?xml version="1.0" encoding="UTF-8" standalone="no"?>
<svg
   version="1.0"
   width="22.000002"
   height="22.000002"
   id="svg2"
   inkscape:version="1.3.2 (091e20ef0f, 2023-11-25)"
   sodipodi:docname="keepbelow.svg"
   viewBox="0 0 20.625004 20.625002"
   xmlns:inkscape="http://www.inkscape.org/namespaces/inkscape"
   xmlns:sodipodi="http://sodipodi.sourceforge.net/DTD/sodipodi-0.dtd"
   xmlns:xlink="http://www.w3.org/1999/xlink"
   xmlns="http://www.w3.org/2000/svg"
   xmlns:svg="http://www.w3.org/2000/svg"
   xmlns:rdf="http://www.w3.org/1999/02/22-rdf-syntax-ns#"
   xmlns:cc="http://creativecommons.org/ns#"
   xmlns:dc="http://purl.org/dc/elements/1.1/">
  <sodipodi:namedview
     pagecolor="#262626"
     bordercolor="#000000"
     borderopacity="1"
     objecttolerance="10"
     gridtolerance="10"
     guidetolerance="10"
     inkscape:pageopacity="1"
     inkscape:pageshadow="2"
     inkscape:window-width="1920"
     inkscape:window-height="994"
     id="namedview32"
     showgrid="true"
     inkscape:zoom="2.8284271"
     inkscape:cx="-68.235804"
     inkscape:cy="82.37794"
     inkscape:window-x="0"
     inkscape:window-y="0"
     inkscape:window-maximized="1"
     inkscape:current-layer="svg2"
     inkscape:document-rotation="0"
     showguides="false"
     inkscape:pagecheckerboard="true"
     inkscape:showpageshadow="2"
     inkscape:deskcolor="#262626">
    <inkscape:grid
       type="xygrid"
       id="grid1078"
       originx="-168.75009"
       originy="0.00018879992"
       spacingy="1"
       spacingx="1"
       units="px"
       visible="true" />
  </sodipodi:namedview>
  <metadata
     id="metadata11">
    <rdf:RDF>
      <cc:Work
         rdf:about="">
        <dc:format>image/svg+xml</dc:format>
        <dc:type
           rdf:resource="http://purl.org/dc/dcmitype/StillImage" />
      </cc:Work>
    </rdf:RDF>
  </metadata>
  <defs
     id="defs4">
    <linearGradient
       id="linearGradient3587-6-5">
      <stop
         id="stop3589-9-2"
         style="stop-color:#000000;stop-opacity:1"
         offset="0" />
      <stop
         id="stop3591-7-4"
         style="stop-color:#646464;stop-opacity:1"
         offset="1" />
    </linearGradient>
    <linearGradient
       x1="7.0799088"
       y1="7.6944885"
       x2="11.317808"
       y2="11.932388"
       id="linearGradient2388"
       xlink:href="#linearGradient3587-6-5"
       gradientUnits="userSpaceOnUse"
       gradientTransform="rotate(45,12.12132,10.707107)" />
    <linearGradient
       x1="8.1313992"
       y1="19.049677"
       x2="8.1313992"
       y2="15.935893"
       id="linearGradient5038"
       xlink:href="#linearGradient3732-77"
       gradientUnits="userSpaceOnUse"
       gradientTransform="matrix(0.8666667,0,0,0.73333335,2.0666666,-16.066667)" />
    <linearGradient
       id="linearGradient3732-77">
      <stop
         id="stop3734-3"
         style="stop-color:#000000;stop-opacity:1"
         offset="0" />
      <stop
         id="stop3736-71"
         style="stop-color:#000000;stop-opacity:0"
         offset="1" />
    </linearGradient>
    <linearGradient
       x1="8.1313992"
       y1="19.049677"
       x2="8.1313992"
       y2="15.935893"
       id="linearGradient3794"
       xlink:href="#linearGradient3788"
       gradientUnits="userSpaceOnUse"
       gradientTransform="matrix(1.1333334,0,0,0.99999997,-0.06666673,-2.9999999)" />
    <linearGradient
       id="linearGradient3788">
      <stop
         id="stop3790"
         style="stop-color:#ffffff;stop-opacity:1"
         offset="0" />
      <stop
         id="stop3792"
         style="stop-color:#ffffff;stop-opacity:0"
         offset="1" />
    </linearGradient>
    <linearGradient
       x1="22.863201"
       y1="-0.94923496"
       x2="26.23391"
       y2="2.4214737"
       id="linearGradient6695"
       xlink:href="#linearGradient3587-6-5-1-5"
       gradientUnits="userSpaceOnUse"
       gradientTransform="rotate(45,4.0355353,-15.642136)" />
    <linearGradient
       id="linearGradient3587-6-5-1-5">
      <stop
         id="stop3589-9-2-8-5"
         style="stop-color:#000000;stop-opacity:1"
         offset="0" />
      <stop
         id="stop3591-7-4-3-0"
         style="stop-color:#646464;stop-opacity:1"
         offset="1" />
    </linearGradient>
    <linearGradient
       x1="19.490692"
       y1="-4.321744"
       x2="22.886868"
       y2="-0.92556846"
       id="linearGradient6693"
       xlink:href="#linearGradient3587-6-5-1-5"
       gradientUnits="userSpaceOnUse"
       gradientTransform="rotate(45,4.0355353,-15.642136)" />
    <linearGradient
       id="linearGradient3059">
      <stop
         id="stop3061"
         style="stop-color:#000000;stop-opacity:1"
         offset="0" />
      <stop
         id="stop3063"
         style="stop-color:#646464;stop-opacity:1"
         offset="1" />
    </linearGradient>
    <linearGradient
       x1="20.534313"
       y1="-4.3515615"
       x2="26.152533"
       y2="1.2666581"
       id="linearGradient6693-5"
       xlink:href="#linearGradient3587-6-5-1-5-2"
       gradientUnits="userSpaceOnUse"
       gradientTransform="rotate(45,4.0355353,-15.642136)" />
    <linearGradient
       id="linearGradient3587-6-5-1-5-2">
      <stop
         id="stop3589-9-2-8-5-0"
         style="stop-color:#000000;stop-opacity:1"
         offset="0" />
      <stop
         id="stop3591-7-4-3-0-1"
         style="stop-color:#646464;stop-opacity:1"
         offset="1" />
    </linearGradient>
    <linearGradient
       x1="19.490692"
       y1="-4.321744"
       x2="22.886868"
       y2="-0.92556846"
       id="linearGradient3054"
       xlink:href="#linearGradient3587-6-5-1-5-2"
       gradientUnits="userSpaceOnUse"
       gradientTransform="rotate(45,3.1568563,-28.006097)" />
    <linearGradient
       x1="20.534313"
       y1="-4.3515615"
       x2="26.152533"
       y2="1.2666581"
       id="linearGradient6693-5-4"
       xlink:href="#linearGradient3587-6-5-1-5-2-1"
       gradientUnits="userSpaceOnUse"
       gradientTransform="rotate(45,-6.6146827,-50.612924)" />
    <linearGradient
       id="linearGradient3587-6-5-1-5-2-1">
      <stop
         id="stop3589-9-2-8-5-0-2"
         style="stop-color:#000000;stop-opacity:1"
         offset="0" />
      <stop
         id="stop3591-7-4-3-0-1-4"
         style="stop-color:#646464;stop-opacity:1"
         offset="1" />
    </linearGradient>
    <linearGradient
       x1="8.1313992"
       y1="19.049677"
       x2="8.1313992"
       y2="15.935893"
       id="linearGradient5038-3"
       xlink:href="#linearGradient3732-77-1"
       gradientUnits="userSpaceOnUse"
       gradientTransform="matrix(0.8666667,0,0,0.73333335,-25.780791,-13.354803)" />
    <linearGradient
       id="linearGradient3732-77-1">
      <stop
         id="stop3734-3-1"
         style="stop-color:#000000;stop-opacity:1"
         offset="0" />
      <stop
         id="stop3736-71-8"
         style="stop-color:#000000;stop-opacity:0"
         offset="1" />
    </linearGradient>
    <linearGradient
       x1="8.1313992"
       y1="19.049677"
       x2="8.1313992"
       y2="15.935893"
       id="linearGradient3794-3"
       xlink:href="#linearGradient3788-3"
       gradientUnits="userSpaceOnUse"
       gradientTransform="matrix(1.1333334,0,0,0.99999997,-27.914124,-5.7118643)" />
    <linearGradient
       id="linearGradient3788-3">
      <stop
         id="stop3790-8"
         style="stop-color:#ffffff;stop-opacity:1"
         offset="0" />
      <stop
         id="stop3792-3"
         style="stop-color:#ffffff;stop-opacity:0"
         offset="1" />
    </linearGradient>
    <linearGradient
       inkscape:collect="always"
       xlink:href="#linearGradient3788-3"
       id="linearGradient3210"
       gradientUnits="userSpaceOnUse"
       gradientTransform="matrix(1.1333334,0,0,0.99999997,-27.914124,-5.7118643)"
       x1="8.1313992"
       y1="19.049677"
       x2="8.1313992"
       y2="15.935893" />
    <linearGradient
       inkscape:collect="always"
       xlink:href="#linearGradient3732-77-1"
       id="linearGradient3212"
       gradientUnits="userSpaceOnUse"
       gradientTransform="matrix(0.8666667,0,0,0.73333335,-25.780791,-13.354803)"
       x1="8.1313992"
       y1="19.049677"
       x2="8.1313992"
       y2="15.935893" />
    <linearGradient
       inkscape:collect="always"
       xlink:href="#linearGradient3587-6-5-1-5-2-1"
       id="linearGradient3214"
       gradientUnits="userSpaceOnUse"
       gradientTransform="rotate(45,-6.6146827,-50.612924)"
       x1="20.534313"
       y1="-4.3515615"
       x2="26.152533"
       y2="1.2666581" />
    <linearGradient
       id="linearGradient3587-6-5-1-5-2-7">
      <stop
         offset="0"
         style="stop-color:#000000;stop-opacity:1"
         id="stop3589-9-2-8-5-0-9" />
      <stop
         offset="1"
         style="stop-color:#646464;stop-opacity:1"
         id="stop3591-7-4-3-0-1-5" />
    </linearGradient>
    <linearGradient
       id="linearGradient3732-77-2"
       inkscape:collect="always">
      <stop
         id="stop3734-3-2"
         offset="0"
         style="stop-color:#000000;stop-opacity:1;" />
      <stop
         id="stop3736-71-0"
         offset="1"
         style="stop-color:#000000;stop-opacity:0;" />
    </linearGradient>
    <linearGradient
       inkscape:collect="always"
       id="linearGradient3788-8">
      <stop
         style="stop-color:#ffffff;stop-opacity:1;"
         offset="0"
         id="stop3790-7" />
      <stop
         style="stop-color:#ffffff;stop-opacity:0;"
         offset="1"
         id="stop3792-4" />
    </linearGradient>
    <linearGradient
       inkscape:collect="always"
       xlink:href="#linearGradient3788-8"
       id="linearGradient3298"
       gradientUnits="userSpaceOnUse"
       gradientTransform="matrix(1.1333334,0,0,0.99999997,-5.0666667,42)"
       x1="8.1313992"
       y1="19.049677"
       x2="8.1313992"
       y2="15.935893" />
    <linearGradient
       inkscape:collect="always"
       xlink:href="#linearGradient3732-77-2"
       id="linearGradient3300"
       gradientUnits="userSpaceOnUse"
       gradientTransform="matrix(0.8666667,0,0,0.73333335,-2.9333334,-61.066667)"
       x1="8.1313992"
       y1="19.049677"
       x2="8.1313992"
       y2="15.935893" />
    <linearGradient
       inkscape:collect="always"
       xlink:href="#linearGradient3587-6-5-1-5-2-7"
       id="linearGradient3302"
       gradientUnits="userSpaceOnUse"
       gradientTransform="rotate(45,-52.784269,0.82232777)"
       x1="20.534313"
       y1="-4.3515615"
       x2="26.152533"
       y2="1.2666581" />
    <linearGradient
       x1="20.534313"
       y1="-4.3515615"
       x2="26.152533"
       y2="1.2666581"
       id="linearGradient6693-5-9"
       xlink:href="#linearGradient3587-6-5-1-5-2-4"
       gradientUnits="userSpaceOnUse"
       gradientTransform="rotate(45,24.578427,37.367009)" />
    <linearGradient
       id="linearGradient3587-6-5-1-5-2-4">
      <stop
         id="stop3589-9-2-8-5-0-4"
         style="stop-color:#000000;stop-opacity:1"
         offset="0" />
      <stop
         id="stop3591-7-4-3-0-1-0"
         style="stop-color:#646464;stop-opacity:1"
         offset="1" />
    </linearGradient>
  </defs>
  <g
     id="active-center"
     transform="translate(-168.75001,1.888e-4)">
    <rect
       height="20.625002"
       ry="5.6253052"
       width="20.625002"
       x="0"
       y="0"
       id="rect4310-6-6"
       style="fill:#4a557c;fill-opacity:0.85;stroke-width:0.515625"
       rx="5.6250005" />
    <path
       d="m 10.320672,14.062384 c 0.0156,-1.78e-4 0.03118,-10e-4 0.04673,-0.0025 0.107211,-0.01109 0.206985,-0.05174 0.283237,-0.116654 l 6.222702,-5.2789784 c 0.09105,-0.07596 0.142497,-0.179654 0.142886,-0.288065 4.26e-4,-0.108342 -0.05011,-0.212273 -0.140547,-0.288875 -0.09033,-0.07652 -0.212961,-0.119194 -0.340692,-0.118544 H 4.091451 c -0.127823,-10e-4 -0.250662,0.04165 -0.341224,0.118186 -0.09058,0.07656 -0.141287,0.18056 -0.140849,0.289072 3.09e-4,0.108407 0.05188,0.212189 0.142788,0.288242 L 9.975975,13.94346 c 0.09129,0.07756 0.215739,0.120463 0.344855,0.119001 z"
       fill-rule="evenodd"
       id="path2-3-6-6-3"
       style="fill:#ffffff;fill-opacity:1;stroke-width:0.0251876;enable-background:new" />
  </g>
  <g
     id="hover-center"
     transform="translate(-135.00001,9.92e-5)">
    <rect
       height="20.625002"
       ry="5.6253052"
       width="20.625002"
       x="0"
       y="0"
       id="rect4310-6-6-2"
       style="fill:#3384ff;fill-opacity:1;stroke-width:0.515625"
       rx="5.6250005" />
    <path
       d="m 10.320672,14.062384 c 0.0156,-1.78e-4 0.03118,-10e-4 0.04673,-0.0025 0.107211,-0.01109 0.206985,-0.05174 0.283237,-0.116654 l 6.222702,-5.2789784 c 0.09105,-0.07596 0.142497,-0.179654 0.142886,-0.288065 4.26e-4,-0.108342 -0.05011,-0.212273 -0.140547,-0.288875 -0.09033,-0.07652 -0.212961,-0.119194 -0.340692,-0.118544 H 4.091451 c -0.127823,-10e-4 -0.250662,0.04165 -0.341224,0.118186 -0.09058,0.07656 -0.141287,0.18056 -0.140849,0.289072 3.09e-4,0.108407 0.05188,0.212189 0.142788,0.288242 L 9.975975,13.94346 c 0.09129,0.07756 0.215739,0.120463 0.344855,0.119001 z"
       fill-rule="evenodd"
       id="path2-3-6-6-3-0"
       style="fill:#ffffff;fill-opacity:1;stroke-width:0.0251876;enable-background:new" />
  </g>
  <g
     id="pressed-center"
     transform="translate(-98.437506,9.92e-5)">
    <rect
       height="20.625002"
       ry="5.6253052"
       width="20.625002"
       x="0.092812501"
       y="0"
       id="rect4310-6-6-8"
       style="fill:#66a3ff;fill-opacity:1;stroke-width:0.515625"
       rx="5.6250005" />
    <path
       d="m 10.413485,14.062384 c 0.0156,-1.78e-4 0.03118,-10e-4 0.04673,-0.0025 0.107211,-0.01109 0.206985,-0.05174 0.283237,-0.116654 l 6.222701,-5.2789784 c 0.09105,-0.07596 0.142497,-0.179654 0.142887,-0.288065 4.26e-4,-0.108342 -0.05011,-0.212273 -0.140548,-0.288875 -0.09033,-0.07652 -0.212961,-0.119194 -0.340692,-0.118544 H 4.1842635 c -0.127823,-10e-4 -0.250662,0.04165 -0.341224,0.118186 -0.09058,0.07656 -0.141287,0.18056 -0.140849,0.289072 3.09e-4,0.108407 0.05188,0.212189 0.142788,0.288242 L 10.068788,13.94346 c 0.09129,0.07756 0.215739,0.120463 0.344855,0.119001 z"
       fill-rule="evenodd"
       id="path2-3-6-6-3-9"
       style="fill:#ffffff;fill-opacity:1;stroke-width:0.0251876;enable-background:new" />
  </g>
  <g
     id="inactive-center"
     transform="translate(-65.625,5.056261e-5)">
    <rect
       height="20.625002"
       ry="5.6253052"
       width="20.625002"
       x="0"
       y="0.0253125"
       id="rect4310-6-6-6"
       style="fill:#4c5880;fill-opacity:0.54902;stroke-width:0.515625"
       rx="5.6250005" />
    <path
       d="m 10.320672,14.087697 c 0.0156,-1.78e-4 0.03118,-0.001 0.04673,-0.0025 0.107211,-0.01109 0.206985,-0.05174 0.283237,-0.116654 l 6.222702,-5.2789789 c 0.09105,-0.07596 0.142497,-0.179654 0.142886,-0.288065 4.26e-4,-0.108342 -0.05011,-0.212273 -0.140547,-0.288875 -0.09033,-0.07652 -0.212961,-0.119194 -0.340692,-0.118544 H 4.091451 c -0.127823,-10e-4 -0.250662,0.04165 -0.341224,0.118186 -0.09058,0.07656 -0.141287,0.18056 -0.140849,0.289072 3.09e-4,0.108407 0.05188,0.212189 0.142788,0.288242 l 6.223809,5.2791929 c 0.09129,0.07756 0.215739,0.120463 0.344855,0.119001 z"
       fill-rule="evenodd"
       id="path2-3-6-6-3-6"
       style="fill:#cccccc;fill-opacity:1;stroke-width:0.0251876;enable-background:new" />
  </g>
  <g
     id="hover-inactive-center"
     transform="translate(-31.87499,9.92e-5)">
    <rect
       height="20.625002"
       ry="5.6253052"
       width="20.625002"
       x="0"
       y="0"
       id="rect4310-6-6-9"
       style="fill:#3384ff;fill-opacity:1;stroke-width:0.515625"
       rx="5.6250005" />
    <path
       d="m 10.320672,14.062384 c 0.0156,-1.78e-4 0.03118,-10e-4 0.04673,-0.0025 0.107211,-0.01109 0.206985,-0.05174 0.283237,-0.116654 l 6.222702,-5.2789784 c 0.09105,-0.07596 0.142497,-0.179654 0.142886,-0.288065 4.26e-4,-0.108342 -0.05011,-0.212273 -0.140547,-0.288875 -0.09033,-0.07652 -0.212961,-0.119194 -0.340692,-0.118544 H 4.091451 c -0.127823,-10e-4 -0.250662,0.04165 -0.341224,0.118186 -0.09058,0.07656 -0.141287,0.18056 -0.140849,0.289072 3.09e-4,0.108407 0.05188,0.212189 0.142788,0.288242 L 9.975975,13.94346 c 0.09129,0.07756 0.215739,0.120463 0.344855,0.119001 z"
       fill-rule="evenodd"
       id="path2-3-6-6-3-5"
       style="fill:#ffffff;fill-opacity:1;stroke-width:0.0251876;enable-background:new" />
  </g>
  <g
     id="pressed-inactive-center">
    <rect
       height="20.625002"
       ry="5.6253052"
       width="20.625002"
       x="0"
       y="0"
       id="rect4310-6-6-4"
       style="fill:#66a3ff;fill-opacity:1;stroke-width:0.515625"
       rx="5.6250005" />
    <path
       d="m 10.320672,14.062384 c 0.0156,-1.78e-4 0.03118,-10e-4 0.04673,-0.0025 0.107211,-0.01109 0.206985,-0.05174 0.283237,-0.116654 l 6.222702,-5.2789784 c 0.09105,-0.07596 0.142497,-0.179654 0.142886,-0.288065 4.26e-4,-0.108342 -0.05011,-0.212273 -0.140547,-0.288875 -0.09033,-0.07652 -0.212961,-0.119194 -0.340692,-0.118544 H 4.091451 c -0.127823,-10e-4 -0.250662,0.04165 -0.341224,0.118186 -0.09058,0.07656 -0.141287,0.18056 -0.140849,0.289072 3.09e-4,0.108407 0.05188,0.212189 0.142788,0.288242 L 9.975975,13.94346 c 0.09129,0.07756 0.215739,0.120463 0.344855,0.119001 z"
       fill-rule="evenodd"
       id="path2-3-6-6-3-8"
       style="fill:#ffffff;fill-opacity:1;stroke-width:0.0251876;enable-background:new" />
  </g>
</svg>
