<?xml version="1.0" encoding="UTF-8" standalone="no"?>
<!-- Created with Inkscape (http://www.inkscape.org/) -->

<svg
   width="64.0px"
   height="64.0px"
   viewBox="0 0 64.0 64.0"
   version="1.1"
   id="SVGRoot"
   sodipodi:docname="jupyter-Notebook.svg"
   inkscape:version="1.3.2 (091e20ef0f, 2023-11-25)"
   xmlns:inkscape="http://www.inkscape.org/namespaces/inkscape"
   xmlns:sodipodi="http://sodipodi.sourceforge.net/DTD/sodipodi-0.dtd"
   xmlns:xlink="http://www.w3.org/1999/xlink"
   xmlns="http://www.w3.org/2000/svg"
   xmlns:svg="http://www.w3.org/2000/svg">
  <sodipodi:namedview
     id="namedview475"
     pagecolor="#ffffff"
     bordercolor="#666666"
     borderopacity="1.0"
     inkscape:showpageshadow="2"
     inkscape:pageopacity="0.0"
     inkscape:pagecheckerboard="0"
     inkscape:deskcolor="#d1d1d1"
     inkscape:document-units="px"
     showgrid="true"
     inkscape:zoom="3.3638608"
     inkscape:cx="89.183238"
     inkscape:cy="28.984553"
     inkscape:window-width="1920"
     inkscape:window-height="994"
     inkscape:window-x="0"
     inkscape:window-y="0"
     inkscape:window-maximized="1"
     inkscape:current-layer="layer1">
    <inkscape:grid
       type="xygrid"
       id="grid598"
       originx="0"
       originy="0"
       spacingy="1"
       spacingx="1"
       units="px"
       visible="true" />
  </sodipodi:namedview>
  <defs
     id="defs470">
    <linearGradient
       inkscape:collect="always"
       id="linearGradient5461">
      <stop
         style="stop-color:#c7c7c7;stop-opacity:1;"
         offset="0"
         id="stop5457" />
      <stop
         style="stop-color:#c6cfd2;stop-opacity:1;"
         offset="1"
         id="stop5459" />
    </linearGradient>
    <linearGradient
       inkscape:collect="always"
       xlink:href="#linearGradient22063"
       id="linearGradient22065"
       x1="-14"
       y1="6"
       x2="-14"
       y2="-9.999999"
       gradientUnits="userSpaceOnUse"
       gradientTransform="matrix(3.6250002,0,0,3.6250002,82.750005,39.249999)" />
    <linearGradient
       inkscape:collect="always"
       id="linearGradient22063">
      <stop
         style="stop-color:#292f3a;stop-opacity:1;"
         offset="0"
         id="stop22059" />
      <stop
         style="stop-color:#535e75;stop-opacity:1;"
         offset="1"
         id="stop22061" />
    </linearGradient>
    <linearGradient
       inkscape:collect="always"
       xlink:href="#linearGradient5461"
       id="linearGradient5463"
       x1="3.710207"
       y1="60.03688"
       x2="61.079586"
       y2="3.2810159"
       gradientUnits="userSpaceOnUse"
       gradientTransform="translate(-0.49999785)" />
    <filter
       id="filter1823"
       x="-0.094081325"
       y="-0.093198477"
       width="1.1881626"
       height="1.186397"
       color-interpolation-filters="sRGB">
      <feGaussianBlur
         stdDeviation="0.17090543"
         id="feGaussianBlur2" />
    </filter>
    <filter
       id="filter1"
       x="-0.094081327"
       y="-0.093198478"
       width="1.1881626"
       height="1.186397"
       color-interpolation-filters="sRGB">
      <feGaussianBlur
         stdDeviation="0.17090543"
         id="feGaussianBlur1" />
    </filter>
    <filter
       id="filter3"
       x="-0.094081327"
       y="-0.093198478"
       width="1.1881626"
       height="1.186397"
       color-interpolation-filters="sRGB">
      <feGaussianBlur
         stdDeviation="0.17090543"
         id="feGaussianBlur3" />
    </filter>
    <filter
       id="filter4"
       x="-0.094081327"
       y="-0.093198478"
       width="1.1881626"
       height="1.186397"
       color-interpolation-filters="sRGB">
      <feGaussianBlur
         stdDeviation="0.17090543"
         id="feGaussianBlur4" />
    </filter>
    <filter
       id="filter5"
       x="-0.094081327"
       y="-0.093198478"
       width="1.1881626"
       height="1.186397"
       color-interpolation-filters="sRGB">
      <feGaussianBlur
         stdDeviation="0.17090543"
         id="feGaussianBlur5" />
    </filter>
    <filter
       id="filter3393"
       x="-0.58427982"
       y="-0.33101304"
       width="2.1685596"
       height="1.6620261"
       color-interpolation-filters="sRGB">
      <feGaussianBlur
         stdDeviation="0.19991353"
         id="feGaussianBlur6" />
    </filter>
    <filter
       id="filter7"
       x="-0.58427984"
       y="-0.33101305"
       width="2.1685596"
       height="1.662026"
       color-interpolation-filters="sRGB">
      <feGaussianBlur
         stdDeviation="0.19991353"
         id="feGaussianBlur7" />
    </filter>
    <filter
       id="filter8"
       x="-0.58427984"
       y="-0.33101305"
       width="2.1685596"
       height="1.662026"
       color-interpolation-filters="sRGB">
      <feGaussianBlur
         stdDeviation="0.19991353"
         id="feGaussianBlur8" />
    </filter>
    <filter
       id="filter9"
       x="-0.58427984"
       y="-0.33101305"
       width="2.1685596"
       height="1.662026"
       color-interpolation-filters="sRGB">
      <feGaussianBlur
         stdDeviation="0.19991353"
         id="feGaussianBlur9" />
    </filter>
    <filter
       id="filter10"
       x="-0.58427984"
       y="-0.33101305"
       width="2.1685596"
       height="1.662026"
       color-interpolation-filters="sRGB">
      <feGaussianBlur
         stdDeviation="0.19991353"
         id="feGaussianBlur10" />
    </filter>
    <filter
       id="filter11"
       x="-0.58427984"
       y="-0.33101305"
       width="2.1685596"
       height="1.662026"
       color-interpolation-filters="sRGB">
      <feGaussianBlur
         stdDeviation="0.19991353"
         id="feGaussianBlur11" />
    </filter>
    <filter
       id="filter12"
       x="-0.58427984"
       y="-0.33101305"
       width="2.1685596"
       height="1.662026"
       color-interpolation-filters="sRGB">
      <feGaussianBlur
         stdDeviation="0.19991353"
         id="feGaussianBlur12" />
    </filter>
  </defs>
  <g
     inkscape:label="Layer 1"
     inkscape:groupmode="layer"
     id="layer1">
    <path
       d="M 3,10.249999 C 3,6.245825 6.245938,3 10.25,3 h 43.500005 c 4.00417,0 7.25,3.245825 7.25,7.249999 v 43.5 c 0,4.004173 -3.24583,7.25 -7.25,7.25 H 10.25 c -4.004062,0 -7.25,-3.245827 -7.25,-7.25 z"
       id="path736"
       style="fill:#555f77;fill-opacity:1;stroke-width:3.625" />
    <path
       d="M 3,9.796875 C 3,6.043188 6.245938,3 10.25,3 h 43.500005 c 4.00417,0 7.25,3.043188 7.25,6.796875 v 40.781249 c 0,3.753692 -3.24583,6.796875 -7.25,6.796875 H 10.25 C 6.245938,57.374999 3,54.331816 3,50.578124 Z"
       id="path738"
       style="fill:url(#linearGradient22065);fill-opacity:1;stroke-width:3.625" />
    <rect
       ry="6.4440002"
       y="3"
       x="3"
       height="54.375"
       width="58"
       id="rect1045-5"
       rx="6.5229988"
       style="fill:url(#linearGradient5463);fill-opacity:1" />
    <path
       id="use5"
       d="M 5.894,2.844 C 5.919,3.432 5.771,4.014 5.469,4.516 5.167,5.018 4.723,5.42 4.194,5.668 3.665,5.916 3.074,6.001 2.499,5.911 A 2.94,2.94 0 0 1 0.956,5.163 2.98,2.98 0 0 1 0.085,3.677 C -0.053,3.107 -0.02,2.507 0.18,1.953 A 2.97,2.97 0 0 1 1.208,0.574 2.93,2.93 0 0 1 2.823,0.003 c 0.78,-0.033 1.542,0.247 2.118,0.78 0.576,0.533 0.918,1.274 0.952,2.06 z"
       style="opacity:0.153;fill:#2e3440;stroke-width:1.3635;filter:url(#filter1823)"
       transform="matrix(0.81757754,0,0,0.81757754,41.174459,10.879308)" />
    <path
       id="use6"
       d="M 18.265,7.134 C 10.415,7.134 3.56,4.258 0,0 c 1.325,3.82 3.796,7.13 7.07,9.473 3.274,2.343 7.187,3.6 11.2,3.6 4.013,0 7.927,-1.258 11.2,-3.6 C 32.743,7.131 35.213,3.82 36.538,0 32.97,4.258 26.115,7.134 18.265,7.134 Z"
       style="opacity:0.153;fill:#2e3440;stroke-width:1.3635;filter:url(#filter1823)"
       transform="matrix(0.81757754,0,0,0.81757754,17.006789,35.954353)" />
    <path
       id="use7"
       d="m 18.273,5.94 c 7.85,0 14.706,2.877 18.265,7.134 C 35.213,9.254 32.742,5.944 29.468,3.601 26.194,1.258 22.282,0 18.27,0 14.258,0 10.343,1.258 7.07,3.6 3.797,5.942 1.325,9.253 0,13.073 3.567,8.825 10.423,5.94 18.273,5.94 Z"
       style="opacity:0.153;fill:#2e3440;stroke-width:1.3635;filter:url(#filter1823)"
       transform="matrix(0.81757754,0,0,0.81757754,16.998559,14.288543)" />
    <path
       id="use8"
       d="M 7.428,3.583 A 3.77,3.77 0 0 1 6.892,5.692 C 6.51,6.326 5.952,6.832 5.284,7.144 4.616,7.456 3.884,7.564 3.147,7.45 2.41,7.336 1.743,7.008 1.202,6.506 0.661,6.004 0.28,5.353 0.105,4.632 A 3.78,3.78 0 0 1 0.227,2.459 C 0.48,1.763 0.932,1.159 1.527,0.719 2.122,0.279 2.83,0.033 3.564,0.003 4.547,-0.037 5.504,0.317 6.23,0.988 a 3.76,3.76 0 0 1 1.198,2.596 z"
       style="opacity:0.153;fill:#2e3440;stroke-width:1.3635;filter:url(#filter1823)"
       transform="matrix(0.81757754,0,0,0.81757754,17.055869,45.626359)" />
    <path
       id="use9"
       d="M 2.275,4.396 C 1.845,4.416 1.417,4.304 1.048,4.078 0.679,3.852 0.385,3.52 0.203,3.127 0.021,2.734 -0.04,2.292 0.026,1.862 0.092,1.432 0.283,1.03 0.575,0.71 0.867,0.39 1.247,0.164 1.665,0.06 2.083,-0.044 2.525,-0.018 2.93,0.132 3.335,0.282 3.687,0.549 3.94,0.902 A 2.21,2.21 0 0 1 3.784,3.686 C 3.394,4.116 2.85,4.37 2.274,4.396 Z"
       style="opacity:0.153;fill:#2e3440;stroke-width:1.3635;filter:url(#filter1823)"
       transform="matrix(0.81757754,0,0,0.81757754,15.878519,14.762807)" />
    <path
       id="use10"
       d="m 45.438099,12.649393 c 0.0213,0.480734 -0.10036,0.956558 -0.3475,1.366977 -0.24675,0.410437 -0.60985,0.739102 -1.04224,0.941855 -0.43253,0.202766 -0.91573,0.272258 -1.38582,0.198676 a 2.4036783,2.4036783 0 0 1 -1.26159,-0.611549 2.4363811,2.4363811 0 0 1 -0.71216,-1.214924 c -0.11296,-0.466016 -0.0856,-0.956559 0.0781,-1.409501 a 2.4282056,2.4282056 0 0 1 0.84037,-1.127435 2.3955021,2.3955021 0 0 1 1.32033,-0.46684 c 0.63783,-0.02704 1.26073,0.20194 1.7317,0.637729 0.47094,0.43575 0.7505,1.041579 0.77834,1.684202 z"
       style="fill:#4c566a;stroke-width:1.11485" />
    <path
       id="use11"
       d="m 31.384799,41.231832 c -6.41803,0 -12.0225,-2.351347 -14.93308,-5.832595 1.08327,3.123144 3.1035,5.829333 5.7803,7.744915 2.6767,1.915569 5.87589,2.943281 9.15693,2.943281 3.28091,0 6.48077,-1.028523 9.15683,-2.943281 2.67579,-1.914767 4.69538,-4.621771 5.77853,-7.744915 -2.91706,3.481248 -8.52158,5.832595 -14.93951,5.832595 z"
       style="fill:#d08770;stroke-width:1.11485" />
    <path
       id="use12"
       d="m 31.383179,18.589847 c 6.41789,0 12.02315,2.352165 14.93304,5.832595 -1.08328,-3.123145 -3.10352,-5.829333 -5.78031,-7.744919 -2.67675,-1.915576 -5.87512,-2.944081 -9.15528,-2.944081 -3.28009,0 -6.4809,1.028505 -9.15682,2.943273 -2.67598,1.914765 -4.69706,4.621748 -5.78028,7.744906 2.91625,-3.473065 8.52161,-5.831774 14.93965,-5.831774 z"
       style="fill:#d08770;stroke-width:1.11485" />
    <path
       id="use13"
       d="m 22.573879,48.000634 a 3.0822672,3.0822672 0 0 1 -0.43832,1.72427 c -0.31233,0.518336 -0.76851,0.932027 -1.31466,1.187106 -0.54611,0.255102 -1.14466,0.343378 -1.74718,0.250191 -0.60265,-0.09319 -1.14786,-0.361374 -1.59013,-0.771797 -0.44235,-0.410426 -0.7539,-0.942679 -0.89695,-1.532134 a 3.0904431,3.0904431 0 0 1 0.0993,-1.776594 c 0.20688,-0.569042 0.57644,-1.062851 1.06285,-1.422604 0.48658,-0.359718 1.0654,-0.560857 1.66548,-0.58538 0.80367,-0.03252 1.58608,0.256706 2.17966,0.805315 a 3.0740914,3.0740914 0 0 1 0.9795,2.122434 z"
       style="fill:#4c566a;stroke-width:1.11485" />
    <path
       id="use14"
       d="m 17.183349,17.801761 c -0.35146,0.01638 -0.70145,-0.07516 -1.00309,-0.259991 -0.30173,-0.184768 -0.54206,-0.456204 -0.69083,-0.777514 -0.14882,-0.321309 -0.19873,-0.682677 -0.1447,-1.034235 0.0539,-0.351558 0.21008,-0.680221 0.44881,-0.941851 0.23879,-0.261627 0.54943,-0.446398 0.89123,-0.531408 0.34158,-0.08506 0.70303,-0.06382 1.03418,0.05887 0.33114,0.122591 0.61887,0.340935 0.82575,0.62953 a 1.8068463,1.8068463 0 0 1 -0.12739,2.276136 c -0.3189,0.351562 -0.76367,0.55923 -1.23455,0.580485 z"
       style="fill:#2e3440;stroke-width:1.11485" />
    <g
       id="g1"
       transform="matrix(1.3406535,0,0,1.3406535,-14.439109,-10.353928)">
      <path
         d="M 3.997,9.7557 Q 3.9214,9.7557 3.86405,9.745272 3.806698,9.737452 3.764987,9.727024 v -0.32847 q 0.041711,0.010428 0.088635,0.018248 0.044318,0.00782 0.096456,0.00782 0.06778,0 0.12252,-0.026069 Q 4.12995,9.372484 4.161233,9.29949 4.192516,9.226497 4.192516,9.09094 v -1.744 h 0.39364 v 1.7414 q 0,0.23984 -0.0756,0.38582 -0.072993,0.14859 -0.20595,0.21377 -0.13295,0.06778 -0.30762,0.06778 z"
         id="path14"
         style="opacity:0.33882;fill:#2e3440;stroke-width:0.26458;filter:url(#filter3393)"
         transform="matrix(3.7544147,0,0,3.7452306,2.2294045,-1.2277374)" />
      <path
         d="M 6.3302,7.7848 V 9.2082 H 6.03301 L 5.980872,9.02572 H 5.960017 q -0.06778,0.10949 -0.1877,0.15902 -0.11731,0.049531 -0.25026,0.049531 -0.22941,0 -0.36757,-0.12252 -0.13817,-0.12513 -0.13817,-0.39886 v -0.92806 h 0.38843 v 0.8316 q 0,0.1512 0.054745,0.22941 0.054745,0.078207 0.17466,0.078207 0.17727,0 0.24244,-0.11992 0.065173,-0.12252 0.065173,-0.34933 v -0.66998 z"
         id="path15"
         style="opacity:0.33882;fill:#2e3440;stroke-width:0.26458;filter:url(#filter3393)"
         transform="matrix(3.7535426,0,0,3.7775978,2.2325797,-1.4564962)" />
      <path
         d="m 7.5294,7.7588 q 0.23984,0 0.38843,0.1877 0.14859,0.18509 0.14859,0.54745 0,0.36236 -0.15381,0.55266 -0.15381,0.1877 -0.39364,0.1877 -0.15381,0 -0.24505,-0.054745 Q 7.182678,9.122213 7.12533,9.051825 H 7.104475 q 0.020855,0.10949 0.020855,0.20855 v 0.57352 H 6.7369 v -2.049 h 0.31544 l 0.054745,0.18509 H 7.125333 Q 7.182685,7.883957 7.279143,7.821395 7.375599,7.758829 7.529403,7.758829 Z M 7.40427,8.06902 q -0.1512,0 -0.21377,0.093849 -0.059959,0.093849 -0.065173,0.28676 V 8.49134 q 0,0.20595 0.059959,0.31804 0.062566,0.10949 0.22419,0.10949 0.13295,0 0.19552,-0.10949 0.065173,-0.1121 0.065173,-0.32065 0,-0.41971 -0.2659,-0.41971 z"
         id="path16"
         style="opacity:0.33882;fill:#2e3440;stroke-width:0.26458;filter:url(#filter3393)"
         transform="matrix(3.7544147,0,0,3.7452306,2.2294045,-1.2277374)" />
      <path
         d="m 8.1316,7.7848 h 0.42493 l 0.26851,0.80032 q 0.020855,0.057352 0.031283,0.11992 0.010428,0.059959 0.015642,0.12774 h 0.00782 Q 8.887605,8.765 8.90064,8.70504 8.916281,8.642474 8.93453,8.58512 L 9.19783,7.7848 H 9.61494 L 9.01274,9.3907 Q 8.931926,9.61229 8.77551,9.72178 8.6217,9.83388 8.41836,9.83388 8.353187,9.83388 8.30366,9.82606 8.256736,9.82085 8.220239,9.813025 v -0.30762 q 0.028676,0.00521 0.06778,0.010428 0.041711,0.00521 0.086028,0.00521 0.12252,0 0.19291,-0.0756 0.072993,-0.072994 0.10688,-0.17727 L 8.697299,9.197787 Z"
         id="path17"
         style="opacity:0.33882;fill:#2e3440;stroke-width:0.26458;filter:url(#filter3393)"
         transform="matrix(3.7544147,0,0,3.7452306,2.2294045,-1.2277374)" />
      <path
         d="m 10.418,8.9241 q 0.06517,0 0.12513,-0.013034 0.05996,-0.013035 0.11992,-0.031283 v 0.28937 q -0.06257,0.026069 -0.15642,0.044318 -0.09124,0.020855 -0.20073,0.020855 -0.12774,0 -0.22941,-0.041711 Q 9.977427,9.150905 9.91747,9.049235 9.860118,8.944955 9.860118,8.762475 v -0.68562 h -0.18509 v -0.16424 l 0.21377,-0.13035 0.1121,-0.29979 h 0.24766 v 0.3024 h 0.39886 v 0.29197 h -0.39886 v 0.68562 q 0,0.080814 0.04692,0.12252 0.04692,0.039104 0.12252,0.039104 z"
         id="path18"
         style="opacity:0.33882;fill:#2e3440;stroke-width:0.26458;filter:url(#filter3393)"
         transform="matrix(3.7535426,0,0,3.7775978,2.2325797,-1.4564962)" />
      <path
         d="m 11.536,7.7588 q 0.29458,0 0.46664,0.16945 0.17206,0.16684 0.17206,0.47706 v 0.1877 h -0.91763 q 0.0052,0.16424 0.09646,0.25808 0.09385,0.093849 0.25808,0.093849 0.13817,0 0.25026,-0.026069 0.1121,-0.028676 0.23202,-0.086028 v 0.29979 q -0.10428,0.052138 -0.22159,0.0756 -0.1147,0.026069 -0.27894,0.026069 -0.21377,0 -0.378,-0.078207 -0.16424,-0.080814 -0.25808,-0.24244 -0.09385,-0.16163 -0.09385,-0.40668 0,-0.25026 0.08342,-0.4145 0.08603,-0.16684 0.23723,-0.25026 0.1512,-0.083421 0.35193,-0.083421 z m 0.0026,0.27633 q -0.1121,0 -0.1877,0.072994 -0.07299,0.072993 -0.08603,0.2268 h 0.54484 Q 11.80711,8.204574 11.74193,8.121154 11.67676,8.035126 11.53859,8.035126 Z"
         id="path19"
         style="opacity:0.33882;fill:#2e3440;stroke-width:0.26458;filter:url(#filter3393)"
         transform="matrix(3.7535426,0,0,3.7775978,2.2325797,-1.4564962)" />
      <path
         d="m 13.285,7.7588 q 0.02868,0 0.06778,0.00261 0.0391,0.00261 0.06257,0.00782 L 13.38667,8.1342 Q 13.36842,8.12899 13.33192,8.12638 13.29803,8.12117 13.27196,8.12117 q -0.09906,0 -0.1903,0.036497 -0.09124,0.03389 -0.14859,0.1121 -0.05475,0.078207 -0.05475,0.21377 v 0.72472 h -0.38843 v -1.4234 h 0.29458 l 0.05735,0.23984 h 0.01825 q 0.06257,-0.10949 0.17206,-0.1877 Q 13.14162,7.75879 13.285,7.75879 Z"
         id="path20"
         style="opacity:0.33882;fill:#2e3440;stroke-width:0.26458;filter:url(#filter3393)"
         transform="matrix(3.7535426,0,0,3.7775978,2.2325797,-1.4564962)" />
      <path
         d="m 16.770809,34.928568 q -0.283782,0 -0.499033,-0.03939 -0.215291,-0.02966 -0.371857,-0.06899 v -1.24083 q 0.156566,0.03938 0.332695,0.069 0.166357,0.02965 0.362078,0.02965 0.254409,0 0.459878,-0.09844 0.215288,-0.09841 0.332699,-0.374217 0.117332,-0.27574 0.117332,-0.787823 V 25.82939 h 1.477538 v 6.578298 q 0,0.90603 -0.283768,1.457473 -0.273988,0.561312 -0.773034,0.807543 -0.499048,0.256042 -1.15466,0.256042 z"
         id="path21"
         style="fill:#2e3440;stroke-width:0.996299" />
      <path
         d="m 25.528558,27.483675 v 5.377028 H 24.41305 l -0.195701,-0.689336 h -0.07827 q -0.254434,0.413609 -0.704539,0.60071 -0.44033,0.187125 -0.93937,0.187125 -0.861105,0 -1.379689,-0.462839 -0.51862,-0.472679 -0.51862,-1.506733 v -3.505843 h 1.457989 v 3.141467 q 0,0.571169 0.205472,0.866594 0.205494,0.295448 0.655613,0.295448 0.665386,0 0.910014,-0.453005 0.244646,-0.462832 0.244646,-1.319627 v -2.530925 z"
         id="path22"
         style="fill:#2e3440;stroke-width:0.996299" />
      <path
         d="m 30.029425,27.385081 q 0.90026,0 1.458001,0.709067 0.557739,0.699185 0.557739,2.068038 0,1.368844 -0.577343,2.087726 -0.577327,0.709043 -1.47754,0.709043 -0.577331,0 -0.919797,-0.206802 -0.342479,-0.216644 -0.557749,-0.482535 h -0.07826 q 0.07826,0.413595 0.07826,0.7878 v 2.166549 h -1.457991 v -7.7403 h 1.184027 l 0.205476,0.699181 h 0.06857 q 0.215284,-0.324976 0.577339,-0.561305 0.362056,-0.236346 0.939348,-0.236346 z m -0.469673,1.171893 q -0.567541,0 -0.802391,0.354511 -0.225054,0.354527 -0.244625,1.083277 v 0.15756 q 0,0.777989 0.225055,1.201431 0.234859,0.413612 0.84151,0.413612 0.499032,0 0.733874,-0.413612 0.244638,-0.42347 0.244638,-1.211294 0,-1.585485 -0.998061,-1.585485 z"
         id="path23"
         style="fill:#2e3440;stroke-width:0.996299" />
      <path
         d="m 32.289798,27.483675 h 1.595022 l 1.007891,3.023291 q 0.07812,0.216643 0.117321,0.452994 0.03908,0.226519 0.05869,0.482562 h 0.0293 q 0.02921,-0.256039 0.07814,-0.482562 0.05862,-0.236345 0.127219,-0.452994 l 0.988295,-3.023291 h 1.565716 l -2.260367,6.066444 q -0.303314,0.837076 -0.890476,1.250693 -0.57727,0.423468 -1.340524,0.423468 -0.244671,0 -0.430562,-0.02963 -0.176116,-0.01971 -0.313102,-0.04925 v -1.162069 q 0.107679,0.01973 0.254396,0.03938 0.156599,0.01973 0.322921,0.01973 0.459884,0 0.724117,-0.285587 0.273976,-0.275731 0.40113,-0.669649 l 0.0877,-0.265895 z"
         id="path24"
         style="fill:#2e3440;stroke-width:0.996299" />
      <path
         d="m 40.871562,31.787126 q 0.244621,0 0.469665,-0.0493 0.225066,-0.04924 0.450098,-0.1181 v 1.093114 q -0.234855,0.09844 -0.587036,0.167431 -0.342545,0.07877 -0.753512,0.07877 -0.47946,0 -0.861069,-0.157572 -0.371749,-0.15756 -0.596857,-0.541619 -0.215365,-0.393924 -0.215365,-1.083269 V 28.58657 h -0.694647 v -0.620462 l 0.802393,-0.492406 0.420749,-1.132483 h 0.929541 v 1.142358 h 1.497129 v 1.10292 h -1.497129 v 2.589998 q 0,0.305297 0.176152,0.462834 0.176091,0.147757 0.459888,0.147757 z"
         id="path25"
         style="fill:#2e3440;stroke-width:0.996299" />
      <path
         d="m 45.067919,27.385081 q 1.105774,0 1.751656,0.640123 0.645893,0.630241 0.645893,1.802133 v 0.709046 h -3.444454 q 0.01964,0.620442 0.362004,0.974937 0.352434,0.354515 0.968755,0.354515 0.518726,0 0.939407,-0.09842 0.420776,-0.108425 0.87089,-0.324988 V 32.5749 q -0.39141,0.196958 -0.831671,0.285588 -0.430636,0.09842 -1.047102,0.09842 -0.802365,0 -1.418862,-0.29546 -0.61654,-0.305266 -0.968694,-0.915836 -0.352227,-0.610574 -0.352227,-1.536265 0,-0.945381 0.313095,-1.565802 0.322913,-0.630277 0.890435,-0.945403 0.567551,-0.31511 1.32091,-0.31511 z m 0.01257,1.04386 q -0.420759,0 -0.70455,0.275748 -0.273979,0.275738 -0.322931,0.856761 h 2.045103 Q 46.08557,29.069042 45.843734,28.753897 45.599046,28.42892 45.080426,28.42892 Z"
         id="path26"
         style="fill:#2e3440;stroke-width:0.996299" />
      <path
         d="m 51.636688,27.385081 q 0.107779,0 0.254436,0.01035 0.146785,0.01035 0.234759,0.0296 l -0.107766,1.378701 q -0.06903,-0.01972 -0.205555,-0.0296 -0.127241,-0.01972 -0.225055,-0.01972 -0.37188,0 -0.714296,0.137882 -0.342536,0.128031 -0.557798,0.423464 -0.20546,0.295395 -0.20546,0.807495 v 2.737572 H 48.65197 v -5.37708 h 1.105782 l 0.21529,0.906027 h 0.06898 q 0.23491,-0.413611 0.645835,-0.709064 0.411006,-0.295431 0.949178,-0.295431 z"
         id="path27"
         style="fill:#2e3440;stroke-width:0.996299" />
    </g>
  </g>
</svg>
