<?xml version="1.0" encoding="UTF-8" standalone="no"?>
<svg
   version="1.1"
   viewBox="0 0 64 64"
   id="svg25"
   sodipodi:docname="onlyoffice-desktopeditors.svg"
   width="64"
   height="64"
   inkscape:version="1.3 (0e150ed6c4, 2023-07-21)"
   xmlns:inkscape="http://www.inkscape.org/namespaces/inkscape"
   xmlns:sodipodi="http://sodipodi.sourceforge.net/DTD/sodipodi-0.dtd"
   xmlns:xlink="http://www.w3.org/1999/xlink"
   xmlns="http://www.w3.org/2000/svg"
   xmlns:svg="http://www.w3.org/2000/svg"
   xmlns:rdf="http://www.w3.org/1999/02/22-rdf-syntax-ns#"
   xmlns:cc="http://creativecommons.org/ns#"
   xmlns:dc="http://purl.org/dc/elements/1.1/">
  <metadata
     id="metadata29">
    <rdf:RDF>
      <cc:Work
         rdf:about="">
        <dc:format>image/svg+xml</dc:format>
        <dc:type
           rdf:resource="http://purl.org/dc/dcmitype/StillImage" />
      </cc:Work>
    </rdf:RDF>
  </metadata>
  <sodipodi:namedview
     pagecolor="#ffffff"
     bordercolor="#666666"
     borderopacity="1"
     objecttolerance="10"
     gridtolerance="10"
     guidetolerance="10"
     inkscape:pageopacity="0"
     inkscape:pageshadow="2"
     inkscape:window-width="1920"
     inkscape:window-height="994"
     id="namedview27"
     showgrid="false"
     inkscape:zoom="6.1208931"
     inkscape:cx="21.402106"
     inkscape:cy="37.821278"
     inkscape:window-x="0"
     inkscape:window-y="0"
     inkscape:window-maximized="1"
     inkscape:current-layer="svg25"
     inkscape:showpageshadow="2"
     inkscape:pagecheckerboard="0"
     inkscape:deskcolor="#d1d1d1" />
  <defs
     id="defs7">
    <linearGradient
       id="linearGradient851"
       y2="1"
       gradientUnits="userSpaceOnUse"
       x2="0"
       y1="47">
      <stop
         style="stop-color:#f7cbcd"
         offset="0"
         id="stop2" />
      <stop
         style="stop-color:#fadcde"
         offset="1"
         id="stop4" />
    </linearGradient>
    <style
       type="text/css"
       id="style835" />
    <style
       type="text/css"
       id="style837" />
    <filter
       id="filter1057"
       x="-0.026999999"
       y="-0.026999999"
       width="1.054"
       height="1.054"
       color-interpolation-filters="sRGB">
      <feGaussianBlur
         stdDeviation="0.61875"
         id="feGaussianBlur839" />
    </filter>
    <linearGradient
       id="linearGradient1053"
       x1="-127"
       x2="-72"
       y1="60"
       y2="5"
       gradientTransform="matrix(0.26458333,0,0,0.26458333,34.792708,-0.1349375)"
       gradientUnits="userSpaceOnUse">
      <stop
         stop-color="#dee0e2"
         offset="0"
         id="stop842"
         style="stop-color:#32373c;stop-opacity:1" />
      <stop
         stop-color="#f1f3f5"
         stop-opacity=".99608"
         offset="1"
         id="stop844"
         style="stop-color:#46505a;stop-opacity:0.99607843" />
    </linearGradient>
    <linearGradient
       inkscape:collect="always"
       xlink:href="#linearGradient22063"
       id="linearGradient22065"
       x1="-14"
       y1="6"
       x2="-14"
       y2="-9.999999"
       gradientUnits="userSpaceOnUse"
       gradientTransform="matrix(3.6250002,0,0,3.6250002,82.750002,39.249999)" />
    <linearGradient
       inkscape:collect="always"
       id="linearGradient22063">
      <stop
         style="stop-color:#292f3a;stop-opacity:1;"
         offset="0"
         id="stop22059" />
      <stop
         style="stop-color:#535e75;stop-opacity:1;"
         offset="1"
         id="stop22061" />
    </linearGradient>
    <linearGradient
       id="a-3"
       y1="543.79999"
       y2="503.79999"
       x2="0"
       gradientUnits="userSpaceOnUse">
      <stop
         stop-color="#197cf1"
         id="stop7" />
      <stop
         offset="1"
         stop-color="#20bcfa"
         id="stop9" />
    </linearGradient>
  </defs>
  <g
     fill="#5e4aa6"
     id="g867">
    <g
       transform="translate(-76.881,-23.026)"
       id="g861">
      <circle
         cx="-1248.7"
         cy="-1241.6"
         r="0"
         id="circle849" />
      <circle
         cx="-1140.3"
         cy="-1301.8"
         r="0"
         id="circle851" />
      <circle
         cx="-978.95001"
         cy="-1316.3"
         r="0"
         id="circle853" />
      <circle
         cx="120.52"
         cy="-50.805"
         r="0"
         fill-rule="evenodd"
         id="circle855" />
      <circle
         cx="-972.45001"
         cy="-1325.3"
         r="0"
         id="circle857" />
      <circle
         cx="127.04"
         cy="-59.816002"
         r="0"
         fill-rule="evenodd"
         id="circle859" />
    </g>
    <circle
       cx="-1248.7"
       cy="-1241.6"
       r="0"
       id="circle863" />
    <circle
       cx="-149.14999"
       cy="23.855"
       r="0"
       fill-rule="evenodd"
       id="circle865" />
  </g>
  <path
     d="m 2.9999975,10.25 c 0,-4.004175 3.245938,-7.25 7.2499995,-7.25 h 43.500005 c 4.00417,0 7.25,3.245825 7.25,7.25 v 43.5 c 0,4.004173 -3.24583,7.25 -7.25,7.25 H 10.249997 C 6.2459355,61 2.9999975,57.754173 2.9999975,53.75 Z"
     id="path736"
     style="fill:#606c86;fill-opacity:1;stroke-width:3.625" />
  <path
     d="M 2.9999975,9.7968752 C 2.9999975,6.043188 6.2459355,3 10.249997,3 h 43.500005 c 4.00417,0 7.25,3.043188 7.25,6.7968752 V 50.578124 c 0,3.753693 -3.24583,6.796876 -7.25,6.796876 H 10.249997 c -4.0040615,0 -7.2499995,-3.043183 -7.2499995,-6.796876 z"
     id="path738"
     style="fill:url(#linearGradient22065);fill-opacity:1;stroke-width:3.625" />
  <g
     transform="matrix(0.8247784,0,0,0.8247784,5.6070909,2.3058662)"
     font-weight="400"
     id="g262">
    <path
       d="m 32,35.55 c 0.637,0 1.342,0.226 2.834,0.723 l 21.95,8.978 c 0.874,0.44 1.216,1.023 1.216,1.55 0,0.525 -0.342,1.108 -1.217,1.548 l -21.99,8.996 -0.016,0.01 c -1.88,0.94 -3.674,0.94 -5.554,0 L 29.207,57.345 7.217,48.349 C 6.342,47.909 6,47.326 6,46.8 6,46.274 6.342,45.691 7.217,45.251 l 21.941,-8.976 h 0.008 C 30.658,35.778 31.363,35.552 32,35.552 Z"
       fill="#f35a23"
       overflow="visible"
       style="font-variant-ligatures:normal;font-variant-position:normal;font-variant-caps:normal;font-variant-numeric:normal;font-variant-alternates:normal;font-feature-settings:normal;text-indent:0;text-decoration-line:none;text-decoration-style:solid;text-decoration-color:#000000;text-transform:none;text-orientation:mixed;white-space:normal;shape-padding:0;isolation:auto;mix-blend-mode:normal"
       id="path244" />
    <path
       d="m 32,35.55 v 0.003 c -0.637,0 -1.342,0.225 -2.834,0.722 h -0.008 l -16.048,6.567 15.702,6.424 c 2.097,1.037 4.28,1.037 6.378,0 L 50.892,42.842 34.835,36.273 c -1.492,-0.497 -2.197,-0.722 -2.834,-0.722 z"
       fill-opacity="0.078"
       overflow="visible"
       style="font-variant-ligatures:normal;font-variant-position:normal;font-variant-caps:normal;font-variant-numeric:normal;font-variant-alternates:normal;font-feature-settings:normal;text-indent:0;text-decoration-line:none;text-decoration-style:solid;text-decoration-color:#000000;text-transform:none;text-orientation:mixed;white-space:normal;shape-padding:0;isolation:auto;mix-blend-mode:normal"
       id="path246" />
    <path
       d="m 32,22.55 c 0.637,0 1.342,0.226 2.834,0.723 l 21.95,8.979 C 57.658,32.692 58,33.274 58,33.8 c 0,0.527 -0.342,1.11 -1.217,1.55 l -21.99,8.995 -0.016,0.01 c -1.88,0.94 -3.674,0.94 -5.554,0 L 29.207,44.345 7.217,35.349 C 6.342,34.91 6,34.327 6,33.8 6,33.274 6.342,32.691 7.217,32.252 l 21.941,-8.977 h 0.008 C 30.658,22.778 31.363,22.552 32,22.552 Z"
       fill="#8bc34a"
       overflow="visible"
       style="font-variant-ligatures:normal;font-variant-position:normal;font-variant-caps:normal;font-variant-numeric:normal;font-variant-alternates:normal;font-feature-settings:normal;text-indent:0;text-decoration-line:none;text-decoration-style:solid;text-decoration-color:#000000;text-transform:none;text-orientation:mixed;white-space:normal;shape-padding:0;isolation:auto;mix-blend-mode:normal"
       id="path248" />
    <path
       d="m 32,34.543 v 0.01 c -0.861,0 -1.658,0.275 -3.158,0.775 l -0.016,0.01 -0.015,0.01 -10.801,4.42 11.197,4.58 0.016,0.01 c 1.88,0.94 3.674,0.94 5.554,0 l 0.016,-0.01 11.209,-4.586 -10.828,-4.43 -0.016,-0.011 c -1.5,-0.5 -2.297,-0.776 -3.158,-0.776 z"
       fill="#7eb73d"
       overflow="visible"
       style="font-variant-ligatures:normal;font-variant-position:normal;font-variant-caps:normal;font-variant-numeric:normal;font-variant-alternates:normal;font-feature-settings:normal;text-indent:0;text-decoration-line:none;text-decoration-style:solid;text-decoration-color:#000000;text-transform:none;text-orientation:mixed;white-space:normal;shape-padding:0;isolation:auto;mix-blend-mode:normal"
       id="path250" />
    <path
       d="m 32,35.55 v 0.003 c -0.637,0 -1.342,0.225 -2.834,0.722 h -0.008 l -9.84,4.026 9.889,4.045 0.016,0.01 c 1.88,0.94 3.674,0.94 5.554,0 L 34.793,44.346 44.68,40.3 34.834,36.272 C 33.342,35.775 32.637,35.55 32,35.55 Z"
       fill="#83be3f"
       overflow="visible"
       style="font-variant-ligatures:normal;font-variant-position:normal;font-variant-caps:normal;font-variant-numeric:normal;font-variant-alternates:normal;font-feature-settings:normal;text-indent:0;text-decoration-line:none;text-decoration-style:solid;text-decoration-color:#000000;text-transform:none;text-orientation:mixed;white-space:normal;shape-padding:0;isolation:auto;mix-blend-mode:normal"
       id="path252" />
    <path
       d="m 32,22.55 v 0.003 c -0.637,0 -1.342,0.225 -2.834,0.722 h -0.008 l -16.048,6.567 15.702,6.424 c 2.097,1.037 4.28,1.037 6.378,0 L 50.892,29.842 34.835,23.273 c -1.492,-0.497 -2.197,-0.722 -2.834,-0.722 z"
       fill-opacity="0.078"
       overflow="visible"
       style="font-variant-ligatures:normal;font-variant-position:normal;font-variant-caps:normal;font-variant-numeric:normal;font-variant-alternates:normal;font-feature-settings:normal;text-indent:0;text-decoration-line:none;text-decoration-style:solid;text-decoration-color:#000000;text-transform:none;text-orientation:mixed;white-space:normal;shape-padding:0;isolation:auto;mix-blend-mode:normal"
       id="path254" />
    <path
       d="m 32,9.55 c 0.637,0 1.342,0.226 2.834,0.723 l 21.95,8.979 C 57.658,19.692 58,20.274 58,20.8 c 0,0.527 -0.342,1.11 -1.217,1.55 l -21.99,8.995 -0.016,0.01 c -1.88,0.94 -3.674,0.94 -5.554,0 L 29.207,31.345 7.217,22.349 C 6.342,21.91 6,21.327 6,20.8 6,20.274 6.342,19.691 7.217,19.252 l 21.941,-8.977 h 0.008 C 30.658,9.778 31.363,9.552 32,9.552 Z"
       fill="#29b6f6"
       overflow="visible"
       style="font-variant-ligatures:normal;font-variant-position:normal;font-variant-caps:normal;font-variant-numeric:normal;font-variant-alternates:normal;font-feature-settings:normal;text-indent:0;text-decoration-line:none;text-decoration-style:solid;text-decoration-color:#000000;text-transform:none;text-orientation:mixed;white-space:normal;shape-padding:0;isolation:auto;mix-blend-mode:normal"
       id="path256" />
    <path
       d="m 32,21.545 v 0.006 c -0.861,0 -1.658,0.275 -3.158,0.775 l -0.016,0.01 -0.015,0.01 -10.801,4.42 11.197,4.58 0.016,0.01 c 1.88,0.94 3.674,0.94 5.554,0 L 34.793,31.346 46.002,26.76 35.174,22.33 35.158,22.32 C 33.658,21.82 32.861,21.545 32,21.545 Z"
       fill="#0aa8f0"
       overflow="visible"
       style="font-variant-ligatures:normal;font-variant-position:normal;font-variant-caps:normal;font-variant-numeric:normal;font-variant-alternates:normal;font-feature-settings:normal;text-indent:0;text-decoration-line:none;text-decoration-style:solid;text-decoration-color:#000000;text-transform:none;text-orientation:mixed;white-space:normal;shape-padding:0;isolation:auto;mix-blend-mode:normal"
       id="path258" />
    <path
       d="m 32,22.55 v 0.003 c -0.637,0 -1.342,0.225 -2.834,0.722 h -0.008 l -9.84,4.026 9.889,4.045 0.016,0.01 c 1.88,0.94 3.674,0.94 5.554,0 L 34.793,31.346 44.68,27.3 34.834,23.272 C 33.342,22.775 32.637,22.55 32,22.55 Z"
       fill="#10adf5"
       overflow="visible"
       style="font-variant-ligatures:normal;font-variant-position:normal;font-variant-caps:normal;font-variant-numeric:normal;font-variant-alternates:normal;font-feature-settings:normal;text-indent:0;text-decoration-line:none;text-decoration-style:solid;text-decoration-color:#000000;text-transform:none;text-orientation:mixed;white-space:normal;shape-padding:0;isolation:auto;mix-blend-mode:normal"
       id="path260" />
  </g>
</svg>
