<?xml version="1.0" encoding="UTF-8" standalone="no"?>
<svg
   width="64"
   version="1.1"
   height="64"
   id="svg19"
   sodipodi:docname="folder-image-people.svg"
   inkscape:version="1.2.2 (b0a8486541, 2022-12-01)"
   xmlns:inkscape="http://www.inkscape.org/namespaces/inkscape"
   xmlns:sodipodi="http://sodipodi.sourceforge.net/DTD/sodipodi-0.dtd"
   xmlns:xlink="http://www.w3.org/1999/xlink"
   xmlns="http://www.w3.org/2000/svg"
   xmlns:svg="http://www.w3.org/2000/svg"
   xmlns:rdf="http://www.w3.org/1999/02/22-rdf-syntax-ns#"
   xmlns:cc="http://creativecommons.org/ns#"
   xmlns:dc="http://purl.org/dc/elements/1.1/">
  <sodipodi:namedview
     pagecolor="#ffffff"
     bordercolor="#666666"
     borderopacity="1"
     objecttolerance="10"
     gridtolerance="10"
     guidetolerance="10"
     inkscape:pageopacity="0"
     inkscape:pageshadow="2"
     inkscape:window-width="1920"
     inkscape:window-height="994"
     id="namedview21"
     showgrid="true"
     inkscape:zoom="4.90625"
     inkscape:cx="-26.802548"
     inkscape:cy="16.917197"
     inkscape:window-x="0"
     inkscape:window-y="0"
     inkscape:window-maximized="1"
     inkscape:current-layer="layer1"
     inkscape:document-rotation="0"
     inkscape:pagecheckerboard="0"
     inkscape:showpageshadow="2"
     inkscape:deskcolor="#d1d1d1">
    <inkscape:grid
       type="xygrid"
       id="grid879" />
  </sodipodi:namedview>
  <defs
     id="defs5455">
    <linearGradient
       inkscape:collect="always"
       xlink:href="#linearGradient2303"
       id="linearGradient1419"
       x1="15.874687"
       y1="4.7327495"
       x2="1.3228906"
       y2="4.7327495"
       gradientUnits="userSpaceOnUse"
       gradientTransform="matrix(3.779602,0,0,3.8662747,384.57143,480.49989)" />
    <linearGradient
       inkscape:collect="always"
       id="linearGradient2303">
      <stop
         style="stop-color:#00ccff;stop-opacity:1"
         offset="0"
         id="stop2299" />
      <stop
         style="stop-color:#3771c8;stop-opacity:1"
         offset="1"
         id="stop2301" />
    </linearGradient>
    <clipPath
       clipPathUnits="userSpaceOnUse"
       id="clipPath79425-9-5-3">
      <rect
         style="opacity:0.5;fill:#000000;fill-opacity:1;stroke:none;stroke-width:0.855869;stroke-dasharray:none;stroke-opacity:1;paint-order:stroke fill markers"
         id="rect79427-1-9-6"
         width="26.417742"
         height="29.037542"
         x="-16.227774"
         y="-6.4845476" />
    </clipPath>
    <filter
       inkscape:collect="always"
       style="color-interpolation-filters:sRGB"
       id="filter77953-2-4-7"
       x="-0.040508607"
       y="-0.067265661"
       width="1.0810172"
       height="1.1345313">
      <feGaussianBlur
         inkscape:collect="always"
         stdDeviation="0.44602907"
         id="feGaussianBlur77955-7-9-5" />
    </filter>
    <clipPath
       clipPathUnits="userSpaceOnUse"
       id="clipPath79425-9-5-5">
      <rect
         style="opacity:0.5;fill:#000000;fill-opacity:1;stroke:none;stroke-width:0.855869;stroke-dasharray:none;stroke-opacity:1;paint-order:stroke fill markers"
         id="rect79427-1-9-62"
         width="26.417742"
         height="29.037542"
         x="-16.227774"
         y="-6.4845476" />
    </clipPath>
    <filter
       inkscape:collect="always"
       style="color-interpolation-filters:sRGB"
       id="filter77953-2-4-9"
       x="-0.040520865"
       y="-0.064907304"
       width="1.0810417"
       height="1.1298146">
      <feGaussianBlur
         inkscape:collect="always"
         stdDeviation="0.44602907"
         id="feGaussianBlur77955-7-9-1" />
    </filter>
    <linearGradient
       inkscape:collect="always"
       xlink:href="#linearGradient2303"
       id="linearGradient1662"
       gradientUnits="userSpaceOnUse"
       gradientTransform="matrix(3.7757185,0,0,3.9032702,384.57656,479.89311)"
       x1="1.3228925"
       y1="15.091164"
       x2="14.565405"
       y2="6.1243238" />
  </defs>
  <metadata
     id="metadata5458">
    <rdf:RDF>
      <cc:Work
         rdf:about="">
        <dc:format>image/svg+xml</dc:format>
        <dc:type
           rdf:resource="http://purl.org/dc/dcmitype/StillImage" />
      </cc:Work>
    </rdf:RDF>
  </metadata>
  <g
     inkscape:label="Capa 1"
     inkscape:groupmode="layer"
     id="layer1"
     transform="translate(-384.57143,-483.798)">
    <path
       id="path32082-9"
       style="fill:url(#linearGradient1419);fill-opacity:1;stroke:none;stroke-width:5.11694;stroke-linecap:round;stroke-linejoin:round;stroke-opacity:0.03"
       d="m 393.57143,493.798 c -4,0 -7,3.06879 -7,7.16052 v 5.11466 c 0,0 2,-5.11466 5,-5.11466 h 8 12 6 24 c 3,0 5,2.04586 5,5.11466 v 0 0 -5.11466 c 0,-4.09173 -3,-7.16052 -7,-7.16052 h -24.07114 -5.92886 -9 z"
       sodipodi:nodetypes="sccsccccccccccccs" />
    <rect
       x="410.57138"
       y="494.82092"
       width="12"
       height="2.0458624"
       ry="1.0248643"
       stroke-width="3.41941"
       style="fill:#222638;fill-opacity:1;paint-order:stroke markers fill"
       id="rect12-5-9-3-9" />
    <path
       d="m 418.30476,497.88973 h -3.46666 -4.33334 -16.93333 c -2,0 -3,1.02292 -3,3.06879 v 0 0 h 52 v 0 0 c 0,-2.04587 -1,-3.06879 -3,-3.06879 z"
       style="fill:#222638;fill-opacity:1;stroke-width:2.33915;paint-order:markers stroke fill"
       id="path8-7-2-9-6-1-7-5"
       sodipodi:nodetypes="cccccccccccc"
       opacity="0.6" />
    <path
       style="display:inline;fill:#ffffff;fill-opacity:1;stroke:none;stroke-width:2.77827;stroke-linecap:round;stroke-linejoin:round;stroke-opacity:0.03;filter:url(#filter77953-2-4-7)"
       d="m -14.025629,3.0793846 h 6.1660045 4.8447182 3.08300239 7.92771991 c 1.3212868,0 2.202145,0.9435823 2.202145,2.3589558 l -0.0082,11.1961006 c 0.0082,1.415373 -1.496833,2.225381 -2.6343739,2.232069 L -14.02563,18.993397 c -1.321286,0.0078 -2.202145,-0.943583 -2.202145,-2.358956 l 1e-6,-11.3229881 c -1e-6,-1.288486 0.882451,-2.2155179 2.202145,-2.2320683 z"
       id="path1611-1-8-0-7-3"
       clip-path="url(#clipPath79425-9-5-3)"
       transform="matrix(2.270514,0,0,2.1681872,423.41682,494.28184)"
       sodipodi:nodetypes="cccccccssccc" />
    <path
       style="display:inline;fill:#4f4f4f;fill-opacity:1;stroke:none;stroke-width:2.77827;stroke-linecap:round;stroke-linejoin:round;stroke-opacity:0.03;filter:url(#filter77953-2-4-9)"
       d="m -14.026297,2.5011118 6.1666725,0.1211316 H -3.014907 0.06809547 L 7.9884881,2.5011118 C 9.3097749,2.5157128 10.189967,3.444358 10.189967,4.874457 l -2.06e-4,11.759984 c 0.0082,1.415373 -0.872618,2.358956 -2.6343739,2.358956 H -14.02563 c -1.321306,0 -2.202145,-0.943583 -2.202145,-2.358956 V 4.874457 c 0,-1.4240071 0.880591,-2.3733452 2.201478,-2.3733452 z"
       id="path1611-1-8-0-7-2"
       clip-path="url(#clipPath79425-9-5-5)"
       transform="matrix(2.271201,0,0,2.155042,423.42797,495.56852)"
       sodipodi:nodetypes="cccccccssccc" />
    <path
       d="m 418.57143,500.95852 h -4 -5 -18 c -3,0 -4.99999,2.04587 -4.99999,5.11466 v 26.59622 c 0,3.06876 1.99999,5.11463 4.99999,5.11463 h 49.99999 c 3,0 5,-2.04587 5,-5.11463 v -26.59622 c 0,-3.06879 -2,-5.11466 -5,-5.11466 z"
       style="fill:url(#linearGradient1662);fill-opacity:1;stroke-width:3.83803;paint-order:markers stroke fill"
       id="path8-7-2-9-6-1-9"
       sodipodi:nodetypes="ccccsssssscc"
       opacity="0.6" />
    <path
       d="m 386.57143,518.748 17.1,19 h -10e-6 0.65001 l -17.75,-19.65 v 0 0 z"
       id="path2653-4"
       style="fill:#bac8df;fill-opacity:1;stroke-width:0.48092"
       sodipodi:nodetypes="cccccccc" />
    <path
       d="m 386.57143,524.79794 11.48548,12.98879 -1e-5,0.0113 0.64953,-0.006 v 0.006 l -12.12986,-13.65007 v 0 0 z"
       id="path2653-4-3"
       style="fill:#bac8df;fill-opacity:1;stroke-width:0.330034"
       sodipodi:nodetypes="ccccccccc" />
    <path
       d="m 437.57143,528.298 h -13.2 c -0.99184,0 -1.8,-0.80816 -1.8,-1.8 0,-0.0588 0.0122,-1.42776 1.10939,-2.77714 0.62939,-0.77633 1.48898,-1.38857 2.55428,-1.82694 1.28572,-0.52898 2.88,-0.79347 4.73878,-0.79347 1.85877,0 3.45061,0.26694 4.73877,0.79347 1.06531,0.43592 1.92245,1.05061 2.55429,1.82694 1.09225,1.34938 1.10449,2.71836 1.10449,2.77714 0,0.99184 -0.80816,1.8 -1.8,1.8 z m -13.8,-1.79755 c 0,0.33061 0.26939,0.59755 0.6,0.59755 h 13.2 c 0.33061,0 0.6,-0.26694 0.6,-0.59755 0,-0.0416 -0.0392,-1.0751 -0.88653,-2.08163 -1.16816,-1.38858 -3.35265,-2.12082 -6.31347,-2.12082 -2.96082,0 -5.14531,0.73469 -6.31347,2.12082 -0.84735,1.00898 -0.88653,2.04 -0.88653,2.08163 z"
       id="path4-4-4"
       style="fill:#d8f0f3;fill-opacity:1;stroke-width:0.0244898" />
    <path
       d="m 430.97143,519.898 c -2.64735,0 -4.8,-2.15265 -4.8,-4.8 0,-2.64735 2.15265,-4.8 4.8,-4.8 2.64735,0 4.8,2.15265 4.8,4.8 0,2.64735 -2.15265,4.8 -4.8,4.8 z m 0,-8.4 c -1.98367,0 -3.6,1.61633 -3.6,3.6 0,1.98367 1.61633,3.6 3.6,3.6 1.98367,0 3.6,-1.61633 3.6,-3.6 0,-1.98612 -1.61633,-3.6 -3.6,-3.6 z"
       id="path6-8-7"
       style="fill:#d8f0f3;fill-opacity:1;stroke-width:0.0244898" />
  </g>
</svg>
