<?xml version="1.0" encoding="UTF-8" standalone="no"?>
<svg
   width="64"
   version="1.1"
   height="64"
   id="svg17"
   sodipodi:docname="folder-sign.svg"
   inkscape:version="1.2.2 (b0a8486541, 2022-12-01)"
   xmlns:inkscape="http://www.inkscape.org/namespaces/inkscape"
   xmlns:sodipodi="http://sodipodi.sourceforge.net/DTD/sodipodi-0.dtd"
   xmlns:xlink="http://www.w3.org/1999/xlink"
   xmlns="http://www.w3.org/2000/svg"
   xmlns:svg="http://www.w3.org/2000/svg"
   xmlns:rdf="http://www.w3.org/1999/02/22-rdf-syntax-ns#"
   xmlns:cc="http://creativecommons.org/ns#"
   xmlns:dc="http://purl.org/dc/elements/1.1/">
  <sodipodi:namedview
     pagecolor="#ffffff"
     bordercolor="#666666"
     borderopacity="1"
     objecttolerance="10"
     gridtolerance="10"
     guidetolerance="10"
     inkscape:pageopacity="0"
     inkscape:pageshadow="2"
     inkscape:window-width="1920"
     inkscape:window-height="994"
     id="namedview19"
     showgrid="true"
     inkscape:zoom="3.4692426"
     inkscape:cx="-77.394415"
     inkscape:cy="53.32576"
     inkscape:window-x="0"
     inkscape:window-y="0"
     inkscape:window-maximized="1"
     inkscape:current-layer="layer1"
     inkscape:document-rotation="0"
     inkscape:showpageshadow="2"
     inkscape:pagecheckerboard="0"
     inkscape:deskcolor="#d1d1d1">
    <inkscape:grid
       type="xygrid"
       id="grid877" />
  </sodipodi:namedview>
  <defs
     id="defs5455">
    <linearGradient
       inkscape:collect="always"
       id="linearGradient38780">
      <stop
         style="stop-color:#b380ff;stop-opacity:1;"
         offset="0"
         id="stop38776" />
      <stop
         style="stop-color:#2ad4ff;stop-opacity:1"
         offset="0.51433659"
         id="stop38782" />
      <stop
         style="stop-color:#b380ff;stop-opacity:1"
         offset="1"
         id="stop38778" />
    </linearGradient>
    <linearGradient
       inkscape:collect="always"
       id="linearGradient38774">
      <stop
         style="stop-color:#00ccff;stop-opacity:1"
         offset="0"
         id="stop38770" />
      <stop
         style="stop-color:#b380ff;stop-opacity:1"
         offset="1"
         id="stop38772" />
    </linearGradient>
    <linearGradient
       inkscape:collect="always"
       xlink:href="#linearGradient38780"
       id="linearGradient1419"
       x1="0.52915627"
       y1="5.0269842"
       x2="16.403845"
       y2="5.0269842"
       gradientUnits="userSpaceOnUse"
       gradientTransform="matrix(3.779602,0,0,3.8662747,384.57143,480.49989)" />
    <clipPath
       clipPathUnits="userSpaceOnUse"
       id="clipPath79425-9-5-3">
      <rect
         style="opacity:0.5;fill:#000000;fill-opacity:1;stroke:none;stroke-width:0.855869;stroke-dasharray:none;stroke-opacity:1;paint-order:stroke fill markers"
         id="rect79427-1-9-6"
         width="26.417742"
         height="29.037542"
         x="-16.227774"
         y="-6.4845476" />
    </clipPath>
    <filter
       inkscape:collect="always"
       style="color-interpolation-filters:sRGB"
       id="filter77953-2-4-7"
       x="-0.040508607"
       y="-0.067265661"
       width="1.0810172"
       height="1.1345313">
      <feGaussianBlur
         inkscape:collect="always"
         stdDeviation="0.44602907"
         id="feGaussianBlur77955-7-9-5" />
    </filter>
    <clipPath
       clipPathUnits="userSpaceOnUse"
       id="clipPath79425-9-5-5">
      <rect
         style="opacity:0.5;fill:#000000;fill-opacity:1;stroke:none;stroke-width:0.855869;stroke-dasharray:none;stroke-opacity:1;paint-order:stroke fill markers"
         id="rect79427-1-9-62"
         width="26.417742"
         height="29.037542"
         x="-16.227774"
         y="-6.4845476" />
    </clipPath>
    <filter
       inkscape:collect="always"
       style="color-interpolation-filters:sRGB"
       id="filter77953-2-4-9"
       x="-0.040520865"
       y="-0.064907304"
       width="1.0810417"
       height="1.1298146">
      <feGaussianBlur
         inkscape:collect="always"
         stdDeviation="0.44602907"
         id="feGaussianBlur77955-7-9-1" />
    </filter>
    <linearGradient
       inkscape:collect="always"
       xlink:href="#linearGradient38774"
       id="linearGradient1662"
       gradientUnits="userSpaceOnUse"
       gradientTransform="matrix(3.7757185,0,0,3.9032702,384.57656,479.89311)"
       x1="9.3259869"
       y1="14.831515"
       x2="9.3259869"
       y2="4.269978" />
  </defs>
  <metadata
     id="metadata5458">
    <rdf:RDF>
      <cc:Work
         rdf:about="">
        <dc:format>image/svg+xml</dc:format>
        <dc:type
           rdf:resource="http://purl.org/dc/dcmitype/StillImage" />
      </cc:Work>
    </rdf:RDF>
  </metadata>
  <g
     inkscape:label="Capa 1"
     inkscape:groupmode="layer"
     id="layer1"
     transform="translate(-384.57143,-483.798)">
    <path
       id="path32082-9"
       style="fill:url(#linearGradient1419);fill-opacity:1;stroke:none;stroke-width:5.11694;stroke-linecap:round;stroke-linejoin:round;stroke-opacity:0.03"
       d="m 393.57143,493.798 c -4,0 -7,3.06879 -7,7.16052 v 5.11466 c 0,0 2,-5.11466 5,-5.11466 h 8 12 6 24 c 3,0 5,2.04586 5,5.11466 v 0 0 -5.11466 c 0,-4.09173 -3,-7.16052 -7,-7.16052 h -24.07114 -5.92886 -9 z"
       sodipodi:nodetypes="sccsccccccccccccs" />
    <rect
       x="410.57138"
       y="494.82092"
       width="12"
       height="2.0458624"
       ry="1.0248643"
       stroke-width="3.41941"
       style="fill:#222638;fill-opacity:1;paint-order:stroke markers fill"
       id="rect12-5-9-3-9" />
    <path
       d="m 418.30476,497.88973 h -3.46666 -4.33334 -16.93333 c -2,0 -3,1.02292 -3,3.06879 v 0 0 h 52 v 0 0 c 0,-2.04587 -1,-3.06879 -3,-3.06879 z"
       style="fill:#222638;fill-opacity:1;stroke-width:2.33915;paint-order:markers stroke fill"
       id="path8-7-2-9-6-1-7-5"
       sodipodi:nodetypes="cccccccccccc"
       opacity="0.6" />
    <path
       style="display:inline;fill:#ffffff;fill-opacity:1;stroke:none;stroke-width:2.77827;stroke-linecap:round;stroke-linejoin:round;stroke-opacity:0.03;filter:url(#filter77953-2-4-7)"
       d="m -14.025629,3.0793846 h 6.1660045 4.8447182 3.08300239 7.92771991 c 1.3212868,0 2.202145,0.9435823 2.202145,2.3589558 l -0.0082,11.1961006 c 0.0082,1.415373 -1.496833,2.225381 -2.6343739,2.232069 L -14.02563,18.993397 c -1.321286,0.0078 -2.202145,-0.943583 -2.202145,-2.358956 l 1e-6,-11.3229881 c -1e-6,-1.288486 0.882451,-2.2155179 2.202145,-2.2320683 z"
       id="path1611-1-8-0-7-3"
       clip-path="url(#clipPath79425-9-5-3)"
       transform="matrix(2.270514,0,0,2.1681872,423.41682,494.28184)"
       sodipodi:nodetypes="cccccccssccc" />
    <path
       style="display:inline;fill:#4f4f4f;fill-opacity:1;stroke:none;stroke-width:2.77827;stroke-linecap:round;stroke-linejoin:round;stroke-opacity:0.03;filter:url(#filter77953-2-4-9)"
       d="m -14.026297,2.5011118 6.1666725,0.1211316 H -3.014907 0.06809547 L 7.9884881,2.5011118 C 9.3097749,2.5157128 10.189967,3.444358 10.189967,4.874457 l -2.06e-4,11.759984 c 0.0082,1.415373 -0.872618,2.358956 -2.6343739,2.358956 H -14.02563 c -1.321306,0 -2.202145,-0.943583 -2.202145,-2.358956 V 4.874457 c 0,-1.4240071 0.880591,-2.3733452 2.201478,-2.3733452 z"
       id="path1611-1-8-0-7-2"
       clip-path="url(#clipPath79425-9-5-5)"
       transform="matrix(2.271201,0,0,2.155042,423.42797,495.56852)"
       sodipodi:nodetypes="cccccccssccc" />
    <path
       d="m 418.57143,500.95852 h -4 -5 -18 c -3,0 -4.99999,2.04587 -4.99999,5.11466 v 26.59622 c 0,3.06876 1.99999,5.11463 4.99999,5.11463 h 49.99999 c 3,0 5,-2.04587 5,-5.11463 v -26.59622 c 0,-3.06879 -2,-5.11466 -5,-5.11466 z"
       style="fill:url(#linearGradient1662);fill-opacity:1;stroke-width:3.83803;paint-order:markers stroke fill"
       id="path8-7-2-9-6-1-9"
       sodipodi:nodetypes="ccccsssssscc"
       opacity="0.6" />
    <path
       d="m 386.57143,518.748 17.1,19 h -10e-6 0.65001 l -17.75,-19.65 v 0 0 z"
       id="path2653-4"
       style="fill:#bac8df;fill-opacity:1;stroke-width:0.48092"
       sodipodi:nodetypes="cccccccc" />
    <path
       d="m 386.57143,524.79794 11.48548,12.98879 -1e-5,0.0113 0.64953,-0.006 v 0.006 l -12.12986,-13.65007 v 0 0 z"
       id="path2653-4-3"
       style="fill:#bac8df;fill-opacity:1;stroke-width:0.330034"
       sodipodi:nodetypes="ccccccccc" />
    <path
       style="color:#232629;fill:#d8f0f3;fill-opacity:1;stroke:none;stroke-width:0.62679"
       d="m 438.00837,510.29907 c -0.0881,-0.002 -0.17761,0.024 -0.26227,0.0761 -0.0459,0.0302 -0.24196,0.26636 -0.43516,0.5233 l -0.35183,0.47193 -0.12739,-0.0873 c -0.17844,-0.1174 -0.35055,-0.14332 -0.51116,-0.0706 -0.11097,0.0499 -0.37108,0.38482 -2.07759,2.64836 -1.07699,1.4269 -1.95271,2.6056 -1.95013,2.6238 0.003,0.0148 0.43938,0.35582 0.96832,0.752 l 0.96703,0.72501 1.27236,-1.69098 c 0.70023,-0.9302 1.28286,-1.6831 1.29682,-1.67266 0.0459,0.033 0.12772,0.76417 0.1115,0.99897 -0.01,0.1281 -0.0538,0.3583 -0.10421,0.5111 -0.0889,0.27304 -0.0981,0.28905 -1.67549,2.39154 -0.87243,1.16225 -1.59883,2.14955 -1.61181,2.18858 -0.0364,0.10754 0.007,0.30881 0.0862,0.42424 0.13648,0.19458 0.47399,0.25604 0.66554,0.11734 0.13236,-0.0962 3.25671,-4.29158 3.35608,-4.51035 0.29018,-0.62406 0.35029,-1.42311 0.16666,-2.20945 -0.0718,-0.31203 -0.16739,-0.612 -0.25987,-0.82522 -0.0281,-0.0572 0.017,-0.13276 0.31018,-0.52444 0.2761,-0.37397 0.33939,-0.47918 0.34439,-0.57586 0.0106,-0.20613 -0.0514,-0.32103 -0.25497,-0.47805 l -0.18873,-0.14689 0.3751,-0.50253 c 0.30737,-0.41554 0.37393,-0.52416 0.37871,-0.62107 0.0132,-0.30877 -0.22494,-0.53501 -0.48787,-0.53794 z m -6.3186,6.96915 c -0.0101,0.002 -1.15675,1.52231 -2.55191,3.37576 -2.24414,2.98468 -2.5632,3.42652 -2.7702,3.80613 -0.41106,0.7559 -0.85854,1.90847 -1.15575,2.96133 -0.19275,0.67537 -0.20234,0.61423 0.0668,0.47065 0.82826,-0.44617 1.91006,-1.17046 2.53957,-1.70314 0.61557,-0.52131 0.72036,-0.65392 3.3279,-4.11792 l 2.50783,-3.33534 -0.97446,-0.72997 c -0.53593,-0.40143 -0.97996,-0.7288 -0.98916,-0.72749 z m 0.28196,7.7248 c -0.12326,-0.01 -0.25006,-0.005 -0.33227,0.0125 v 0.002 c -0.38967,0.0824 -0.82361,0.41884 -1.03322,0.80692 -0.0556,0.10087 -0.14642,0.32918 -0.20225,0.50129 -0.0512,0.17527 -0.10167,0.32155 -0.10544,0.32522 -0.0301,0.0365 -0.77539,0.21592 -1.21347,0.29101 -1.02971,0.17968 -1.31099,0.24664 -1.41207,0.3399 -0.19831,0.18282 -0.0454,0.36694 0.23658,0.28492 0.074,-0.0236 0.39303,-0.0861 0.69993,-0.13817 0.30748,-0.0515 0.77518,-0.14964 1.04067,-0.20905 0.26614,-0.0641 0.49126,-0.10548 0.50254,-0.094 0.0104,0.0106 -0.0321,0.22396 -0.10416,0.47428 l -0.12758,0.44874 -0.2818,0.12346 c -0.15377,0.0681 -0.3742,0.18282 -0.49031,0.26166 -0.3521,0.23164 -0.42008,0.52261 -0.17279,0.70918 0.13487,0.10081 0.50933,0.097 0.7415,-0.006 0.20582,-0.0932 0.32164,-0.22375 0.483,-0.56366 0.0863,-0.17589 0.15375,-0.26865 0.20582,-0.27998 0.0422,-0.011 0.4133,-0.0865 0.82496,-0.17239 0.41229,-0.0824 0.78641,-0.16123 0.83474,-0.17233 0.078,-0.0181 0.0868,-0.0112 0.0646,0.0598 -0.0144,0.0454 -0.0835,0.17638 -0.15444,0.2922 -0.0707,0.11584 -0.12746,0.25355 -0.12746,0.30929 0,0.11579 0.098,0.23177 0.1765,0.20174 0.03,-0.0104 0.0703,-0.0229 0.0895,-0.0229 0.0181,0 0.10166,-0.06 0.18387,-0.13449 0.15374,-0.13833 0.52465,-0.8153 0.52465,-0.95737 0,-0.0704 0.0553,-0.0889 0.0893,-0.0319 0.0109,0.018 0.0964,0.0517 0.18999,0.0737 0.1312,0.033 0.16916,0.0587 0.16916,0.11862 0,0.11581 0.19152,0.28474 0.36037,0.31789 0.13116,0.0236 0.29974,-0.006 0.47925,-0.0778 0.0645,-0.0271 0.0683,-0.0181 0.046,0.0778 -0.0144,0.0601 -0.12413,0.25088 -0.24022,0.42676 -0.24724,0.36617 -0.54663,0.94884 -0.62513,1.20674 -0.0643,0.22037 -0.0367,0.38508 0.078,0.46344 0.1048,0.068 0.27677,0.0352 0.36651,-0.0618 0.0779,-0.0862 0.50617,-0.98566 0.6631,-1.39626 0.11233,-0.28796 0.16437,-0.36665 0.41919,-0.63586 0.20965,-0.2203 0.27806,-0.27279 0.23287,-0.18707 -0.0742,0.16097 -0.0708,0.28377 0.0104,0.35828 0.17579,0.16082 0.43053,0.006 0.65212,-0.39983 0.13117,-0.23908 0.22882,-0.30945 0.71583,-0.538 l 0.25369,-0.1161 -0.0264,0.1381 c -0.0142,0.0739 -0.10153,0.288 -0.19118,0.47077 -0.17632,0.36995 -0.20907,0.60534 -0.10417,0.80691 0.0704,0.13839 0.14564,0.14291 0.49025,0.0242 0.47943,-0.1608 1.10484,-0.53174 1.26739,-0.74453 0.22087,-0.29927 0.28872,-0.58646 0.15443,-0.68353 -0.13866,-0.10067 -0.21712,-0.0598 -0.39344,0.19807 -0.23602,0.35129 -0.52776,0.62461 -0.80898,0.76302 -0.13117,0.068 -0.24731,0.11144 -0.25864,0.10028 -0.0142,-0.0145 0.28424,-0.81834 0.44492,-1.19583 0.0331,-0.0777 0.062,-0.17567 0.062,-0.21638 0,-0.10461 -0.13154,-0.22372 -0.24385,-0.22372 -0.0517,0 -0.30065,0.10031 -0.54796,0.22738 -0.51333,0.25416 -0.47924,0.27657 -0.34808,-0.20174 0.078,-0.29491 0.0516,-0.37366 -0.12748,-0.39253 -0.17252,-0.0181 -0.2396,0.037 -0.39706,0.31789 -0.10112,0.19035 -0.23549,0.34776 -0.49403,0.58697 -0.34073,0.31359 -0.35605,0.32458 -0.43512,0.26891 -0.11988,-0.0862 -0.18747,-0.0737 -0.47927,0.071 -0.28493,0.1421 -0.3789,0.16091 -0.44983,0.074 -0.0602,-0.0708 0.0337,-0.10827 0.55522,-0.2091 0.50583,-0.097 0.56875,-0.12411 0.56875,-0.22863 0,-0.1684 -0.13884,-0.32818 -0.38616,-0.43649 -0.42731,-0.19026 -0.47482,-0.20222 -0.66182,-0.15406 -0.2021,0.0515 -0.50218,0.33997 -0.543,0.51967 -0.0422,0.1871 -0.16912,0.13072 -0.16912,-0.0741 0,-0.0862 -0.10527,-0.30237 -0.16553,-0.33988 -0.12737,-0.0862 -0.33279,0.10132 -0.49022,0.44507 l -0.12385,0.2653 -0.27696,0.0598 c -0.35962,0.0778 -1.40452,0.28726 -1.54326,0.31423 -0.0897,0.0144 -0.1046,0.01 -0.0862,-0.0459 0.0142,-0.0363 0.0593,-0.20085 0.10415,-0.36924 0.11604,-0.46324 0.15055,-0.52375 0.31866,-0.5832 0.20208,-0.0706 0.88458,-0.36288 1.06026,-0.45239 0.0826,-0.0421 0.25023,-0.16791 0.37388,-0.27998 0.37833,-0.35122 0.43773,-0.67669 0.16785,-0.91573 -0.0742,-0.0641 -0.17243,-0.13044 -0.21697,-0.14927 -0.0693,-0.0271 -0.18816,-0.0451 -0.31123,-0.0505 z m -0.37755,0.4365 c 0.0514,-0.005 0.11347,-0.002 0.19122,0.006 0.19831,0.0105 0.27752,0.0299 0.33329,0.089 0.0742,0.0738 0.074,0.0774 0.0101,0.22011 -0.0459,0.0897 -0.14954,0.19473 -0.28067,0.28487 -0.22842,0.15712 -0.94453,0.44441 -0.96706,0.39245 -0.0296,-0.0862 0.19938,-0.59828 0.34563,-0.76297 0.14592,-0.16523 0.21413,-0.21868 0.3702,-0.22736 z m -1.92322,3.12876 c 0.0293,0.003 0.0295,0.0278 0.008,0.0725 -0.0498,0.0932 -0.1767,0.16075 -0.24761,0.13443 -0.0826,-0.033 -0.06,-0.0773 0.0707,-0.14544 0.0867,-0.044 0.14303,-0.0652 0.17159,-0.0634 z"
       class="ColorScheme-Text"
       id="path14466-5-6" />
  </g>
</svg>
