<?xml version="1.0" encoding="UTF-8" standalone="no"?>
<svg
   width="64"
   version="1.1"
   height="64"
   id="svg15"
   sodipodi:docname="folder-database.svg"
   inkscape:version="1.2.2 (b0a8486541, 2022-12-01)"
   xmlns:inkscape="http://www.inkscape.org/namespaces/inkscape"
   xmlns:sodipodi="http://sodipodi.sourceforge.net/DTD/sodipodi-0.dtd"
   xmlns:xlink="http://www.w3.org/1999/xlink"
   xmlns="http://www.w3.org/2000/svg"
   xmlns:svg="http://www.w3.org/2000/svg"
   xmlns:rdf="http://www.w3.org/1999/02/22-rdf-syntax-ns#"
   xmlns:cc="http://creativecommons.org/ns#"
   xmlns:dc="http://purl.org/dc/elements/1.1/">
  <sodipodi:namedview
     pagecolor="#ffffff"
     bordercolor="#666666"
     borderopacity="1"
     objecttolerance="10"
     gridtolerance="10"
     guidetolerance="10"
     inkscape:pageopacity="0"
     inkscape:pageshadow="2"
     inkscape:window-width="1920"
     inkscape:window-height="994"
     id="namedview17"
     showgrid="true"
     inkscape:zoom="6.9384853"
     inkscape:cx="32.355765"
     inkscape:cy="39.634011"
     inkscape:window-x="0"
     inkscape:window-y="0"
     inkscape:window-maximized="1"
     inkscape:current-layer="layer1"
     inkscape:document-rotation="0"
     showguides="false"
     inkscape:showpageshadow="2"
     inkscape:pagecheckerboard="0"
     inkscape:deskcolor="#d1d1d1">
    <inkscape:grid
       type="xygrid"
       id="grid919" />
  </sodipodi:namedview>
  <defs
     id="defs5455">
    <linearGradient
       inkscape:collect="always"
       id="linearGradient12599">
      <stop
         style="stop-color:#00ccff;stop-opacity:1"
         offset="0"
         id="stop12595" />
      <stop
         style="stop-color:#8d5fd3;stop-opacity:1"
         offset="1"
         id="stop12597" />
    </linearGradient>
    <linearGradient
       inkscape:collect="always"
       xlink:href="#linearGradient12599"
       id="linearGradient1419"
       x1="0.52915627"
       y1="5.0269842"
       x2="16.403845"
       y2="5.0269842"
       gradientUnits="userSpaceOnUse"
       gradientTransform="matrix(3.779602,0,0,3.8662747,384.57143,480.49989)" />
    <clipPath
       clipPathUnits="userSpaceOnUse"
       id="clipPath79425-9-5-3">
      <rect
         style="opacity:0.5;fill:#000000;fill-opacity:1;stroke:none;stroke-width:0.855869;stroke-dasharray:none;stroke-opacity:1;paint-order:stroke fill markers"
         id="rect79427-1-9-6"
         width="26.417742"
         height="29.037542"
         x="-16.227774"
         y="-6.4845476" />
    </clipPath>
    <filter
       inkscape:collect="always"
       style="color-interpolation-filters:sRGB"
       id="filter77953-2-4-7"
       x="-0.040508607"
       y="-0.067265661"
       width="1.0810172"
       height="1.1345313">
      <feGaussianBlur
         inkscape:collect="always"
         stdDeviation="0.44602907"
         id="feGaussianBlur77955-7-9-5" />
    </filter>
    <clipPath
       clipPathUnits="userSpaceOnUse"
       id="clipPath79425-9-5-5">
      <rect
         style="opacity:0.5;fill:#000000;fill-opacity:1;stroke:none;stroke-width:0.855869;stroke-dasharray:none;stroke-opacity:1;paint-order:stroke fill markers"
         id="rect79427-1-9-62"
         width="26.417742"
         height="29.037542"
         x="-16.227774"
         y="-6.4845476" />
    </clipPath>
    <filter
       inkscape:collect="always"
       style="color-interpolation-filters:sRGB"
       id="filter77953-2-4-9"
       x="-0.040520865"
       y="-0.064907304"
       width="1.0810417"
       height="1.1298146">
      <feGaussianBlur
         inkscape:collect="always"
         stdDeviation="0.44602907"
         id="feGaussianBlur77955-7-9-1" />
    </filter>
    <linearGradient
       inkscape:collect="always"
       xlink:href="#linearGradient12599"
       id="linearGradient1662"
       gradientUnits="userSpaceOnUse"
       gradientTransform="matrix(3.7757185,0,0,3.9032702,384.57656,479.89311)"
       x1="10.592651"
       y1="14.68382"
       x2="1.3228925"
       y2="4.1592064" />
  </defs>
  <metadata
     id="metadata5458">
    <rdf:RDF>
      <cc:Work
         rdf:about="">
        <dc:format>image/svg+xml</dc:format>
        <dc:type
           rdf:resource="http://purl.org/dc/dcmitype/StillImage" />
      </cc:Work>
    </rdf:RDF>
  </metadata>
  <g
     inkscape:label="Capa 1"
     inkscape:groupmode="layer"
     id="layer1"
     transform="translate(-384.57143,-483.798)">
    <g
       transform="matrix(0.30872123,0,0,0.34545448,401.36492,176.76352)"
       id="g4" />
    <path
       id="path32082-9"
       style="fill:url(#linearGradient1419);fill-opacity:1.0;stroke:none;stroke-width:5.11694;stroke-linecap:round;stroke-linejoin:round;stroke-opacity:0.03"
       d="m 393.57143,493.798 c -4,0 -7,3.06879 -7,7.16052 v 5.11466 c 0,0 2,-5.11466 5,-5.11466 h 8 12 6 24 c 3,0 5,2.04586 5,5.11466 v 0 0 -5.11466 c 0,-4.09173 -3,-7.16052 -7,-7.16052 h -24.07114 -5.92886 -9 z"
       sodipodi:nodetypes="sccsccccccccccccs" />
    <rect
       x="410.57126"
       y="494.82095"
       width="12"
       height="2.0458624"
       ry="1.0248643"
       stroke-width="3.41941"
       style="fill:#222638;fill-opacity:1;paint-order:stroke markers fill"
       id="rect12-5-9-3-9" />
    <path
       d="m 418.30476,497.88973 h -3.46666 -4.33334 -16.93333 c -2,0 -3,1.02292 -3,3.06879 v 0 0 h 52 v 0 0 c 0,-2.04587 -1,-3.06879 -3,-3.06879 z"
       style="fill:#222638;fill-opacity:1;stroke-width:2.33915;paint-order:markers stroke fill"
       id="path8-7-2-9-6-1-7-5"
       sodipodi:nodetypes="cccccccccccc"
       opacity="0.6" />
    <path
       style="display:inline;fill:#ffffff;fill-opacity:1;stroke:none;stroke-width:2.77827;stroke-linecap:round;stroke-linejoin:round;stroke-opacity:0.03;filter:url(#filter77953-2-4-7)"
       d="m -14.025629,3.0793846 h 6.1660045 4.8447182 3.08300239 7.92771991 c 1.3212868,0 2.202145,0.9435823 2.202145,2.3589558 l -0.0082,11.1961006 c 0.0082,1.415373 -1.496833,2.225381 -2.6343739,2.232069 L -14.02563,18.993397 c -1.321286,0.0078 -2.202145,-0.943583 -2.202145,-2.358956 l 1e-6,-11.3229881 c -1e-6,-1.288486 0.882451,-2.2155179 2.202145,-2.2320683 z"
       id="path1611-1-8-0-7-3"
       clip-path="url(#clipPath79425-9-5-3)"
       transform="matrix(2.270514,0,0,2.1681872,423.41682,494.28184)"
       sodipodi:nodetypes="cccccccssccc" />
    <path
       style="display:inline;fill:#4f4f4f;fill-opacity:1;stroke:none;stroke-width:2.77827;stroke-linecap:round;stroke-linejoin:round;stroke-opacity:0.03;filter:url(#filter77953-2-4-9)"
       d="m -14.026297,2.5011118 6.1666725,0.1211316 H -3.014907 0.06809547 L 7.9884881,2.5011118 C 9.3097749,2.5157128 10.189967,3.444358 10.189967,4.874457 l -2.06e-4,11.759984 c 0.0082,1.415373 -0.872618,2.358956 -2.6343739,2.358956 H -14.02563 c -1.321306,0 -2.202145,-0.943583 -2.202145,-2.358956 V 4.874457 c 0,-1.4240071 0.880591,-2.3733452 2.201478,-2.3733452 z"
       id="path1611-1-8-0-7-2"
       clip-path="url(#clipPath79425-9-5-5)"
       transform="matrix(2.271201,0,0,2.155042,423.42797,495.56852)"
       sodipodi:nodetypes="cccccccssccc" />
    <path
       d="m 418.57143,500.95852 h -4 -5 -18 c -3,0 -4.99999,2.04587 -4.99999,5.11466 v 26.59622 c 0,3.06876 1.99999,5.11463 4.99999,5.11463 h 49.99999 c 3,0 5,-2.04587 5,-5.11463 v -26.59622 c 0,-3.06879 -2,-5.11466 -5,-5.11466 z"
       style="fill:url(#linearGradient1662);fill-opacity:1;stroke-width:3.83803;paint-order:markers stroke fill"
       id="path8-7-2-9-6-1-9"
       sodipodi:nodetypes="ccccsssssscc"
       opacity="0.6" />
    <path
       d="m 386.57143,518.748 17.1,19 h -10e-6 0.65001 l -17.75,-19.65 v 0 0 z"
       id="path2653-4"
       style="fill:#bac8df;fill-opacity:1;stroke-width:0.48092"
       sodipodi:nodetypes="cccccccc" />
    <path
       d="m 386.57143,524.79794 11.48548,12.98879 -1e-5,0.0113 0.64953,-0.006 v 0.006 l -12.12986,-13.65007 v 0 0 z"
       id="path2653-4-3"
       style="fill:#bac8df;fill-opacity:1;stroke-width:0.330034"
       sodipodi:nodetypes="ccccccccc" />
    <path
       fill-rule="evenodd"
       clip-rule="evenodd"
       d="m 440.00893,524.92327 c -0.31036,0 -0.56279,-0.25212 -0.56279,-0.56255 0,-0.31085 0.25243,-0.56302 0.56279,-0.56302 0.31064,0 0.5625,0.25217 0.5625,0.56302 0,0.31043 -0.25186,0.56255 -0.5625,0.56255 z m 0.54165,-4.20668 c -0.008,0.0608 -0.0175,0.12032 -0.0296,0.17899 -0.006,0.0283 -0.0141,0.0555 -0.0215,0.0832 -0.0125,0.0489 -0.0259,0.0982 -0.0415,0.14612 -0.007,0.0208 -0.0151,0.0421 -0.023,0.0627 -0.0203,0.0549 -0.0412,0.10933 -0.0646,0.16154 -0.007,0.0142 -0.0137,0.0285 -0.0203,0.0426 -0.0266,0.0544 -0.0544,0.1077 -0.0838,0.1593 -0.01,0.0165 -0.0192,0.0328 -0.0291,0.0488 -0.0332,0.0533 -0.0678,0.10606 -0.10489,0.15599 -0.006,0.008 -0.011,0.0154 -0.0173,0.0224 -0.0431,0.0571 -0.089,0.11206 -0.13795,0.16531 -0.002,0.002 -0.004,0.003 -0.005,0.006 -0.0522,0.056 -0.10662,0.11046 -0.16465,0.16096 -0.39607,0.34884 -0.91509,0.56249 -1.48507,0.56249 v 0.0283 c -0.0912,-0.0181 -0.18449,-0.0283 -0.2813,-0.0283 h -12.93711 c -0.77683,0 -1.4069,0.62948 -1.4069,1.40627 v 1.68694 c 0,0.77676 0.63007,1.40623 1.4069,1.40623 h 12.93721 c 0.66337,0 1.22993,-0.52784 1.54636,-0.93102 l 0.002,5.3e-4 c 0.1033,-0.11814 0.25213,-0.19394 0.42131,-0.19394 0.31075,0 0.5626,0.25156 0.5626,0.5625 0,0.58335 -1.00723,1.6875 -2.25,1.6875 h -13.50121 c -1.24262,0 -2.24977,-1.00741 -2.24977,-2.25 v -2.25063 c 0,-1.2425 1.00716,-2.24944 2.24977,-2.24944 h 0.84371 12.37526 c 0.77686,0 1.40599,-0.62949 1.40599,-1.40628 v -1.68761 c 0,-0.77677 -0.62913,-1.40625 -1.40599,-1.40625 h -12.37526 -0.84371 c -1.24262,0 -2.24977,-1.00772 -2.24977,-2.24975 v -2.25029 c 0,-1.24281 1.00716,-2.24975 2.24977,-2.24975 h 13.50023 c 1.24296,0 2.25,1.00694 2.25,2.24975 v 1.68776 c 0,0.31008 -0.25186,0.56253 -0.56239,0.56253 -0.31047,0 -0.56288,-0.25245 -0.56288,-0.56253 v -1.40614 c 0,-0.77679 -0.62913,-1.40683 -1.40599,-1.40683 h -12.93727 c -0.77685,0 -1.4069,0.63004 -1.4069,1.40683 v 1.68719 c 0,0.7768 0.63004,1.40599 1.4069,1.40599 h 12.93708 c 0.0965,0 0.19006,-0.01 0.28121,-0.0283 v 0.0283 c 0.57,0 1.08903,0.21375 1.48506,0.56282 0.058,0.0504 0.11243,0.10485 0.16463,0.16092 0.002,0.002 0.004,0.004 0.005,0.006 0.0486,0.053 0.0948,0.10792 0.13791,0.16532 0.006,0.007 0.0109,0.0154 0.0173,0.0229 0.0371,0.0502 0.0717,0.10275 0.10495,0.15569 0.01,0.0162 0.0197,0.0326 0.0291,0.0486 0.0294,0.0519 0.0579,0.10496 0.0838,0.15941 0.007,0.0136 0.0137,0.0277 0.0203,0.0426 0.0239,0.0524 0.0446,0.10688 0.0645,0.16181 0.008,0.0208 0.0162,0.0421 0.0228,0.0626 0.0157,0.0475 0.0283,0.0972 0.0415,0.14615 0.007,0.028 0.0157,0.0549 0.0215,0.0832 0.0121,0.0585 0.0226,0.11901 0.0296,0.17906 0.002,0.0168 0.005,0.032 0.007,0.0492 0.009,0.0801 0.0134,0.16178 0.0134,0.24415 v 2.24987 c 0,0.0818 -0.005,0.16369 -0.0134,0.24403 -8.3e-4,0.017 -0.005,0.0327 -0.007,0.0491 z m -17.41654,-2.54321 c 0.31025,0 0.56195,0.25161 0.56195,0.56248 v 1.12425 c 0,0.31101 -0.2517,0.56313 -0.56195,0.56313 -0.31089,0 -0.56261,-0.25212 -0.56261,-0.56313 v -1.12425 c 0,-0.31087 0.25172,-0.56248 0.56261,-0.56248 z"
       id="path2-5-6"
       style="fill:#d8f0f3;fill-opacity:1;stroke-width:0.0351562" />
  </g>
</svg>
