<?xml version="1.0" encoding="UTF-8" standalone="no"?>
<svg
   width="64"
   height="64"
   version="1.1"
   id="svg22"
   sodipodi:docname="net.davidotek.pupgui2.svg"
   inkscape:version="1.3.2 (091e20ef0f, 2023-11-25)"
   xmlns:inkscape="http://www.inkscape.org/namespaces/inkscape"
   xmlns:sodipodi="http://sodipodi.sourceforge.net/DTD/sodipodi-0.dtd"
   xmlns:xlink="http://www.w3.org/1999/xlink"
   xmlns="http://www.w3.org/2000/svg"
   xmlns:svg="http://www.w3.org/2000/svg"
   xmlns:rdf="http://www.w3.org/1999/02/22-rdf-syntax-ns#"
   xmlns:cc="http://creativecommons.org/ns#"
   xmlns:dc="http://purl.org/dc/elements/1.1/">
  <sodipodi:namedview
     pagecolor="#ffffff"
     bordercolor="#666666"
     borderopacity="1"
     objecttolerance="10"
     gridtolerance="10"
     guidetolerance="10"
     inkscape:pageopacity="0"
     inkscape:pageshadow="2"
     inkscape:window-width="1920"
     inkscape:window-height="994"
     id="namedview24"
     showgrid="true"
     inkscape:zoom="9.1813396"
     inkscape:cx="22.872479"
     inkscape:cy="32.402679"
     inkscape:window-x="0"
     inkscape:window-y="0"
     inkscape:window-maximized="1"
     inkscape:current-layer="svg22"
     inkscape:showpageshadow="2"
     inkscape:pagecheckerboard="0"
     inkscape:deskcolor="#d1d1d1">
    <inkscape:grid
       id="grid1"
       units="px"
       originx="0"
       originy="0"
       spacingx="1"
       spacingy="1"
       empcolor="#0099e5"
       empopacity="0.30196078"
       color="#0099e5"
       opacity="0.14901961"
       empspacing="5"
       dotted="false"
       gridanglex="30"
       gridanglez="30"
       visible="true" />
  </sodipodi:namedview>
  <metadata
     id="metadata2">
    <rdf:RDF>
      <cc:Work
         rdf:about="">
        <dc:format>image/svg+xml</dc:format>
        <dc:type
           rdf:resource="http://purl.org/dc/dcmitype/StillImage" />
      </cc:Work>
    </rdf:RDF>
  </metadata>
  <defs
     id="defs14">
    <linearGradient
       inkscape:collect="always"
       id="linearGradient1588">
      <stop
         style="stop-color:#292f3a;stop-opacity:1;"
         offset="0"
         id="stop1584" />
      <stop
         style="stop-color:#535e75;stop-opacity:1;"
         offset="1"
         id="stop1586" />
    </linearGradient>
    <filter
       id="filter2761"
       x="-.024"
       y="-.024"
       width="1.048"
       height="1.048"
       color-interpolation-filters="sRGB">
      <feGaussianBlur
         stdDeviation="0.14552168"
         id="feGaussianBlur4" />
    </filter>
    <linearGradient
       id="linearGradient4673"
       x1="1.2573"
       x2="15.644"
       y1="15.429"
       y2="1.1082"
       gradientTransform="matrix(3.7796,0,0,3.7796,-98.960821,0.53085)"
       gradientUnits="userSpaceOnUse">
      <stop
         stop-color="#16ff6c"
         offset="0"
         id="stop7" />
      <stop
         stop-color="#28ff61"
         offset=".47728"
         id="stop9" />
      <stop
         stop-color="#9fff1b"
         offset="1"
         id="stop11" />
    </linearGradient>
    <linearGradient
       id="linearGradient3764"
       x1="1"
       x2="47"
       gradientUnits="userSpaceOnUse"
       gradientTransform="rotate(-90,23.999998,24)">
      <stop
         style="stop-color:#43cd50;stop-opacity:1"
         id="stop2" />
      <stop
         offset="1"
         style="stop-color:#54d160;stop-opacity:1"
         id="stop4" />
    </linearGradient>
    <style
       type="text/css"
       id="style876" />
    <style
       type="text/css"
       id="style878" />
    <style
       type="text/css"
       id="style880" />
    <style
       type="text/css"
       id="style882" />
    <filter
       id="filter1057"
       x="-0.026999999"
       y="-0.026999999"
       width="1.054"
       height="1.054"
       color-interpolation-filters="sRGB">
      <feGaussianBlur
         stdDeviation="0.61875"
         id="feGaussianBlur884" />
    </filter>
    <linearGradient
       id="linearGradient1053"
       x1="-127"
       x2="-72"
       y1="60"
       y2="5"
       gradientTransform="translate(131.5,-0.51)"
       gradientUnits="userSpaceOnUse">
      <stop
         stop-color="#02db96"
         offset="0"
         id="stop887"
         style="stop-color:#14ff6e;stop-opacity:1" />
      <stop
         stop-color="#13d39b"
         offset="1"
         id="stop889"
         style="stop-color:#a0ff1e;stop-opacity:1" />
    </linearGradient>
    <style
       type="text/css"
       id="style892" />
    <style
       type="text/css"
       id="style894" />
    <style
       type="text/css"
       id="style896" />
    <linearGradient
       id="a-367"
       gradientUnits="userSpaceOnUse"
       x1="23"
       x2="37"
       y1="20"
       y2="34"
       gradientTransform="matrix(1.9622547,0,0,1.9622547,-116.93982,-48.178796)">
      <stop
         offset="0"
         stop-color="#292c2f"
         id="stop246" />
      <stop
         offset="1"
         stop-opacity="0"
         id="stop248" />
    </linearGradient>
    <linearGradient
       id="c-53"
       gradientTransform="matrix(2.0428665,-6.8308524,5.7819337,2.3633129,25.219113,34.652812)"
       gradientUnits="userSpaceOnUse"
       x1="24"
       x2="24"
       y1="35"
       y2="13">
      <stop
         offset="0"
         stop-color="#23a2cd"
         id="stop256" />
      <stop
         offset=".53"
         stop-color="#00b8f5"
         id="stop258" />
      <stop
         offset="1"
         stop-color="#2ecbff"
         id="stop260" />
    </linearGradient>
    <linearGradient
       inkscape:collect="always"
       xlink:href="#linearGradient1588"
       id="linearGradient1590"
       x1="26.980762"
       y1="61"
       x2="25.094219"
       y2="3"
       gradientUnits="userSpaceOnUse" />
    <linearGradient
       id="_lgradient_2-9"
       x1="0.071553186"
       y1="0.74391294"
       x2="0.99873358"
       y2="0.49568295"
       gradientTransform="matrix(40.000032,0,0,40.000032,11.999861,10.999936)"
       gradientUnits="userSpaceOnUse">
      <stop
         offset="0"
         stop-opacity="1"
         style="stop-color:#9581ff;stop-opacity:1;"
         id="stop6-0" />
      <stop
         offset="51.73913043478261%"
         stop-opacity="1"
         style="stop-color:rgb(32,189,255)"
         id="stop7-6" />
      <stop
         offset="98.26086956521739%"
         stop-opacity="1"
         style="stop-color:rgb(165,254,203)"
         id="stop8-8" />
    </linearGradient>
    <linearGradient
       inkscape:collect="always"
       xlink:href="#_lgradient_2"
       id="linearGradient15"
       x1="3.7444291"
       y1="7.2238593"
       x2="12.255571"
       y2="7.2238593"
       gradientUnits="userSpaceOnUse"
       gradientTransform="matrix(3.0769218,0,0,3.0769218,7.3845788,6.3846178)" />
    <linearGradient
       id="_lgradient_2"
       x1="0.071553186"
       y1="0.74391294"
       x2="0.99873358"
       y2="0.49568295"
       gradientTransform="matrix(28.000032,0,0,28.000032,70.373983,-56.169507)"
       gradientUnits="userSpaceOnUse">
      <stop
         offset="0"
         stop-opacity="1"
         style="stop-color:#9480ff;stop-opacity:1;"
         id="stop6" />
      <stop
         offset="51.73913043478261%"
         stop-opacity="1"
         style="stop-color:rgb(32,189,255)"
         id="stop7-7" />
      <stop
         offset="98.26086956521739%"
         stop-opacity="1"
         style="stop-color:rgb(165,254,203)"
         id="stop8" />
    </linearGradient>
  </defs>
  <circle
     cx="-1330.8"
     cy="-1261.2"
     r="0"
     fill="#5e4aa6"
     id="circle908" />
  <circle
     cx="-1336.4259"
     cy="-1272.89"
     r="0"
     id="circle910"
     style="fill:#5e4aa6" />
  <circle
     cx="-236.87599"
     cy="-7.4350004"
     r="0"
     fill-rule="evenodd"
     id="circle912"
     style="fill:#5e4aa6" />
  <circle
     cx="-1336.4259"
     cy="-1272.89"
     r="0"
     id="circle914"
     style="fill:#5e4aa6" />
  <circle
     cx="-236.87599"
     cy="-7.4350004"
     r="0"
     fill-rule="evenodd"
     id="circle916"
     style="fill:#5e4aa6" />
  <circle
     cx="-1238.626"
     cy="-1287.89"
     r="0"
     id="circle918"
     style="fill:#5e4aa6" />
  <circle
     cx="-139.05299"
     cy="-22.4156"
     r="0"
     fill-rule="evenodd"
     id="circle920"
     style="fill:#5e4aa6" />
  <g
     transform="matrix(3.7796,0,0,3.7796,80.134,-26.68)"
     stroke-width="0.26458"
     id="g950"
     style="fill:#5e4aa6">
    <g
       transform="translate(-0.0272,0.0065001)"
       id="g938">
      <circle
         cx="-330.35001"
         cy="-328.38"
         r="0"
         id="circle922" />
      <circle
         cx="-312.10999"
         cy="-326.25"
         r="0"
         id="circle924" />
      <circle
         cx="-306.01999"
         cy="-333.07001"
         r="0"
         id="circle926" />
      <circle
         cx="-308.84"
         cy="-326.01001"
         r="0"
         id="circle928" />
      <circle
         cx="-330.35001"
         cy="-328.38"
         r="0"
         id="circle930" />
      <circle
         cx="-312.10999"
         cy="-326.25"
         r="0"
         id="circle932" />
      <circle
         cx="-306.01999"
         cy="-333.07001"
         r="0"
         id="circle934" />
      <circle
         cx="-308.84"
         cy="-326.01001"
         r="0"
         id="circle936" />
    </g>
    <g
       transform="translate(-0.02705,0.0064503)"
       id="g948">
      <circle
         cx="-330.35001"
         cy="-328.38"
         r="0"
         id="circle940" />
      <circle
         cx="-312.10999"
         cy="-326.25"
         r="0"
         id="circle942" />
      <circle
         cx="-306.01999"
         cy="-333.07001"
         r="0"
         id="circle944" />
      <circle
         cx="-308.84"
         cy="-326.01001"
         r="0"
         id="circle946" />
    </g>
  </g>
  <path
     d="M 2.9999985,10.25 C 2.9999985,6.245825 6.2459365,3 10.25,3 h 43.500002 c 4.004174,0 7.25,3.245825 7.25,7.25 v 43.5 c 0,4.004173 -3.245827,7.25 -7.25,7.25 H 10.25 C 6.2459365,61 2.9999985,57.754173 2.9999985,53.75 Z"
     id="path736"
     style="fill:#606c86;fill-opacity:1;stroke-width:3.625" />
  <path
     d="M 2.9999985,9.796875 C 2.9999985,6.043188 6.2459365,3 10.25,3 h 43.500002 c 4.004174,0 7.25,3.043188 7.25,6.796875 v 40.781249 c 0,3.753693 -3.245827,6.796876 -7.25,6.796876 H 10.25 c -4.0040635,0 -7.2500015,-3.043183 -7.2500015,-6.796876 z"
     id="path738"
     style="fill:url(#linearGradient1590);fill-opacity:1;stroke-width:3.625" />
  <path
     d="m 40.238228,45.314963 v 0 c 0.832493,-0.475796 1.899188,-0.187602 2.380001,0.642515 v 0 c 0.480832,0.830001 0.194972,1.894993 -0.638348,2.374993 v 0 c -3.239162,1.865009 -6.93333,2.783354 -10.661654,2.655848 -3.380864,-0.115179 -6.679999,-1.089162 -9.587508,-2.824178 v 0 C 20.907355,47.6708 20.639868,46.6008 21.133199,45.777475 v 0 c 0.494162,-0.823343 1.563331,-1.09083 2.38752,-0.597489 v 0 c 2.395812,1.439172 5.117509,2.236671 7.915816,2.332485 3.085853,0.104968 6.130016,-0.652484 8.801693,-2.197508 z M 46.78988,23.629985 v 0 c -0.431643,-0.86 -0.08406,-1.90671 0.775844,-2.335866 v 0 c 0.86,-0.429182 1.904187,-0.08 2.331689,0.78 v 0 c 1.489998,2.974164 2.204167,6.279157 2.090823,9.607489 -0.0867,2.537538 -0.65,5.032523 -1.669173,7.347552 v 0 c -0.385025,0.88 -1.412507,1.281638 -2.292507,0.895801 v 0 C 47.146558,39.539987 46.744872,38.51244 47.13072,37.63244 v 0 c 0.848341,-1.911643 1.310001,-3.974974 1.380858,-6.069161 0.09432,-2.746636 -0.5,-5.472483 -1.721698,-7.933294 z M 24.84239,16.112423 v 0 c -0.864162,0.41252 -1.904161,0.04582 -2.32167,-0.818304 v 0 c -0.41671,-0.864141 -0.05431,-1.904996 0.809999,-2.321695 v 0 c 2.91,-1.397485 6.117508,-2.070818 9.350848,-1.960818 3.110821,0.105718 6.163307,0.932486 8.895849,2.426667 v 0 c 0.844159,0.46085 1.154975,1.520008 0.694161,2.364151 v 0 c -0.460856,0.843352 -1.52,1.154203 -2.364154,0.693352 v 0 c -2.255034,-1.234169 -4.772546,-1.920002 -7.344221,-2.008318 -2.66834,-0.09079 -5.314973,0.463337 -7.720812,1.624965 z m -8.517553,20.130018 v 0 c 0.305886,0.908356 -0.185716,1.894202 -1.096666,2.199167 v 0 c -0.910818,0.305038 -1.898303,-0.189076 -2.203338,-1.101622 v 0 c -0.749153,-2.261671 -1.094147,-4.64 -1.013304,-7.02167 0.107802,-3.145883 0.951669,-6.231681 2.481669,-8.990033 v 0 c 0.460812,-0.839157 1.517488,-1.142515 2.35919,-0.676677 v 0 c 0.841621,0.465858 1.146654,1.525028 0.680811,2.364164 v 0 c -1.260811,2.28 -1.956671,4.822515 -2.045845,7.420872 -0.0667,1.973344 0.214256,3.931672 0.837483,5.805799 z M 46.969879,18.363279 c -0.03334,0.959996 -0.838302,1.711658 -1.797488,1.679137 -0.959187,-0.03216 -1.711671,-0.838298 -1.679186,-1.797477 0.03238,-0.959166 0.838372,-1.71166 1.797515,-1.678312 0.959159,0.03226 1.711671,0.837493 1.679159,1.796652 z M 19.801563,42.469167 c -0.03216,0.959149 -0.837554,1.711632 -1.796721,1.679149 -0.960006,-0.0333 -1.711643,-0.83833 -1.679161,-1.797518 0.03218,-0.95919 0.838329,-1.711629 1.797517,-1.67919 0.95919,0.03221 1.711645,0.838379 1.678365,1.797559 z m 27.840829,0.949149 c 0.03238,-0.95914 -0.720001,-1.764187 -1.679186,-1.797518 -0.959168,-0.03216 -1.764144,0.72 -1.797484,1.679189 -0.03236,0.95918 0.720001,1.764975 1.679138,1.797488 0.959178,0.03222 1.76502,-0.719999 1.797532,-1.679159 z M 21.054009,17.479981 c 0.03218,-0.959188 -0.719166,-1.765039 -1.678329,-1.797557 -0.959999,-0.03222 -1.764994,0.719999 -1.797455,1.679184 -0.03331,0.959187 0.71913,1.76416 1.678305,1.797518 0.96,0.03216 1.765033,-0.720003 1.797479,-1.679145 z"
     fill-rule="evenodd"
     fill="url(#_lgradient_2)"
     id="path8-2"
     style="isolation:isolate;fill:url(#_lgradient_2-9);stroke-width:0.833334" />
  <path
     d="m 36.517759,34.61268 8.576235,2.956272 C 39.311627,29.01068 31.998411,19.073433 31.998411,19.073433 c 0,0 -7.309842,9.939119 -13.09253,18.495519 l 8.572899,-2.956272 4.521197,3.537666 z"
     id="path1"
     style="fill:url(#linearGradient15);fill-opacity:1;stroke-width:0.374127" />
</svg>
