<?xml version="1.0" encoding="UTF-8" standalone="no"?>
<svg
   viewBox="0 0 64 64"
   version="1.1"
   id="svg3796"
   sodipodi:docname="org.opensuse.opensuse_welcome.svg"
   width="64"
   height="64"
   inkscape:version="1.2.1 (9c6d41e410, 2022-07-14)"
   xmlns:inkscape="http://www.inkscape.org/namespaces/inkscape"
   xmlns:sodipodi="http://sodipodi.sourceforge.net/DTD/sodipodi-0.dtd"
   xmlns:xlink="http://www.w3.org/1999/xlink"
   xmlns="http://www.w3.org/2000/svg"
   xmlns:svg="http://www.w3.org/2000/svg">
  <sodipodi:namedview
     id="namedview3798"
     pagecolor="#ffffff"
     bordercolor="#666666"
     borderopacity="1.0"
     inkscape:showpageshadow="2"
     inkscape:pageopacity="0.0"
     inkscape:pagecheckerboard="0"
     inkscape:deskcolor="#d1d1d1"
     showgrid="true"
     inkscape:zoom="5.6568543"
     inkscape:cx="7.6897862"
     inkscape:cy="59.485358"
     inkscape:window-width="1920"
     inkscape:window-height="1002"
     inkscape:window-x="0"
     inkscape:window-y="0"
     inkscape:window-maximized="1"
     inkscape:current-layer="svg3796">
    <inkscape:grid
       type="xygrid"
       id="grid4372" />
  </sodipodi:namedview>
  <defs
     id="defs3778">
    <linearGradient
       id="lg0"
       x1="108"
       y1="106"
       x2="116"
       y2="106"
       gradientUnits="userSpaceOnUse"
       gradientTransform="matrix(0.5,0,0,0.5,-120.56875,4.3749999)">
      <stop
         offset="0"
         stop-color="#e8e7e4"
         id="stop3771" />
      <stop
         offset="0.5"
         stop-color="#ffffff"
         id="stop3773" />
      <stop
         offset="1"
         stop-color="#c2bfba"
         id="stop3775" />
    </linearGradient>
    <linearGradient
       inkscape:collect="always"
       xlink:href="#linearGradient22063-0"
       id="linearGradient22065-6"
       x1="-13.999999"
       y1="6"
       x2="-13.999999"
       y2="-9.999999"
       gradientUnits="userSpaceOnUse"
       gradientTransform="matrix(3.6250002,0,0,3.6250002,82.750001,39.249999)" />
    <linearGradient
       inkscape:collect="always"
       id="linearGradient22063-0">
      <stop
         style="stop-color:#a3be8c;stop-opacity:1;"
         offset="0"
         id="stop22059-6" />
      <stop
         style="stop-color:#8fbcbb;stop-opacity:1;"
         offset="1"
         id="stop22061-2" />
    </linearGradient>
    <linearGradient
       xlink:href="#linearGradient4167"
       id="linearGradient4161"
       x1="-44"
       y1="-24"
       x2="-4"
       y2="-24"
       gradientUnits="userSpaceOnUse"
       gradientTransform="translate(-7.193816,-7.93524)" />
    <linearGradient
       id="linearGradient4167">
      <stop
         style="stop-color:#009467;stop-opacity:1"
         offset="0"
         id="stop477" />
      <stop
         style="stop-color:#87d770;stop-opacity:1"
         offset="1"
         id="stop479" />
    </linearGradient>
    <linearGradient
       inkscape:collect="always"
       xlink:href="#lg0"
       id="linearGradient4339"
       gradientUnits="userSpaceOnUse"
       gradientTransform="matrix(0.5576921,0,0,0.52283632,-3.6922915,-3.174037)"
       x1="108"
       y1="106"
       x2="116"
       y2="106" />
  </defs>
  <path
     d="M 3,10.25 C 3,6.245825 6.24594,3 10.25,3 H 54 c 4.00417,0 7,2.995825 7,7 v 44 c 0,4.004173 -2.99583,7 -7,7 H 10 C 5.99594,61 3,58.004173 3,54 Z"
     id="path736-7"
     style="fill:#606c86;fill-opacity:1;stroke-width:3.625"
     sodipodi:nodetypes="sssssssss" />
  <path
     d="M 3,9.796875 C 3,6.043188 6.24594,3 10.25,3 h 43.5 C 57.75417,3 61,6.043188 61,9.796875 V 50.578124 C 61,54.331817 57.75417,57.375 53.75,57.375 H 10.25 C 6.24594,57.375 3,54.331817 3,50.578124 Z"
     id="path738-9"
     style="fill:url(#linearGradient22065-6);fill-opacity:1;stroke-width:3.625" />
  <path

     d="m 7.461552,21.922111 c -2.4716911,0 -4.4615371,1.865488 -4.4615382,4.182694 L 3,54 c 0,1 1.1,4 4.1,4 H 56.538457 C 59.010149,58 61,55.609508 61,53.292301 V 26.104805 c 0,-2.317206 -1.989851,-4.182694 -4.461543,-4.182694 z"
     id="path3780-8"
     style="fill:#19557b;fill-opacity:1;stroke-width:0.539991"
     sodipodi:nodetypes="ssccsssss" />
  <path
     fill="url(#lg0)"
     d="m 61,49.109605 c 0,2.317213 -1.989851,4.182696 -4.461543,4.182696 H 4.115399 C 4,55 5,57 7,57 H 56.538457 C 59.010149,57 61,54.563841 61,52.246628 Z"
     id="path3784-2"
     style="fill:url(#linearGradient4339);stroke-width:0.539991"
     sodipodi:nodetypes="csccssc" />
  <path
     fill="#73ba25"
     d="m 3,10 1.38e-5,42.246628 H 56.538457 C 59.010149,52.246628 61,50.381145 61,48.063921 V 10 C 61,6 58,3 54,3 H 9.8882884 C 6,3 3,6 3,10 Z"
     id="path3786-6"
     style="stroke-width:0.539991"
     sodipodi:nodetypes="ccsssscc" />
  <rect
     fill="#19557b"
     width="4.1153851"
     height="42.246635"
     x="3"
     y="10"
     id="rect3790-4"
     style="stroke-width:0.500652"
     ry="0" />
  <path
     fill="#5f991f"
     d="m 34.230772,10.942571 a 17.846046,16.730712 0 0 0 -14.049445,6.446004 c 2.17674,0.545211 3.717395,1.013762 4.178817,1.159106 0.0072,-0.265423 0.05422,-2.639162 0.05422,-2.639162 0,0 0.0051,-0.05434 0.03692,-0.08266 0.03988,-0.03654 0.09742,-0.02551 0.09742,-0.02551 0.57251,0.07764 12.792663,1.775897 17.943529,4.589863 0.636101,0.348879 0.950081,0.719795 1.342398,1.09584 1.423851,1.380568 3.305254,7.121108 3.507317,8.304877 0.0072,0.04648 -0.05338,0.09706 -0.07953,0.11616 h -5.73e-4 c -0.14628,0.107046 -0.305603,0.218294 -0.465137,0.317739 -1.218816,0.766619 -4.026659,2.609287 -7.629067,2.308444 -3.235881,-0.268355 -7.463502,-2.008517 -12.560068,-5.156698 0.5011,1.099901 0.994829,2.203221 1.488816,3.305929 0.738068,0.359391 7.861942,3.76259 11.37789,3.696105 2.831873,-0.05528 5.860607,-1.350233 7.072277,-2.033944 0,0 0.266258,-0.15038 0.382137,-0.0664 0.126756,0.09175 0.09172,0.232461 0.06169,0.376089 -0.07459,0.326083 -0.24425,0.921009 -0.359653,1.203399 l -0.09741,0.230179 c -0.138709,0.348389 -0.271837,0.672193 -0.528552,0.871602 -0.713779,0.608485 -1.853034,1.092607 -3.638147,1.819956 -2.75928,1.131555 -7.235962,1.851197 -11.392301,1.826427 -1.488646,-0.03118 -2.926863,-0.185925 -4.18975,-0.324221 -2.591736,-0.274321 -4.70052,-0.49687 -5.98638,0.375029 A 17.846046,16.730712 0 0 0 34.230894,44.404055 17.846046,16.730712 0 0 0 52.077016,27.673281 17.846046,16.730712 0 0 0 34.2309,10.942532 Z m 3.980524,9.707644 c -1.39683,-0.04181 -2.728796,0.420372 -3.749964,1.314177 -1.020695,0.890835 -1.604802,2.10535 -1.656542,3.414037 -0.09647,2.699741 2.164427,4.974546 5.041653,5.074008 1.403198,0.04415 2.732275,-0.418254 3.753446,-1.317394 1.018098,-0.888087 1.602214,-2.102641 1.656542,-3.411333 0.0988,-2.697334 -2.1648,-4.976936 -5.045135,-5.073495 z m -0.04382,1.443881 c 2.012953,0.0669 3.588931,1.652241 3.521162,3.538839 -0.03109,0.909823 -0.440479,1.753215 -1.151629,2.378665 -0.71219,0.62256 -1.643018,0.946289 -2.619685,0.918613 -2.008287,-0.06946 -3.584339,-1.656596 -3.516544,-3.543671 0.0294,-0.913234 0.447025,-1.756701 1.155089,-2.379255 0.708016,-0.622558 1.634404,-0.9462 2.611602,-0.913191 z m 0.596556,1.715632 c -0.894383,0 -1.616755,0.451251 -1.616755,1.012658 0,0.556101 0.722372,1.009949 1.616755,1.009949 0.893862,0 1.619074,-0.453878 1.619074,-1.009949 0,-0.561407 -0.724715,-1.012658 -1.619074,-1.012658 z"
     id="path3792-9"
     style="stroke-width:0.539991" />
  <path
     fill="#ffffff"
     d="m 34.230777,11.465462 a 17.846046,16.730712 0 0 0 -14.04943,6.445997 c 2.17673,0.54521 3.717385,1.013768 4.178807,1.159105 0.0072,-0.265414 0.05422,-2.639151 0.05422,-2.639151 0,0 0.0051,-0.05433 0.0369,-0.08266 0.03988,-0.03654 0.09742,-0.02551 0.09742,-0.02551 0.572504,0.07762 12.792659,1.775896 17.943514,4.589869 0.636103,0.348869 0.950085,0.719805 1.342412,1.095848 1.423837,1.380571 3.305238,7.121086 3.507314,8.304852 0.0072,0.0466 -0.05338,0.09708 -0.07951,0.116193 h -5.73e-4 c -0.146284,0.107012 -0.305587,0.218287 -0.465141,0.317712 -1.218809,0.766616 -4.026653,2.609303 -7.629065,2.308453 -3.235896,-0.268378 -7.463517,-2.008512 -12.560071,-5.156718 0.5011,1.099929 0.994829,2.203236 1.488803,3.305951 0.738069,0.359393 7.861944,3.76258 11.377893,3.696105 2.831881,-0.05529 5.860606,-1.350258 7.072272,-2.033943 0,0 0.266269,-0.150398 0.382142,-0.06643 0.126753,0.09183 0.09172,0.232454 0.06169,0.376099 -0.07457,0.326082 -0.244252,0.920988 -0.359672,1.203398 l -0.09742,0.230184 c -0.138698,0.348384 -0.271829,0.672188 -0.528542,0.871607 -0.713792,0.608478 -1.853053,1.092578 -3.638163,1.819948 -2.759276,1.131577 -7.235964,1.851202 -11.392308,1.826447 -1.488643,-0.03115 -2.926864,-0.18591 -4.18975,-0.324212 -2.591743,-0.27424 -4.700519,-0.496794 -5.986367,0.37508 A 17.846046,16.730712 0 0 0 34.230728,44.926922 17.846046,16.730712 0 0 0 52.076834,28.196175 17.846046,16.730712 0 0 0 34.230722,11.465399 Z m 3.980542,9.707654 c -1.396843,-0.04182 -2.728803,0.420366 -3.749977,1.314164 -1.020689,0.89084 -1.604795,2.105354 -1.656531,3.414036 -0.09648,2.699754 2.164416,4.97455 5.041653,5.074012 1.403193,0.04412 2.732262,-0.418263 3.753445,-1.317401 1.018097,-0.888073 1.602204,-2.102647 1.656532,-3.411332 0.0988,-2.697333 -2.164792,-4.97693 -5.045122,-5.073479 z m -0.04382,1.443854 c 2.012945,0.0669 3.588942,1.652266 3.521153,3.538861 -0.03112,0.909812 -0.440474,1.753207 -1.151616,2.378661 -0.712201,0.622556 -1.643014,0.946285 -2.619687,0.918628 -2.008278,-0.06952 -3.584327,-1.656608 -3.516539,-3.543698 0.02951,-0.913219 0.447017,-1.756688 1.155082,-2.379243 0.708031,-0.622561 1.634419,-0.946201 2.611607,-0.913209 z m 0.596557,1.715662 c -0.894388,0 -1.616761,0.451225 -1.616761,1.012637 0,0.556111 0.722373,1.009947 1.616761,1.009947 0.893873,0 1.619079,-0.45386 1.619079,-1.009947 0,-0.561412 -0.724711,-1.012637 -1.619079,-1.012637 z"
     id="path3794-5"
     style="stroke-width:0.539991" />
</svg>
