<?xml version="1.0" encoding="UTF-8" standalone="no"?>
<svg
   height="64"
   width="64"
   version="1.1"
   id="svg35"
   sodipodi:docname="plasmavault.svg"
   inkscape:version="1.2.1 (9c6d41e410, 2022-07-14)"
   xmlns:inkscape="http://www.inkscape.org/namespaces/inkscape"
   xmlns:sodipodi="http://sodipodi.sourceforge.net/DTD/sodipodi-0.dtd"
   xmlns:xlink="http://www.w3.org/1999/xlink"
   xmlns="http://www.w3.org/2000/svg"
   xmlns:svg="http://www.w3.org/2000/svg">
  <sodipodi:namedview
     id="namedview37"
     pagecolor="#ffffff"
     bordercolor="#666666"
     borderopacity="1.0"
     inkscape:showpageshadow="2"
     inkscape:pageopacity="0.0"
     inkscape:pagecheckerboard="0"
     inkscape:deskcolor="#d1d1d1"
     showgrid="true"
     inkscape:zoom="8"
     inkscape:cx="33.75"
     inkscape:cy="34.9375"
     inkscape:window-width="1920"
     inkscape:window-height="1002"
     inkscape:window-x="0"
     inkscape:window-y="0"
     inkscape:window-maximized="1"
     inkscape:current-layer="svg35">
    <inkscape:grid
       type="xygrid"
       id="grid266" />
  </sodipodi:namedview>
  <defs
     id="defs13">
    <linearGradient
       id="a">
      <stop
         stop-color="#3e3e3e"
         id="stop2" />
      <stop
         offset="1"
         stop-color="#494949"
         id="stop4" />
    </linearGradient>
    <linearGradient
       id="c"
       y1="527.014"
       x1="406.501"
       y2="539.825"
       x2="419.974"
       gradientUnits="userSpaceOnUse"
       gradientTransform="matrix(1.38646,0,0,1.4397843,-541.118,-717.79359)">
      <stop
         stop-color="#292c2f"
         id="stop7" />
      <stop
         offset="1"
         stop-opacity="0"
         id="stop9" />
    </linearGradient>
    <linearGradient
       xlink:href="#a"
       id="b"
       gradientUnits="userSpaceOnUse"
       x1="61"
       y1="58"
       x2="60.838"
       y2="7.043"
       gradientTransform="matrix(1,0,0,1.0384607,-60,-1.2307443)" />
  </defs>
  <path
     d="M 11.45,5.0000202 A 7.433,7.7188785 0 0 0 4,12.736553 v 36.434394 a 7.433,7.7188785 0 0 0 7.45,7.736535 h 3.921 a 7.52,7.8092251 0 0 0 1.326,0.126695 H 52.551 A 7.433,7.7188785 0 0 0 60,49.298684 V 16.890393 A 7.433,7.7188785 0 0 0 52.55,9.153864 H 32 L 28,5.0000202 H 15.393 Z"
     fill="#2d2d2d"
     id="path15"
     style="stroke-width:1.01907" />
  <path
     d="m 26,15.384629 -4,2.076921 -2,1.038459 -0.016,0.002 H 9.426 a 5.456,5.6658418 0 0 0 -5.043,3.464345 c -0.257,0.631401 -0.377,1.3334 -0.397,2.05825 L 3.982,25.144065 6.449,23.212527 11.14,19.53845 H 22 L 22.89,18.614243 23,18.500009 Z"
     fill-opacity="0.235"
     id="path17"
     style="stroke-width:1.01907" />
  <path
     d="m 3.986,21.556199 v 0.391499 c 0.005,-0.160957 0.073,-0.299073 0.088,-0.457956 -0.023,0.02079 -0.062,0.0426 -0.088,0.06648 z"
     id="path19"
     style="stroke-width:1.01907" />
  <path
     d="m 56.072,10.192323 c -0.22,-0.124616 -0.384,-0.330228 -0.617,-0.432 A 7.457,7.7438019 0 0 0 52.551,9.153864 H 32 l -4,-4.1538438 3,5.1923028 h 2 z"
     fill="#ffffff"
     fill-opacity="0.235"
     fill-rule="evenodd"
     id="path21"
     style="stroke-width:1.01907" />
  <path
     d="m 26,15.384629 -4,4.15384 H 10.45 A 7.432,7.7178405 0 0 0 3.585,24.258273 7.457,7.7438019 0 0 0 3,27.273964 v 23.990522 a 7.433,7.7188785 0 0 0 7.45,7.735494 h 43.1 A 7.433,7.7188785 0 0 0 61,51.263446 V 23.121158 a 7.433,7.7188785 0 0 0 -7.45,-7.736529 z"
     fill="url(#b)"
     fill-rule="evenodd"
     id="path23"
     style="fill:url(#b);stroke-width:1.01907" />
  <path
     d="m 26,15.384629 -4,4.15384 h 4 z m 0,4.15384 v 4.153844 h 4 v -4.153844 z m 4,0 h 4 v -4.15384 h -4 z m 4,0 v 4.153844 h 4 v -4.153844 z m 4,0 h 4 v -4.15384 h -4 z m 4,0 v 4.153844 h 4 v -4.153844 z m 4,0 h 4 v -4.15384 h -4 z m 4,0 v 4.153844 h 4 v -4.153844 z m 4,0 h 4 V 17.072128 C 57.505,16.67959 57.037,16.245511 56.455,15.991091 55.701,15.660859 54.858,15.534163 54,15.478091 Z m 4,0 v 4.153844 h 3 v -0.571155 a 7.457,7.7438019 0 0 0 -0.584,-3.01673 c -0.087,-0.21288 -0.263,-0.36346 -0.367,-0.565959 z m 0,4.153844 h -4 v 4.153842 h 4 z m -4,4.153842 H 50 V 32 h 4 z M 54,32 v 4.153845 h 4 V 32 Z m 0,4.153845 h -4 v 4.153844 h 4 z m -4,0 V 32 h -4 v 4.153845 z M 46,32 V 27.846155 H 42 V 32 Z m -4,-4.153845 v -4.153842 h -4 v 4.153842 z m -4,0 H 34 V 32 h 4 z m -4,0 v -4.153842 h -4 v 4.153842 z m 12,0 h 4 V 23.692313 H 46 Z M 26,23.692313 h -4 v 4.153842 h 4 z m -4,4.153842 H 18 V 32 h 4 z M 22,32 v 4.153845 h 4 V 32 Z m 0,4.153845 h -4 v 4.153844 h 4 z m -4,0 V 32 h -4 v 4.153845 z M 14,32 V 27.846155 H 10 V 32 Z M 10,27.846155 V 23.692313 H 6 v 4.153842 z M 6,23.692313 v -2.466346 c -0.263,0.208732 -0.589,0.331275 -0.822,0.574274 -0.518,0.537917 -0.88,1.213957 -1.227,1.892072 z m 4,0 h 4 v -4.153844 h -4 v 0.09348 z m 4,0 v 4.153842 h 4 v -4.153842 z m 4,0 h 4 v -4.153844 h -4 z"
     opacity="0.6"
     fill="#5f5f5f"
     id="path25"
     style="stroke-width:1.01907" />
  <path
     d="m 20.384,50.762906 7.29,7.570383 H 53.085 L 60.835,48.137684 36,23.692313 39.742,42.587111 Z"
     opacity="0.4"
     fill="url(#c)"
     fill-rule="evenodd"
     id="path27"
     style="fill:url(#c);stroke-width:1.01907" />
  <path
     d="m 32,22.518854 c -4.772,0 -8,3.492343 -8,8.577687 l 2,0.0644 c 0,-3.655378 2.984,-6.430148 6,-6.430148 3.016,0 6,2.77581 6,6.430148 v 4.99292 H 20 V 50.692297 H 44 V 36.153846 h -4 v -4.992925 c 0,-4.825723 -3.228,-8.642066 -8,-8.642067 z"
     fill="#d1d8d8"
     id="path29"
     style="stroke-width:1.01907" />
  <path
     d="m 26,15.384629 -4,4.15384 H 10.45 a 7.457,7.7438019 0 0 0 -2.905,0.606459 c -0.233,0.101783 -0.398,0.307387 -0.617,0.432 H 23 Z"
     fill="#ffffff"
     fill-opacity="0.235"
     fill-rule="evenodd"
     id="path31"
     style="stroke-width:1.01907" />
  <path
     d="m 4.637,55.905364 c 0.197,0.265855 0.312,0.596078 0.54,0.832854 a 7.432,7.7178405 0 0 0 5.273,2.261762 h 43.102 a 7.432,7.7178405 0 0 0 5.271,-2.261762 c 0.229,-0.236776 0.344,-0.566999 0.541,-0.832854 z"
     fill-opacity="0.235"
     id="path33"
     style="stroke-width:1.01907" />
</svg>
