<?xml version="1.0" encoding="UTF-8" standalone="no"?>
<svg
   width="64"
   height="64"
   version="1.1"
   id="svg23117"
   sodipodi:docname="financial-account.svg"
   inkscape:version="1.2.2 (b0a8486541, 2022-12-01)"
   xmlns:inkscape="http://www.inkscape.org/namespaces/inkscape"
   xmlns:sodipodi="http://sodipodi.sourceforge.net/DTD/sodipodi-0.dtd"
   xmlns:xlink="http://www.w3.org/1999/xlink"
   xmlns="http://www.w3.org/2000/svg"
   xmlns:svg="http://www.w3.org/2000/svg">
  <sodipodi:namedview
     id="namedview23119"
     pagecolor="#ffffff"
     bordercolor="#666666"
     borderopacity="1.0"
     inkscape:showpageshadow="2"
     inkscape:pageopacity="0.0"
     inkscape:pagecheckerboard="0"
     inkscape:deskcolor="#d1d1d1"
     showgrid="false"
     inkscape:zoom="4.9166667"
     inkscape:cx="-12.711864"
     inkscape:cy="24.508474"
     inkscape:window-width="1920"
     inkscape:window-height="996"
     inkscape:window-x="0"
     inkscape:window-y="0"
     inkscape:window-maximized="1"
     inkscape:current-layer="svg23117" />
  <defs
     id="defs23105">
    <linearGradient
       id="a"
       y1="547.63397"
       y2="499.67899"
       x2="388.86499"
       gradientUnits="userSpaceOnUse"
       gradientTransform="translate(-453.04388,-539.81483)"
       x1="428.81601">
      <stop
         stop-color="#2a2c2f"
         id="stop23090" />
      <stop
         offset="1"
         stop-color="#536161"
         id="stop23092" />
    </linearGradient>
    <linearGradient
       id="b"
       y1="44"
       y2="12"
       x2="14"
       gradientUnits="userSpaceOnUse"
       x1="36"
       gradientTransform="translate(-68.473879,-40.014831)">
      <stop
         stop-color="#536161"
         style="stop-color:#bfc9c9;stop-opacity:1"
         id="stop23095" />
      <stop
         offset="1"
         stop-color="#f4f5f5"
         style="stop-color:#fbfbfb;stop-opacity:1"
         id="stop23097" />
    </linearGradient>
    <linearGradient
       id="c"
       y1="527.01398"
       x1="406.50101"
       y2="539.82501"
       x2="419.974"
       gradientUnits="userSpaceOnUse"
       gradientTransform="translate(-453.04388,-539.81483)">
      <stop
         stop-color="#292c2f"
         id="stop23100" />
      <stop
         offset="1"
         stop-opacity="0"
         id="stop23102" />
    </linearGradient>
    <linearGradient
       inkscape:collect="always"
       xlink:href="#linearGradient22063"
       id="linearGradient22065"
       x1="-14"
       y1="6"
       x2="-14"
       y2="-9.999999"
       gradientUnits="userSpaceOnUse"
       gradientTransform="matrix(3.6250002,0,0,3.6250002,82.750005,39.249999)" />
    <linearGradient
       inkscape:collect="always"
       id="linearGradient22063">
      <stop
         style="stop-color:#4c566a;stop-opacity:1;"
         offset="0"
         id="stop22059" />
      <stop
         style="stop-color:#65738e;stop-opacity:1;"
         offset="1"
         id="stop22061" />
    </linearGradient>
    <linearGradient
       id="b-5"
       gradientUnits="userSpaceOnUse"
       x1="9.0000095"
       x2="23.00001"
       y1="8.9999704"
       y2="22.999969"
       gradientTransform="matrix(2.3911358,0,0,2.3911358,-7.2885786,-7.7189066)">
      <stop
         offset="0"
         stop-color="#292c2f"
         id="stop7" />
      <stop
         offset="1"
         stop-opacity="0"
         id="stop9-6" />
    </linearGradient>
    <linearGradient
       id="c-2"
       gradientUnits="userSpaceOnUse"
       x2="0"
       y1="18"
       y2="7"
       gradientTransform="matrix(2.3911358,0,0,2.3911358,-7.2885786,-7.7189066)">
      <stop
         offset="0"
         stop-color="#197cf1"
         id="stop12" />
      <stop
         offset="1"
         stop-color="#20bcfa"
         id="stop14" />
    </linearGradient>
    <linearGradient
       id="b-3"
       gradientUnits="userSpaceOnUse"
       x1="30"
       x2="30"
       y1="4"
       y2="44">
      <stop
         offset="0"
         stop-color="#fcfcfc"
         id="stop206" />
      <stop
         offset="1"
         stop-color="#cacaca"
         id="stop208" />
    </linearGradient>
    <linearGradient
       id="g"
       gradientUnits="userSpaceOnUse"
       x1="16"
       x2="16"
       xlink:href="#a-6"
       y1="43"
       y2="4" />
    <linearGradient
       id="a-6">
      <stop
         offset="0"
         stop-opacity=".102"
         id="stop201" />
      <stop
         offset="1"
         stop-opacity=".03"
         id="stop203" />
    </linearGradient>
    <linearGradient
       id="h"
       gradientUnits="userSpaceOnUse"
       x1="43"
       x2="43"
       xlink:href="#a-6"
       y1="43"
       y2="4" />
    <linearGradient
       id="i"
       gradientUnits="userSpaceOnUse"
       x1="34"
       x2="48"
       y1="25"
       y2="44"
       gradientTransform="translate(7.936,7.7288131)">
      <stop
         offset="0"
         id="stop233" />
      <stop
         offset="1"
         stop-opacity="0"
         id="stop235" />
    </linearGradient>
    <linearGradient
       id="e"
       gradientUnits="userSpaceOnUse"
       x1="18"
       x2="36"
       y1="24"
       y2="44">
      <stop
         offset="0"
         stop-color="#3daee9"
         id="stop221" />
      <stop
         offset="1"
         stop-color="#2a7aaf"
         id="stop223" />
    </linearGradient>
    <linearGradient
       id="f"
       gradientUnits="userSpaceOnUse"
       x1="19"
       x2="20"
       y1="42"
       y2="48">
      <stop
         offset="0"
         stop-color="#318bba"
         id="stop226" />
      <stop
         offset="1"
         stop-color="#115c92"
         id="stop228" />
    </linearGradient>
    <linearGradient
       id="d"
       gradientUnits="userSpaceOnUse"
       x1="20"
       x2="20"
       y1="26"
       y2="30">
      <stop
         offset="0"
         stop-color="#194d6f"
         id="stop216" />
      <stop
         offset="1"
         stop-color="#0c3d61"
         id="stop218" />
    </linearGradient>
    <linearGradient
       id="c-7"
       gradientUnits="userSpaceOnUse"
       x1="9"
       x2="9"
       y1="32"
       y2="36">
      <stop
         offset="0"
         stop-color="#fcfcfc"
         stop-opacity=".8"
         id="stop211" />
      <stop
         offset="1"
         stop-color="#fcfcfc"
         stop-opacity=".45"
         id="stop213" />
    </linearGradient>
  </defs>
  <path
     d="M 3,10.25 C 3,6.245825 6.245938,3 10.25,3 h 43.500005 c 4.00417,0 7.25,3.245825 7.25,7.25 v 43.5 c 0,4.004173 -3.24583,7.25 -7.25,7.25 H 10.25 C 6.245938,61 3,57.754173 3,53.75 Z"
     id="path736"
     style="fill:#606c86;fill-opacity:1;stroke-width:3.625" />
  <path
     d="M 3,9.796875 C 3,6.043188 6.245938,3 10.25,3 h 43.500005 c 4.00417,0 7.25,3.043188 7.25,6.796875 v 40.781249 c 0,3.753693 -3.24583,6.796876 -7.25,6.796876 H 10.25 C 6.245938,57.375 3,54.331817 3,50.578124 Z"
     id="path738"
     style="fill:url(#linearGradient22065);fill-opacity:1;stroke-width:3.625" />
  <g
     stroke-linejoin="round"
     id="g252"
     transform="translate(7.936,7.7288131)">
    <path
       d="M 16,4 H 44 V 44 H 16 Z"
       id="path238"
       style="fill:url(#b-3)" />
    <path
       d="m 16,43 h 28 v 1 H 16 Z"
       fill="#979797"
       id="path240" />
    <path
       d="m 19,10 v 1 h 14 v -1 z m 0,3 v 1 h 12 v -1 z m 0,3 v 1 h 13 v -1 z"
       fill="#4d4d4d"
       id="path242" />
    <path
       d="m 36,10 v 1 h 5 v -1 z m 0,6 v 1 h 5 v -1 z"
       fill="#da4453"
       id="path244" />
    <path
       d="m 36,13 h 5 v 1 h -5 z"
       fill="#27ae60"
       id="path246" />
    <path
       d="m 16,4 h 1 v 39 h -1 z"
       fill="url(#g)"
       id="path248"
       style="fill:url(#g)" />
    <path
       d="m 43,4 h 1 v 39 h -1 z"
       fill="url(#h)"
       id="path250"
       style="fill:url(#h)" />
  </g>
  <path
     d="m 43.346,32.318813 8.59,8.58 v 10.83 h -10 v -20 z"
     opacity="0.1"
     id="path254"
     style="fill:url(#i)" />
  <g
     stroke-linejoin="round"
     id="g266"
     transform="translate(7.936,7.7288131)">
    <path
       d="M 6,24 C 4.892,24 4,24.892 4,26 V 37.115234 C 4.5990986,37.397652 4.9997293,38.152747 5,39 4.9997293,39.847253 4.5990986,40.602348 4,40.884766 V 42 c 0,1.108 0.892,2 2,2 h 28 c 1.108,0 2,-0.892 2,-2 V 26 c 0,-1.108 -0.892,-2 -2,-2 z"
       id="path256"
       style="fill:url(#e)" />
    <path
       d="m 4,41 v 1 c 0,1.108 0.892,2 2,2 h 28 c 1.108,0 2,-0.892 2,-2 v -1 c 0,1.108 -0.892,2 -2,2 H 6 C 4.892,43 4,42.108 4,41 Z"
       fill="url(#f)"
       id="path258"
       style="fill:url(#f)" />
    <path
       d="m 4,26 h 32 v 4 H 4 Z"
       id="path260"
       style="fill:url(#d)" />
    <path
       d="M 6.5,32 C 6.223,32 6,32.223 6,32.5 v 3 C 6,35.777 6.223,36 6.5,36 h 5 c 0.277,0 0.5,-0.223 0.5,-0.5 v -3 C 12,32.223 11.777,32 11.5,32 Z"
       stroke-width="0.999999"
       id="path262"
       style="fill:url(#c-7)" />
    <path
       d="m 11,39 v 1 h 4 v -1 z m 5,0 v 1 h 4 v -1 z m 5,0 v 1 h 4 v -1 z m 5,0 v 1 h 4 v -1 z"
       fill="#1f5b83"
       id="path264" />
  </g>
</svg>
