<?xml version="1.0" encoding="UTF-8" standalone="no"?>
<svg
   width="64"
   height="64"
   version="1.1"
   id="svg5623"
   sodipodi:docname="abricotine.svg"
   inkscape:version="1.4 (e7c3feb100, 2024-10-09)"
   xmlns:inkscape="http://www.inkscape.org/namespaces/inkscape"
   xmlns:sodipodi="http://sodipodi.sourceforge.net/DTD/sodipodi-0.dtd"
   xmlns:xlink="http://www.w3.org/1999/xlink"
   xmlns="http://www.w3.org/2000/svg"
   xmlns:svg="http://www.w3.org/2000/svg">
  <sodipodi:namedview
     id="namedview5625"
     pagecolor="#ffffff"
     bordercolor="#666666"
     borderopacity="1.0"
     inkscape:showpageshadow="2"
     inkscape:pageopacity="0.0"
     inkscape:pagecheckerboard="0"
     inkscape:deskcolor="#d1d1d1"
     showgrid="false"
     inkscape:zoom="9.8333334"
     inkscape:cx="30.915254"
     inkscape:cy="33.355932"
     inkscape:window-width="1920"
     inkscape:window-height="998"
     inkscape:window-x="0"
     inkscape:window-y="0"
     inkscape:window-maximized="1"
     inkscape:current-layer="svg5623" />
  <defs
     id="defs5611">
    <linearGradient
       id="a"
       y1="40"
       x1="43"
       y2="4"
       x2="13"
       gradientUnits="userSpaceOnUse"
       gradientTransform="translate(96.426145,-47.468069)">
      <stop
         stop-color="#f27935"
         id="stop5601" />
      <stop
         offset="1"
         stop-color="#f2784b"
         id="stop5603" />
    </linearGradient>
    <linearGradient
       id="b"
       y1="27.129999"
       x1="24.129999"
       y2="41"
       x2="38"
       gradientUnits="userSpaceOnUse"
       gradientTransform="translate(96.426145,-47.468069)">
      <stop
         stop-color="#292c2f"
         id="stop5606" />
      <stop
         offset="1"
         stop-opacity="0"
         id="stop5608" />
    </linearGradient>
    <linearGradient
       inkscape:collect="always"
       xlink:href="#linearGradient22063-0"
       id="linearGradient22065-6"
       x1="-22"
       y1="5.1111121"
       x2="-10.13424"
       y2="-6.0327387"
       gradientUnits="userSpaceOnUse"
       gradientTransform="matrix(3.6250002,0,0,3.6250002,82.750001,39.249999)" />
    <linearGradient
       inkscape:collect="always"
       id="linearGradient22063-0">
      <stop
         style="stop-color:#d35f5f;stop-opacity:1;"
         offset="0"
         id="stop22059-6" />
      <stop
         style="stop-color:#d38d5f;stop-opacity:1;"
         offset="1"
         id="stop22061-2" />
    </linearGradient>
  </defs>
  <path
     d="m 2.9999985,10.25 c 0,-4.004175 3.245938,-7.25 7.2500005,-7.25 h 43.500003 c 4.004173,0 7.25,3.245825 7.25,7.25 v 43.5 c 0,4.004173 -3.245827,7.25 -7.25,7.25 H 10.249999 C 6.2459365,61 2.9999985,57.754173 2.9999985,53.75 Z"
     id="path736-7"
     style="fill:#606c86;fill-opacity:1;stroke-width:3.625" />
  <path
     d="M 2.9999985,9.7968747 C 2.9999985,6.043188 6.2459365,3 10.249999,3 h 43.500003 c 4.004173,0 7.25,3.043188 7.25,6.7968747 V 50.578124 c 0,3.753693 -3.245827,6.796876 -7.25,6.796876 H 10.249999 c -4.0040625,0 -7.2500005,-3.043183 -7.2500005,-6.796876 z"
     id="path738-9"
     style="fill:url(#linearGradient22065-6);fill-opacity:1;stroke-width:3.625" />
  <g
     id="g1"
     transform="translate(-0.51257975,-3.276578)">
    <path
       style="fill:#ffffff;stroke-width:2.73523"
       d="m 37.760665,15.943259 5.610691,-2.666681 v 37.33333 l -5.610691,2.66667 z"
       id="path4" />
    <path
       style="opacity:0.2;stroke-width:2.73523"
       d="M 46.525957,20.657898 51.76073,23.943259 17.747351,42.609897 12.51258,39.324579 Z"
       id="path5" />
    <path
       style="fill:#ffffff;stroke-width:2.73523"
       d="m 46.525957,19.324578 5.234773,3.28532 -34.013379,18.66668 -5.234771,-3.285319 z"
       id="path6" />
    <path
       style="opacity:0.2;stroke-width:2.73523"
       d="m 52.51258,44.657899 -0.375931,5.952009 -34.013381,-18.666649 0.375935,-5.952 z"
       id="path7" />
    <path
       style="fill:#ffffff;stroke-width:2.73523"
       d="m 52.51258,43.324579 -0.375931,5.952003 -34.013381,-18.666683 0.375935,-5.952 z"
       id="path8" />
  </g>
</svg>
