<?xml version="1.0" encoding="UTF-8" standalone="no"?>
<svg
   width="64"
   height="64"
   version="1.1"
   id="svg7426"
   sodipodi:docname="almond.svg"
   inkscape:version="1.3.2 (091e20ef0f, 2023-11-25)"
   xmlns:inkscape="http://www.inkscape.org/namespaces/inkscape"
   xmlns:sodipodi="http://sodipodi.sourceforge.net/DTD/sodipodi-0.dtd"
   xmlns:xlink="http://www.w3.org/1999/xlink"
   xmlns="http://www.w3.org/2000/svg"
   xmlns:svg="http://www.w3.org/2000/svg">
  <sodipodi:namedview
     id="namedview7428"
     pagecolor="#ffffff"
     bordercolor="#666666"
     borderopacity="1.0"
     inkscape:showpageshadow="2"
     inkscape:pageopacity="0.0"
     inkscape:pagecheckerboard="0"
     inkscape:deskcolor="#d1d1d1"
     showgrid="false"
     inkscape:zoom="6.9532167"
     inkscape:cx="26.462572"
     inkscape:cy="15.244743"
     inkscape:window-width="1920"
     inkscape:window-height="994"
     inkscape:window-x="0"
     inkscape:window-y="0"
     inkscape:window-maximized="1"
     inkscape:current-layer="svg7426">
    <inkscape:grid
       id="grid1"
       units="px"
       originx="0"
       originy="0"
       spacingx="1"
       spacingy="1"
       empcolor="#0099e5"
       empopacity="0.30196078"
       color="#0099e5"
       opacity="0.14901961"
       empspacing="5"
       dotted="false"
       gridanglex="30"
       gridanglez="30"
       visible="false" />
  </sodipodi:namedview>
  <defs
     id="defs7410">
    <linearGradient
       id="linearGradient10050">
      <stop
         style="stop-color:#a3be8c;stop-opacity:1;"
         offset="0"
         id="stop10046" />
      <stop
         style="stop-color:#739755;stop-opacity:1;"
         offset="1"
         id="stop10048" />
    </linearGradient>
    <linearGradient
       id="linearGradient4154">
      <stop
         offset="0"
         style="stop-color:#000000;stop-opacity:1"
         id="stop7390" />
      <stop
         offset="1"
         style="stop-color:#000000;stop-opacity:0"
         id="stop7392" />
    </linearGradient>
    <linearGradient
       id="linearGradient4192">
      <stop
         style="stop-color:#272b2d;stop-opacity:1"
         offset="0"
         id="stop7395" />
      <stop
         style="stop-color:#33393e;stop-opacity:1"
         offset="1"
         id="stop7397" />
    </linearGradient>
    <linearGradient
       id="linearGradient4140">
      <stop
         style="stop-color:#279646;stop-opacity:1"
         offset="0"
         id="stop7400" />
      <stop
         style="stop-color:#76ff68;stop-opacity:1"
         offset="1"
         id="stop7402" />
    </linearGradient>
    <linearGradient
       xlink:href="#linearGradient4140"
       id="linearGradient4146"
       x1="24.705"
       y1="43.938999"
       x2="25.061001"
       y2="4.4050002"
       gradientUnits="userSpaceOnUse"
       gradientTransform="translate(107.1821,-36.883996)" />
    <linearGradient
       xlink:href="#linearGradient4192"
       id="linearGradient4166"
       x1="31"
       y1="34"
       x2="31"
       y2="24"
       gradientUnits="userSpaceOnUse"
       gradientTransform="translate(107.1821,-36.883996)" />
    <linearGradient
       xlink:href="#linearGradient4192"
       id="linearGradient4168"
       x1="18"
       y1="34"
       x2="18"
       y2="24"
       gradientUnits="userSpaceOnUse"
       gradientTransform="translate(107.1821,-36.883996)" />
    <linearGradient
       xlink:href="#linearGradient4154"
       id="linearGradient4182"
       x1="13"
       y1="24"
       x2="30"
       y2="41"
       gradientUnits="userSpaceOnUse"
       gradientTransform="translate(107.1821,-36.883996)" />
    <linearGradient
       xlink:href="#linearGradient4154"
       id="linearGradient4190"
       x1="29"
       y1="26"
       x2="36"
       y2="33"
       gradientUnits="userSpaceOnUse"
       gradientTransform="translate(107.1821,-36.883996)" />
    <linearGradient
       inkscape:collect="always"
       xlink:href="#linearGradient22063-0"
       id="linearGradient22065-6"
       x1="-22"
       y1="5.1111121"
       x2="-6.4444442"
       y2="-9.1111107"
       gradientUnits="userSpaceOnUse"
       gradientTransform="matrix(3.6250002,0,0,3.6250002,82.750001,39.249999)" />
    <linearGradient
       inkscape:collect="always"
       id="linearGradient22063-0">
      <stop
         style="stop-color:#489eb7;stop-opacity:1;"
         offset="0"
         id="stop22059-6" />
      <stop
         style="stop-color:#446588;stop-opacity:1;"
         offset="1"
         id="stop22061-2" />
    </linearGradient>
    <linearGradient
       xlink:href="#a-7"
       id="d-36"
       x1="26.176001"
       x2="42.175999"
       y1="32.806"
       y2="32.806"
       gradientUnits="userSpaceOnUse"
       gradientTransform="translate(-10.175993,-8.8059983)" />
    <linearGradient
       id="a-7">
      <stop
         offset="0"
         stop-color="#dda641"
         id="stop2-5"
         style="stop-color:#d29626;stop-opacity:1;" />
      <stop
         offset="1"
         stop-color="#ffdf5e"
         id="stop4-3" />
    </linearGradient>
  </defs>
  <path
     d="m 2.9999985,10.25 c 0,-4.004175 3.245938,-7.25 7.2500005,-7.25 h 43.500003 c 4.004173,0 7.25,3.245825 7.25,7.25 v 43.5 c 0,4.004173 -3.245827,7.25 -7.25,7.25 H 10.249999 C 6.2459365,61 2.9999985,57.754173 2.9999985,53.75 Z"
     id="path736-7"
     style="fill:#606c86;fill-opacity:1;stroke-width:3.625" />
  <path
     d="M 2.9999985,9.796875 C 2.9999985,6.043188 6.2459365,3 10.249999,3 h 43.500003 c 4.004173,0 7.25,3.043188 7.25,6.796875 v 40.781249 c 0,3.753693 -3.245827,6.796876 -7.25,6.796876 H 10.249999 c -4.0040625,0 -7.2500005,-3.043183 -7.2500005,-6.796876 z"
     id="path738-9"
     style="fill:url(#linearGradient22065-6);fill-opacity:1;stroke-width:3.625" />
  <g
     id="g2"
     transform="matrix(1.4444444,0,0,1.4285714,-2.6666707,-2.2871407)">
    <path
       d="m 33.000004,29.000985 c 0,6.000016 -4.000003,9.000014 -8.999987,9.000014 -5.000012,0 -9.000014,-2.999998 -9.000014,-9.000014 0,-6.999993 4.828016,-18.999986 9.000014,-18.999986 4.172,0 8.999987,11.999993 8.999987,18.999986 z"
       style="stroke-width:0.999987;paint-order:normal;fill:#b26b2b;fill-opacity:1"
       id="path24" />
    <path
       d="m 24.000017,11.000009 c -3.531024,0 -8.000018,10.999993 -8.000018,17.999993 0,4.999998 3.172004,7.999989 8.000018,7.999989 1.613976,0 3.036982,-0.341009 4.224976,-0.974978 1.570008,-2.384012 2.775024,-5.08401 2.775024,-8.025028 0.573993,1.303015 0.297969,3.514004 -0.309018,5.799024 0.843004,-1.271006 1.309002,-2.888007 1.309002,-4.799006 0,-7 -4.468997,-17.999994 -7.999984,-17.999994 z m -1.500011,1.999994 c 0,0 -0.500002,3.432994 -0.500002,5.000012 0,2.027986 0.999998,4.999989 0.999998,5.999982 0,1.484 -1.500001,3.999987 -1.500001,3.999987 0,0 0.500003,-1.765982 0.500003,-3.999987 0,-0.999993 -0.999997,-3.609996 -0.999997,-5.999982 0,-1.700018 1.499999,-5.000012 1.499999,-5.000012 z m 3.499999,0 c 0,0 2.999996,4.284994 2.999996,8.999999 0,1.999995 -0.358001,3.592999 -0.999996,4.999999 v -4.999999 c 0,-3.625011 -1.000016,-6.000002 -2,-8.999999 z m -7,5.999997 v 3.000002 c 0,1.999995 -0.293003,3.777011 -1.000005,5.999982 V 23.999997 C 18,22.300003 19.000005,19 19.000005,19 Z"
       style="fill:url(#d-36);stroke-width:0.999987;paint-order:normal"
       id="path26" />
    <path
       fill="#403b3c"
       d="M 19.499999,29.999998 C 18.672001,29.999998 18,30.894994 18,32.000008 c 0.543989,-1.000011 1.085002,-1.000011 1.499999,-1.000011 0.415008,0 0.926007,0 1.500008,1.000011 0,-1.105014 -0.672,-2.00001 -1.500008,-2.00001 z m 8.000018,0 c -0.828012,0 -1.500012,0.894996 -1.500012,2.00001 0.543999,-1.000011 1.084999,-1.000011 1.500012,-1.000011 0.414981,0 0.925982,0 1.499984,1.000011 0,-1.105014 -0.672001,-2.00001 -1.499984,-2.00001 z m -5.000011,2.999997 a 0.49999995,0.49999995 0 0 0 -0.500002,0.500001 c 0,0.831012 0.668998,1.499988 1.49999,1.499988 0.83101,0 1.500007,-0.668976 1.500007,-1.499988 a 0.49999995,0.49999995 0 0 0 -0.499994,-0.500001 0.49999995,0.49999995 0 0 0 -0.49999,0.500001 0.50000757,0.50000757 0 1 1 -1.000015,0 0.49999995,0.49999995 0 0 0 -0.499996,-0.500001 z"
       style="stroke-width:0.999987;paint-order:normal"
       id="path28" />
  </g>
</svg>
