<?xml version="1.0" encoding="UTF-8" standalone="no"?>
<svg
   height="64"
   width="64"
   version="1.1"
   id="svg10"
   sodipodi:docname="apifox.svg"
   inkscape:version="1.4 (unknown)"
   xmlns:inkscape="http://www.inkscape.org/namespaces/inkscape"
   xmlns:sodipodi="http://sodipodi.sourceforge.net/DTD/sodipodi-0.dtd"
   xmlns:xlink="http://www.w3.org/1999/xlink"
   xmlns="http://www.w3.org/2000/svg"
   xmlns:svg="http://www.w3.org/2000/svg"
   xmlns:rdf="http://www.w3.org/1999/02/22-rdf-syntax-ns#"
   xmlns:cc="http://creativecommons.org/ns#"
   xmlns:dc="http://purl.org/dc/elements/1.1/">
  <metadata
     id="metadata16">
    <rdf:RDF>
      <cc:Work
         rdf:about="">
        <dc:format>image/svg+xml</dc:format>
        <dc:type
           rdf:resource="http://purl.org/dc/dcmitype/StillImage" />
      </cc:Work>
    </rdf:RDF>
  </metadata>
  <defs
     id="defs14">
    <linearGradient
       id="c"
       x1="31.458"
       x2="31.458"
       y1="51.726002"
       y2="62.897999"
       gradientTransform="matrix(0.36079,0,0,0.36079,-2.8832,-9.4399)"
       gradientUnits="userSpaceOnUse">
      <stop
         stop-color="#1776ff"
         offset="0"
         id="stop292" />
      <stop
         stop-color="#2fceff"
         offset="1"
         id="stop294" />
    </linearGradient>
    <linearGradient
       id="d"
       x1="31.458"
       x2="31.458"
       y1="36.897999"
       y2="59.897999"
       gradientTransform="matrix(0.36079,0,0,0.36079,-2.8832,-9.4399)"
       gradientUnits="userSpaceOnUse">
      <stop
         stop-color="#ff5514"
         offset="0"
         id="stop297" />
      <stop
         stop-color="#ff9014"
         offset="1"
         id="stop299" />
    </linearGradient>
    <linearGradient
       id="a"
       x1="31.458"
       x2="31.458"
       y1="46.897999"
       y2="56.897999"
       gradientTransform="matrix(0.36079,0,0,0.36079,-2.8832,-9.4399)"
       gradientUnits="userSpaceOnUse">
      <stop
         stop-color="#c0e5fb"
         offset="0"
         id="stop302" />
      <stop
         stop-color="#c3faff"
         offset="1"
         id="stop304" />
    </linearGradient>
    <linearGradient
       gradientTransform="matrix(1.0394952,0,0,1.0394363,-448.49881,-520.66414)"
       gradientUnits="userSpaceOnUse"
       x2="426.69501"
       y2="499.92099"
       y1="547.67499"
       id="a-6"
       x1="389.32001">
      <stop
         stop-color="#18222a"
         style="stop-color:#436077;stop-opacity:1;"
         id="stop216"
         offset="0" />
      <stop
         stop-color="#566069"
         offset="1"
         style="stop-color:#6d7983;stop-opacity:1"
         id="stop218" />
    </linearGradient>
    <linearGradient
       id="e"
       x1="8.4461002"
       x2="24.603001"
       y1="6.2688999"
       y2="24.570999"
       gradientUnits="userSpaceOnUse"
       gradientTransform="translate(0.254427,-38.49298)">
      <stop
         stop-opacity=".2088"
         offset="0"
         id="stop4" />
      <stop
         stop-opacity="0"
         offset="1"
         id="stop6" />
    </linearGradient>
    <linearGradient
       id="d-3"
       x1="7.8488002"
       x2="14.108"
       y1="3.5121"
       y2="14.183"
       gradientUnits="userSpaceOnUse"
       gradientTransform="translate(0.254427,-38.49298)">
      <stop
         stop-opacity=".2088"
         offset="0"
         id="stop14" />
      <stop
         stop-opacity="0"
         offset="1"
         id="stop16" />
    </linearGradient>
    <linearGradient
       id="c-6"
       x1="31.458"
       x2="31.458"
       y1="51.726002"
       y2="62.897999"
       gradientTransform="matrix(0.36079,0,0,0.36079,-2.8832,-9.4399)"
       gradientUnits="userSpaceOnUse">
      <stop
         stop-color="#1776ff"
         offset="0"
         id="stop292-7"
         style="stop-color:#55ddff;stop-opacity:1" />
      <stop
         stop-color="#2fceff"
         offset="1"
         id="stop294-5"
         style="stop-color:#00ccff;stop-opacity:1" />
    </linearGradient>
    <linearGradient
       id="d-35"
       x1="31.458"
       x2="31.458"
       y1="36.897999"
       y2="59.897999"
       gradientTransform="matrix(0.36079,0,0,0.36079,-2.8832,-9.4399)"
       gradientUnits="userSpaceOnUse">
      <stop
         stop-color="#ff5514"
         offset="0"
         id="stop297-6"
         style="stop-color:#ffccaa;stop-opacity:1" />
      <stop
         stop-color="#ff9014"
         offset="1"
         id="stop299-2"
         style="stop-color:#ff9955;stop-opacity:1" />
    </linearGradient>
    <linearGradient
       id="a-9"
       x1="31.458"
       x2="31.458"
       y1="46.897999"
       y2="56.897999"
       gradientTransform="matrix(0.36079,0,0,0.36079,-2.8832,-9.4399)"
       gradientUnits="userSpaceOnUse">
      <stop
         stop-color="#c0e5fb"
         offset="0"
         id="stop302-1"
         style="stop-color:#e3d7f4;stop-opacity:1" />
      <stop
         stop-color="#c3faff"
         offset="1"
         id="stop304-2"
         style="stop-color:#aa87de;stop-opacity:1" />
    </linearGradient>
    <linearGradient
       inkscape:collect="always"
       xlink:href="#linearGradient22063"
       id="linearGradient22065"
       x1="-14"
       y1="6"
       x2="-14"
       y2="-9.999999"
       gradientUnits="userSpaceOnUse"
       gradientTransform="matrix(3.6250002,0,0,3.6250002,82.750002,39.249998)" />
    <linearGradient
       inkscape:collect="always"
       id="linearGradient22063">
      <stop
         style="stop-color:#292f3a;stop-opacity:1;"
         offset="0"
         id="stop22059" />
      <stop
         style="stop-color:#535e75;stop-opacity:1;"
         offset="1"
         id="stop22061" />
    </linearGradient>
    <clipPath
       id="a-3">
      <circle
         cx="8.467"
         cy="288.53"
         r="6.8790002"
         fill="#d86eb0"
         stroke-opacity="0.039"
         stroke-width="0.491"
         style="paint-order:stroke markers fill"
         id="circle2-6" />
    </clipPath>
  </defs>
  <sodipodi:namedview
     pagecolor="#ffffff"
     bordercolor="#666666"
     borderopacity="1"
     objecttolerance="10"
     gridtolerance="10"
     guidetolerance="10"
     inkscape:pageopacity="0"
     inkscape:pageshadow="2"
     inkscape:window-width="1920"
     inkscape:window-height="996"
     id="namedview12"
     showgrid="false"
     inkscape:zoom="9.9597502"
     inkscape:cx="31.727703"
     inkscape:cy="38.906598"
     inkscape:window-x="0"
     inkscape:window-y="0"
     inkscape:window-maximized="1"
     inkscape:current-layer="svg10"
     inkscape:document-rotation="0"
     inkscape:showpageshadow="2"
     inkscape:pagecheckerboard="0"
     inkscape:deskcolor="#d1d1d1">
    <inkscape:grid
       type="xygrid"
       id="grid801"
       originx="0"
       originy="0"
       spacingy="1"
       spacingx="1"
       units="px"
       visible="false" />
  </sodipodi:namedview>
  <path
     d="M 2.999999,10.25 C 2.999999,6.245825 6.245933,3 10.249993,3 h 43.500009 c 4.00417,0 7.25,3.245825 7.25,7.25 v 43.499999 c 0,4.004173 -3.24583,7.25 -7.25,7.25 H 10.249993 c -4.00406,0 -7.249994,-3.245827 -7.249994,-7.25 z"
     id="path736"
     style="fill:#606c86;fill-opacity:1;stroke-width:3.625" />
  <path
     d="M 2.999999,9.7968747 C 2.999999,6.043188 6.245933,3 10.249993,3 h 43.500009 c 4.00417,0 7.25,3.043188 7.25,6.7968747 V 50.578123 c 0,3.753693 -3.24583,6.796876 -7.25,6.796876 H 10.249993 c -4.00406,0 -7.249995,-3.043183 -7.249995,-6.796876 z"
     id="path738"
     style="fill:url(#linearGradient22065);fill-opacity:1;stroke-width:3.625" />
  <g
     id="g1"
     transform="translate(-0.25418615,0.2096945)">
    <path
       style="opacity:0.2;stroke-width:1.10821"
       d="m 40.382519,12.901481 c 1.365352,1.75847 2.226581,3.852548 2.49339,6.061182 0.0098,0.07673 0.02028,0.154421 0.02812,0.232204 4.83e-4,0.006 4.83e-4,0.01128 0,0.01722 0.0076,0.07976 0.01573,0.16019 0.02163,0.2409 v 0.04119 c 0.0069,0.07976 0.0103,0.158974 0.01481,0.238723 0.0044,0.07976 0.01014,0.161153 0.0122,0.240872 0,0.05632 -0.0013,0.112846 0.004,0.169271 -4.87e-4,0.0093 -4.87e-4,0.01921 0,0.02828 v 0.101927 0.186624 c 0.0034,2.524175 -0.770281,4.986845 -2.217062,7.057272 0.159174,0.751537 0.239428,1.519178 0.239623,2.28733 2.96e-4,0.518197 -0.03511,1.034272 -0.1079,1.547308 0.700689,-0.165377 1.381791,-0.400149 2.035725,-0.700951 0.4857,-0.221777 0.955587,-0.479422 1.403194,-0.770404 0.09158,0.318015 0.169621,0.641679 0.230996,0.972213 0.130739,0.68358 0.195458,1.378743 0.194291,2.074669 2.91e-4,0.553287 -0.04038,1.106567 -0.123055,1.653636 0.967894,-0.100315 1.916565,-0.329977 2.823671,-0.681429 0.47606,-0.184045 0.938687,-0.401462 1.383776,-0.651027 0.06687,0.37185 0.114497,0.747294 0.142503,1.12412 0.02076,0.273583 0.03016,0.550256 0.03016,0.828989 4.91e-4,0.761829 -0.07646,1.520034 -0.233146,2.265623 1.139842,-0.04687 2.264928,-0.270222 3.335307,-0.66407 0.767721,-2.050886 1.15954,-4.223393 1.157103,-6.412745 0.008,-0.480369 -0.0043,-0.954313 -0.04098,-1.423603 -0.107219,-1.396599 -0.375683,-2.776872 -0.79875,-4.112411 -0.168234,0.45286 -0.381412,0.887466 -0.636831,1.297757 -0.330442,-2.181276 -1.096697,-4.272759 -2.253772,-6.152337 -1.157177,-1.879587 -2.681316,-3.507422 -4.481624,-4.787329 -1.24943,-0.891865 -2.619086,-1.604255 -4.067138,-2.115877 -0.194805,-0.06922 -0.392082,-0.135051 -0.591486,-0.195318 z m -16.590158,0.0217 c -1.68593,0.765051 -3.264881,1.745348 -4.697493,2.916672 -3.630158,2.960832 -6.183482,7.031743 -7.266419,11.584171 -0.38275,1.61398 -0.575759,3.265519 -0.574235,4.924025 -0.006,3.570968 0.891101,7.08611 2.607805,10.219173 0.116277,-1.029087 0.378691,-2.037303 0.77929,-2.992608 1.293429,3.119272 3.344472,5.869114 5.966869,8.001271 2.622358,2.132178 5.733752,3.580719 9.056034,4.214419 -0.57083,-0.741707 -1.042289,-1.553104 -1.405355,-2.415366 1.768727,0.572641 3.60924,0.885303 5.468168,0.930991 0.164631,0 0.330919,0.006 0.496524,0.006 2.953279,0.004 5.868879,-0.671151 8.51852,-1.972656 -0.441187,-0.248501 -0.865179,-0.525623 -1.267213,-0.833332 2.94267,-1.125252 5.545518,-2.987416 7.560024,-5.405817 0.933807,-1.119603 1.730453,-2.346277 2.372501,-3.654504 -0.999958,0.362935 -2.046451,0.578845 -3.108637,0.640194 -0.225997,0.01565 -0.4551,0.0217 -0.682174,0.0217 h -0.226666 c 0.139487,-0.54075 0.236392,-1.091514 0.291433,-1.647132 0.03518,-0.358853 0.05406,-0.723106 0.05406,-1.091578 1.97e-4,-0.411635 -0.02282,-0.821454 -0.06898,-1.230465 -1.069601,0.529764 -2.22082,0.879436 -3.404392,1.037327 -0.329255,0.04467 -0.661097,0.07314 -0.999509,0.08691 0.107807,-0.534426 0.174857,-1.074381 0.20076,-1.618919 0.0082,-0.180832 0.0122,-0.364097 0.0122,-0.546873 6.9e-4,-0.782153 -0.08289,-1.561834 -0.24825,-2.326385 -0.837368,0.492916 -1.736733,0.871285 -2.674714,1.1263 -0.339096,0.09199 -0.684845,0.169753 -1.036209,0.230035 l -0.0082,-0.01239 c 0.102314,-0.510316 0.168982,-1.027662 0.196454,-1.547314 0.01122,-0.19454 0.01479,-0.388176 0.01479,-0.592449 1.84e-4,-0.661208 -0.0583,-1.319861 -0.177025,-1.97048 -1.155318,1.209541 -2.544873,2.170854 -4.0844,2.827686 -1.53962,0.656936 -3.198013,0.993894 -4.872348,0.991761 -1.976904,0.0032 -3.925922,-0.467403 -5.681889,-1.373706 0.799063,-0.309267 1.559282,-0.711995 2.264549,-1.197904 -1.873053,-0.897855 -3.453099,-2.304785 -4.559323,-4.060326 -1.106232,-1.755446 -1.692965,-3.787731 -1.692481,-5.861536 -3.51e-4,-0.66454 0.05957,-1.327598 0.179183,-1.981326 0.117339,-0.647965 0.293523,-1.282916 0.526741,-1.898875 0.229789,-0.607555 0.513583,-1.194473 0.848398,-1.751302 0.379029,-0.635148 0.82173,-1.229126 1.321171,-1.775168 z"
       id="path4" />
    <path
       style="fill:#d63384;fill-opacity:1;stroke-width:1.10821"
       d="m 40.382519,11.790365 c 1.365352,1.758455 2.226581,3.852547 2.49339,6.061191 0.0098,0.07673 0.02028,0.154427 0.02812,0.232211 4.83e-4,0.006 4.83e-4,0.01128 0,0.01719 0.0076,0.07976 0.01573,0.160184 0.02163,0.240889 v 0.04126 c 0.0069,0.07976 0.0103,0.158976 0.01481,0.238715 0.0044,0.07976 0.01014,0.16115 0.0122,0.240873 0,0.05632 -0.0013,0.112895 0.004,0.169274 -4.87e-4,0.0093 -4.87e-4,0.01921 0,0.0283 v 0.101916 0.186638 c 0.0034,2.52417 -0.770281,4.986841 -2.217062,7.057272 0.159174,0.751526 0.239428,1.519183 0.239623,2.287326 2.96e-4,0.518193 -0.03511,1.034272 -0.1079,1.547309 0.700689,-0.165377 1.381791,-0.400158 2.035725,-0.70096 0.4857,-0.221771 0.955587,-0.479419 1.403194,-0.770402 0.09158,0.318019 0.169621,0.641683 0.230996,0.972219 0.130739,0.683585 0.195458,1.378742 0.194291,2.074668 2.91e-4,0.553289 -0.04038,1.106568 -0.123055,1.653629 0.967894,-0.100313 1.916565,-0.329974 2.823671,-0.681424 0.47606,-0.184041 0.938687,-0.401467 1.383776,-0.651031 0.06687,0.371867 0.114497,0.747296 0.142503,1.124126 0.02076,0.273574 0.03016,0.55025 0.03016,0.828994 4.91e-4,0.761822 -0.07646,1.520036 -0.233146,2.265617 1.139842,-0.04687 2.264928,-0.270225 3.335307,-0.664054 0.767721,-2.0509 1.15954,-4.223407 1.157103,-6.41276 0.008,-0.480371 -0.0043,-0.95431 -0.04098,-1.423601 -0.107219,-1.396606 -0.375683,-2.776866 -0.79875,-4.112409 -0.168234,0.452858 -0.381412,0.887452 -0.636831,1.297746 -0.329681,-2.181249 -1.095942,-4.272732 -2.253015,-6.152304 -1.157034,-1.879586 -2.681172,-3.507424 -4.481477,-4.787326 -1.249232,-0.891856 -2.618876,-1.60425 -4.066935,-2.115868 -0.194561,-0.06922 -0.391841,-0.134999 -0.591245,-0.195282 z m -16.590158,0.0217 c -1.68593,0.765054 -3.264881,1.745354 -4.697493,2.916672 -3.630158,2.960839 -6.183482,7.03175 -7.266419,11.584172 -0.38275,1.61398 -0.575759,3.265523 -0.574235,4.924036 -0.006,3.570956 0.891101,7.086097 2.607805,10.219164 0.116277,-1.029088 0.378691,-2.037317 0.77929,-2.992612 1.293429,3.119264 3.344472,5.869115 5.966869,8.001288 2.622358,2.132182 5.733752,3.580712 9.056034,4.214413 -0.57083,-0.741708 -1.042289,-1.553106 -1.405355,-2.415366 1.768727,0.572626 3.60924,0.885293 5.468168,0.93098 0.164631,0 0.330919,0.006 0.496524,0.006 2.953279,0.004 5.868879,-0.671142 8.51852,-1.972651 -0.441187,-0.248509 -0.865179,-0.525643 -1.267213,-0.833349 2.94267,-1.125244 5.545518,-2.987416 7.560024,-5.40581 0.933807,-1.119606 1.730453,-2.346291 2.372501,-3.654501 -0.999958,0.362919 -2.046451,0.578841 -3.108637,0.640184 -0.225997,0.01565 -0.4551,0.02173 -0.682174,0.02173 h -0.226666 c 0.139487,-0.540744 0.236392,-1.091509 0.291433,-1.647126 0.03518,-0.358852 0.05406,-0.723111 0.05406,-1.09158 1.97e-4,-0.411636 -0.02282,-0.821458 -0.06898,-1.230466 -1.069601,0.529756 -2.22082,0.879429 -3.404392,1.03732 -0.329255,0.04467 -0.661097,0.07314 -0.999509,0.08691 0.107807,-0.534433 0.174857,-1.074384 0.20076,-1.618921 0.0082,-0.180829 0.0122,-0.364092 0.0122,-0.546872 6.9e-4,-0.782144 -0.08289,-1.561836 -0.24825,-2.326386 -0.837368,0.492912 -1.736733,0.871284 -2.674714,1.126304 -0.339096,0.09199 -0.684845,0.169749 -1.036209,0.230033 l -0.0082,-0.01226 c 0.102314,-0.510313 0.168982,-1.027654 0.196454,-1.547298 0.01122,-0.194551 0.01479,-0.388187 0.01479,-0.592456 1.84e-4,-0.661208 -0.0583,-1.319867 -0.177025,-1.970483 -1.155318,1.209537 -2.544873,2.170859 -4.0844,2.827687 -1.53962,0.65693 -3.198013,0.993895 -4.872348,0.991751 -1.976904,0.0032 -3.925922,-0.46739 -5.681889,-1.373694 0.799063,-0.309265 1.559282,-0.711999 2.264549,-1.197913 C 25.29522,28.243112 23.715174,26.83618 22.60895,25.080639 21.502718,23.3252 20.915985,21.29291 20.916469,19.219102 c -3.51e-4,-0.664546 0.05957,-1.327597 0.179183,-1.981332 0.117339,-0.647963 0.293523,-1.282903 0.526741,-1.898866 0.229789,-0.607554 0.513583,-1.194478 0.848398,-1.7513 0.379029,-0.635152 0.82173,-1.229121 1.321171,-1.775171 z"
       id="path5" />
  </g>
</svg>
