<?xml version="1.0" encoding="UTF-8" standalone="no"?>
<svg
   width="64"
   height="64"
   version="1.1"
   id="svg22"
   sodipodi:docname="blackmagic-Fusion8.svg"
   inkscape:version="1.3.2 (091e20ef0f, 2023-11-25)"
   xmlns:inkscape="http://www.inkscape.org/namespaces/inkscape"
   xmlns:sodipodi="http://sodipodi.sourceforge.net/DTD/sodipodi-0.dtd"
   xmlns:xlink="http://www.w3.org/1999/xlink"
   xmlns="http://www.w3.org/2000/svg"
   xmlns:svg="http://www.w3.org/2000/svg"
   xmlns:rdf="http://www.w3.org/1999/02/22-rdf-syntax-ns#"
   xmlns:cc="http://creativecommons.org/ns#"
   xmlns:dc="http://purl.org/dc/elements/1.1/">
  <sodipodi:namedview
     pagecolor="#ffffff"
     bordercolor="#666666"
     borderopacity="1"
     objecttolerance="10"
     gridtolerance="10"
     guidetolerance="10"
     inkscape:pageopacity="0"
     inkscape:pageshadow="2"
     inkscape:window-width="1920"
     inkscape:window-height="996"
     id="namedview24"
     showgrid="false"
     inkscape:zoom="12.984375"
     inkscape:cx="29.574007"
     inkscape:cy="33.963899"
     inkscape:window-x="0"
     inkscape:window-y="0"
     inkscape:window-maximized="1"
     inkscape:current-layer="svg22"
     inkscape:showpageshadow="2"
     inkscape:pagecheckerboard="0"
     inkscape:deskcolor="#d1d1d1" />
  <metadata
     id="metadata2">
    <rdf:RDF>
      <cc:Work
         rdf:about="">
        <dc:format>image/svg+xml</dc:format>
        <dc:type
           rdf:resource="http://purl.org/dc/dcmitype/StillImage" />
      </cc:Work>
    </rdf:RDF>
  </metadata>
  <defs
     id="defs14">
    <linearGradient
       inkscape:collect="always"
       id="linearGradient1588">
      <stop
         style="stop-color:#292f3a;stop-opacity:1;"
         offset="0"
         id="stop1584" />
      <stop
         style="stop-color:#535e75;stop-opacity:1;"
         offset="1"
         id="stop1586" />
    </linearGradient>
    <filter
       id="filter2761"
       x="-0.024"
       y="-0.024"
       width="1.048"
       height="1.048"
       color-interpolation-filters="sRGB">
      <feGaussianBlur
         stdDeviation="0.14552168"
         id="feGaussianBlur4" />
    </filter>
    <linearGradient
       id="linearGradient4673"
       x1="1.2573"
       x2="15.644"
       y1="15.429"
       y2="1.1082"
       gradientTransform="matrix(3.7796,0,0,3.7796,-98.960821,0.53085)"
       gradientUnits="userSpaceOnUse">
      <stop
         stop-color="#16ff6c"
         offset="0"
         id="stop7" />
      <stop
         stop-color="#28ff61"
         offset=".47728"
         id="stop9" />
      <stop
         stop-color="#9fff1b"
         offset="1"
         id="stop11" />
    </linearGradient>
    <linearGradient
       id="linearGradient3764"
       x1="1"
       x2="47"
       gradientUnits="userSpaceOnUse"
       gradientTransform="rotate(-90,23.999998,24)">
      <stop
         style="stop-color:#43cd50;stop-opacity:1"
         id="stop2" />
      <stop
         offset="1"
         style="stop-color:#54d160;stop-opacity:1"
         id="stop4" />
    </linearGradient>
    <style
       type="text/css"
       id="style876" />
    <style
       type="text/css"
       id="style878" />
    <style
       type="text/css"
       id="style880" />
    <style
       type="text/css"
       id="style882" />
    <filter
       id="filter1057"
       x="-0.026999999"
       y="-0.026999999"
       width="1.054"
       height="1.054"
       color-interpolation-filters="sRGB">
      <feGaussianBlur
         stdDeviation="0.61875"
         id="feGaussianBlur884" />
    </filter>
    <linearGradient
       id="linearGradient1053"
       x1="-127"
       x2="-72"
       y1="60"
       y2="5"
       gradientTransform="translate(131.5,-0.51)"
       gradientUnits="userSpaceOnUse">
      <stop
         stop-color="#02db96"
         offset="0"
         id="stop887"
         style="stop-color:#14ff6e;stop-opacity:1" />
      <stop
         stop-color="#13d39b"
         offset="1"
         id="stop889"
         style="stop-color:#a0ff1e;stop-opacity:1" />
    </linearGradient>
    <style
       type="text/css"
       id="style892" />
    <style
       type="text/css"
       id="style894" />
    <style
       type="text/css"
       id="style896" />
    <linearGradient
       id="a-367"
       gradientUnits="userSpaceOnUse"
       x1="23"
       x2="37"
       y1="20"
       y2="34"
       gradientTransform="matrix(1.9622547,0,0,1.9622547,-116.93982,-48.178796)">
      <stop
         offset="0"
         stop-color="#292c2f"
         id="stop246" />
      <stop
         offset="1"
         stop-opacity="0"
         id="stop248" />
    </linearGradient>
    <linearGradient
       id="c-53"
       gradientTransform="matrix(2.0428665,-6.8308524,5.7819337,2.3633129,25.219113,34.652812)"
       gradientUnits="userSpaceOnUse"
       x1="24"
       x2="24"
       y1="35"
       y2="13">
      <stop
         offset="0"
         stop-color="#23a2cd"
         id="stop256" />
      <stop
         offset=".53"
         stop-color="#00b8f5"
         id="stop258" />
      <stop
         offset="1"
         stop-color="#2ecbff"
         id="stop260" />
    </linearGradient>
    <linearGradient
       inkscape:collect="always"
       xlink:href="#linearGradient1588"
       id="linearGradient1590"
       x1="26.980762"
       y1="61"
       x2="25.094219"
       y2="3"
       gradientUnits="userSpaceOnUse" />
    <linearGradient
       id="paint0_linear"
       x1="32"
       y1="62"
       x2="32"
       y2="2"
       gradientUnits="userSpaceOnUse"
       gradientTransform="matrix(0.59823273,0,0,0.58066307,12.856648,13.419336)">
      <stop
         stop-color="#FDA700"
         id="stop1" />
      <stop
         offset="1"
         stop-color="#FFDE00"
         id="stop2-9" />
    </linearGradient>
  </defs>
  <circle
     cx="-1330.8"
     cy="-1261.2"
     r="0"
     fill="#5e4aa6"
     id="circle908" />
  <circle
     cx="-1336.4259"
     cy="-1272.89"
     r="0"
     id="circle910"
     style="fill:#5e4aa6" />
  <circle
     cx="-236.87599"
     cy="-7.4350004"
     r="0"
     fill-rule="evenodd"
     id="circle912"
     style="fill:#5e4aa6" />
  <circle
     cx="-1336.4259"
     cy="-1272.89"
     r="0"
     id="circle914"
     style="fill:#5e4aa6" />
  <circle
     cx="-236.87599"
     cy="-7.4350004"
     r="0"
     fill-rule="evenodd"
     id="circle916"
     style="fill:#5e4aa6" />
  <circle
     cx="-1238.626"
     cy="-1287.89"
     r="0"
     id="circle918"
     style="fill:#5e4aa6" />
  <circle
     cx="-139.05299"
     cy="-22.4156"
     r="0"
     fill-rule="evenodd"
     id="circle920"
     style="fill:#5e4aa6" />
  <g
     transform="matrix(3.7796,0,0,3.7796,80.134,-26.68)"
     stroke-width="0.26458"
     id="g950"
     style="fill:#5e4aa6">
    <g
       transform="translate(-0.0272,0.0065001)"
       id="g938">
      <circle
         cx="-330.35001"
         cy="-328.38"
         r="0"
         id="circle922" />
      <circle
         cx="-312.10999"
         cy="-326.25"
         r="0"
         id="circle924" />
      <circle
         cx="-306.01999"
         cy="-333.07001"
         r="0"
         id="circle926" />
      <circle
         cx="-308.84"
         cy="-326.01001"
         r="0"
         id="circle928" />
      <circle
         cx="-330.35001"
         cy="-328.38"
         r="0"
         id="circle930" />
      <circle
         cx="-312.10999"
         cy="-326.25"
         r="0"
         id="circle932" />
      <circle
         cx="-306.01999"
         cy="-333.07001"
         r="0"
         id="circle934" />
      <circle
         cx="-308.84"
         cy="-326.01001"
         r="0"
         id="circle936" />
    </g>
    <g
       transform="translate(-0.02705,0.0064503)"
       id="g948">
      <circle
         cx="-330.35001"
         cy="-328.38"
         r="0"
         id="circle940" />
      <circle
         cx="-312.10999"
         cy="-326.25"
         r="0"
         id="circle942" />
      <circle
         cx="-306.01999"
         cy="-333.07001"
         r="0"
         id="circle944" />
      <circle
         cx="-308.84"
         cy="-326.01001"
         r="0"
         id="circle946" />
    </g>
  </g>
  <path
     d="M 2.9999985,10.25 C 2.9999985,6.245825 6.2459365,3 10.25,3 h 43.500002 c 4.004174,0 7.25,3.245825 7.25,7.25 v 43.5 c 0,4.004173 -3.245827,7.25 -7.25,7.25 H 10.25 C 6.2459365,61 2.9999985,57.754173 2.9999985,53.75 Z"
     id="path736"
     style="fill:#606c86;fill-opacity:1;stroke-width:3.625" />
  <path
     d="M 2.9999985,9.796875 C 2.9999985,6.043188 6.2459365,3 10.25,3 h 43.500002 c 4.004174,0 7.25,3.043188 7.25,6.796875 v 40.781249 c 0,3.753693 -3.245827,6.796876 -7.25,6.796876 H 10.25 c -4.0040635,0 -7.2500015,-3.043183 -7.2500015,-6.796876 z"
     id="path738"
     style="fill:url(#linearGradient1590);fill-opacity:1;stroke-width:3.625" />
  <path
     style="opacity:0.2;stroke-width:0.743374"
     d="M 32.764476,11.216692 A 19.998785,19.648218 0 0 0 26.824546,11.871816 19.998785,19.648218 0 0 0 12.681992,35.935953 19.998785,19.648218 0 0 0 37.175474,49.830564 19.998785,19.648218 0 0 0 51.318037,25.766465 19.998785,19.648218 0 0 0 32.764476,11.216692 Z"
     id="path1-3" />
  <path
     d="M 32.764501,10.514342 A 19.999401,19.648822 0 0 0 26.82439,11.169489 19.999401,19.648822 0 0 0 12.681399,35.234366 19.999401,19.648822 0 0 0 37.175642,49.129484 19.999401,19.648822 0 0 0 51.31863,25.064565 19.999401,19.648822 0 0 0 32.764501,10.514342 Z"
     id="path2"
     style="fill:#ffffff;fill-opacity:1;stroke-width:0.999997" />
  <ellipse
     style="opacity:0.1;stroke-width:0.743389"
     cx="22.756056"
     cy="37.98217"
     transform="matrix(0.96705209,-0.2545786,0.26311984,0.96476316,0,0)"
     id="circle2"
     rx="17.122372"
     ry="16.862139" />
  <ellipse
     style="fill:#273f57;stroke-width:0.743389"
     cx="22.940117"
     cy="37.304207"
     transform="matrix(0.96705209,-0.2545786,0.26311984,0.96476316,0,0)"
     id="circle3"
     rx="17.122372"
     ry="16.862139" />
  <path
     style="opacity:0.2;stroke-width:0.743374"
     d="m 37.814578,18.923247 c -0.966984,0.02616 -1.927532,0.333389 -2.710583,0.894995 -0.908063,0.651258 -1.551609,1.588654 -2.259976,2.447882 -0.354188,0.429615 -0.730365,0.844549 -1.164865,1.195159 -0.434503,0.350601 -0.920337,0.708102 -1.473173,0.779863 -1.115366,0.144789 -2.27637,-0.413117 -3.285333,-0.759309 -1.048959,-0.394712 -2.082352,-0.889909 -3.198844,-1.006015 -1.540471,-0.160193 -3.144088,0.47056 -4.150265,1.632378 -1.006184,1.161815 -1.387209,3.173031 -0.9863,4.649052 0.40091,1.47602 1.572599,2.726107 3.032833,3.235968 1.460237,0.509868 3.168013,0.263985 4.420904,-0.634584 0.908064,-0.651255 1.551613,-1.588651 2.259977,-2.447878 0.757422,-0.925906 1.55284,-1.837687 2.63804,-2.255996 0.518636,-0.199918 1.117272,-0.141398 1.671257,-0.05209 0.553991,0.08939 1.089591,0.264536 1.614074,0.461894 1.04896,0.394712 2.082346,0.888536 3.198844,1.004644 1.54047,0.160196 3.144088,-0.469189 4.150266,-1.631007 1.006179,-1.161818 1.387209,-2.542556 0.9863,-4.018578 -0.400912,-1.476021 -1.572599,-2.726106 -3.032831,-3.23597 -0.547589,-0.1912 -1.130145,-0.276122 -1.710325,-0.260412 z M 38.396303,29.4494 c -0.711008,0.01926 -1.41635,0.245442 -1.99212,0.659258 -0.667694,0.479874 -1.14204,1.170583 -1.662898,1.803699 -0.260431,0.316559 -0.537078,0.62295 -0.856563,0.881291 -0.319483,0.258341 -0.683869,0.468672 -1.082553,0.57428 -0.39869,0.105607 -0.820302,0.102822 -1.227643,0.03705 -0.407343,-0.06585 -0.802933,-0.193122 -1.188582,-0.338542 -0.771295,-0.290851 -1.529705,-0.65595 -2.350655,-0.7415 -1.132695,-0.11804 -2.311133,0.345932 -3.050967,1.20201 -0.739838,0.856073 -1.020214,2.079844 -0.725426,3.167438 0.294788,1.087597 1.155584,2.00914 2.229286,2.384834 1.073706,0.375694 2.329218,0.19473 3.250456,-0.467376 0.667699,-0.479871 1.142042,-1.170579 1.662901,-1.803696 0.260429,-0.316561 0.537073,-0.622952 0.856559,-0.881293 0.319485,-0.258338 0.683873,-0.46867 1.082552,-0.574277 0.39869,-0.105607 0.820304,-0.102822 1.227643,-0.03705 0.40735,0.06588 0.802939,0.193116 1.188587,0.338539 0.771293,0.290843 1.529709,0.655938 2.350649,0.741489 1.132698,0.118037 2.311131,-0.345934 3.050973,-1.20201 0.739835,-0.856074 1.020209,-2.079846 0.725422,-3.16744 -0.294789,-1.087596 -1.155583,-2.00914 -2.229288,-2.384829 -0.402633,-0.140885 -0.831718,-0.203458 -1.258333,-0.191881 z M 30.7654,39.978296 c -0.163323,0.01005 -0.325919,0.03651 -0.484083,0.07813 -0.632668,0.166553 -1.191715,0.587157 -1.519208,1.144445 -0.327488,0.55729 -0.419235,1.243804 -0.249712,1.865371 0.169521,0.621596 0.597634,1.170876 1.164864,1.492572 0.56723,0.32181 1.265997,0.41188 1.898658,0.24538 0.632667,-0.16651 1.191719,-0.587135 1.519207,-1.144476 0.327491,-0.557292 0.419234,-1.243806 0.249714,-1.865381 C 33.17532,41.172762 32.747205,40.623509 32.179977,40.301764 31.754554,40.06045 31.25536,39.948535 30.7654,39.978301 Z"
     id="path3" />
  <path
     style="fill:#ffffff;stroke-width:0.743374;fill-opacity:1"
     d="m 37.814578,18.221191 c -0.966984,0.02614 -1.927532,0.333394 -2.710583,0.894998 -0.908063,0.651258 -1.551609,1.588652 -2.259976,2.447881 -0.354188,0.429615 -0.730365,0.844549 -1.164865,1.195156 -0.434503,0.350603 -0.920337,0.708107 -1.473173,0.779867 -1.115366,0.144788 -2.27637,-0.413121 -3.285333,-0.759305 -1.048959,-0.394717 -2.082352,-0.889915 -3.198844,-1.006017 -1.540471,-0.1602 -3.144088,0.470559 -4.150265,1.632378 -1.006184,1.161811 -1.387209,3.173027 -0.9863,4.649049 0.40091,1.476019 1.572599,2.726105 3.032833,3.23597 1.460237,0.509866 3.168013,0.263984 4.420904,-0.634583 0.908064,-0.651257 1.551613,-1.588653 2.259977,-2.447883 0.757422,-0.925905 1.55284,-1.837686 2.63804,-2.255995 0.518636,-0.199918 1.117272,-0.141399 1.671257,-0.05209 0.553991,0.08939 1.089591,0.264535 1.614074,0.461894 1.04896,0.394711 2.082346,0.888536 3.198844,1.004643 1.54047,0.160197 3.144088,-0.46919 4.150266,-1.631004 1.006179,-1.161819 1.387209,-2.542561 0.9863,-4.018583 -0.400912,-1.476018 -1.572599,-2.726104 -3.032831,-3.235967 -0.547589,-0.191201 -1.130145,-0.276123 -1.710325,-0.260414 z m 0.581725,10.526157 c -0.711008,0.01926 -1.41635,0.245439 -1.99212,0.659254 -0.667694,0.479876 -1.14204,1.170584 -1.662898,1.803703 -0.260431,0.316557 -0.537078,0.622948 -0.856563,0.881288 -0.319483,0.258344 -0.683869,0.468672 -1.082553,0.57428 -0.39869,0.105607 -0.820302,0.102822 -1.227643,0.03705 -0.407343,-0.06584 -0.802933,-0.193118 -1.188582,-0.338542 -0.771295,-0.290847 -1.529705,-0.655948 -2.350655,-0.741498 -1.132695,-0.11804 -2.311133,0.345933 -3.050967,1.20201 -0.739838,0.856077 -1.020214,2.079844 -0.725426,3.167438 0.294788,1.087596 1.155584,2.009142 2.229286,2.384834 1.073706,0.375693 2.329218,0.19473 3.250456,-0.467371 0.667699,-0.479876 1.142042,-1.170584 1.662901,-1.8037 0.260429,-0.316561 0.537073,-0.622954 0.856559,-0.881293 0.319485,-0.258341 0.683873,-0.468669 1.082552,-0.574277 0.39869,-0.105607 0.820304,-0.102822 1.227643,-0.03705 0.40735,0.06586 0.802939,0.193115 1.188587,0.338537 0.771293,0.290842 1.529709,0.655939 2.350649,0.741491 1.132698,0.118038 2.311131,-0.345936 3.050973,-1.202011 0.739835,-0.856074 1.020209,-2.079847 0.725422,-3.16744 -0.294789,-1.087594 -1.155583,-2.00914 -2.229288,-2.38483 -0.402633,-0.140884 -0.831718,-0.203458 -1.258333,-0.191884 z M 30.7654,39.276242 c -0.163323,0.01004 -0.325919,0.03651 -0.484083,0.07813 -0.632668,0.16655 -1.191715,0.587155 -1.519208,1.144444 -0.327488,0.557288 -0.419235,1.243802 -0.249712,1.865378 0.169521,0.621561 0.597634,1.170807 1.164864,1.492613 0.56723,0.321679 1.265997,0.411884 1.898658,0.245311 0.632667,-0.166573 1.191719,-0.587184 1.519207,-1.14446 0.327491,-0.557284 0.419234,-1.243804 0.249714,-1.865377 C 33.17532,40.470696 32.747205,39.921444 32.179977,39.599698 31.754554,39.358385 31.25536,39.24647 30.7654,39.276232 Z"
     id="path4" />
  <path
     style="opacity:0.2;fill:#ffffff;stroke-width:0.743374"
     d="m 32.000015,10.50064 a 19.999402,19.648823 0 0 0 -19.9994,19.648827 19.999402,19.648823 0 0 0 0.01536,0.411221 19.999402,19.648823 0 0 1 19.984043,-19.358306 19.999402,19.648823 0 0 1 19.9844,19.237603 19.999402,19.648823 0 0 0 0.01499,-0.290518 A 19.999402,19.648823 0 0 0 32.000009,10.50064 Z"
     id="path5" />
  <path
     style="opacity:0.2;fill:#ffffff;stroke-width:0.743374"
     d="m 37.814578,18.221191 c -0.966984,0.02614 -1.927532,0.333394 -2.710583,0.894998 -0.908063,0.651258 -1.551609,1.588652 -2.259976,2.447881 -0.354188,0.429615 -0.730365,0.844549 -1.164865,1.195156 -0.434503,0.350603 -0.920337,0.708107 -1.473173,0.779867 -1.115366,0.144788 -2.27637,-0.413121 -3.285333,-0.759305 -1.048959,-0.394717 -2.082352,-0.889915 -3.198844,-1.006017 -1.540471,-0.1602 -3.144088,0.470559 -4.150265,1.632378 -0.809746,0.934994 -1.206157,2.417189 -1.124407,3.730753 0.07141,-1.114276 0.456824,-2.258167 1.124407,-3.029013 1.006177,-1.161812 2.609794,-1.79257 4.150265,-1.632377 1.116492,0.116106 2.149885,0.611303 3.198844,1.006015 1.008963,0.346194 2.169967,0.904099 3.285333,0.759311 0.552836,-0.07175 1.03867,-0.429265 1.473173,-0.779866 0.4345,-0.350611 0.810677,-0.765546 1.164865,-1.19516 0.708367,-0.859225 1.351913,-1.796621 2.259976,-2.447879 0.783051,-0.561604 1.743599,-0.868815 2.710583,-0.894995 0.58018,-0.0157 1.162736,0.06927 1.710325,0.260413 1.460232,0.509862 2.631919,1.759949 3.032831,3.23597 0.07449,0.274415 0.11383,0.544359 0.135317,0.811388 0.04536,-0.48956 0.0057,-0.99471 -0.135317,-1.513136 -0.400912,-1.476019 -1.572599,-2.726104 -3.032831,-3.235967 -0.547589,-0.191202 -1.130145,-0.276123 -1.710325,-0.260415 z m 0.581725,10.526157 c -0.711008,0.01926 -1.41635,0.245439 -1.99212,0.659254 -0.667694,0.479876 -1.14204,1.170584 -1.662898,1.803703 -0.260431,0.316557 -0.537078,0.622948 -0.856563,0.881288 -0.319483,0.258344 -0.683869,0.468672 -1.082553,0.57428 -0.39869,0.105607 -0.820302,0.102822 -1.227643,0.03705 -0.407343,-0.06584 -0.802933,-0.193118 -1.188582,-0.338542 -0.771295,-0.290847 -1.529705,-0.655948 -2.350655,-0.741498 -1.132695,-0.11804 -2.311133,0.345933 -3.050967,1.20201 -0.615935,0.712707 -0.906632,1.679317 -0.818893,2.610979 0.07588,-0.697791 0.357432,-1.375272 0.818893,-1.909236 0.739834,-0.856073 1.918272,-1.320046 3.050967,-1.20201 0.82095,0.08563 1.57936,0.450651 2.350655,0.741493 0.385649,0.145419 0.781239,0.272723 1.188582,0.338532 0.407341,0.06587 0.828953,0.06863 1.227643,-0.03705 0.398684,-0.105608 0.76307,-0.315936 1.082553,-0.574276 0.319485,-0.25834 0.596132,-0.564734 0.856563,-0.881293 0.520858,-0.633114 0.995204,-1.323827 1.662898,-1.803699 0.57577,-0.413814 1.281112,-0.639967 1.99212,-0.659256 0.426615,-0.01155 0.8557,0.05095 1.258333,0.191882 1.073705,0.375692 1.934499,1.297235 2.229288,2.384833 0.04941,0.182139 0.07581,0.369049 0.09351,0.55646 0.04579,-0.420942 0.01749,-0.848978 -0.09351,-1.258204 -0.294789,-1.087596 -1.155583,-2.009141 -2.229288,-2.384832 -0.402633,-0.140884 -0.831718,-0.203458 -1.258333,-0.191882 z M 30.7654,39.276242 c -0.163323,0.01004 -0.325919,0.03651 -0.484083,0.07813 -0.632668,0.166549 -1.191715,0.587155 -1.519208,1.144444 -0.275103,0.468145 -0.372673,1.02568 -0.299936,1.561104 0.04664,-0.301364 0.144791,-0.595352 0.299936,-0.859359 0.327493,-0.557288 0.88654,-0.977901 1.519208,-1.144444 0.158164,-0.04172 0.32076,-0.06821 0.484083,-0.07809 0.48996,-0.02982 0.989154,0.08211 1.414577,0.323456 0.567228,0.321755 0.995344,0.871005 1.164863,1.492579 0.02709,0.09942 0.03638,0.202314 0.05017,0.304269 0.05176,-0.334738 0.03895,-0.678946 -0.05017,-1.006015 C 33.175321,40.470743 32.747205,39.921491 32.179977,39.599743 31.754554,39.358431 31.25536,39.246515 30.7654,39.276281 Z"
     id="path6" />
</svg>
