<?xml version="1.0" encoding="UTF-8" standalone="no"?>
<svg
   width="64"
   height="64"
   version="1.1"
   id="svg32"
   sodipodi:docname="blackmagicraw-speedtest.svg"
   inkscape:version="1.3.2 (091e20ef0f, 2023-11-25)"
   xmlns:inkscape="http://www.inkscape.org/namespaces/inkscape"
   xmlns:sodipodi="http://sodipodi.sourceforge.net/DTD/sodipodi-0.dtd"
   xmlns:xlink="http://www.w3.org/1999/xlink"
   xmlns="http://www.w3.org/2000/svg"
   xmlns:svg="http://www.w3.org/2000/svg"
   xmlns:rdf="http://www.w3.org/1999/02/22-rdf-syntax-ns#"
   xmlns:cc="http://creativecommons.org/ns#"
   xmlns:dc="http://purl.org/dc/elements/1.1/">
  <sodipodi:namedview
     id="namedview34"
     pagecolor="#ffffff"
     bordercolor="#666666"
     borderopacity="1.0"
     inkscape:showpageshadow="2"
     inkscape:pageopacity="0.0"
     inkscape:pagecheckerboard="0"
     inkscape:deskcolor="#d1d1d1"
     showgrid="false"
     inkscape:zoom="3.6875"
     inkscape:cx="32"
     inkscape:cy="97.084746"
     inkscape:window-width="1920"
     inkscape:window-height="996"
     inkscape:window-x="0"
     inkscape:window-y="0"
     inkscape:window-maximized="1"
     inkscape:current-layer="svg32" />
  <metadata
     id="metadata2">
    <rdf:RDF>
      <cc:Work
         rdf:about="">
        <dc:format>image/svg+xml</dc:format>
        <dc:type
           rdf:resource="http://purl.org/dc/dcmitype/StillImage" />
      </cc:Work>
    </rdf:RDF>
  </metadata>
  <defs
     id="defs12">
    <filter
       id="filter1057"
       x="-0.026999999"
       y="-0.026999999"
       width="1.054"
       height="1.054"
       color-interpolation-filters="sRGB">
      <feGaussianBlur
         stdDeviation="0.61875"
         id="feGaussianBlur4" />
    </filter>
    <linearGradient
       id="linearGradient1053"
       x1="-127"
       x2="-72"
       y1="60"
       y2="5"
       gradientTransform="translate(37.298505,-42.429361)"
       gradientUnits="userSpaceOnUse">
      <stop
         stop-color="#a53cff"
         offset="0"
         id="stop7" />
      <stop
         stop-color="#b496ff"
         offset="1"
         id="stop9" />
    </linearGradient>
    <radialGradient
       inkscape:collect="always"
       xlink:href="#linearGradient22063"
       id="radialGradient1354"
       cx="32"
       cy="30.1875"
       fx="32"
       fy="30.1875"
       r="29.000002"
       gradientTransform="matrix(1,0,0,0.93749994,-2e-6,1.886721)"
       gradientUnits="userSpaceOnUse" />
    <linearGradient
       inkscape:collect="always"
       id="linearGradient22063">
      <stop
         style="stop-color:#c3dfe7;stop-opacity:1;"
         offset="0"
         id="stop22059" />
      <stop
         style="stop-color:#a7bad2;stop-opacity:1;"
         offset="1"
         id="stop22061" />
    </linearGradient>
    <linearGradient
       id="SVGID_1_"
       gradientUnits="userSpaceOnUse"
       x1="24.837999"
       y1="33.653999"
       x2="46.732201"
       y2="55.548199"
       gradientTransform="translate(2,-0.984319)">
      <stop
         offset="0.3569"
         style="stop-color:#EF6B2E"
         id="stop366" />
      <stop
         offset="0.6328"
         style="stop-color:#F19F00"
         id="stop368" />
    </linearGradient>
    <linearGradient
       id="SVGID_2_"
       gradientUnits="userSpaceOnUse"
       x1="24.858801"
       y1="30.3876"
       x2="46.752998"
       y2="8.4933004"
       gradientTransform="translate(2,-0.984319)">
      <stop
         offset="0.3707"
         style="stop-color:#16B8C3"
         id="stop375" />
      <stop
         offset="0.7422"
         style="stop-color:#02AEF0"
         id="stop377" />
    </linearGradient>
  </defs>
  <g
     fill="#5e4aa6"
     id="g24">
    <circle
       cx="-1248.7"
       cy="-1241.6"
       r="0"
       id="circle14" />
    <circle
       cx="-1140.3"
       cy="-1301.8"
       r="0"
       id="circle16" />
    <circle
       cx="-1158.1"
       cy="-1246"
       r="0"
       id="circle18" />
    <circle
       cx="-1157.3"
       cy="-1267.7"
       r="0"
       id="circle20" />
    <circle
       cx="-57.756"
       cy="-2.1829"
       r="0"
       fill-rule="evenodd"
       id="circle22" />
  </g>
  <path
     d="M 3,10.25 C 3,6.245825 6.24593,3 10.25,3 h 43.5 C 57.75417,3 61,6.245825 61,10.25 v 43.5 C 61,57.754173 57.75417,61 53.75,61 H 10.25 C 6.24593,61 3,57.754173 3,53.75 Z"
     id="path736"
     style="fill:#606c86;fill-opacity:1;stroke-width:3.625" />
  <path
     d="M 3,9.796875 C 3,6.043188 6.24593,3 10.25,3 h 43.5 C 57.75417,3 61,6.043188 61,9.796875 V 50.578124 C 61,54.331817 57.75417,57.375 53.75,57.375 H 10.25 C 6.24593,57.375 3,54.331817 3,50.578124 Z"
     id="path738"
     style="fill:url(#radialGradient1354);fill-opacity:1;stroke-width:3.625" />
  <path
     style="opacity:0.301;fill:#00ff00;fill-opacity:1;stroke:#008080;stroke-width:0.730469;stroke-opacity:1"
     d="m 31.98722,13.99307 12.786755,3.754631 6.393378,10.012372 -19.180133,6.257738 z"
     id="path2" />
  <path
     style="opacity:0.2;stroke-width:0.730469"
     d="m 32.018765,13.378378 c -12.159003,0 -22.015765,9.647641 -22.015765,21.548673 0.004,5.71328 2.328319,11.19003 6.458216,15.22747 0.881649,0.7527 1.601148,0.15759 2.527214,-0.67243 l 3.156365,-3.08766 c 0.863123,-0.82029 0.263375,-2.25726 -0.94288,-2.25919 -0.362695,-0.002 -0.709755,0.14092 -0.962162,0.39453 l -2.891743,2.83208 c -2.747803,-3.11739 -4.327709,-7.03056 -4.603993,-11.14822 h 3.976586 c 0.755224,0.009 1.370056,-0.59488 1.358233,-1.33805 -0.01145,-0.72705 -0.619407,-1.30744 -1.358233,-1.29683 h -3.97308 c 0.300721,-4.239596 2.014991,-8.070346 4.67937,-11.071082 l 2.81286,2.754896 c 0.526509,0.530655 1.399444,0.527541 1.927844,-0.0075 0.517751,-0.52196 0.507553,-1.353617 -0.02287,-1.85776 l -2.814604,-2.753171 c 3.065802,-2.607867 6.979563,-4.285798 11.311074,-4.580135 v 3.888809 c -0.02564,1.772037 2.71768,1.772037 2.691954,0 v -3.891724 c 4.339641,0.279221 8.271124,1.938026 11.353144,4.542345 l -2.856694,2.794376 c -0.530351,0.50414 -0.540555,1.335803 -0.02287,1.857756 0.528382,0.534406 1.401325,0.53753 1.927816,0.0075 l 2.867215,-2.808084 c 2.666959,2.992053 4.384633,6.832416 4.67761,11.124274 h -0.0211 -3.973074 c -0.738837,-0.0111 -1.346714,0.56981 -1.358251,1.29684 -0.01157,0.74313 0.603032,1.34885 1.358251,1.33803 h 3.976584 c -0.06679,0.99543 -0.212148,1.97865 -0.429373,2.94183 l -3.0705,-0.80451 -0.347025,1.27281 3.07577,0.80626 c -0.350787,1.16863 -0.813825,2.29859 -1.386293,3.37756 l -2.793587,-1.57813 -0.672989,1.14242 2.809366,1.58675 c -0.527218,0.84153 -1.122734,1.64694 -1.789368,2.40326 l -2.89171,-2.8321 c -0.252406,-0.25364 -0.599469,-0.39597 -0.962167,-0.39456 -1.206245,0.002 -1.805997,1.43893 -0.942869,2.25917 l 3.15637,3.08767 c 0.926074,0.83001 1.645553,1.42514 2.527197,0.67244 4.129908,-4.03747 6.453291,-9.51419 6.458225,-15.22748 0,-0.45351 -0.0037,-0.90171 -0.0316,-1.34827 C 53.286399,22.199275 43.665112,13.391378 32.018776,13.378376 Z"
     id="path3" />
  <path
     style="fill:#00cccc;stroke-width:0.730469;fill-opacity:1"
     d="M 32.018765,12.5 C 19.859762,12.5 10.003,22.147632 10.003,34.048651 c 0.004,5.71324 2.328319,11.19004 6.458216,15.22748 0.881649,0.75274 1.601148,0.15759 2.527214,-0.67244 l 3.156365,-3.08764 c 0.863123,-0.82025 0.263375,-2.25726 -0.94288,-2.2592 -0.362695,-0.002 -0.709755,0.1409 -0.962162,0.3945 l -2.891743,2.83216 c -2.747803,-3.11739 -4.327709,-7.0306 -4.603993,-11.14834 h 3.976586 c 0.755224,0.009 1.370056,-0.59482 1.358233,-1.33796 -0.01145,-0.72702 -0.619407,-1.30743 -1.358233,-1.29683 h -3.97308 c 0.300721,-4.239603 2.014991,-8.07036 4.67937,-11.071093 l 2.81286,2.754895 c 0.526509,0.530656 1.399444,0.527551 1.927844,-0.0075 0.517751,-0.521959 0.507554,-1.353623 -0.02287,-1.857761 L 19.33013,19.765697 c 3.065809,-2.607843 6.979571,-4.285776 11.311086,-4.580107 v 3.888883 c -0.02564,1.772031 2.717682,1.772031 2.691947,0 v -3.891726 c 4.339644,0.279224 8.271126,1.938025 11.35315,4.542342 l -2.856696,2.794347 c -0.530346,0.504158 -0.540551,1.335813 -0.02289,1.857771 0.528385,0.534404 1.401334,0.537497 1.927831,0.0075 l 2.86721,-2.808096 c 2.666955,2.992059 4.384628,6.83243 4.677598,11.12427 h 2.691962 C 53.286386,21.320891 43.665099,12.513002 32.018765,12.5 Z"
     id="path4" />
  <path
     style="opacity:0.2;fill:none;stroke:#000000;stroke-width:2.19144;stroke-linecap:round;stroke-linejoin:round"
     d="M 50.830857,28.748135 32.005419,34.890051"
     id="path5" />
  <path
     style="fill:#00cccc;stroke:#00cccc;stroke-width:2.19144;stroke-linecap:round;stroke-linejoin:round;stroke-opacity:1;fill-opacity:1"
     d="M 50.830857,27.869845 32.005419,34.011741"
     id="path6" />
  <path
     style="fill:#c83771;stroke-width:0.730469"
     d="m 47.285422,32.700381 c -0.738836,-0.011 -1.346715,0.56981 -1.358256,1.29683 -0.01157,0.74314 0.603029,1.34883 1.358256,1.33796 h 3.976567 c -0.06671,0.99543 -0.212146,1.97872 -0.429372,2.94194 l -3.070508,-0.80456 -0.347015,1.27283 3.075763,0.80624 c -0.350777,1.16869 -0.813818,2.29857 -1.386284,3.3776 l -2.793584,-1.57814 -0.672984,1.14242 2.809372,1.58677 c -0.527217,0.84153 -1.122751,1.6469 -1.789393,2.40324 l -2.891738,-2.83215 c -0.252399,-0.25361 -0.599459,-0.39589 -0.962161,-0.39451 -1.20624,0.002 -1.805993,1.43895 -0.942873,2.2592 l 3.156366,3.08764 c 0.92608,0.83003 1.645562,1.42518 2.527219,0.67244 4.129895,-4.03744 6.453281,-9.51424 6.458203,-15.22748 0,-0.45349 -0.0037,-0.90168 -0.03162,-1.34827 h -2.712981 z"
     id="path7" />
</svg>
