<?xml version="1.0" encoding="UTF-8" standalone="no"?>
<svg
   width="64"
   height="64"
   viewBox="0 0 64 64"
   version="1.1"
   id="svg52"
   sodipodi:docname="electron.svg"
   inkscape:version="1.3.2 (091e20ef0f, 2023-11-25)"
   xmlns:inkscape="http://www.inkscape.org/namespaces/inkscape"
   xmlns:sodipodi="http://sodipodi.sourceforge.net/DTD/sodipodi-0.dtd"
   xmlns:xlink="http://www.w3.org/1999/xlink"
   xmlns="http://www.w3.org/2000/svg"
   xmlns:svg="http://www.w3.org/2000/svg">
  <sodipodi:namedview
     id="namedview54"
     pagecolor="#a4a4a4"
     bordercolor="#eeeeee"
     borderopacity="1"
     inkscape:pageshadow="0"
     inkscape:pageopacity="0"
     inkscape:pagecheckerboard="0"
     showgrid="false"
     inkscape:zoom="5.2604167"
     inkscape:cx="36.308911"
     inkscape:cy="-4.3722772"
     inkscape:window-width="1920"
     inkscape:window-height="994"
     inkscape:window-x="0"
     inkscape:window-y="0"
     inkscape:window-maximized="1"
     inkscape:current-layer="svg52"
     inkscape:showpageshadow="2"
     inkscape:deskcolor="#c9c9c9" />
  <defs
     id="defs32">
    <linearGradient
       xlink:href="#linearGradient4393"
       id="linearGradient4399"
       x1="424.44101"
       y1="502.85001"
       x2="440.87799"
       y2="529.57599"
       gradientUnits="userSpaceOnUse"
       gradientTransform="matrix(0.69224711,0,0,0.69224711,-215.22899,-357.13539)" />
    <linearGradient
       id="linearGradient4393">
      <stop
         style="stop-color:#000000;stop-opacity:1;"
         offset="0"
         id="stop3" />
      <stop
         style="stop-color:#000000;stop-opacity:0;"
         offset="1"
         id="stop5" />
    </linearGradient>
    <linearGradient
       xlink:href="#linearGradient4274"
       id="linearGradient4217"
       gradientUnits="userSpaceOnUse"
       gradientTransform="matrix(0.69224711,0,0,0.69224711,-199.3073,1639.8968)"
       x1="390.57101"
       y1="498.298"
       x2="442.57101"
       y2="498.298" />
    <linearGradient
       id="linearGradient4274">
      <stop
         offset="0"
         style="stop-color:#ffffff;stop-opacity:1;"
         id="stop9" />
      <stop
         offset="1"
         style="stop-color:#ffffff;stop-opacity:0.48760331"
         id="stop11" />
    </linearGradient>
    <linearGradient
       xlink:href="#linearGradient4227"
       id="linearGradient4225"
       gradientUnits="userSpaceOnUse"
       x1="396.57101"
       y1="498.798"
       x2="426.57101"
       y2="511.798"
       gradientTransform="matrix(0.69224711,0,0,0.69224711,-199.3073,-360.21214)" />
    <linearGradient
       id="linearGradient4227">
      <stop
         offset="0"
         style="stop-color:#f5f5f5;stop-opacity:1"
         id="stop21" />
      <stop
         offset="1"
         style="stop-color:#f9f9f9;stop-opacity:1"
         id="stop23" />
    </linearGradient>
    <style
       id="current-color-scheme"
       type="text/css">      .ColorScheme-Highlight {
        color:#3593e6;
      }
</style>
    <linearGradient
       id="d"
       gradientUnits="userSpaceOnUse"
       x1="4"
       x2="18.999998"
       xlink:href="#c"
       y1="5"
       y2="20"
       gradientTransform="matrix(2.7999616,0,0,2.7999616,1.095156,-2.3992319)" />
    <linearGradient
       id="c">
      <stop
         offset="0"
         stop-color="#292c2f"
         id="stop265" />
      <stop
         offset="1"
         stop-opacity="0"
         id="stop267" />
    </linearGradient>
    <linearGradient
       id="b"
       gradientUnits="userSpaceOnUse"
       x1="13.280776"
       x2="28.280775"
       xlink:href="#c"
       y1="5.088388"
       y2="20.088388"
       gradientTransform="matrix(2.7999616,0,0,2.7999616,1.095156,-2.3992319)" />
    <linearGradient
       id="c-3"
       gradientUnits="userSpaceOnUse"
       x1="5"
       x2="5"
       y1="20"
       y2="7"
       gradientTransform="matrix(3.4390082,0,0,3.4390082,-5.8290972,-4.015561)">
      <stop
         offset="0"
         stop-color="#999a9c"
         id="stop164" />
      <stop
         offset="1"
         stop-color="#f4f5f5"
         id="stop166" />
    </linearGradient>
    <linearGradient
       id="a"
       y1="44"
       y2="4"
       x2="0"
       gradientUnits="userSpaceOnUse">
      <stop
         stop-color="#7cbaf8"
         id="stop152" />
      <stop
         offset="1"
         stop-color="#f4fcff"
         id="stop154" />
    </linearGradient>
    <linearGradient
       id="b-3"
       y1="39"
       y2="9"
       gradientUnits="userSpaceOnUse"
       x2="0"
       gradientTransform="matrix(1.02857,0,0,1.2,-5.314,-2013.52)">
      <stop
         stop-color="#197cf1"
         id="stop157" />
      <stop
         offset="1"
         stop-color="#20bcfa"
         id="stop159" />
    </linearGradient>
    <linearGradient
       xlink:href="#c-7"
       id="d-6"
       y1="18.26"
       x1="14.59"
       y2="40.439999"
       x2="36.060001"
       gradientUnits="userSpaceOnUse" />
    <linearGradient
       id="c-7"
       y1="13.01"
       x1="25.040001"
       y2="30.26"
       x2="42.990002"
       gradientUnits="userSpaceOnUse">
      <stop
         stop-color="#292c2f"
         id="stop162" />
      <stop
         offset="1"
         stop-color="#292c2f"
         stop-opacity="0"
         id="stop164-5" />
    </linearGradient>
    <linearGradient
       xlink:href="#e"
       id="g"
       y1="12.375"
       x1="13.938"
       y2="28.542"
       x2="28.495001"
       gradientUnits="userSpaceOnUse" />
    <linearGradient
       id="e"
       y1="24.827"
       x1="10.281"
       y2="7.355"
       x2="3.5739999"
       gradientUnits="userSpaceOnUse"
       gradientTransform="matrix(-0.96593,0.25882,-0.25882,-0.96593,53.39,40.971)">
      <stop
         stop-color="#cfd5d5"
         id="stop188" />
      <stop
         offset="1"
         stop-color="#6f8181"
         id="stop190" />
    </linearGradient>
    <linearGradient
       xlink:href="#c-36"
       id="j"
       x1="29.653999"
       x2="19.886999"
       gradientUnits="userSpaceOnUse" />
    <linearGradient
       id="c-36"
       y1="23"
       x1="24"
       y2="39"
       x2="40"
       gradientUnits="userSpaceOnUse">
      <stop
         stop-color="#292c2f"
         id="stop178" />
      <stop
         offset="1"
         stop-opacity="0"
         id="stop180" />
    </linearGradient>
    <linearGradient
       id="b-7"
       y1="32.721001"
       y2="12.32"
       x1="33.404999"
       gradientUnits="userSpaceOnUse"
       x2="17.759001"
       gradientTransform="matrix(1.2189347,0,0,1.2189347,1.5751082,0.35219532)">
      <stop
         stop-color="#197cf1"
         id="stop173" />
      <stop
         offset="1"
         stop-color="#20bcfa"
         id="stop175" />
    </linearGradient>
    <linearGradient
       id="a-5"
       y1="12.997"
       y2="32.130001"
       x1="17.427999"
       x2="36.550999"
       gradientUnits="userSpaceOnUse"
       gradientTransform="matrix(1.2189347,0,0,1.2189347,1.5751082,0.35219532)">
      <stop
         stop-color="#abf9c7"
         id="stop168" />
      <stop
         offset="1"
         stop-color="#54d883"
         id="stop170" />
    </linearGradient>
    <linearGradient
       xlink:href="#c-36"
       id="h"
       y1="30.990999"
       x1="28.476"
       y2="41"
       x2="39.591999"
       gradientUnits="userSpaceOnUse" />
    <linearGradient
       xlink:href="#c-36"
       id="i"
       y1="13"
       x1="28"
       y2="19"
       x2="33.402"
       gradientUnits="userSpaceOnUse" />
    <linearGradient
       xlink:href="#e"
       id="f"
       y1="20.947001"
       x1="36.16"
       y2="39.029999"
       x2="49.299999"
       gradientUnits="userSpaceOnUse" />
    <linearGradient
       id="d-3"
       y1="12.911"
       x1="32.776001"
       y2="6.0840001"
       x2="27.52"
       gradientUnits="userSpaceOnUse">
      <stop
         stop-color="#95a5a6"
         id="stop183" />
      <stop
         offset="1"
         stop-color="#eff0f1"
         id="stop185" />
    </linearGradient>
  </defs>
  <path
     d="m 2.9999985,10.25 c 0,-4.0041748 3.245938,-7.25 7.2500005,-7.25 h 43.500003 c 4.004173,0 7.249999,3.2458252 7.249999,7.25 v 43.5 c 0,4.004173 -3.245827,7.25 -7.25,7.25 H 10.249999 C 6.2459365,61 2.9999985,57.754173 2.9999985,53.75 Z"
     id="path736"
     style="fill:#606c86;fill-opacity:1;stroke-width:3.625" />
  <path
     d="M 2.9999985,9.796875 C 2.9999985,6.0431877 6.2459365,3 10.249999,3 h 43.500003 c 4.004173,0 7.249999,3.0431877 7.249999,6.796875 v 40.781249 c 0,3.753693 -3.245827,6.796876 -7.25,6.796876 H 10.249999 c -4.0040625,0 -7.2500005,-3.043183 -7.2500005,-6.796876 z"
     id="path738"
     style="fill:#3b4252;fill-opacity:1;stroke-width:3.625" />
  <path
     style="opacity:0.2;stroke-width:1.03699"
     d="m 32.074257,9.522667 a 3.1579343,3.0646297 0 0 0 -0.222,0.0018 3.1579343,3.0646297 0 0 0 -2.5864,1.528311 3.1579343,3.0646297 0 0 0 1.155432,4.185951 3.1579343,3.0646297 0 0 0 3.240187,-0.04985 c 0.956435,1.007346 1.828366,2.286129 2.586382,3.774926 -3.953824,1.282479 -8.225659,3.405322 -12.056071,6.001558 -2.459182,1.666816 -4.449894,3.760897 -6.001316,6.011556 -0.06591,-0.07917 -0.141114,-0.155844 -0.205597,-0.235435 -3.122297,-3.852427 -4.430248,-8.012233 -3.322408,-10.580554 0.574572,-1.332094 1.363471,-1.905866 2.356113,-2.202714 0.992661,-0.296835 2.237033,-0.239541 3.458122,0.02397 2.442133,0.52698 4.662857,1.811651 4.662857,1.811651 a 1.0534005,1.0222768 0 1 0 1.089667,-1.749841 c 0,0 -2.419403,-1.436298 -5.296122,-2.057053 -0.719208,-0.155198 -1.476029,-0.262135 -2.240977,-0.275343 -0.764961,-0.01315 -1.537138,0.06739 -2.292403,0.293301 -1.510443,0.451699 -2.898658,1.556145 -3.680131,3.367893 -1.604278,3.719353 0.226413,8.45398 3.612305,12.631621 0.22212,0.274085 0.470829,0.538556 0.707245,0.808057 -1.411785,2.494362 -2.298799,5.087393 -2.693319,7.462052 A 3.1579343,3.0646297 0 0 0 12,43.231313 a 3.1579343,3.0646297 0 0 0 3.157943,3.064627 3.1579343,3.0646297 0 0 0 3.15793,-3.064627 3.1579343,3.0646297 0 0 0 -1.848298,-2.785293 c 0.34897,-1.872442 1.052415,-3.951565 2.123801,-5.997576 3.212938,3.126761 7.347571,5.73636 11.864865,6.925339 2.730947,0.718783 5.521426,0.894957 8.110702,0.788118 -0.193949,0.834865 -0.409669,1.640611 -0.668173,2.378273 -0.676161,1.929474 -1.571034,3.478132 -2.598713,4.48121 -1.027681,1.003109 -2.129575,1.485307 -3.499227,1.432579 -3.019825,-0.116201 -4.730221,-1.457418 -5.801861,-2.801304 -1.071655,-1.3439 -1.398052,-2.621699 -1.398052,-2.621699 a 1.0527506,1.0216457 0 1 0 -2.04361,0.486821 c 0,0 0.426884,1.693619 1.776317,3.38586 1.34945,1.692242 3.727025,3.450584 7.382918,3.591364 1.968202,0.07579 3.725711,-0.715014 5.076163,-2.033113 1.350399,-1.31811 2.352476,-3.137156 3.098296,-5.265347 0.349421,-0.997135 0.638419,-2.069202 0.87581,-3.19033 2.14533,-0.22375 4.034199,-0.615198 5.56135,-1.011556 a 3.1579343,3.0646297 0 0 0 4.093386,0.804053 3.1579343,3.0646297 0 0 0 1.155445,-4.185925 3.1579343,3.0646297 0 0 0 -2.808403,-1.532339 3.1579343,3.0646297 0 0 0 -1.504974,0.411042 3.1579343,3.0646297 0 0 0 -1.574832,2.525913 c -1.259681,0.304835 -2.818869,0.611377 -4.539553,0.82202 0.444173,-3.121031 0.508545,-6.538949 0.205591,-9.946072 -0.303984,-3.418925 -1.021045,-6.745525 -2.150522,-9.650793 0.02937,-0.0067 0.06107,-0.01703 0.09058,-0.02398 2.121139,-0.499444 4.003396,-0.640767 5.386585,-0.409013 1.3832,0.231759 2.19997,0.744416 2.648049,1.65202 2.136108,4.326842 -1.414475,9.062207 -1.414475,9.062207 a 1.0530594,1.0219452 0 0 0 1.685876,1.225064 c 0,0 4.390561,-5.569855 1.626263,-11.169141 -0.777033,-1.573921 -2.366615,-2.478121 -4.187979,-2.783315 -0.910694,-0.152582 -1.89467,-0.179646 -2.940003,-0.09989 -1.045331,0.07979 -2.151382,0.265828 -3.301856,0.536716 -0.139278,0.03265 -0.285032,0.0785 -0.425568,0.11375 -0.920861,-1.885915 -2.043994,-3.527149 -3.369718,-4.812433 A 3.1579343,3.0646297 0 0 0 33.579271,9.931242 3.1579343,3.0646297 0 0 0 32.074308,9.522227 Z m 5.030929,11.318796 c 1.097844,2.715787 1.857167,5.905629 2.152562,9.227807 0.306524,3.447161 0.201629,6.911972 -0.279608,9.982003 -2.574833,0.157085 -5.359473,0.03689 -7.970897,-0.650442 -4.265955,-1.122817 -8.300899,-3.732745 -11.338556,-6.805634 1.452134,-2.246913 3.359015,-4.350059 5.727876,-5.955696 3.730454,-2.5285 7.947909,-4.597014 11.708623,-5.798038 z m -6.157571,7.067005 c -2.311288,0 -4.210566,1.84316 -4.210566,4.086165 0,2.242991 1.899278,4.086182 4.210566,4.086182 2.311286,0 4.210597,-1.843191 4.210597,-4.086182 0,-2.243005 -1.899311,-4.086165 -4.210597,-4.086165 z"
     id="path3" />
  <path
     style="fill:none;stroke:#00b5d9;stroke-width:2.07381;stroke-linecap:round;stroke-opacity:1"
     d="m 46.758346,30.115266 c 0,0 3.970226,-5.152278 1.520036,-10.115326 -2.450204,-4.963068 -14.34218,-1.414891 -23.484472,4.781727 -6.581639,4.460988 -9.751632,12.325059 -9.635967,17.42867"
     id="path4" />
  <path
     style="fill:none;stroke:#00afd1;stroke-width:2.07381;stroke-linecap:round;stroke-opacity:1"
     d="m 23.579112,44.253415 c 0,0 1.504325,5.943729 8.180067,6.20076 6.67572,0.25706 9.505131,-10.711249 8.546455,-21.493078 -0.690126,-7.761946 -3.693125,-14.942489 -8.305363,-17.39705"
     id="path5" />
  <path
     style="fill:none;stroke:#00b4d8;stroke-width:2.07381;stroke-linecap:round;stroke-opacity:1"
     d="m 25.684384,17.897597 c 0,0 -9.28173,-5.439291 -11.993826,0.848412 -2.712108,6.287708 6.278999,17.787606 17.041564,20.620342 7.51247,1.977293 15.940612,-0.383996 18.110471,-1.242203"
     id="path6" />
  <path
     style="fill:#00aed1;fill-opacity:1;stroke-width:1.03699"
     d="m 30.947615,26.88717 c -2.311288,0 -4.210566,1.843176 -4.210566,4.086176 0,2.242996 1.899278,4.086188 4.210566,4.086188 2.311286,0 4.210597,-1.843192 4.210597,-4.086188 0,-2.243 -1.899311,-4.086176 -4.210597,-4.086176 z"
     id="path7" />
  <path
     style="fill:#00b4d8;fill-opacity:1;stroke-width:1.03699"
     d="m 31.852257,8.503382 a 3.1579343,3.0646297 0 0 0 -2.5864,1.528314 3.1579343,3.0646297 0 0 0 1.155432,4.185934 3.1579343,3.0646297 0 0 0 4.313396,-1.121287 3.1579343,3.0646297 0 0 0 -1.155457,-4.185937 3.1579343,3.0646297 0 0 0 -1.726971,-0.407024 z m 16.916332,26.556152 a 3.1579343,3.0646297 0 0 0 -1.504974,0.411015 3.1579343,3.0646297 0 0 0 -1.155417,4.185931 3.1579343,3.0646297 0 0 0 4.313349,1.121294 3.1579343,3.0646297 0 0 0 1.155445,-4.185947 3.1579343,3.0646297 0 0 0 -2.808403,-1.532293 z M 15.157943,39.145681 A 3.1579343,3.0646297 0 0 0 12,42.210337 a 3.1579343,3.0646297 0 0 0 3.157943,3.064624 3.1579343,3.0646297 0 0 0 3.15793,-3.064624 3.1579343,3.0646297 0 0 0 -3.15793,-3.064656 z"
     id="path9" />
  <path
     style="fill:#494c60;stroke-width:1.03699"
     d="m 32.000271,10.542494 a 1.0526448,1.0215433 0 0 0 -1.052656,1.021553 1.0526448,1.0215433 0 0 0 1.052656,1.021509 1.0526448,1.0215433 0 0 0 1.05262,-1.021509 1.0526448,1.0215433 0 0 0 -1.05262,-1.021553 z m 16.842322,26.560123 a 1.0526448,1.0215433 0 0 0 -1.052653,1.021531 1.0526448,1.0215433 0 0 0 1.052653,1.021533 1.0526448,1.0215433 0 0 0 1.052633,-1.021533 1.0526448,1.0215433 0 0 0 -1.052633,-1.021531 z m -33.68465,4.08616 a 1.0526448,1.0215433 0 0 0 -1.052659,1.02156 1.0526448,1.0215433 0 0 0 1.052659,1.021555 1.0526448,1.0215433 0 0 0 1.052655,-1.021555 1.0526448,1.0215433 0 0 0 -1.052655,-1.02156 z"
     id="path10" />
</svg>
