<?xml version="1.0" encoding="UTF-8" standalone="no"?>
<svg
   width="64"
   height="64"
   version="1.1"
   id="svg23117"
   sodipodi:docname="opera.svg"
   inkscape:version="1.2.1 (9c6d41e410, 2022-07-14)"
   xmlns:inkscape="http://www.inkscape.org/namespaces/inkscape"
   xmlns:sodipodi="http://sodipodi.sourceforge.net/DTD/sodipodi-0.dtd"
   xmlns:xlink="http://www.w3.org/1999/xlink"
   xmlns="http://www.w3.org/2000/svg"
   xmlns:svg="http://www.w3.org/2000/svg">
  <sodipodi:namedview
     id="namedview23119"
     pagecolor="#ffffff"
     bordercolor="#666666"
     borderopacity="1.0"
     inkscape:showpageshadow="2"
     inkscape:pageopacity="0.0"
     inkscape:pagecheckerboard="0"
     inkscape:deskcolor="#d1d1d1"
     showgrid="true"
     inkscape:zoom="6.9532167"
     inkscape:cx="27.325482"
     inkscape:cy="20.63793"
     inkscape:window-width="1920"
     inkscape:window-height="1000"
     inkscape:window-x="0"
     inkscape:window-y="0"
     inkscape:window-maximized="1"
     inkscape:current-layer="svg23117">
    <inkscape:grid
       type="xygrid"
       id="grid1124" />
  </sodipodi:namedview>
  <defs
     id="defs23105">
    <linearGradient
       id="a"
       y1="547.63397"
       y2="499.67899"
       x2="388.86499"
       gradientUnits="userSpaceOnUse"
       gradientTransform="translate(-453.04388,-539.81483)"
       x1="428.81601">
      <stop
         stop-color="#2a2c2f"
         id="stop23090" />
      <stop
         offset="1"
         stop-color="#536161"
         id="stop23092" />
    </linearGradient>
    <linearGradient
       id="b"
       y1="44"
       y2="12"
       x2="14"
       gradientUnits="userSpaceOnUse"
       x1="36"
       gradientTransform="translate(-68.473879,-40.014831)">
      <stop
         stop-color="#536161"
         style="stop-color:#bfc9c9;stop-opacity:1"
         id="stop23095" />
      <stop
         offset="1"
         stop-color="#f4f5f5"
         style="stop-color:#fbfbfb;stop-opacity:1"
         id="stop23097" />
    </linearGradient>
    <linearGradient
       id="c"
       y1="527.01398"
       x1="406.50101"
       y2="539.82501"
       x2="419.974"
       gradientUnits="userSpaceOnUse"
       gradientTransform="translate(-453.04388,-539.81483)">
      <stop
         stop-color="#292c2f"
         id="stop23100" />
      <stop
         offset="1"
         stop-opacity="0"
         id="stop23102" />
    </linearGradient>
    <linearGradient
       inkscape:collect="always"
       xlink:href="#linearGradient22063"
       id="linearGradient22065"
       x1="-14"
       y1="6"
       x2="-14"
       y2="-9.999999"
       gradientUnits="userSpaceOnUse"
       gradientTransform="matrix(3.6250002,0,0,3.6250002,82.750005,39.249999)" />
    <linearGradient
       inkscape:collect="always"
       id="linearGradient22063">
      <stop
         style="stop-color:#292f3a;stop-opacity:1;"
         offset="0"
         id="stop22059" />
      <stop
         style="stop-color:#535e75;stop-opacity:1;"
         offset="1"
         id="stop22061" />
    </linearGradient>
    <linearGradient
       gradientTransform="matrix(1.4175135,0,0,1.4175135,-0.97261301,0.3330346)"
       id="b-3"
       y1="23.774559"
       x1="22.540125"
       y2="35.804409"
       x2="35.770538"
       gradientUnits="userSpaceOnUse">
      <stop
         stop-color="#292c2f"
         id="stop12" />
      <stop
         offset="1"
         stop-color="#292c2f"
         stop-opacity="0"
         id="stop14" />
    </linearGradient>
    <linearGradient
       xlink:href="#linearGradient4564"
       id="linearGradient4570"
       x1="18.653"
       y1="20.191"
       x2="7.4320002"
       y2="8.5249996"
       gradientUnits="userSpaceOnUse"
       gradientTransform="matrix(0.99999999,0,0,1.1578948,8.0000025,3.1451316)" />
    <linearGradient
       id="linearGradient4564">
      <stop
         style="stop-color:#ffa92d;stop-opacity:1;"
         offset="0"
         id="stop4566" />
      <stop
         style="stop-color:#ffc169;stop-opacity:1"
         offset="1"
         id="stop4568" />
    </linearGradient>
    <linearGradient
       xlink:href="#linearGradient4574"
       id="linearGradient4580"
       x1="28.615"
       y1="21.502001"
       x2="39.939999"
       y2="10.118"
       gradientUnits="userSpaceOnUse"
       gradientTransform="matrix(0.99999999,0,0,1.1578948,8.0000025,3.1451316)" />
    <linearGradient
       id="linearGradient4574">
      <stop
         style="stop-color:#bf4231;stop-opacity:1;"
         offset="0"
         id="stop4576" />
      <stop
         style="stop-color:#f58273;stop-opacity:1"
         offset="1"
         id="stop4578" />
    </linearGradient>
    <linearGradient
       xlink:href="#linearGradient4590"
       id="linearGradient4596"
       x1="33.241001"
       y1="30.191"
       x2="40.393002"
       y2="37.416"
       gradientUnits="userSpaceOnUse"
       gradientTransform="matrix(0.99999999,0,0,1.1578948,8.0000025,3.1451316)" />
    <linearGradient
       id="linearGradient4590">
      <stop
         id="stop4594"
         offset="0"
         style="stop-color:#54d883;stop-opacity:1" />
      <stop
         id="stop4592"
         offset="1"
         style="stop-color:#3bb566;stop-opacity:1;" />
    </linearGradient>
    <linearGradient
       xlink:href="#linearGradient4582"
       id="linearGradient4588"
       x1="19.830999"
       y1="26.561001"
       x2="9.6899996"
       y2="37.881001"
       gradientUnits="userSpaceOnUse"
       gradientTransform="matrix(0.99999999,0,0,1.1578948,8.0000025,3.1451316)" />
    <linearGradient
       id="linearGradient4582">
      <stop
         id="stop4586"
         offset="0"
         style="stop-color:#7cbcec;stop-opacity:1" />
      <stop
         id="stop4584"
         offset="1"
         style="stop-color:#3b85b5;stop-opacity:1;" />
    </linearGradient>
    <linearGradient
       xlink:href="#linearGradient4626"
       id="linearGradient4632"
       x1="23.693001"
       y1="21.277"
       x2="34.937"
       y2="32.521999"
       gradientUnits="userSpaceOnUse"
       gradientTransform="matrix(1.1,0,0,1.1,5.6000025,4.5346056)" />
    <linearGradient
       id="linearGradient4626">
      <stop
         style="stop-color:#000000;stop-opacity:1;"
         offset="0"
         id="stop4628" />
      <stop
         style="stop-color:#000000;stop-opacity:0;"
         offset="1"
         id="stop4630" />
    </linearGradient>
    <linearGradient
       xlink:href="#linearGradient4598"
       id="linearGradient4604"
       x1="27.197001"
       y1="33.474998"
       x2="21.365999"
       y2="14.901"
       gradientUnits="userSpaceOnUse"
       gradientTransform="matrix(1.1,0,0,1.32,5.6000025,-0.74539444)" />
    <linearGradient
       id="linearGradient4598">
      <stop
         style="stop-color:#172525;stop-opacity:1;"
         offset="0"
         id="stop4600" />
      <stop
         style="stop-color:#334545;stop-opacity:1"
         offset="1"
         id="stop4602" />
    </linearGradient>
    <linearGradient
       xlink:href="#linearGradient4656"
       id="linearGradient4662"
       x1="19.025"
       y1="15.232"
       x2="29.945999"
       y2="31.764999"
       gradientUnits="userSpaceOnUse"
       gradientTransform="matrix(1.1,0,0,1.1,6.7000025,4.5346056)" />
    <linearGradient
       id="linearGradient4656">
      <stop
         style="stop-color:#ffffff;stop-opacity:1;"
         offset="0"
         id="stop4658" />
      <stop
         style="stop-color:#536161;stop-opacity:1"
         offset="1"
         id="stop4660" />
    </linearGradient>
    <linearGradient
       id="linearGradient6568"
       x1="27"
       x2="27"
       y1="50"
       y2="54"
       gradientTransform="translate(-88.228144,-33.961195)"
       gradientUnits="userSpaceOnUse">
      <stop
         stop-color="#51595b"
         offset="0"
         id="stop191" />
      <stop
         stop-color="#777c81"
         offset="1"
         id="stop193" />
    </linearGradient>
    <linearGradient
       id="linearGradient14245"
       x1="111.56055"
       x2="123.56055"
       y1="45.060547"
       y2="57.060547"
       gradientTransform="matrix(1.9896552,0,0,1.9896552,-207.3491,-47.529748)"
       gradientUnits="userSpaceOnUse"
       xlink:href="#linearGradient4626" />
    <linearGradient
       id="linearGradient14247"
       x1="125.43934"
       x2="133.56065"
       y1="35"
       y2="35"
       gradientTransform="matrix(1.9896552,0,0,1.9896552,-227.2457,-47.529748)"
       gradientUnits="userSpaceOnUse">
      <stop
         stop-color="#2980b9"
         offset="0"
         id="stop202" />
    </linearGradient>
    <linearGradient
       id="linearGradient14249"
       x1="115.5"
       x2="119.5"
       y1="39"
       y2="35"
       gradientTransform="matrix(1.9896552,0,0,1.9896552,-207.3491,-47.529748)"
       gradientUnits="userSpaceOnUse"
       xlink:href="#linearGradient4626" />
    <linearGradient
       id="linearGradient14251"
       x1="111.56055"
       x2="124.56055"
       y1="45.060547"
       y2="58.060547"
       gradientTransform="matrix(1.9896552,0,0,1.9896552,-190.55753,-39.691595)"
       gradientUnits="userSpaceOnUse"
       xlink:href="#linearGradient4626" />
    <linearGradient
       id="linearGradient14253"
       x1="131"
       x2="109.43934"
       y1="49"
       y2="30.939341"
       gradientTransform="matrix(1.9896552,0,0,1.9896552,-207.3491,-47.529748)"
       gradientUnits="userSpaceOnUse">
      <stop
         stop-color="#3498db"
         offset="0"
         id="stop207" />
      <stop
         stop-color="#3daee9"
         offset="1"
         id="stop209" />
    </linearGradient>
    <linearGradient
       id="a-3"
       y1="538.79999"
       y2="505.79999"
       x2="0"
       gradientUnits="userSpaceOnUse"
       gradientTransform="matrix(1.45455,0,0,1,-198.81,-31)">
      <stop
         stop-color="#bd8d48"
         id="stop190" />
      <stop
         offset="1"
         stop-color="#e8b971"
         id="stop192" />
    </linearGradient>
    <linearGradient
       id="b-6"
       x1="428.57001"
       x2="406.57001"
       gradientUnits="userSpaceOnUse"
       gradientTransform="matrix(1.45455,0,0,1,-575.38002,-491.79999)">
      <stop
         stop-color="#e3dfd6"
         id="stop195" />
      <stop
         offset="1"
         stop-color="#f4f1e8"
         id="stop197" />
    </linearGradient>
    <linearGradient
       xlink:href="#a-3"
       id="c-7"
       y1="538.79999"
       y2="506.72"
       x2="0"
       gradientUnits="userSpaceOnUse"
       gradientTransform="matrix(1.45455,0,0,1.12221,-575.38002,-553.63999)" />
    <linearGradient
       id="linearGradient532"
       y1="538.79999"
       y2="505.79999"
       x2="0"
       gradientUnits="userSpaceOnUse"
       gradientTransform="matrix(1.45455,0,0,1,-198.81,-31)">
      <stop
         stop-color="#bd8d48"
         id="stop528" />
      <stop
         offset="1"
         stop-color="#e8b971"
         id="stop530" />
    </linearGradient>
    <linearGradient
       id="d"
       y1="531.78998"
       y2="544.78998"
       x2="0"
       gradientUnits="userSpaceOnUse"
       gradientTransform="matrix(0.70711003,-0.70711,0.70711003,0.70711,-650.01003,-42.05999)">
      <stop
         id="stop201" />
      <stop
         offset="1"
         stop-opacity="0"
         id="stop203" />
    </linearGradient>
    <linearGradient
       id="e"
       y1="541.51001"
       x1="428.76001"
       y2="528.51001"
       gradientUnits="userSpaceOnUse"
       x2="430.47"
       gradientTransform="translate(-400.71001,-503.79299)">
      <stop
         stop-color="#ebc69a"
         id="stop206" />
      <stop
         offset="1"
         stop-color="#f4e0c8"
         id="stop208" />
    </linearGradient>
    <linearGradient
       gradientTransform="matrix(1.2218021,0,0,1.4006589,-4.9160419,-10.831211)"
       xlink:href="#linearGradient4143"
       id="linearGradient4555"
       x1="35"
       y1="44"
       x2="35"
       y2="7"
       gradientUnits="userSpaceOnUse" />
    <linearGradient
       id="linearGradient4143">
      <stop
         id="stop1180"
         offset="0"
         style="stop-color:#197cf1;stop-opacity:1" />
      <stop
         id="stop1182"
         offset="1"
         style="stop-color:#20bcfa;stop-opacity:1" />
    </linearGradient>
    <linearGradient
       gradientUnits="userSpaceOnUse"
       y2="18"
       x2="22"
       y1="4"
       x1="8"
       id="linearGradient4884-7"
       xlink:href="#linearGradient4227"
       gradientTransform="matrix(1.286815,0,0,1.2868151,16.530455,4.2529605)" />
    <linearGradient
       id="linearGradient4227">
      <stop
         offset="0"
         style="stop-color:#292c2f;stop-opacity:1"
         id="stop1324" />
      <stop
         offset="1"
         style="stop-color:#000000;stop-opacity:0;"
         id="stop1326" />
    </linearGradient>
    <filter
       id="d-3"
       x="-0.036"
       y="-0.03600006"
       width="1.072"
       height="1.0720001"
       color-interpolation-filters="sRGB">
      <feGaussianBlur
         stdDeviation="9"
         id="feGaussianBlur238" />
    </filter>
    <linearGradient
       inkscape:collect="always"
       xlink:href="#linearGradient975"
       id="linearGradient977"
       x1="20"
       y1="38"
       x2="20"
       y2="10"
       gradientUnits="userSpaceOnUse"
       gradientTransform="matrix(1.4604697,0,0,1.4604698,-3.6901353,-4.5481356)" />
    <linearGradient
       inkscape:collect="always"
       id="linearGradient975">
      <stop
         style="stop-color:#7e4ace;stop-opacity:1;"
         offset="0"
         id="stop971" />
      <stop
         style="stop-color:#d35f5f;stop-opacity:1"
         offset="0.46867633"
         id="stop1043" />
      <stop
         style="stop-color:#d40055;stop-opacity:1"
         offset="1"
         id="stop973" />
    </linearGradient>
    <linearGradient
       inkscape:collect="always"
       xlink:href="#linearGradient975"
       id="linearGradient356"
       gradientUnits="userSpaceOnUse"
       gradientTransform="matrix(0,35.98098,-35.980978,0,38.429952,12.474558)"
       x2="1" />
  </defs>
  <path
     d="M 3,10.25 C 3,6.245825 6.245938,3 10.25,3 h 43.500005 c 4.00417,0 7.25,3.245825 7.25,7.25 v 43.5 c 0,4.004173 -3.24583,7.25 -7.25,7.25 H 10.25 C 6.245938,61 3,57.754173 3,53.75 Z"
     id="path736"
     style="fill:#606c86;fill-opacity:1;stroke-width:3.625" />
  <path
     d="M 3,9.796875 C 3,6.043188 6.245938,3 10.25,3 h 43.500005 c 4.00417,0 7.25,3.043188 7.25,6.796875 v 40.781249 c 0,3.753693 -3.24583,6.796876 -7.25,6.796876 H 10.25 C 6.245938,57.375 3,54.331817 3,50.578124 Z"
     id="path738"
     style="fill:url(#linearGradient22065);fill-opacity:1;stroke-width:3.625" />
  <path
     id="path1340-0"
     d="m 39.841358,23.742619 -0.184558,2.800561 -2.977028,1.947354 -2.128353,1.406803 -3.061136,0.652982 -4.665306,0.725769 16.195064,16.669739 0.103805,-20.572559 z"
     style="opacity:0.2;fill:url(#linearGradient4884-7);fill-opacity:1;fill-rule:evenodd;stroke:none;stroke-width:1.2868px;stroke-linecap:butt;stroke-linejoin:miter;stroke-opacity:1"
     sodipodi:nodetypes="ccccccccc" />
  <g
     transform="matrix(0.06996279,0,0,0.06996279,-4.6311641,-5.0875223)"
     fill="#010101"
     filter="url(#d)"
     opacity="0.2"
     stroke-width="93.632"
     id="g254"
     style="filter:url(#d-3)">
    <path
       d="m 518.75,213.01 c -165.67,0 -300,134.33 -300,300 0,160.9 126.69,292.18 285.73,299.64 4.7761,0.23881 9.4925,0.35821 14.269,0.35821 76.836,0 146.87,-28.896 199.94,-76.358 -35.164,23.343 -76.299,36.716 -120.24,36.716 -71.463,0 -135.4,-35.463 -178.45,-91.343 -33.194,-39.164 -54.627,-97.015 -56.119,-161.97 v -14.149 c 1.4925,-64.955 22.925,-122.87 56.119,-161.97 43.045,-55.881 107.04,-91.343 178.45,-91.343 43.94,0 85.075,13.433 120.24,36.776 -52.776,-47.224 -122.45,-76.06 -198.81,-76.358 h -1.1343 z"
       id="path250" />
    <path
       d="m 420,343.94 c 27.522,-32.478 63.104,-52.119 101.91,-52.119 87.343,0 158.15,99.045 158.15,221.13 0,122.15 -70.806,221.13 -158.15,221.13 -38.866,0 -74.388,-19.582 -101.91,-52.06 43.045,55.881 106.99,91.343 178.45,91.343 43.94,0 85.075,-13.433 120.24,-36.716 61.433,-54.925 100.06,-134.75 100.06,-223.64 0,-88.836 -38.627,-168.72 -100.06,-223.64 -35.164,-23.343 -76.299,-36.716 -120.24,-36.716 -71.463,0 -135.4,35.463 -178.45,91.343"
       id="path252" />
  </g>
  <path
     d="m 31.391115,9.3913033 c -11.590252,0 -20.989268,9.3981527 -20.989268,20.9892727 0,11.256656 8.863577,20.441738 19.990764,20.964023 0.334148,0.01671 0.664119,0.02504 0.9983,0.02504 5.375653,0 10.275401,-2.02168 13.988814,-5.342179 -2.46014,1.633152 -5.338101,2.568769 -8.412278,2.568769 -4.999702,0 -9.472979,-2.481088 -12.484486,-6.390585 -2.322332,-2.740041 -3.821827,-6.78747 -3.926286,-11.33239 v -0.989903 c 0.10445,-4.544475 1.603845,-8.596283 3.926286,-11.332377 3.011507,-3.909603 7.488848,-6.390609 12.484486,-6.390609 3.074177,0 5.952138,0.939817 8.412278,2.572947 C 41.68738,11.429381 36.812746,9.4119796 31.469914,9.3911259 h -0.07928 z"
     stroke-width="6.5508"
     id="path256"
     style="fill:url(#linearGradient977);fill-opacity:1" />
  <path
     d="m 24.481729,18.552225 c 1.92556,-2.272293 4.414898,-3.646379 7.129926,-3.646379 6.1108,0 11.064662,6.929454 11.064662,15.471215 0,8.545921 -4.953764,15.471202 -11.064662,15.471202 -2.719188,0 -5.204366,-1.370023 -7.129926,-3.642218 3.011516,3.909609 7.485317,6.39061 12.484503,6.39061 3.074159,0 5.952135,-0.939819 8.412272,-2.568779 4.298031,-3.842675 7.000447,-9.427448 7.000447,-15.646754 0,-6.215263 -2.702416,-11.804207 -7.000447,-15.646771 -2.460137,-1.633134 -5.338113,-2.568768 -8.412272,-2.568768 -4.999722,0 -9.472987,2.481093 -12.484503,6.390589"
     stroke-width="6.5508"
     id="path258"
     style="fill:url(#linearGradient356);fill-opacity:1" />
</svg>
