<?xml version="1.0" encoding="UTF-8" standalone="no"?>
<svg
   width="64"
   height="64"
   version="1.1"
   id="svg7426"
   sodipodi:docname="aqsis.svg"
   inkscape:version="1.4 (unknown)"
   xmlns:inkscape="http://www.inkscape.org/namespaces/inkscape"
   xmlns:sodipodi="http://sodipodi.sourceforge.net/DTD/sodipodi-0.dtd"
   xmlns:xlink="http://www.w3.org/1999/xlink"
   xmlns="http://www.w3.org/2000/svg"
   xmlns:svg="http://www.w3.org/2000/svg">
  <sodipodi:namedview
     id="namedview7428"
     pagecolor="#ffffff"
     bordercolor="#666666"
     borderopacity="1.0"
     inkscape:showpageshadow="2"
     inkscape:pageopacity="0.0"
     inkscape:pagecheckerboard="0"
     inkscape:deskcolor="#d1d1d1"
     showgrid="false"
     inkscape:zoom="6.9532167"
     inkscape:cx="26.390663"
     inkscape:cy="15.46047"
     inkscape:window-width="1920"
     inkscape:window-height="996"
     inkscape:window-x="0"
     inkscape:window-y="0"
     inkscape:window-maximized="1"
     inkscape:current-layer="svg7426">
    <inkscape:grid
       id="grid1"
       units="px"
       originx="0"
       originy="0"
       spacingx="1"
       spacingy="1"
       empcolor="#0099e5"
       empopacity="0.30196078"
       color="#0099e5"
       opacity="0.14901961"
       empspacing="5"
       dotted="false"
       gridanglex="30"
       gridanglez="30"
       visible="false" />
  </sodipodi:namedview>
  <defs
     id="defs7410">
    <linearGradient
       id="linearGradient10050">
      <stop
         style="stop-color:#a3be8c;stop-opacity:1;"
         offset="0"
         id="stop10046" />
      <stop
         style="stop-color:#739755;stop-opacity:1;"
         offset="1"
         id="stop10048" />
    </linearGradient>
    <linearGradient
       id="linearGradient4154">
      <stop
         offset="0"
         style="stop-color:#000000;stop-opacity:1"
         id="stop7390" />
      <stop
         offset="1"
         style="stop-color:#000000;stop-opacity:0"
         id="stop7392" />
    </linearGradient>
    <linearGradient
       id="linearGradient4192">
      <stop
         style="stop-color:#272b2d;stop-opacity:1"
         offset="0"
         id="stop7395" />
      <stop
         style="stop-color:#33393e;stop-opacity:1"
         offset="1"
         id="stop7397" />
    </linearGradient>
    <linearGradient
       id="linearGradient4140">
      <stop
         style="stop-color:#279646;stop-opacity:1"
         offset="0"
         id="stop7400" />
      <stop
         style="stop-color:#76ff68;stop-opacity:1"
         offset="1"
         id="stop7402" />
    </linearGradient>
    <linearGradient
       xlink:href="#linearGradient4140"
       id="linearGradient4146"
       x1="24.705"
       y1="43.938999"
       x2="25.061001"
       y2="4.4050002"
       gradientUnits="userSpaceOnUse"
       gradientTransform="translate(107.1821,-36.883996)" />
    <linearGradient
       xlink:href="#linearGradient4192"
       id="linearGradient4166"
       x1="31"
       y1="34"
       x2="31"
       y2="24"
       gradientUnits="userSpaceOnUse"
       gradientTransform="translate(107.1821,-36.883996)" />
    <linearGradient
       xlink:href="#linearGradient4192"
       id="linearGradient4168"
       x1="18"
       y1="34"
       x2="18"
       y2="24"
       gradientUnits="userSpaceOnUse"
       gradientTransform="translate(107.1821,-36.883996)" />
    <linearGradient
       xlink:href="#linearGradient4154"
       id="linearGradient4182"
       x1="13"
       y1="24"
       x2="30"
       y2="41"
       gradientUnits="userSpaceOnUse"
       gradientTransform="translate(107.1821,-36.883996)" />
    <linearGradient
       xlink:href="#linearGradient4154"
       id="linearGradient4190"
       x1="29"
       y1="26"
       x2="36"
       y2="33"
       gradientUnits="userSpaceOnUse"
       gradientTransform="translate(107.1821,-36.883996)" />
    <linearGradient
       inkscape:collect="always"
       xlink:href="#linearGradient22063-0"
       id="linearGradient22065-6"
       x1="-22"
       y1="5.1111121"
       x2="-6.4444442"
       y2="-9.1111107"
       gradientUnits="userSpaceOnUse"
       gradientTransform="matrix(3.6250002,0,0,3.6250002,82.750001,39.249999)" />
    <linearGradient
       inkscape:collect="always"
       id="linearGradient22063-0">
      <stop
         style="stop-color:#b380ff;stop-opacity:1"
         offset="0"
         id="stop22059-6" />
      <stop
         style="stop-color:#1a80e2;stop-opacity:1;"
         offset="1"
         id="stop22061-2" />
    </linearGradient>
  </defs>
  <path
     d="m 2.9999985,10.25 c 0,-4.004175 3.245938,-7.25 7.2500005,-7.25 h 43.500003 c 4.004173,0 7.25,3.245825 7.25,7.25 v 43.5 c 0,4.004173 -3.245827,7.25 -7.25,7.25 H 10.249999 C 6.2459365,61 2.9999985,57.754173 2.9999985,53.75 Z"
     id="path736-7"
     style="fill:#606c86;fill-opacity:1;stroke-width:3.625" />
  <path
     d="M 2.9999985,9.796875 C 2.9999985,6.043188 6.2459365,3 10.249999,3 h 43.500003 c 4.004173,0 7.25,3.043188 7.25,6.796875 v 40.781249 c 0,3.753693 -3.245827,6.796876 -7.25,6.796876 H 10.249999 c -4.0040625,0 -7.2500005,-3.043183 -7.2500005,-6.796876 z"
     id="path738-9"
     style="fill:url(#linearGradient22065-6);fill-opacity:1;stroke-width:3.625" />
  <g
     id="g1"
     transform="translate(1.0000001,-44.999999)">
    <path
       d="m 40.579196,55.999877 -18.758863,3.880295 c -3.282965,0.392307 -3.548188,3.391797 -3.547868,3.387826 v 13.142503 c -0.605475,-0.159325 -1.228566,-0.241285 -1.854437,-0.244978 -4.096703,0 -7.4177132,3.298559 -7.4177132,7.367584 0,4.069015 3.3210102,7.36756 7.4177132,7.36756 3.735464,-0.0035 6.885586,-2.765505 7.352529,-6.446618 0,0 0.06524,-0.669816 0.06524,-0.920942 V 65.049709 l 14.835417,-3.184662 v 10.861352 c -0.605472,-0.159322 -1.228564,-0.241282 -1.854433,-0.244958 -4.096707,0 -7.41771,3.298544 -7.41771,7.367561 0,4.069023 -0.388179,5.525671 3.708541,5.525671 3.735464,-0.0035 6.885586,-2.765505 7.352531,-6.446619 l 0.06499,-0.920942 3.709187,-2.15235 V 58.94103 c 0,0 0.02537,-3.593902 -3.654986,-2.941153 z"
       id="path1"
       style="opacity:0.2;stroke-width:0.924075" />
    <path
       style="fill:#f8f2fd;fill-opacity:1;stroke-width:0.924075"
       d="m 40.579196,55.07925 -18.758863,3.880302 c -3.282965,0.392299 -3.548188,3.391795 -3.547868,3.38782 V 75.489876 C 17.66699,75.330554 17.043899,75.248598 16.418028,75.2449 c -4.096703,0 -7.4177132,3.298555 -7.4177132,7.36758 0,4.069001 3.3210102,7.367561 7.4177132,7.367561 3.735464,-0.0035 6.885586,-2.765507 7.352529,-6.446614 0,0 0.06524,-0.669836 0.06524,-0.920947 V 64.129083 L 38.671222,60.944427 V 71.80577 c -0.605475,-0.159319 -1.228567,-0.241279 -1.854436,-0.244973 -4.096707,0 -7.41771,3.29856 -7.41771,7.367577 0,4.069007 -0.388178,5.525675 3.708542,5.525675 3.735463,-0.0035 6.885583,-2.765504 7.352527,-6.446617 l 0.06498,-0.920945 3.709186,-0.876971 V 58.020402 c 0,0 0.02537,-3.593894 -3.654986,-2.941152 z"
       id="path2" />
    <path
       style="opacity:0.2;fill:#ffffff;stroke-width:1.8482"
       d="m 41.792963,55.019747 c -0.351525,-0.03579 -0.75331,-0.02049 -1.213341,0.06118 l -18.757991,3.87805 c -3.282963,0.392285 -3.549808,3.392749 -3.549486,3.388779 v 0.920947 c -3.22e-4,0.0038 0.266523,-2.996497 3.549486,-3.388781 L 40.579622,55.99827 c 3.680297,-0.652764 3.654519,2.942712 3.654519,2.942712 v -0.920945 c 0,0 0.01939,-2.749685 -2.441178,-3.00028 z m -4.976529,16.54105 c -4.096723,0 -7.417727,3.29856 -7.417727,7.367577 0,0.157627 0.03735,0.305306 0.04715,0.460467 0.243666,-3.850354 3.432625,-6.907094 7.370632,-6.907094 0.625868,0.0036 1.248945,0.08523 1.854418,0.244621 V 71.805426 C 38.065411,71.646104 37.442338,71.564492 36.816469,71.560797 Z M 16.417704,75.24458 C 12.321006,75.24458 9,78.543135 9,82.61216 c 0,0.157626 0.037263,0.305295 0.047079,0.460462 0.2436731,-3.850339 3.432625,-6.907098 7.370625,-6.907098 0.625873,0.0036 1.248969,0.08522 1.854441,0.244629 V 75.489206 C 17.666673,75.329884 17.043577,75.248274 16.417704,75.24458 Z"
       id="path3-3" />
    <path
       style="fill:#f6d656;fill-opacity:1;stroke-width:1.84822"
       d="M 52.5038,76.37978 C 50.185759,72.392087 40.765264,73.582132 38.695706,74.727422 l -16.862678,9.669019 c -0.889682,0.510194 -1.192331,1.632308 -0.678751,2.516014 l 6.490141,11.165002 c 0.513648,0.883681 1.643421,1.184371 2.53297,0.674172 l 16.862503,-9.669587 c 1.310743,-0.779887 7.781172,-8.715469 5.463137,-12.702969 z m -3.211862,1.8418 a 1.8543365,1.8418001 0 0 1 -0.678764,2.515845 1.8543365,1.8418001 0 0 1 -2.533148,-0.674152 1.8543365,1.8418001 0 0 1 0.678756,-2.516023 1.8543365,1.8418001 0 0 1 2.533156,0.674154 z"
       id="path4-2" />
    <path
       style="fill:#473a06;fill-opacity:1;stroke-width:1.84822"
       d="m 49.290087,78.221688 a 1.8543365,1.8418001 0 0 0 -2.53316,-0.674325 1.8543365,1.8418001 0 0 0 -0.678728,2.516934 1.8543365,1.8418001 0 0 0 2.533144,0.674138 1.8543365,1.8418001 0 0 0 0.678744,-2.516747 z m -0.802985,0.460286 c 0.261515,0.449897 0.113649,0.998237 -0.339381,1.257949 -0.452961,0.259749 -1.005039,0.11292 -1.26653,-0.337055 -0.261484,-0.449909 -0.113658,-0.998258 0.339373,-1.257961 0.452957,-0.259758 1.005047,-0.112907 1.26652,0.337086 z"
       id="path6" />
    <path
       style="fill:#473a06;fill-opacity:1;stroke-width:1.84822"
       d="m 23.687458,87.586586 0.92721,1.595096 1.605931,-0.920946 3.708676,6.380303 1.60593,-0.920949 -3.708671,-6.380299 1.605945,-0.92096 -0.927222,-1.595075 -1.605924,0.920941 -1.605931,0.920949 z m 6.423558,-3.683585 0.927164,1.595007 0.927183,1.595099 0.927181,1.595088 1.854336,3.190155 1.605948,-0.92091 -1.854323,-3.190156 1.605945,-0.920911 1.854344,3.190153 1.605945,-0.92089 -4.635892,-7.975221 -3.211855,1.841798 -1.605948,0.920911 z m 6.423556,-3.683604 0.92718,1.595007 3.708664,6.380121 1.605858,-0.920912 3.21188,-1.8418 -0.927181,-1.595091 -0.463587,-0.797547 0.802951,-0.460446 -0.92718,-1.594998 -3.211866,1.841798 0.92717,1.595003 0.802941,-0.460462 0.463601,0.797527 -1.605949,0.92091 -2.781466,-4.785247 3.211869,-1.841799 -0.927182,-1.595004 -4.817796,2.762658 z m -3.890593,4.357735 1.605943,-0.920907 0.927182,1.595095 -1.605944,0.920913 z"
       id="path7" />
    <path
       style="opacity:0.2;fill:#ffffff;stroke-width:0.924035"
       d="m 45.505492,73.62931 c -2.903434,-0.05775 -5.775534,0.524496 -6.810723,1.097218 l -16.863332,9.669623 c -0.734944,0.421459 -1.061045,1.260652 -0.865574,2.037887 0.12294,-0.454108 0.421275,-0.862164 0.86558,-1.116983 l 16.863332,-9.66962 c 2.071303,-1.145627 11.490438,-2.334585 13.808401,1.652926 0.272076,0.468051 0.418364,0.991525 0.47083,1.55042 0.07046,-0.908005 -0.05377,-1.755241 -0.471023,-2.471697 -1.158971,-1.993849 -4.093854,-2.692326 -6.997286,-2.750042 z"
       id="path8" />
  </g>
</svg>
