<?xml version="1.0" encoding="UTF-8" standalone="no"?>
<svg
   width="64"
   height="64"
   version="1.1"
   id="svg15515"
   sodipodi:docname="org.processing.processingide.svg"
   inkscape:version="1.4.2 (unknown)"
   xmlns:inkscape="http://www.inkscape.org/namespaces/inkscape"
   xmlns:sodipodi="http://sodipodi.sourceforge.net/DTD/sodipodi-0.dtd"
   xmlns:xlink="http://www.w3.org/1999/xlink"
   xmlns="http://www.w3.org/2000/svg"
   xmlns:svg="http://www.w3.org/2000/svg">
  <sodipodi:namedview
     id="namedview15517"
     pagecolor="#ffffff"
     bordercolor="#666666"
     borderopacity="1.0"
     inkscape:showpageshadow="2"
     inkscape:pageopacity="0.0"
     inkscape:pagecheckerboard="0"
     inkscape:deskcolor="#d1d1d1"
     showgrid="false"
     inkscape:zoom="4.9166667"
     inkscape:cx="24.406779"
     inkscape:cy="56.847457"
     inkscape:window-width="1920"
     inkscape:window-height="996"
     inkscape:window-x="0"
     inkscape:window-y="0"
     inkscape:window-maximized="1"
     inkscape:current-layer="svg15515" />
  <defs
     id="defs15483">
    <linearGradient
       id="linearGradient17391"
       y1="37.110001"
       x1="26.424999"
       y2="24"
       x2="44"
       gradientUnits="userSpaceOnUse">
      <stop
         stop-color="#2980b9"
         id="stop17387" />
      <stop
         offset="1"
         stop-color="#1d99f3"
         id="stop17389"
         style="stop-color:#5e81ac;stop-opacity:1;" />
    </linearGradient>
    <linearGradient
       id="linearGradient17385"
       y1="27.6"
       x1="31.537001"
       y2="31"
       x2="35.973"
       gradientUnits="userSpaceOnUse">
      <stop
         id="stop17381" />
      <stop
         offset="1"
         stop-opacity="0"
         id="stop17383"
         style="stop-color:#5e81ac;stop-opacity:0;" />
    </linearGradient>
    <linearGradient
       id="a"
       y1="37.110001"
       x1="26.424999"
       y2="24"
       x2="44"
       gradientUnits="userSpaceOnUse">
      <stop
         stop-color="#2980b9"
         id="stop15456" />
      <stop
         offset="1"
         stop-color="#1d99f3"
         id="stop15458" />
    </linearGradient>
    <linearGradient
       xlink:href="#a"
       id="b"
       y1="39.240002"
       x1="25.868999"
       y2="10.624"
       x2="24.539"
       gradientUnits="userSpaceOnUse" />
    <linearGradient
       id="c"
       y1="9.3859997"
       x1="8.8400002"
       y2="39.34"
       x2="37.922001"
       gradientUnits="userSpaceOnUse">
      <stop
         stop-color="#faf8f8"
         id="stop15462" />
      <stop
         offset="1"
         stop-color="#bfd2d2"
         id="stop15464" />
    </linearGradient>
    <linearGradient
       id="d"
       y1="16.621"
       x1="27.040001"
       y2="17.990999"
       x2="24.839001"
       gradientUnits="userSpaceOnUse">
      <stop
         stop-color="#fcfcfc"
         id="stop15467" />
      <stop
         offset="1"
         stop-color="#c7c7c7"
         id="stop15469" />
    </linearGradient>
    <linearGradient
       id="e"
       y1="27.6"
       x1="31.537001"
       y2="31"
       x2="35.973"
       gradientUnits="userSpaceOnUse">
      <stop
         id="stop15472" />
      <stop
         offset="1"
         stop-opacity="0"
         id="stop15474" />
    </linearGradient>
    <linearGradient
       xlink:href="#e"
       id="f"
       y1="19"
       x1="26"
       y2="30"
       x2="37"
       gradientUnits="userSpaceOnUse"
       gradientTransform="translate(-10,5)" />
    <linearGradient
       id="g"
       y1="23.643999"
       x1="3.783"
       y2="22.495001"
       x2="19.573999"
       gradientUnits="userSpaceOnUse">
      <stop
         stop-color="#2980b9"
         id="stop15478" />
      <stop
         offset="1"
         stop-color="#34495e"
         id="stop15480" />
    </linearGradient>
    <linearGradient
       inkscape:collect="always"
       xlink:href="#linearGradient22063-0"
       id="linearGradient22065-6"
       x1="-22"
       y1="5.1111121"
       x2="-6.4444442"
       y2="-9.1111107"
       gradientUnits="userSpaceOnUse"
       gradientTransform="matrix(3.6250002,0,0,3.6250002,82.750001,39.249999)" />
    <linearGradient
       inkscape:collect="always"
       id="linearGradient22063-0">
      <stop
         style="stop-color:#c6afe9;stop-opacity:1"
         offset="0"
         id="stop22059-6" />
      <stop
         style="stop-color:#e1e7ef;stop-opacity:1;"
         offset="1"
         id="stop22061-2" />
    </linearGradient>
    <linearGradient
       xlink:href="#linearGradient17391"
       id="b-6"
       y1="39.240002"
       x1="25.868999"
       y2="10.624"
       x2="24.539"
       gradientUnits="userSpaceOnUse" />
    <linearGradient
       xlink:href="#linearGradient17385"
       id="f-6"
       y1="19"
       x1="26"
       y2="30"
       x2="37"
       gradientUnits="userSpaceOnUse"
       gradientTransform="translate(-10,5)" />
    <linearGradient
       id="d-9"
       y1="16.621"
       x1="27.040001"
       y2="17.990999"
       x2="24.839001"
       gradientUnits="userSpaceOnUse">
      <stop
         stop-color="#fcfcfc"
         id="stop15467-4" />
      <stop
         offset="1"
         stop-color="#c7c7c7"
         id="stop15469-9" />
    </linearGradient>
    <linearGradient
       id="g-0"
       y1="23.643999"
       x1="3.783"
       y2="22.495001"
       x2="19.573999"
       gradientUnits="userSpaceOnUse">
      <stop
         stop-color="#2980b9"
         id="stop15478-9" />
      <stop
         offset="1"
         stop-color="#34495e"
         id="stop15480-1" />
    </linearGradient>
  </defs>
  <path
     d="M 2.9999985,10.250001 C 2.9999985,6.245825 6.2459365,3 10.249999,3 h 43.500003 c 4.004173,0 7.25,3.245825 7.25,7.250001 v 43.5 c 0,4.004173 -3.245827,7.25 -7.25,7.25 H 10.249999 c -4.0040625,0 -7.2500005,-3.245827 -7.2500005,-7.25 z"
     id="path736-7"
     style="fill:#606c86;fill-opacity:1;stroke-width:3.625" />
  <path
     d="M 2.9999985,9.7968755 C 2.9999985,6.043188 6.2459365,3 10.249999,3 h 43.500003 c 4.004173,0 7.25,3.043188 7.25,6.7968755 V 50.578125 c 0,3.753693 -3.245827,6.796876 -7.25,6.796876 H 10.249999 c -4.0040625,0 -7.2500005,-3.043183 -7.2500005,-6.796876 z"
     id="path738-9"
     style="fill:url(#linearGradient22065-6);fill-opacity:1;stroke-width:3.625"
     sodipodi:nodetypes="sssssssss" />
  <g
     id="g1"
     transform="matrix(1.272728,0,0,1.266667,0.81817614,-101.73337)"
     style="stroke-width:0.787591">
    <ellipse
       style="opacity:0.1;stroke-width:0.787565"
       cx="24.49999"
       cy="105.94737"
       id="circle2"
       rx="16.49999"
       ry="16.210524" />
    <ellipse
       style="fill:#373e48;stroke-width:0.787565"
       cx="24.49999"
       cy="105.21053"
       id="circle3"
       rx="16.49999"
       ry="16.210524" />
    <path
       style="opacity:0.2;stroke-width:0.787565"
       d="m 19.151555,97.842454 a 1.3699717,1.3141318 0 0 0 -1.401564,1.314765 v 13.581671 a 1.3699717,1.3141318 0 0 0 2.054719,1.13781 l 6.130423,-3.39451 6.130419,-3.39623 a 1.3699717,1.3141318 0 0 0 0,-2.27553 l -6.130323,-3.39678 -6.130328,-3.394963 A 1.3699717,1.3141318 0 0 0 19.15146,97.842184 Z"
       id="path3-3" />
    <path
       style="fill:#ffffff;stroke-width:0.787565"
       d="m 19.151555,97.105613 a 1.3699717,1.3141318 0 0 0 -1.401564,1.314762 v 13.581675 a 1.3699717,1.3141318 0 0 0 2.054719,1.13781 l 6.130423,-3.39452 6.130419,-3.39623 a 1.3699717,1.3141318 0 0 0 0,-2.27553 l -6.130323,-3.39676 -6.130328,-3.394976 A 1.3699717,1.3141318 0 0 0 19.15146,97.105341 Z"
       id="path4-3" />
  </g>
</svg>
