<?xml version="1.0" encoding="UTF-8" standalone="no"?>
<svg
   width="48"
   height="48"
   version="1.1"
   id="svg32"
   sodipodi:docname="typora.svg"
   inkscape:version="1.3.2 (091e20ef0f, 2023-11-25)"
   xmlns:inkscape="http://www.inkscape.org/namespaces/inkscape"
   xmlns:sodipodi="http://sodipodi.sourceforge.net/DTD/sodipodi-0.dtd"
   xmlns:xlink="http://www.w3.org/1999/xlink"
   xmlns="http://www.w3.org/2000/svg"
   xmlns:svg="http://www.w3.org/2000/svg"
   xmlns:rdf="http://www.w3.org/1999/02/22-rdf-syntax-ns#"
   xmlns:cc="http://creativecommons.org/ns#"
   xmlns:dc="http://purl.org/dc/elements/1.1/">
  <sodipodi:namedview
     id="namedview32"
     pagecolor="#ffffff"
     bordercolor="#999999"
     borderopacity="1"
     inkscape:showpageshadow="2"
     inkscape:pageopacity="0"
     inkscape:pagecheckerboard="0"
     inkscape:deskcolor="#d1d1d1"
     inkscape:zoom="5.6273915"
     inkscape:cx="5.1533646"
     inkscape:cy="20.080352"
     inkscape:window-width="1920"
     inkscape:window-height="996"
     inkscape:window-x="0"
     inkscape:window-y="0"
     inkscape:window-maximized="1"
     inkscape:current-layer="svg32" />
  <metadata
     id="metadata1">
    <rdf:RDF>
      <cc:Work
         rdf:about="">
        <dc:format>image/svg+xml</dc:format>
        <dc:type
           rdf:resource="http://purl.org/dc/dcmitype/StillImage" />
      </cc:Work>
    </rdf:RDF>
  </metadata>
  <defs
     id="defs8">
    <linearGradient
       id="a"
       x1="428.81601"
       x2="388.86499"
       y1="547.63397"
       y2="499.67899"
       gradientTransform="translate(-384.57,-499.8)"
       gradientUnits="userSpaceOnUse">
      <stop
         stop-color="#bdc3c7"
         offset="0"
         id="stop1" />
      <stop
         stop-color="#eff0f1"
         offset="1"
         id="stop2" />
    </linearGradient>
    <linearGradient
       id="c"
       x1="406.501"
       x2="419.974"
       y1="527.014"
       y2="539.825"
       gradientTransform="translate(-391.5697,-499.8)"
       gradientUnits="userSpaceOnUse">
      <stop
         stop-color="#292c2f"
         offset="0"
         id="stop3" />
      <stop
         stop-opacity="0"
         offset="1"
         id="stop4" />
    </linearGradient>
    <linearGradient
       id="linearGradient70363"
       x1="24"
       x2="24"
       y1="37"
       y2="12"
       gradientUnits="userSpaceOnUse">
      <stop
         stop-color="#2c3e50"
         offset="0"
         id="stop5" />
      <stop
         stop-color="#34495e"
         offset="1"
         id="stop6" />
    </linearGradient>
    <linearGradient
       id="linearGradient70391"
       x1="24"
       x2="24"
       y1="51"
       y2="4"
       gradientUnits="userSpaceOnUse">
      <stop
         stop-color="#7f8c8d"
         stop-opacity="0"
         offset="0"
         id="stop7" />
      <stop
         stop-color="#7f8c8d"
         offset="1"
         id="stop8" />
    </linearGradient>
    <linearGradient
       id="linearGradient70552"
       x1="18.474609"
       x2="34"
       y1="13"
       y2="28.525391"
       gradientUnits="userSpaceOnUse"
       xlink:href="#c" />
    <linearGradient
       id="linearGradient70571"
       x1="7"
       x2="11.933349"
       y1="37"
       y2="41.93335"
       gradientTransform="translate(0,-30)"
       gradientUnits="userSpaceOnUse"
       xlink:href="#c" />
    <linearGradient
       id="linearGradient70575"
       x1="7"
       x2="11.933349"
       y1="37"
       y2="41.93335"
       gradientTransform="translate(32,-30)"
       gradientUnits="userSpaceOnUse"
       xlink:href="#c" />
    <linearGradient
       id="linearGradient70579"
       x1="7"
       x2="11.933349"
       y1="37"
       y2="41.93335"
       gradientTransform="translate(32)"
       gradientUnits="userSpaceOnUse"
       xlink:href="#c" />
    <linearGradient
       id="linearGradient70596"
       x1="7"
       x2="11.933349"
       y1="37"
       y2="41.93335"
       gradientUnits="userSpaceOnUse"
       xlink:href="#c" />
  </defs>
  <rect
     x="4"
     y="4"
     width="40"
     height="40"
     rx="6"
     ry="6"
     fill="#95a5a6"
     id="rect8" />
  <rect
     x="4"
     y="4"
     width="40"
     height="39"
     rx="6"
     ry="6"
     fill="url(#a)"
     id="rect9" />
  <g
     id="g1"
     transform="matrix(0.98147102,0,0,1,-3.1973287,-4.5)"
     style="stroke-width:1.00939">
    <path
       d="M 8.459857,31.607061 45.302391,27.348178"
       fill="none"
       stroke="#dcdcdc"
       stroke-width="0.50002"
       id="path36"
       style="stroke:#808080;stroke-opacity:1" />
    <path
       d="m 10.522393,37.417331 29.579681,-3.22533"
       fill="none"
       stroke="#dcdcdc"
       stroke-width="0.50002"
       id="path38"
       style="stroke:#808080;stroke-opacity:1" />
    <path
       d="M 7.361764,25.482636 45.874936,21.0962"
       fill="none"
       stroke="#dcdcdc"
       stroke-width="0.50002"
       id="path44"
       style="stroke:#808080;stroke-opacity:1" />
    <path
       d="m 41.312634,34.136624 4.683253,-0.535256"
       fill="none"
       stroke="#dcdcdc"
       stroke-width="0.50002"
       id="path72"
       style="stroke:#808080;stroke-opacity:1" />
    <path
       d="m 46.928145,20.431395 1.159159,10.405003 a 20.655029,20.952359 0 0 0 0.0013,-0.0054 L 46.932129,20.443335 a 20.655029,20.952359 0 0 0 -0.0027,-0.01221 h -0.0013 z"
       color="#000000"
       fill="#fafafa"
       stroke-width="0.69997"
       id="path84" />
    <path
       d="M 36.654887,14 14.7,15.935745 l 0.245536,9.078974 1.576062,-0.138962 c 0.09508,-1.856269 0.326003,-2.58945 0.662476,-3.801764 0.713962,-2.797824 2.456347,-3.145255 4.948722,-3.365004 1.209535,-0.106644 1.697759,-0.434731 1.778505,0.482096 l 1.666589,18.923256 c 0.164724,1.870323 0.171183,1.943668 -0.01965,2.293114 -0.260922,0.392584 -0.9444,0.600678 -3.033597,0.784882 l -0.952968,0.08403 0.151802,1.723632 12.571832,-1.108452 -0.151819,-1.723625 -0.952962,0.08403 c -2.052555,0.180986 -2.76187,0.09566 -3.087389,-0.245197 -0.248984,-0.310664 -0.255445,-0.384 -0.420165,-2.254334 L 28.016389,17.829144 c -0.08076,-0.916827 0.457302,-0.679228 1.666837,-0.785869 2.235803,-0.197133 4.039028,-0.273186 5.149134,1.846403 0.669287,1.308426 1.114262,2.166802 1.591578,4.231309 L 38,22.98203 Z"
       id="path17783"
       sodipodi:nodetypes="cccccssscsccccscssscccc"
       style="font-size:362.163px;font-family:C059;-inkscape-font-specification:C059;fill:#2c2c2c;fill-opacity:1;stroke-width:0.176004" />
  </g>
</svg>
