<?xml version="1.0" encoding="UTF-8" standalone="no"?>
<svg
   viewBox="0 0 32 32"
   version="1.1"
   id="svg1"
   sodipodi:docname="system-user-prompt.svg"
   inkscape:version="1.3.2 (091e20ef0f, 2023-11-25)"
   width="32"
   height="32"
   xmlns:inkscape="http://www.inkscape.org/namespaces/inkscape"
   xmlns:sodipodi="http://sodipodi.sourceforge.net/DTD/sodipodi-0.dtd"
   xmlns:xlink="http://www.w3.org/1999/xlink"
   xmlns="http://www.w3.org/2000/svg"
   xmlns:svg="http://www.w3.org/2000/svg">
  <sodipodi:namedview
     id="namedview1"
     pagecolor="#ffffff"
     bordercolor="#999999"
     borderopacity="1"
     inkscape:showpageshadow="2"
     inkscape:pageopacity="0"
     inkscape:pagecheckerboard="0"
     inkscape:deskcolor="#d1d1d1"
     inkscape:zoom="8.4189901"
     inkscape:cx="21.617795"
     inkscape:cy="25.656284"
     inkscape:window-width="1920"
     inkscape:window-height="996"
     inkscape:window-x="0"
     inkscape:window-y="0"
     inkscape:window-maximized="1"
     inkscape:current-layer="svg1" />
  <defs
     id="defs3051">
    <linearGradient
       id="linearGradient1"
       inkscape:collect="always">
      <stop
         style="stop-color:#4e9fac;stop-opacity:1;"
         offset="0"
         id="stop1" />
      <stop
         style="stop-color:#4e51ac;stop-opacity:1;"
         offset="1"
         id="stop2" />
    </linearGradient>
    <style
       type="text/css"
       id="current-color-scheme">.ColorScheme-Text {color:#fcfcfc;}</style>
    <radialGradient
       inkscape:collect="always"
       xlink:href="#linearGradient1"
       id="radialGradient1"
       cx="16"
       cy="16"
       fx="16"
       fy="16"
       r="11.976562"
       gradientTransform="matrix(1,0,0,1.001957,0,-0.031311)"
       gradientUnits="userSpaceOnUse" />
    <linearGradient
       inkscape:collect="always"
       xlink:href="#linearGradient1461"
       id="linearGradient8091"
       gradientUnits="userSpaceOnUse"
       gradientTransform="matrix(0.50999969,0,0,0.43500136,83.030041,-253.51836)"
       x1="-102.0043"
       y1="603.54297"
       x2="-102.0043"
       y2="633.27283" />
    <linearGradient
       inkscape:collect="always"
       id="linearGradient1461">
      <stop
         style="stop-color:#8d5fd3;stop-opacity:1"
         offset="0"
         id="stop1457" />
      <stop
         style="stop-color:#00ffff;stop-opacity:1"
         offset="1"
         id="stop1459" />
    </linearGradient>
  </defs>
  <path
     style="fill:url(#radialGradient1);fill-opacity:1;stroke:none"
     d="M 18,-47 A 12,12 0 0 0 6.1289062,-36.355469 H 29.898438 A 12,12 0 0 0 18,-47 Z m 0,1.275391 a 10.724531,10.724531 0 0 1 10.455078,8.351562 H 7.5742188 A 10.724531,10.724531 0 0 1 18,-45.724609 Z M 10.5,-40.25 v 1.5 h 5 v -1.5 z m 6,0 v 1.5 h 3 v -1.5 z m 4,0 v 1.5 h 5 v -1.5 z M 6.0234375,-34.664062 A 12,12 0 0 0 18,-23 12,12 0 0 0 29.976562,-34.664062 Z m 1.3613281,1.037109 H 28.632812 A 10.724531,10.724531 0 0 1 18,-24.275391 10.724531,10.724531 0 0 1 7.3847656,-33.626953 Z M 12,-32 c -0.828425,0 -1.5,0.671575 -1.5,1.5 0,0.828425 0.671575,1.5 1.5,1.5 0.828425,0 1.5,-0.671575 1.5,-1.5 0,-0.828425 -0.671575,-1.5 -1.5,-1.5 z m 4,0 c -0.828425,0 -1.5,0.671575 -1.5,1.5 0,0.828425 0.671575,1.5 1.5,1.5 0.828425,0 1.5,-0.671575 1.5,-1.5 0,-0.828425 -0.671575,-1.5 -1.5,-1.5 z m 4,0 c -0.828425,0 -1.5,0.671575 -1.5,1.5 0,0.828425 0.671575,1.5 1.5,1.5 0.828425,0 1.5,-0.671575 1.5,-1.5 0,-0.828425 -0.671575,-1.5 -1.5,-1.5 z m 4,0 c -0.828425,0 -1.5,0.671575 -1.5,1.5 0,0.828425 0.671575,1.5 1.5,1.5 0.828425,0 1.5,-0.671575 1.5,-1.5 0,-0.828425 -0.671575,-1.5 -1.5,-1.5 z"
     class="ColorScheme-Text"
     id="path1" />
  <g
     id="system-log-out">
    <path
       style="color:#000000;overflow:visible;opacity:0;fill:none;fill-opacity:1;stroke-width:1.06667"
       id="path951"
       overflow="visible"
       d="M 16,0 C 7.17237,0 0,7.17237 0,16 0,24.82763 7.17237,32 16,32 24.82763,32 32,24.82763 32,16 32,7.17237 24.82763,0 16,0 Z"
       inkscape:connector-curvature="0" />
    <path
       inkscape:connector-curvature="0"
       id="path9068-9-37-8-0-1-6-2-2"
       d="m 26,5.9 -20.2,5e-6 v 17.399994 h 20.4 z"
       style="display:inline;overflow:visible;visibility:visible;opacity:0.6;fill:url(#linearGradient8091);fill-opacity:1;fill-rule:nonzero;stroke:none;stroke-width:0.659415;marker:none"
       sodipodi:nodetypes="cccccc" />
    <path
       d="M 22.963626,4 H 9.036072 C 7.700891,4.0015 6.420748,4.532573 5.476754,5.476774 4.532568,6.420787 4.001525,7.700875 4,9.036069 v 13.92805 -1.89e-4 c 0.0015,1.335156 0.532568,2.615282 1.476754,3.559295 C 6.420748,27.467426 7.700891,27.99845 9.036072,28 h 13.928035 -1.94e-4 c 1.335183,-0.0015 2.615324,-0.532574 3.559318,-1.476775 0.944187,-0.944013 1.475232,-2.224139 1.476755,-3.559295 V 9.036333 C 27.998186,7.701177 27.467418,6.421051 26.523231,5.477039 25.579237,4.532837 24.299096,4.001814 22.963912,4.000264 Z M 9.2,6.000012 h 13.6 c 0.887095,0.0011 1.603761,0.04384 2.231,0.671244 0.627232,0.627213 0.967901,1.441663 0.969001,2.328756 V 23.000025 H 6 V 9.000012 C 6.0011,8.112919 6.341775,7.298507 6.969,6.671256 7.596201,6.044044 8.312916,6.001108 9.2,6.000012 Z"
       id="path1193-3-3"
       style="color:#d3dae3;fill:#d3dae3;fill-opacity:1;stroke-width:0.047619"
       sodipodi:nodetypes="ccccccccccccccccccccccccc"
       class="ColorScheme-Text" />
  </g>
  <ellipse
     style="fill:#d3dae3;fill-opacity:1;stroke-width:0.0724289"
     cx="-5.10221"
     cy="-21.140917"
     id="circle3581_2_-2-36-2"
     transform="rotate(165.00001)"
     rx="1.5999991"
     ry="1.5999992" />
  <path
     d="M 25.59999,14.299997 H 6.4 v 0 0.799998 h 19.19999 v 0 z"
     id="path2653-4-8"
     style="fill:#d3dae3;fill-opacity:1;stroke-width:0.349928"
     sodipodi:nodetypes="ccccccc" />
  <path
     d="M 11.999997,8.7 H 8.799998 v 0 3.199997 h 3.199999 v 0 z"
     id="path2653-4-3-97"
     style="fill:#d3dae3;fill-opacity:1;stroke-width:0.349928"
     sodipodi:nodetypes="ccccccc" />
  <ellipse
     style="fill:#d3dae3;fill-opacity:1;stroke-width:0.0724289"
     cx="-15.920588"
     cy="-24.039637"
     id="circle3581_2_-2-36-6-3"
     transform="rotate(165.00001)"
     rx="1.5999991"
     ry="1.5999992" />
  <ellipse
     style="fill:#d3dae3;fill-opacity:1;stroke-width:0.0724289"
     cx="-10.511404"
     cy="-22.590246"
     id="circle3581_2_-2-36-56-6"
     transform="rotate(165.00001)"
     rx="1.5999991"
     ry="1.5999992" />
  <path
     d="m 17.599992,8.7 h -3.199997 v 0 3.199999 h 3.199997 v 0 z"
     id="path2653-4-3-9-12"
     style="fill:#d3dae3;fill-opacity:1;stroke-width:0.349928"
     sodipodi:nodetypes="ccccccc" />
  <path
     d="m 23.19999,8.7 h -3.199999 v 0 3.199999 h 3.199999 v 0 z"
     id="path2653-4-3-9-1-9"
     style="fill:#d3dae3;fill-opacity:1;stroke-width:0.349928"
     sodipodi:nodetypes="ccccccc" />
</svg>
