<?xml version="1.0" encoding="UTF-8" standalone="no"?>
<svg
   width="32"
   height="32"
   version="1.1"
   id="svg30"
   sodipodi:docname="accessories.svg"
   inkscape:version="1.3 (0e150ed6c4, 2023-07-21)"
   xmlns:inkscape="http://www.inkscape.org/namespaces/inkscape"
   xmlns:sodipodi="http://sodipodi.sourceforge.net/DTD/sodipodi-0.dtd"
   xmlns:xlink="http://www.w3.org/1999/xlink"
   xmlns="http://www.w3.org/2000/svg"
   xmlns:svg="http://www.w3.org/2000/svg">
  <sodipodi:namedview
     id="namedview32"
     pagecolor="#ffffff"
     bordercolor="#000000"
     borderopacity="1"
     inkscape:showpageshadow="false"
     inkscape:pageopacity="0"
     inkscape:pagecheckerboard="false"
     inkscape:deskcolor="#cccccc"
     showgrid="false"
     inkscape:zoom="5.2149125"
     inkscape:cx="42.666104"
     inkscape:cy="3.355761"
     inkscape:window-width="1920"
     inkscape:window-height="994"
     inkscape:window-x="0"
     inkscape:window-y="0"
     inkscape:window-maximized="1"
     inkscape:current-layer="svg30">
    <inkscape:grid
       type="xygrid"
       id="grid515"
       originx="0"
       originy="-21.999998"
       spacingy="1"
       spacingx="1"
       units="px"
       visible="false" />
  </sodipodi:namedview>
  <defs
     id="defs5"><linearGradient
   inkscape:collect="always"
   id="linearGradient2">
  <stop
     style="stop-color:#d05656;stop-opacity:1;"
     offset="0"
     id="stop1" />
  <stop
     style="stop-color:#8d5fd3;stop-opacity:1;"
     offset="1"
     id="stop2" />
</linearGradient>
<style
   id="current-color-scheme"
   type="text/css">&#10;   .ColorScheme-Background {color:#181818; } .ColorScheme-ButtonBackground { color:#343434; } .ColorScheme-Highlight { color:#4285f4; } .ColorScheme-Text { color:#dfdfdf; } .ColorScheme-ViewBackground { color:#242424; } .ColorScheme-NegativeText { color:#f44336; } .ColorScheme-PositiveText { color:#4caf50; } .ColorScheme-NeutralText { color:#ff9800; }&#10;  </style>
<linearGradient
   inkscape:collect="always"
   xlink:href="#linearGradient2"
   id="linearGradient3478"
   gradientUnits="userSpaceOnUse"
   x1="1.1767771"
   y1="30.760855"
   x2="20.659502"
   y2="9.44522"
   gradientTransform="matrix(0.71518336,0,0,0.75583331,4.714578,3.2491669)" />
<linearGradient
   inkscape:collect="always"
   xlink:href="#linearGradient2"
   id="linearGradient6958"
   gradientUnits="userSpaceOnUse"
   gradientTransform="matrix(0.43219985,0,0,0.36977631,-52.533368,-217.895)"
   x1="126.99998"
   y1="636.36224"
   x2="153.94121"
   y2="608.80829" />
<filter
   inkscape:collect="always"
   id="filter3031"
   x="-0.03523438"
   y="-0.031785376"
   width="1.0704688"
   height="1.0635708">
  <feGaussianBlur
     inkscape:collect="always"
     stdDeviation="0.26804993"
     id="feGaussianBlur3033" />
</filter>
<filter
   inkscape:collect="always"
   id="filter3035"
   x="-0.035238178"
   y="-0.031815188"
   width="1.0704764"
   height="1.0636304">
  <feGaussianBlur
     inkscape:collect="always"
     stdDeviation="0.26774803"
     id="feGaussianBlur3037" />
</filter>
<radialGradient
   id="XMLID_9_"
   cx="7.2905002"
   cy="30.882299"
   r="193.40891"
   gradientTransform="matrix(0.25294233,0.01221171,6.6009239e-4,0.21795743,0.53767794,-4.9812381)"
   gradientUnits="userSpaceOnUse">&#10;			<stop
   offset="0.4852"
   style="stop-color:#FFFFFF"
   id="stop127" />
&#10;			<stop
   offset="0.9053"
   style="stop-color:#D3D7CF"
   id="stop129" />
&#10;		</radialGradient>
<radialGradient
   id="XMLID_10_"
   cx="9.0815001"
   cy="29.642099"
   r="185.8085"
   gradientTransform="matrix(0.25294233,0.01221171,6.6009239e-4,0.21795743,0.53767794,-4.9812381)"
   gradientUnits="userSpaceOnUse">&#10;			<stop
   offset="0.4852"
   style="stop-color:#FFFFFF"
   id="stop134" />
&#10;			<stop
   offset="0.9053"
   style="stop-color:#D3D7CF"
   id="stop136" />
&#10;		</radialGradient>
<radialGradient
   id="XMLID_11_"
   cx="4.6436"
   cy="23.8081"
   r="192.9373"
   gradientTransform="matrix(0.25294233,0.01221171,6.6009239e-4,0.21795743,0.53767794,-4.9812381)"
   gradientUnits="userSpaceOnUse">&#10;			<stop
   offset="0.4852"
   style="stop-color:#FFFFFF"
   id="stop141" />
&#10;			<stop
   offset="0.9053"
   style="stop-color:#D3D7CF"
   id="stop143" />
&#10;		</radialGradient>
<filter
   inkscape:collect="always"
   id="filter3031-3"
   x="-0.03523438"
   y="-0.031785376"
   width="1.0704688"
   height="1.0635708">
  <feGaussianBlur
     inkscape:collect="always"
     stdDeviation="0.26804993"
     id="feGaussianBlur3033-5" />
</filter>
<filter
   inkscape:collect="always"
   id="filter3035-6"
   x="-0.035238178"
   y="-0.031815188"
   width="1.0704764"
   height="1.0636304">
  <feGaussianBlur
     inkscape:collect="always"
     stdDeviation="0.26774803"
     id="feGaussianBlur3037-2" />
</filter>
<radialGradient
   id="XMLID_9_-9"
   cx="7.2905002"
   cy="30.882299"
   r="193.40891"
   gradientTransform="matrix(0.18830207,0.00909097,4.9140359e-4,0.16225768,-0.55440098,-4.9220815)"
   gradientUnits="userSpaceOnUse">&#10;			<stop
   offset="0.4852"
   style="stop-color:#FFFFFF"
   id="stop127-1" />
&#10;			<stop
   offset="0.9053"
   style="stop-color:#D3D7CF"
   id="stop129-2" />
&#10;		</radialGradient>
<radialGradient
   id="XMLID_10_-7"
   cx="9.0815001"
   cy="29.642099"
   r="185.8085"
   gradientTransform="matrix(0.18830207,0.00909097,4.9140359e-4,0.16225768,-0.55440098,-4.9220815)"
   gradientUnits="userSpaceOnUse">&#10;			<stop
   offset="0.4852"
   style="stop-color:#FFFFFF"
   id="stop134-0" />
&#10;			<stop
   offset="0.9053"
   style="stop-color:#D3D7CF"
   id="stop136-9" />
&#10;		</radialGradient>
<radialGradient
   id="XMLID_11_-3"
   cx="4.6436"
   cy="23.8081"
   r="192.9373"
   gradientTransform="matrix(0.18830207,0.00909097,4.9140359e-4,0.16225768,-0.55440098,-4.9220815)"
   gradientUnits="userSpaceOnUse">&#10;			<stop
   offset="0.4852"
   style="stop-color:#FFFFFF"
   id="stop141-6" />
&#10;			<stop
   offset="0.9053"
   style="stop-color:#D3D7CF"
   id="stop143-0" />
&#10;		</radialGradient>
<radialGradient
   id="XMLID_9_-8"
   cx="7.2905002"
   cy="30.882299"
   r="193.40891"
   gradientTransform="matrix(0.9963,0.0481,0.0026,0.8585,3.0582,-24.9269)"
   gradientUnits="userSpaceOnUse">&#10;			<stop
   offset="0.4852"
   style="stop-color:#FFFFFF"
   id="stop127-4" />
&#10;			<stop
   offset="0.9053"
   style="stop-color:#D3D7CF"
   id="stop129-5" />
&#10;		</radialGradient>
<radialGradient
   id="XMLID_10_-0"
   cx="9.0815001"
   cy="29.642099"
   r="185.8085"
   gradientTransform="matrix(0.9963,0.0481,0.0026,0.8585,3.0582,-24.9269)"
   gradientUnits="userSpaceOnUse">&#10;			<stop
   offset="0.4852"
   style="stop-color:#FFFFFF"
   id="stop134-3" />
&#10;			<stop
   offset="0.9053"
   style="stop-color:#D3D7CF"
   id="stop136-6" />
&#10;		</radialGradient>
<radialGradient
   id="XMLID_11_-1"
   cx="4.6436"
   cy="23.8081"
   r="192.9373"
   gradientTransform="matrix(0.9963,0.0481,0.0026,0.8585,3.0582,-24.9269)"
   gradientUnits="userSpaceOnUse">&#10;			<stop
   offset="0.4852"
   style="stop-color:#FFFFFF"
   id="stop141-0" />
&#10;			<stop
   offset="0.9053"
   style="stop-color:#D3D7CF"
   id="stop143-6" />
&#10;		</radialGradient>
<linearGradient
   inkscape:collect="always"
   xlink:href="#linearGradient2"
   id="linearGradient3"
   gradientUnits="userSpaceOnUse"
   gradientTransform="matrix(0.71518336,0,0,0.75583331,4.714578,3.249167)"
   x1="1.1767771"
   y1="30.760855"
   x2="20.659502"
   y2="9.44522" />
<radialGradient
   id="XMLID_9_-9-2"
   cx="7.2905002"
   cy="30.882299"
   r="193.40891"
   gradientTransform="matrix(0.9963,0.0481,0.0026,0.8585,3.0582,-24.9269)"
   gradientUnits="userSpaceOnUse">&#10;			<stop
   offset="0.4852"
   style="stop-color:#FFFFFF"
   id="stop127-1-0" />
&#10;			<stop
   offset="0.9053"
   style="stop-color:#D3D7CF"
   id="stop129-2-6" />
&#10;		</radialGradient>
<radialGradient
   id="XMLID_10_-7-8"
   cx="9.0815001"
   cy="29.642099"
   r="185.8085"
   gradientTransform="matrix(0.9963,0.0481,0.0026,0.8585,3.0582,-24.9269)"
   gradientUnits="userSpaceOnUse">&#10;			<stop
   offset="0.4852"
   style="stop-color:#FFFFFF"
   id="stop134-0-9" />
&#10;			<stop
   offset="0.9053"
   style="stop-color:#D3D7CF"
   id="stop136-9-2" />
&#10;		</radialGradient>
<radialGradient
   id="XMLID_11_-3-6"
   cx="4.6436"
   cy="23.8081"
   r="192.9373"
   gradientTransform="matrix(0.9963,0.0481,0.0026,0.8585,3.0582,-24.9269)"
   gradientUnits="userSpaceOnUse">&#10;			<stop
   offset="0.4852"
   style="stop-color:#FFFFFF"
   id="stop141-6-6" />
&#10;			<stop
   offset="0.9053"
   style="stop-color:#D3D7CF"
   id="stop143-0-4" />
&#10;		</radialGradient>
<linearGradient
   inkscape:collect="always"
   xlink:href="#linearGradient2"
   id="linearGradient4"
   gradientUnits="userSpaceOnUse"
   gradientTransform="matrix(0.43219985,0,0,0.36977631,-52.533462,-217.895)"
   x1="126.99998"
   y1="636.36224"
   x2="153.94121"
   y2="608.80829" />
&#10;	&#10;	&#10;	&#10;&#10;&#10;			<radialGradient
   id="radialGradient2"
   cx="7.2905002"
   cy="30.882299"
   r="193.40891"
   gradientTransform="matrix(0.9963,0.0481,0.0026,0.8585,3.0582,-24.9269)"
   gradientUnits="userSpaceOnUse">&#10;			<stop
   offset="0.4852"
   style="stop-color:#FFFFFF"
   id="stop1-7" />
&#10;			<stop
   offset="0.9053"
   style="stop-color:#D3D7CF"
   id="stop2-5" />
&#10;		</radialGradient>
&#10;		&#10;&#10;			<radialGradient
   id="radialGradient4"
   cx="9.0815001"
   cy="29.642099"
   r="185.8085"
   gradientTransform="matrix(0.9963,0.0481,0.0026,0.8585,3.0582,-24.9269)"
   gradientUnits="userSpaceOnUse">&#10;			<stop
   offset="0.4852"
   style="stop-color:#FFFFFF"
   id="stop3" />
&#10;			<stop
   offset="0.9053"
   style="stop-color:#D3D7CF"
   id="stop4" />
&#10;		</radialGradient>
&#10;		&#10;&#10;			<radialGradient
   id="radialGradient6"
   cx="4.6436"
   cy="23.8081"
   r="192.9373"
   gradientTransform="matrix(0.9963,0.0481,0.0026,0.8585,3.0582,-24.9269)"
   gradientUnits="userSpaceOnUse">&#10;			<stop
   offset="0.4852"
   style="stop-color:#FFFFFF"
   id="stop5" />
&#10;			<stop
   offset="0.9053"
   style="stop-color:#D3D7CF"
   id="stop6" />
&#10;		</radialGradient>
&#10;		&#10;	&#10;		&#10;		&#10;		&#10;	&#10;		&#10;		&#10;		&#10;	&#10;	&#10;	&#10;	&#10;&#10;		&#10;		&#10;		&#10;	&#10;&#10;			<radialGradient
   id="radialGradient2-3"
   cx="7.2905002"
   cy="30.882299"
   r="193.40891"
   gradientTransform="matrix(0.9963,0.0481,0.0026,0.8585,3.0582,-24.9269)"
   gradientUnits="userSpaceOnUse">&#10;			<stop
   offset="0.4852"
   style="stop-color:#FFFFFF"
   id="stop1-7-7" />
&#10;			<stop
   offset="0.9053"
   style="stop-color:#D3D7CF"
   id="stop2-5-5" />
&#10;		</radialGradient>
&#10;		&#10;&#10;			<radialGradient
   id="radialGradient4-2"
   cx="9.0815001"
   cy="29.642099"
   r="185.8085"
   gradientTransform="matrix(0.9963,0.0481,0.0026,0.8585,3.0582,-24.9269)"
   gradientUnits="userSpaceOnUse">&#10;			<stop
   offset="0.4852"
   style="stop-color:#FFFFFF"
   id="stop3-2" />
&#10;			<stop
   offset="0.9053"
   style="stop-color:#D3D7CF"
   id="stop4-8" />
&#10;		</radialGradient>
&#10;		&#10;&#10;			<radialGradient
   id="radialGradient6-7"
   cx="4.6436"
   cy="23.8081"
   r="192.9373"
   gradientTransform="matrix(0.9963,0.0481,0.0026,0.8585,3.0582,-24.9269)"
   gradientUnits="userSpaceOnUse">&#10;			<stop
   offset="0.4852"
   style="stop-color:#FFFFFF"
   id="stop5-3" />
&#10;			<stop
   offset="0.9053"
   style="stop-color:#D3D7CF"
   id="stop6-6" />
&#10;		</radialGradient>
&#10;		&#10;	&#10;		&#10;		&#10;		&#10;	</defs>
  <g
     id="accessories-dictionary">
    <rect
       style="opacity:0.00100002;fill:#d1d5e9;fill-opacity:1"
       width="32"
       height="32"
       x="0"
       y="0"
       id="rect18" />
    <path
       id="rect4328-6"
       d="m 9.048106,4.4050002 13.651092,-0.099999 c 1.89965,-0.013909 4.7538,2.1388268 4.7538,4.1739998 v 14.527398 c 0,2.035178 -2.097088,3.6736 -3.996786,3.6736 H 7.061047 c -1.899696,0 -2.269301,-1.138984 -2.293635,-3.174 L 4.578168,7.678597 C 4.553848,5.643587 7.148453,4.4189157 9.048106,4.4050002 Z"
       style="fill:url(#linearGradient3478);fill-opacity:1;fill-rule:nonzero;stroke:none;stroke-width:0;stroke-linecap:round;stroke-linejoin:round;stroke-miterlimit:4;stroke-dasharray:none;stroke-opacity:1"
       inkscape:connector-curvature="0"
       sodipodi:nodetypes="sssssssss" />
    <path
       d="M 22.963629,4 H 9.036073 C 7.700891,4.0015 6.42075,4.5325732 5.476756,5.476774 4.53257,6.420787 4.001527,7.700875 4,9.036069 v 13.92805 -1.89e-4 c 0.0015,1.335156 0.53257,2.615282 1.476756,3.559294 C 6.42075,27.467426 7.700891,27.99845 9.036073,28 h 13.928036 -1.93e-4 c 1.335183,-0.0015 2.615324,-0.532574 3.559317,-1.476776 0.944187,-0.944012 1.475233,-2.224138 1.476756,-3.559294 V 9.036334 C 27.998189,7.701177 27.46742,6.421051 26.523233,5.477039 25.57924,4.532837 24.299099,4.0018149 22.963912,4.000265 Z M 9.200003,6.000012 h 13.599999 c 0.887093,0.0011 1.603759,0.04384 2.230998,0.671244 0.627232,0.627213 0.967903,1.441663 0.969003,2.328756 V 23.000025 H 6.000002 V 9.000012 C 6.001102,8.112919 6.341784,7.298507 6.969001,6.671256 7.596202,6.044044 8.312918,6.001108 9.200003,6.000012 Z"
       id="path1193-0"
       style="fill:#d3dae3;fill-opacity:1;stroke-width:0.047619"
       sodipodi:nodetypes="ccccccccccccccccccccccccc" />
    <path
       d="M 46.652,59.42 C 46.196,58.452 45.996,58.338 44.651,58.5 l -6.739,0.811 c -1.109,0.132 -1.357,0.301 -1.538,1.289 l -0.909,4.957 c -0.39,2.132 -0.538,3.4 -0.47,3.906 0.075,0.549 0.334,0.798 1.414,0.77 l 1.493,-0.03 c 0.345,0.195 0.444,0.932 0.066,1.159 -1.172,0.04 -2.556,0.192 -4.653,0.381 -1.465,0.162 -3.049,0.433 -4.236,0.616 -0.289,-0.155 -0.472,-0.876 -0.235,-1.138 l 1.439,-0.299 c 1.049,-0.21 1.958,-0.824 2.362,-2.539 0.519,-2.19 1.366,-5.29 2.542,-10.582 l 2.849,-12.668 c 0.396,-1.681 0.543,-2.56 0.312,-3.253 1.013,-0.45 1.651,-1.348 2.056,-1.989 0.264,-0.035 0.587,0.014 0.718,0.311 0.849,1.879 1.847,3.835 2.792,5.716 l 8.793,17.498 c 1.906,3.82 2.603,4.451 4.608,4.46 h 1.262 c 0.355,0.196 0.375,0.952 0.175,1.163 -1.899,0.119 -3.511,0.249 -5.569,0.48 -2.191,0.247 -3.905,0.532 -5.215,0.726 -0.389,-0.143 -0.54,-0.879 -0.257,-1.146 l 1.297,-0.285 c 0.94,-0.201 1.536,-0.549 1.47,-1.014 -0.073,-0.506 -0.421,-1.31 -0.942,-2.379 z M 37.25,56.449 c -0.211,1.08 -0.161,1.121 1.08,0.969 l 5.483,-0.664 c 1.296,-0.159 1.361,-0.352 0.783,-1.526 L 41.158,48.184 C 40.654,47.155 40.086,46 39.748,45.5 l -0.088,0.01 c -0.103,0.24 -0.396,1.369 -0.697,2.771 z"
       id="path110"
       style="fill:#e20800;filter:url(#filter3031)"
       transform="matrix(0.25388169,0,0,0.25388169,-0.23874304,1.3472454)" />
    <path
       d="m 57.03,42.799 c -0.401,-2.653 -0.488,-2.916 -1.961,-3.542 l -0.49,-0.21 c -0.246,-0.104 -0.34,-0.73 -0.134,-0.895 0.973,-0.542 3.049,-1.412 4.628,-2.537 0.181,-0.022 0.375,0.042 0.492,0.209 0.151,1.579 0.372,3.611 0.675,5.589 l 1.315,8.569 c 0.12,0.778 0.333,0.937 0.605,0.904 1.086,-0.833 2.794,-1.884 5.046,-2.167 5.272,-0.66 9.503,2.857 10.339,7.96 1.016,6.215 -2.801,11.097 -9.078,11.797 -1.726,0.191 -3.078,0.009 -4.049,-0.167 -1.024,-0.218 -1.667,-0.432 -2.039,-0.391 -0.371,0.042 -0.682,0.458 -0.865,0.809 -0.04,0.052 -0.085,0.057 -0.177,0.067 -0.184,0.021 -0.383,-0.053 -0.504,-0.227 -0.053,-0.657 -0.142,-1.549 -0.504,-3.965 z m 6.364,19.14 c 0.248,1.623 0.84,3.021 1.778,3.91 0.94,0.893 2.282,1.312 3.776,1.146 4.398,-0.496 5.53,-4.442 4.888,-8.454 -0.771,-4.773 -3.82,-8.16 -8.389,-7.593 -1.381,0.169 -2.432,0.626 -3.012,1.115 -0.408,0.378 -0.422,0.891 -0.147,2.682 z"
       id="path112"
       style="fill:#e20800;filter:url(#filter3031)"
       transform="matrix(0.25388169,0,0,0.25388169,-0.23874304,1.3472454)" />
    <path
       d="m 95.184,46.033 c 0.442,0.277 0.907,0.982 1.051,1.774 0.148,0.841 -0.176,1.787 -0.75,1.857 -0.24,0.03 -0.497,-0.034 -0.729,-0.244 -1.277,-1.131 -3.25,-2.124 -5.204,-1.881 -3.316,0.414 -6.099,3.357 -5.269,8.293 0.615,3.652 3.934,7.741 9.073,7.159 2.798,-0.317 4.03,-1.717 4.86,-3.459 0.37,-0.139 0.867,0.143 0.991,0.564 -1.024,3.707 -4.427,5.448 -7.227,5.76 -2.547,0.285 -5.032,-0.26 -6.976,-1.681 -1.928,-1.414 -3.407,-3.591 -3.91,-6.633 -0.833,-5.027 1.852,-10.79 9.706,-11.77 1.094,-0.137 2.995,-0.136 4.384,0.261 z"
       id="path114"
       style="fill:#e20800;filter:url(#filter3031)"
       transform="matrix(0.25388169,0,0,0.25388169,-0.23874304,1.3472454)" />
    <path
       d="m 46.741,57.343 c -0.456,-0.964 -0.656,-1.077 -2,-0.914 l -6.731,0.819 c -1.108,0.133 -1.356,0.303 -1.537,1.288 l -0.907,4.947 c -0.392,2.125 -0.538,3.394 -0.47,3.896 0.073,0.549 0.333,0.797 1.413,0.766 l 1.489,-0.03 c 0.345,0.196 0.445,0.927 0.068,1.156 -1.172,0.042 -2.554,0.197 -4.649,0.387 -1.463,0.166 -3.046,0.439 -4.231,0.619 -0.289,-0.152 -0.471,-0.871 -0.235,-1.129 l 1.438,-0.303 c 1.049,-0.212 1.956,-0.827 2.359,-2.538 0.519,-2.184 1.363,-5.28 2.539,-10.562 l 2.845,-12.643 c 0.395,-1.68 0.544,-2.557 0.312,-3.248 1.011,-0.451 1.649,-1.348 2.052,-1.987 0.265,-0.036 0.585,0.011 0.719,0.308 0.849,1.873 1.844,3.824 2.79,5.699 l 8.785,17.444 c 1.904,3.81 2.599,4.436 4.602,4.443 l 1.261,-0.005 c 0.355,0.198 0.375,0.951 0.174,1.163 -1.896,0.12 -3.508,0.257 -5.562,0.488 -2.189,0.248 -3.902,0.535 -5.21,0.731 -0.389,-0.142 -0.538,-0.875 -0.256,-1.144 l 1.296,-0.288 c 0.938,-0.2 1.534,-0.551 1.467,-1.011 -0.072,-0.509 -0.419,-1.312 -0.94,-2.373 z m -9.393,-2.949 c -0.211,1.077 -0.163,1.118 1.079,0.965 l 5.477,-0.672 c 1.295,-0.16 1.362,-0.353 0.783,-1.523 l -3.434,-7.023 c -0.504,-1.023 -1.072,-2.176 -1.41,-2.676 l -0.089,0.011 c -0.101,0.239 -0.394,1.367 -0.694,2.767 z"
       id="path118"
       style="fill:#8c0000;filter:url(#filter3035)"
       transform="matrix(0.25388169,0,0,0.25388169,-0.23874304,1.3472454)" />
    <path
       d="M 57.109,40.745 C 56.707,38.1 56.62,37.836 55.149,37.213 l -0.492,-0.208 c -0.245,-0.103 -0.337,-0.727 -0.134,-0.891 0.974,-0.543 3.046,-1.413 4.625,-2.538 0.18,-0.024 0.374,0.04 0.493,0.207 0.149,1.575 0.369,3.604 0.673,5.577 l 1.314,8.547 c 0.119,0.775 0.331,0.934 0.604,0.899 1.083,-0.832 2.791,-1.883 5.04,-2.168 5.267,-0.667 9.493,2.834 10.326,7.925 1.016,6.198 -2.796,11.077 -9.064,11.784 -1.725,0.194 -3.077,0.013 -4.045,-0.161 -1.023,-0.217 -1.667,-0.426 -2.037,-0.386 -0.371,0.042 -0.683,0.456 -0.864,0.809 -0.04,0.05 -0.085,0.055 -0.178,0.068 -0.183,0.021 -0.381,-0.053 -0.502,-0.228 -0.054,-0.656 -0.141,-1.545 -0.505,-3.955 z m 6.355,19.086 c 0.248,1.618 0.839,3.013 1.778,3.899 0.938,0.887 2.279,1.304 3.77,1.134 4.395,-0.5 5.527,-4.439 4.883,-8.439 -0.769,-4.764 -3.816,-8.137 -8.382,-7.564 -1.376,0.17 -2.427,0.629 -3.006,1.118 -0.407,0.378 -0.422,0.89 -0.147,2.675 z"
       id="path120"
       style="fill:#8c0000;filter:url(#filter3035)"
       transform="matrix(0.25388169,0,0,0.25388169,-0.23874304,1.3472454)" />
    <path
       d="m 95.22,43.912 c 0.441,0.275 0.907,0.977 1.049,1.767 0.148,0.839 -0.174,1.783 -0.749,1.854 -0.241,0.03 -0.497,-0.033 -0.729,-0.241 -1.274,-1.125 -3.249,-2.114 -5.197,-1.869 -3.315,0.416 -6.095,3.359 -5.267,8.282 0.617,3.644 3.933,7.717 9.064,7.127 2.794,-0.32 4.028,-1.719 4.858,-3.457 0.369,-0.14 0.861,0.141 0.987,0.561 -1.023,3.701 -4.421,5.443 -7.217,5.76 -2.544,0.286 -5.027,-0.251 -6.968,-1.667 -1.927,-1.407 -3.403,-3.578 -3.905,-6.612 -0.834,-5.015 1.847,-10.767 9.691,-11.758 1.097,-0.142 2.991,-0.142 4.383,0.253 z"
       id="path122"
       style="fill:#8c0000;filter:url(#filter3035)"
       transform="matrix(0.25388169,0,0,0.25388169,-0.23874304,1.3472454)" />
    <path
       d="M 11.61677,16.169112 C 11.500492,15.924117 11.450478,15.89492 11.109007,15.936303 l -1.7098933,0.20666 c -0.2818087,0.03427 -0.3447714,0.07667 -0.3907239,0.327507 l -0.2307785,1.256968 c -0.099268,0.540514 -0.1363345,0.862182 -0.1193244,0.990139 0.018787,0.139381 0.084543,0.20209 0.3592426,0.195489 l 0.3782837,-0.0081 c 0.087335,0.04976 0.1129774,0.23611 0.01701,0.293995 -0.2975494,0.01016 -0.6489216,0.04925 -1.1810576,0.09724 -0.3719367,0.04214 -0.7735775,0.1112 -1.0746812,0.156645 -0.073372,-0.03859 -0.1195783,-0.221639 -0.059662,-0.28714 l 0.3653357,-0.07667 c 0.266068,-0.05433 0.4968465,-0.209453 0.5989069,-0.64486 0.1317646,-0.554985 0.3462947,-1.341257 0.6453673,-2.683529 l 0.7225473,-3.212873 c 0.1005371,-0.427029 0.1378577,-0.649429 0.079719,-0.825369 0.2566744,-0.113993 0.4183971,-0.342233 0.5209654,-0.504463 0.06728,-0.0091 0.148774,0.003 0.182794,0.07819 0.215292,0.476282 0.468412,0.972367 0.70833,1.449411 l 2.231113,4.435313 c 0.483644,0.968305 0.6606,1.127996 1.169125,1.130535 l 0.320398,-5.08e-4 c 0.08988,0.04976 0.09521,0.240934 0.04418,0.294757 -0.481614,0.03047 -0.891125,0.06474 -1.412852,0.12364 -0.555747,0.06195 -0.9909,0.135065 -1.323485,0.184572 -0.09876,-0.03707 -0.136588,-0.222908 -0.06499,-0.290948 l 0.329031,-0.07286 C 12.452557,18.498764 12.60387,18.410663 12.58686,18.293369 12.56858,18.164398 12.480484,17.960277 12.348211,17.6904 Z M 9.2307901,15.417623 c -0.053823,0.273938 -0.041383,0.284093 0.2736845,0.245503 l 1.3912714,-0.169593 c 0.329031,-0.04037 0.345533,-0.08937 0.19879,-0.386662 L 10.222452,13.321068 C 10.094242,13.060077 9.9500369,12.767859 9.8644788,12.640411 l -0.022849,0.0028 c -0.025896,0.06119 -0.1000294,0.347564 -0.1764478,0.703253 z"
       id="path131"
       style="fill:url(#XMLID_9_);stroke-width:0.253882" />
    <path
       d="m 14.250031,11.952391 c -0.101806,-0.672532 -0.12364,-0.739557 -0.497608,-0.898233 l -0.124656,-0.05281 c -0.0622,-0.02666 -0.08607,-0.18508 -0.03402,-0.227478 0.247281,-0.13735 0.773831,-0.358228 1.174457,-0.643591 0.04595,-0.0061 0.0952,0.01016 0.124909,0.0523 0.03834,0.400625 0.09444,0.916005 0.171371,1.417675 l 0.333854,2.172974 c 0.03047,0.196504 0.08429,0.236871 0.153345,0.228239 0.275715,-0.211229 0.708837,-0.478059 1.280833,-0.550161 1.337702,-0.168324 2.410606,0.723055 2.622598,2.016582 0.258451,1.57559 -0.7096,2.814786 -2.302707,2.993011 -0.437946,0.04951 -0.781194,0.0036 -1.02746,-0.04138 -0.259974,-0.05535 -0.42322,-0.108662 -0.517157,-0.098 -0.09419,0.0096 -0.173401,0.115009 -0.219607,0.204883 -0.01016,0.0132 -0.02158,0.01422 -0.04519,0.01701 -0.04646,0.0056 -0.09673,-0.0132 -0.127449,-0.05763 -0.01371,-0.166801 -0.0358,-0.393009 -0.128464,-1.005626 z m 1.614688,4.851933 c 0.06296,0.41205 0.21326,0.766469 0.451655,0.991662 0.238649,0.225701 0.57885,0.331824 0.957388,0.289171 1.116318,-0.126433 1.40422,-1.127234 1.24072,-2.14403 -0.195743,-1.211016 -0.96932,-2.068628 -2.129306,-1.924678 -0.349595,0.04341 -0.616171,0.159438 -0.763168,0.284094 -0.103584,0.09571 -0.107646,0.225955 -0.03808,0.679895 z"
       id="path138"
       style="fill:url(#XMLID_10_);stroke-width:0.253882" />
    <path
       d="m 23.930794,12.764559 c 0.111962,0.07033 0.230524,0.249058 0.267083,0.449624 0.03732,0.213261 -0.04468,0.453179 -0.190411,0.471205 -0.06119,0.0076 -0.126179,-0.0086 -0.185587,-0.06144 -0.323192,-0.286886 -0.824862,-0.538229 -1.319424,-0.476282 -0.842125,0.105361 -1.548424,0.852789 -1.337194,2.104172 0.156137,0.925906 0.997501,1.961997 2.301437,1.813477 0.710361,-0.08073 1.023397,-0.436169 1.233865,-0.877669 0.09368,-0.0358 0.219608,0.03554 0.251089,0.142681 -0.260229,0.940124 -1.122919,1.38264 -1.833533,1.462359 -0.646383,0.07236 -1.276264,-0.06474 -1.769556,-0.424998 -0.489991,-0.358227 -0.864721,-0.910166 -0.992423,-1.681459 -0.212245,-1.27474 0.469681,-2.736083 2.461637,-2.986918 0.278762,-0.03478 0.760629,-0.03554 1.113017,0.06525 z"
       id="path145"
       style="fill:url(#XMLID_11_);stroke-width:0.253882" />
  </g>
  <g
     id="22-22-accessories-dictionary"
     transform="translate(0,-21.999999)">
    <rect
       style="opacity:0.00100002;fill:#d1d5e9;fill-opacity:1"
       width="22"
       height="22"
       x="0"
       y="0"
       id="rect4" />
    <path
       inkscape:connector-curvature="0"
       id="path9068-9-37-8-0-1-0-1-3-7-4-6-1"
       d="M 19.47451,2.625688 2.356,2.625693 V 17.416689 H 19.644003 Z"
       style="display:inline;overflow:visible;visibility:visible;fill:url(#linearGradient6958);fill-opacity:1;fill-rule:nonzero;stroke:none;stroke-width:0.559691;marker:none"
       sodipodi:nodetypes="cccccc" />
    <path
       d="M 16.803012,1 H 5.196744 C 4.084091,1.0015 3.017281,1.443812 2.230622,2.230647 1.443769,3.01732 1.001258,4.084062 1,5.196722 v 11.60671 -1.58e-4 c 8.62e-4,1.11263 0.443769,2.179402 1.230622,2.96608 0.786659,0.786834 1.853469,1.229354 2.966122,1.230645 h 11.606699 -1.93e-4 c 1.112651,-0.0012 2.179461,-0.443811 2.966113,-1.230645 0.786859,-0.786678 1.229367,-1.85345 1.230629,-2.96608 V 5.196945 C 20.997992,4.084311 20.556222,3.017543 19.769363,2.230865 18.982711,1.444032 17.915901,1.001508 16.80325,1.000224 Z M 5.617002,3.000025 h 10.766002 c 0.739238,0.0011 1.436277,-0.113832 1.958997,0.409 0.52269,0.52268 0.657101,1.018407 0.658001,1.757652 V 17.000024 H 3.000001 V 5.166677 c 8.51e-4,-0.739245 0.135307,-1.234936 0.658001,-1.757652 0.522677,-0.52268 1.219785,-0.408091 1.959,-0.409 z"
       id="path1193-3-9"
       style="fill:#d3dae3;fill-opacity:1;stroke-width:0.0396828"
       sodipodi:nodetypes="ccccccccccccccccccccccccc" />
    <path
       d="M 46.652,59.42 C 46.196,58.452 45.996,58.338 44.651,58.5 l -6.739,0.811 c -1.109,0.132 -1.357,0.301 -1.538,1.289 l -0.909,4.957 c -0.39,2.132 -0.538,3.4 -0.47,3.906 0.075,0.549 0.334,0.798 1.414,0.77 l 1.493,-0.03 c 0.345,0.195 0.444,0.932 0.066,1.159 -1.172,0.04 -2.556,0.192 -4.653,0.381 -1.465,0.162 -3.049,0.433 -4.236,0.616 -0.289,-0.155 -0.472,-0.876 -0.235,-1.138 l 1.439,-0.299 c 1.049,-0.21 1.958,-0.824 2.362,-2.539 0.519,-2.19 1.366,-5.29 2.542,-10.582 l 2.849,-12.668 c 0.396,-1.681 0.543,-2.56 0.312,-3.253 1.013,-0.45 1.651,-1.348 2.056,-1.989 0.264,-0.035 0.587,0.014 0.718,0.311 0.849,1.879 1.847,3.835 2.792,5.716 l 8.793,17.498 c 1.906,3.82 2.603,4.451 4.608,4.46 h 1.262 c 0.355,0.196 0.375,0.952 0.175,1.163 -1.899,0.119 -3.511,0.249 -5.569,0.48 -2.191,0.247 -3.905,0.532 -5.215,0.726 -0.389,-0.143 -0.54,-0.879 -0.257,-1.146 l 1.297,-0.285 c 0.94,-0.201 1.536,-0.549 1.47,-1.014 -0.073,-0.506 -0.421,-1.31 -0.942,-2.379 z M 37.25,56.449 c -0.211,1.08 -0.161,1.121 1.08,0.969 l 5.483,-0.664 c 1.296,-0.159 1.361,-0.352 0.783,-1.526 L 41.158,48.184 C 40.654,47.155 40.086,46 39.748,45.5 l -0.088,0.01 c -0.103,0.24 -0.396,1.369 -0.697,2.771 z"
       id="path110-6"
       style="fill:#e20800;filter:url(#filter3031-3)"
       transform="matrix(0.18900138,0,0,0.18900138,-1.132405,-0.210863)" />
    <path
       d="m 57.03,42.799 c -0.401,-2.653 -0.488,-2.916 -1.961,-3.542 l -0.49,-0.21 c -0.246,-0.104 -0.34,-0.73 -0.134,-0.895 0.973,-0.542 3.049,-1.412 4.628,-2.537 0.181,-0.022 0.375,0.042 0.492,0.209 0.151,1.579 0.372,3.611 0.675,5.589 l 1.315,8.569 c 0.12,0.778 0.333,0.937 0.605,0.904 1.086,-0.833 2.794,-1.884 5.046,-2.167 5.272,-0.66 9.503,2.857 10.339,7.96 1.016,6.215 -2.801,11.097 -9.078,11.797 -1.726,0.191 -3.078,0.009 -4.049,-0.167 -1.024,-0.218 -1.667,-0.432 -2.039,-0.391 -0.371,0.042 -0.682,0.458 -0.865,0.809 -0.04,0.052 -0.085,0.057 -0.177,0.067 -0.184,0.021 -0.383,-0.053 -0.504,-0.227 -0.053,-0.657 -0.142,-1.549 -0.504,-3.965 z m 6.364,19.14 c 0.248,1.623 0.84,3.021 1.778,3.91 0.94,0.893 2.282,1.312 3.776,1.146 4.398,-0.496 5.53,-4.442 4.888,-8.454 -0.771,-4.773 -3.82,-8.16 -8.389,-7.593 -1.381,0.169 -2.432,0.626 -3.012,1.115 -0.408,0.378 -0.422,0.891 -0.147,2.682 z"
       id="path112-1"
       style="fill:#e20800;filter:url(#filter3031-3)"
       transform="matrix(0.18900138,0,0,0.18900138,-1.132405,-0.210863)" />
    <path
       d="m 95.184,46.033 c 0.442,0.277 0.907,0.982 1.051,1.774 0.148,0.841 -0.176,1.787 -0.75,1.857 -0.24,0.03 -0.497,-0.034 -0.729,-0.244 -1.277,-1.131 -3.25,-2.124 -5.204,-1.881 -3.316,0.414 -6.099,3.357 -5.269,8.293 0.615,3.652 3.934,7.741 9.073,7.159 2.798,-0.317 4.03,-1.717 4.86,-3.459 0.37,-0.139 0.867,0.143 0.991,0.564 -1.024,3.707 -4.427,5.448 -7.227,5.76 -2.547,0.285 -5.032,-0.26 -6.976,-1.681 -1.928,-1.414 -3.407,-3.591 -3.91,-6.633 -0.833,-5.027 1.852,-10.79 9.706,-11.77 1.094,-0.137 2.995,-0.136 4.384,0.261 z"
       id="path114-8"
       style="fill:#e20800;filter:url(#filter3031-3)"
       transform="matrix(0.18900138,0,0,0.18900138,-1.132405,-0.210863)" />
    <path
       d="m 46.741,57.343 c -0.456,-0.964 -0.656,-1.077 -2,-0.914 l -6.731,0.819 c -1.108,0.133 -1.356,0.303 -1.537,1.288 l -0.907,4.947 c -0.392,2.125 -0.538,3.394 -0.47,3.896 0.073,0.549 0.333,0.797 1.413,0.766 l 1.489,-0.03 c 0.345,0.196 0.445,0.927 0.068,1.156 -1.172,0.042 -2.554,0.197 -4.649,0.387 -1.463,0.166 -3.046,0.439 -4.231,0.619 -0.289,-0.152 -0.471,-0.871 -0.235,-1.129 l 1.438,-0.303 c 1.049,-0.212 1.956,-0.827 2.359,-2.538 0.519,-2.184 1.363,-5.28 2.539,-10.562 l 2.845,-12.643 c 0.395,-1.68 0.544,-2.557 0.312,-3.248 1.011,-0.451 1.649,-1.348 2.052,-1.987 0.265,-0.036 0.585,0.011 0.719,0.308 0.849,1.873 1.844,3.824 2.79,5.699 l 8.785,17.444 c 1.904,3.81 2.599,4.436 4.602,4.443 l 1.261,-0.005 c 0.355,0.198 0.375,0.951 0.174,1.163 -1.896,0.12 -3.508,0.257 -5.562,0.488 -2.189,0.248 -3.902,0.535 -5.21,0.731 -0.389,-0.142 -0.538,-0.875 -0.256,-1.144 l 1.296,-0.288 c 0.938,-0.2 1.534,-0.551 1.467,-1.011 -0.072,-0.509 -0.419,-1.312 -0.94,-2.373 z m -9.393,-2.949 c -0.211,1.077 -0.163,1.118 1.079,0.965 l 5.477,-0.672 c 1.295,-0.16 1.362,-0.353 0.783,-1.523 l -3.434,-7.023 c -0.504,-1.023 -1.072,-2.176 -1.41,-2.676 l -0.089,0.011 c -0.101,0.239 -0.394,1.367 -0.694,2.767 z"
       id="path118-9"
       style="fill:#8c0000;filter:url(#filter3035-6)"
       transform="matrix(0.18900138,0,0,0.18900138,-1.132405,-0.210863)" />
    <path
       d="M 57.109,40.745 C 56.707,38.1 56.62,37.836 55.149,37.213 l -0.492,-0.208 c -0.245,-0.103 -0.337,-0.727 -0.134,-0.891 0.974,-0.543 3.046,-1.413 4.625,-2.538 0.18,-0.024 0.374,0.04 0.493,0.207 0.149,1.575 0.369,3.604 0.673,5.577 l 1.314,8.547 c 0.119,0.775 0.331,0.934 0.604,0.899 1.083,-0.832 2.791,-1.883 5.04,-2.168 5.267,-0.667 9.493,2.834 10.326,7.925 1.016,6.198 -2.796,11.077 -9.064,11.784 -1.725,0.194 -3.077,0.013 -4.045,-0.161 -1.023,-0.217 -1.667,-0.426 -2.037,-0.386 -0.371,0.042 -0.683,0.456 -0.864,0.809 -0.04,0.05 -0.085,0.055 -0.178,0.068 -0.183,0.021 -0.381,-0.053 -0.502,-0.228 -0.054,-0.656 -0.141,-1.545 -0.505,-3.955 z m 6.355,19.086 c 0.248,1.618 0.839,3.013 1.778,3.899 0.938,0.887 2.279,1.304 3.77,1.134 4.395,-0.5 5.527,-4.439 4.883,-8.439 -0.769,-4.764 -3.816,-8.137 -8.382,-7.564 -1.376,0.17 -2.427,0.629 -3.006,1.118 -0.407,0.378 -0.422,0.89 -0.147,2.675 z"
       id="path120-2"
       style="fill:#8c0000;filter:url(#filter3035-6)"
       transform="matrix(0.18900138,0,0,0.18900138,-1.132405,-0.210863)" />
    <path
       d="m 95.22,43.912 c 0.441,0.275 0.907,0.977 1.049,1.767 0.148,0.839 -0.174,1.783 -0.749,1.854 -0.241,0.03 -0.497,-0.033 -0.729,-0.241 -1.274,-1.125 -3.249,-2.114 -5.197,-1.869 -3.315,0.416 -6.095,3.359 -5.267,8.282 0.617,3.644 3.933,7.717 9.064,7.127 2.794,-0.32 4.028,-1.719 4.858,-3.457 0.369,-0.14 0.861,0.141 0.987,0.561 -1.023,3.701 -4.421,5.443 -7.217,5.76 -2.544,0.286 -5.027,-0.251 -6.968,-1.667 -1.927,-1.407 -3.403,-3.578 -3.905,-6.612 -0.834,-5.015 1.847,-10.767 9.691,-11.758 1.097,-0.142 2.991,-0.142 4.383,0.253 z"
       id="path122-0"
       style="fill:#8c0000;filter:url(#filter3035-6)"
       transform="matrix(0.18900138,0,0,0.18900138,-1.132405,-0.210863)" />
    <path
       d="M 7.6933924,10.823227 C 7.6068298,10.64084 7.5695965,10.619105 7.3153897,10.649912 l -1.2729243,0.153847 c -0.2097915,0.02552 -0.2566639,0.05708 -0.2908731,0.243812 L 5.57979,11.983317 c -0.0739,0.402384 -0.1014937,0.641849 -0.088831,0.737105 0.013986,0.103762 0.062937,0.150446 0.2674369,0.145531 l 0.2816121,-0.006 c 0.065016,0.03705 0.084106,0.175772 0.012663,0.218864 -0.2215097,0.0076 -0.4830876,0.03667 -0.8792345,0.07239 -0.276887,0.03137 -0.5758872,0.08278 -0.8000428,0.116613 -0.054621,-0.02873 -0.08902,-0.164998 -0.044415,-0.21376 l 0.271973,-0.05708 C 4.7990251,12.95653 4.9708274,12.841054 5.0468059,12.516917 5.1448979,12.10376 5.3046038,11.518423 5.5272474,10.519172 L 6.0651456,8.1273109 C 6.1399901,7.8094106 6.1677733,7.6438454 6.124492,7.5128674 6.3155724,7.4280058 6.4359663,7.2580935 6.5123228,7.1373217 c 0.050085,-0.0068 0.1107548,0.00227 0.136081,0.058212 0.1602732,0.3545666 0.3487076,0.7238753 0.5273139,1.0790089 l 1.6609441,3.3018544 c 0.3600476,0.720851 0.4917816,0.839733 0.8703513,0.841623 l 0.2385198,-3.78e-4 c 0.066906,0.03704 0.070875,0.179363 0.032886,0.219431 -0.3585356,0.02268 -0.6633948,0.0482 -1.0517927,0.09204 -0.413724,0.04612 -0.7376723,0.100549 -0.9852641,0.137404 -0.073522,-0.02759 -0.1016828,-0.165943 -0.048384,-0.216595 l 0.2449458,-0.05424 C 8.3155852,12.557502 8.42823,12.49192 8.4155669,12.404601 8.4019589,12.308591 8.3363749,12.156631 8.2379056,11.955723 Z M 5.9171575,10.263782 c -0.040068,0.203933 -0.030807,0.211493 0.2037435,0.182765 l 1.0357275,-0.126253 c 0.2449458,-0.03005 0.2572309,-0.06653 0.1479881,-0.287849 L 6.6553969,8.7030091 C 6.5599512,8.5087157 6.4525984,8.2911751 6.3889049,8.1962964 l -0.01701,0.00208 c -0.019278,0.045549 -0.074467,0.2587429 -0.131356,0.5235338 z"
       id="path131-9"
       style="fill:url(#XMLID_9_-9);stroke-width:0.189001" />
    <path
       d="M 9.6537148,7.6841026 C 9.5779252,7.183438 9.5616711,7.1335416 9.2832721,7.0154158 l -0.0928,-0.039312 C 9.144167,6.9562583 9.1264009,6.8383215 9.1651462,6.8067582 9.3492335,6.7045085 9.7412224,6.5400773 10.039467,6.3276397 c 0.03421,-0.00454 0.07087,0.00756 0.09299,0.038934 0.02854,0.2982442 0.07031,0.681917 0.127576,1.0553837 l 0.248537,1.6176628 c 0.02268,0.1462871 0.06275,0.1763383 0.114157,0.1699123 0.205255,-0.1572492 0.527692,-0.3558896 0.953512,-0.409566 0.995848,-0.1253079 1.794568,0.5382759 1.952384,1.5012385 0.192403,1.172942 -0.528259,2.095458 -1.714242,2.228137 -0.326028,0.03686 -0.581558,0.0026 -0.764889,-0.03081 -0.193537,-0.0412 -0.315065,-0.08089 -0.384996,-0.07296 -0.07012,0.0072 -0.129088,0.08562 -0.163486,0.152524 -0.0076,0.0098 -0.01607,0.01058 -0.03364,0.01266 -0.03459,0.0042 -0.07201,-0.0098 -0.09488,-0.0429 -0.01021,-0.124174 -0.02665,-0.292574 -0.09563,-0.748634 z m 1.2020492,3.6120054 c 0.04687,0.306749 0.158761,0.570595 0.336233,0.738239 0.177661,0.168023 0.430923,0.247025 0.712724,0.215273 0.831039,-0.09412 1.045367,-0.839166 0.92365,-1.596117 -0.14572,-0.9015363 -0.721607,-1.5399829 -1.585155,-1.4328191 -0.260255,0.032319 -0.458706,0.1186928 -0.568138,0.2114925 -0.07711,0.071254 -0.08014,0.1682112 -0.02835,0.5061457 z"
       id="path138-9"
       style="fill:url(#XMLID_10_-7);stroke-width:0.189001" />
    <path
       d="m 16.860526,8.2887181 c 0.08335,0.052353 0.171614,0.1854103 0.19883,0.3347214 0.02778,0.1587612 -0.03326,0.3373675 -0.141751,0.3507866 -0.04555,0.00567 -0.09393,-0.00643 -0.13816,-0.045738 -0.240599,-0.2135715 -0.614066,-0.4006829 -0.98224,-0.3545666 -0.626918,0.078436 -1.15272,0.6348557 -0.995471,1.5664435 0.116236,0.689288 0.742587,1.460602 1.713298,1.350036 0.528826,-0.0601 0.761864,-0.324704 0.918547,-0.653377 0.06974,-0.02665 0.163486,0.02646 0.186922,0.106218 -0.193726,0.699873 -0.835953,1.029302 -1.364968,1.088648 -0.481198,0.05387 -0.95011,-0.04819 -1.31734,-0.316388 -0.364772,-0.266681 -0.643738,-0.67757 -0.738806,-1.251756 -0.158005,-0.9489756 0.349652,-2.0368675 1.832557,-2.2236009 0.207524,-0.025893 0.566248,-0.02646 0.828582,0.048573 z"
       id="path145-1"
       style="fill:url(#XMLID_11_-3);stroke-width:0.189001" />
  </g>
  <g
     id="accessories-calculator"
     transform="translate(32)">
    <rect
       style="opacity:0.00100002;fill:#d1d5e9;fill-opacity:1"
       width="32"
       height="32"
       x="0"
       y="0"
       id="rect25" />
    <path
       id="rect4328-6-3"
       d="m 9.048106,4.405 13.651092,-0.1 c 1.89965,-0.01391 4.7538,2.138827 4.7538,4.174 v 14.527398 c 0,2.035178 -2.097088,3.6736 -3.996786,3.6736 H 7.061047 c -1.899696,0 -2.269301,-1.138984 -2.293635,-3.174 L 4.578168,7.678596 C 4.553848,5.643586 7.148453,4.418915 9.048106,4.404999 Z"
       style="fill:url(#linearGradient3);fill-opacity:1;fill-rule:nonzero;stroke:none;stroke-width:0;stroke-linecap:round;stroke-linejoin:round;stroke-miterlimit:4;stroke-dasharray:none;stroke-opacity:1"
       inkscape:connector-curvature="0"
       sodipodi:nodetypes="sssssssss" />
    <path
       d="M 22.963629,4 H 9.036073 C 7.700891,4.0015 6.42075,4.532573 5.476756,5.476774 4.53257,6.420787 4.001527,7.700875 4,9.036069 v 13.92805 -1.89e-4 c 0.0015,1.335156 0.53257,2.615282 1.476756,3.559294 C 6.42075,27.467426 7.700891,27.99845 9.036073,28 h 13.928036 -1.93e-4 c 1.335183,-0.0015 2.615324,-0.532574 3.559317,-1.476776 0.944187,-0.944012 1.475233,-2.224138 1.476756,-3.559294 V 9.036334 C 27.998189,7.701177 27.46742,6.421051 26.523233,5.477039 25.57924,4.532837 24.299099,4.001815 22.963912,4.000265 Z M 9.200003,6.000012 h 13.599999 c 0.887093,0.0011 1.603759,0.04384 2.230998,0.671244 0.627232,0.627213 0.967903,1.441663 0.969003,2.328756 V 23.000025 H 6.000002 V 9.000012 C 6.001102,8.112919 6.341784,7.298507 6.969001,6.671256 7.596202,6.044044 8.312918,6.001108 9.200003,6.000012 Z"
       id="path1193-0-2"
       style="fill:#d3dae3;fill-opacity:1;stroke-width:0.047619"
       sodipodi:nodetypes="ccccccccccccccccccccccccc" />
    <path
       d="m 12.278713,18.740925 1.349989,-1.349989 c 0.299923,-0.299923 0.299923,-0.749919 0,-1.050067 -0.299922,-0.299923 -0.749919,-0.299923 -1.050066,0 l -1.34999,1.349989 -1.349989,-1.349989 c -0.299923,-0.299923 -0.749919,-0.299923 -1.050067,0 -0.299923,0.299923 -0.299923,0.749919 0,1.050067 l 1.34999,1.349989 -1.34999,1.34999 c -0.299923,0.299922 -0.299923,0.749919 0,1.050066 0.150074,0.150074 0.375072,0.224999 0.524921,0.224999 0.150074,0 0.375072,-0.07493 0.524921,-0.224999 l 1.349989,-1.349989 1.34999,1.349989 c 0.150074,0.150074 0.375072,0.224999 0.52492,0.224999 0.150074,0 0.375073,-0.07493 0.524921,-0.224999 0.299923,-0.299922 0.299923,-0.749919 0,-1.050066 z"
       id="path1726-7"
       style="fill:#d3dae3;fill-opacity:1;stroke-width:0.0562496" />
    <path
       d="m 8.853568,11.265747 h 1.500063 v 1.500064 c 0,0.449996 0.299923,0.749919 0.749919,0.749919 0.449997,0 0.749919,-0.299923 0.749919,-0.749919 v -1.500064 h 1.500063 c 0.449997,0 0.74992,-0.299922 0.74992,-0.749919 0,-0.449996 -0.299923,-0.749919 -0.74992,-0.749919 H 11.853469 V 8.265846 c 0,-0.449996 -0.299922,-0.749919 -0.749919,-0.749919 -0.449996,0 -0.749919,0.299923 -0.749919,0.749919 V 9.765909 H 8.853568 c -0.449997,0 -0.74992,0.299923 -0.74992,0.749919 0,0.449997 0.299923,0.749919 0.74992,0.749919 z"
       id="path1724-8"
       style="fill:#d3dae3;fill-opacity:1;stroke-width:0.0562496" />
    <path
       d="m 23.3283,15.102827 h -4.732304 c -0.567863,0 -0.946348,0.37852 -0.946348,0.946432 0,0.567918 0.378485,0.946431 0.946348,0.946431 H 23.3283 c 0.56787,0 0.946348,-0.378513 0.946348,-0.946431 2.89e-4,-0.567912 -0.378478,-0.946432 -0.946348,-0.946432 z"
       id="path1730-6"
       style="fill:#d3dae3;fill-opacity:1;stroke-width:0.0709863" />
    <path
       d="m 23.328178,12.515927 h -4.732207 c -0.567847,0 -0.946323,0.378477 -0.946323,0.946323 0,0.567853 0.378476,0.946333 0.946323,0.946333 h 4.732207 c 0.567855,0 0.946324,-0.37848 0.946324,-0.946333 2.83e-4,-0.567846 -0.378469,-0.946323 -0.946324,-0.946323 z"
       id="path1732-8"
       style="fill:#d3dae3;fill-opacity:1;stroke-width:0.0709818" />
  </g>
  <g
     id="22-22-accessories-calculator"
     transform="translate(32,-21.999999)">
    <rect
       style="opacity:0.00100002;fill:#d1d5e9;fill-opacity:1"
       width="22"
       height="22"
       x="0"
       y="0"
       id="rect13" />
    <path
       inkscape:connector-curvature="0"
       id="path9068-9-37-8-0-1-0-1-3-7-4-6-1-9"
       d="m 19.474416,2.625688 -17.1185095,5e-6 V 17.416689 H 19.643909 Z"
       style="display:inline;overflow:visible;visibility:visible;fill:url(#linearGradient4);fill-opacity:1;fill-rule:nonzero;stroke:none;stroke-width:0.559691;marker:none"
       sodipodi:nodetypes="cccccc" />
    <path
       d="M 16.802918,1 H 5.1966505 C 4.0839975,1.0015 3.0171875,1.443812 2.2305285,2.230647 1.4436755,3.01732 1.0011645,4.084062 0.9999065,5.196722 v 11.60671 -1.58e-4 c 8.62e-4,1.11263 0.443769,2.179402 1.230622,2.96608 0.786659,0.786834 1.853469,1.229354 2.966122,1.230645 h 11.6066985 -1.93e-4 c 1.112651,-0.0012 2.179461,-0.443811 2.966113,-1.230645 0.786859,-0.786678 1.229367,-1.85345 1.230629,-2.96608 V 5.196945 C 20.997899,4.084311 20.556128,3.017543 19.769269,2.230865 18.982617,1.444032 17.915807,1.001508 16.803156,1.000224 Z M 5.6169085,3.000025 H 16.382911 c 0.739238,0.0011 1.436277,-0.113832 1.958997,0.409 0.52269,0.52268 0.657101,1.018407 0.658,1.757652 V 17.000024 H 2.9999075 V 5.166677 c 8.51e-4,-0.739245 0.135307,-1.234936 0.658001,-1.757652 0.522677,-0.52268 1.219785,-0.408091 1.959,-0.409 z"
       id="path1193-3-9-5"
       style="fill:#d3dae3;fill-opacity:1;stroke-width:0.0396828"
       sodipodi:nodetypes="ccccccccccccccccccccccccc" />
    <path
       d="m 7.7252865,13.56088 1.125798,-1.125794 c 0.250119,-0.25012 0.250119,-0.625387 0,-0.875687 -0.25011,-0.250115 -0.625379,-0.250115 -0.875683,0 l -1.125797,1.125797 -1.125803,-1.125797 c -0.250111,-0.250115 -0.625378,-0.250115 -0.875678,0 -0.250118,0.250115 -0.250118,0.625381 0,0.875687 l 1.125798,1.125794 -1.125798,1.125798 c -0.250118,0.250117 -0.250118,0.625386 0,0.87569 0.125144,0.125149 0.31278,0.187631 0.437745,0.187631 0.125148,0 0.312784,-0.06251 0.437747,-0.187631 l 1.125803,-1.125802 1.125795,1.125802 c 0.125156,0.125149 0.312787,0.187631 0.437748,0.187631 0.125156,0 0.312786,-0.06251 0.437749,-0.187631 0.250119,-0.250118 0.250119,-0.625386 0,-0.87569 z"
       id="path1726-7-7"
       style="fill:#d3dae3;fill-opacity:1;stroke-width:0.0469084" />
    <path
       d="m 4.8689475,7.327095 h 1.250952 v 1.250952 c 0,0.375267 0.250112,0.625379 0.625379,0.625379 0.375268,0 0.625386,-0.250112 0.625386,-0.625379 V 7.327095 h 1.250951 c 0.375268,0 0.62538,-0.250118 0.62538,-0.625385 0,-0.375268 -0.250112,-0.62538 -0.62538,-0.62538 H 7.3706645 V 4.825378 c 0,-0.375264 -0.250118,-0.625379 -0.625386,-0.625379 -0.375267,0 -0.625379,0.250115 -0.625379,0.625379 V 6.07633 h -1.250952 c -0.375265,0 -0.62538,0.250112 -0.62538,0.62538 0,0.375267 0.250115,0.625385 0.62538,0.625385 z"
       id="path1724-8-7"
       style="fill:#d3dae3;fill-opacity:1;stroke-width:0.0469084" />
    <path
       d="m 16.939886,10.526954 h -3.946415 c -0.473561,0 -0.789192,0.31566 -0.789192,0.789261 0,0.473607 0.315631,0.78926 0.789192,0.78926 h 3.946415 c 0.473568,0 0.789192,-0.315653 0.789192,-0.78926 2.41e-4,-0.473601 -0.315624,-0.789261 -0.789192,-0.789261 z"
       id="path1730-6-1"
       style="fill:#d3dae3;fill-opacity:1;stroke-width:0.0591978" />
    <path
       d="m 16.939787,8.369657 h -3.946341 c -0.473545,0 -0.789167,0.315624 -0.789167,0.789168 0,0.47355 0.315623,0.789178 0.789167,0.789178 h 3.946341 c 0.473553,0 0.789168,-0.315628 0.789168,-0.789178 2.37e-4,-0.473544 -0.315615,-0.789168 -0.789168,-0.789168 z"
       id="path1732-8-1"
       style="fill:#d3dae3;fill-opacity:1;stroke-width:0.059194" />
  </g>
</svg>
