<?xml version="1.0" encoding="UTF-8" standalone="no"?>
<svg
   width="32"
   height="32"
   version="1.1"
   id="svg12"
   sodipodi:docname="akregator.svg"
   inkscape:version="1.2.2 (b0a8486541, 2022-12-01)"
   xmlns:inkscape="http://www.inkscape.org/namespaces/inkscape"
   xmlns:sodipodi="http://sodipodi.sourceforge.net/DTD/sodipodi-0.dtd"
   xmlns:xlink="http://www.w3.org/1999/xlink"
   xmlns="http://www.w3.org/2000/svg"
   xmlns:svg="http://www.w3.org/2000/svg"
   xmlns:rdf="http://www.w3.org/1999/02/22-rdf-syntax-ns#"
   xmlns:cc="http://creativecommons.org/ns#"
   xmlns:dc="http://purl.org/dc/elements/1.1/">
  <g
     id="22-22-akregator"
     transform="translate(32,10.000003)">
    <rect
       style="opacity:0.00100002"
       width="22"
       height="22"
       x="0"
       y="-1.3897704e-07"
       id="rect2" />
    <path
       inkscape:connector-curvature="0"
       id="path9068-9-37-8-0-1-0"
       d="M 19.474508,2.6852225 2.356,2.6852275 V 17.476222 h 17.288 z"
       style="display:inline;overflow:visible;visibility:visible;opacity:0.6;fill:url(#linearGradient2947);fill-opacity:1.0;fill-rule:nonzero;stroke:none;stroke-width:0.55969;marker:none"
       sodipodi:nodetypes="cccccc" />
    <path
       d="m 7.210525,5 c -0.36842,0 -0.663157,0.294736 -0.663157,0.663158 0,0.368421 0.294737,0.663157 0.663157,0.663157 4.115795,0 7.463154,3.336837 7.463154,7.452635 0,0.368408 0.294749,0.663158 0.663171,0.663158 C 15.705251,14.442108 16,14.147358 16,13.77895 16,8.936846 12.06315,5 7.210525,5 Z"
       id="path2-36-6"
       style="fill:#d3dae3;fill-opacity:1;stroke-width:0.105251" />
    <path
       d="m 7.210525,8.77895 c -0.36842,0 -0.663157,0.294734 -0.663157,0.663156 0,0.368426 0.294737,0.663149 0.663157,0.663149 2.03158,0 3.684218,1.642103 3.684218,3.673695 0,0.368408 0.294724,0.663158 0.66315,0.663158 0.368428,0 0.663157,-0.29475 0.663157,-0.663158 0,-2.7579 -2.2421,-5 -5.010525,-5 z"
       id="path4-3-7-2"
       style="fill:#d3dae3;fill-opacity:1;stroke-width:0.105251" />
    <path
       d="M 7.210525,12.557894 C 6.536842,12.557894 6,13.105252 6,13.768428 6,14.442108 6.547368,15 7.210525,15 c 0.673685,0 1.23158,-0.547357 1.23158,-1.231572 0,-0.663176 -0.547369,-1.210534 -1.23158,-1.210534 z"
       id="path6-5-9"
       style="fill:#d3dae3;fill-opacity:1;stroke-width:0.105251" />
    <path
       d="M 16.80301,0.999972 H 5.19674 C 4.08409,1.001472 3.01728,1.443785 2.23062,2.230619 1.44377,3.017293 1.00126,4.084034 1,5.196695 v 11.60671 -1.58e-4 c 8.6e-4,1.11263 0.44377,2.179402 1.23062,2.96608 0.78666,0.786834 1.85347,1.229354 2.96612,1.230645 h 11.6067 -1.9e-4 c 1.11265,-0.0012 2.17946,-0.443811 2.96611,-1.230645 0.78686,-0.786678 1.22937,-1.85345 1.23063,-2.96608 V 5.196918 C 20.99799,4.084283 20.55622,3.017516 19.76936,2.230838 18.98271,1.444005 17.9159,1.00148 16.80325,1.000196 Z M 5.617,2.999997 h 10.766 c 0.73924,0.0011 1.43628,-0.113833 1.959,0.409 0.52269,0.52268 0.6571,1.018408 0.658,1.757653 V 16.999997 H 3 V 5.16665 C 3.00085,4.427405 3.13532,3.931713 3.658,3.408997 4.18068,2.886318 4.87778,3.000907 5.617,2.999997 Z"
       id="path1193-3-1"
       style="fill:#d3dae3;fill-opacity:1;stroke-width:0.0396829"
       sodipodi:nodetypes="ccccccccccccccccccccccccc" />
  </g>
  <g
     id="akregator">
    <rect
       style="opacity:0.00100002"
       width="32"
       height="32"
       x="0"
       y="0"
       id="rect7" />
    <path
       inkscape:connector-curvature="0"
       id="path9068-9-37-8-0-1"
       d="m 26,6 -20.2,5e-6 V 23.1 h 20.4 z"
       style="display:inline;overflow:visible;visibility:visible;opacity:1;fill:url(#linearGradient5058);fill-opacity:1.0;fill-rule:nonzero;stroke:none;stroke-width:0.653705;marker:none"
       sodipodi:nodetypes="cccccc" />
    <path
       d="m 9.903683,7.000095 c -0.548946,0 -0.988105,0.439157 -0.988105,0.988104 0,0.548948 0.439159,0.988105 0.988105,0.988105 6.132536,0 11.120099,4.971885 11.120099,11.104426 0,0.548932 0.439174,0.988105 0.988125,0.988105 C 22.560828,21.068835 23,20.629662 23,20.08073 23,12.866001 17.134094,7.000095 9.903683,7.000095 Z"
       id="path2-3"
       style="fill:#d3dae3;fill-opacity:1;stroke-width:0.156827" />
    <path
       d="m 9.903683,12.63073 c -0.548946,0 -0.988105,0.439147 -0.988105,0.988105 0,0.548954 0.439159,0.988088 0.988105,0.988088 3.027057,0 5.48949,2.446739 5.48949,5.473807 0,0.548932 0.439134,0.988105 0.988088,0.988105 0.548958,0 0.988104,-0.439173 0.988104,-0.988105 0,-4.109271 -3.340729,-7.45 -7.465682,-7.45 z"
       id="path4-3-6"
       style="fill:#d3dae3;fill-opacity:1;stroke-width:0.156827" />
    <path
       d="M 9.903683,18.261356 C 8.899896,18.261356 8.1,19.076923 8.1,20.065051 c 0,1.003784 0.815578,1.835044 1.803683,1.835044 1.003792,0 1.835057,-0.815566 1.835057,-1.835044 0,-0.988128 -0.815579,-1.803695 -1.835057,-1.803695 z"
       id="path6-7"
       style="fill:#d3dae3;fill-opacity:1;stroke-width:0.156827" />
    <path
       d="M 22.963626,4 H 9.036072 C 7.700891,4.0015 6.420748,4.532574 5.476754,5.476775 4.532568,6.420788 4.001525,7.700876 4,9.03607 v 13.92805 -1.89e-4 c 0.0015,1.335156 0.532568,2.615282 1.476754,3.559295 0.943994,0.944201 2.224137,1.475225 3.559318,1.476775 h 13.928035 -1.94e-4 c 1.335183,-0.0015 2.615324,-0.532574 3.559318,-1.476775 0.944187,-0.944013 1.475232,-2.224139 1.476755,-3.559295 V 9.036334 C 27.998186,7.701178 27.467418,6.421052 26.523231,5.47704 25.579237,4.532838 24.299096,4.001815 22.963912,4.000265 Z M 9.2,6.000013 h 13.6 c 0.887095,0.0011 1.603761,0.04384 2.231,0.671244 C 25.658232,7.29847 25.998901,8.11292 26,9.000013 V 23.000026 H 6 V 9.000013 C 6.0011,8.11292 6.341775,7.298508 6.969,6.671257 7.596201,6.044045 8.312916,6.001109 9.2,6.000013 Z"
       id="path1193-5"
       style="fill:#d3dae3;fill-opacity:1;stroke-width:0.047619"
       sodipodi:nodetypes="ccccccccccccccccccccccccc" />
  </g>
  <metadata
     id="metadata18">
    <rdf:RDF>
      <cc:Work
         rdf:about="">
        <dc:format>image/svg+xml</dc:format>
        <dc:type
           rdf:resource="http://purl.org/dc/dcmitype/StillImage" />
      </cc:Work>
    </rdf:RDF>
  </metadata>
  <defs
     id="defs16">
    <linearGradient
       inkscape:collect="always"
       id="linearGradient451">
      <stop
         style="stop-color:#ffb380;stop-opacity:1"
         offset="0"
         id="stop447" />
      <stop
         style="stop-color:#ff9955;stop-opacity:1"
         offset="1"
         id="stop449" />
    </linearGradient>
    <linearGradient
       inkscape:collect="always"
       xlink:href="#linearGradient451"
       id="linearGradient5058"
       x1="148.9608"
       y1="596.36218"
       x2="148.9608"
       y2="636.12817"
       gradientUnits="userSpaceOnUse"
       gradientTransform="matrix(0.50999969,0,0,0.42750131,-58.969959,-248.94562)" />
    <linearGradient
       inkscape:collect="always"
       xlink:href="#linearGradient451"
       id="linearGradient2947"
       gradientUnits="userSpaceOnUse"
       gradientTransform="matrix(0.43219982,0,0,0.36977632,-52.533369,-217.83547)"
       x1="146.99998"
       y1="597.21362"
       x2="146.99998"
       y2="636.36224" />
  </defs>
  <sodipodi:namedview
     pagecolor="#ffffff"
     bordercolor="#000000"
     borderopacity="1"
     objecttolerance="10"
     gridtolerance="10"
     guidetolerance="10"
     inkscape:pageopacity="0"
     inkscape:pageshadow="2"
     inkscape:window-width="1920"
     inkscape:window-height="994"
     id="namedview14"
     showgrid="true"
     inkscape:zoom="9.8125003"
     inkscape:cx="8.6114647"
     inkscape:cy="22.318471"
     inkscape:window-x="0"
     inkscape:window-y="0"
     inkscape:window-maximized="1"
     inkscape:current-layer="svg12"
     inkscape:document-rotation="0"
     inkscape:showpageshadow="false"
     inkscape:pagecheckerboard="0"
     inkscape:lockguides="true"
     inkscape:deskcolor="#d1d1d1">
    <inkscape:grid
       type="xygrid"
       id="grid1117"
       originx="0"
       originy="0" />
  </sodipodi:namedview>
</svg>
