<?xml version="1.0" encoding="UTF-8" standalone="no"?>
<svg
   width="32"
   height="32"
   version="1.1"
   id="svg12"
   sodipodi:docname="amarok.svg"
   inkscape:version="1.2.2 (b0a8486541, 2022-12-01)"
   xmlns:inkscape="http://www.inkscape.org/namespaces/inkscape"
   xmlns:sodipodi="http://sodipodi.sourceforge.net/DTD/sodipodi-0.dtd"
   xmlns:xlink="http://www.w3.org/1999/xlink"
   xmlns="http://www.w3.org/2000/svg"
   xmlns:svg="http://www.w3.org/2000/svg"
   xmlns:rdf="http://www.w3.org/1999/02/22-rdf-syntax-ns#"
   xmlns:cc="http://creativecommons.org/ns#"
   xmlns:dc="http://purl.org/dc/elements/1.1/">
  <g
     id="22-22-amarok"
     transform="translate(32,10.000001)">
    <path
       style="opacity:0.00100002"
       d="M 0,0 V 22 H 22 V 0 Z"
       id="path4" />
    <path
       inkscape:connector-curvature="0"
       id="path9068-9-37-8-0-1-0"
       d="M 19.474508,2.773 2.356,2.773005 V 17.564 h 17.288 z"
       style="display:inline;overflow:visible;visibility:visible;opacity:0.6;fill:url(#linearGradient2947);fill-opacity:1.0;fill-rule:nonzero;stroke:none;stroke-width:0.55969;marker:none"
       sodipodi:nodetypes="cccccc" />
    <path
       style="color:#d5c289;fill:#d3dae3;fill-opacity:1;stroke-width:0.81322"
       class="ColorScheme-Text"
       d="m 15.389343,4.000025 c -0.3048,0 -0.895993,0.699368 -1.117592,0.809733 C 14.049752,4.920109 12.29515,6.170654 12.129157,6.39141 11.962754,6.612129 11.74102,6.704277 11.501019,6.685892 11.260626,6.667542 10.501993,6.659702 10.243202,6.806859 9.984798,6.954068 8.804132,8.157499 8.508415,8.304592 8.212893,8.45171 7.827498,8.526984 7.642786,8.545394 7.458101,8.563774 6.846121,9.242593 6.679884,9.37138 c -0.166239,0.128789 -1.479751,0.694908 -1.66447,0.80519 -0.184725,0.110374 1.34752,1.656021 1.569156,1.692801 0.221656,0.03687 -0.574543,0.524669 -0.579302,0.874367 -0.0048,0.348849 0.38142,1.387985 2.619556,2.610638 1.934887,1.056984 3.978619,0.547937 4.750042,0.332665 0.306063,-0.0854 0.193758,-1.066602 0.250397,-1.58808 0.03699,-0.331095 0.166196,-3.108739 0.646488,-3.84452 0.480233,-0.735695 1.852953,-1.619004 2.333227,-1.710935 0.480273,-0.09196 0.387892,-0.276022 0.387892,-0.441534 0,-0.165525 -0.0742,-0.533426 -0.203518,-0.588586 C 16.660064,7.458216 16.155581,7.789614 15.989345,7.82639 15.823107,7.86316 15.029118,7.91846 14.918243,7.73454 14.807442,7.550707 15.814052,5.674253 15.943252,5.453537 16.072448,5.232779 16.128179,4.938685 15.887752,4.62604 15.647768,4.31328 15.481722,4.000404 15.389324,4.000404 Z m -4.209806,3.870972 c 0.125277,-0.0016 0.210546,0.01058 0.210546,0.01058 0.07013,0.152709 -0.256706,0.632729 -0.560552,0.698216 C 10.525774,8.645194 9.824346,9.605467 9.801005,9.387256 9.777565,9.169052 10.081694,8.44893 10.432262,8.121632 10.651358,7.917053 10.970727,7.874194 11.179537,7.870997 Z"
       id="path58-5-1-67-0" />
    <path
       d="M 16.80301,1 H 5.19674 C 4.08409,1.0015 3.01728,1.443813 2.23062,2.230647 1.44377,3.017321 1.00126,4.084062 1,5.196723 v 11.60671 -1.58e-4 c 8.6e-4,1.11263 0.44377,2.179402 1.23062,2.96608 C 3.01728,20.556189 4.08409,20.998709 5.19674,21 h 11.6067 -1.9e-4 c 1.11265,-0.0012 2.17946,-0.443811 2.96611,-1.230645 0.78686,-0.786678 1.22937,-1.85345 1.23063,-2.96608 V 5.196946 C 20.99799,4.084311 20.55622,3.017544 19.76936,2.230866 18.98271,1.444033 17.9159,1.001508 16.80325,1.000224 Z M 5.617,3.000025 h 10.766 c 0.73924,0.0011 1.43628,-0.113833 1.959,0.409 0.52269,0.52268 0.6571,1.018408 0.658,1.757653 V 17.000025 H 3 V 5.166678 C 3.00085,4.427433 3.13532,3.931741 3.658,3.409025 4.18068,2.886346 4.87778,3.000935 5.617,3.000025 Z"
       id="path1193-3-9"
       style="fill:#d3dae3;fill-opacity:1;stroke-width:0.0396829"
       sodipodi:nodetypes="ccccccccccccccccccccccccc" />
  </g>
  <metadata
     id="metadata18">
    <rdf:RDF>
      <cc:Work
         rdf:about="">
        <dc:format>image/svg+xml</dc:format>
        <dc:type
           rdf:resource="http://purl.org/dc/dcmitype/StillImage" />
      </cc:Work>
    </rdf:RDF>
  </metadata>
  <defs
     id="defs16">
    <linearGradient
       inkscape:collect="always"
       id="linearGradient1007">
      <stop
         style="stop-color:#2a7fff;stop-opacity:1"
         offset="0"
         id="stop1003" />
      <stop
         style="stop-color:#6db2c5;stop-opacity:1;"
         offset="1"
         id="stop1005" />
    </linearGradient>
    <linearGradient
       x1="0"
       x2="0"
       y1="0"
       y2="16"
       gradientUnits="userSpaceOnUse"
       gradientTransform="matrix(1.5000001,0,0,1.5000001,3.999995,3.9999999)"
       id="linearGradient9">
      <stop
         offset="0%"
         style="stop-color:#303b3d; stop-opacity:1"
         id="stop18" />
      <stop
         offset="100%"
         style="stop-color:#bc985d; stop-opacity:1"
         id="stop20" />
    </linearGradient>
    <linearGradient
       x1="0.81322718"
       x2="0.81322718"
       y1="0.49186769"
       y2="15.247891"
       gradientTransform="matrix(0.98373494,0,0,1.016534,5.9966823,11.726037)"
       gradientUnits="userSpaceOnUse"
       id="linearGradient13">
      <stop
         offset="0%"
         style="stop-color:#303b3d; stop-opacity:1"
         id="stop18-6" />
      <stop
         offset="100%"
         style="stop-color:#bc985d; stop-opacity:1"
         id="stop20-7" />
    </linearGradient>
    <linearGradient
       inkscape:collect="always"
       xlink:href="#linearGradient1007"
       id="linearGradient5058"
       x1="148.9608"
       y1="596.36218"
       x2="148.9608"
       y2="636.12817"
       gradientUnits="userSpaceOnUse"
       gradientTransform="matrix(0.50999969,0,0,0.42750131,-58.969959,-248.94562)" />
    <linearGradient
       inkscape:collect="always"
       xlink:href="#linearGradient1007"
       id="linearGradient2947"
       gradientUnits="userSpaceOnUse"
       gradientTransform="matrix(0.43219982,0,0,0.36977632,-52.533369,-217.7477)"
       x1="146.99998"
       y1="596.97632"
       x2="146.99998"
       y2="637.54138" />
  </defs>
  <sodipodi:namedview
     pagecolor="#ffffff"
     bordercolor="#000000"
     borderopacity="1"
     objecttolerance="10"
     gridtolerance="10"
     guidetolerance="10"
     inkscape:pageopacity="0"
     inkscape:pageshadow="2"
     inkscape:window-width="1920"
     inkscape:window-height="994"
     id="namedview14"
     showgrid="false"
     inkscape:zoom="9.8125003"
     inkscape:cx="16.254777"
     inkscape:cy="19.821655"
     inkscape:window-x="0"
     inkscape:window-y="0"
     inkscape:window-maximized="1"
     inkscape:current-layer="svg12"
     inkscape:document-rotation="0"
     inkscape:lockguides="true"
     inkscape:showpageshadow="false"
     inkscape:pagecheckerboard="0"
     inkscape:deskcolor="#d1d1d1">
    <inkscape:grid
       type="xygrid"
       id="grid889"
       originx="32"
       originy="10.000001" />
  </sodipodi:namedview>
  <g
     id="amarok">
    <path
       style="opacity:0.00100002"
       d="M 0,0 V 32.000001 H 32 V 0 Z"
       id="path7" />
    <path
       inkscape:connector-curvature="0"
       id="path9068-9-37-8-0-1"
       d="m 26,6 -20.2,5e-6 V 23.1 h 20.4 z"
       style="display:inline;overflow:visible;visibility:visible;opacity:0.6;fill:url(#linearGradient5058);fill-opacity:1;fill-rule:nonzero;stroke:none;stroke-width:0.653705;marker:none"
       sodipodi:nodetypes="cccccc" />
    <path
       style="color:#d5c289;fill:#d3dae3;fill-opacity:1;stroke-width:0.948745"
       class="ColorScheme-Text"
       d="m 21.120894,7.5 c -0.355595,0 -1.045321,0.81593 -1.303853,0.9446877 -0.258995,0.1287457 -2.306034,1.5877133 -2.499699,1.8452653 -0.19413,0.2575 -0.452817,0.365012 -0.732815,0.343562 -0.280464,-0.02141 -1.165534,-0.03052 -1.46746,0.141127 -0.301466,0.171744 -1.678911,1.575745 -2.023922,1.747357 -0.344768,0.171636 -0.794396,0.259454 -1.009892,0.280934 -0.215466,0.02145 -0.929445,0.8134 -1.123388,0.96365 -0.193946,0.15025 -1.726377,0.810732 -1.941882,0.939392 -0.215513,0.128773 1.572105,1.932027 1.83068,1.974926 0.258598,0.04297 -0.670299,0.612123 -0.67585,1.020102 -0.0055,0.406993 0.44499,1.619308 3.056145,3.045743 2.257372,1.233143 4.641723,0.639259 5.541717,0.388101 0.357077,-0.09965 0.226054,-1.244357 0.292133,-1.852761 0.04311,-0.38627 0.193896,-3.626856 0.754233,-4.48526 0.56027,-0.858316 2.161777,-1.888842 2.7221,-1.996096 0.560319,-0.107298 0.452538,-0.322023 0.452538,-0.515124 0,-0.193116 -0.08656,-0.62233 -0.237436,-0.686682 -0.150831,-0.06436 -0.739393,0.322264 -0.933343,0.365173 -0.193944,0.0429 -1.120261,0.107416 -1.249615,-0.107171 -0.129269,-0.214467 1.045112,-2.4036635 1.195838,-2.6611655 0.150736,-0.2575508 0.215749,-0.6006611 -0.06474,-0.965414 -0.27999,-0.364887 -0.473716,-0.729909 -0.581516,-0.729909 z m -4.911433,4.516137 c 0.146163,-0.0023 0.245639,0.01234 0.245639,0.01234 0.08183,0.178158 -0.299493,0.738184 -0.653977,0.814583 -0.354383,0.07631 -1.172724,1.196616 -1.199951,0.942035 -0.02736,-0.254568 0.327469,-1.094709 0.736465,-1.47656 0.255611,-0.238674 0.628216,-0.288677 0.871824,-0.292404 z"
       id="path58-5-1-3" />
    <path
       d="M 22.963626,3.999988 H 9.036072 C 7.700891,4.001488 6.420748,4.532562 5.476754,5.476763 4.532568,6.420776 4.001525,7.700864 4,9.036058 v 13.92805 -1.89e-4 c 0.0015,1.335156 0.532568,2.615282 1.476754,3.559295 0.943994,0.944201 2.224137,1.475225 3.559318,1.476775 h 13.928035 -1.94e-4 c 1.335183,-0.0015 2.615324,-0.532574 3.559318,-1.476775 0.944187,-0.944013 1.475232,-2.224139 1.476755,-3.559295 V 9.036323 C 27.998186,7.701166 27.467418,6.42104 26.523231,5.477028 25.579237,4.532826 24.299096,4.001803 22.963912,4.000253 Z M 9.2,6.000001 h 13.6 c 0.887095,0.0011 1.603761,0.04384 2.231,0.671244 0.627232,0.627213 0.967901,1.441663 0.969,2.328756 V 23.000014 H 6 V 9.000001 C 6.0011,8.112908 6.341775,7.298496 6.969,6.671245 7.596201,6.044033 8.312916,6.001097 9.2,6.000001 Z"
       id="path1193-5"
       style="fill:#d3dae3;fill-opacity:1;stroke-width:0.047619"
       sodipodi:nodetypes="ccccccccccccccccccccccccc" />
  </g>
</svg>
