<?xml version="1.0" encoding="UTF-8" standalone="no"?>
<svg
   width="32"
   height="32"
   version="1"
   id="svg14"
   sodipodi:docname="antimicro.svg"
   inkscape:version="1.2.2 (b0a8486541, 2022-12-01)"
   xmlns:inkscape="http://www.inkscape.org/namespaces/inkscape"
   xmlns:sodipodi="http://sodipodi.sourceforge.net/DTD/sodipodi-0.dtd"
   xmlns:xlink="http://www.w3.org/1999/xlink"
   xmlns="http://www.w3.org/2000/svg"
   xmlns:svg="http://www.w3.org/2000/svg">
  <g
     id="22-22-antimicro">
    <rect
       style="opacity:0.00100002"
       width="22"
       height="22"
       x="37.999996"
       y="10"
       id="rect9" />
    <path
       inkscape:connector-curvature="0"
       id="path9068-9-37-8-0-1-0"
       d="m 57.474507,12.772975 -17.118508,5e-6 v 14.790995 h 17.288 z"
       style="display:inline;overflow:visible;visibility:visible;opacity:0.6;fill:url(#linearGradient2947);fill-opacity:1.0;fill-rule:nonzero;stroke:none;stroke-width:0.55969;marker:none"
       sodipodi:nodetypes="cccccc" />
    <path
       d="m 54.803009,10.999975 h -11.60627 c -1.11265,0.0015 -2.17946,0.443813 -2.96612,1.230647 -0.78685,0.786674 -1.22936,1.853415 -1.23062,2.966076 v 11.60671 -1.58e-4 c 8.6e-4,1.11263 0.44377,2.179402 1.23062,2.96608 0.78666,0.786834 1.85347,1.229354 2.96612,1.230645 h 11.6067 -1.9e-4 c 1.11265,-0.0012 2.17946,-0.443811 2.96611,-1.230645 0.78686,-0.786678 1.22937,-1.85345 1.23063,-2.96608 V 15.196921 c -0.002,-1.112635 -0.44377,-2.179402 -1.23063,-2.96608 -0.78665,-0.786833 -1.85346,-1.229358 -2.96611,-1.230642 z M 43.616999,13 h 10.766 c 0.73924,0.0011 1.43628,-0.113833 1.959,0.409 0.52269,0.52268 0.6571,1.018408 0.658,1.757653 V 27 h -16 V 15.166653 c 8.5e-4,-0.739245 0.13532,-1.234937 0.658,-1.757653 0.52268,-0.522679 1.21978,-0.40809 1.959,-0.409 z"
       id="path1193-3-9"
       style="fill:#d3dae3;fill-opacity:1;stroke-width:0.0396829"
       sodipodi:nodetypes="ccccccccccccccccccccccccc" />
    <path
       d="m 45.022726,16 c -1.255682,0 -2.272728,1.521524 -2.272728,3.399493 v 3.965601 c 0,1.008683 1.223863,1.514726 1.939775,0.800714 l 1.371591,-1.367391 h 0.384089 a 1.4204547,1.4166907 0 0 0 1.134094,0.566677 1.4204547,1.4166907 0 0 0 1.131815,-0.566677 h 0.514776 a 1.4204547,1.4166907 0 0 0 1.134656,0.566677 1.4204547,1.4166907 0 0 0 1.131821,-0.566677 h 0.44602 l 1.371592,1.367391 c 0.715911,0.714012 1.939771,0.207969 1.939771,-0.800714 V 19.399493 C 55.249998,17.521524 54.232958,16 52.977271,16 Z m 0,0.566674 h 7.954545 c 0.941478,0 1.704547,1.268228 1.704547,2.832819 v 3.965601 c 0,0.504341 -0.611932,0.757079 -0.969881,0.40064 l -1.538074,-1.533993 h -1.010797 a 0.85227277,0.85001471 0 0 1 -0.802272,0.566676 0.85227277,0.85001471 0 0 1 -0.792611,-0.541176 v -0.0255 H 48.38182 a 0.85227277,0.85001471 0 0 1 -0.802273,0.566677 0.85227277,0.85001471 0 0 1 -0.802275,-0.566677 h -0.951134 l -1.538074,1.533993 c -0.357951,0.357006 -0.969885,0.104268 -0.969885,-0.40064 v -3.965601 c 0,-1.564027 0.76307,-2.833386 1.704547,-2.833386 z"
       id="path21-3-3-6"
       style="fill:#d3dae3;fill-opacity:1;stroke-width:0.567403" />
    <path
       d="m 45.022726,17.131088 v 1.133351 h -1.136365 v 1.133354 h 1.136365 v 1.133352 h 1.136364 v -1.133352 h 1.136364 V 18.264439 H 46.15909 v -1.133351 z m 6.25,4.250072 a 0.85227277,0.85001471 0 0 1 -0.85227,0.850014 0.85227277,0.85001471 0 0 1 -0.852273,-0.850014 0.85227277,0.85001471 0 0 1 0.852273,-0.850015 0.85227277,0.85001471 0 0 1 0.85227,0.850015 z m -2.840907,0 a 0.85227277,0.85001471 0 0 1 -0.852272,0.850014 0.85227277,0.85001471 0 0 1 -0.852276,-0.850014 0.85227277,0.85001471 0 0 1 0.852276,-0.850015 0.85227277,0.85001471 0 0 1 0.852272,0.850015 z m 4.545452,-1.416692 a 0.56818198,0.5666765 0 0 1 -0.568179,0.566677 0.56818198,0.5666765 0 0 1 -0.568184,-0.566677 0.56818198,0.5666765 0 0 1 0.568184,-0.566675 0.56818198,0.5666765 0 0 1 0.568179,0.566675 z m 1.136366,-1.133352 a 0.56818198,0.5666765 0 0 1 -0.568179,0.566677 0.56818198,0.5666765 0 0 1 -0.568187,-0.566677 0.56818198,0.5666765 0 0 1 0.568187,-0.566677 0.56818198,0.5666765 0 0 1 0.568179,0.566677 z m -1.136366,-1.133353 a 0.56818198,0.5666765 0 0 1 -0.568179,0.566676 0.56818198,0.5666765 0 0 1 -0.568184,-0.566676 0.56818198,0.5666765 0 0 1 0.568184,-0.566675 0.56818198,0.5666765 0 0 1 0.568179,0.566675 z m -1.136363,1.133353 a 0.56818198,0.5666765 0 0 1 -0.568182,0.566677 0.56818198,0.5666765 0 0 1 -0.568182,-0.566677 0.56818198,0.5666765 0 0 1 0.568182,-0.566677 0.56818198,0.5666765 0 0 1 0.568182,0.566677 z"
       id="path23-2-6-2"
       style="fill:#d3dae3;fill-opacity:1;stroke-width:0.567403" />
  </g>
  <sodipodi:namedview
     id="namedview16"
     pagecolor="#ffffff"
     bordercolor="#000000"
     borderopacity="1"
     inkscape:showpageshadow="2"
     inkscape:pageopacity="0.0"
     inkscape:pagecheckerboard="0"
     inkscape:deskcolor="#cccccc"
     showgrid="false"
     inkscape:zoom="10.429825"
     inkscape:cx="19.223717"
     inkscape:cy="23.490327"
     inkscape:window-width="1920"
     inkscape:window-height="996"
     inkscape:window-x="0"
     inkscape:window-y="0"
     inkscape:window-maximized="1"
     inkscape:current-layer="svg14">
    <inkscape:grid
       type="xygrid"
       id="grid1266"
       originx="1e-06"
       originy="0" />
  </sodipodi:namedview>
  <defs
     id="defs5">
    <linearGradient
       inkscape:collect="always"
       id="linearGradient2604">
      <stop
         style="stop-color:#ff80ff;stop-opacity:1;"
         offset="0"
         id="stop2600" />
      <stop
         style="stop-color:#00ffff;stop-opacity:1"
         offset="1"
         id="stop2602" />
    </linearGradient>
    <style
       type="text/css"
       id="current-color-scheme" />
    <linearGradient
       inkscape:collect="always"
       xlink:href="#linearGradient2604"
       id="linearGradient5058"
       x1="166.6326"
       y1="597.25928"
       x2="127.15304"
       y2="636.80103"
       gradientUnits="userSpaceOnUse"
       gradientTransform="matrix(0.50999969,0,0,0.42750131,-58.969959,-248.94561)" />
    <linearGradient
       inkscape:collect="always"
       xlink:href="#linearGradient2604"
       id="linearGradient2947"
       gradientUnits="userSpaceOnUse"
       gradientTransform="matrix(0.43219982,0,0,0.36977632,-14.53337,-207.74773)"
       x1="166.96552"
       y1="595.93915"
       x2="126.36893"
       y2="637.02283" />
  </defs>
  <g
     id="antimicro">
    <rect
       style="opacity:0.00100002"
       width="32"
       height="32"
       x="0"
       y="0"
       id="rect4" />
    <path
       inkscape:connector-curvature="0"
       id="path9068-9-37-8-0-1"
       d="m 26,6.000012 -20.2,5e-6 v 17.099995 h 20.4 z"
       style="display:inline;overflow:visible;visibility:visible;opacity:0.6;fill:url(#linearGradient5058);fill-opacity:1;fill-rule:nonzero;stroke:none;stroke-width:0.653705;marker:none"
       sodipodi:nodetypes="cccccc" />
    <path
       d="M 22.963626,4 H 9.036072 C 7.700891,4.0015 6.420748,4.532574 5.476754,5.476775 4.532568,6.4207881 4.001525,7.7008761 4,9.0360701 V 22.96412 22.963931 c 0.0015,1.335156 0.532568,2.615282 1.476754,3.559295 0.943994,0.944201 2.224137,1.475225 3.559318,1.476775 h 13.928035 -1.94e-4 c 1.335183,-0.0015 2.615324,-0.532574 3.559318,-1.476775 0.944187,-0.944013 1.475232,-2.224139 1.476755,-3.559295 V 9.0363351 C 27.998186,7.7011781 27.467418,6.4210521 26.523231,5.47704 25.579237,4.532838 24.299096,4.001815 22.963912,4.000265 Z M 9.2,6.000013 h 13.6 c 0.887095,0.0011 1.603761,0.04384 2.231,0.6712441 0.627232,0.627213 0.967901,1.441663 0.969,2.328756 V 23.000026 H 6 V 9.0000131 C 6.0011,8.1129201 6.341775,7.2985081 6.969,6.6712571 7.596201,6.044045 8.312916,6.001109 9.2,6.000013 Z"
       id="path1193-5"
       style="fill:#d3dae3;fill-opacity:1;stroke-width:0.047619"
       sodipodi:nodetypes="ccccccccccccccccccccccccc" />
    <path
       d="M 10.909092,9 C 9.301819,9 8,10.969032 8,13.399344 v 5.131951 c 0,1.30536 1.566545,1.960234 2.482913,1.036222 l 1.75563,-1.769565 h 0.49164 a 1.8181822,1.8333643 0 0 0 1.451638,0.733343 1.8181822,1.8333643 0 0 0 1.448728,-0.733343 h 0.65891 a 1.8181822,1.8333643 0 0 0 1.45236,0.733343 1.8181822,1.8333643 0 0 0 1.448732,-0.733343 h 0.570905 l 1.755638,1.769565 c 0.916367,0.924012 2.482909,0.269138 2.482909,-1.036222 V 13.399344 C 24.000003,10.969032 22.698192,9 21.090911,9 Z m 0,0.733348 h 10.181819 c 1.205092,0 2.181819,1.641229 2.181819,3.665996 v 5.131951 c 0,0.652684 -0.783274,0.979754 -1.24145,0.518483 L 20.062542,17.06461 h -1.29382 A 1.0909091,1.1000191 0 0 1 17.741819,17.797952 1.0909091,1.1000191 0 0 1 16.72728,17.09761 v -0.033 H 15.208734 A 1.0909091,1.1000191 0 0 1 14.181821,17.797953 1.0909091,1.1000191 0 0 1 13.154915,17.06461 H 11.937458 L 9.968721,19.049778 C 9.510542,19.511784 8.727276,19.184712 8.727276,18.531295 v -5.131951 c 0,-2.024035 0.976727,-3.666737 2.181816,-3.666737 z"
       id="path21-3-3-7"
       style="fill:#d3dae3;fill-opacity:1;stroke-width:0.730275" />
    <path
       d="m 10.909092,10.463763 v 1.466685 H 9.454541 v 1.466696 h 1.454551 v 1.466694 h 1.454543 v -1.466694 h 1.454551 v -1.466696 h -1.454551 v -1.466685 z m 8.000002,5.500096 a 1.0909091,1.1000191 0 0 1 -1.090911,1.100016 1.0909091,1.1000191 0 0 1 -1.090903,-1.100016 1.0909091,1.1000191 0 0 1 1.090903,-1.100021 1.0909091,1.1000191 0 0 1 1.090911,1.100021 z m -3.636358,0 a 1.0909091,1.1000191 0 0 1 -1.090915,1.100016 1.0909091,1.1000191 0 0 1 -1.090911,-1.100016 1.0909091,1.1000191 0 0 1 1.090911,-1.100021 1.0909091,1.1000191 0 0 1 1.090915,1.100021 z m 5.818175,-1.833365 a 0.72727289,0.73334623 0 0 1 -0.727265,0.733344 0.72727289,0.73334623 0 0 1 -0.727283,-0.733344 0.72727289,0.73334623 0 0 1 0.727283,-0.73335 0.72727289,0.73334623 0 0 1 0.727265,0.73335 z m 1.454544,-1.466701 a 0.72727289,0.73334623 0 0 1 -0.727263,0.733351 0.72727289,0.73334623 0 0 1 -0.727281,-0.733351 0.72727289,0.73334623 0 0 1 0.727281,-0.733345 0.72727289,0.73334623 0 0 1 0.727263,0.733345 z m -1.454544,-1.466687 a 0.72727289,0.73334623 0 0 1 -0.727265,0.733342 0.72727289,0.73334623 0 0 1 -0.727283,-0.733342 0.72727289,0.73334623 0 0 1 0.727283,-0.733343 0.72727289,0.73334623 0 0 1 0.727265,0.733343 z m -1.454548,1.466687 a 0.72727289,0.73334623 0 0 1 -0.727269,0.733351 0.72727289,0.73334623 0 0 1 -0.727275,-0.733351 0.72727289,0.73334623 0 0 1 0.727275,-0.733345 0.72727289,0.73334623 0 0 1 0.727269,0.733345 z"
       id="path23-2-6-5"
       style="fill:#d3dae3;fill-opacity:1;stroke-width:0.730275" />
  </g>
</svg>
