<?xml version="1.0" encoding="UTF-8" standalone="no"?>
<svg
   width="32"
   height="32"
   version="1"
   id="svg1154"
   sodipodi:docname="cadence.svg"
   inkscape:version="1.2.1 (9c6d41e410, 2022-07-14)"
   xmlns:inkscape="http://www.inkscape.org/namespaces/inkscape"
   xmlns:sodipodi="http://sodipodi.sourceforge.net/DTD/sodipodi-0.dtd"
   xmlns:xlink="http://www.w3.org/1999/xlink"
   xmlns="http://www.w3.org/2000/svg"
   xmlns:svg="http://www.w3.org/2000/svg">
  <sodipodi:namedview
     id="namedview1156"
     pagecolor="#ffffff"
     bordercolor="#666666"
     borderopacity="1.0"
     inkscape:showpageshadow="2"
     inkscape:pageopacity="0.0"
     inkscape:pagecheckerboard="0"
     inkscape:deskcolor="#d1d1d1"
     showgrid="false"
     inkscape:zoom="7.375"
     inkscape:cx="10.372881"
     inkscape:cy="16.338983"
     inkscape:window-width="1920"
     inkscape:window-height="1004"
     inkscape:window-x="0"
     inkscape:window-y="0"
     inkscape:window-maximized="1"
     inkscape:current-layer="svg1154" />
  <defs
     id="l4k1">
    <style
       type="text/css"
       id="current-color-scheme" />
    <linearGradient
       inkscape:collect="always"
       xlink:href="#linearGradient9551"
       id="linearGradient5058"
       x1="148.9608"
       y1="596.36218"
       x2="148.9608"
       y2="636.12817"
       gradientUnits="userSpaceOnUse"
       gradientTransform="matrix(0.50999969,0,0,0.42750131,-58.96996,-248.94561)" />
    <linearGradient
       inkscape:collect="always"
       id="linearGradient9551">
      <stop
         style="stop-color:#5581aa;stop-opacity:1;"
         offset="0"
         id="stop9547" />
      <stop
         style="stop-color:#6db2c5;stop-opacity:1;"
         offset="1"
         id="stop9549" />
    </linearGradient>
    <linearGradient
       inkscape:collect="always"
       xlink:href="#linearGradient9551"
       id="linearGradient2947"
       gradientUnits="userSpaceOnUse"
       gradientTransform="matrix(0.43219982,0,0,0.36977632,-52.448622,-217.52071)"
       x1="146.80391"
       y1="596.36243"
       x2="146.99998"
       y2="636.36224" />
  </defs>
  <g
     id="cadence">
    <rect
       style="opacity:0.00100002;fill:#d1d5e9;fill-opacity:1"
       width="32"
       height="32"
       x="0"
       y="0"
       id="rect1149" />
    <path
       inkscape:connector-curvature="0"
       id="path9068-9-37-8-0-1"
       d="m 26.2,6 -20.4,5e-6 V 23.1 h 20.4 z"
       style="display:inline;overflow:visible;visibility:visible;opacity:0.6;fill:url(#linearGradient5058);fill-opacity:1;fill-rule:nonzero;stroke:none;stroke-width:0.653705;marker:none"
       sodipodi:nodetypes="ccccc" />
    <path
       d="M 22.963639,4 H 9.036077 C 7.700892,4.0015 6.420751,4.532569 5.476756,5.476756 4.532569,6.420753 4.001524,7.70089 4,9.036075 v 13.928043 -1.92e-4 c 0.0015,1.335182 0.532569,2.615318 1.476756,3.559315 C 6.420751,27.46743 7.700892,27.998475 9.036077,28 h 13.928043 -1.96e-4 c 1.335181,-0.0016 2.615321,-0.53257 3.559316,-1.476759 0.944189,-0.943997 1.475235,-2.224133 1.476759,-3.559315 V 9.036361 C 27.998099,7.701176 27.467429,6.421038 26.52324,5.477043 25.579245,4.532855 24.299105,4.00181 22.963923,4.000287 Z M 9.2,6 h 13.5 c 0.887094,0.0011 1.510764,0.04407 2.138,0.671275 C 25.465235,7.298482 25.998903,8.112908 26,9 V 23 H 6 V 9 C 6.0011,8.112908 6.441787,7.298511 7.069,6.671275 7.696203,6.04404 8.312914,6.001096 9.2,6 Z"
       id="path1193-7-3-6"
       style="fill:#d3dae3;fill-opacity:1;stroke-width:0.0476191"
       sodipodi:nodetypes="ccccccccccccccccccccccccc" />
    <path
       style="fill:#d3dae3;fill-opacity:1"
       d="m 15.999999,6.5 c -0.904957,0.015 -2.28497,0.225514 -2.642578,0.615235 -0.381363,0.415605 -0.46397,0.999909 -0.357422,1.646484 0.203127,1.232663 1.905361,2.743927 2.914062,4.103516 -0.007,0.0088 -0.01442,0.01857 -0.02148,0.02734 -0.508075,0.632274 -1.56773,1.212279 -2.0625,1.703125 0.07975,-0.359236 0.137175,-1.149442 0.150391,-1.398438 0.01132,-0.213292 0.0056,-0.378794 -0.06055,-0.513671 -0.03308,-0.06744 -0.09243,-0.132099 -0.173828,-0.158204 -0.0814,-0.02611 -0.165398,-0.0087 -0.238282,0.02539 -0.196786,0.504927 -0.522267,1.184166 -0.787109,1.81836 -0.243544,0.404481 -0.415716,1.128721 -0.527344,1.386718 -0.05748,0.132851 -0.100289,0.248703 -0.126953,0.34961 -0.02512,0.09506 -0.03744,0.178583 -0.0332,0.255859 0.13912,0.187597 0.364068,0.160151 0.546875,0.171875 0.07935,-8.32e-4 0.162269,-0.01488 0.253906,-0.07031 0.215049,-0.130093 0.478403,-0.335675 0.759766,-0.576172 -0.200672,0.664198 -0.234613,0.875986 -0.554688,1.61914 -0.0044,0.01036 -0.01114,0.0209 -0.01563,0.03125 -1.688895,-0.229902 -3.4501608,-0.0842 -4.6425778,0.326172 -0.625464,0.215252 -1.107127,0.69495 -1.294922,1.22461 -0.187794,0.529662 -0.07342,1.202608 0.398438,2.037109 0.471855,0.834501 0.992354,1.217025 1.546875,1.335938 0.554521,0.118912 1.1083228,-0.0366 1.6210938,-0.451172 0.97757,-0.790357 1.859026,-2.624004 2.544921,-4.167969 0.01126,0.0017 0.02391,0.0023 0.03516,0.0039 0.807741,0.119162 1.582568,1.20627 2.259767,1.384766 -0.354601,0.11134 -0.769443,0.226614 -0.994142,0.339843 -0.192386,0.09695 -0.334923,0.184475 -0.419921,0.308594 -0.0425,0.06206 -0.07058,0.145725 -0.05273,0.228516 0.01785,0.08279 0.07626,0.146031 0.142578,0.191406 0.132645,0.09075 0.320905,0.140705 0.601562,0.181641 0.280656,0.04093 0.750689,0.06587 1.226563,0.07227 0.0014,1.9e-5 0.0025,-1.9e-5 0.0039,0 0.0014,-1.9e-5 0.0025,1.9e-5 0.0039,0 0.475874,-0.0064 0.945907,-0.03134 1.226563,-0.07227 0.280657,-0.04094 0.468917,-0.09089 0.601562,-0.181641 0.06632,-0.04537 0.124728,-0.108616 0.142578,-0.191406 0.01785,-0.08279 -0.01023,-0.166456 -0.05273,-0.228516 -0.085,-0.124119 -0.227536,-0.211644 -0.419922,-0.308594 -0.224699,-0.113228 -0.639541,-0.228503 -0.994141,-0.339843 0.677199,-0.178496 1.452025,-1.265604 2.259766,-1.384766 0.01125,-0.0016 0.0239,-0.0022 0.03516,-0.0039 0.685895,1.543965 1.567352,3.377612 2.544922,4.167969 0.51277,0.414572 1.066573,0.570084 1.621094,0.451172 0.554521,-0.118913 1.07502,-0.501437 1.546875,-1.335938 0.471858,-0.834501 0.586232,-1.507447 0.398437,-2.037109 -0.187795,-0.52966 -0.669457,-1.009358 -1.294921,-1.22461 -1.192417,-0.410372 -2.953685,-0.556074 -4.642579,-0.326172 -0.0045,-0.01035 -0.01122,-0.02089 -0.01562,-0.03125 -0.320077,-0.743154 -0.354016,-0.954942 -0.554688,-1.61914 0.281363,0.240497 0.544717,0.446079 0.759766,0.576172 0.09164,0.05543 0.174556,0.06948 0.253906,0.07031 0.182807,-0.01172 0.407755,0.01572 0.546875,-0.171875 0.0042,-0.07728 -0.0081,-0.160799 -0.0332,-0.255859 -0.02666,-0.100907 -0.06947,-0.216759 -0.126953,-0.34961 -0.111628,-0.257997 -0.2838,-0.982237 -0.527344,-1.386718 -0.264842,-0.634194 -0.590324,-1.313433 -0.787109,-1.81836 -0.07289,-0.03408 -0.156882,-0.0515 -0.238282,-0.02539 -0.0814,0.0261 -0.140748,0.09076 -0.173828,0.158204 -0.06615,0.134878 -0.07187,0.300379 -0.06055,0.513671 0.01322,0.248996 0.07064,1.039202 0.150391,1.398438 -0.49477,-0.490842 -1.554425,-1.070847 -2.0625,-1.703121 -0.0071,-0.0088 -0.01449,-0.01854 -0.02148,-0.02734 C 17.094641,11.50565 18.796875,9.994386 19.000002,8.761723 19.10655,8.115148 19.023942,7.530844 18.64258,7.115239 18.284972,6.725518 16.904959,6.515004 16.000002,6.500004 Z"
       id="path1146-3" />
  </g>
  <g
     id="22-22-cadence"
     transform="translate(-22,10)">
    <rect
       style="opacity:0.00100002;fill:#d1d5e9;fill-opacity:1"
       width="22"
       height="22"
       x="0"
       y="0"
       id="rect1144" />
    <path
       inkscape:connector-curvature="0"
       id="path9068-9-37-8-0-1-0"
       d="m 19.559254,2.999998 -17.118508,4e-6 v 14.790996 h 17.288 z"
       style="display:inline;overflow:visible;visibility:visible;opacity:0.6;fill:url(#linearGradient2947);fill-opacity:1;fill-rule:nonzero;stroke:none;stroke-width:0.55969;marker:none"
       sodipodi:nodetypes="cccccc" />
    <path
       d="M 16.80301,1 H 5.19674 C 4.08409,1.0015 3.01728,1.443813 2.23062,2.230647 1.44377,3.017321 1.00126,4.084062 1,5.196723 v 11.606709 -1.58e-4 c 8.6e-4,1.112631 0.44377,2.179403 1.23062,2.966079 C 3.01728,20.556188 4.08409,20.998709 5.19674,21 h 11.6067 -1.9e-4 c 1.11265,-0.0012 2.17946,-0.44381 2.96611,-1.230647 0.78686,-0.786676 1.22937,-1.853448 1.23063,-2.966079 V 5.196946 C 20.99799,4.084311 20.55622,3.017544 19.76936,2.230866 18.98271,1.444033 17.9159,1.001508 16.80325,1.000224 Z M 5.617,3.000025 h 10.766 c 0.73924,0.0011 1.43628,-0.113833 1.959,0.409 0.52269,0.52268 0.6571,1.018408 0.658,1.757652 V 17.000025 H 3 V 5.166678 C 3.00085,4.427433 3.13532,3.931741 3.658,3.409025 4.18068,2.886346 4.87778,3.000935 5.617,3.000025 Z"
       id="path1193-3-3"
       style="fill:#d3dae3;fill-opacity:1;stroke-width:0.0396829"
       sodipodi:nodetypes="ccccccccccccccccccccccccc" />
    <path
       style="fill:#d1d5e9;fill-opacity:1;stroke-width:0.750016"
       d="m 11.000149,4 c -0.678731,0.01129 -1.7137562,0.16914 -1.9819672,0.461434 -0.286027,0.311704 -0.347983,0.749939 -0.268071,1.234881 0.152348,0.924518 1.4290442,2.0579761 2.1855822,3.0776901 -0.0055,0.006 -0.01082,0.01388 -0.01614,0.02054 -0.381061,0.474215 -1.1758152,0.909225 -1.5468982,1.2773639 0.05982,-0.269436 0.102883,-0.8620989 0.112795,-1.0488479 0.0085,-0.159973 0.0042,-0.284096 -0.04542,-0.385255 -0.02481,-0.05062 -0.06932,-0.09908 -0.130373,-0.118656 -0.06105,-0.0196 -0.124051,-0.0061 -0.178714,0.01899 -0.147592,0.378701 -0.391707,0.888143 -0.590342,1.3637929 -0.18266,0.303365 -0.311792,0.846555 -0.395515,1.040055 -0.04311,0.09964 -0.07521,0.186537 -0.09522,0.262215 -0.01884,0.07134 -0.02808,0.13394 -0.0249,0.191899 0.104342,0.140695 0.273056,0.120116 0.410163,0.128905 0.05951,-6.22e-4 0.121704,-0.01117 0.190432,-0.05271 0.161291,-0.09757 0.358809,-0.251761 0.569834,-0.43214 -0.150506,0.498164 -0.175962,0.656999 -0.416022,1.214376 -0.0033,0.0077 -0.0083,0.0157 -0.01172,0.02345 -1.266692,-0.172425 -2.587663,-0.06311 -3.48199,0.244629 -0.469105,0.161444 -0.830359,0.521227 -0.971207,0.918475 -0.140848,0.397253 -0.05506,0.90197 0.298834,1.527856 0.353896,0.625891 0.744277,0.912788 1.160174,1.001976 0.415897,0.0892 0.831256,-0.02742 1.21584,-0.338391 0.733189,-0.59278 1.394292,-1.968032 1.908721,-3.126023 0.0085,0.0017 0.01794,0.0023 0.02637,0.0031 0.605816,0.08935 1.1869462,0.904716 1.6948532,1.03859 -0.265956,0.08349 -0.577092,0.169963 -0.7456182,0.254887 -0.144293,0.07269 -0.251197,0.138358 -0.314946,0.231447 -0.03187,0.04652 -0.05294,0.109298 -0.03955,0.171391 0.01339,0.06205 0.05719,0.109525 0.106935,0.143557 0.09948,0.06806 0.240683,0.105531 0.4511792,0.136233 0.210495,0.03066 0.563028,0.04945 0.919935,0.05425 0.0012,1.6e-5 0.0021,-1.4e-5 0.003,0 0.0012,-1.4e-5 0.0021,1.6e-5 0.0031,0 0.356912,-0.0053 0.709444,-0.02348 0.919941,-0.05425 0.210496,-0.03068 0.351694,-0.06811 0.451177,-0.136233 0.04975,-0.03406 0.09354,-0.08143 0.106933,-0.143557 0.01343,-0.06208 -0.0075,-0.124845 -0.03953,-0.171391 -0.06379,-0.09308 -0.170652,-0.158733 -0.314942,-0.231447 -0.168533,-0.0849 -0.479664,-0.171381 -0.745619,-0.254887 0.507906,-0.133874 1.089038,-0.949219 1.694852,-1.03859 0.0084,-0.0016 0.0179,-0.0022 0.02636,-0.0031 0.514429,1.157991 1.175532,2.533243 1.908722,3.126023 0.384585,0.310935 0.799943,0.427569 1.21584,0.338391 0.415899,-0.0892 0.806278,-0.376085 1.160174,-1.001976 0.353897,-0.625886 0.43968,-1.130603 0.298833,-1.527856 -0.140853,-0.397248 -0.502102,-0.757031 -0.971206,-0.918475 -0.894328,-0.307785 -2.215297,-0.417054 -3.481992,-0.244629 -0.0034,-0.0076 -0.0084,-0.01569 -0.0117,-0.02345 -0.240061,-0.557377 -0.265516,-0.716212 -0.416024,-1.214376 0.211024,0.180379 0.408542,0.334565 0.569834,0.43214 0.06874,0.04154 0.130919,0.05214 0.190431,0.05271 0.137113,-0.0087 0.305825,0.01176 0.410162,-0.128905 0.0031,-0.05797 -0.006,-0.120601 -0.02488,-0.191899 -0.01997,-0.07571 -0.05214,-0.162571 -0.09521,-0.262215 -0.0837,-0.1935 -0.212854,-0.73669 -0.395512,-1.040055 -0.198638,-0.4756499 -0.442752,-0.9850919 -0.590345,-1.3637929 -0.05466,-0.02557 -0.117661,-0.03868 -0.178712,-0.01899 -0.061,0.01959 -0.105566,0.06807 -0.130376,0.118656 -0.04964,0.10116 -0.05387,0.225282 -0.04536,0.385255 0.0099,0.186749 0.05303,0.7794119 0.112793,1.0488479 -0.371077,-0.3681349 -1.165836,-0.8031449 -1.546899,-1.2773599 -0.0056,-0.0061 -0.01087,-0.0139 -0.01612,-0.02054 0.756531,-1.019714 2.033228,-2.1531761 2.185573,-3.0776901 0.0799,-0.484942 0.01794,-0.923178 -0.268069,-1.234882 C 12.714198,4.16914 11.679178,4.01125 11.000447,4.000004 Z"
       id="path1146-5" />
  </g>
</svg>
