<?xml version="1.0" encoding="UTF-8" standalone="no"?>
<svg
   version="1.1"
   id="svg2"
   viewBox="0 0 32 32"
   inkscape:version="1.2.2 (b0a8486541, 2022-12-01)"
   sodipodi:docname="cantata.svg"
   width="32"
   height="32"
   xmlns:inkscape="http://www.inkscape.org/namespaces/inkscape"
   xmlns:sodipodi="http://sodipodi.sourceforge.net/DTD/sodipodi-0.dtd"
   xmlns:xlink="http://www.w3.org/1999/xlink"
   xmlns="http://www.w3.org/2000/svg"
   xmlns:svg="http://www.w3.org/2000/svg"
   xmlns:rdf="http://www.w3.org/1999/02/22-rdf-syntax-ns#"
   xmlns:cc="http://creativecommons.org/ns#"
   xmlns:dc="http://purl.org/dc/elements/1.1/">
  <g
     id="cantata">
    <path
       id="path18"
       d="M 0,0 V 32 H 32 V 0 Z"
       style="fill:none" />
    <path
       inkscape:connector-curvature="0"
       id="path9068-9-37-8-0-1"
       d="m 26.2,6 -20.4,5e-6 V 23.1 h 20.4 z"
       style="display:inline;overflow:visible;visibility:visible;opacity:0.6;fill:url(#linearGradient5058);fill-opacity:1;fill-rule:nonzero;stroke:none;stroke-width:0.653705;marker:none"
       sodipodi:nodetypes="ccccc" />
    <path
       id="path9-3-36-5-5"
       class="ColorScheme-Text"
       d="M 16,7.5 V 17 c -1,0 -0.990659,-1 -3.390659,-0.3 -2.564006,1.291 -2.6,3.3 -1.6,4.3 1,1 3.36314,0.819499 5.031614,0.190565 1.316124,-0.497359 1.968409,-1.78985 1.968409,-2.568583 v -7.622004 c 0,0 3.031636,0.349641 3.031636,3.149617 C 21.041,16.249582 20.451858,17.299416 19,19 21,18 22,16.099987 22,14 22,11.200024 19.635117,10.090433 19.027051,9.537096 18.642432,9.187095 18.163132,7.850341 18.163132,7.850341 Z"
       style="fill:#d3dae3;fill-opacity:1;stroke:none;stroke-width:0.91726"
       sodipodi:nodetypes="cccccscscsscc" />
    <path
       d="M 22.963639,4 H 9.036077 C 7.700892,4.0015 6.420751,4.532569 5.476756,5.476756 4.532569,6.420753 4.001524,7.70089 4,9.036075 v 13.928043 -1.92e-4 c 0.0015,1.335182 0.532569,2.615318 1.476756,3.559315 C 6.420751,27.46743 7.700892,27.998475 9.036077,28 h 13.928043 -1.96e-4 c 1.335181,-0.0016 2.615321,-0.53257 3.559316,-1.476759 0.944189,-0.943997 1.475235,-2.224133 1.476759,-3.559315 V 9.036361 C 27.998099,7.701176 27.467429,6.421038 26.52324,5.477043 25.579245,4.532855 24.299105,4.00181 22.963923,4.000287 Z M 9.2,6 h 13.5 c 0.887094,0.0011 1.510764,0.04407 2.138,0.671275 C 25.465235,7.298482 25.998903,8.112908 26,9 V 23 H 6 V 9 C 6.0011,8.112908 6.441787,7.298511 7.069,6.671275 7.696203,6.04404 8.312914,6.001096 9.2,6 Z"
       id="path1193-7-3-6"
       style="fill:#d3dae3;fill-opacity:1;stroke-width:0.0476191"
       sodipodi:nodetypes="ccccccccccccccccccccccccc" />
  </g>
  <sodipodi:namedview
     pagecolor="#ffffff"
     bordercolor="#000000"
     borderopacity="1"
     objecttolerance="10"
     gridtolerance="10"
     guidetolerance="10"
     inkscape:pageopacity="0"
     inkscape:pageshadow="2"
     inkscape:window-width="1920"
     inkscape:window-height="994"
     id="namedview14"
     showgrid="false"
     inkscape:zoom="10.429825"
     inkscape:cx="14.142136"
     inkscape:cy="19.271656"
     inkscape:window-x="0"
     inkscape:window-y="0"
     inkscape:window-maximized="1"
     inkscape:current-layer="svg2"
     inkscape:lockguides="false"
     inkscape:document-rotation="0"
     inkscape:showpageshadow="false"
     inkscape:pagecheckerboard="0"
     inkscape:deskcolor="#cccccc"
     showguides="false">
    <inkscape:grid
       type="xygrid"
       id="grid838"
       originx="0"
       originy="0" />
  </sodipodi:namedview>
  <metadata
     id="metadata20">
    <rdf:RDF>
      <cc:Work
         rdf:about="">
        <dc:format>image/svg+xml</dc:format>
        <dc:type
           rdf:resource="http://purl.org/dc/dcmitype/StillImage" />
      </cc:Work>
    </rdf:RDF>
  </metadata>
  <defs
     id="defs3051">
    <linearGradient
       inkscape:collect="always"
       id="linearGradient879">
      <stop
         style="stop-color:#00ffff;stop-opacity:1"
         offset="0"
         id="stop875" />
      <stop
         style="stop-color:#ff81ff;stop-opacity:1;"
         offset="1"
         id="stop877" />
    </linearGradient>
    <style
       id="current-color-scheme"
       type="text/css" />
    <linearGradient
       inkscape:collect="always"
       xlink:href="#linearGradient879"
       id="linearGradient5058"
       x1="148.9608"
       y1="596.36218"
       x2="148.9608"
       y2="636.12817"
       gradientUnits="userSpaceOnUse"
       gradientTransform="matrix(0.50999969,0,0,0.42750131,-58.969959,-248.94562)" />
    <linearGradient
       inkscape:collect="always"
       xlink:href="#linearGradient879"
       id="linearGradient2947"
       gradientUnits="userSpaceOnUse"
       gradientTransform="matrix(0.43219982,0,0,0.36977632,-52.448623,-217.5207)"
       x1="146.80391"
       y1="596.36243"
       x2="146.99998"
       y2="636.36224" />
  </defs>
  <g
     id="22-22-cantata"
     transform="translate(32,10)">
    <path
       id="path11"
       d="M 0,0 V 22 H 22 V 0 Z"
       style="fill:none" />
    <path
       inkscape:connector-curvature="0"
       id="path9068-9-37-8-0-1-0"
       d="m 19.559254,2.9999976 -17.118508,4.8e-6 V 17.790998 h 17.288 z"
       style="display:inline;overflow:visible;visibility:visible;opacity:0.6;fill:url(#linearGradient2947);fill-opacity:1.0;fill-rule:nonzero;stroke:none;stroke-width:0.55969;marker:none"
       sodipodi:nodetypes="cccccc" />
    <path
       d="M 16.80301,1 H 5.19674 C 4.08409,1.0015 3.01728,1.443813 2.23062,2.230647 1.44377,3.017321 1.00126,4.084062 1,5.196723 v 11.606709 -1.58e-4 c 8.6e-4,1.112631 0.44377,2.179403 1.23062,2.966079 C 3.01728,20.556188 4.08409,20.998709 5.19674,21 h 11.6067 -1.9e-4 c 1.11265,-0.0012 2.17946,-0.44381 2.96611,-1.230647 0.78686,-0.786676 1.22937,-1.853448 1.23063,-2.966079 V 5.196946 C 20.99799,4.084311 20.55622,3.017544 19.76936,2.230866 18.98271,1.444033 17.9159,1.001508 16.80325,1.000224 Z M 5.617,3.000025 h 10.766 c 0.73924,0.0011 1.43628,-0.113833 1.959,0.409 0.52269,0.52268 0.6571,1.018408 0.658,1.757652 V 17.000025 H 3 V 5.166678 C 3.00085,4.427433 3.13532,3.931741 3.658,3.409025 4.18068,2.886346 4.87778,3.000935 5.617,3.000025 Z"
       id="path1193-3-3"
       style="fill:#d3dae3;fill-opacity:1;stroke-width:0.0396829"
       sodipodi:nodetypes="ccccccccccccccccccccccccc" />
    <path
       id="path9-3-3-0"
       class="ColorScheme-Text"
       d="m 10,4 v 8.699999 C 9.0092107,12.473712 8.4293521,12.085935 7.442,12.408136 5.7892902,12.946928 5.5171867,14.081712 6,15 6.4828154,15.918591 8.4334621,16.174093 10.086574,15.634999 11.390574,15.2087 12,13.667491 12,13 V 7 c 0,0 3.039,0.299676 3.039,2.699654 0,1.799986 -0.563003,2.400862 -2.46834,3.900849 C 14.475997,12.700512 16,11.499641 16,9.699652 16,7.299676 13.647612,6.220373 13.045159,5.746078 12.664085,5.446076 12.18919,4.300299 12.18919,4.300299 Z"
       style="fill:#d3dae3;fill-opacity:1;stroke:none;stroke-width:0.845292"
       sodipodi:nodetypes="cccccscscsscc" />
  </g>
</svg>
