<?xml version="1.0" encoding="UTF-8" standalone="no"?>
<svg
   width="32"
   height="32"
   version="1.1"
   id="svg12"
   sodipodi:docname="choqok.svg"
   inkscape:version="1.2.2 (b0a8486541, 2022-12-01)"
   xmlns:inkscape="http://www.inkscape.org/namespaces/inkscape"
   xmlns:sodipodi="http://sodipodi.sourceforge.net/DTD/sodipodi-0.dtd"
   xmlns:xlink="http://www.w3.org/1999/xlink"
   xmlns="http://www.w3.org/2000/svg"
   xmlns:svg="http://www.w3.org/2000/svg"
   xmlns:rdf="http://www.w3.org/1999/02/22-rdf-syntax-ns#"
   xmlns:cc="http://creativecommons.org/ns#"
   xmlns:dc="http://purl.org/dc/elements/1.1/">
  <g
     id="choqok">
    <rect
       style="opacity:0.00100002"
       width="32"
       height="32"
       x="0"
       y="0"
       id="rect7" />
    <path
       inkscape:connector-curvature="0"
       id="path9068-9-37-8-0-1"
       d="M 26.09804,5.8 5.7,5.800005 V 23.1 h 20.6 z"
       style="display:inline;overflow:visible;visibility:visible;opacity:0.6;fill:url(#linearGradient5058);fill-opacity:1;fill-rule:nonzero;stroke:none;stroke-width:0.660733;marker:none"
       sodipodi:nodetypes="cccccc" />
    <path
       inkscape:connector-curvature="0"
       style="fill:#d3dae3;fill-opacity:1;fill-rule:evenodd;stroke-width:0.453155"
       id="path4411-1-6-36-0"
       d="m 12.271885,18.374166 c 3.673521,3.311514 7.07531,3.189722 8.731463,1.300219 1.656142,-1.889496 0.416939,-3.503498 0.416939,-3.503498 z" />
    <path
       inkscape:connector-curvature="0"
       style="color:#000000;fill:#eff0f1;fill-opacity:1;stroke:#d3dae3;stroke-width:1.35947;stroke-linecap:round;stroke-linejoin:round;stroke-opacity:1"
       id="path4170-2-7-4"
       d="m 8.77679,10.001699 c -0.787781,0 -1.512546,0.02489 -2.097059,0.44066 v 5.504325 c 0.584513,0.415816 1.309278,0.664854 2.097059,0.664854 1.930282,0 3.975677,-0.818681 3.975677,-2.643936 0,-1.825257 -2.045395,-3.965903 -3.975677,-3.965903 z" />
    <path
       inkscape:connector-curvature="0"
       style="color:#000000;fill:#eff0f1;fill-opacity:1;stroke:#d3dae3;stroke-width:1.35947;stroke-linecap:round;stroke-linejoin:round;stroke-opacity:1"
       id="path4170-8-9-5-8"
       d="m 21.12614,8.679735 c -0.993762,1.148605 -1.627284,2.540468 -1.156599,3.896114 0.65842,1.896365 2.929853,2.133207 4.79459,1.554295 0.196314,-0.06096 0.380352,-0.14073 0.55613,-0.23152 V 8.679735 Z" />
    <ellipse
       cx="9.7088242"
       cy="13.306617"
       style="color:#000000;fill:#1f252f;fill-opacity:1;stroke-width:1.35947;stroke-linecap:round;stroke-linejoin:round"
       id="path4267-1-3-7"
       rx="1.6310459"
       ry="1.542295" />
    <ellipse
       cx="22.425045"
       cy="11.543968"
       style="color:#000000;fill:#1f252f;fill-opacity:1;stroke-width:1.35947;stroke-linecap:round;stroke-linejoin:round"
       id="path4267-9-2-5-1"
       rx="1.6310459"
       ry="1.542295" />
    <path
       inkscape:connector-curvature="0"
       style="fill:#1f252f;fill-opacity:1;fill-rule:evenodd;stroke-width:0.453155"
       id="path4411-7-6-7"
       d="m 12.737904,18.377096 c 2.79149,2.719756 6.469532,2.582451 7.728032,1.030592 1.258495,-1.551839 0.316833,-2.877431 0.316833,-2.877431 z" />
    <path
       inkscape:connector-curvature="0"
       style="fill:#d3dae3;fill-opacity:1;fill-rule:evenodd;stroke-width:0.453155"
       id="path4284-9-2-2"
       d="m 12.271885,18.374166 c 0,0 0.667192,-1.903158 4.161898,-2.761461 3.494718,-0.858278 5.157337,0.558182 5.157337,0.558182 0.465372,1.281482 -4.037477,3.272592 -4.037477,3.272592 0,0 -4.985724,0.253757 -5.281758,-1.069313 z" />
    <path
       d="M 22.963626,3.999987 H 9.036072 C 7.700891,4.001487 6.420748,4.532561 5.476754,5.476762 4.532568,6.420775 4.001525,7.700863 4,9.036057 v 13.92805 -1.89e-4 c 0.0015,1.335156 0.532568,2.615282 1.476754,3.559295 0.943994,0.944201 2.224137,1.475225 3.559318,1.476775 h 13.928035 -1.94e-4 c 1.335183,-0.0015 2.615324,-0.532574 3.559318,-1.476775 0.944187,-0.944013 1.475232,-2.224139 1.476755,-3.559295 V 9.036321 C 27.998186,7.701165 27.467418,6.421039 26.523231,5.477027 25.579237,4.532825 24.299096,4.001802 22.963912,4.000252 Z M 9.2,6 h 13.6 c 0.887095,0.0011 1.603761,0.04384 2.231,0.671244 C 25.658232,7.298457 25.998901,8.112907 26,9 V 23.000013 H 6 V 9 C 6.0011,8.112907 6.341775,7.298495 6.969,6.671244 7.596201,6.044032 8.312916,6.001096 9.2,6 Z"
       id="path1193-7"
       style="fill:#d3dae3;fill-opacity:1;stroke-width:0.047619"
       sodipodi:nodetypes="ccccccccccccccccccccccccc" />
  </g>
  <metadata
     id="metadata18">
    <rdf:RDF>
      <cc:Work
         rdf:about="">
        <dc:format>image/svg+xml</dc:format>
        <dc:type
           rdf:resource="http://purl.org/dc/dcmitype/StillImage" />
      </cc:Work>
    </rdf:RDF>
  </metadata>
  <defs
     id="defs16">
    <linearGradient
       inkscape:collect="always"
       id="linearGradient459">
      <stop
         style="stop-color:#2a7fff;stop-opacity:1"
         offset="0"
         id="stop455" />
      <stop
         style="stop-color:#2ad4ff;stop-opacity:1"
         offset="1"
         id="stop457" />
    </linearGradient>
    <linearGradient
       inkscape:collect="always"
       xlink:href="#linearGradient459"
       id="linearGradient5058"
       x1="147.00002"
       y1="596.82458"
       x2="147.00002"
       y2="636.13086"
       gradientUnits="userSpaceOnUse"
       gradientTransform="matrix(0.51499968,0,0,0.43250137,-59.704958,-252.12746)" />
    <linearGradient
       inkscape:collect="always"
       xlink:href="#linearGradient459"
       id="linearGradient6958"
       gradientUnits="userSpaceOnUse"
       gradientTransform="matrix(0.43219982,0,0,0.36977632,-52.502369,-217.8047)"
       x1="146.80391"
       y1="596.36243"
       x2="146.99998"
       y2="636.3623" />
  </defs>
  <sodipodi:namedview
     pagecolor="#ffffff"
     bordercolor="#000000"
     borderopacity="1"
     objecttolerance="10"
     gridtolerance="10"
     guidetolerance="10"
     inkscape:pageopacity="0"
     inkscape:pageshadow="2"
     inkscape:window-width="1920"
     inkscape:window-height="994"
     id="namedview14"
     showgrid="false"
     inkscape:zoom="9.8125003"
     inkscape:cx="23.898088"
     inkscape:cy="20.840764"
     inkscape:window-x="0"
     inkscape:window-y="0"
     inkscape:window-maximized="1"
     inkscape:current-layer="svg12"
     inkscape:document-rotation="0"
     inkscape:lockguides="true"
     inkscape:showpageshadow="false"
     inkscape:pagecheckerboard="0"
     inkscape:deskcolor="#b2b2b2">
    <inkscape:grid
       type="xygrid"
       id="grid941"
       originx="0"
       originy="0" />
  </sodipodi:namedview>
  <g
     id="22-22-choqok"
     transform="translate(32,10)">
    <rect
       style="opacity:0.00100002"
       width="22"
       height="22"
       x="0"
       y="0"
       id="rect2" />
    <path
       inkscape:connector-curvature="0"
       id="path9068-9-37-8-0-1-0-1-3-7-4-6-1"
       d="M 19.505508,2.716 2.387,2.7160048 V 17.507001 h 17.288 z"
       style="display:inline;overflow:visible;visibility:visible;opacity:0.6;fill:url(#linearGradient6958);fill-opacity:1.0;fill-rule:nonzero;stroke:none;stroke-width:0.55969;marker:none"
       sodipodi:nodetypes="cccccc" />
    <path
       inkscape:connector-curvature="0"
       style="fill:#eff0f1;fill-opacity:1;fill-rule:evenodd;stroke-width:0.295797"
       id="path4411-1-6-36-7-6"
       d="m 8.152041,13.029721 c 2.327799,2.22666 4.483408,2.144766 5.532862,0.874266 1.049447,-1.270493 0.264199,-2.355746 0.264199,-2.355746 z" />
    <path
       inkscape:connector-curvature="0"
       style="color:#000000;fill:#eff0f1;fill-opacity:1;stroke:#d3dae3;stroke-width:0.887385;stroke-linecap:round;stroke-linejoin:round;stroke-opacity:1"
       id="path4170-2-7-5-8"
       d="m 5.937305,7.400087 c -0.499193,0 -0.958455,0.01673 -1.328842,0.2963 v 3.7011 c 0.370387,0.279594 0.829649,0.447047 1.328842,0.447047 1.22316,0 2.519267,-0.55048 2.519267,-1.77778 0,-1.2273 -1.296107,-2.666667 -2.519267,-2.666667 z" />
    <path
       inkscape:connector-curvature="0"
       style="color:#000000;fill:#eff0f1;fill-opacity:1;stroke:#d3dae3;stroke-width:0.887385;stroke-linecap:round;stroke-linejoin:round;stroke-opacity:1"
       id="path4170-8-9-5-3-9"
       d="m 13.762713,6.5112 c -0.629718,0.77232 -1.031162,1.708207 -0.732903,2.619741 0.417222,1.275113 1.856559,1.434366 3.038187,1.045106 0.124397,-0.041 0.241017,-0.09463 0.352402,-0.155673 V 6.5112 Z" />
    <ellipse
       cx="6.5279045"
       cy="9.6223106"
       style="color:#000000;fill:#1f252f;fill-opacity:1;stroke-width:0.887385;stroke-linecap:round;stroke-linejoin:round"
       id="path4267-1-3-5-2"
       rx="1.0335443"
       ry="1.037037" />
    <ellipse
       cx="14.205654"
       cy="8.4371109"
       style="color:#000000;fill:#1f252f;fill-opacity:1;stroke-width:0.887385;stroke-linecap:round;stroke-linejoin:round"
       id="path4267-9-2-5-6-6"
       rx="1.0335443"
       ry="1.037037" />
    <path
       inkscape:connector-curvature="0"
       style="fill:#1f252f;fill-opacity:1;fill-rule:evenodd;stroke-width:0.295797"
       id="path4411-7-6-2-6"
       d="m 8.447342,13.031694 c 1.768882,1.82876 4.099546,1.736433 4.897018,0.692967 0.797471,-1.043454 0.200769,-1.93478 0.200769,-1.93478 z" />
    <path
       inkscape:connector-curvature="0"
       style="fill:#d3dae3;fill-opacity:1;fill-rule:evenodd;stroke-width:0.295797"
       id="path4284-9-2-9-4"
       d="m 8.152041,13.029721 c 0,0 0.422777,-1.27968 2.637267,-1.8568 2.214497,-0.577107 3.268049,0.37532 3.268049,0.37532 0.29489,0.861666 -2.558427,2.200486 -2.558427,2.200486 0,0 -3.159302,0.170627 -3.346889,-0.719006 z" />
    <path
       d="M 16.80301,0.999975 H 5.19674 C 4.08409,1.001475 3.01728,1.443788 2.23062,2.230622 1.44377,3.017296 1.00126,4.084037 1,5.196698 v 11.60671 -1.58e-4 c 8.6e-4,1.11263 0.44377,2.179402 1.23062,2.96608 0.78666,0.786834 1.85347,1.229354 2.96612,1.230645 h 11.6067 -1.9e-4 c 1.11265,-0.0012 2.17946,-0.443811 2.96611,-1.230645 0.78686,-0.786678 1.22937,-1.85345 1.23063,-2.96608 V 5.196921 C 20.99799,4.084286 20.55622,3.017519 19.76936,2.230841 18.98271,1.444008 17.9159,1.001483 16.80325,1.000199 Z M 5.617,3 h 10.766 c 0.73924,0.0011 1.43628,-0.113833 1.959,0.409 0.52269,0.52268 0.6571,1.018408 0.658,1.757653 V 17 H 3 V 5.166653 C 3.00085,4.427408 3.13532,3.931716 3.658,3.409 4.18068,2.886321 4.87778,3.00091 5.617,3 Z"
       id="path1193-3-9"
       style="fill:#d3dae3;fill-opacity:1;stroke-width:0.0396829"
       sodipodi:nodetypes="ccccccccccccccccccccccccc" />
  </g>
</svg>
