<?xml version="1.0" encoding="UTF-8" standalone="no"?>
<svg
   width="32"
   height="32"
   version="1.1"
   id="svg12"
   sodipodi:docname="compass.svg"
   inkscape:version="1.2.2 (b0a8486541, 2022-12-01)"
   xmlns:inkscape="http://www.inkscape.org/namespaces/inkscape"
   xmlns:sodipodi="http://sodipodi.sourceforge.net/DTD/sodipodi-0.dtd"
   xmlns:xlink="http://www.w3.org/1999/xlink"
   xmlns="http://www.w3.org/2000/svg"
   xmlns:svg="http://www.w3.org/2000/svg"
   xmlns:rdf="http://www.w3.org/1999/02/22-rdf-syntax-ns#"
   xmlns:cc="http://creativecommons.org/ns#"
   xmlns:dc="http://purl.org/dc/elements/1.1/">
  <g
     id="22-22-compass"
     transform="translate(32,9.9999997)">
    <path
       style="clip-rule:evenodd;fill:#ffffc1;fill-opacity:0;fill-rule:evenodd;stroke-width:0.688964;stroke-linejoin:round;stroke-miterlimit:1.41421"
       d="M 0,0 V 22 H 22 V 0 Z"
       id="rect817-5"
       inkscape:connector-curvature="0" />
    <path
       inkscape:connector-curvature="0"
       id="path9068-9-37-8-0-1-3"
       d="M 19.218138,2.2 2.566,2.2000056 V 18 h 16.817 z"
       style="display:inline;overflow:visible;visibility:visible;opacity:0.6;fill:url(#linearGradient1182);fill-opacity:1.0;fill-rule:nonzero;stroke:none;stroke-width:0.570523;marker:none"
       sodipodi:nodetypes="cccccc" />
    <path
       d="M 16.802946,1 H 5.196656 c -1.11265,0.0012 -2.17944,0.443811 -2.9661,1.230645 -0.78682,0.786678 -1.22936,1.853418 -1.23063,2.966079 v 11.606709 -1.58e-4 c 0.001,1.11263 0.44381,2.179402 1.23063,2.966079 0.78666,0.786834 1.85345,1.229354 2.9661,1.230646 h 11.60669 -1.6e-4 c 1.11265,-0.0012 2.17944,-0.443812 2.9661,-1.230646 0.78682,-0.786677 1.22936,-1.853449 1.23063,-2.966079 V 5.196944 c -0.002,-1.11263 -0.44381,-2.179402 -1.23063,-2.966078 -0.78666,-0.786835 -1.85345,-1.229354 -2.9661,-1.230646 z M 5.632926,3 h 10.734 c 0.73925,9.16e-4 1.5363,0.0032 2.059,0.526 0.52269,0.522677 0.57308,0.901432 0.574,1.640677 V 17 h -16 V 5.166677 C 3.000846,4.427432 3.051226,4.048709 3.573926,3.526 4.096596,3.003323 4.893686,3.000913 5.632926,3 Z"
       id="path1193-3-7-27-5"
       style="fill:#d3dae3;fill-opacity:1;stroke-width:0.0396825"
       sodipodi:nodetypes="ccccccccccccccccccccccccc" />
    <path
       d="M 14.860835,5.094558 8.609958,7.09382 C 8.334185,7.18471 8.150334,7.366454 8.058405,7.63908 l -2.022332,6.179544 c -0.09195,0.363505 0,0.727006 0.183839,0.908754 C 6.403769,14.909133 6.58761,15 6.863381,15 c 0.09195,0 0.183857,0 0.275786,-0.09086 l 6.250874,-1.999271 c 0.27578,-0.09087 0.459622,-0.272622 0.551551,-0.545258 l 2.022344,-6.179535 c 0.09193,-0.363504 0,-0.727012 -0.183851,-0.908763 C 15.504316,5.003682 15.136617,4.912806 14.860835,5.094558 Z M 11,11.364975 c -0.735404,0 -1.378873,-0.636122 -1.378873,-1.363128 0,-0.727006 0.643469,-1.363139 1.378873,-1.363139 0.735401,0 1.37887,0.636133 1.37887,1.363139 0,0.727006 -0.643469,1.363128 -1.37887,1.363128 z"
       id="path4-3-6"
       style="fill:#d3dae3;fill-opacity:1;stroke-width:0.0522277" />
  </g>
  <metadata
     id="metadata18">
    <rdf:RDF>
      <cc:Work
         rdf:about="">
        <dc:format>image/svg+xml</dc:format>
        <dc:type
           rdf:resource="http://purl.org/dc/dcmitype/StillImage" />
      </cc:Work>
    </rdf:RDF>
  </metadata>
  <defs
     id="defs16">
    <linearGradient
       inkscape:collect="always"
       id="linearGradient447">
      <stop
         style="stop-color:#ff33ff;stop-opacity:1;"
         offset="0"
         id="stop443" />
      <stop
         style="stop-color:#ffccaa;stop-opacity:1"
         offset="1"
         id="stop445" />
    </linearGradient>
    <linearGradient
       inkscape:collect="always"
       xlink:href="#linearGradient447"
       id="linearGradient5058"
       x1="147.00002"
       y1="596.81934"
       x2="147.00002"
       y2="635.67639"
       gradientUnits="userSpaceOnUse"
       gradientTransform="matrix(0.51499968,0,0,0.43750136,-59.704958,-255.10926)" />
    <linearGradient
       inkscape:collect="always"
       xlink:href="#linearGradient447"
       id="linearGradient1182"
       gradientUnits="userSpaceOnUse"
       gradientTransform="matrix(0.42042479,0,0,0.39500125,-50.827946,-233.36381)"
       x1="147.06049"
       y1="598.38751"
       x2="147.06049"
       y2="633.83044" />
  </defs>
  <sodipodi:namedview
     pagecolor="#ffffff"
     bordercolor="#000000"
     borderopacity="1"
     objecttolerance="10"
     gridtolerance="10"
     guidetolerance="10"
     inkscape:pageopacity="0"
     inkscape:pageshadow="2"
     inkscape:window-width="1920"
     inkscape:window-height="994"
     id="namedview14"
     showgrid="false"
     inkscape:zoom="8.0000001"
     inkscape:cx="21.0625"
     inkscape:cy="14.875"
     inkscape:window-x="0"
     inkscape:window-y="0"
     inkscape:window-maximized="1"
     inkscape:current-layer="svg12"
     inkscape:document-rotation="0"
     inkscape:lockguides="true"
     inkscape:showpageshadow="true"
     inkscape:pagecheckerboard="0"
     inkscape:deskcolor="#999999">
    <inkscape:grid
       type="xygrid"
       id="grid880"
       originx="32"
       originy="9.9999997" />
  </sodipodi:namedview>
  <g
     id="compass">
    <path
       style="clip-rule:evenodd;fill:#ffffc1;fill-opacity:0;fill-rule:evenodd;stroke-width:1.00213;stroke-linejoin:round;stroke-miterlimit:1.41421"
       d="M 0,0 V 32 H 32 V 0 Z"
       id="rect817"
       inkscape:connector-curvature="0" />
    <path
       inkscape:connector-curvature="0"
       id="path9068-9-37-8-0-1"
       d="M 26.09804,5.8 5.7,5.800005 V 23.3 h 20.6 z"
       style="display:inline;overflow:visible;visibility:visible;opacity:0.6;fill:url(#linearGradient5058);fill-opacity:1;fill-rule:nonzero;stroke:none;stroke-width:0.664541;marker:none"
       sodipodi:nodetypes="cccccc" />
    <path
       d="M 22.963625,4 H 9.036071 C 7.700891,4.0015 6.42075,4.532573 5.476751,5.476774 4.53257,6.420787 4.00152,7.700875 4,9.036068 v 13.928051 -1.89e-4 c 0.001,1.335156 0.53257,2.615282 1.476751,3.559295 0.944,0.944201 2.22414,1.475225 3.55932,1.476775 h 13.928036 -1.94e-4 c 1.335183,-0.0015 2.615324,-0.532574 3.559318,-1.476775 0.944187,-0.944013 1.475233,-2.224139 1.476755,-3.559295 V 9.036332 C 27.998186,7.701177 27.467418,6.421051 26.52323,5.477039 25.579236,4.532837 24.299095,4.001814 22.963912,4.000264 Z M 9.2,6.000012 h 13.6 c 0.887094,0.0011 1.60376,0.04384 2.230999,0.671244 C 25.658231,7.298469 25.9989,8.112919 26,9.000011 V 23.000025 H 6 V 9.000011 C 6.001,8.112919 6.341771,7.298507 6.969001,6.671256 7.596201,6.044044 8.312921,6.001108 9.2,6.000012 Z"
       id="path1193-3-3-6-3"
       style="fill:#d3dae3;fill-opacity:1;stroke-width:0.047619"
       sodipodi:nodetypes="ccccccccccccccccccccccccc" />
    <path
       d="m 20.632843,8.613471 -7.501049,2.399113 c -0.330927,0.109073 -0.551548,0.327162 -0.661863,0.654313 l -2.426798,7.415449 c -0.110332,0.436205 0,0.872407 0.220607,1.090507 0.220629,0.218105 0.441238,0.327146 0.772162,0.327146 0.110333,0 0.220629,0 0.330944,-0.109051 l 7.501045,-2.399118 c 0.330936,-0.109063 0.55155,-0.327151 0.661865,-0.654312 l 2.42681,-7.415441 c 0.110326,-0.436204 0,-0.872414 -0.220619,-1.090516 -0.330925,-0.327143 -0.772165,-0.436193 -1.103104,-0.21809 z m -4.632997,7.524503 c -0.882486,0 -1.654649,-0.763349 -1.654649,-1.635757 0,-0.872407 0.772163,-1.635767 1.654649,-1.635767 0.882481,0 1.654644,0.76336 1.654644,1.635767 0,0.872408 -0.772163,1.635757 -1.654644,1.635757 z"
       id="path4-6"
       style="fill:#d3dae3;fill-opacity:1;stroke-width:0.0626737" />
  </g>
</svg>
