<?xml version="1.0" encoding="UTF-8" standalone="no"?>
<svg
   sodipodi:docname="configure.svg"
   height="22.000006"
   width="22"
   inkscape:version="1.2.2 (b0a8486541, 2022-12-01)"
   version="1.1"
   id="svg"
   viewBox="0 0 22 22.000006"
   xmlns:inkscape="http://www.inkscape.org/namespaces/inkscape"
   xmlns:sodipodi="http://sodipodi.sourceforge.net/DTD/sodipodi-0.dtd"
   xmlns:xlink="http://www.w3.org/1999/xlink"
   xmlns="http://www.w3.org/2000/svg"
   xmlns:svg="http://www.w3.org/2000/svg"
   xmlns:rdf="http://www.w3.org/1999/02/22-rdf-syntax-ns#"
   xmlns:cc="http://creativecommons.org/ns#"
   xmlns:dc="http://purl.org/dc/elements/1.1/">
  <defs
     id="defs81">
    <linearGradient
       inkscape:collect="always"
       id="linearGradient1076">
      <stop
         style="stop-color:#2ad4ff;stop-opacity:1"
         offset="0"
         id="stop1072" />
      <stop
         style="stop-color:#c373d9;stop-opacity:1;"
         offset="1"
         id="stop1074" />
    </linearGradient>
    <linearGradient
       inkscape:collect="always"
       id="linearGradient1169">
      <stop
         style="stop-color:#2ad4ff;stop-opacity:1"
         offset="0"
         id="stop1165" />
      <stop
         style="stop-color:#c373d9;stop-opacity:1;"
         offset="1"
         id="stop1167" />
    </linearGradient>
    <style
       type="text/css"
       id="current-color-scheme">
      .ColorScheme-Text {
        color:#7B7C7E;
      }
      .ColorScheme-Background{
        color:#EFF0F1;
      }
      .ColorScheme-Highlight{
        color:#3DAEE6;
      }
      .ColorScheme-ViewText {
        color:#7B7C7E;
      }
      .ColorScheme-ViewBackground{
        color:#FCFCFC;
      }
      .ColorScheme-ViewHover {
        color:#3DAEE6;
      }
      .ColorScheme-ViewFocus{
        color:#1E92FF;
      }
      .ColorScheme-ButtonText {
        color:#7B7C7E;
      }
      .ColorScheme-ButtonBackground{
        color:#EFF0F1;
      }
      .ColorScheme-ButtonHover {
        color:#3DAEE6;
      }
      .ColorScheme-ButtonFocus{
        color:#1E92FF;
      }
</style>
    <linearGradient
       id="linearGradient5606"
       inkscape:swatch="solid">
      <stop
         id="stop5608"
         offset="0"
         style="stop-color:#000000;stop-opacity:1;" />
    </linearGradient>
    <linearGradient
       inkscape:collect="always"
       xlink:href="#linearGradient1076"
       id="linearGradient1171"
       x1="6.2273316"
       y1="15.887632"
       x2="12.078527"
       y2="9.5223436"
       gradientUnits="userSpaceOnUse" />
    <linearGradient
       inkscape:collect="always"
       xlink:href="#linearGradient1169"
       id="linearGradient1267"
       x1="26"
       y1="18.148809"
       x2="31.215187"
       y2="12.408684"
       gradientUnits="userSpaceOnUse" />
  </defs>
  <metadata
     id="metadata34">
    <rdf:RDF>
      <cc:Work
         rdf:about="">
        <dc:format>image/svg+xml</dc:format>
        <dc:type
           rdf:resource="http://purl.org/dc/dcmitype/StillImage" />
      </cc:Work>
    </rdf:RDF>
  </metadata>
  <sodipodi:namedview
     inkscape:document-rotation="0"
     inkscape:showpageshadow="false"
     inkscape:snap-bbox="true"
     inkscape:guide-bbox="true"
     showguides="false"
     borderlayer="false"
     inkscape:current-layer="svg"
     inkscape:window-maximized="1"
     inkscape:window-y="0"
     inkscape:window-x="0"
     inkscape:cy="15.316474"
     inkscape:cx="3.8362227"
     inkscape:zoom="17.595433"
     showgrid="false"
     id="namedview32"
     inkscape:window-height="994"
     inkscape:window-width="1920"
     inkscape:pageshadow="2"
     inkscape:pageopacity="0.10196078"
     guidetolerance="10"
     gridtolerance="10"
     objecttolerance="10"
     borderopacity="1"
     bordercolor="#666666"
     pagecolor="#ffffff"
     inkscape:pagecheckerboard="0"
     inkscape:deskcolor="#d1d1d1"
     inkscape:lockguides="false">
    <inkscape:grid
       snapvisiblegridlinesonly="true"
       enabled="true"
       visible="true"
       empspacing="4"
       id="grid3046"
       type="xygrid"
       originx="-2.2031237e-08"
       originy="6.1102054e-06" />
  </sodipodi:namedview>
  <g
     transform="translate(-486.16354,15.513279)"
     style="display:inline"
     inkscape:label="status"
     id="layer9" />
  <g
     transform="translate(-245.16334,-601.48672)"
     style="display:inline"
     inkscape:label="places"
     id="layer1" />
  <g
     transform="translate(-486.16354,15.513279)"
     style="display:inline"
     inkscape:label="mimetypes"
     id="layer14" />
  <g
     transform="translate(-486.16354,15.513279)"
     style="display:inline"
     inkscape:label="emblems"
     id="layer15" />
  <g
     transform="translate(-486.16354,15.513279)"
     style="display:inline"
     inkscape:label="emotes"
     id="g71291" />
  <g
     transform="translate(-245.16334,-451.48672)"
     style="display:inline"
     inkscape:label="apps"
     id="g6058" />
  <g
     transform="translate(-486.16354,15.513279)"
     style="display:inline"
     inkscape:label="actions"
     id="layer12" />
  <g
     id="configure">
    <rect
       y="-6.2102054e-06"
       x="2.2031236e-08"
       height="22.000006"
       width="22"
       id="rect2985"
       style="opacity:0.00100002;fill:#000000;fill-opacity:1;stroke:none" />
    <rect
       id="rect4156"
       style="fill:#d3dae3;fill-opacity:1;stroke:none;stroke-width:1.125"
       rx="1.1250004"
       y="8.75"
       height="4.5000014"
       width="4.5000014"
       x="2" />
    <rect
       id="rect4158"
       style="fill:#d3dae3;fill-opacity:1;stroke:none;stroke-width:1.125"
       width="4.5000014"
       height="4.5000014"
       x="15.499994"
       y="8.75"
       rx="1.1250004" />
    <rect
       id="rect4160"
       style="fill:#d3dae3;fill-opacity:1;stroke:none;stroke-width:1.125"
       rx="1.1250004"
       x="8.749999"
       height="4.5000014"
       width="4.5000014"
       y="2.0000007" />
    <rect
       id="rect4162"
       style="fill:#d3dae3;fill-opacity:1;stroke:none;stroke-width:1.125"
       width="4.5000014"
       height="4.5000014"
       x="8.749999"
       y="15.499995"
       rx="1.1250004" />
    <rect
       id="rect4164"
       style="fill:#d3dae3;fill-opacity:1;stroke:none;stroke-width:1.125"
       transform="rotate(45.000001)"
       width="4.5000014"
       height="4.5000014"
       x="6.556675"
       y="-2.2500002"
       rx="1.1250004" />
    <rect
       id="rect4166"
       style="fill:#d3dae3;fill-opacity:1;stroke:none;stroke-width:1.125"
       transform="rotate(45.000001)"
       rx="1.1250004"
       y="-2.2500002"
       x="20.056669"
       height="4.5000014"
       width="4.5000014" />
    <rect
       id="rect4168"
       style="fill:#d3dae3;fill-opacity:1;stroke:none;stroke-width:1.125"
       transform="rotate(45.000001)"
       width="4.5000014"
       height="4.5000014"
       x="13.306671"
       y="-9.0000029"
       rx="1.1250004" />
    <rect
       id="rect4170"
       style="fill:#d3dae3;fill-opacity:1;stroke:none;stroke-width:1.125"
       transform="rotate(45.000001)"
       rx="1.1250004"
       y="4.5000019"
       x="13.306671"
       height="4.5000014"
       width="4.5000014" />
    <path
       id="path4172"
       style="fill:#d3dae3;fill-opacity:1;stroke:none;stroke-width:1.125"
       d="M 10.912496,3.6 A 7.3125,7.3125002 0 0 0 3.6,10.912497 7.3125,7.3125002 0 0 0 10.912496,18.224999 7.3125,7.3125002 0 0 0 18.225,10.912496 7.3125,7.3125002 0 0 0 10.912496,3.6 m 0,3.9375002 a 3.375,3.3750001 0 0 1 3.375002,3.3749958 3.375,3.3750001 0 0 1 -3.375002,3.375 A 3.375,3.3750001 0 0 1 7.5375,10.912497 3.375,3.3750001 0 0 1 10.912496,7.5375002"
       inkscape:connector-curvature="0" />
    <path
       id="path4174"
       style="fill:url(#linearGradient1171);fill-opacity:1;stroke:none;stroke-width:1"
       d="M 10.999999,6 A 5.0000001,5.0000002 0 0 0 6,10.999999 5.0000001,5.0000002 0 0 0 10.999999,16 5.0000001,5.0000002 0 0 0 16,10.999999 5.0000001,5.0000002 0 0 0 10.999999,6 m 0,3 a 2.0000001,2.0000002 0 0 1 2,1.999999 2.0000001,2.0000002 0 0 1 -2,2 A 2.0000001,2.0000002 0 0 1 9,10.999999 2.0000001,2.0000002 0 0 1 10.999999,9"
       inkscape:connector-curvature="0" />
    <circle
       id="circle-transparent-6-9"
       cx="11"
       cy="11"
       class="ColorScheme-Text"
       style="fill:#d3dae3;fill-opacity:1;stroke-width:0.25"
       r="2" />
  </g>
  <g
     id="16-16-configure">
    <rect
       style="opacity:0.00100002;fill:#d3dae3;fill-opacity:1;stroke:none"
       id="rect4159"
       width="16"
       height="16.000004"
       x="22"
       y="6.0000014" />
    <rect
       id="rect4165"
       style="fill:#d3dae3;fill-opacity:1;stroke:none"
       rx="0.875"
       y="12.250006"
       height="3.5"
       width="3.5"
       x="23" />
    <rect
       id="rect4167"
       style="fill:#d3dae3;fill-opacity:1;stroke:none"
       width="3.5"
       height="3.5"
       x="33.5"
       y="12.250006"
       rx="0.875" />
    <rect
       id="rect4169"
       style="fill:#d3dae3;fill-opacity:1;stroke:none"
       rx="0.875"
       x="28.25"
       height="3.5"
       width="3.5"
       y="7.0000062" />
    <rect
       id="rect4171"
       style="fill:#d3dae3;fill-opacity:1;stroke:none"
       width="3.5"
       height="3.5"
       x="28.25"
       y="17.500006"
       rx="0.875" />
    <rect
       id="rect4173"
       style="fill:#d3dae3;fill-opacity:1;stroke:none"
       transform="rotate(45)"
       width="3.5"
       height="3.5"
       x="24.112957"
       y="-13.063704"
       rx="0.875" />
    <rect
       id="rect4175"
       style="fill:#d3dae3;fill-opacity:1;stroke:none"
       transform="rotate(45)"
       rx="0.875"
       y="-13.063704"
       x="34.612957"
       height="3.5"
       width="3.5" />
    <rect
       id="rect4177"
       style="fill:#d3dae3;fill-opacity:1;stroke:none"
       transform="rotate(45)"
       width="3.5"
       height="3.5"
       x="29.362957"
       y="-18.313705"
       rx="0.875" />
    <rect
       id="rect4179"
       style="fill:#d3dae3;fill-opacity:1;stroke:none"
       transform="rotate(45)"
       rx="0.875"
       y="-7.813705"
       x="29.362957"
       height="3.5"
       width="3.5" />
    <path
       id="path4181"
       style="fill:#d3dae3;fill-opacity:1;stroke:none"
       d="m 30,8.312506 a 5.6875,5.6875 0 0 0 -5.6875,5.6875 5.6875,5.6875 0 0 0 5.6875,5.6875 5.6875,5.6875 0 0 0 5.6875,-5.6875 A 5.6875,5.6875 0 0 0 30,8.312506 m 0,3.0625 a 2.625,2.625 0 0 1 2.625,2.625 2.625,2.625 0 0 1 -2.625,2.625 2.625,2.625 0 0 1 -2.625,-2.625 2.625,2.625 0 0 1 2.625,-2.625"
       inkscape:connector-curvature="0" />
    <path
       id="path4242"
       d="m 30,10.000006 a 4,4 0 0 0 -4,4 4,4 0 0 0 4,4 4,4 0 0 0 4,-4 4,4 0 0 0 -4,-4 z m 0,2 a 2,2 0 0 1 2,2 2,2 0 0 1 -2,2 2,2 0 0 1 -2,-2 2,2 0 0 1 2,-2 z"
       style="fill:url(#linearGradient1267);fill-opacity:1;stroke:none" />
    <circle
       id="circle-transparent-6-9-3"
       cx="30"
       cy="14.000006"
       r="2"
       class="ColorScheme-Text"
       style="color:#7b7c7e;fill:#d3dae3;fill-opacity:1;stroke-width:0.25" />
  </g>
</svg>
