<?xml version="1.0" encoding="UTF-8" standalone="no"?>
<svg
   width="32"
   height="32"
   version="1.1"
   id="svg12"
   sodipodi:docname="desktop.svg"
   inkscape:version="1.2.2 (b0a8486541, 2022-12-01)"
   xmlns:inkscape="http://www.inkscape.org/namespaces/inkscape"
   xmlns:sodipodi="http://sodipodi.sourceforge.net/DTD/sodipodi-0.dtd"
   xmlns:xlink="http://www.w3.org/1999/xlink"
   xmlns="http://www.w3.org/2000/svg"
   xmlns:svg="http://www.w3.org/2000/svg"
   xmlns:rdf="http://www.w3.org/1999/02/22-rdf-syntax-ns#"
   xmlns:cc="http://creativecommons.org/ns#"
   xmlns:dc="http://purl.org/dc/elements/1.1/">
  <g
     id="desktop">
    <rect
       style="opacity:0.00100002;fill:#d1d5e9;fill-opacity:1"
       width="32"
       height="32"
       x="0"
       y="0"
       id="rect7" />
    <path
       inkscape:connector-curvature="0"
       id="path9068-9-37-8-0-1"
       d="m 26,6 -20.2000001,5e-6 V 23.1 H 26.2 Z"
       style="display:inline;overflow:visible;visibility:visible;opacity:1;fill:url(#linearGradient5058);fill-opacity:1;fill-rule:nonzero;stroke:none;stroke-width:0.653705;marker:none"
       sodipodi:nodetypes="cccccc" />
    <path
       d="M 22.963626,4 H 9.0360719 C 7.7008909,4.0015 6.4207479,4.532574 5.4767539,5.476775 4.5325679,6.420788 4.0015249,7.700876 3.9999999,9.03607 v 13.92805 -1.89e-4 c 0.0015,1.335156 0.532568,2.615282 1.476754,3.559295 0.943994,0.944201 2.224137,1.475225 3.559318,1.476775 h 13.9280351 -1.94e-4 c 1.335183,-0.0015 2.615324,-0.532574 3.559318,-1.476775 0.944187,-0.944013 1.475232,-2.224139 1.476755,-3.559295 V 9.036335 C 27.998186,7.701178 27.467418,6.421052 26.523231,5.47704 25.579237,4.532838 24.299096,4.001815 22.963912,4.000265 Z M 9.1999999,6.000013 H 22.8 c 0.887095,0.0011 1.603761,0.04384 2.231,0.671244 C 25.658232,7.29847 25.998901,8.11292 26,9.000013 V 23.000026 H 5.9999999 V 9.000013 c 0.0011,-0.887093 0.341775,-1.701505 0.969,-2.328756 0.627201,-0.627212 1.343916,-0.670148 2.231,-0.671244 z"
       id="path1193-37"
       style="fill:#d3dae3;fill-opacity:1;stroke-width:0.047619"
       sodipodi:nodetypes="ccccccccccccccccccccccccc" />
    <path
       d="M 10.999993,9.499991 C 10.999993,10.328825 10.328825,11 9.499996,11 8.671868,11.000001 8,10.328825 8,9.499991 8,8.671865 8.671868,8 9.499996,8 c 0.828829,0 1.499997,0.671865 1.499997,1.499991 z"
       id="path72-3-3"
       style="color:#e5e9ef;fill:#d1d5e9;fill-opacity:1;stroke-width:0.0178575"
       class="ColorScheme-Text" />
    <path
       d="M 10.999994,14.499995 C 10.999994,15.328828 10.328823,16 9.499997,16 8.671869,16 8,15.328828 8,14.499995 8,13.671867 8.671869,13 9.499997,13 c 0.828826,0 1.499997,0.671867 1.499997,1.499995 z"
       id="path72-3-6-6"
       style="color:#e5e9ef;fill:#d1d5e9;fill-opacity:1;stroke-width:0.0178575"
       class="ColorScheme-Text" />
    <path
       d="m 6,21 h 20 v 0 -1 H 6 v 0 z"
       id="path2653-4-7"
       style="fill:#d1d5e9;fill-opacity:1;stroke-width:0.306906"
       sodipodi:nodetypes="ccccccc" />
  </g>
  <style
     id="current-color-scheme"
     type="text/css">.ColorScheme-Text { color:#d6dbf1; }
</style>
  <metadata
     id="metadata18">
    <rdf:RDF>
      <cc:Work
         rdf:about="">
        <dc:format>image/svg+xml</dc:format>
        <dc:type
           rdf:resource="http://purl.org/dc/dcmitype/StillImage" />
      </cc:Work>
    </rdf:RDF>
  </metadata>
  <defs
     id="defs16">
    <linearGradient
       id="oomox"
       x1="0"
       x2="0"
       y1="0"
       y2="1">
      <stop
         offset="0%"
         style="stop-color:#303b3d; stop-opacity:1"
         id="stop18" />
      <stop
         offset="100%"
         style="stop-color:#bc985d; stop-opacity:1"
         id="stop20" />
    </linearGradient>
    <linearGradient
       inkscape:collect="always"
       xlink:href="#linearGradient9585"
       id="linearGradient5058"
       x1="156.16699"
       y1="605.46472"
       x2="127.76613"
       y2="635.11676"
       gradientUnits="userSpaceOnUse"
       gradientTransform="matrix(0.50999969,0,0,0.42750131,-58.969959,-248.94562)" />
    <linearGradient
       inkscape:collect="always"
       id="linearGradient9585">
      <stop
         style="stop-color:#008080;stop-opacity:1"
         offset="0"
         id="stop9581" />
      <stop
         style="stop-color:#5599ff;stop-opacity:1"
         offset="1"
         id="stop9583" />
    </linearGradient>
  </defs>
  <sodipodi:namedview
     pagecolor="#cccccc"
     bordercolor="#000000"
     borderopacity="1"
     objecttolerance="10"
     gridtolerance="10"
     guidetolerance="10"
     inkscape:pageopacity="0"
     inkscape:pageshadow="2"
     inkscape:window-width="1920"
     inkscape:window-height="996"
     id="namedview14"
     showgrid="false"
     inkscape:zoom="13.876971"
     inkscape:cx="5.0082976"
     inkscape:cy="19.132417"
     inkscape:window-x="0"
     inkscape:window-y="0"
     inkscape:window-maximized="1"
     inkscape:current-layer="svg12"
     inkscape:lockguides="false"
     inkscape:document-rotation="0"
     inkscape:showpageshadow="true"
     inkscape:pagecheckerboard="false"
     inkscape:deskcolor="#808080">
    <inkscape:grid
       type="xygrid"
       id="grid863"
       originx="0"
       originy="0" />
  </sodipodi:namedview>
</svg>
