<?xml version="1.0" encoding="UTF-8" standalone="no"?>
<svg
   viewBox="0 0 32 32"
   id="svg"
   version="1.1"
   width="32"
   height="32"
   sodipodi:docname="device.svg"
   inkscape:version="1.2.2 (b0a8486541, 2022-12-01)"
   xmlns:inkscape="http://www.inkscape.org/namespaces/inkscape"
   xmlns:sodipodi="http://sodipodi.sourceforge.net/DTD/sodipodi-0.dtd"
   xmlns:xlink="http://www.w3.org/1999/xlink"
   xmlns="http://www.w3.org/2000/svg"
   xmlns:svg="http://www.w3.org/2000/svg"
   xmlns:rdf="http://www.w3.org/1999/02/22-rdf-syntax-ns#"
   xmlns:cc="http://creativecommons.org/ns#"
   xmlns:dc="http://purl.org/dc/elements/1.1/">
  <sodipodi:namedview
     pagecolor="#ffffff"
     bordercolor="#000000"
     borderopacity="1"
     objecttolerance="10"
     gridtolerance="10"
     guidetolerance="10"
     inkscape:pageopacity="0"
     inkscape:pageshadow="2"
     inkscape:window-width="1920"
     inkscape:window-height="994"
     id="namedview19"
     showgrid="false"
     inkscape:zoom="5.6568543"
     inkscape:cx="20.948038"
     inkscape:cy="36.769553"
     inkscape:window-x="0"
     inkscape:window-y="0"
     inkscape:window-maximized="1"
     inkscape:current-layer="svg"
     inkscape:lockguides="true"
     inkscape:document-rotation="0"
     inkscape:showpageshadow="2"
     inkscape:pagecheckerboard="0"
     inkscape:deskcolor="#cccccc">
    <inkscape:grid
       type="xygrid"
       id="grid4522"
       originx="0"
       originy="60" />
  </sodipodi:namedview>
  <defs
     id="defs81">
    <linearGradient
       inkscape:collect="always"
       id="linearGradient500">
      <stop
         style="stop-color:#ff8080;stop-opacity:1"
         offset="0"
         id="stop496" />
      <stop
         style="stop-color:#ff80e5;stop-opacity:1"
         offset="1"
         id="stop498" />
    </linearGradient>
    <style
       id="current-color-scheme"
       type="text/css" />
    <linearGradient
       inkscape:collect="always"
       xlink:href="#linearGradient500"
       id="linearGradient24643"
       gradientUnits="userSpaceOnUse"
       gradientTransform="matrix(0.42499979,0,0,0.47000146,-45.974972,-274.2911)"
       x1="148.17648"
       y1="596.36218"
       x2="148.17648"
       y2="636.7876" />
    <linearGradient
       inkscape:collect="always"
       xlink:href="#linearGradient500"
       id="linearGradient14607"
       gradientUnits="userSpaceOnUse"
       gradientTransform="matrix(0.42499979,0,0,0.42500139,-50.974972,-251.45476)"
       x1="145.82353"
       y1="598.71515"
       x2="145.82353"
       y2="634.00916" />
    <linearGradient
       inkscape:collect="always"
       xlink:href="#linearGradient500"
       id="linearGradient15012"
       gradientUnits="userSpaceOnUse"
       gradientTransform="matrix(0.31499981,0,0,0.17203179,-37.857916,-101.37562)"
       x1="132.88235"
       y1="605.19513"
       x2="158.27919"
       y2="605.19513" />
  </defs>
  <metadata
     id="metadata34">
    <rdf:RDF>
      <cc:Work
         rdf:about="">
        <dc:format>image/svg+xml</dc:format>
        <dc:type
           rdf:resource="http://purl.org/dc/dcmitype/StillImage" />
      </cc:Work>
    </rdf:RDF>
  </metadata>
  <g
     id="device-notifier">
    <rect
       style="fill:#ffffff;fill-opacity:0;stroke:none;stroke-width:1.45455"
       id="rect3817"
       width="32"
       height="32"
       x="0"
       y="0" />
    <path
       inkscape:connector-curvature="0"
       id="path9068-9-37-8-0-1-3"
       d="M 22,6 8,6.0000026 10,6 v 5 L 8,24.799997 H 25 L 22,11 Z"
       style="display:inline;overflow:visible;visibility:visible;opacity:0.6;fill:url(#linearGradient24643);fill-opacity:1;fill-rule:nonzero;stroke:none;stroke-width:0.625709;marker:none"
       sodipodi:nodetypes="cccccccc" />
    <path
       id="path3819-1"
       d="m 9,5 v 7 H 8 c -1,0 -2,1 -2,1.999999 v 12 c 0,1 1,2 2,2 h 15.999999 c 1,0 2,-1 2,-2 l 2e-6,-12 C 25.999999,13 24.999999,12 23.999999,12 H 23.000001 V 5 c 0,-1 -1,-1 -0.95484,-1.000001 H 10.034062 C 10.034062,3.999999 9,4 9,5 Z m 2,1 h 10.000001 v 6 H 11 Z m 1,2 v 2 h 3 V 8 Z m 8.000001,0 h -3 v 2 h 3 z M 16,15 22.000001,21 H 10 Z m -6,8 h 12.000001 v 0.999999 H 10 Z"
       style="fill:#d3dae3;fill-opacity:1;stroke:none;stroke-width:1.45455"
       class="ColorScheme-Text"
       sodipodi:nodetypes="ccccccccccccccccccccccccccccccccccccccc" />
  </g>
  <g
     id="22-22-device-notifier"
     transform="translate(0,34)">
    <rect
       y="0"
       x="0"
       height="22"
       width="22"
       id="rect3011-4"
       style="fill:#ffffff;fill-opacity:0;stroke:none" />
    <path
       inkscape:connector-curvature="0"
       id="path9068-9-37-8-0-1-3-4"
       d="M 16,2 H 6 V 2 6 L 5,19 H 17 L 16,6 Z"
       style="display:inline;overflow:visible;visibility:visible;opacity:0.6;fill:url(#linearGradient14607);fill-opacity:1.0;fill-rule:nonzero;stroke:none;stroke-width:0.595001;marker:none"
       sodipodi:nodetypes="cccccccc" />
    <path
       id="path3819-6-0"
       d="m 5.000001,2 v 6 h -1 c -0.8,0 -1,0.5 -1,1.333333 v 10 C 3.000001,20.166667 3.800001,21 4.6,21 h 12.8 c 0.8,0 1.6,-0.833333 1.6,-1.666667 l 1e-6,-10 C 19,8.5 18.800001,8 18.000001,8 h -1 V 2 C 17.000001,1 15.8,1 15.836129,1 H 6.22725 c 0,0 -1.227249,0 -1.227249,1 z m 2,1 h 8 v 5 h -8 z m 1,1 v 2 h 2 V 4 Z m 6,0 h -2 v 2 h 2 z M 11,10.166668 16.000001,15 h -10 z M 6.000001,17 h 10 v 1 h -10 z"
       style="fill:#d3dae3;fill-opacity:1;stroke:none;stroke-width:1.18764"
       class="ColorScheme-Text"
       sodipodi:nodetypes="ccccccccccccccccccccccccccccccccccccccc" />
  </g>
  <g
     id="16-16-device-notifier"
     transform="translate(0,60)">
    <rect
       style="fill:#ffffff;fill-opacity:0;stroke:none"
       id="rect3823"
       width="16"
       height="16"
       x="0"
       y="0" />
    <path
       inkscape:connector-curvature="0"
       id="path9068-9-37-8-0-1-3-4-7"
       d="M 11.782348,1.2176455 H 4.3705887 v 0 L 3,2.7371754 3.6294113,8.098895 H 12.523531 L 13,2.7371754 Z"
       style="display:inline;overflow:visible;visibility:visible;opacity:0.6;fill:url(#linearGradient15012);fill-opacity:1;fill-rule:nonzero;stroke:none;stroke-width:0.325903;marker:none"
       sodipodi:nodetypes="cccccccc" />
    <path
       id="path3825-7"
       d="M 3,1 V 7 H 2 v 8 H 14 V 7 H 13 V 1 Z m 1,1 h 8 V 7 H 4 Z M 5,3 V 6 H 7 V 3 Z m 6,0 H 9 v 3 h 2 z"
       style="fill:#d3dae3;fill-opacity:1;stroke:none;stroke-width:1.12819"
       class="ColorScheme-Text"
       sodipodi:nodetypes="cccccccccccccccccccccccc" />
  </g>
</svg>
