<?xml version="1.0" encoding="UTF-8" standalone="no"?>
<svg
   width="32"
   height="32"
   version="1.1"
   id="svg78"
   sodipodi:docname="disk.svg"
   inkscape:version="1.2.1 (9c6d41e410, 2022-07-14)"
   xmlns:inkscape="http://www.inkscape.org/namespaces/inkscape"
   xmlns:sodipodi="http://sodipodi.sourceforge.net/DTD/sodipodi-0.dtd"
   xmlns:xlink="http://www.w3.org/1999/xlink"
   xmlns="http://www.w3.org/2000/svg"
   xmlns:svg="http://www.w3.org/2000/svg">
  <g
     id="22-22-disk-quota-missing"
     transform="translate(128,-22)">
    <rect
       style="opacity:0.00100002"
       width="22"
       height="22"
       x="0"
       y="0"
       id="rect34" />
    <path
       inkscape:connector-curvature="0"
       id="path9068-9-37-8-0-1-56-6"
       d="M 19,5 C 19,4 18,3 17,3 H 5 C 4,3 3,4 3,5 v 12 h 16 z"
       style="display:inline;overflow:visible;visibility:visible;opacity:0.6;fill:url(#linearGradient17823);fill-opacity:1.0;fill-rule:nonzero;stroke:none;stroke-width:0.533689;marker:none"
       sodipodi:nodetypes="ccccccc" />
    <path
       d="M 15,15 H 7 c -0.3069,0 0,0 0,0 v 0 c -1,0 -1,2 0,2 h 8 c 1,0 1,-2 0,-2 z m 0.006,1.99364 -8.006,0.0064 -0.003,-0.0039 -4e-4,9.06e-4 8.0034,0.003 0.0028,-0.0031 -0.0028,0.0031 z"
       id="path79-3-8-5-3"
       style="fill:#d3dae3;fill-opacity:0.4;stroke-width:0.0292304"
       sodipodi:nodetypes="cssccccccsccccc" />
    <path
       d="M 11,6 C 9.93922,6 8.92188,6.421585 8.1716,7.171595 7.42159,7.921824 7,8.939157 7,10 7,11.060843 7.42158,12.07812 8.1716,12.828407 8.92183,13.578411 9.93916,14 11,14 c 1.06084,0 2.07812,-0.421585 2.8284,-1.171593 0.75001,-0.750231 1.17161,-1.767566 1.17161,-2.828408 C 14.99901,8.939608 14.57687,7.922953 13.82682,7.173174 13.07699,6.423172 12.06033,6.001356 11,6 Z m 0,7.010693 v 2.27e-4 l -0.008,0.03445 v 0 0 0 0 0 0 0 z"
       id="path74-6-6-03-1"
       style="fill:#d3dae3;fill-opacity:0.4;stroke-width:0.0565059"
       sodipodi:nodetypes="ccscsccccccccccccccc" />
    <path
       d="M 11,8 C 10.46961,8 9.96094,8.210792 9.5858,8.585797 9.2108,8.960912 9,9.469577 9,9.999999 9,10.530423 9.21079,11.039057 9.5858,11.414204 9.96091,11.789205 10.46958,12 11,12 11.53042,12 12.03906,11.789207 12.4142,11.414204 12.7892,11.039087 13,10.530417 13,9.999999 12.99943,9.469803 12.78843,8.961476 12.41341,8.586586 12.03849,8.211585 11.53016,8.000677 11,8 Z m 0,3.505348 v 1.15e-4 l -0.004,0.01722 v 0 0 0 0 0 0 0 z"
       id="path74-6-7-7-6-8"
       style="fill:#000000;fill-opacity:0.4;stroke-width:0.0282529"
       sodipodi:nodetypes="ccscsccccccccccccccc" />
    <path
       d="M 16.80302,0.999889 H 5.19675 C 4.0841,1.001389 3.01729,1.443703 2.23063,2.230537 1.44378,3.017211 1.00127,4.083951 1.00001,5.196613 v 11.606709 -1.58e-4 c 8.6e-4,1.11263 0.44377,2.179402 1.23062,2.96608 0.78666,0.786835 1.85347,1.229354 2.96612,1.230646 h 11.6067 -1.9e-4 c 1.11265,-0.0012 2.17946,-0.443811 2.96611,-1.230645 C 20.55623,18.982566 20.99874,17.915794 21,16.803164 V 5.196836 C 20.998,4.084201 20.55623,3.017434 19.76937,2.230756 18.98272,1.443923 17.91591,1.001398 16.80326,1.000114 Z M 5,3 h 12 v 0 c 1,0 2,1 2,2 l 10e-6,11.999915 h -16 L 3,5 C 3,4 4,3 5,3 Z"
       id="path1193-3-1-9"
       style="fill:#d3dae3;fill-opacity:0.4;stroke-width:0.0396829"
       sodipodi:nodetypes="ccccccccccccccccccccccccc" />
  </g>
  <g
     id="22-22-disk-quota-critical"
     transform="translate(96,-22)">
    <rect
       style="opacity:0.00100002"
       width="22"
       height="22"
       x="0"
       y="0"
       id="rect27" />
    <path
       inkscape:connector-curvature="0"
       id="path9068-9-37-8-0-1-0-1-3-7-4-6-1-4"
       d="m 19.51551,2.6044995 -17.11851,5e-6 V 17.3955 h 17.288 z"
       style="display:inline;overflow:visible;visibility:visible;opacity:0.6;fill:url(#linearGradient6958-56);fill-opacity:1.0;fill-rule:nonzero;stroke:none;stroke-width:0.55969;marker:none"
       sodipodi:nodetypes="cccccc" />
    <path
       d="M 15,15.000001 H 7 c -0.3069,0 0,0 0,0 v 0 c -1,0 -1,2 0,2 h 8 c 1,0 1,-2 0,-2 z m 0.006,1.99364 -8.006,0.0064 -0.003,-0.0039 -4e-4,9.06e-4 8.0034,0.003 0.0028,-0.0031 -0.0028,0.0031 z"
       id="path79-3-8-4-5"
       style="fill:#bf616a;fill-opacity:1;stroke-width:0.0292304"
       sodipodi:nodetypes="cssccccccsccccc" />
    <path
       d="m 11,6.000001 c -1.06078,0 -2.07812,0.421585 -2.8284,1.171595 C 7.42159,7.921825 7,8.939158 7,10.000001 c 0,1.060843 0.42158,2.07812 1.1716,2.828407 0.75023,0.750004 1.76756,1.171593 2.8284,1.171593 1.06084,0 2.07812,-0.421585 2.8284,-1.171593 C 14.57841,12.078177 15.00001,11.060842 15.00001,10 14.99901,8.939609 14.57687,7.922954 13.82682,7.173175 13.07699,6.423173 12.06033,6.001357 11,6.000001 Z m 0,7.010693 v 2.27e-4 l -0.008,0.03445 v 0 0 0 0 0 0 0 z"
       id="path74-6-6-7-3"
       style="fill:#bf616a;fill-opacity:1;stroke-width:0.0565059"
       sodipodi:nodetypes="ccscsccccccccccccccc" />
    <path
       d="m 11,8.000001 c -0.53039,0 -1.03906,0.210792 -1.4142,0.585797 C 9.2108,8.960913 9,9.469578 9,10 c 0,0.530424 0.21079,1.039058 0.5858,1.414205 0.37511,0.375001 0.88378,0.585796 1.4142,0.585796 0.53042,0 1.03906,-0.210793 1.4142,-0.585796 C 12.7892,11.039088 13,10.530418 13,10 12.99943,9.469804 12.78843,8.961477 12.41341,8.586587 12.03849,8.211586 11.53016,8.000678 11,8.000001 Z m 0,3.505348 v 1.15e-4 l -0.004,0.01722 v 0 0 0 0 0 0 0 z"
       id="path74-6-7-7-8-8"
       style="fill:#000000;fill-opacity:1;stroke-width:0.0282529"
       sodipodi:nodetypes="ccscsccccccccccccccc" />
    <path
       d="M 16.80302,0.99989 H 5.19675 C 4.0841,1.00139 3.01729,1.443704 2.23063,2.230538 1.44378,3.017212 1.00127,4.083952 1.00001,5.196614 v 11.606709 -1.58e-4 c 8.6e-4,1.11263 0.44377,2.179402 1.23062,2.96608 0.78666,0.786835 1.85347,1.229354 2.96612,1.230646 h 11.6067 -1.9e-4 c 1.11265,-0.0012 2.17946,-0.443811 2.96611,-1.230645 C 20.55623,18.982567 20.99874,17.915795 21,16.803165 V 5.196837 C 20.998,4.084202 20.55623,3.017435 19.76937,2.230757 18.98272,1.443924 17.91591,1.001399 16.80326,1.000115 Z M 5.61701,2.999916 h 10.766 c 0.73924,0.0011 1.43628,-0.113833 1.959,0.409 0.52269,0.52268 0.6571,1.018408 0.658,1.757653 v 11.833347 h -16 V 5.166569 c 8.5e-4,-0.739245 0.13532,-1.234937 0.658,-1.757653 0.52268,-0.522679 1.21978,-0.40809 1.959,-0.409 z"
       id="path1193-3-4-8"
       style="fill:#d3dae3;fill-opacity:1;stroke-width:0.0396829"
       sodipodi:nodetypes="ccccccccccccccccccccccccc" />
  </g>
  <g
     id="22-22-disk-quota-high"
     transform="translate(64,-22)">
    <rect
       style="opacity:0.00100002"
       width="22"
       height="22"
       x="0"
       y="0"
       id="rect18" />
    <path
       inkscape:connector-curvature="0"
       id="path9068-9-37-8-0-1-0-1-3-7-4-6-1-6"
       d="m 19.559254,2.7 -17.118508,5e-6 V 17.491 h 17.288 z"
       style="display:inline;overflow:visible;visibility:visible;opacity:0.6;fill:url(#linearGradient6958-6);fill-opacity:1.0;fill-rule:nonzero;stroke:none;stroke-width:0.55969;marker:none"
       sodipodi:nodetypes="cccccc" />
    <path
       d="M 15,15 H 7 c -0.3069,0 0,0 0,0 v 0 c -1,0 -1,2 0,2 h 8 c 1,0 1,-2 0,-2 z m 0.006,1.99364 -8.006,0.0064 -0.003,-0.0039 -4e-4,9.06e-4 8.0034,0.003 0.0028,-0.0031 -0.0028,0.0031 z"
       id="path79-3-8-12-8"
       style="fill:#d08770;fill-opacity:1;stroke-width:0.0292304"
       sodipodi:nodetypes="cssccccccsccccc" />
    <path
       d="M 11,6 C 9.93922,6 8.92188,6.421585 8.1716,7.171595 7.42159,7.921824 7,8.939157 7,10 7,11.060843 7.42158,12.07812 8.1716,12.828407 8.92183,13.578411 9.93916,14 11,14 c 1.06084,0 2.07812,-0.421585 2.8284,-1.171593 0.75001,-0.750231 1.17161,-1.767566 1.17161,-2.828408 C 14.99901,8.939608 14.57687,7.922953 13.82682,7.173174 13.07699,6.423172 12.06033,6.001356 11,6 Z m 0,7.010693 v 2.27e-4 l -0.008,0.03445 v 0 0 0 0 0 0 0 z"
       id="path74-6-6-93-5"
       style="fill:#d08770;fill-opacity:1;stroke-width:0.0565059"
       sodipodi:nodetypes="ccscsccccccccccccccc" />
    <path
       d="M 11,8 C 10.46961,8 9.96094,8.210792 9.5858,8.585797 9.2108,8.960912 9,9.469577 9,9.999999 9,10.530423 9.21079,11.039057 9.5858,11.414204 9.96091,11.789205 10.46958,12 11,12 11.53042,12 12.03906,11.789207 12.4142,11.414204 12.7892,11.039087 13,10.530417 13,9.999999 12.99943,9.469803 12.78843,8.961476 12.41341,8.586586 12.03849,8.211585 11.53016,8.000677 11,8 Z m 0,3.505348 v 1.15e-4 l -0.004,0.01722 v 0 0 0 0 0 0 0 z"
       id="path74-6-7-7-1-9"
       style="fill:#000000;fill-opacity:1;stroke-width:0.0282529"
       sodipodi:nodetypes="ccscsccccccccccccccc" />
    <path
       d="M 16.80302,0.999889 H 5.19675 C 4.0841,1.001389 3.01729,1.443703 2.23063,2.230537 1.44378,3.017211 1.00127,4.083951 1.00001,5.196613 v 11.606709 -1.58e-4 c 8.6e-4,1.11263 0.44377,2.179402 1.23062,2.96608 0.78666,0.786835 1.85347,1.229354 2.96612,1.230646 h 11.6067 -1.9e-4 c 1.11265,-0.0012 2.17946,-0.443811 2.96611,-1.230645 C 20.55623,18.982566 20.99874,17.915794 21,16.803164 V 5.196836 C 20.998,4.084201 20.55623,3.017434 19.76937,2.230756 18.98272,1.443923 17.91591,1.001398 16.80326,1.000114 Z M 5.61701,2.999915 h 10.766 c 0.73924,0.0011 1.43628,-0.113833 1.959,0.409 0.52269,0.52268 0.6571,1.018408 0.658,1.757653 v 11.833347 h -16 V 5.166568 c 8.5e-4,-0.739245 0.13532,-1.234937 0.658,-1.757653 0.52268,-0.522679 1.21978,-0.40809 1.959,-0.409 z"
       id="path1193-3-9-7"
       style="fill:#d3dae3;fill-opacity:1;stroke-width:0.0396829"
       sodipodi:nodetypes="ccccccccccccccccccccccccc" />
  </g>
  <g
     id="disk-quota">
    <rect
       style="opacity:0.00100002;fill:#d3dae3;fill-opacity:1"
       width="32"
       height="32"
       x="0"
       y="0"
       id="rect41" />
    <path
       inkscape:connector-curvature="0"
       id="path9068-9-37-8-0-1"
       d="m 26,5.9087567 -20.2,5e-6 V 23.208757 h 20.4 z"
       style="display:inline;overflow:visible;visibility:visible;opacity:0.6;fill:url(#linearGradient5058);fill-opacity:1;fill-rule:nonzero;stroke:none;stroke-width:0.657517;marker:none"
       sodipodi:nodetypes="cccccc" />
    <path
       d="M 22.48045,21 H 9.58266 C 9.12233,21 8.75,21.398817 8.75,21.888782 v 0.22322 C 8.75,22.602602 9.12252,23 9.58266,23 h 12.89779 c 0.45976,0 0.83246,-0.397387 0.83246,-0.887998 v -0.22322 C 23.31291,21.399203 22.9402,21 22.48045,21 Z M 22,23 H 10 v 0 0 z"
       id="path79-3-5"
       style="fill:#ffffff;fill-opacity:1;stroke-width:0.0506274"
       sodipodi:nodetypes="sssssssssccccccc" />
    <path
       d="M 16,8 C 14.408828,8 12.882825,8.632377 11.757396,9.757392 10.632384,10.882736 9.999993,12.408736 9.999993,14 c 0,1.591264 0.632374,3.11718 1.757403,4.242611 C 12.882738,19.367616 14.408741,20 16,20 c 1.591259,0 3.117178,-0.632377 4.242604,-1.757389 1.125012,-1.125347 1.757405,-2.651349 1.757405,-4.242613 -0.0017,-1.590586 -0.63471,-3.115569 -1.759775,-4.240237 C 19.11548,8.634758 17.590498,8.002034 16,8 Z m 0,10.516039 v 3.41e-4 l -0.01144,0.05168 v 0 0 0 0 0 0 0 z"
       id="path74-6-9"
       style="fill:#d3dae3;fill-opacity:1;stroke-width:0.0847589"
       sodipodi:nodetypes="ccscsccccccccccccccc" />
    <path
       d="M 16.000003,11 C 15.204415,11 14.44142,11.31619 13.878701,11.878697 13.316196,12.44137 13,13.204364 13,14 c 0,0.795636 0.316189,1.558594 0.878701,2.121304 C 14.441374,16.683807 15.204377,17 16.000003,17 c 0.795634,0 1.558593,-0.31619 2.121301,-0.878696 0.562506,-0.562674 0.878703,-1.325669 0.878703,-2.121305 -8.6e-4,-0.795294 -0.317353,-1.557784 -0.87989,-2.120115 C 17.55774,11.317382 16.795251,11.001017 16.000003,11 Z m -0.0058,5.28403 z"
       id="path74-6-3-3-7"
       style="fill:#1d212f;fill-opacity:1;stroke-width:0.0423793"
       sodipodi:nodetypes="ccscsccccccccccccc" />
    <path
       d="M 22.963626,4 H 9.036072 C 7.700891,4.0015 6.420748,4.532574 5.476754,5.476775 4.532568,6.420788 4.001525,7.700876 4,9.03607 v 13.92805 -1.89e-4 c 0.0015,1.335156 0.532568,2.615282 1.476754,3.559295 0.943994,0.944201 2.224137,1.475225 3.559318,1.476775 h 13.928035 -1.94e-4 c 1.335183,-0.0015 2.615324,-0.532574 3.559318,-1.476775 0.944187,-0.944013 1.475232,-2.224139 1.476755,-3.559295 V 9.036334 C 27.998186,7.701178 27.467418,6.421052 26.523231,5.47704 25.579237,4.532838 24.299096,4.001815 22.963912,4.000265 Z M 9.2,6.000013 h 13.6 c 0.887095,0.0011 1.603761,0.04384 2.231,0.671244 C 25.658232,7.29847 25.998901,8.11292 26,9.000013 V 23.000026 H 6 V 9.000013 C 6.0011,8.11292 6.341775,7.298508 6.969,6.671257 7.596201,6.044045 8.312916,6.001109 9.2,6.000013 Z"
       id="path1193-7"
       style="fill:#d3dae3;fill-opacity:1;stroke-width:0.047619"
       sodipodi:nodetypes="ccccccccccccccccccccccccc" />
  </g>
  <sodipodi:namedview
     id="namedview80"
     pagecolor="#ffffff"
     bordercolor="#000000"
     borderopacity="1"
     inkscape:pageshadow="2"
     inkscape:pageopacity="0.0"
     inkscape:pagecheckerboard="0"
     showgrid="false"
     inkscape:zoom="5.656854"
     inkscape:cx="82.289555"
     inkscape:cy="4.5078059"
     inkscape:window-width="1920"
     inkscape:window-height="1002"
     inkscape:window-x="0"
     inkscape:window-y="0"
     inkscape:window-maximized="1"
     inkscape:current-layer="svg78"
     showguides="true"
     inkscape:lockguides="false"
     inkscape:showpageshadow="false"
     inkscape:deskcolor="#d1d1d1">
    <inkscape:grid
       type="xygrid"
       id="grid1005"
       originx="0"
       originy="0" />
  </sodipodi:namedview>
  <defs
     id="nova">
    <linearGradient
       inkscape:collect="always"
       id="linearGradient5635">
      <stop
         style="stop-color:#5581aa;stop-opacity:1;"
         offset="0"
         id="stop5631" />
      <stop
         style="stop-color:#6db2c5;stop-opacity:1;"
         offset="1"
         id="stop5633" />
    </linearGradient>
    <style
       id="current-color-scheme"
       type="text/css">
   .ColorScheme-Background {color:#181818; } .ColorScheme-ButtonBackground { color:#343434; } .ColorScheme-Highlight { color:#4285f4; } .ColorScheme-Text { color:#dfdfdf; } .ColorScheme-ViewBackground { color:#242424; } .ColorScheme-NegativeText { color:#f44336; } .ColorScheme-PositiveText { color:#4caf50; } .ColorScheme-NeutralText { color:#ff9800; }
  </style>
    <linearGradient
       inkscape:collect="always"
       xlink:href="#linearGradient5635"
       id="linearGradient5058"
       x1="147.00002"
       y1="596.57318"
       x2="147.00002"
       y2="635.87946"
       gradientUnits="userSpaceOnUse"
       gradientTransform="matrix(0.50999969,0,0,0.43250127,-58.969959,-252.01866)" />
    <linearGradient
       inkscape:collect="always"
       xlink:href="#linearGradient5635"
       id="linearGradient6958"
       gradientUnits="userSpaceOnUse"
       gradientTransform="matrix(0.43219982,0,0,0.36977632,-180.44862,-217.8207)"
       x1="146.80391"
       y1="596.36243"
       x2="146.99998"
       y2="636.3623" />
    <linearGradient
       inkscape:collect="always"
       xlink:href="#linearGradient5635"
       id="linearGradient6958-5"
       gradientUnits="userSpaceOnUse"
       gradientTransform="matrix(0.43219982,0,0,0.36977632,-52.48937,-217.8167)"
       x1="146.80391"
       y1="596.36243"
       x2="146.99998"
       y2="636.3623" />
    <linearGradient
       inkscape:collect="always"
       xlink:href="#linearGradient5635"
       id="linearGradient6958-6"
       gradientUnits="userSpaceOnUse"
       gradientTransform="matrix(0.43219982,0,0,0.36977632,-52.448624,-217.8207)"
       x1="146.80391"
       y1="596.36243"
       x2="146.99998"
       y2="636.3623" />
    <linearGradient
       inkscape:collect="always"
       xlink:href="#linearGradient5635"
       id="linearGradient6958-56"
       gradientUnits="userSpaceOnUse"
       gradientTransform="matrix(0.43219982,0,0,0.36977632,-52.492369,-217.9162)"
       x1="146.80391"
       y1="596.36243"
       x2="146.99998"
       y2="636.3623" />
    <linearGradient
       inkscape:collect="always"
       xlink:href="#linearGradient5635"
       id="linearGradient15878"
       gradientUnits="userSpaceOnUse"
       gradientTransform="matrix(0.50999969,0,0,0.43250127,-58.969959,-252.02742)"
       x1="147.00002"
       y1="596.57318"
       x2="147.00002"
       y2="635.87946" />
    <linearGradient
       inkscape:collect="always"
       xlink:href="#linearGradient5635"
       id="linearGradient15901"
       gradientUnits="userSpaceOnUse"
       gradientTransform="matrix(0.50999969,0,0,0.43250127,-58.969959,-252.02742)"
       x1="147.00002"
       y1="596.57318"
       x2="147.00002"
       y2="635.87946" />
    <linearGradient
       inkscape:collect="always"
       xlink:href="#linearGradient5635"
       id="linearGradient15924"
       gradientUnits="userSpaceOnUse"
       gradientTransform="matrix(0.50999969,0,0,0.43250127,-58.969959,-252.12742)"
       x1="147.00002"
       y1="596.57318"
       x2="147.00002"
       y2="635.87946" />
    <linearGradient
       inkscape:collect="always"
       xlink:href="#linearGradient5635"
       id="linearGradient15947"
       gradientUnits="userSpaceOnUse"
       gradientTransform="matrix(0.50999969,0,0,0.43250127,-58.869959,-251.92742)"
       x1="147.00002"
       y1="596.57318"
       x2="147.00002"
       y2="635.87946" />
    <linearGradient
       inkscape:collect="always"
       xlink:href="#linearGradient5635"
       id="linearGradient17823"
       gradientUnits="userSpaceOnUse"
       gradientTransform="matrix(0.40799963,0,0,0.35617749,-48.895957,-209.41082)"
       x1="147.00002"
       y1="596.57318"
       x2="147.00002"
       y2="635.87946" />
  </defs>
  <g
     transform="matrix(1.5,0,0,1.5,132,4.0003)"
     id="g75" />
  <g
     id="disk-quota-low"
     transform="translate(32)">
    <rect
       style="opacity:0.00100002"
       width="32"
       height="32"
       x="0"
       y="0"
       id="rect48" />
    <path
       inkscape:connector-curvature="0"
       id="path9068-9-37-8-0-1-0"
       d="m 26,5.9 -20.2,5e-6 v 17.299996 h 20.4 z"
       style="display:inline;overflow:visible;visibility:visible;opacity:0.6;fill:url(#linearGradient15878);fill-opacity:1.0;fill-rule:nonzero;stroke:none;stroke-width:0.657517;marker:none"
       sodipodi:nodetypes="cccccc" />
    <path
       d="M 22.480447,21 H 9.582657 c -0.46033,0 -0.83266,0.398817 -0.83266,0.888782 v 0.22322 c 0,0.4906 0.37252,0.887998 0.83266,0.887998 h 12.89779 c 0.45976,0 0.83246,-0.397387 0.83246,-0.887998 v -0.22322 C 23.312907,21.399203 22.940197,21 22.480447,21 Z m -0.48045,2 h -12 v 0 0 z"
       id="path79-3-91-1"
       style="fill:#3daee9;fill-opacity:1;stroke-width:0.0506274"
       sodipodi:nodetypes="sssssssssccccccc" />
    <path
       d="M 15.999997,8 C 14.408825,8 12.882822,8.632377 11.757393,9.757392 10.632381,10.882736 9.99999,12.408736 9.99999,14 c 0,1.591264 0.632374,3.11718 1.757403,4.242611 C 12.882735,19.367616 14.408738,20 15.999997,20 c 1.591259,0 3.117178,-0.632377 4.242604,-1.757389 1.125012,-1.125347 1.757405,-2.651349 1.757405,-4.242613 -0.0017,-1.590586 -0.63471,-3.115569 -1.759775,-4.240237 C 19.115477,8.634758 17.590495,8.002034 15.999997,8 Z m 0,10.516039 v 3.41e-4 l -0.01144,0.05168 v 0 0 0 0 0 0 0 z"
       id="path74-6-2-1"
       style="fill:#3daee9;fill-opacity:1;stroke-width:0.0847589"
       sodipodi:nodetypes="ccscsccccccccccccccc" />
    <path
       d="m 16,11 c -0.795588,0 -1.558583,0.31619 -2.121302,0.878697 C 13.316193,12.44137 12.999997,13.204364 12.999997,14 c 0,0.795636 0.316189,1.558594 0.878701,2.121304 C 14.441371,16.683807 15.204374,17 16,17 c 0.795634,0 1.558593,-0.31619 2.121301,-0.878696 0.562506,-0.562674 0.878703,-1.325669 0.878703,-2.121305 -8.6e-4,-0.795294 -0.317353,-1.557784 -0.87989,-2.120115 C 17.557737,11.317382 16.795248,11.001017 16,11 Z m -0.0058,5.28403 z"
       id="path74-6-3-3-70-5"
       style="fill:#1d212f;fill-opacity:1;stroke-width:0.0423793"
       sodipodi:nodetypes="ccscsccccccccccccc" />
    <path
       d="M 22.963623,4 H 9.036069 C 7.700888,4.0015 6.420745,4.532574 5.476751,5.476775 4.532565,6.420788 4.001522,7.700876 3.999997,9.03607 v 13.92805 -1.89e-4 c 0.0015,1.335156 0.532568,2.615282 1.476754,3.559295 0.943994,0.944201 2.224137,1.475225 3.559318,1.476775 h 13.928035 -1.94e-4 c 1.335183,-0.0015 2.615324,-0.532574 3.559318,-1.476775 0.944187,-0.944013 1.475232,-2.224139 1.476755,-3.559295 V 9.036334 C 27.998183,7.701178 27.467415,6.421052 26.523228,5.47704 25.579234,4.532838 24.299093,4.001815 22.963909,4.000265 Z M 9.199997,6.000013 h 13.6 c 0.887095,0.0011 1.603761,0.04384 2.231,0.671244 0.627232,0.627213 0.967901,1.441663 0.969,2.328756 v 14.000013 h -20 V 9.000013 c 0.0011,-0.887093 0.341775,-1.701505 0.969,-2.328756 0.627201,-0.627212 1.343916,-0.670148 2.231,-0.671244 z"
       id="path1193-9-9"
       style="fill:#d3dae3;fill-opacity:1;stroke-width:0.047619"
       sodipodi:nodetypes="ccccccccccccccccccccccccc" />
  </g>
  <g
     id="disk-quota-high"
     transform="translate(64)">
    <rect
       style="opacity:0.00100002"
       width="32"
       height="32"
       x="0"
       y="0"
       id="rect55" />
    <path
       inkscape:connector-curvature="0"
       id="path9068-9-37-8-0-1-5"
       d="m 26,5.9 -20.2,5e-6 V 23.2 h 20.4 z"
       style="display:inline;overflow:visible;visibility:visible;opacity:0.6;fill:url(#linearGradient15901);fill-opacity:1.0;fill-rule:nonzero;stroke:none;stroke-width:0.657517;marker:none"
       sodipodi:nodetypes="cccccc" />
    <path
       d="M 22.48044,21.000001 H 9.58265 c -0.46033,0 -0.83266,0.398817 -0.83266,0.888782 v 0.22322 c 0,0.4906 0.37252,0.887998 0.83266,0.887998 h 12.89779 c 0.45976,0 0.83246,-0.397387 0.83246,-0.887998 v -0.22322 c 0,-0.489579 -0.37271,-0.888782 -0.83246,-0.888782 z m -0.48045,2 h -12 v 0 0 z"
       id="path79-3-3-8"
       style="fill:#d08770;fill-opacity:1;stroke-width:0.0506274"
       sodipodi:nodetypes="sssssssssccccccc" />
    <path
       d="m 15.99999,8.000001 c -1.59117,0 -3.11718,0.632377 -4.2426,1.757392 -1.12502,1.125344 -1.757407,2.651344 -1.757407,4.242608 0,1.591264 0.632377,3.11718 1.757407,4.242611 1.12534,1.125005 2.65134,1.757389 4.2426,1.757389 1.59126,0 3.11718,-0.632377 4.2426,-1.757389 C 21.36761,17.117265 22,15.591263 22,13.999999 21.998,12.409413 21.36529,10.88443 20.24022,9.759762 19.11547,8.634759 17.59049,8.002035 15.99999,8.000001 Z m 0,10.516039 v 3.41e-4 l -0.0114,0.05168 v 0 0 0 0 0 0 0 z"
       id="path74-6-60-4"
       style="fill:#d08770;fill-opacity:1;stroke-width:0.0847589"
       sodipodi:nodetypes="ccscsccccccccccccccc" />
    <path
       d="m 15.99999,11.000001 c -0.79559,0 -1.55858,0.31619 -2.1213,0.878697 -0.5625,0.562673 -0.8787,1.325667 -0.8787,2.121303 0,0.795636 0.31619,1.558594 0.8787,2.121304 0.56267,0.562503 1.32568,0.878696 2.1213,0.878696 0.79564,0 1.5586,-0.31619 2.1213,-0.878696 C 18.6838,15.558631 19,14.795636 19,14 18.99914,13.204706 18.68264,12.442216 18.12011,11.879885 17.55773,11.317383 16.79524,11.001018 15.99999,11.000001 Z m -0.006,5.28403 z"
       id="path74-6-3-3-6-8"
       style="fill:#1d212f;fill-opacity:1;stroke-width:0.0423793"
       sodipodi:nodetypes="ccscsccccccccccccc" />
    <path
       d="M 22.96362,4.000001 H 9.036062 C 7.700881,4.001501 6.420738,4.532575 5.476744,5.476776 4.532558,6.420789 4.001515,7.700877 3.99999,9.036071 v 13.92805 -1.89e-4 c 0.0015,1.335156 0.532568,2.615282 1.476754,3.559295 0.943994,0.944201 2.224137,1.475225 3.559318,1.476775 h 13.928038 -2e-4 c 1.33519,-0.0015 2.61533,-0.532574 3.55932,-1.476775 0.94419,-0.944013 1.47523,-2.224139 1.47676,-3.559295 V 9.036335 C 27.99798,7.701179 27.46741,6.421053 26.52322,5.477041 25.57923,4.532839 24.29909,4.001816 22.9639,4.000266 Z M 9.19999,6.000014 h 13.6 c 0.8871,0.0011 1.60376,0.04384 2.231,0.671244 0.62723,0.627213 0.9679,1.441663 0.969,2.328756 v 14.000013 h -20 V 9.000014 C 6.00109,8.112921 6.341765,7.298509 6.96899,6.671258 7.596191,6.044046 8.312906,6.00111 9.19999,6.000014 Z"
       id="path1193-2-1"
       style="fill:#d3dae3;fill-opacity:1;stroke-width:0.047619"
       sodipodi:nodetypes="ccccccccccccccccccccccccc" />
  </g>
  <g
     id="disk-quota-critical"
     transform="translate(96)">
    <rect
       style="opacity:0.00100002"
       width="32"
       height="32"
       x="0"
       y="0"
       id="rect64" />
    <path
       inkscape:connector-curvature="0"
       id="path9068-9-37-8-0-1-6"
       d="m 26,5.8 -20.2,5e-6 v 17.299996 h 20.4 z"
       style="display:inline;overflow:visible;visibility:visible;opacity:0.6;fill:url(#linearGradient15924);fill-opacity:1.0;fill-rule:nonzero;stroke:none;stroke-width:0.657517;marker:none"
       sodipodi:nodetypes="cccccc" />
    <path
       d="M 22.48045,20.999987 H 9.58266 c -0.46033,0 -0.83266,0.398817 -0.83266,0.888782 v 0.22322 c 0,0.4906 0.37252,0.887998 0.83266,0.887998 h 12.89779 c 0.45976,0 0.83246,-0.397387 0.83246,-0.887998 v -0.22322 c 0,-0.489579 -0.37271,-0.888782 -0.83246,-0.888782 z m -0.48045,2 H 10 v 0 0 z"
       id="path79-3-618-0"
       style="fill:#bf616a;fill-opacity:1;stroke-width:0.0506274"
       sodipodi:nodetypes="sssssssssccccccc" />
    <path
       d="m 16,7.999987 c -1.59117,0 -3.11718,0.632377 -4.2426,1.757392 -1.12502,1.125344 -1.75741,2.651344 -1.75741,4.242608 0,1.591264 0.63238,3.11718 1.75741,4.242611 1.12534,1.125005 2.65134,1.757389 4.2426,1.757389 1.59126,0 3.11718,-0.632377 4.2426,-1.757389 1.12502,-1.125347 1.75741,-2.651349 1.75741,-4.242613 C 21.99801,12.409399 21.3653,10.884416 20.24023,9.759748 19.11548,8.634745 17.5905,8.002021 16,7.999987 Z m 0,10.516039 v 3.41e-4 l -0.0114,0.05168 v 0 0 0 0 0 0 0 z"
       id="path74-6-79-3"
       style="fill:#bf616a;fill-opacity:1;stroke-width:0.0847589"
       sodipodi:nodetypes="ccscsccccccccccccccc" />
    <path
       d="m 16,10.999987 c -0.79559,0 -1.55858,0.31619 -2.1213,0.878697 C 13.3162,12.441357 13,13.204351 13,13.999987 c 0,0.795636 0.31619,1.558594 0.8787,2.121304 0.56267,0.562503 1.32568,0.878696 2.1213,0.878696 0.79564,0 1.5586,-0.31619 2.1213,-0.878696 0.56251,-0.562674 0.87871,-1.325669 0.87871,-2.121305 -8.6e-4,-0.795294 -0.31736,-1.557784 -0.87989,-2.120115 C 17.55774,11.317369 16.79525,11.001004 16,10.999987 Z m -0.006,5.28403 z"
       id="path74-6-3-3-20-0"
       style="fill:#1d212f;fill-opacity:1;stroke-width:0.0423793"
       sodipodi:nodetypes="ccscsccccccccccccc" />
    <path
       d="M 22.96363,3.999987 H 9.03607 C 7.70089,4.001487 6.42075,4.532561 5.47675,5.476762 4.53257,6.420775 4.00152,7.700863 4,9.036057 v 13.92805 -1.89e-4 c 0.001,1.335156 0.53257,2.615282 1.47675,3.559295 0.944,0.944201 2.22414,1.475225 3.55932,1.476775 h 13.92804 -2e-4 c 1.33519,-0.0015 2.61533,-0.532574 3.55932,-1.476775 0.94419,-0.944013 1.47523,-2.224139 1.47676,-3.559295 V 9.036321 C 27.99799,7.701165 27.46742,6.421039 26.52323,5.477027 25.57924,4.532825 24.2991,4.001802 22.96391,4.000252 Z M 9.2,6 h 13.6 c 0.88709,0.0011 1.60376,0.04384 2.231,0.671244 C 25.65823,7.298457 25.9989,8.112907 26,9 V 23.000013 H 6 V 9 C 6.001,8.112907 6.34177,7.298495 6.969,6.671244 7.5962,6.044032 8.31292,6.001096 9.2,6 Z"
       id="path1193-23-4"
       style="fill:#d3dae3;fill-opacity:1;stroke-width:0.047619"
       sodipodi:nodetypes="ccccccccccccccccccccccccc" />
  </g>
  <g
     id="disk-quota-missing"
     transform="translate(128)">
    <rect
       style="opacity:0.00100002"
       width="32"
       height="32"
       x="0"
       y="0"
       id="rect71" />
    <path
       inkscape:connector-curvature="0"
       id="path9068-9-37-8-0-1-56"
       d="M 26,9 C 26,7 25,6 23.076226,6 H 9 C 7,6 6,7 6,9 v 14 h 20 z"
       style="display:inline;overflow:visible;visibility:visible;opacity:0.6;fill:url(#linearGradient15947);fill-opacity:1.0;fill-rule:nonzero;stroke:none;stroke-width:0.657517;marker:none"
       sodipodi:nodetypes="ccccccc" />
    <path
       d="M 22.48045,21 H 9.58266 C 9.12233,21 8.75,21.398817 8.75,21.888782 v 0.22322 C 8.75,22.602602 9.12252,23 9.58266,23 h 12.89779 c 0.45976,0 0.83246,-0.397387 0.83246,-0.887998 v -0.22322 C 23.31291,21.399203 22.9402,21 22.48045,21 Z M 22,23 H 10 v 0 0 z"
       id="path79-3-7-6"
       style="fill:#d3dae3;fill-opacity:0.4;stroke-width:0.0506274"
       sodipodi:nodetypes="sssssssssccccccc" />
    <path
       d="M 16,8 C 14.40883,8 12.88282,8.632377 11.7574,9.757392 10.63238,10.882736 9.99999,12.408736 9.99999,14 c 0,1.591264 0.63238,3.11718 1.75741,4.242611 C 12.88274,19.367616 14.40874,20 16,20 c 1.59126,0 3.11718,-0.632377 4.2426,-1.757389 1.12502,-1.125347 1.75741,-2.651349 1.75741,-4.242613 C 21.99801,12.409412 21.3653,10.884429 20.24023,9.759761 19.11548,8.634758 17.5905,8.002034 16,8 Z m 0,10.516039 v 3.41e-4 l -0.0114,0.05168 v 0 0 0 0 0 0 0 z"
       id="path74-6-5-3"
       style="fill:#d3dae3;fill-opacity:0.4;stroke-width:0.0847589"
       sodipodi:nodetypes="ccscsccccccccccccccc" />
    <path
       d="m 16,11 c -0.79559,0 -1.55858,0.31619 -2.1213,0.878697 C 13.3162,12.44137 13,13.204364 13,14 c 0,0.795636 0.31619,1.558594 0.8787,2.121304 C 14.44137,16.683807 15.20438,17 16,17 c 0.79564,0 1.5586,-0.31619 2.1213,-0.878696 0.56251,-0.562674 0.87871,-1.325669 0.87871,-2.121305 -8.6e-4,-0.795294 -0.31736,-1.557784 -0.87989,-2.120115 C 17.55774,11.317382 16.79525,11.001017 16,11 Z m -0.006,5.28403 z"
       id="path74-6-3-3-9-1"
       style="fill:#1d212f;fill-opacity:0.4;stroke-width:0.0423793"
       sodipodi:nodetypes="ccscsccccccccccccc" />
    <path
       d="M 22.96363,4 H 9.03607 C 7.70089,4.0015 6.42075,4.532574 5.47675,5.476775 4.53257,6.420788 4.00152,7.700876 4,9.03607 v 13.92805 -1.89e-4 c 0.001,1.335156 0.53257,2.615282 1.47675,3.559295 0.944,0.944201 2.22414,1.475225 3.55932,1.476775 h 13.92804 -2e-4 c 1.33519,-0.0015 2.61533,-0.532574 3.55932,-1.476775 0.94419,-0.944013 1.47523,-2.224139 1.47676,-3.559295 V 9.036334 C 27.99799,7.701178 27.46742,6.421052 26.52323,5.47704 25.57924,4.532838 24.2991,4.001815 22.96391,4.000265 Z M 9,6 h 14 v 0 c 2,0 3,1 3,3.000013 V 23.000026 H 6 V 9 C 6,7 7,6 9,6 Z"
       id="path1193-22-7"
       style="fill:#d3dae3;fill-opacity:0.4;stroke-width:0.047619"
       sodipodi:nodetypes="ccccccccccccccccccccccccc" />
  </g>
  <g
     id="22-22-disk-quota"
     transform="translate(128,-22)">
    <rect
       style="opacity:0.00100002;fill:#d3dae3;fill-opacity:1"
       width="22"
       height="22"
       x="-128"
       y="0"
       id="rect4" />
    <path
       inkscape:connector-curvature="0"
       id="path9068-9-37-8-0-1-0-1-3-7-4-6-1"
       d="m -108.44075,2.7 -17.1185,5e-6 V 17.491 h 17.288 z"
       style="display:inline;overflow:visible;visibility:visible;opacity:0.6;fill:url(#linearGradient6958);fill-opacity:1.0;fill-rule:nonzero;stroke:none;stroke-width:0.55969;marker:none"
       sodipodi:nodetypes="cccccc" />
    <path
       d="m -113.00001,15.000085 h -8 c -0.3069,0 0,0 0,0 v 0 c -1,0 -1,2 0,2 h 8 c 1,0 1,-2 0,-2 z m 0.006,1.99364 -8.006,0.0064 -0.003,-0.0039 -4e-4,9.06e-4 8.0034,0.003 0.003,-0.0031 -0.003,0.0031 z"
       id="path79-3-8-2"
       style="fill:#ffffff;fill-opacity:1;stroke-width:0.0292304"
       sodipodi:nodetypes="cssccccccsccccc" />
    <path
       d="m -117.00001,6.000085 c -1.06078,0 -2.07812,0.421585 -2.8284,1.171595 -0.75001,0.750229 -1.1716,1.767562 -1.1716,2.828405 0,1.060843 0.42158,2.07812 1.1716,2.828407 0.75023,0.750004 1.76756,1.171593 2.8284,1.171593 1.06084,0 2.07812,-0.421585 2.8284,-1.171593 0.75001,-0.750231 1.17161,-1.767566 1.17161,-2.828408 -0.001,-1.060391 -0.42314,-2.077046 -1.17319,-2.826825 -0.74983,-0.750002 -1.76649,-1.171818 -2.82682,-1.173174 z m 0,7.010693 v 2.27e-4 l -0.008,0.03445 v 0 0 0 0 0 0 0 z"
       id="path74-6-6-1"
       style="fill:#d3dae3;fill-opacity:1;stroke-width:0.0565059"
       sodipodi:nodetypes="ccscsccccccccccccccc" />
    <path
       d="m -117.00001,8.000085 c -0.53039,0 -1.03906,0.210792 -1.4142,0.585797 -0.375,0.375115 -0.5858,0.88378 -0.5858,1.414202 0,0.530424 0.21079,1.039058 0.5858,1.414205 0.37511,0.375001 0.88378,0.585796 1.4142,0.585796 0.53042,0 1.03906,-0.210793 1.4142,-0.585796 0.375,-0.375117 0.5858,-0.883787 0.5858,-1.414205 -5.7e-4,-0.530196 -0.21157,-1.038523 -0.58659,-1.413413 -0.37492,-0.375001 -0.88325,-0.585909 -1.41341,-0.586586 z m 0,3.505348 v 1.15e-4 l -0.004,0.01722 v 0 0 0 0 0 0 0 z"
       id="path74-6-7-7-7"
       style="fill:#000000;fill-opacity:1;stroke-width:0.0282529"
       sodipodi:nodetypes="ccscsccccccccccccccc" />
    <path
       d="m -111.19699,0.999974 h -11.60627 c -1.11265,0.0015 -2.17946,0.443814 -2.96612,1.230648 -0.78685,0.786674 -1.22936,1.853414 -1.23062,2.966076 v 11.606709 -1.58e-4 c 8.6e-4,1.11263 0.44377,2.179402 1.23062,2.96608 0.78666,0.786835 1.85347,1.229354 2.96612,1.230646 h 11.6067 -1.9e-4 c 1.11265,-0.0012 2.17946,-0.443811 2.96611,-1.230645 0.78686,-0.786679 1.22937,-1.853451 1.23063,-2.966081 V 5.196921 c -0.002,-1.112635 -0.44377,-2.179402 -1.23063,-2.96608 -0.78665,-0.786833 -1.85346,-1.229358 -2.96611,-1.230642 z M -122.383,3 h 10.766 c 0.73924,0.0011 1.43628,-0.113833 1.959,0.409 0.52269,0.52268 0.6571,1.018408 0.658,1.757653 V 17 h -16 V 5.166653 c 8.5e-4,-0.739245 0.13532,-1.234937 0.658,-1.757653 0.52268,-0.522679 1.21978,-0.40809 1.959,-0.409 z"
       id="path1193-3-8"
       style="fill:#d3dae3;fill-opacity:1;stroke-width:0.0396829"
       sodipodi:nodetypes="ccccccccccccccccccccccccc" />
  </g>
  <g
     id="22-22-disk-quota-low"
     transform="translate(32,-22)">
    <rect
       style="opacity:0.00100002"
       width="22"
       height="22"
       x="0"
       y="0"
       id="rect11" />
    <path
       inkscape:connector-curvature="0"
       id="path9068-9-37-8-0-1-0-1-3-7-4-6-1-7"
       d="M 19.518508,2.704 2.4,2.704005 v 14.790996 h 17.288 z"
       style="display:inline;overflow:visible;visibility:visible;opacity:0.6;fill:url(#linearGradient6958-5);fill-opacity:1.0;fill-rule:nonzero;stroke:none;stroke-width:0.55969;marker:none"
       sodipodi:nodetypes="cccccc" />
    <path
       d="m 14.99999,15.000112 h -8 c -0.3069,0 0,0 0,0 v 0 c -1,0 -1,1.999998 0,1.999998 h 8 c 1,0 1,-1.999998 0,-1.999998 z m 0.006,1.993638 -8.006,0.0064 -0.003,-0.0039 -4e-4,9.06e-4 8.0034,0.003 0.0028,-0.0031 -0.0028,0.0031 z"
       id="path79-3-8-8-5"
       style="fill:#3daee9;fill-opacity:1;stroke-width:0.0292304"
       sodipodi:nodetypes="cssccccccsccccc" />
    <path
       d="m 10.99999,6.000111 c -1.06078,0 -2.07812,0.421585 -2.8284,1.171595 -0.75001,0.750229 -1.1716,1.767562 -1.1716,2.828405 0,1.060844 0.42158,2.078121 1.1716,2.828408 0.75023,0.750003 1.76756,1.171593 2.8284,1.171593 1.06084,0 2.07812,-0.421585 2.8284,-1.171593 C 14.5784,12.078287 15,11.060953 15,10.00011 14.999,8.939719 14.57686,7.923064 13.82681,7.173285 13.07698,6.423283 12.06032,6.001467 10.99999,6.000111 Z m 0,7.010694 v 2.27e-4 l -0.008,0.03445 v 0 0 0 0 0 0 0 z"
       id="path74-6-6-97-7"
       style="fill:#3daee9;fill-opacity:1;stroke-width:0.0565059"
       sodipodi:nodetypes="ccscsccccccccccccccc" />
    <path
       d="m 10.99999,8.000111 c -0.53039,0 -1.03906,0.210792 -1.4142,0.585797 -0.375,0.375115 -0.5858,0.88378 -0.5858,1.414202 0,0.530423 0.21079,1.039058 0.5858,1.414205 0.37511,0.375 0.88378,0.585796 1.4142,0.585796 0.53042,0 1.03906,-0.210793 1.4142,-0.585796 0.375,-0.375117 0.5858,-0.883787 0.5858,-1.414205 C 12.99942,9.469914 12.78842,8.961587 12.4134,8.586697 12.03848,8.211696 11.53015,8.000788 10.99999,8.000111 Z m 0,3.505349 v 1.14e-4 l -0.004,0.01722 v 0 0 0 0 0 0 0 z"
       id="path74-6-7-7-3-4"
       style="fill:#000000;fill-opacity:1;stroke-width:0.0282529"
       sodipodi:nodetypes="ccscsccccccccccccccc" />
    <path
       d="M 16.80301,1 H 5.19674 C 4.08409,1.0015 3.01728,1.443814 2.23062,2.230648 1.44377,3.017322 1.00126,4.084062 1,5.196724 v 11.606709 -1.59e-4 c 8.6e-4,1.11263 0.44377,2.179402 1.23062,2.966081 0.78666,0.786835 1.85347,1.229354 2.96612,1.230646 h 11.6067 -1.9e-4 c 1.11265,-0.0012 2.17946,-0.443811 2.96611,-1.230645 0.78686,-0.786679 1.22937,-1.853451 1.23063,-2.966081 V 5.196947 C 20.99799,4.084312 20.55622,3.017545 19.76936,2.230867 18.98271,1.444034 17.9159,1.001509 16.80325,1.000225 Z M 5.617,3.000026 h 10.766 c 0.73924,0.0011 1.43628,-0.113833 1.959,0.409 0.52269,0.52268 0.6571,1.018408 0.658,1.757653 V 17.000026 H 3 V 5.166679 C 3.00085,4.427434 3.13532,3.931742 3.658,3.409026 4.18068,2.886347 4.87778,3.000936 5.617,3.000026 Z"
       id="path1193-3-6-1"
       style="fill:#d3dae3;fill-opacity:1;stroke-width:0.0396829"
       sodipodi:nodetypes="ccccccccccccccccccccccccc" />
  </g>
</svg>
