<?xml version="1.0" encoding="UTF-8" standalone="no"?>
<svg
   id="svg3869"
   version="1.1"
   viewBox="0 0 22 22"
   sodipodi:docname="distribute.svg"
   inkscape:version="1.2.1 (9c6d41e410, 2022-07-14)"
   width="22"
   height="22"
   xmlns:inkscape="http://www.inkscape.org/namespaces/inkscape"
   xmlns:sodipodi="http://sodipodi.sourceforge.net/DTD/sodipodi-0.dtd"
   xmlns="http://www.w3.org/2000/svg"
   xmlns:svg="http://www.w3.org/2000/svg">
  <defs
     id="defs12" />
  <sodipodi:namedview
     id="namedview10"
     pagecolor="#ffffff"
     bordercolor="#666666"
     borderopacity="1.0"
     inkscape:pageshadow="2"
     inkscape:pageopacity="0.0"
     inkscape:pagecheckerboard="0"
     showgrid="false"
     inkscape:zoom="14.136364"
     inkscape:cx="0.42443729"
     inkscape:cy="10.151125"
     inkscape:window-width="1920"
     inkscape:window-height="1002"
     inkscape:window-x="0"
     inkscape:window-y="0"
     inkscape:window-maximized="1"
     inkscape:current-layer="svg3869"
     inkscape:showpageshadow="2"
     inkscape:deskcolor="#d1d1d1"
     inkscape:lockguides="true">
    <inkscape:grid
       type="xygrid"
       id="grid5639"
       originx="0"
       originy="1.85e-05" />
  </sodipodi:namedview>
  <style
     type="text/css"
     id="current-color-scheme" />
  <g
     id="distribute-horizontal-x"
     transform="translate(-326,-534.36218)">
    <path
       id="rect4178"
       d="m 326,534.36218 h 22 v 22 h -22 z"
       fill="none" />
    <path
       id="rect4109"
       d="m 329,542.3622 v 6 c 0,1 0.90997,1 0.90997,1 h 3.03207 c 0.058,0 1.05796,0 1.05796,-1 v -6 c 0,-1 -1.01236,-1 -1.01236,-1 h -2.99874 c 0,0 -0.9889,0 -0.9889,1 z m 11,0 v 6 c 0,0 0,1 0.99156,1 h 3.0598 c 0.94864,0 0.94864,-1 0.94864,-1 v -6 c 0,-1 -1.0296,-1 -1.0296,-1 h -3.02394 c 0,0 -0.94646,0 -0.94646,1 z m -5,1 v 4 h 1 v -1 h 2 v 1 h 1 v -4 h -1 v 1 h -2 v -1 z"
       class="ColorScheme-Text"
       style="fill:#d3dae3;fill-opacity:1"
       sodipodi:nodetypes="ccccccccccccccccccccccccccccccc" />
  </g>
  <g
     id="16-16-distribute-horizontal-x">
    <path
       id="rect4178-6"
       d="M -16,6.0000015 H 0 V 22.000002 h -16 z"
       fill="none"
       style="stroke-width:0.727273" />
    <path
       id="rect4109-3"
       d="m -15,11.000018 v 6 c 0,1 1,1 1,1 h 2 c 0,0 1,0 1,-1 v -6 c 0,-1 -1,-1 -1,-1 h -2 c 0,0 -1,0 -1,1 z m 10,0 v 6 c 0,0 0,1 1,1 h 2 c 1,0 1,-1 1,-1 v -6 c 0,-1 -1,-1 -1,-1 h -2 c 0,0 -1,0 -1,1 z m -5,1 v 4 h 1 v -1 h 2 v 1 h 1 v -4 l -1,0 v 1 h -2 l 0.025,-1 z"
       class="ColorScheme-Text"
       style="fill:#d3dae3;fill-opacity:1;stroke-width:0.935413"
       sodipodi:nodetypes="ccccccccccccccccccccccccccccccc" />
  </g>
</svg>
