<?xml version="1.0" encoding="UTF-8" standalone="no"?>
<svg
   id="svg"
   width="32"
   height="32"
   version="1.1"
   viewBox="0 0 32 32"
   sodipodi:docname="edit.svg"
   inkscape:version="1.2.1 (9c6d41e410, 2022-07-14)"
   xmlns:inkscape="http://www.inkscape.org/namespaces/inkscape"
   xmlns:sodipodi="http://sodipodi.sourceforge.net/DTD/sodipodi-0.dtd"
   xmlns="http://www.w3.org/2000/svg"
   xmlns:svg="http://www.w3.org/2000/svg"
   xmlns:rdf="http://www.w3.org/1999/02/22-rdf-syntax-ns#"
   xmlns:cc="http://creativecommons.org/ns#"
   xmlns:dc="http://purl.org/dc/elements/1.1/">
  <metadata
     id="metadata60">
    <rdf:RDF>
      <cc:Work
         rdf:about="">
        <dc:format>image/svg+xml</dc:format>
        <dc:type
           rdf:resource="http://purl.org/dc/dcmitype/StillImage" />
      </cc:Work>
    </rdf:RDF>
  </metadata>
  <sodipodi:namedview
     pagecolor="#ffffff"
     bordercolor="#666666"
     borderopacity="1"
     objecttolerance="10"
     gridtolerance="10"
     guidetolerance="10"
     inkscape:pageopacity="0"
     inkscape:pageshadow="2"
     inkscape:window-width="1920"
     inkscape:window-height="1002"
     id="namedview58"
     showgrid="false"
     inkscape:zoom="10.429825"
     inkscape:cx="22.819175"
     inkscape:cy="22.291841"
     inkscape:window-x="0"
     inkscape:window-y="0"
     inkscape:window-maximized="1"
     inkscape:current-layer="svg"
     inkscape:lockguides="false"
     inkscape:document-rotation="0"
     inkscape:pagecheckerboard="0"
     inkscape:showpageshadow="2"
     inkscape:deskcolor="#d1d1d1">
    <inkscape:grid
       type="xygrid"
       id="grid834" />
  </sodipodi:namedview>
  <defs
     id="defs4">
    <linearGradient
       id="linearGradient5606"
       inkscape:swatch="solid">
      <stop
         id="stop5608"
         offset="0"
         style="stop-color:#000000" />
    </linearGradient>
  </defs>
  <rect
     style="fill:#d3dae3;fill-opacity:0"
     width="22"
     height="22"
     x="-38.33"
     y="13.77"
     id="rect16" />
  <g
     id="16-16-edit-delete"
     transform="translate(32,10)">
    <rect
       style="opacity:0.00100002"
       width="22"
       height="22"
       x="0"
       y="0"
       id="rect18" />
    <g
       style="fill:#ffffff"
       transform="matrix(1.7493122,0,0,1.7499488,-107.95048,-909.47286)"
       id="g24">
      <g
         style="fill:#ffffff"
         transform="translate(19,-242)"
         id="g22">
        <path
           style="fill:#d3dae3;fill-opacity:1"
           d="m 45.571203,764.57141 h 0.857142 c 0.0089,-1.1e-4 0.01782,-4e-4 0.02679,0 0.21853,0.01 0.437032,0.11021 0.589286,0.26785 l 1.955357,1.95536 1.982143,-1.95536 c 0.227678,-0.19757 0.382861,-0.26185 0.589285,-0.26785 h 0.857143 v 0.85714 c 0,0.24555 -0.02943,0.47199 -0.214285,0.64286 l -1.955357,1.95535 1.928571,1.92858 c 0.161304,0.16128 0.241064,0.38867 0.241071,0.61607 v 0.85714 h -0.857143 c -0.2274,-10e-6 -0.454788,-0.0798 -0.616071,-0.24107 l -1.955357,-1.95536 -1.955357,1.95536 c -0.161288,0.1613 -0.388684,0.24107 -0.616076,0.24107 h -0.857142 v -0.85714 c -3e-6,-0.22739 0.07977,-0.45479 0.241071,-0.61607 l 1.955357,-1.92858 -1.955357,-1.95535 c -0.180636,-0.16683 -0.259851,-0.40222 -0.241071,-0.64286 z"
           id="path20" />
      </g>
    </g>
  </g>
  <g
     id="22-22-edit-delete"
     transform="translate(54,32)">
    <rect
       style="opacity:0.00100002;stroke-width:1.375"
       width="22"
       height="22"
       x="0"
       y="-22"
       id="rect27" />
    <g
       style="fill:#ffffff"
       transform="matrix(1.2495087,0,0,1.2499635,-76.964626,-665.48065)"
       id="g33">
      <g
         style="fill:#ffffff"
         transform="translate(19,-242)"
         id="g31">
        <path
           style="fill:#d3dae3;fill-opacity:1;stroke-width:1.50001"
           d="m 46.761389,760.87988 h 1.200009 c 0.0123,-1.1e-4 0.02503,-4.1e-4 0.03742,0 0.305929,0.009 0.611856,0.15442 0.825005,0.37516 l 2.737526,2.73747 2.775023,-2.73747 c 0.31875,-0.27676 0.535993,-0.36676 0.825006,-0.37516 h 1.200007 v 1.20001 c 0,0.34364 -0.0411,0.66088 -0.300001,0.90002 l -2.737529,2.73741 2.700018,2.70003 c 0.225831,0.22577 0.337501,0.54431 0.337512,0.8626 v 1.2 h -1.200003 c -0.318365,-10e-6 -0.636708,-0.11119 -0.862518,-0.3374 l -2.737511,-2.73748 -2.737528,2.73748 c -0.225807,0.22575 -0.544165,0.3374 -0.86252,0.3374 h -1.199986 v -1.2 c -3e-6,-0.31827 0.111663,-0.63683 0.33752,-0.8626 l 2.737527,-2.70003 -2.737527,-2.73741 c -0.25288,-0.23366 -0.363808,-0.56303 -0.33752,-0.90002 z"
           id="path29"
           inkscape:connector-curvature="0" />
      </g>
    </g>
  </g>
  <g
     id="edit-delete">
    <rect
       width="32"
       height="32"
       x="0"
       y="0"
       style="opacity:0.00100002"
       id="rect36" />
    <g
       style="opacity:0.2"
       transform="matrix(1.7493122,0,0,1.7499488,-102.95048,-903.47286)"
       id="g46">
      <g
         transform="translate(19,-242)"
         id="g44" />
    </g>
    <g
       transform="matrix(1.7493122,0,0,1.7499488,-102.95048,-904.47286)"
       style="fill:#ffffff"
       id="g52">
      <g
         transform="translate(19,-242)"
         style="fill:#ffffff"
         id="g50">
        <path
           d="m 44.428824,763.42852 h 1.142856 c 0.0122,-1.1e-4 0.02382,-4e-4 0.0357,0 0.291372,0.014 0.582715,0.14701 0.785713,0.35717 l 2.607155,2.60726 2.642874,-2.60726 c 0.303564,-0.26331 0.510479,-0.34917 0.785719,-0.35717 h 1.142861 v 1.14286 c 0,0.32744 -0.03929,0.62947 -0.285712,0.85716 l -2.607163,2.60725 2.571447,2.57149 c 0.215074,0.21492 0.321418,0.51819 0.321428,0.8213 v 1.14286 h -1.142865 c -0.303202,-1e-5 -0.60639,-0.10663 -0.821435,-0.32131 l -2.607158,-2.60725 -2.607155,2.60725 c -0.21506,0.21503 -0.518255,0.32131 -0.821439,0.32131 h -1.142855 v -1.14286 c -3e-6,-0.3031 0.10637,-0.60638 0.321433,-0.8213 l 2.607156,-2.57149 -2.607156,-2.60725 c -0.240849,-0.22243 -0.346464,-0.53623 -0.321433,-0.85716 z"
           style="fill:#d3dae3;fill-opacity:1;stroke-width:1.33332"
           id="path48" />
      </g>
    </g>
  </g>
</svg>
