<?xml version="1.0" encoding="UTF-8" standalone="no"?>
<svg
   width="32"
   height="32"
   version="1.1"
   id="svg14"
   sodipodi:docname="face.svg"
   inkscape:version="1.2.2 (b0a8486541, 2022-12-01)"
   xmlns:inkscape="http://www.inkscape.org/namespaces/inkscape"
   xmlns:sodipodi="http://sodipodi.sourceforge.net/DTD/sodipodi-0.dtd"
   xmlns:xlink="http://www.w3.org/1999/xlink"
   xmlns="http://www.w3.org/2000/svg"
   xmlns:svg="http://www.w3.org/2000/svg">
  <sodipodi:namedview
     id="namedview16"
     pagecolor="#ffffff"
     bordercolor="#000000"
     borderopacity="1"
     inkscape:showpageshadow="2"
     inkscape:pageopacity="0"
     inkscape:pagecheckerboard="0"
     inkscape:deskcolor="#cccccc"
     showgrid="false"
     inkscape:zoom="5.6568543"
     inkscape:cx="22.185475"
     inkscape:cy="24.130019"
     inkscape:window-width="1920"
     inkscape:window-height="994"
     inkscape:window-x="0"
     inkscape:window-y="0"
     inkscape:window-maximized="1"
     inkscape:current-layer="svg14">
    <inkscape:grid
       type="xygrid"
       id="grid191"
       originx="0"
       originy="0" />
  </sodipodi:namedview>
  <defs
     id="defs3942">
    <linearGradient
       inkscape:collect="always"
       id="linearGradient400">
      <stop
         style="stop-color:#ff66ff;stop-opacity:1;"
         offset="0"
         id="stop396" />
      <stop
         style="stop-color:#ffb380;stop-opacity:1"
         offset="1"
         id="stop398" />
    </linearGradient>
    <style
       id="current-color-scheme"
       type="text/css">
   .ColorScheme-Background {color:#181818; } .ColorScheme-ButtonBackground { color:#343434; } .ColorScheme-Highlight { color:#4285f4; } .ColorScheme-Text { color:#dfdfdf; } .ColorScheme-ViewBackground { color:#242424; } .ColorScheme-NegativeText { color:#f44336; } .ColorScheme-PositiveText { color:#4caf50; } .ColorScheme-NeutralText { color:#ff9800; }
  </style>
    <linearGradient
       inkscape:collect="always"
       xlink:href="#linearGradient400"
       id="linearGradient5058"
       x1="148.9608"
       y1="596.36218"
       x2="148.9608"
       y2="636.12817"
       gradientUnits="userSpaceOnUse"
       gradientTransform="matrix(0.50999969,0,0,0.42750131,-58.969958,-248.94562)" />
    <linearGradient
       inkscape:collect="always"
       xlink:href="#linearGradient400"
       id="linearGradient6958"
       gradientUnits="userSpaceOnUse"
       gradientTransform="matrix(0.43219982,0,0,0.36977632,-20.548369,-207.9207)"
       x1="147.0347"
       y1="597.44415"
       x2="147.0347"
       y2="635.30487" />
  </defs>
  <g
     id="face-laughing">
    <rect
       style="opacity:0.00100002"
       width="32"
       height="32"
       x="0"
       y="0"
       id="rect9" />
    <path
       inkscape:connector-curvature="0"
       id="path9068-9-37-8-0-1"
       d="m 26,6 -20.2,5e-6 V 23.1 h 20.400001 z"
       style="display:inline;overflow:visible;visibility:visible;opacity:0.6;fill:url(#linearGradient5058);fill-opacity:1;fill-rule:nonzero;stroke:none;stroke-width:0.653705;marker:none"
       sodipodi:nodetypes="cccccc" />
    <path
       d="M 22.963626,4 H 9.036072 C 7.700891,4.0015 6.420748,4.532574 5.476754,5.476775 4.532568,6.420788 4.001525,7.700876 4,9.03607 v 13.92805 -1.89e-4 c 0.0015,1.335156 0.532568,2.615282 1.476754,3.559295 0.943994,0.944201 2.224137,1.475225 3.559318,1.476775 h 13.928036 -1.94e-4 c 1.335183,-0.0015 2.615324,-0.532574 3.559318,-1.476775 0.944187,-0.944013 1.475231,-2.224139 1.476755,-3.559295 V 9.036335 C 27.998186,7.701178 27.467419,6.421052 26.523232,5.47704 25.579238,4.532838 24.299097,4.001815 22.963912,4.000265 Z M 9.2,6.000013 h 13.6 c 0.887095,0.0011 1.603761,0.04384 2.231,0.671244 C 25.658232,7.29847 25.998901,8.11292 26,9.000013 V 23.000026 H 6 V 9.000013 C 6.0011,8.11292 6.341775,7.298508 6.969,6.671257 7.596201,6.044045 8.312916,6.001109 9.2,6.000013 Z"
       id="path1193-37"
       style="fill:#d3dae3;fill-opacity:1;stroke-width:0.047619"
       sodipodi:nodetypes="ccccccccccccccccccccccccc" />
    <path
       d="m 15.99995,18.499993 c -1.170718,0.0022 -2.295775,-0.442041 -3.133958,-1.237653 -0.107211,-0.09511 -0.17027,-0.228502 -0.174642,-0.369637 -0.0046,-0.141153 0.05021,-0.278037 0.151344,-0.379301 0.10105,-0.101264 0.240097,-0.158269 0.385188,-0.157996 0.14509,3.46e-4 0.283841,0.05792 0.384554,0.159473 0.640083,0.604401 1.496689,0.942399 2.388359,0.942399 0.891703,0 1.748307,-0.337998 2.38835,-0.942399 0.09972,-0.105687 0.239815,-0.166777 0.38732,-0.168698 0.147404,-0.0021 0.289187,0.05527 0.391883,0.15836 0.102725,0.103031 0.15714,0.24275 0.150633,0.386153 -0.0067,0.143407 -0.07358,0.277846 -0.185184,0.371638 -0.838039,0.795943 -1.963145,1.240253 -3.133964,1.237654 z m -4.035673,-5.070524 c 0,0.511742 -0.208844,1.002555 -0.580531,1.36436 -0.371788,0.361918 -0.875893,0.565103 -1.401605,0.565103 -0.5257248,0 -1.0298343,-0.203203 -1.4016065,-0.565103 C 8.208827,14.432008 8.000001,13.941211 8.000001,13.429469 c 0,-0.511664 0.208836,-1.002468 0.5805335,-1.364277 0.3717874,-0.361914 0.8758817,-0.565191 1.4016065,-0.565191 0.525712,0 1.029836,0.203284 1.401605,0.565191 0.371707,0.361823 0.580531,0.852613 0.580531,1.364277 z m 12.035724,0 c 0,0.511742 -0.208842,1.002555 -0.580529,1.36436 -0.371799,0.361918 -0.875895,0.565103 -1.401603,0.565103 -0.525725,0 -1.029837,-0.203203 -1.401609,-0.565103 -0.371709,-0.361821 -0.580535,-0.852618 -0.580535,-1.364275 0,-0.511749 0.208839,-1.002553 0.580535,-1.364362 0.371787,-0.361914 0.875884,-0.565191 1.401609,-0.565191 0.525708,0 1.029829,0.203284 1.401603,0.565191 0.371705,0.361823 0.580529,0.852613 0.580529,1.364277 z"
       id="path4884"
       style="fill:#d3dae3;fill-opacity:1;stroke-width:0.0225508" />
  </g>
  <g
     id="22-22-face-laughing">
    <rect
       style="opacity:0.00100002"
       width="22"
       height="22"
       x="32"
       y="10.000001"
       id="rect4" />
    <path
       inkscape:connector-curvature="0"
       id="path9068-9-37-8-0-1-0-1-3-7-4-6-1"
       d="m 51.459511,12.600001 -17.11851,5e-6 v 14.790996 h 17.288 z"
       style="display:inline;overflow:visible;visibility:visible;opacity:0.6;fill:url(#linearGradient6958);fill-opacity:1.0;fill-rule:nonzero;stroke:none;stroke-width:0.55969;marker:none"
       sodipodi:nodetypes="cccccc" />
    <path
       d="m 48.803021,11.000001 h -11.60629 c -1.11265,0.0012 -2.17944,0.443811 -2.9661,1.230645 -0.78682,0.786678 -1.22936,1.853418 -1.23063,2.966079 v 11.606709 -1.58e-4 c 0.001,1.11263 0.44381,2.179405 1.23063,2.966075 0.78666,0.78684 1.85345,1.22936 2.9661,1.23065 h 11.60669 -1.6e-4 c 1.11265,-0.001 2.17944,-0.44381 2.9661,-1.23065 0.78682,-0.78667 1.22936,-1.853445 1.23063,-2.966075 V 15.196945 c -0.002,-1.11263 -0.44381,-2.179402 -1.23063,-2.966078 -0.78666,-0.786835 -1.85345,-1.229354 -2.9661,-1.230646 z m -11.17002,2 h 10.734 c 0.73924,9.16e-4 1.5363,0.0032 2.059,0.526 0.52269,0.522677 0.57308,0.901432 0.574,1.640677 v 11.833323 h -16 V 15.166678 c 9.2e-4,-0.739245 0.0513,-1.117968 0.574,-1.640677 0.52267,-0.522677 1.31976,-0.525087 2.059,-0.526 z"
       id="path1193-3-7-2-2-4"
       style="fill:#d3dae3;fill-opacity:1;stroke-width:0.0396825"
       sodipodi:nodetypes="ccccccccccccccccccccccccc" />
    <path
       d="m 42.999963,23.499994 c -0.951211,0.0019 -1.865322,-0.37889 -2.546344,-1.060841 -0.08712,-0.08151 -0.138341,-0.195862 -0.141895,-0.316842 -0.0036,-0.12098 0.04079,-0.238317 0.122965,-0.325108 0.08212,-0.0868 0.195078,-0.135657 0.31297,-0.135425 0.117883,2.96e-4 0.230615,0.04964 0.312446,0.136695 0.520071,0.518054 1.216062,0.807765 1.94054,0.807765 0.72451,0 1.420501,-0.289711 1.940537,-0.807765 0.081,-0.0906 0.194851,-0.14296 0.314696,-0.144603 0.119769,-0.0018 0.234966,0.04737 0.318408,0.135737 0.08344,0.08832 0.127675,0.208072 0.122385,0.33099 -0.0053,0.122912 -0.0598,0.238156 -0.150462,0.318548 -0.680909,0.68223 -1.595052,1.063072 -2.546342,1.060842 z m -3.278991,-4.346166 c 0,0.438643 -0.169678,0.859336 -0.471678,1.169451 -0.302082,0.310218 -0.711659,0.484374 -1.138806,0.484374 -0.427149,0 -0.836741,-0.174172 -1.138804,-0.484374 -0.302013,-0.310132 -0.471683,-0.730808 -0.471683,-1.169451 0,-0.438564 0.169681,-0.859258 0.471683,-1.169375 0.302079,-0.310216 0.711655,-0.484452 1.138804,-0.484452 0.427147,0 0.836741,0.174244 1.138806,0.484452 0.302009,0.310132 0.471678,0.730811 0.471678,1.169375 z m 9.779029,0 c 0,0.438643 -0.169681,0.859336 -0.471681,1.169451 -0.302083,0.310218 -0.71166,0.484374 -1.138802,0.484374 -0.427149,0 -0.836744,-0.174172 -1.138805,-0.484374 -0.302014,-0.310132 -0.471686,-0.730808 -0.471686,-1.169375 0,-0.43864 0.169686,-0.859334 0.471686,-1.169451 0.302077,-0.310216 0.711656,-0.484452 1.138805,-0.484452 0.427142,0 0.836737,0.174244 1.138802,0.484452 0.302013,0.310132 0.471681,0.730811 0.471681,1.169375 z"
       id="path4884-9"
       style="fill:#d3dae3;fill-opacity:1;stroke-width:0.0188196" />
  </g>
</svg>
