<?xml version="1.0" encoding="UTF-8" standalone="no"?>
<svg
   viewBox="0 0 32 32"
   id="svg2"
   version="1.1"
   sodipodi:docname="flight.svg"
   inkscape:version="1.2.2 (b0a8486541, 2022-12-01)"
   width="32"
   height="32"
   xmlns:inkscape="http://www.inkscape.org/namespaces/inkscape"
   xmlns:sodipodi="http://sodipodi.sourceforge.net/DTD/sodipodi-0.dtd"
   xmlns:xlink="http://www.w3.org/1999/xlink"
   xmlns="http://www.w3.org/2000/svg"
   xmlns:svg="http://www.w3.org/2000/svg"
   xmlns:rdf="http://www.w3.org/1999/02/22-rdf-syntax-ns#"
   xmlns:cc="http://creativecommons.org/ns#"
   xmlns:dc="http://purl.org/dc/elements/1.1/">
  <sodipodi:namedview
     pagecolor="#ffffff"
     bordercolor="#000000"
     borderopacity="1"
     objecttolerance="10"
     gridtolerance="10"
     guidetolerance="10"
     inkscape:pageopacity="0"
     inkscape:pageshadow="2"
     inkscape:window-width="1920"
     inkscape:window-height="994"
     id="namedview17"
     showgrid="true"
     inkscape:zoom="15.999999"
     inkscape:cx="11.906251"
     inkscape:cy="20.000001"
     inkscape:window-x="0"
     inkscape:window-y="0"
     inkscape:window-maximized="1"
     inkscape:current-layer="svg2"
     inkscape:lockguides="true"
     inkscape:document-rotation="0"
     inkscape:showpageshadow="true"
     inkscape:pagecheckerboard="0"
     inkscape:deskcolor="#d1d1d1">
    <inkscape:grid
       type="xygrid"
       id="grid842"
       originx="-22"
       originy="0" />
  </sodipodi:namedview>
  <metadata
     id="metadata21">
    <rdf:RDF>
      <cc:Work
         rdf:about="">
        <dc:format>image/svg+xml</dc:format>
        <dc:type
           rdf:resource="http://purl.org/dc/dcmitype/StillImage" />
      </cc:Work>
    </rdf:RDF>
  </metadata>
  <defs
     id="defs3051">
    <linearGradient
       inkscape:collect="always"
       id="linearGradient1503">
      <stop
         style="stop-color:#d3dae3;stop-opacity:1;"
         offset="0"
         id="stop1499" />
      <stop
         style="stop-color:#5599ff;stop-opacity:1"
         offset="1"
         id="stop1501" />
    </linearGradient>
    <style
       type="text/css"
       id="current-color-scheme">
      .ColorScheme-Text {
        color:#31363b;
      }
      </style>
    <radialGradient
       cx="12.00001"
       cy="11.987168"
       r="9.5000095"
       fx="12.00001"
       fy="11.987168"
       id="radialGradient3937-6-3-1"
       xlink:href="#linearGradient2916"
       gradientUnits="userSpaceOnUse"
       gradientTransform="matrix(1.8311833,0,0,1.8352211,-5.9743007,-7.4222)" />
    <linearGradient
       id="linearGradient2916">
      <stop
         id="stop2918"
         style="stop-color:#ffffff;stop-opacity:1"
         offset="0" />
      <stop
         id="stop2920"
         style="stop-color:#ffffff;stop-opacity:0"
         offset="1" />
    </linearGradient>
    <linearGradient
       inkscape:collect="always"
       xlink:href="#linearGradient1503"
       id="linearGradient1505"
       x1="6"
       y1="29"
       x2="26"
       y2="3"
       gradientUnits="userSpaceOnUse" />
  </defs>
  <g
     id="flight">
    <rect
       width="32"
       height="32"
       x="0"
       y="0.086682618"
       id="rect5017"
       style="opacity:0;fill:#000000;fill-opacity:0.392157;stroke:none;stroke-width:1.33333" />
    <path
       d="m 6,18.757454 c 0.1706185,-3.264308 1.758374,-6.146346 5.117762,-8.010591 4.677469,-2.595775 9.39705,-5.124082 14.095415,-7.6865331 0.194344,-0.1059809 0.250961,-0.075538 0.330106,0.116831 1.131979,2.7519411 0.04392,5.6601521 -1.990682,7.3673571 -0.176946,0.148509 -0.376907,0.266879 -0.582107,0.378515 -2.445316,1.32987 -4.89009,2.660617 -7.33415,3.99244 -0.349254,0.190314 -0.524182,0.505682 -0.469692,0.827531 0.05958,0.352034 0.361255,0.643699 0.732979,0.70736 0.239946,0.04108 0.443616,-0.05122 0.642108,-0.159202 2.397754,-1.304572 4.795398,-2.609245 7.192988,-3.913972 0.228,-0.124085 0.459817,-0.242454 0.682143,-0.374967 0.128349,-0.07652 0.18349,-0.04973 0.233781,0.07837 0.350836,0.893711 0.53836,1.813133 0.468544,2.767573 -0.153117,2.09184 -1.120742,3.779761 -2.939116,4.981231 -0.873923,0.577468 -1.840466,1.030441 -2.76588,1.538437 -0.415744,0.228262 -0.821504,0.476475 -1.252849,0.675015 -0.97914,0.45066 -1.453904,1.243276 -1.670447,2.189078 -0.447926,1.95629 1.195685,3.829176 3.319678,3.812053 0.117266,-9.81e-4 0.234434,-0.01991 0.351489,-0.03214 0.104348,-0.01089 0.185943,0.02818 0.213053,0.120022 0.02559,0.0866 -0.03828,0.147794 -0.120384,0.176787 -0.271254,0.09579 -0.540598,0.198643 -0.817414,0.277781 C 14.002546,30.139986 8.114006,27.175724 6.4617765,22.056168 6.153,21.099306 6.024163,20.116893 6,18.757454"
       id="path2"
       style="fill:url(#linearGradient1505);fill-opacity:1;stroke-width:0.0759237" />
  </g>
</svg>
