<?xml version="1.0" encoding="UTF-8" standalone="no"?>
<svg
   viewBox="0 0 32 32"
   id="svg"
   version="1.1"
   width="32"
   height="32"
   sodipodi:docname="go.svg"
   inkscape:version="1.2.1 (9c6d41e410, 2022-07-14)"
   xmlns:inkscape="http://www.inkscape.org/namespaces/inkscape"
   xmlns:sodipodi="http://sodipodi.sourceforge.net/DTD/sodipodi-0.dtd"
   xmlns:xlink="http://www.w3.org/1999/xlink"
   xmlns="http://www.w3.org/2000/svg"
   xmlns:svg="http://www.w3.org/2000/svg"
   xmlns:rdf="http://www.w3.org/1999/02/22-rdf-syntax-ns#"
   xmlns:cc="http://creativecommons.org/ns#"
   xmlns:dc="http://purl.org/dc/elements/1.1/">
  <g
     id="go-home">
    <rect
       id="rect11"
       style="opacity:0.00100002;enable-background:new"
       y="0"
       x="0"
       height="32"
       width="32" />
    <rect
       y="4.0000029"
       x="3.9999988"
       height="24"
       width="24"
       id="rect2996-7"
       style="opacity:0.01;fill:#d6dbf1;fill-opacity:1;stroke:none;stroke-width:1" />
    <path
       inkscape:connector-curvature="0"
       id="path9068-9-37-8-0-1-5"
       d="m 26.099998,5.832003 -20.2000038,7e-6 V 23.132 L 26.099998,22.982001 Z"
       style="display:inline;overflow:visible;visibility:visible;opacity:0.6;fill:url(#linearGradient986);fill-opacity:1;fill-rule:nonzero;stroke:none;stroke-width:0.657512;marker:none;enable-background:new"
       sodipodi:nodetypes="ccccc" />
    <path
       d="M 22.963621,4 H 9.0360682 c -1.335173,0.0018 -2.615312,0.532576 -3.559308,1.476781 -0.944192,0.944001 -1.475231,2.224098 -1.476761,3.559283 v 13.928052 -1.82e-4 c 0.0018,1.335152 0.532569,2.615282 1.476761,3.559292 0.943996,0.944202 2.224135,1.47522 3.559308,1.476773 h 13.9280338 -1.91e-4 c 1.335187,-0.0016 2.61532,-0.532571 3.559324,-1.476773 0.944187,-0.94401 1.475229,-2.22414 1.476754,-3.559292 V 9.036333 C 27.998189,7.701169 27.467422,6.42105 26.523235,5.477043 25.579231,4.532842 24.299098,4.001805 22.96391,4.000269 Z M 9.1999982,6.000019 H 22.799998 c 0.887099,0.0013 1.603763,0.04387 2.230994,0.671242 C 25.658233,7.298464 25.998895,8.112923 26,9.000018 V 23.000026 H 6.0000022 V 9.000018 c 0.0013,-0.887095 0.341778,-1.701516 0.968993,-2.328757 0.627209,-0.627224 1.343924,-0.670155 2.231003,-0.671242 z"
       id="path1193-36-3"
       style="fill:#d3dae3;fill-opacity:1;stroke-width:0.0476193;enable-background:new"
       sodipodi:nodetypes="ccccccccccccccccccccccccc" />
    <path
       d="M 24.006483,14.063636 16.409087,6.466234 c -0.23376,-0.233767 -0.584411,-0.233767 -0.818172,0 l -7.5974098,7.597402 c -0.233766,0.233765 -0.233766,0.584415 0,0.818181 0.233764,0.233765 0.584416,0.233765 0.818182,0 l -0.08441,-0.175324 v 6.129866 c 0,0.993507 0.824671,1.818186 1.8181818,1.818186 h 10.909088 c 0.90909,0 1.860246,-0.825571 1.818184,-1.818186 v -6.129866 l -0.08441,0.175324 c -0.143409,0.297867 0.584408,0.233765 0.818176,0 0.233763,-0.233765 0.233763,-0.584416 -1e-6,-0.818181 z m -9.824667,7.681821 v -3.181822 c 0,-0.99351 0.82468,-2.026368 1.81818,-2.026368 0.993513,0 1.838457,1.033065 1.818191,2.026368 v 3.181822 z m 8.181818,-0.844159 c 0,0.844159 -0.558439,0.844159 -0.909089,0.844159 h -2.727272 v -3.181822 c 0,-1.363638 -1.090903,-2.830908 -2.727277,-2.830908 -1.636365,0 -2.727271,1.46727 -2.727271,2.830908 v 3.181822 h -2.727267 c -0.194807,0 -0.9090908,0 -0.9090908,-0.844159 v -7.363635 l 6.3636288,-6.337664 6.363638,6.337664 z"
       id="path2-3-5"
       style="fill:#d3dae3;fill-opacity:1;stroke-width:0.033395"
       sodipodi:nodetypes="ccccsccsssscssccsssccsscssscsccccss" />
  </g>
  <sodipodi:namedview
     pagecolor="#ffffff"
     bordercolor="#666666"
     borderopacity="1"
     objecttolerance="10"
     gridtolerance="10"
     guidetolerance="10"
     inkscape:pageopacity="0"
     inkscape:pageshadow="2"
     inkscape:window-width="1920"
     inkscape:window-height="1008"
     id="namedview21"
     showgrid="false"
     inkscape:zoom="5.3636364"
     inkscape:cx="65.440678"
     inkscape:cy="24.330508"
     inkscape:window-x="0"
     inkscape:window-y="0"
     inkscape:window-maximized="1"
     inkscape:current-layer="svg"
     inkscape:document-rotation="0"
     inkscape:pagecheckerboard="0"
     inkscape:showpageshadow="2"
     inkscape:deskcolor="#d1d1d1"
     inkscape:lockguides="false">
    <inkscape:grid
       type="xygrid"
       id="grid853"
       originx="9.9999999"
       originy="4.9" />
  </sodipodi:namedview>
  <defs
     id="defs81">
    <style
       id="current-color-scheme"
       type="text/css" />
    <linearGradient
       inkscape:collect="always"
       id="linearGradient11400">
      <stop
         style="stop-color:#5581aa;stop-opacity:1;"
         offset="0"
         id="stop11396" />
      <stop
         style="stop-color:#6db2c5;stop-opacity:1;"
         offset="1"
         id="stop11398" />
    </linearGradient>
    <linearGradient
       inkscape:collect="always"
       xlink:href="#linearGradient11400"
       id="linearGradient986"
       gradientUnits="userSpaceOnUse"
       gradientTransform="matrix(0.50999971,0,0,0.43250135,-58.869973,-252.09551)"
       x1="148.9608"
       y1="596.70898"
       x2="148.9608"
       y2="636.01526" />
  </defs>
  <metadata
     id="metadata34">
    <rdf:RDF>
      <cc:Work
         rdf:about="">
        <dc:format>image/svg+xml</dc:format>
        <dc:type
           rdf:resource="http://purl.org/dc/dcmitype/StillImage" />
      </cc:Work>
    </rdf:RDF>
  </metadata>
  <g
     id="go-down"
     transform="matrix(0.91666667,0,0,0.91666667,-20.083333,4.9)"
     style="fill:#d3dae3;fill-opacity:1">
    <rect
       style="opacity:0.01;fill:#d3dae3;fill-opacity:1;stroke:none"
       id="rect3098"
       width="24"
       height="24"
       x="155"
       y="0" />
    <path
       id="rect4176-9"
       d="M 157.88379,7.0278788 157,7.9116678 164.65625,15.567917 167,17.911667 169.34375,15.567917 177,7.9116678 176.11621,7.0278788 168.45996,14.684129 167,16.14409 165.54004,14.684129 Z"
       style="fill:#d3dae3;fill-opacity:1;stroke:none"
       class="ColorScheme-Text" />
  </g>
  <g
     id="go-next"
     transform="matrix(0.91666667,0,0,0.91666667,-7.3333327,4.9)"
     style="fill:#d3dae3;fill-opacity:1">
    <rect
       style="opacity:0.01;fill:#d3dae3;fill-opacity:1;stroke:none"
       id="rect3094"
       width="24"
       height="24"
       x="80"
       y="0" />
    <path
       id="rect4176-6"
       d="m 88.948831,1.9488962 -0.888311,0.8883112 7.695425,7.6954246 1.467431,1.467432 -1.467431,1.467431 -7.695425,7.695425 0.888311,0.888311 7.695425,-7.695425 L 99,12.000064 96.644256,9.6443212 Z"
       style="fill:#d3dae3;fill-opacity:1;stroke:none"
       class="ColorScheme-Text" />
  </g>
  <g
     id="go-previous"
     transform="matrix(0.91666667,0,0,0.91666667,1.3333336,4.9)"
     style="fill:#d3dae3;fill-opacity:1">
    <rect
       y="0"
       x="40"
       height="24"
       width="24"
       id="rect3092"
       style="opacity:0.01;fill:#d3dae3;fill-opacity:1;stroke:none" />
    <path
       id="rect4176-31"
       d="m 56.088371,2 -7.656261,7.6562608 -2.343753,2.3437532 2.343753,2.343754 7.656261,7.65626 0.88379,-0.883751 L 49.3159,13.460016 47.855937,12.000014 49.3159,10.540137 56.972161,2.8838762 Z"
       style="fill:#d3dae3;fill-opacity:1;stroke:none"
       class="ColorScheme-Text" />
  </g>
  <g
     id="go-up"
     transform="matrix(0.91666667,0,0,0.91666667,-11.416667,4.9)"
     style="fill:#d3dae3;fill-opacity:1">
    <rect
       y="0"
       x="115"
       height="24"
       width="24"
       id="rect3096"
       style="opacity:0.01;fill:#d3dae3;fill-opacity:1;stroke:none" />
    <path
       id="rect4176-2"
       d="M 117.88379,16.911625 117,16.027875 124.65625,8.371625 127,6.027875 l 2.34375,2.34375 7.65625,7.65625 -0.88379,0.88375 -7.65625,-7.65625 -1.45996,-1.46 -1.45996,1.46 z"
       style="fill:#d3dae3;fill-opacity:1;stroke:none"
       class="ColorScheme-Text" />
  </g>
</svg>
