<?xml version="1.0" encoding="UTF-8" standalone="no"?>
<svg
   width="32"
   height="32"
   version="1"
   id="svg14"
   sodipodi:docname="internet.svg"
   inkscape:version="1.2.2 (b0a8486541, 2022-12-01)"
   xmlns:inkscape="http://www.inkscape.org/namespaces/inkscape"
   xmlns:sodipodi="http://sodipodi.sourceforge.net/DTD/sodipodi-0.dtd"
   xmlns:xlink="http://www.w3.org/1999/xlink"
   xmlns="http://www.w3.org/2000/svg"
   xmlns:svg="http://www.w3.org/2000/svg">
  <sodipodi:namedview
     id="namedview16"
     pagecolor="#ffffff"
     bordercolor="#000000"
     borderopacity="1"
     inkscape:showpageshadow="2"
     inkscape:pageopacity="0.0"
     inkscape:pagecheckerboard="0"
     inkscape:deskcolor="#cccccc"
     showgrid="false"
     inkscape:zoom="7.375"
     inkscape:cx="7.6610169"
     inkscape:cy="27.050847"
     inkscape:window-width="1920"
     inkscape:window-height="996"
     inkscape:window-x="0"
     inkscape:window-y="0"
     inkscape:window-maximized="1"
     inkscape:current-layer="svg14" />
  <defs
     id="l4k1">
    <linearGradient
       inkscape:collect="always"
       id="linearGradient13017">
      <stop
         style="stop-color:#2a7fff;stop-opacity:1"
         offset="0"
         id="stop13013" />
      <stop
         style="stop-color:#55ddff;stop-opacity:1"
         offset="1"
         id="stop13015" />
    </linearGradient>
    <style
       type="text/css"
       id="current-color-scheme" />
    <linearGradient
       inkscape:collect="always"
       xlink:href="#linearGradient13017"
       id="linearGradient5058"
       x1="148.9608"
       y1="596.36218"
       x2="148.9608"
       y2="636.12817"
       gradientUnits="userSpaceOnUse"
       gradientTransform="matrix(0.50999969,0,0,0.42750131,-58.969954,-248.94567)" />
    <linearGradient
       inkscape:collect="always"
       xlink:href="#linearGradient13017"
       id="linearGradient6958"
       gradientUnits="userSpaceOnUse"
       gradientTransform="matrix(0.43219982,0,0,0.36977632,-20.548369,-207.92069)"
       x1="146.80391"
       y1="596.36243"
       x2="146.99998"
       y2="636.3623" />
  </defs>
  <g
     id="internet-web-browser">
    <rect
       style="opacity:0.00100002;fill:#d1d5e9;fill-opacity:1"
       width="32"
       height="32"
       x="0"
       y="0"
       id="rect9" />
    <path
       inkscape:connector-curvature="0"
       id="path9068-9-37-8-0-1"
       d="m 26.200007,5.9999535 -20.3999995,5e-6 V 23.099954 H 26.200007 Z"
       style="display:inline;overflow:visible;visibility:visible;opacity:1;fill:url(#linearGradient5058);fill-opacity:1;fill-rule:nonzero;stroke:none;stroke-width:0.653705;marker:none"
       sodipodi:nodetypes="ccccc" />
    <path
       d="M 22.963632,3.9999535 H 9.0360785 c -1.335181,0.0015 -2.615324,0.532573 -3.559318,1.476774 -0.944186,0.944012 -1.475228,2.224101 -1.476753,3.559294 v 13.9280505 -1.9e-4 c 0.0015,1.335155 0.05581,2.092153 1,3.036165 0.943995,0.944201 2.664818,1.998451 4,2 h 2.9999995 l 4,-9.4e-5 4,9.4e-5 h 3 v 0 c 1.335183,-0.0015 3.056006,-1.0558 4,-2 0.944187,-0.944012 0.998462,-1.70101 0.999985,-3.036164 V 9.0362865 c -0.0018,-1.335156 -0.532568,-2.615282 -1.476755,-3.559295 -0.943993,-0.944202 -2.224134,-1.475224 -3.559319,-1.476774 z M 9.2000085,5.9999655 H 22.800006 c 0.887095,0.0011 1.603761,0.04384 2.231,0.671244 0.627232,0.627212 0.967901,1.441663 0.969001,2.328756 V 22.999977 H 6.0000075 V 8.9999655 c 0.0011,-0.887093 0.341774,-1.701506 0.969,-2.328756 0.627201,-0.627213 1.343916,-0.670148 2.231001,-0.671244 z"
       id="path1193-7"
       style="fill:#d3dae3;fill-opacity:1;stroke-width:0.047619"
       sodipodi:nodetypes="cccccccccccccccccccccccccccc" />
    <path
       style="fill:#d1d5e9;fill-opacity:1"
       d="m 16.001331,6.5 c -2.924616,3.4e-4 -5.804895,1.693112 -7.1031116,4.335928 -1.317338,2.451156 -1.16542,5.566299 0.322719,7.906166 1.7678806,2.889856 5.4972996,4.401956 8.7740226,3.496087 2.912142,-0.698751 5.23253,-3.202809 5.821775,-6.122483 0.516443,-2.24914 -0.08333,-4.678064 -1.487322,-6.495936 C 20.857607,7.676543 18.433934,6.491927 15.99727,6.503099 m 0,0.999345 c 1.138278,0.0065 2.265193,0.306823 3.281119,0.813392 -0.514953,0.169076 0.24179,0.661183 -0.144188,0.920545 0.399882,0.261101 0.934358,-0.239378 0.381005,-0.499897 -0.488731,-0.771543 1.24912,0.228696 0.347781,0.503789 -0.306948,0.278943 -1.055162,0.167766 -0.445986,0.674868 0.04914,0.492443 -1.066826,-0.09897 -0.927166,0.711531 0.05393,0.364533 0.203838,0.487722 -0.337317,0.815003 -0.426785,0.592171 -1.223001,1.082929 -1.090407,1.97958 -0.214307,0.709065 0.54316,1.07387 1.153792,1.226664 0.632948,-0.04161 2.14076,-0.45221 2.400025,0.340161 -0.269321,0.701412 1.179458,1.396518 0.567569,2.093073 -0.397132,0.651812 0.07816,0.878122 -0.04898,1.548846 0.489629,0.70474 -1.270699,1.737658 -1.80704,2.052693 -1.619521,0.951273 -3.695961,1.075535 -5.477921,0.460568 -0.700414,-0.424546 0.157627,-0.757423 0.378815,-0.971543 -0.306194,-0.584756 0.17123,-0.230886 0.175852,-0.851852 0.0063,-0.939154 1.25298,-0.785718 1.164689,-1.761878 0.02609,-0.58187 0.93113,-1.374249 -0.06929,-1.610359 -0.747871,-0.142556 -1.358818,-0.0953 -1.75052,-0.742508 -0.681351,-0.09061 -0.689403,-0.807536 -1.486419,-0.67813 -0.562444,-0.334818 -1.328844,0.851755 -1.671988,-4.57e-4 0.129303,-0.436499 -0.125593,-1.120958 -0.505095,-1.033109 0.181905,-0.327054 0.17976,-0.972176 -0.2412266,-0.446009 -0.683948,0.606314 -0.840985,-0.42059 -0.492318,-0.858264 0.439207,-0.572602 1.4974936,-0.536982 1.8523166,-0.02168 -0.03604,-0.834347 0.862278,-0.957752 1.252874,-1.599977 0.443851,-0.228661 0.897901,-0.754112 1.328266,-0.508025 0.299397,-0.04373 0.612025,-0.386848 0.120611,-0.211124 -0.235444,-0.114871 0.231849,-0.510503 -0.188021,-0.406696 0.35054,-0.09037 0.718,-0.156474 1.072111,-0.170788 -0.776469,0.459529 0.877789,0.607625 0.18557,0.09914 C 15.182797,8.837162 14.782124,8.6864 14.644984,8.23707 14.267594,8.25197 14.234042,8.374257 14.024339,7.997528 13.283635,7.573296 14.737672,8.118359 14.83835,7.748757 15.123654,7.432042 15.620434,7.539658 16.001231,7.504745 m -2.500084,0.468681 c -0.164598,0.5664 -0.644863,0.976858 -1.023641,1.153629 -0.106274,-0.314786 0.03047,-0.404856 -0.295369,-0.479018 0.365618,-0.332139 0.876989,-0.463278 1.31599,-0.674611 m 5.375187,0.749309 c -0.604893,0.17124 0.05071,0.719331 0.179907,0.118898 0.0016,-0.09114 -0.107439,-0.128601 -0.180897,-0.117999 m 2.125103,1.154108 c 0.512518,0.260943 1.379796,1.269735 1.132056,1.614082 -0.440411,-0.107181 -0.292842,0.46113 -0.782107,0.114767 -0.65603,-0.101044 -0.661634,-1.058218 -1.458932,-0.661652 -0.285266,0.200662 -1.418211,0.277921 -0.569316,-0.05647 0.371541,-0.402234 0.946867,-1.131297 1.595068,-0.626984 0.194503,0.226005 0.580808,0.675893 0.601741,0.198508 -0.146663,-0.135482 -0.79458,-0.317743 -0.51546,-0.585456 M 9.2831274,13.497812 c 0.637523,0.193634 1.0697186,1.336086 1.6236176,1.442584 0.738682,-0.222783 0.07159,1.003674 -0.08665,1.313067 0.142561,0.765758 0.65116,1.106931 1.3333,1.511698 0.369336,0.844647 0.157575,1.831434 0.326452,2.719747 -0.871998,-0.401699 -1.647984,-1.219029 -2.23081,-2.020005 -0.9032106,-1.280115 -1.3344666,-2.883429 -1.2295856,-4.441573 0.05383,-0.172846 0.04916,-0.477341 0.267709,-0.525018"
       id="path6-5" />
  </g>
  <g
     id="22-22-internet-web-browser">
    <rect
       style="opacity:0.00100002;fill:#d1d5e9;fill-opacity:1"
       width="22"
       height="22"
       x="32"
       y="10.000001"
       id="rect4" />
    <path
       inkscape:connector-curvature="0"
       id="path9068-9-37-8-0-1-0-1-3-7-4-6-1"
       d="m 51.459511,12.600001 -17.11851,5e-6 v 14.790996 h 17.288 z"
       style="display:inline;overflow:visible;visibility:visible;opacity:1;fill:url(#linearGradient6958);fill-opacity:1;fill-rule:nonzero;stroke:none;stroke-width:0.55969;marker:none"
       sodipodi:nodetypes="cccccc" />
    <path
       d="m 48.803021,11.000001 h -11.60629 c -1.11265,0.0012 -2.17944,0.443811 -2.9661,1.230645 -0.78682,0.786678 -1.22936,1.853418 -1.23063,2.966079 v 11.606709 -1.58e-4 c 0.001,1.11263 0.44381,2.179405 1.23063,2.966075 0.78666,0.78684 1.85345,1.22936 2.9661,1.23065 h 11.60669 -1.6e-4 c 1.11265,-0.001 2.17944,-0.44381 2.9661,-1.23065 0.78682,-0.78667 1.22936,-1.853445 1.23063,-2.966075 V 15.196945 c -0.002,-1.11263 -0.44381,-2.179402 -1.23063,-2.966078 -0.78666,-0.786835 -1.85345,-1.229354 -2.9661,-1.230646 z m -11.17002,2 h 10.734 c 0.73924,9.16e-4 1.5363,0.0032 2.059,0.526 0.52269,0.522677 0.57308,0.901432 0.574,1.640677 v 11.833323 h -16 V 15.166678 c 9.2e-4,-0.739245 0.0513,-1.117968 0.574,-1.640677 0.52267,-0.522677 1.31976,-0.525087 2.059,-0.526 z"
       id="path1193-3-7-2-2-4-2"
       style="fill:#d3dae3;fill-opacity:1;stroke-width:0.0396825"
       sodipodi:nodetypes="ccccccccccccccccccccccccc" />
    <path
       style="fill:#d1d5e9;fill-opacity:1;stroke-width:0.875"
       d="m 43.00116,13.000001 c -2.559039,3e-4 -5.079283,1.481471 -6.215223,3.793935 -1.152671,2.144763 -1.019742,4.870513 0.282379,6.917899 1.546896,2.528623 4.810138,3.85171 7.677273,3.059074 2.548122,-0.611404 4.578457,-2.802456 5.094048,-5.357169 0.45189,-1.968 -0.07293,-4.093304 -1.301408,-5.683949 -1.287827,-1.700313 -3.40854,-2.736858 -5.540623,-2.727077 m 0,0.874425 c 0.995995,0.0059 1.982045,0.268469 2.870978,0.711718 -0.45058,0.147941 0.21157,0.578537 -0.126162,0.805479 0.349896,0.228461 0.817565,-0.209458 0.333379,-0.437412 -0.427638,-0.675102 1.09298,0.200111 0.304307,0.440816 -0.268575,0.244077 -0.923268,0.146796 -0.390233,0.590507 0.04298,0.430892 -0.933479,-0.08657 -0.811272,0.622592 0.04719,0.318968 0.178358,0.426757 -0.295151,0.713131 -0.373442,0.518143 -1.070129,0.947556 -0.954109,1.732127 -0.187519,0.620434 0.475264,0.939636 1.009568,1.073334 0.553828,-0.03641 1.873166,-0.39568 2.10002,0.29764 -0.235655,0.613736 1.032029,1.221955 0.496621,1.831443 -0.347486,0.570333 0.06836,0.768356 -0.04284,1.355237 0.428429,0.616649 -1.111859,1.520448 -1.58116,1.796103 -1.41708,0.832366 -3.233963,0.941095 -4.793178,0.403001 -0.612862,-0.371479 0.137923,-0.662744 0.331463,-0.850099 -0.26792,-0.511665 0.149827,-0.202024 0.153871,-0.74537 0.0055,-0.82176 1.096357,-0.687504 1.019103,-1.541644 0.02283,-0.509137 0.814738,-1.202469 -0.06063,-1.409066 -0.654387,-0.124736 -1.188966,-0.08336 -1.531705,-0.649694 -0.596183,-0.07927 -0.603228,-0.706596 -1.300617,-0.593364 -0.492139,-0.292964 -1.162739,0.745289 -1.462989,-4.03e-4 0.11314,-0.381933 -0.109894,-0.980838 -0.441958,-0.90397 0.159167,-0.286173 0.15729,-0.850655 -0.211075,-0.390255 -0.598454,0.530521 -0.735861,-0.368017 -0.430778,-0.750977 0.384307,-0.501029 1.310308,-0.469862 1.620778,-0.01899 -0.03154,-0.730053 0.754493,-0.838031 1.096265,-1.399979 0.38837,-0.200078 0.785663,-0.65985 1.162233,-0.444523 0.261972,-0.03827 0.535522,-0.338494 0.105534,-0.18473 -0.206013,-0.100511 0.202868,-0.446694 -0.164518,-0.355858 0.306722,-0.07908 0.62825,-0.136918 0.938097,-0.149446 -0.679411,0.402089 0.768065,0.531673 0.162373,0.08674 0.181138,-0.466229 -0.169452,-0.598151 -0.289449,-0.991315 -0.330216,0.01304 -0.359574,0.12004 -0.543064,-0.209601 -0.648116,-0.371199 0.624166,0.10573 0.71226,-0.217673 0.249641,-0.27712 0.684323,-0.18296 1.01752,-0.213511 m -2.187573,0.410096 c -0.144023,0.4956 -0.564255,0.854757 -0.895685,1.009428 -0.09299,-0.27544 0.02667,-0.354251 -0.258448,-0.419138 0.319915,-0.290622 0.767364,-0.405373 1.15149,-0.59029 m 4.70329,0.655647 c -0.529282,0.149839 0.04437,0.629413 0.157417,0.104038 0.0016,-0.07974 -0.09402,-0.112527 -0.15828,-0.103252 m 1.859463,1.009844 c 0.448452,0.228328 1.207319,1.11102 0.990549,1.412322 -0.385364,-0.09378 -0.256235,0.403489 -0.684343,0.100426 -0.574027,-0.08844 -0.578931,-0.92594 -1.276569,-0.578949 -0.249606,0.175579 -1.240931,0.243181 -0.49815,-0.04942 0.325095,-0.351957 0.828509,-0.989882 1.395682,-0.548609 0.170195,0.197752 0.508208,0.591402 0.526526,0.173692 -0.128328,-0.118545 -0.695257,-0.278027 -0.451025,-0.512275 m -10.252686,3.170374 c 0.557833,0.169427 0.936004,1.169074 1.420666,1.262259 0.646347,-0.194936 0.06265,0.878214 -0.07582,1.148933 0.124741,0.670038 0.569765,0.968565 1.166637,1.322738 0.32317,0.739067 0.137879,1.602501 0.285646,2.379774 -0.762998,-0.351486 -1.441986,-1.066649 -1.951959,-1.767505 -0.790309,-1.120099 -1.167659,-2.522996 -1.075888,-3.886373 0.0471,-0.15124 0.04301,-0.417674 0.234245,-0.459392"
       id="path6-3" />
  </g>
</svg>
