<?xml version="1.0" encoding="UTF-8" standalone="no"?>
<svg
   width="32"
   height="32"
   version="1.1"
   id="svg986"
   sodipodi:docname="jami.svg"
   inkscape:version="1.2.2 (b0a8486541, 2022-12-01)"
   xmlns:inkscape="http://www.inkscape.org/namespaces/inkscape"
   xmlns:sodipodi="http://sodipodi.sourceforge.net/DTD/sodipodi-0.dtd"
   xmlns:xlink="http://www.w3.org/1999/xlink"
   xmlns="http://www.w3.org/2000/svg"
   xmlns:svg="http://www.w3.org/2000/svg">
  <sodipodi:namedview
     id="namedview988"
     pagecolor="#ffffff"
     bordercolor="#000000"
     borderopacity="1"
     inkscape:showpageshadow="2"
     inkscape:pageopacity="0.0"
     inkscape:pagecheckerboard="0"
     inkscape:deskcolor="#cccccc"
     showgrid="false"
     inkscape:zoom="7.375"
     inkscape:cx="27.728814"
     inkscape:cy="20.745763"
     inkscape:window-width="1920"
     inkscape:window-height="994"
     inkscape:window-x="0"
     inkscape:window-y="0"
     inkscape:window-maximized="1"
     inkscape:current-layer="svg986">
    <inkscape:grid
       type="xygrid"
       id="grid1519"
       originx="32"
       originy="10" />
  </sodipodi:namedview>
  <defs
     id="Dexy">
    <linearGradient
       inkscape:collect="always"
       id="linearGradient927">
      <stop
         style="stop-color:#1975fd;stop-opacity:1;"
         offset="0"
         id="stop923" />
      <stop
         style="stop-color:#609ffe;stop-opacity:1;"
         offset="1"
         id="stop925" />
    </linearGradient>
    <linearGradient
       inkscape:collect="always"
       xlink:href="#linearGradient927"
       id="linearGradient6958"
       gradientUnits="userSpaceOnUse"
       gradientTransform="matrix(0.43219982,0,0,0.36977632,-20.533364,-207.9227)"
       x1="146.80391"
       y1="596.36243"
       x2="146.99998"
       y2="636.3623" />
    <linearGradient
       inkscape:collect="always"
       xlink:href="#linearGradient927"
       id="linearGradient929"
       x1="14.786899"
       y1="22.493399"
       x2="14.750839"
       y2="6.500001"
       gradientUnits="userSpaceOnUse" />
  </defs>
  <g
     id="jami">
    <rect
       style="opacity:0.00100002"
       width="32"
       height="32"
       x="0"
       y="0"
       id="rect976" />
    <rect
       y="4.0000024"
       x="4"
       height="24"
       width="24"
       id="rect2996-7"
       style="opacity:0.01;fill:#d6dbf1;fill-opacity:1;stroke:none;stroke-width:1" />
    <path
       inkscape:connector-curvature="0"
       id="path9068-9-37-8-0-1-5"
       d="m 26.099998,5.832003 -20.200004,7e-6 V 23.132 l 20.200004,-0.149999 z"
       style="display:inline;overflow:visible;visibility:visible;opacity:1;fill:url(#linearGradient929);fill-opacity:1;fill-rule:nonzero;stroke:none;stroke-width:0.657512;marker:none;enable-background:new"
       sodipodi:nodetypes="ccccc" />
    <path
       d="M 22.963621,4 H 9.036068 C 7.700895,4.0018 6.420756,4.532576 5.47676,5.476781 4.532568,6.420782 4.001529,7.700879 3.999999,9.036064 v 13.928052 -1.82e-4 c 0.0018,1.335152 0.532569,2.615282 1.476761,3.559292 0.943996,0.944202 2.224135,1.47522 3.559308,1.476773 h 13.928034 -1.91e-4 c 1.335187,-0.0016 2.61532,-0.532571 3.559324,-1.476773 0.944187,-0.94401 1.475229,-2.22414 1.476754,-3.559292 V 9.036333 C 27.998189,7.701169 27.467422,6.42105 26.523235,5.477043 25.579231,4.532842 24.299098,4.001805 22.96391,4.000269 Z M 9.199998,6.000019 h 13.6 c 0.887099,0.0013 1.603763,0.04387 2.230994,0.671242 C 25.658233,7.298464 25.998895,8.112923 26,9.000018 V 23.000026 H 6.000002 V 9.000018 C 6.001302,8.112923 6.34178,7.298502 6.968995,6.671261 7.596204,6.044037 8.312919,6.001106 9.199998,6.000019 Z"
       id="path1193-36-3"
       style="fill:#d3dae3;fill-opacity:1;stroke-width:0.0476193;enable-background:new"
       sodipodi:nodetypes="ccccccccccccccccccccccccc" />
    <path
       style="fill:#d3dae3;fill-opacity:1;stroke-width:0.592977"
       d="m 14.750839,6.5000011 c -0.552366,-0.0016 -0.910252,1.8244465 -1.08532,4.2285239 C 11.798945,9.8717438 10.22272,9.3012359 9.557396,9.3614238 9.405211,9.3751924 9.30044,9.4215191 9.249708,9.5042726 L 8.032176,11.489639 c -0.273758,0.446475 1.234387,1.656536 3.364137,3.008739 -2.132255,1.353391 -3.638106,2.564181 -3.364137,3.010962 l 1.217532,1.98537 c 0.273177,0.445525 2.131464,-0.176868 4.432635,-1.234299 0.185924,2.404647 0.552214,4.231815 1.104556,4.232988 l 2.461504,0.0066 c 0.552531,0.0018 0.910318,-1.825582 1.085318,-4.230755 2.29341,1.052707 4.143297,1.67093 4.415815,1.226481 l 1.21753,-1.985366 c 0.273968,-0.446812 -1.231883,-1.6576 -3.364135,-3.010994 2.129744,-1.352204 3.637897,-2.56227 3.364135,-3.008742 L 22.749536,9.5044194 C 22.698799,9.4216847 22.594034,9.3753426 22.441839,9.3615742 21.774368,9.3011674 20.190246,9.8750157 18.3157,10.736488 18.129718,8.3329697 17.764511,6.5069129 17.212341,6.5057289 Z m 0.185094,0.5713939 2.092513,0.00581 c 0.03548,0.056891 0.08447,0.139329 0.139428,0.2946252 0.132386,0.3742444 0.26148,0.9772071 0.362974,1.7074816 0.07926,0.5704757 0.140209,1.2360362 0.1899,1.9351472 -0.559258,0.266461 -1.136907,0.555874 -1.721124,0.858183 -0.589619,-0.305096 -1.172704,-0.59748 -1.736761,-0.866013 0.04667,-0.700495 0.104589,-1.367143 0.181491,-1.9384964 0.09824,-0.7297749 0.224027,-1.3320525 0.354564,-1.7052436 0.05386,-0.1541247 0.102238,-0.2348825 0.137015,-0.2912777 z M 9.69201,9.9384001 c 0.0685,4.113e-4 0.162291,0.002 0.328122,0.034598 0.406977,0.080589 1.024462,0.2789499 1.745165,0.5635779 0.559386,0.220916 1.196298,0.504217 1.858154,0.812444 -0.03431,0.597911 -0.05929,1.218719 -0.07217,1.855907 -0.554856,0.31727 -1.092986,0.634867 -1.604548,0.949713 C 11.32448,13.764308 10.738889,13.382742 10.25086,13.033062 9.628739,12.587297 9.137658,12.183106 8.859059,11.890284 8.742275,11.76754 8.690236,11.684511 8.655937,11.628028 Z m 12.615221,0 1.036048,1.6896219 c -0.03437,0.05653 -0.08633,0.139514 -0.203127,0.262265 -0.278593,0.292816 -0.769683,0.697003 -1.391804,1.142783 -0.488027,0.34968 -1.073619,0.731239 -1.695891,1.121577 -0.513676,-0.316143 -1.054495,-0.634508 -1.61176,-0.953061 -0.01575,-0.634178 -0.04242,-1.250683 -0.0793,-1.84587 0.66724,-0.311009 1.309102,-0.59661 1.872573,-0.819145 0.720713,-0.284628 1.338194,-0.482971 1.745168,-0.5635775 0.165837,-0.032838 0.259631,-0.034191 0.328127,-0.034598 z m -8.085229,1.6896219 c 0.374942,0.180817 0.760489,0.372852 1.147814,0.570275 -0.40026,0.212625 -0.79929,0.430272 -1.194688,0.650631 0.0113,-0.41459 0.0264,-0.824586 0.04691,-1.220906 z m 3.542024,0.0075 c 0.02201,0.392754 0.03863,0.79901 0.05171,1.209749 -0.3927,-0.21878 -0.788823,-0.435033 -1.186283,-0.646168 0.382845,-0.195139 0.763792,-0.384635 1.1346,-0.563581 z m -1.764402,0.89167 c 0.302435,0.158422 0.604522,0.315781 0.906234,0.479879 0.311714,0.169542 0.617731,0.343521 0.924271,0.516711 0.0072,0.327115 0.01492,0.653886 0.01558,0.983197 0.0012,0.323695 -0.0052,0.644887 -0.0094,0.966448 -0.308481,0.174332 -0.616525,0.349411 -0.93027,0.520062 -0.301704,0.164098 -0.603797,0.321456 -0.90624,0.479877 -0.302443,-0.158421 -0.604527,-0.315779 -0.90624,-0.479877 -0.311716,-0.169548 -0.617728,-0.343523 -0.924263,-0.516713 -0.0072,-0.327116 -0.01493,-0.653885 -0.01557,-0.983192 -0.0012,-0.323699 0.0052,-0.64489 0.0094,-0.966456 0.308483,-0.17433 0.616531,-0.349409 0.930274,-0.520057 0.301707,-0.164098 0.603795,-0.321457 0.906239,-0.479879 z m 2.451892,1.350315 c 0.358548,0.207945 0.712801,0.416467 1.051665,0.622729 -0.337691,0.205548 -0.690819,0.413279 -1.048069,0.620502 0.0042,-0.415476 0.0024,-0.827788 -0.0042,-1.243231 z m -4.907387,0.0028 c -0.0042,0.415466 -0.0024,0.827781 0.0043,1.243223 -0.358563,-0.207946 -0.71282,-0.416465 -1.051685,-0.622728 0.337687,-0.205546 0.690814,-0.413276 1.048063,-0.620495 z m -1.597342,0.966408 c 0.514972,0.316939 1.053013,0.635958 1.611752,0.955294 0.01577,0.633031 0.04251,1.248372 0.07929,1.842519 -0.667234,0.311008 -1.309104,0.596609 -1.872574,0.819145 -0.720704,0.284308 -1.338189,0.482659 -1.745167,0.563261 -0.165831,0.03285 -0.259627,0.03425 -0.328123,0.03453 L 8.655967,17.371051 c 0.03431,-0.05652 0.08633,-0.139512 0.203122,-0.262261 0.278596,-0.292818 0.769682,-0.697008 1.391807,-1.142783 0.48788,-0.349578 1.073829,-0.730253 1.695894,-1.120465 z m 8.10567,0 c 0.622055,0.390212 1.208006,0.770882 1.695891,1.120463 0.622121,0.445774 1.113214,0.849969 1.391804,1.142783 0.11679,0.122749 0.168827,0.205782 0.203127,0.26226 l -1.036048,1.689308 c -0.06847,-4.19e-4 -0.162285,-0.0025 -0.328123,-0.03452 -0.406975,-0.08066 -1.024458,-0.278952 -1.74517,-0.563584 -0.55938,-0.220914 -1.196289,-0.504217 -1.858149,-0.812445 0.03429,-0.597214 0.05927,-1.217253 0.07216,-1.853676 0.556175,-0.317967 1.09183,-0.635279 1.604554,-0.950832 z m -2.228343,1.300131 c -0.01131,0.416149 -0.02633,0.827596 -0.04691,1.225363 -0.376495,-0.181559 -0.763677,-0.374208 -1.15263,-0.572502 0.403201,-0.214148 0.801236,-0.430864 1.199506,-0.652861 z m -3.640577,0.0049 c 0.395568,0.220413 0.790696,0.435742 1.191089,0.648398 -0.384482,0.19601 -0.767047,0.386121 -1.139406,0.56581 -0.0221,-0.394202 -0.03862,-0.801914 -0.05171,-1.214208 z m 1.816087,0.978358 c 0.59093,0.305811 1.171493,0.593582 1.736756,0.862665 -0.0467,0.700917 -0.10455,1.367952 -0.181494,1.939611 -0.09823,0.729776 -0.224023,1.332058 -0.354562,1.705244 -0.05387,0.154123 -0.102241,0.234885 -0.137014,0.29128 l -2.092526,-0.0065 c -0.03547,-0.05676 -0.08445,-0.139186 -0.139413,-0.294483 -0.132383,-0.374243 -0.261481,-0.97721 -0.362978,-1.707476 -0.0793,-0.570712 -0.140194,-1.236664 -0.1899,-1.936197 0.560242,-0.26693 1.13584,-0.551965 1.721131,-0.854853 z"
       id="path978-3" />
  </g>
  <g
     id="22-22-jami">
    <rect
       style="opacity:0.00100002"
       width="22"
       height="22"
       x="32"
       y="10"
       id="rect981" />
    <path
       inkscape:connector-curvature="0"
       id="path9068-9-37-8-0-1-0-1-3-7-4-6-1"
       d="m 51.474513,12.598 -17.118508,5e-6 v 14.790996 h 17.288 z"
       style="display:inline;overflow:visible;visibility:visible;opacity:1;fill:url(#linearGradient6958);fill-opacity:1;fill-rule:nonzero;stroke:none;stroke-width:0.55969;marker:none"
       sodipodi:nodetypes="cccccc" />
    <path
       d="m 48.803015,11 h -11.60627 c -1.11265,0.0015 -2.17946,0.443813 -2.96612,1.230647 -0.78685,0.786674 -1.22936,1.853415 -1.23062,2.966076 v 11.60671 -1.58e-4 c 8.6e-4,1.11263 0.44377,2.179402 1.23062,2.96608 0.78666,0.786834 1.85347,1.229354 2.96612,1.230645 h 11.6067 -1.9e-4 c 1.11265,-0.0012 2.17946,-0.443811 2.96611,-1.230645 0.78686,-0.786678 1.22937,-1.85345 1.23063,-2.96608 V 15.196946 c -0.002,-1.112635 -0.44377,-2.179402 -1.23063,-2.96608 -0.78665,-0.786833 -1.85346,-1.229358 -2.96611,-1.230642 z m -11.18601,2.000025 h 10.766 c 0.73924,0.0011 1.43628,-0.113833 1.959,0.409 0.52269,0.52268 0.6571,1.018408 0.658,1.757653 v 11.833347 h -16 V 15.166678 c 8.5e-4,-0.739245 0.13532,-1.234937 0.658,-1.757653 0.52268,-0.522679 1.21978,-0.40809 1.959,-0.409 z"
       id="path1193-3-3"
       style="fill:#d3dae3;fill-opacity:1;stroke-width:0.0396829"
       sodipodi:nodetypes="ccccccccccccccccccccccccc" />
    <path
       style="fill:#d3dae3;fill-opacity:1;stroke-width:0.774567"
       d="m 42.189103,14.000001 c -0.380527,-0.0012 -0.616424,1.549987 -0.721831,3.514023 -1.550135,-0.739015 -2.897261,-1.280664 -3.420144,-1.264112 -0.111147,0.0037 -0.186633,0.03196 -0.220295,0.08643 l -0.807772,1.305125 c -0.191905,0.310254 1.125981,1.282134 2.893599,2.355374 -1.777652,1.078208 -3.086218,2.049831 -2.893599,2.361235 l 0.807772,1.305125 c 0.192732,0.311588 1.762442,-0.276118 3.651375,-1.177688 0.112787,1.960769 0.352755,3.508693 0.732774,3.509627 l 1.59992,0.0049 c 0.380125,0.0012 0.616246,-1.547156 0.721835,-3.508166 1.883488,0.898254 3.448118,1.482757 3.640439,1.171833 l 0.807773,-1.305129 c 0.19262,-0.311403 -1.115948,-1.283026 -2.893603,-2.361234 1.767616,-1.073237 3.085509,-2.045122 2.893603,-2.355374 l -0.807773,-1.305162 c -0.03369,-0.05447 -0.10915,-0.08293 -0.2203,-0.08643 -0.523937,-0.01655 -1.875317,0.527088 -3.429516,1.268502 -0.112656,-1.963088 -0.354004,-3.513084 -0.734334,-3.514021 z m 0.414046,0.751437 0.771836,0.002 c 0.07619,0.255266 0.158159,0.682505 0.221863,1.211378 0.06658,0.552866 0.11735,1.213459 0.151557,1.923263 -0.248142,0.124111 -0.495987,0.256916 -0.748401,0.388134 -0.255291,-0.132712 -0.505321,-0.267096 -0.756213,-0.392563 0.03148,-0.711681 0.07911,-1.375186 0.143745,-1.929122 0.06129,-0.525267 0.140953,-0.947542 0.215613,-1.202591 z m -4.290406,2.293853 c 0.275633,0.0662 0.716425,0.214586 1.240558,0.429179 0.552088,0.226044 1.197798,0.522263 1.881154,0.855439 -0.0086,0.261143 -0.01291,0.527181 -0.01716,0.795377 -0.260556,0.14593 -0.502151,0.29051 -0.753086,0.436507 -0.649317,-0.386554 -1.246303,-0.760456 -1.731168,-1.094197 -0.458994,-0.315929 -0.814804,-0.595293 -1.014007,-0.785124 z m 9.374521,0 0.39373,0.637181 c -0.199203,0.189831 -0.555017,0.469195 -1.014009,0.785124 -0.484867,0.333741 -1.081853,0.707643 -1.731164,1.094197 -0.252529,-0.146922 -0.49551,-0.292585 -0.757774,-0.439437 -0.0056,-0.265506 -0.0108,-0.529481 -0.02029,-0.788054 0.686239,-0.334736 1.334791,-0.632935 1.888967,-0.859832 0.524133,-0.214593 0.964929,-0.363019 1.24056,-0.429179 z m -4.68726,2.088785 c 0.137985,0.073 0.271743,0.135169 0.409353,0.209463 0.130989,0.0707 0.249565,0.143741 0.379669,0.215324 0.0021,0.151804 0.0106,0.294608 0.01097,0.44676 2.86e-4,0.147762 -0.0082,0.28614 -0.0092,0.433575 -0.130721,0.07191 -0.249604,0.145726 -0.381228,0.216789 -0.13761,0.07426 -0.271366,0.136431 -0.409352,0.209464 -0.137988,-0.07299 -0.271749,-0.135167 -0.409354,-0.209464 -0.130989,-0.0707 -0.249565,-0.143742 -0.379668,-0.215324 -0.0021,-0.151802 -0.01061,-0.294609 -0.01097,-0.446757 -2.85e-4,-0.147764 0.0082,-0.286144 0.0092,-0.433579 0.130721,-0.07191 0.249606,-0.145727 0.381227,-0.216788 0.137609,-0.07426 0.271365,-0.136429 0.409353,-0.209463 z m -2.338944,1.303659 c 0.247973,0.144199 0.503537,0.286509 0.760897,0.430645 0.0052,0.268523 0.01069,0.535389 0.02031,0.796844 -0.68624,0.334736 -1.33479,0.632935 -1.88897,0.859829 -0.524132,0.214595 -0.964925,0.363023 -1.240558,0.429184 l -0.393725,-0.637183 c 0.199202,-0.189831 0.555012,-0.469191 1.014007,-0.785125 0.484322,-0.333366 1.079572,-0.708095 1.728039,-1.094194 z m 4.677885,0 c 0.648466,0.386099 1.243715,0.760828 1.72804,1.094194 0.458992,0.315934 0.814807,0.595294 1.014009,0.785125 l -0.39373,0.637183 c -0.275634,-0.06621 -0.716429,-0.214591 -1.24056,-0.429184 -0.552087,-0.22604 -1.197797,-0.52226 -1.881155,-0.855434 0.0086,-0.264027 0.0129,-0.532952 0.01718,-0.804168 0.255685,-0.143233 0.509812,-0.284428 0.756211,-0.427716 z m -2.338941,1.281687 c 0.254211,0.132082 0.506384,0.26328 0.75621,0.388167 -0.03147,0.714893 -0.07887,1.381786 -0.143743,1.937913 -0.06129,0.525263 -0.140952,0.94754 -0.215615,1.202589 l -0.771834,-0.002 c -0.07617,-0.255233 -0.158161,-0.682469 -0.221864,-1.211343 -0.06682,-0.554687 -0.117347,-1.218114 -0.151555,-1.930587 0.247466,-0.123756 0.496651,-0.254436 0.748401,-0.385236 z"
       id="path983-6" />
  </g>
</svg>
