<?xml version="1.0" encoding="UTF-8" standalone="no"?>
<svg
   width="32"
   height="32"
   version="1.1"
   id="svg32"
   sodipodi:docname="kalarm.svg"
   inkscape:version="1.2.2 (b0a8486541, 2022-12-01)"
   xmlns:inkscape="http://www.inkscape.org/namespaces/inkscape"
   xmlns:sodipodi="http://sodipodi.sourceforge.net/DTD/sodipodi-0.dtd"
   xmlns:xlink="http://www.w3.org/1999/xlink"
   xmlns="http://www.w3.org/2000/svg"
   xmlns:svg="http://www.w3.org/2000/svg"
   xmlns:rdf="http://www.w3.org/1999/02/22-rdf-syntax-ns#"
   xmlns:cc="http://creativecommons.org/ns#"
   xmlns:dc="http://purl.org/dc/elements/1.1/">
  <g
     id="22-22-kalarm-partdisabled"
     transform="translate(64,-22)">
    <rect
       style="opacity:0.00100002"
       width="22"
       height="22"
       x="0"
       y="0"
       id="rect12" />
    <path
       inkscape:connector-curvature="0"
       id="path9068-9-37-8-0-1-0-1-3-7-4-6-1-1"
       d="m 19.559254,2.7 -17.118508,5e-6 V 17.491 h 17.288 z"
       style="display:inline;overflow:visible;visibility:visible;opacity:0.6;fill:url(#linearGradient6958-9);fill-opacity:1.0;fill-rule:nonzero;stroke:none;stroke-width:0.55969;marker:none"
       sodipodi:nodetypes="cccccc" />
    <path
       d="M 16.80301,1 H 5.19674 C 4.08409,1.0015 3.01728,1.44383 2.23062,2.230652 1.44377,3.017322 1.00126,4.084056 1,5.196749 V 16.803451 16.8033 c 8.6e-4,1.112617 0.44377,2.179389 1.23062,2.96606 0.78666,0.786822 1.85347,1.229367 2.96612,1.230652 h 11.6067 -1.9e-4 c 1.11265,-0.0012 2.17946,-0.44383 2.96611,-1.230652 0.78686,-0.786671 1.22937,-1.853443 1.23063,-2.96606 V 5.196976 C 20.99799,4.084321 20.55622,3.017549 19.76936,2.230878 18.98271,1.444056 17.9159,1.001512 16.80325,1.000226 Z M 5.61701,3.00005 H 16.383 c 0.73924,0.0011 1.43628,-0.113764 1.959,0.408983 0.52269,0.522671 0.6571,1.018431 0.658,1.757669 V 17.000025 H 3 V 5.166702 C 3.00085,4.427464 3.13531,3.931741 3.658,3.409033 4.18068,2.886362 4.87778,3.000957 5.61701,3.00005 Z"
       id="path1193-3-6-9"
       style="fill:#d3dae3;fill-opacity:1;stroke-width:0.0396828"
       sodipodi:nodetypes="ccccccccccccccccccccccccc" />
    <path
       d="M 15.615447,16.000012 H 6.384735 c -0.764718,3e-6 -1.384647,-0.619906 -1.384645,-1.384596 V 5.384655 C 5.000088,4.619926 5.620017,4.00001 6.384735,4.000012 h 9.230712 c 0.764715,-2e-6 1.384645,0.619914 1.384643,1.384643 v 9.230761 c 2e-6,0.76469 -0.619928,1.384599 -1.384643,1.384596 z M 6.384735,4.92307 c -0.254925,1e-6 -0.461524,0.206661 -0.461524,0.461585 v 9.230761 c 0,0.254879 0.206594,0.461535 0.461524,0.461538 h 9.230712 c 0.254926,0 0.461562,-0.206659 0.461562,-0.461538 z"
       id="path8-9-6"
       style="color:#eff0f1;fill:#d3dae3;fill-opacity:1;stroke-width:0.461531"
       sodipodi:nodetypes="ccccccccccscccsccc"
       class="ColorScheme-Text" />
  </g>
  <g
     id="22-22-kalarm"
     transform="translate(0,-22)">
    <rect
       style="opacity:0.00100002"
       width="22"
       height="22"
       x="0"
       y="0"
       id="rect2" />
    <path
       inkscape:connector-curvature="0"
       id="path9068-9-37-8-0-1-0-1-3-7-4-6-1"
       d="M 19.118508,2.604497 2,2.604502 v 14.790996 h 17.288 z"
       style="display:inline;overflow:visible;visibility:visible;opacity:0.6;fill:url(#linearGradient6958);fill-opacity:1.0;fill-rule:nonzero;stroke:none;stroke-width:0.55969;marker:none"
       sodipodi:nodetypes="cccccc" />
    <path
       d="M 16.803011,1 H 5.196742 C 4.084091,1.0015 3.017281,1.44383 2.230622,2.230652 1.443769,3.017322 1.001262,4.084056 1,5.196749 V 16.803451 16.8033 c 8.62e-4,1.112617 0.443769,2.179389 1.230622,2.96606 0.786659,0.786822 1.853469,1.229367 2.96612,1.230652 h 11.606699 -1.9e-4 c 1.11265,-0.0012 2.17946,-0.44383 2.96611,-1.230652 0.78686,-0.786671 1.22937,-1.853443 1.23063,-2.96606 V 5.196976 c -0.002,-1.112655 -0.44377,-2.179427 -1.23063,-2.966098 -0.78665,-0.786822 -1.85346,-1.229367 -2.96611,-1.230652 z M 5.617003,3.00005 h 10.765998 c 0.73924,0.0011 1.43628,-0.113764 1.959,0.408983 0.52269,0.522671 0.6571,1.018431 0.658,1.757669 v 11.833323 h -16 V 5.166702 C 3.000852,4.427464 3.135308,3.931741 3.658002,3.409033 4.18068,2.886362 4.87778,3.000957 5.617003,3.00005 Z"
       id="path1193-3-5-4"
       style="fill:#d3dae3;fill-opacity:1;stroke-width:0.0396828"
       sodipodi:nodetypes="ccccccccccccccccccccccccc" />
    <path
       d="m 15.151463,15.974039 c -0.281147,0 -0.57583,-0.137038 -0.788925,-0.325106 L 9.769152,11.890876 C 9.57039,11.71556 9.44683,11.471719 9.44683,11.202383 v 0 -0.0033 -6.245608 c 0,-0.540254 0.669535,-0.979463 1.276585,-0.979463 0.607037,0 1.354468,0.444835 1.276585,0.979492 v 5.246839 l 3.768479,3.034016 c 0.42797,0.380908 0.84821,0.722471 0.903205,1.292756 0.06373,0.660801 -0.416401,1.233121 -1.009587,1.446795"
       id="path6-5-0"
       style="fill:#d3dae3;fill-opacity:1;stroke-width:0.0168932"
       sodipodi:nodetypes="cccsccsssccsc" />
  </g>
  <g
     id="kalarm-partdisabled"
     transform="translate(64)">
    <rect
       style="opacity:0.00100002"
       width="32"
       height="32"
       x="0"
       y="0"
       id="rect27" />
    <path
       inkscape:connector-curvature="0"
       id="path9068-9-37-8-0-1-7"
       d="M 25.99902,5.95 5.7,5.950005 V 23.05 h 20.5 z"
       style="display:inline;overflow:visible;visibility:visible;opacity:0.6;fill:url(#linearGradient27353);fill-opacity:1.0;fill-rule:nonzero;stroke:none;stroke-width:0.655305;marker:none"
       sodipodi:nodetypes="cccccc" />
    <path
       d="M 21.384584,21.500014 H 10.615422 c -0.89217,1e-6 -1.615421,-0.723228 -1.615419,-1.615362 V 9.115432 c -2e-6,-0.892184 0.723249,-1.61542 1.615419,-1.615418 h 10.769162 c 0.892171,-2e-6 1.615421,0.723234 1.615419,1.615418 v 10.76922 c 2e-6,0.892134 -0.723248,1.615363 -1.615419,1.615362 z M 10.615422,8.576912 c -0.297413,0 -0.538444,0.241104 -0.538444,0.53852 v 10.76922 c 0,0.297359 0.241026,0.538459 0.538444,0.538462 h 10.769162 c 0.297418,0 0.538494,-0.241103 0.538494,-0.538462 z"
       id="path8-0"
       style="color:#eff0f1;fill:#d3dae3;fill-opacity:1;stroke-width:0.538451"
       sodipodi:nodetypes="ccccccccccscccsccc"
       class="ColorScheme-Text" />
    <path
       d="M 22.963628,4 H 9.036074 C 7.700894,4.0015 6.420752,4.532573 5.476757,5.476775 4.532571,6.420789 4.00153,7.700877 4,9.036069 v 13.928052 -1.91e-4 c 0.001,1.335156 0.532571,2.615282 1.476757,3.559294 0.943995,0.944202 2.224137,1.475226 3.559318,1.476775 h 13.928034 -1.94e-4 c 1.335183,-0.0015 2.615324,-0.532573 3.559319,-1.476775 0.944187,-0.944012 1.475232,-2.224138 1.476754,-3.559294 V 9.036334 C 27.998188,7.701178 27.46742,6.421052 26.523233,5.477039 25.579239,4.532838 24.299098,4.001816 22.963915,4.000265 Z M 9.200004,6.000014 h 13.599998 c 0.887095,0.0011 1.603761,0.04384 2.231,0.671243 0.627232,0.627212 0.967902,1.441663 0.969001,2.328757 v 14.000012 h -20 V 9.000014 C 6.001103,8.11292 6.341778,7.298508 6.969004,6.671257 7.596205,6.044044 8.31292,6.001109 9.200004,6.000014 Z"
       id="path1193-3-3"
       style="fill:#d3dae3;fill-opacity:1;stroke-width:0.047619"
       sodipodi:nodetypes="ccccccccccccccccccccccccc" />
  </g>
  <g
     id="kalarm-disabled"
     transform="translate(32)">
    <rect
       style="opacity:0.00100002"
       width="32"
       height="32"
       x="0"
       y="0"
       id="rect22" />
    <path
       inkscape:connector-curvature="0"
       id="path9068-9-37-8-0-1-2"
       d="m 26.1,5.9999975 -20.2,5e-6 V 23.099997 h 20.4 z"
       style="display:inline;overflow:visible;visibility:visible;opacity:0.6;fill:url(#linearGradient27330);fill-opacity:1.0;fill-rule:nonzero;stroke:none;stroke-width:0.653705;marker:none"
       sodipodi:nodetypes="cccccc" />
    <path
       d="M 13.083324,21.593774 C 11.933301,21.592274 11.001374,20.520058 11,19.312527 V 9.68752 c 0,-2.91666 4,-2.91666 4,0 v 9.718756 c -0.0012,1.207531 -0.76664,2.186059 -1.916676,2.187498 z"
       id="path8-5-3"
       style="color:#eff0f1;fill:#d3dae3;fill-opacity:1;stroke-width:0.426949"
       sodipodi:nodetypes="ccsscc"
       class="ColorScheme-Text" />
    <path
       d="M 18.916625,21.500025 C 17.766623,21.499039 17.001383,20.520058 17,19.312527 V 9.68752 c 0.004,-2.913315 3.996768,-2.913315 4,0 v 9.625007 c -9.97e-4,1.207531 -0.933335,2.186059 -2.083375,2.187498 z"
       id="path10-1"
       style="color:#eff0f1;fill:#d3dae3;fill-opacity:1;stroke-width:0.426949"
       sodipodi:nodetypes="cccccc"
       class="ColorScheme-Text" />
    <path
       d="M 22.963625,4 H 9.036071 C 7.70089,4.0015 6.420748,4.532573 5.476754,5.476775 4.532567,6.420788 4.001525,7.700876 4,9.036069 v 13.928051 -1.9e-4 c 0.0015,1.335156 0.532567,2.615282 1.476754,3.559294 0.943994,0.944202 2.224136,1.475226 3.559318,1.476775 h 13.928034 -1.94e-4 c 1.335183,-0.0015 2.615324,-0.532573 3.559318,-1.476775 0.944187,-0.944012 1.475232,-2.224138 1.476755,-3.559294 V 9.036334 C 27.998185,7.701178 27.467417,6.421052 26.52323,5.477039 25.579236,4.532837 24.299095,4.001815 22.963911,4.000265 Z M 9.2,6.000013 h 13.599999 c 0.887095,0.0011 1.603761,0.04384 2.231,0.671244 C 25.658231,7.298469 25.9989,8.11292 26,9.000013 V 23.000025 H 6 V 9.000013 C 6.0011,8.11292 6.341774,7.298507 6.969,6.671257 7.596201,6.044044 8.312916,6.001109 9.2,6.000013 Z"
       id="path1193-1"
       style="fill:#d3dae3;fill-opacity:1;stroke-width:0.047619"
       sodipodi:nodetypes="ccccccccccccccccccccccccc" />
  </g>
  <g
     id="kalarm">
    <rect
       style="opacity:0.00100002"
       width="32"
       height="32"
       x="0"
       y="0"
       id="rect17" />
    <path
       inkscape:connector-curvature="0"
       id="path9068-9-37-8-0-1"
       d="m 26,6 -20.2,5e-6 V 23.1 h 20.4 z"
       style="display:inline;overflow:visible;visibility:visible;opacity:0.6;fill:url(#linearGradient5058);fill-opacity:1.0;fill-rule:nonzero;stroke:none;stroke-width:0.653705;marker:none"
       sodipodi:nodetypes="cccccc" />
    <path
       d="M 22.963625,4 H 9.036071 C 7.700891,4.0015 6.420749,4.532573 5.476754,5.476775 4.532568,6.420788 4.001526,7.700876 4,9.036069 v 13.928051 -1.9e-4 c 0.0015,1.335156 0.532568,2.615282 1.476754,3.559294 0.943995,0.944202 2.224137,1.475226 3.559319,1.476775 h 13.928032 -1.94e-4 c 1.335183,-0.0015 2.615324,-0.532573 3.559319,-1.476775 0.944187,-0.944012 1.475232,-2.224138 1.476754,-3.559294 V 9.036334 C 27.998184,7.701178 27.467416,6.421052 26.523229,5.477039 25.579236,4.532837 24.299095,4.001815 22.963912,4.000265 Z M 9.200001,6.000013 h 13.599997 c 0.887096,0.0011 1.603761,0.04384 2.231001,0.671244 0.627232,0.627212 0.967901,1.441663 0.969,2.328756 V 23.000025 H 6 V 9.000013 C 6.0011,8.11292 6.341775,7.298507 6.969,6.671257 7.596202,6.044044 8.312917,6.001109 9.200001,6.000013 Z"
       id="path1193-3-3-5"
       style="fill:#d3dae3;fill-opacity:1;stroke-width:0.047619"
       sodipodi:nodetypes="ccccccccccccccccccccccccc" />
    <path
       d="m 20.702848,21.6 c -0.33035,0 -0.676606,-0.16102 -0.926994,-0.382 L 14.37858,16.802242 c -0.233548,-0.205998 -0.378732,-0.492514 -0.378732,-0.808987 v 0 -0.0037 V 8.6509 c 0,-0.634826 0.78671,-1.1509 1.5,-1.1509 0.713275,0 1.591513,0.522686 1.5,1.15091 V 14.816 l 4.428,3.565 c 0.502869,0.44757 0.996656,0.848912 1.061275,1.519 0.07488,0.776448 -0.489275,1.448929 -1.186275,1.7"
       id="path6-9"
       style="fill:#d3dae3;fill-opacity:1;stroke-width:0.01985"
       sodipodi:nodetypes="cccsccsssccsc" />
  </g>
  <style
     id="current-color-scheme"
     type="text/css">.ColorScheme-Text { color:#eff0f1; }
.ColorScheme-Highlight { color:#cdd8e5; }
</style>
  <metadata
     id="metadata38">
    <rdf:RDF>
      <cc:Work
         rdf:about="">
        <dc:format>image/svg+xml</dc:format>
        <dc:type
           rdf:resource="http://purl.org/dc/dcmitype/StillImage" />
      </cc:Work>
    </rdf:RDF>
  </metadata>
  <defs
     id="defs36">
    <linearGradient
       inkscape:collect="always"
       id="linearGradient1040">
      <stop
         style="stop-color:#ff5599;stop-opacity:1"
         offset="0"
         id="stop1036" />
      <stop
         style="stop-color:#55ddff;stop-opacity:1"
         offset="1"
         id="stop1038" />
    </linearGradient>
    <linearGradient
       inkscape:collect="always"
       id="linearGradient1034">
      <stop
         style="stop-color:#2ad4ff;stop-opacity:1"
         offset="0"
         id="stop1030" />
      <stop
         style="stop-color:#00d455;stop-opacity:1"
         offset="1"
         id="stop1032" />
    </linearGradient>
    <linearGradient
       inkscape:collect="always"
       id="linearGradient474">
      <stop
         style="stop-color:#ff9955;stop-opacity:1"
         offset="0"
         id="stop470" />
      <stop
         style="stop-color:#5599ff;stop-opacity:1"
         offset="1"
         id="stop472" />
    </linearGradient>
    <linearGradient
       inkscape:collect="always"
       xlink:href="#linearGradient474"
       id="linearGradient5058"
       x1="148.9608"
       y1="596.36218"
       x2="148.9608"
       y2="636.12817"
       gradientUnits="userSpaceOnUse"
       gradientTransform="matrix(0.50999969,0,0,0.42750131,-58.969959,-248.94562)" />
    <linearGradient
       inkscape:collect="always"
       xlink:href="#linearGradient1034"
       id="linearGradient27330"
       gradientUnits="userSpaceOnUse"
       gradientTransform="matrix(0.50999969,0,0,0.42750131,-58.869959,-248.94562)"
       x1="148.9608"
       y1="596.36218"
       x2="148.9608"
       y2="636.12817" />
    <linearGradient
       inkscape:collect="always"
       xlink:href="#linearGradient1040"
       id="linearGradient27353"
       gradientUnits="userSpaceOnUse"
       gradientTransform="matrix(0.51249971,0,0,0.42750131,-59.387461,-248.99562)"
       x1="148.9608"
       y1="596.36218"
       x2="148.9608"
       y2="636.12817" />
    <linearGradient
       inkscape:collect="always"
       xlink:href="#linearGradient474"
       id="linearGradient6958"
       gradientUnits="userSpaceOnUse"
       gradientTransform="matrix(0.43219982,0,0,0.36977632,-52.88937,-217.9162)"
       x1="146.80391"
       y1="596.36243"
       x2="146.99998"
       y2="636.3623" />
    <linearGradient
       inkscape:collect="always"
       xlink:href="#linearGradient1034"
       id="linearGradient6958-0"
       gradientUnits="userSpaceOnUse"
       gradientTransform="matrix(0.43219982,0,0,0.36977632,-52.489369,-217.9162)"
       x1="146.80391"
       y1="596.36243"
       x2="146.99998"
       y2="636.3623" />
    <linearGradient
       inkscape:collect="always"
       xlink:href="#linearGradient1040"
       id="linearGradient6958-9"
       gradientUnits="userSpaceOnUse"
       gradientTransform="matrix(0.43219982,0,0,0.36977632,-52.448623,-217.8207)"
       x1="146.80391"
       y1="596.36243"
       x2="146.99998"
       y2="636.3623" />
  </defs>
  <sodipodi:namedview
     pagecolor="#ffffff"
     bordercolor="#000000"
     borderopacity="1"
     objecttolerance="10"
     gridtolerance="10"
     guidetolerance="10"
     inkscape:pageopacity="0"
     inkscape:pageshadow="2"
     inkscape:window-width="1920"
     inkscape:window-height="994"
     id="namedview34"
     showgrid="false"
     inkscape:zoom="8.0000004"
     inkscape:cx="35.562498"
     inkscape:cy="6.8124997"
     inkscape:window-x="0"
     inkscape:window-y="0"
     inkscape:window-maximized="1"
     inkscape:current-layer="svg32"
     inkscape:document-rotation="0"
     inkscape:lockguides="false"
     inkscape:showpageshadow="true"
     inkscape:pagecheckerboard="0"
     inkscape:deskcolor="#b2b2b2">
    <inkscape:grid
       type="xygrid"
       id="grid27738"
       originx="64"
       originy="0" />
  </sodipodi:namedview>
  <g
     id="22-22-kalarm-disabled"
     transform="translate(32,-22)">
    <rect
       style="opacity:0.00100002"
       width="22"
       height="22"
       x="0"
       y="0"
       id="rect7" />
    <path
       inkscape:connector-curvature="0"
       id="path9068-9-37-8-0-1-0-1-3-7-4-6-1-9"
       d="M 19.518508,2.604497 2.4,2.604502 v 14.790996 h 17.288 z"
       style="display:inline;overflow:visible;visibility:visible;opacity:0.6;fill:url(#linearGradient6958-0);fill-opacity:1.0;fill-rule:nonzero;stroke:none;stroke-width:0.55969;marker:none"
       sodipodi:nodetypes="cccccc" />
    <path
       d="M 16.803011,1 H 5.196742 C 4.084091,1.0015 3.017281,1.44383 2.230622,2.230652 1.443769,3.017322 1.001262,4.084056 1,5.196749 V 16.803451 16.8033 c 8.62e-4,1.112617 0.443769,2.179389 1.230622,2.96606 0.786659,0.786822 1.853469,1.229367 2.96612,1.230652 h 11.606699 -1.9e-4 c 1.11265,-0.0012 2.17946,-0.44383 2.96611,-1.230652 0.78686,-0.786671 1.22937,-1.853443 1.23063,-2.96606 V 5.196976 c -0.002,-1.112655 -0.44377,-2.179427 -1.23063,-2.966098 -0.78665,-0.786822 -1.85346,-1.229367 -2.96611,-1.230652 z M 5.617003,3.00005 h 10.765998 c 0.73924,0.0011 1.43628,-0.113764 1.959,0.408983 0.52269,0.522671 0.6571,1.018431 0.658,1.757669 v 11.833323 h -16 V 5.166702 C 3.000852,4.427464 3.135308,3.931741 3.658002,3.409033 4.18068,2.886362 4.87778,3.000957 5.617003,3.00005 Z"
       id="path1193-3-7-3"
       style="fill:#d3dae3;fill-opacity:1;stroke-width:0.0396828"
       sodipodi:nodetypes="ccccccccccccccccccccccccc" />
    <path
       d="M 8.573828,16.000051 C 7.594651,15.998751 6.80117,15.085843 6.8,14.057702 V 5.862576 c 0,-2.483365 3.405765,-2.483365 3.405765,0 v 8.274949 c -10e-4,1.028138 -0.652749,1.861297 -1.631937,1.862526 z"
       id="path8-5-6-9"
       style="color:#eff0f1;fill:#d3dae3;fill-opacity:1;stroke-width:0.363523"
       sodipodi:nodetypes="ccsscc"
       class="ColorScheme-Text" />
    <path
       d="m 13.540541,15.920227 c -0.979159,-8.4e-4 -1.630716,-0.834384 -1.631893,-1.862525 V 5.862576 c 0.0034,-2.480516 3.403013,-2.480516 3.405765,0 v 8.195126 c -8.49e-4,1.028142 -0.79468,1.861301 -1.773872,1.862525 z"
       id="path10-2-1"
       style="color:#eff0f1;fill:#d3dae3;fill-opacity:1;stroke-width:0.363523"
       sodipodi:nodetypes="cccccc"
       class="ColorScheme-Text" />
  </g>
</svg>
