<?xml version="1.0" encoding="UTF-8" standalone="no"?>
<svg
   width="32"
   height="32"
   version="1"
   id="svg12"
   sodipodi:docname="kdeconnect.svg"
   inkscape:version="1.2.2 (b0a8486541, 2022-12-01)"
   xmlns:inkscape="http://www.inkscape.org/namespaces/inkscape"
   xmlns:sodipodi="http://sodipodi.sourceforge.net/DTD/sodipodi-0.dtd"
   xmlns:xlink="http://www.w3.org/1999/xlink"
   xmlns="http://www.w3.org/2000/svg"
   xmlns:svg="http://www.w3.org/2000/svg"
   xmlns:rdf="http://www.w3.org/1999/02/22-rdf-syntax-ns#"
   xmlns:cc="http://creativecommons.org/ns#"
   xmlns:dc="http://purl.org/dc/elements/1.1/">
  <g
     id="kdeconnect">
    <rect
       style="opacity:0.00100002"
       width="32"
       height="32"
       x="0"
       y="0"
       id="rect7" />
    <path
       inkscape:connector-curvature="0"
       id="path9068-9-37-8-0-1-3"
       d="M 24.137256,5.5 16.79324,5.5000031 7.7,5.500006 V 27.3 h 16.6 z"
       style="display:inline;overflow:visible;visibility:visible;opacity:0.6;fill:url(#linearGradient24643);fill-opacity:1;fill-rule:nonzero;stroke:none;stroke-width:0.665814;marker:none"
       sodipodi:nodetypes="cccccc" />
    <path
       sodipodi:nodetypes="ssssssssssssssccccc"
       style="color:#7b7c7e;fill:#d3dae3;fill-opacity:1;stroke-width:1.64195"
       d="M 9.205,4 C 7,4 6.999973,5.271957 7,6.936 l 2.94e-4,18.035085 c 2.7e-5,1.659478 0.0939,3.033703 2.08853,3.028903 l 13.782602,-0.03211 c 1.994147,-0.003 2.12805,-1.336044 2.128094,-2.995915 L 25,6.972 C 25.000044,5.312225 25,4 22.801,4 Z m 6.79328,20 C 18,24 19,24 19,25.5 19,27 18,27 16,27 14.135887,27 13,27 13,25.5 13,24 14.137062,24 15.99828,24 Z M 9,6 H 23 V 22 H 9 Z"
       id="rect2990-9"
       class="ColorScheme-Text"
       inkscape:connector-curvature="0" />
    <path
       style="color:#000000;clip-rule:nonzero;display:inline;overflow:visible;visibility:visible;isolation:auto;mix-blend-mode:normal;color-interpolation:sRGB;color-interpolation-filters:linearRGB;solid-color:#000000;solid-opacity:1;fill:#d3dae3;fill-opacity:1;fill-rule:nonzero;stroke:none;stroke-width:1.62935;stroke-linecap:butt;stroke-linejoin:miter;stroke-miterlimit:4;stroke-dasharray:none;stroke-dashoffset:0;stroke-opacity:1;color-rendering:auto;image-rendering:auto;shape-rendering:auto;text-rendering:auto;enable-background:accumulate"
       d="m 10.827701,10.075429 c -0.375452,0.0057 -0.750356,0.03257 -1.12214,0.0856 l -0.4369,2.094342 c -0.14369,0.03771 -0.28587,0.07966 -0.42666,0.126629 v 2.864869 c 0.60315,-0.350583 1.28811,-0.536058 1.9857,-0.537818 2.193339,0 3.971415,1.77808 3.971415,3.971406 -0.002,1.332171 -0.670116,2.575016 -1.781403,3.309554 h 3.529257 c 0.31751,-0.545966 0.555199,-1.134549 0.705894,-1.747829 l 2.09687,-0.439508 c 0.05226,-0.371875 0.07961,-0.746709 0.0825,-1.122194 -0.0054,-0.375452 -0.03233,-0.750321 -0.0854,-1.122091 l -2.094268,-0.436974 c -0.160757,-0.66384 -0.423293,-1.298811 -0.778277,-1.882365 l 1.173875,-1.794354 c -0.458727,-0.59456 -0.993362,-1.126527 -1.590148,-1.582331 l -1.789236,1.173816 c -0.583516,-0.354948 -1.218429,-0.617496 -1.882289,-0.778216 l -0.43697,-2.099485 c -0.371798,-0.05223 -0.74669,-0.07966 -1.122176,-0.08252 z"
       id="path6302-1-0"
       inkscape:connector-curvature="0"
       sodipodi:nodetypes="ccccccccccccccccccccc" />
  </g>
  <metadata
     id="metadata18">
    <rdf:RDF>
      <cc:Work
         rdf:about="">
        <dc:format>image/svg+xml</dc:format>
        <dc:type
           rdf:resource="http://purl.org/dc/dcmitype/StillImage" />
      </cc:Work>
    </rdf:RDF>
  </metadata>
  <defs
     id="defs16">
    <linearGradient
       inkscape:collect="always"
       id="linearGradient447">
      <stop
         style="stop-color:#aad400;stop-opacity:1"
         offset="0"
         id="stop443" />
      <stop
         style="stop-color:#5fd35f;stop-opacity:1"
         offset="1"
         id="stop445" />
    </linearGradient>
    <linearGradient
       inkscape:collect="always"
       xlink:href="#linearGradient447"
       id="linearGradient24643"
       gradientUnits="userSpaceOnUse"
       gradientTransform="matrix(0.41499977,0,0,0.54500168,-45.004969,-319.5184)"
       x1="147"
       y1="597.2796"
       x2="147"
       y2="637.64648" />
    <linearGradient
       inkscape:collect="always"
       xlink:href="#linearGradient447"
       id="linearGradient30095"
       gradientUnits="userSpaceOnUse"
       gradientTransform="matrix(0.29999982,0,0,0.45500146,-1.085975,-259.34567)"
       x1="145.9039"
       y1="598.56"
       x2="145.9039"
       y2="635.92249" />
  </defs>
  <sodipodi:namedview
     pagecolor="#ffffff"
     bordercolor="#000000"
     borderopacity="1"
     objecttolerance="10"
     gridtolerance="10"
     guidetolerance="10"
     inkscape:pageopacity="0"
     inkscape:pageshadow="2"
     inkscape:window-width="1920"
     inkscape:window-height="996"
     id="namedview14"
     showgrid="false"
     inkscape:zoom="9.8125003"
     inkscape:cx="31.5414"
     inkscape:cy="16.356687"
     inkscape:window-x="0"
     inkscape:window-y="0"
     inkscape:window-maximized="1"
     inkscape:current-layer="svg12"
     inkscape:document-rotation="0"
     inkscape:pagecheckerboard="0"
     inkscape:lockguides="true"
     inkscape:showpageshadow="2"
     inkscape:deskcolor="#c9c9c9"
     showguides="false">
    <inkscape:grid
       type="xygrid"
       id="grid30200"
       originx="32"
       originy="10" />
  </sodipodi:namedview>
  <g
     id="22-22-kdeconnect">
    <rect
       style="opacity:0.00100002"
       width="22"
       height="22"
       x="32"
       y="10"
       id="rect2" />
    <path
       inkscape:connector-curvature="0"
       id="path9068-9-37-8-0-1-3-6"
       d="m 48.896349,12 -5.308928,3e-6 -6.573421,2e-6 v 18.199997 h 12 z"
       style="display:inline;overflow:visible;visibility:visible;opacity:0.6;fill:url(#linearGradient30095);fill-opacity:1.0;fill-rule:nonzero;stroke:none;stroke-width:0.517245;marker:none"
       sodipodi:nodetypes="cccccc" />
    <path
       sodipodi:nodetypes="ssssssssssssssccccc"
       style="color:#7b7c7e;fill:#d3dae3;fill-opacity:1;stroke-width:1.32372"
       d="M 37.866667,11 C 36,11 36,12 36,14 v 14 c 0,2 -6e-6,3 1.866667,3 H 48.133333 C 50,31 50,30 50,28 V 14 c 0,-2 0,-3 -1.866667,-3 z m 5.151928,16 C 44.4,27 45.290828,27.01262 45.3119,28.5 45.33333,30.012847 44.399041,29.944863 43.018595,30 41.6,30.056661 40.666667,30 40.666667,28.499999 40.666667,27 41.6,27 43.018595,27 Z M 38,13 H 48 V 26 H 38 Z"
       id="rect2990-3-6"
       class="ColorScheme-Text"
       inkscape:connector-curvature="0" />
    <path
       style="color:#000000;clip-rule:nonzero;display:inline;overflow:visible;visibility:visible;isolation:auto;mix-blend-mode:normal;color-interpolation:sRGB;color-interpolation-filters:linearRGB;solid-color:#000000;solid-opacity:1;fill:#d3dae3;fill-opacity:1;fill-rule:nonzero;stroke:none;stroke-width:1.31485;stroke-linecap:butt;stroke-linejoin:miter;stroke-miterlimit:4;stroke-dasharray:none;stroke-dashoffset:0;stroke-opacity:1;color-rendering:auto;image-rendering:auto;shape-rendering:auto;text-rendering:auto;enable-background:accumulate"
       d="m 39.502452,16.5 c -0.302992,0.0046 -0.605536,0.02629 -0.905566,0.06908 l -0.352574,1.690123 c -0.115957,0.03043 -0.230696,0.06428 -0.344312,0.102189 v 2.311933 c 0.486738,-0.282919 1.039501,-0.432596 1.602452,-0.434016 1.770009,0 3.204906,1.434901 3.204906,3.204902 -0.0019,1.075053 -0.540777,2.078024 -1.437581,2.670792 h 2.848091 c 0.256226,-0.440595 0.448045,-0.915577 0.569651,-1.41049 l 1.692165,-0.354681 c 0.04214,-0.300101 0.06421,-0.60259 0.06657,-0.905604 -0.0047,-0.302988 -0.02611,-0.605506 -0.06891,-0.905522 l -1.690065,-0.352637 c -0.12973,-0.535716 -0.341596,-1.048133 -0.628065,-1.519058 l 0.947308,-1.448033 c -0.370189,-0.479807 -0.801633,-0.909102 -1.283241,-1.276933 l -1.4439,0.947264 C 41.808483,18.602869 41.296115,18.390995 40.760386,18.261294 L 40.40775,16.567021 c -0.300035,-0.04215 -0.602575,-0.06428 -0.905586,-0.06659 z"
       id="path6302-1-0-4"
       inkscape:connector-curvature="0"
       sodipodi:nodetypes="ccccccccccccccccccccc" />
  </g>
</svg>
