<?xml version="1.0" encoding="UTF-8" standalone="no"?>
<svg
   width="32"
   height="32"
   version="1.1"
   id="svg12"
   sodipodi:docname="keyboard.svg"
   inkscape:version="1.2.2 (b0a8486541, 2022-12-01)"
   xmlns:inkscape="http://www.inkscape.org/namespaces/inkscape"
   xmlns:sodipodi="http://sodipodi.sourceforge.net/DTD/sodipodi-0.dtd"
   xmlns:xlink="http://www.w3.org/1999/xlink"
   xmlns="http://www.w3.org/2000/svg"
   xmlns:svg="http://www.w3.org/2000/svg"
   xmlns:rdf="http://www.w3.org/1999/02/22-rdf-syntax-ns#"
   xmlns:cc="http://creativecommons.org/ns#"
   xmlns:dc="http://purl.org/dc/elements/1.1/">
  <g
     id="22-22-keyboard-layout"
     transform="translate(32,10)">
    <rect
       style="opacity:0.00100002"
       width="22"
       height="22"
       x="0"
       y="0"
       id="rect2" />
    <path
       inkscape:connector-curvature="0"
       id="path9068-9-37-8-0-1-4"
       d="M 19.987255,7.8 2,7.8000032 V 18.350002 h 18.014313 z"
       style="display:inline;overflow:visible;visibility:visible;opacity:0.6;fill:url(#linearGradient30974);fill-opacity:1.0;fill-rule:nonzero;stroke:none;stroke-width:0.482507;marker:none"
       sodipodi:nodetypes="ccccc" />
    <path
       d="M 6.714287,14.030324 H 5.285715 3.857143 c -0.714286,0 -0.714286,1.515146 0,1.515146 h 2.857144 c 0.714287,-1.13e-4 0.714287,-1.515251 0,-1.515146 z m 5.714283,-2.272712 h 0.714288 c 1.428572,0 1.428572,-1.515143 0,-1.515143 H 12.42857 c -1.42857,0 -1.42857,1.515143 0,1.515143 z m -3.571426,0 H 9.57143 c 1.42857,0 1.42857,-1.515143 0,-1.515143 H 8.857144 c -1.428571,0 -1.428571,1.515143 0,1.515143 z M 6.000001,10.242469 H 4.571429 c -1.206933,0.0053 -1.206933,1.509869 0,1.515143 h 1.428572 c 1.206931,-0.0052 1.206931,-1.509872 0,-1.515143 z M 18,6.000049 H 4 c -1.506188,0 -2.999941,1.592359 -3,3.129275 v 8.870725 c 0,2 1.493812,3 3,3 h 14 c 1.506181,0 3,-1 3,-3 V 9.129324 C 20.999939,7.592408 19.506183,6.000049 18,6.000049 Z m 1,10 c 0,0 0,1 -1,1 H 4 c -1,0 -1,-1 -1,-1 v -7 c 0,-1 1,-1 1,-1 h 14 c 0,0 1,0 1,1 z M 13.142858,14.030324 H 8.857144 c -0.714286,0 -0.714286,1.515146 0,1.515146 h 4.285714 c 0.714284,0 0.714284,-1.515146 0,-1.515146 z m 3.57143,-3.787855 H 16 c -1.42857,0 -1.42857,1.515143 0,1.515143 h 0.714288 c 1.42857,0 1.42857,-1.515143 0,-1.515143 z m 0,3.787855 v 0 0 H 16 c -0.714287,0 -0.714287,1.515146 0,1.515146 h 2.142858 c 0.714285,0 0.714285,-1.515146 0,-1.515146 z"
       id="path2-367-3-7-6"
       style="fill:#d3dae3;fill-opacity:1;stroke-width:0.918423"
       sodipodi:nodetypes="ccccccccccccccccccccccccccccccccccccccccccccccccccccccccc" />
    <path
       id="Keyboard-s-5-6-5-2"
       class="st1"
       d="M 14,3.000049 13.999954,1 H 16 v 2.379771 c 0,1.102122 -0.868792,2.142857 -2.050046,2.142857 h -1.1 c -0.393747,0 -0.85,0.254222 -0.85,0.621652 L 12,7.000049 H 10 V 6.14428 C 10,5.042158 11.068743,4 12.249999,4 h 1.199955 C 14,4.000049 13.999918,3.347181 13.999954,3.631219 14,4.000049 14,3.000049 14,3.000049 Z"
       style="clip-rule:evenodd;fill:#d3dae3;fill-opacity:1;fill-rule:evenodd;stroke-width:0.345748"
       sodipodi:nodetypes="cccccccccsccsc" />
  </g>
  <g
     id="keyboard-layout">
    <rect
       style="opacity:0.00100002"
       width="32"
       height="32"
       x="0"
       y="0"
       id="rect7" />
    <path
       inkscape:connector-curvature="0"
       id="path9068-9-37-8-0-1"
       d="M 28.082,11.999998 4,12.000002 V 25.55 h 24.118227 z"
       style="display:inline;overflow:visible;visibility:visible;opacity:0.6;fill:url(#linearGradient5058);fill-opacity:1;fill-rule:nonzero;stroke:none;stroke-width:0.63272;marker:none"
       sodipodi:nodetypes="ccccc" />
    <path
       d="M 10,21 H 8 6 c -1,0 -1,2 0,2 h 4 c 1.000003,-1.43e-4 1.000003,-2.000143 0,-2 z m 8,-3 h 1 c 2,0 2,-2 0,-2 h -1 c -2,0 -2,2 0,2 z m -5,0 h 1 c 2,0 2,-2 0,-2 h -1 c -2,0 -2,2 0,2 z M 9,16 H 7 c -1.689705,0.007 -1.689705,1.99304 0,2 h 2 c 1.689704,-0.007 1.689704,-1.99304 0,-2 z M 26,11 H 6 c -2.108663,0 -3.999917,1.501902 -4,3.530642 v 10.469357 c 8.3e-5,2.02874 1.891337,4 4,4 h 20 c 2.108658,0 3.999919,-1.97126 4,-4 V 14.530642 C 29.999919,12.501902 28.108658,11 26,11 Z m 2,12 c 0,0 0,2 -2,2 H 6 C 4,25 4,23 4,23 v -8 c 0,-2 2,-2 2,-2 h 20 c 0,0 2,0 2,2 z m -9,-2 h -6 c -1,0 -1,2 0,2 h 6 c 1,0 1,-2 0,-2 z m 5,-5 h -1 c -2,0 -2,2 0,2 h 1 c 2,0 2,-2 0,-2 z m 0,5 v 0 0 h -1 c -1,0 -1,2 0,2 h 3 c 1,0 1,-2 0,-2 z"
       id="path2-2"
       style="fill:#d3dae3;fill-opacity:1;stroke-width:1.24852"
       sodipodi:nodetypes="ccccccccccccccccccccccccccccccccccccccccccccccccccccccccc" />
    <path
       id="Keyboard-s-2"
       class="st1"
       d="m 21,5.9999997 v -3.000001 h 2 v 3.000001 c 0,1.542971 -1.424995,3 -3,3 h -2 c -0.525001,0 -1,0.355911 -1,0.870312 V 11 H 15 V 9.8703117 c 0,-1.54297 1.424997,-2.870312 3,-2.870312 h 2 c 0.525001,0 1,-0.485601 1,-1 z"
       style="clip-rule:evenodd;fill:#d3dae3;fill-opacity:1;fill-rule:evenodd;stroke-width:0.472384"
       sodipodi:nodetypes="sccccccccsccs" />
  </g>
  <metadata
     id="metadata18">
    <rdf:RDF>
      <cc:Work
         rdf:about="">
        <dc:format>image/svg+xml</dc:format>
        <dc:type
           rdf:resource="http://purl.org/dc/dcmitype/StillImage" />
      </cc:Work>
    </rdf:RDF>
  </metadata>
  <defs
     id="defs16">
    <linearGradient
       inkscape:collect="always"
       id="linearGradient1065">
      <stop
         style="stop-color:#5581aa;stop-opacity:1;"
         offset="0"
         id="stop1061" />
      <stop
         style="stop-color:#ffd556;stop-opacity:1"
         offset="1"
         id="stop1063" />
    </linearGradient>
    <linearGradient
       inkscape:collect="always"
       xlink:href="#linearGradient1065"
       id="linearGradient5058"
       x1="146.90196"
       y1="599.31421"
       x2="146.90196"
       y2="634.73846"
       gradientUnits="userSpaceOnUse"
       gradientTransform="matrix(0.6029553,0,0,0.33875109,-72.575321,-190.01835)" />
    <linearGradient
       inkscape:collect="always"
       xlink:href="#linearGradient1065"
       id="linearGradient30974"
       gradientUnits="userSpaceOnUse"
       gradientTransform="matrix(0.45035756,0,0,0.26375085,-55.195409,-149.49104)"
       x1="146.98412"
       y1="597.12067"
       x2="146.98412"
       y2="631.24377" />
  </defs>
  <sodipodi:namedview
     pagecolor="#ffffff"
     bordercolor="#000000"
     borderopacity="1"
     objecttolerance="10"
     gridtolerance="10"
     guidetolerance="10"
     inkscape:pageopacity="0"
     inkscape:pageshadow="2"
     inkscape:window-width="1920"
     inkscape:window-height="994"
     id="namedview14"
     showgrid="false"
     inkscape:zoom="9.8125"
     inkscape:cx="15.235669"
     inkscape:cy="22.522293"
     inkscape:window-x="0"
     inkscape:window-y="0"
     inkscape:window-maximized="1"
     inkscape:current-layer="svg12"
     inkscape:document-rotation="0"
     inkscape:lockguides="true"
     inkscape:showpageshadow="false"
     showguides="false"
     inkscape:pagecheckerboard="0"
     inkscape:deskcolor="#d1d1d1">
    <inkscape:grid
       type="xygrid"
       id="grid950"
       originx="0"
       originy="0" />
  </sodipodi:namedview>
</svg>
