<?xml version="1.0" encoding="UTF-8" standalone="no"?>
<svg
   width="32"
   height="32"
   version="1.1"
   id="svg12"
   sodipodi:docname="kget.svg"
   inkscape:version="1.2.2 (b0a8486541, 2022-12-01)"
   xmlns:inkscape="http://www.inkscape.org/namespaces/inkscape"
   xmlns:sodipodi="http://sodipodi.sourceforge.net/DTD/sodipodi-0.dtd"
   xmlns:xlink="http://www.w3.org/1999/xlink"
   xmlns="http://www.w3.org/2000/svg"
   xmlns:svg="http://www.w3.org/2000/svg"
   xmlns:rdf="http://www.w3.org/1999/02/22-rdf-syntax-ns#"
   xmlns:cc="http://creativecommons.org/ns#"
   xmlns:dc="http://purl.org/dc/elements/1.1/">
  <g
     id="kget">
    <rect
       style="opacity:0.00100002"
       width="32"
       height="32"
       x="0"
       y="0"
       id="rect7" />
    <path
       inkscape:connector-curvature="0"
       id="path9068-9-37-8-0-1"
       d="m 26,6 -20.2,5e-6 V 23.1 h 20.4 z"
       style="display:inline;overflow:visible;visibility:visible;opacity:1;fill:url(#linearGradient5058);fill-opacity:1;fill-rule:nonzero;stroke:none;stroke-width:0.653705;marker:none"
       sodipodi:nodetypes="cccccc" />
    <path
       d="m 13.227896,8.402298 v 5.149436 H 11.33651 c -0.185427,0 -0.352317,0.09653 -0.426488,0.225295 -0.07416,0.144801 -0.05564,0.305741 0.07416,0.434454 l 4.672862,4.827597 c 0.09268,0.09656 0.222497,0.144831 0.352313,0.144831 0.12979,0 0.259605,-0.04824 0.352317,-0.144831 l 4.672844,-4.827597 c 0.111262,-0.112622 0.148344,-0.289653 0.07416,-0.434454 -0.09273,-0.144852 -0.241067,-0.225295 -0.426507,-0.225295 H 18.790813 V 8.402298 C 18.790814,8.177011 18.586843,8 18.327237,8 H 13.691484 C 13.431879,8 13.227895,8.177011 13.227896,8.402298 Z M 9.463664,19.999801 h 13.072842 c 0.259604,0 0.463583,0.274713 0.463583,0.5 0,0.225281 -0.203979,0.5 -0.463583,0.5 H 9.463664 c -0.259602,0 -0.463575,-0.274719 -0.463575,-0.5 0,-0.225287 0.203973,-0.5 0.463575,-0.5 z"
       id="path4-8"
       style="fill:#d3dae3;fill-opacity:1;stroke-width:0.172753"
       sodipodi:nodetypes="ccscccscccscssscccccccc" />
    <path
       d="M 22.963625,4 H 9.036071 C 7.70089,4.0015 6.420747,4.532573 5.476753,5.476774 4.532567,6.420786 4.001525,7.700875 4,9.036068 v 13.928051 -1.9e-4 c 0.0015,1.335156 0.532567,2.615282 1.476753,3.559294 0.943995,0.944202 2.224137,1.475226 3.559319,1.476775 h 13.928034 -1.94e-4 c 1.335183,-0.0015 2.615324,-0.532573 3.559318,-1.476775 0.944187,-0.944012 1.475232,-2.224138 1.476755,-3.559294 V 9.036333 C 27.998185,7.701177 27.467417,6.421051 26.52323,5.477038 25.579236,4.532836 24.299095,4.001814 22.963911,4.000264 Z M 9.200001,6.000012 h 13.599998 c 0.887095,0.0011 1.603761,0.04384 2.231,0.671244 C 25.658231,7.298468 25.9989,8.112919 26,9.000012 V 23.000024 H 6 V 9.000012 C 6.0011,8.112919 6.341774,7.298506 6.969,6.671256 7.596201,6.044043 8.312916,6.001108 9.200001,6.000012 Z"
       id="path1193-9"
       style="fill:#d3dae3;fill-opacity:1;stroke-width:0.047619"
       sodipodi:nodetypes="ccccccccccccccccccccccccc" />
  </g>
  <metadata
     id="metadata18">
    <rdf:RDF>
      <cc:Work
         rdf:about="">
        <dc:format>image/svg+xml</dc:format>
        <dc:type
           rdf:resource="http://purl.org/dc/dcmitype/StillImage" />
      </cc:Work>
    </rdf:RDF>
  </metadata>
  <defs
     id="defs16">
    <linearGradient
       inkscape:collect="always"
       id="linearGradient454">
      <stop
         style="stop-color:#ea95bf;stop-opacity:1"
         offset="0"
         id="stop450" />
      <stop
         style="stop-color:#fea75f;stop-opacity:1"
         offset="1"
         id="stop452" />
    </linearGradient>
    <linearGradient
       id="c"
       y1="13"
       y2="33"
       x2="0"
       gradientUnits="userSpaceOnUse"
       gradientTransform="matrix(1,0,0,-1,384.57,547.8)">
      <stop
         stop-color="#197cf1"
         id="stop12" />
      <stop
         offset="1"
         stop-color="#20bcfa"
         id="stop14" />
    </linearGradient>
    <linearGradient
       xlink:href="#c"
       id="d"
       y1="14"
       y2="33"
       x2="0"
       gradientUnits="userSpaceOnUse"
       gradientTransform="matrix(1,0,0,-1,-8,37)" />
    <linearGradient
       id="linearGradient917"
       y1="13"
       y2="33"
       x2="0"
       gradientUnits="userSpaceOnUse"
       gradientTransform="matrix(1,0,0,-1,384.57,547.8)">
      <stop
         stop-color="#197cf1"
         id="stop913" />
      <stop
         offset="1"
         stop-color="#20bcfa"
         id="stop915" />
    </linearGradient>
    <linearGradient
       inkscape:collect="always"
       xlink:href="#linearGradient454"
       id="linearGradient5058"
       x1="148.9608"
       y1="596.36218"
       x2="148.9608"
       y2="636.12817"
       gradientUnits="userSpaceOnUse"
       gradientTransform="matrix(0.50999969,0,0,0.42750131,-58.969959,-248.94562)" />
    <linearGradient
       inkscape:collect="always"
       xlink:href="#linearGradient454"
       id="linearGradient6958"
       gradientUnits="userSpaceOnUse"
       gradientTransform="matrix(0.43219982,0,0,0.36977632,-52.533369,-217.67921)"
       x1="146.80391"
       y1="596.36243"
       x2="146.99998"
       y2="636.3623" />
  </defs>
  <sodipodi:namedview
     pagecolor="#ffffff"
     bordercolor="#666666"
     borderopacity="1"
     objecttolerance="10"
     gridtolerance="10"
     guidetolerance="10"
     inkscape:pageopacity="0"
     inkscape:pageshadow="2"
     inkscape:window-width="1920"
     inkscape:window-height="994"
     id="namedview14"
     showgrid="false"
     inkscape:zoom="9.8125003"
     inkscape:cx="15.847133"
     inkscape:cy="19.7707"
     inkscape:window-x="0"
     inkscape:window-y="0"
     inkscape:window-maximized="1"
     inkscape:current-layer="svg12"
     inkscape:document-rotation="0"
     inkscape:pagecheckerboard="0"
     inkscape:lockguides="false"
     inkscape:showpageshadow="2"
     inkscape:deskcolor="#d1d1d1">
    <inkscape:grid
       type="xygrid"
       id="grid849"
       originx="0"
       originy="0" />
  </sodipodi:namedview>
  <g
     id="22-22-kget"
     transform="translate(32,9.9978008)">
    <rect
       style="opacity:0.00100002"
       width="22"
       height="22"
       x="0"
       y="2.7026367e-08"
       id="rect2" />
    <path
       inkscape:connector-curvature="0"
       id="path9068-9-37-8-0-1-0-1-3-7-4-6-1"
       d="M 19.474508,2.8414909 2.356,2.8414957 V 17.632492 h 17.288 z"
       style="display:inline;overflow:visible;visibility:visible;opacity:1;fill:url(#linearGradient6958);fill-opacity:1;fill-rule:nonzero;stroke:none;stroke-width:0.55969;marker:none"
       sodipodi:nodetypes="cccccc" />
    <path
       d="M 9.019866,5.316091 V 9.36207 H 7.668874 C 7.536426,9.36207 7.41722,9.43793 7.36424,9.539085 7.31126,9.652872 7.32451,9.779314 7.41722,9.880456 l 3.337758,3.793111 c 0.06618,0.07585 0.158926,0.11379 0.251652,0.11379 0.09273,0 0.185436,-0.03786 0.251656,-0.11379 l 3.337741,-3.793111 c 0.07947,-0.0885 0.105961,-0.227584 0.05298,-0.341371 C 14.582777,9.425285 14.47682,9.36207 14.344365,9.36207 h -1.35098 V 5.316091 C 12.993383,5.13908 12.847693,5 12.662261,5 H 9.351002 C 9.16557,5 9.019869,5.13908 9.019869,5.316091 Z M 6.331128,14 h 9.337745 c 0.185433,0 0.331129,0.322991 0.331129,0.5 0,0.177015 -0.145696,0.5 -0.331129,0.5 H 6.331128 c -0.185431,0 -0.331126,-0.322985 -0.331126,-0.5 0,-0.177009 0.145695,-0.5 0.331126,-0.5 z"
       id="path4-5-5"
       style="fill:#d3dae3;fill-opacity:1;stroke-width:0.129423"
       sodipodi:nodetypes="ccscccscccscsssccccccccc" />
    <path
       d="M 16.803011,1 H 5.196742 C 4.084091,1.0015 3.017281,1.44383 2.230622,2.230652 1.443769,3.017323 1.001262,4.084056 1,5.196749 V 16.803451 16.8033 c 8.62e-4,1.112617 0.443769,2.179389 1.230622,2.96606 0.786659,0.786822 1.853469,1.229367 2.96612,1.230652 h 11.606699 -1.9e-4 c 1.11265,-0.0012 2.17946,-0.44383 2.96611,-1.230652 0.78686,-0.786671 1.22937,-1.853443 1.23063,-2.96606 V 5.196976 c -0.002,-1.112655 -0.44377,-2.179427 -1.23063,-2.966097 -0.78665,-0.786823 -1.85346,-1.229367 -2.96611,-1.230653 z M 5.617003,3.00005 h 10.765998 c 0.73924,0.0011 1.43628,-0.113764 1.959,0.408983 0.52269,0.522671 0.6571,1.018431 0.658,1.757669 v 11.833323 h -16 V 5.166702 C 3.000852,4.427464 3.135308,3.931741 3.658002,3.409033 4.18068,2.886362 4.87778,3.000957 5.617003,3.00005 Z"
       id="path1193-3-6"
       style="fill:#d3dae3;fill-opacity:1;stroke-width:0.0396828"
       sodipodi:nodetypes="ccccccccccccccccccccccccc" />
  </g>
</svg>
