<?xml version="1.0" encoding="UTF-8" standalone="no"?>
<svg
   width="32"
   height="32"
   version="1.1"
   id="svg12"
   sodipodi:docname="kgpg.svg"
   inkscape:version="1.2.2 (b0a8486541, 2022-12-01)"
   xmlns:inkscape="http://www.inkscape.org/namespaces/inkscape"
   xmlns:sodipodi="http://sodipodi.sourceforge.net/DTD/sodipodi-0.dtd"
   xmlns:xlink="http://www.w3.org/1999/xlink"
   xmlns="http://www.w3.org/2000/svg"
   xmlns:svg="http://www.w3.org/2000/svg"
   xmlns:rdf="http://www.w3.org/1999/02/22-rdf-syntax-ns#"
   xmlns:cc="http://creativecommons.org/ns#"
   xmlns:dc="http://purl.org/dc/elements/1.1/">
  <g
     id="22-22-kgpg"
     transform="translate(32,10.000001)">
    <rect
       style="opacity:0.00100002"
       width="22"
       height="22"
       x="0"
       y="0"
       id="rect2" />
    <path
       inkscape:connector-curvature="0"
       id="path9068-9-37-8-0-1-0-1-3-7-4-6-1"
       d="M 19.474508,2.4953153 2.356,2.4953203 V 17.286316 h 17.288 z"
       style="display:inline;overflow:visible;visibility:visible;opacity:1;fill:url(#linearGradient6958);fill-opacity:1;fill-rule:nonzero;stroke:none;stroke-width:0.55969;marker:none"
       sodipodi:nodetypes="cccccc" />
    <path
       d="m 11.000093,11.048013 c -0.230768,0 -0.5,0.189587 -0.5,0.422039 v 0.636353 c 0,0.232451 0.269231,0.422038 0.5,0.422038 0.230768,0 0.5,-0.189587 0.5,-0.422038 v -0.637178 c 0,-0.23245 -0.269232,-0.421214 -0.5,-0.421214 z"
       id="path6-7-7"
       sodipodi:nodetypes="sssssss"
       style="fill:#d3dae3;fill-opacity:1;stroke-width:0.821305" />
    <path
       d="M 13.610021,8.665305 V 6.187616 c 0,-1.205785 -1.147471,-2.187603 -2.560373,-2.187603 -1.412004,0 -2.560376,0.981818 -2.560376,2.187603 V 8.66613 c -1.143901,0.766114 -1.839179,1.949585 -1.839179,3.265288 0,2.2438 1.974123,4.068595 4.400446,4.068595 2.426327,0 4.399554,-1.824795 4.399554,-4.068595 -9.14e-4,-1.31653 -0.697062,-2.500001 -1.840072,-3.266113 z M 9.648367,6.187616 c 0,-0.614048 0.628258,-1.114049 1.401281,-1.114049 0.772132,0 1.40038,0.500001 1.40038,1.114049 v 1.890907 c -0.05721,-0.01736 -0.114379,-0.03552 -0.172479,-0.05207 -0.08039,-0.02067 -0.164431,-0.04216 -0.249329,-0.05867 -0.06611,-0.01403 -0.128687,-0.02477 -0.192139,-0.03638 -0.08667,-0.01403 -0.177841,-0.02725 -0.26989,-0.038 l -0.127803,-0.01156 c -0.127793,-0.01073 -0.257368,-0.01819 -0.389632,-0.01819 -0.131373,0 -0.261851,0.0082 -0.390533,0.01819 l -0.119759,0.01155 c -0.100118,0.01073 -0.191243,0.02397 -0.281507,0.03968 -0.05807,0.01074 -0.120643,0.02067 -0.182311,0.03389 -0.08934,0.01819 -0.173371,0.03968 -0.25648,0.06116 -0.05539,0.01571 -0.113501,0.03302 -0.170693,0.05123 V 6.187626 Z m 2.962521,5.981821 c 0,0.75041 -0.749784,1.360328 -1.560349,1.360328 -0.811453,0 -1.561244,-0.609918 -1.561244,-1.360328 v -0.638845 c 0,-0.750416 0.749791,-1.360332 1.561244,-1.360332 0.811455,0 1.560349,0.609916 1.560349,1.360332 z"
       id="path8-5-2"
       sodipodi:nodetypes="cssscsscccssccccccsccccccccsssssss"
       style="fill:#d3dae3;fill-opacity:1;stroke-width:0.859393" />
    <path
       d="M 16.803012,1 H 5.196742 C 4.084091,1.0015 3.017281,1.44383 2.230622,2.230652 1.443769,3.017322 1.001262,4.084056 1,5.196749 V 16.803451 16.8033 c 8.62e-4,1.112617 0.443769,2.179389 1.230622,2.96606 0.786659,0.786822 1.853469,1.229367 2.96612,1.230652 h 11.6067 -1.91e-4 c 1.11265,-0.0012 2.17946,-0.44383 2.96611,-1.230652 0.78686,-0.786671 1.229371,-1.853443 1.23063,-2.96606 V 5.196976 c -0.002,-1.112655 -0.44377,-2.179427 -1.23063,-2.966098 -0.78665,-0.786822 -1.85346,-1.229366 -2.96611,-1.230652 z M 5.617003,3.00005 h 10.765999 c 0.73924,0.0011 1.436279,-0.113764 1.959,0.408983 0.52269,0.522671 0.6571,1.018431 0.658,1.757669 l 9e-5,14.83331 h -16 L 3.000001,5.166702 C 3.000852,4.427464 3.135308,3.931741 3.658002,3.409033 4.18068,2.886362 4.87778,3.000957 5.617003,3.00005 Z"
       id="path1193-3-8"
       style="fill:#d3dae3;fill-opacity:1;stroke-width:0.0396828"
       sodipodi:nodetypes="ccccccccccccccccccccccccc" />
    <path
       d="m 19.000092,17.000012 h -14 -2 v 3 h 16 z m -10.959897,2 c 0.120372,0.08113 0.140306,0.230281 0.04523,0.332989 -0.05521,0.05889 -0.1357,0.08897 -0.217741,0.08897 -0.06058,0 -0.121901,-0.01637 -0.1725,-0.05101 l -0.27446,-0.185814 h -0.0053 -0.0069 -0.0069 -0.0069 -0.0069 -0.0069 -0.0069 -7.34e-4 l -0.0015,0.210657 c -0.0015,0.130183 -0.125735,0.234851 -0.278305,0.234851 h -0.0023 c -0.153365,-6.66e-4 -0.2768,-0.107941 -0.276034,-0.23878 l 0.0015,-0.206728 h -0.0046 -0.0069 -0.0069 -0.0069 -0.0069 -0.0069 -0.0069 -0.0061 v 0 L 6.493142,19.36309 c -0.05061,0.03339 -0.109635,0.04909 -0.16867,0.04909 -0.08357,0 -0.165601,-0.03141 -0.220036,-0.09159 -0.09434,-0.104027 -0.07134,-0.252531 0.04979,-0.332343 l 0.169429,-0.111213 c -0.23669,-0.12329 -0.229028,-0.34497 0,-0.433736 L 6.159566,18.33208 c -0.120368,-0.08112 -0.140303,-0.230279 -0.04523,-0.332987 0.0966,-0.102708 0.271404,-0.119066 0.39024,-0.03859 l 0.274471,0.185789 h 0.0061 0.0069 0.0069 0.0069 0.0069 0.0069 0.0069 7.33e-4 l 0.0015,-0.210654 c 8e-4,-0.130838 0.09507,-0.236162 0.279837,-0.234854 0.153336,8e-4 0.276771,0.107944 0.276005,0.238784 l -0.0031,0.206724 h 0.0061 0.0069 0.0069 0.0069 0.0069 0.0069 0.0069 0.0061 l 0.271405,-0.1786 c 0.121909,-0.07916 0.296709,-0.05889 0.389472,0.04319 0.09354,0.104018 0.07054,0.252521 -0.05058,0.332333 L 7.87599,18.454429 c 0.09585,0.04345 0.151742,0.110592 0.161556,0.183679 0.01138,0.08481 -0.03927,0.17763 -0.161556,0.250707 z m 3.959897,0 c 0.120372,0.08113 0.140308,0.230937 0.04523,0.332989 -0.05515,0.05889 -0.135701,0.08897 -0.217729,0.08897 -0.06058,0 -0.121907,-0.01637 -0.17251,-0.05101 l -0.274468,-0.185804 h -0.0059 -0.0069 -0.0066 -0.0069 -0.0069 -0.0069 -0.0069 -8e-4 l -0.0017,0.210652 c -0.0017,0.130188 -0.124968,0.234857 -0.277539,0.234857 h -0.0025 c -0.153336,-8e-4 -0.27677,-0.107942 -0.276004,-0.23878 l 0.0017,-0.206729 h -0.0066 -0.0069 -0.0069 -0.0069 -0.0069 -0.0069 -0.0069 -0.0069 v 0 l -0.271405,0.177944 c -0.05059,0.03338 -0.109635,0.04908 -0.168668,0.04908 -0.08357,0 -0.165604,-0.03141 -0.220039,-0.09159 -0.09353,-0.104018 -0.07053,-0.252521 0.05063,-0.332333 l 0.169359,-0.111214 c -0.16229,-0.14949 -0.192982,-0.288765 0,-0.433731 l -0.163035,-0.110568 c -0.120368,-0.08112 -0.140301,-0.23093 -0.04523,-0.332987 0.09584,-0.102709 0.271408,-0.119063 0.390241,-0.03861 l 0.27447,0.185791 h 0.0057 0.0069 0.0069 0.0069 0.0069 0.0069 0.0069 8e-4 l 0.0017,-0.210653 c 0.0017,-0.130838 0.121902,-0.236163 0.279838,-0.234856 0.153335,8e-4 0.276771,0.107944 0.276006,0.238786 l -0.0017,0.206723 h 0.0066 0.0069 0.0069 0.0069 0.0069 0.0069 0.0069 0.0069 l 0.271404,-0.178593 c 0.121904,-0.07916 0.295939,-0.05955 0.389473,0.04319 0.09354,0.104017 0.07053,0.25252 -0.05059,0.332333 l -0.169398,0.111213 c 0.17354,0.150343 0.186404,0.294745 0,0.434389 z m 3.960666,0 c 0.120362,0.08113 0.140294,0.230937 0.04523,0.332989 -0.05515,0.05889 -0.135699,0.08897 -0.217739,0.08897 -0.06058,0 -0.121896,-0.01637 -0.172499,-0.05101 l -0.274471,-0.185797 h -0.0057 -0.0069 -0.0069 -0.0069 -0.0069 -0.0069 -0.0066 -8e-4 l -0.0017,0.210651 c -0.0017,0.13019 -0.124969,0.234858 -0.277538,0.234858 h -0.0025 c -0.153336,-8e-4 -0.276772,-0.107942 -0.276005,-0.23878 l 0.0017,-0.206729 h -0.0066 -0.0069 -0.0069 -0.0066 -0.0069 -0.0069 -0.0069 -0.0069 v 0 l -0.270483,0.177943 c -0.05058,0.03338 -0.109633,0.04909 -0.168668,0.04909 -0.08357,0 -0.165601,-0.0314 -0.220034,-0.09159 -0.09354,-0.104018 -0.07054,-0.252521 0.05059,-0.332333 l 0.169436,-0.111214 c -0.197086,-0.166483 -0.199046,-0.311279 0,-0.433733 l -0.163189,-0.110583 c -0.120366,-0.08112 -0.140301,-0.230928 -0.04523,-0.332983 0.09584,-0.102713 0.27064,-0.119064 0.390244,-0.03862 l 0.274467,0.185792 h 0.0059 0.0069 0.0069 0.0069 0.0069 0.0069 0.0069 8e-4 l 0.0017,-0.21065 c 0.0017,-0.130189 0.12497,-0.234856 0.277538,-0.234856 h 0.0025 c 0.153334,8e-4 0.276772,0.10794 0.276005,0.238778 l -0.0033,0.206072 h 0.0066 0.0069 0.0069 0.0069 0.0069 0.0069 0.0069 0.0069 l 0.271456,-0.178598 c 0.121904,-0.07916 0.296706,-0.05955 0.389474,0.04319 0.09353,0.104013 0.07053,0.252521 -0.05058,0.332333 l -0.169437,0.111211 c 0.173207,0.130367 0.198811,0.273029 0,0.434388 z"
       id="path2-36-6-2"
       sodipodi:nodetypes="cccccccccscccccccccccscccccccccccccsccccccccccccccccccccccccccccccccsccccscccccccccccscccccccccccccsccccccccccccccccccccccccccccccccccccscccccccccccscccccccccccccscccccccccccccccccscccccccccccccccc"
       style="fill:#d3dae3;fill-opacity:1;stroke-width:0.708213" />
  </g>
  <metadata
     id="metadata18">
    <rdf:RDF>
      <cc:Work
         rdf:about="">
        <dc:format>image/svg+xml</dc:format>
        <dc:type
           rdf:resource="http://purl.org/dc/dcmitype/StillImage" />
      </cc:Work>
    </rdf:RDF>
  </metadata>
  <defs
     id="defs16">
    <linearGradient
       inkscape:collect="always"
       id="linearGradient451">
      <stop
         style="stop-color:#5581aa;stop-opacity:1;"
         offset="0"
         id="stop447" />
      <stop
         style="stop-color:#e77681;stop-opacity:1"
         offset="1"
         id="stop449" />
    </linearGradient>
    <linearGradient
       inkscape:collect="always"
       xlink:href="#linearGradient451"
       id="linearGradient5058"
       x1="148.9608"
       y1="596.36218"
       x2="148.9608"
       y2="636.12817"
       gradientUnits="userSpaceOnUse"
       gradientTransform="matrix(0.50999969,0,0,0.42750131,-58.969959,-248.94562)" />
    <linearGradient
       inkscape:collect="always"
       xlink:href="#linearGradient451"
       id="linearGradient6958"
       gradientUnits="userSpaceOnUse"
       gradientTransform="matrix(0.43219982,0,0,0.36977632,-52.533369,-218.02538)"
       x1="146.80391"
       y1="596.36243"
       x2="146.99998"
       y2="636.3623" />
  </defs>
  <sodipodi:namedview
     pagecolor="#ffffff"
     bordercolor="#000000"
     borderopacity="1"
     objecttolerance="10"
     gridtolerance="10"
     guidetolerance="10"
     inkscape:pageopacity="0"
     inkscape:pageshadow="2"
     inkscape:window-width="1920"
     inkscape:window-height="994"
     id="namedview14"
     showgrid="false"
     inkscape:zoom="9.8125003"
     inkscape:cx="20.840764"
     inkscape:cy="18.038216"
     inkscape:window-x="0"
     inkscape:window-y="0"
     inkscape:window-maximized="1"
     inkscape:current-layer="svg12"
     inkscape:document-rotation="0"
     inkscape:lockguides="false"
     inkscape:showpageshadow="false"
     inkscape:pagecheckerboard="0"
     inkscape:deskcolor="#d1d1d1">
    <inkscape:grid
       type="xygrid"
       id="grid871"
       originx="-1e-06"
       originy="0" />
  </sodipodi:namedview>
  <g
     id="kgpg">
    <rect
       style="opacity:0.00100002"
       width="32"
       height="32"
       x="0"
       y="0"
       id="rect7" />
    <path
       inkscape:connector-curvature="0"
       id="path9068-9-37-8-0-1"
       d="m 26.2,6 -20.4,5e-6 V 23.1 h 20.4 z"
       style="display:inline;overflow:visible;visibility:visible;opacity:1;fill:url(#linearGradient5058);fill-opacity:1;fill-rule:nonzero;stroke:none;stroke-width:0.653705;marker:none"
       sodipodi:nodetypes="ccccc" />
    <path
       d="m 16.046857,15.947383 c -0.32162,0 -0.696857,0.249458 -0.696857,0.555316 v 0.837308 c 0,0.305857 0.375236,0.555315 0.696857,0.555315 0.321617,0 0.696854,-0.249458 0.696854,-0.555315 v -0.838398 c 0,-0.305856 -0.375237,-0.554226 -0.696854,-0.554226 z"
       id="path6-73-9"
       sodipodi:nodetypes="sssssss"
       style="fill:#d3dae3;fill-opacity:1;stroke-width:1.1122" />
    <path
       d="M 19.112638,12.831635 V 9.734517 c 0,-1.507232 -1.395222,-2.734505 -3.113184,-2.734505 -1.71686,0 -3.113185,1.227273 -3.113185,2.734505 v 3.098148 c -1.390876,0.957626 -2.236268,2.43697 -2.236268,4.081604 0,2.804761 2.400352,5.085743 5.350537,5.085743 2.950198,0 5.349463,-2.280982 5.349463,-5.085743 -0.0012,-1.645664 -0.847571,-3.125008 -2.237363,-4.082634 z M 14.295627,9.734517 c 0,-0.767563 0.763896,-1.392563 1.703827,-1.392563 0.938847,0 1.702743,0.625 1.702743,1.392563 v 2.363623 c -0.06956,-0.02172 -0.139085,-0.04431 -0.209715,-0.06511 -0.0978,-0.02589 -0.199948,-0.05272 -0.303166,-0.07332 -0.0804,-0.01748 -0.156477,-0.03088 -0.233632,-0.04554 -0.105403,-0.01748 -0.216236,-0.034 -0.328166,-0.04743 l -0.155379,-0.01437 c -0.155386,-0.01341 -0.312942,-0.02277 -0.47377,-0.02277 -0.159733,0 -0.318375,0.01029 -0.474846,0.02277 l -0.145614,0.01436 c -0.121706,0.01341 -0.232541,0.02995 -0.342287,0.04961 -0.07058,0.01341 -0.146691,0.02589 -0.221673,0.04242 -0.108663,0.02277 -0.2108,0.04961 -0.311868,0.07644 -0.06731,0.01965 -0.137999,0.04129 -0.20754,0.06397 V 9.734519 Z m 3.60216,7.47727 c 0,0.938016 -0.911673,1.700403 -1.897249,1.700403 -0.986644,0 -1.898322,-0.762387 -1.898322,-1.700403 V 16.41323 c 0,-0.938004 0.911678,-1.700417 1.898322,-1.700417 0.986661,0 1.897249,0.762413 1.897249,1.700417 z"
       id="path8-6-3"
       sodipodi:nodetypes="cssscsscccssccccccsccccccccsssssss"
       style="fill:#d3dae3;fill-opacity:1;stroke-width:1.05947" />
    <path
       d="M 22.963625,4 H 9.036071 C 7.70089,4.0015 6.420747,4.532573 5.476753,5.476774 4.532567,6.420786 4.001525,7.700875 4,9.036068 v 13.928051 -1.9e-4 c 0.0015,1.335156 0.532567,2.615282 1.476753,3.559294 0.943995,0.944202 2.224137,1.475226 3.559319,1.476775 h 13.928034 -1.94e-4 c 1.335183,-0.0015 2.615324,-0.532573 3.559318,-1.476775 0.944187,-0.944012 1.475232,-2.224138 1.476755,-3.559294 V 9.036333 C 27.998185,7.701177 27.467417,6.421051 26.52323,5.477038 25.579236,4.532836 24.299095,4.001814 22.963911,4.000264 Z M 9.200001,6.000012 h 13.599998 c 0.887095,0.0011 1.603761,0.04384 2.231,0.671244 C 25.658231,7.298468 25.9989,8.112919 26,9.000012 v 17.6 l -20,-0.1 v -17.5 C 6.0011,8.112919 6.341774,7.298506 6.969,6.671256 7.596201,6.044043 8.312916,6.001108 9.200001,6.000012 Z"
       id="path1193-1-1"
       style="fill:#d3dae3;fill-opacity:1;stroke-width:0.047619"
       sodipodi:nodetypes="ccccccccccccccccccccccccc" />
    <path
       d="M 26,23.000012 H 6 l 1e-6,1.908669 -1e-6,1.791331 20,0.1 z m -13.733508,2.589684 c 0.16611,0.121687 0.193618,0.345421 0.06242,0.499483 -0.0762,0.08833 -0.187261,0.133454 -0.300476,0.133454 -0.0836,0 -0.168219,-0.02455 -0.238044,-0.07651 l -0.37875,-0.278722 h -0.0074 -0.0095 -0.0095 -0.0095 -0.0095 -0.0095 -0.0095 -10e-4 l -0.0021,0.315986 c -0.0021,0.195274 -0.173511,0.352277 -0.384052,0.352277 h -0.0031 c -0.211676,-9.99e-4 -0.382013,-0.161912 -0.380955,-0.35817 l 0.0021,-0.310093 h -0.0064 -0.0095 -0.0095 -0.0095 -0.0095 -0.0095 -0.0095 -0.0085 v 0 l -0.374537,0.266915 c -0.06984,0.05009 -0.151293,0.07363 -0.23276,0.07363 -0.115319,0 -0.228524,-0.04711 -0.303643,-0.137383 -0.130186,-0.15604 -0.09845,-0.378797 0.06871,-0.498514 l 0.233807,-0.16682 c -0.326625,-0.184935 -0.316052,-0.517455 0,-0.650604 L 9.671253,24.587798 C 9.505148,24.466113 9.47764,24.242379 9.608833,24.088317 c 0.133306,-0.154062 0.374529,-0.178599 0.538519,-0.05788 l 0.378762,0.278683 h 0.0085 0.0095 0.0095 0.0095 0.0095 0.0095 0.0095 10e-4 l 0.0021,-0.31598 c 0.0011,-0.196257 0.131191,-0.354243 0.386167,-0.352281 0.211599,0.0012 0.381937,0.161916 0.380879,0.358175 l -0.0042,0.310086 h 0.0085 0.0095 0.0095 0.0095 0.0095 0.0095 0.0095 0.0085 l 0.374533,-0.2679 c 0.168229,-0.118733 0.409449,-0.08833 0.537459,0.06479 0.129084,0.156027 0.09734,0.378782 -0.06981,0.4985 l -0.233807,0.16682 c 0.132274,0.06518 0.209401,0.165888 0.222943,0.275519 0.01572,0.127222 -0.05418,0.266445 -0.222943,0.376061 z m 5.464541,0 c 0.166109,0.121687 0.193619,0.346406 0.06242,0.499483 -0.07611,0.08833 -0.187264,0.133454 -0.300459,0.133454 -0.0836,0 -0.168229,-0.02455 -0.238059,-0.07651 l -0.378763,-0.278706 h -0.0081 -0.0095 -0.0091 -0.0095 -0.0095 -0.0095 -0.0095 -0.0011 l -0.0023,0.315978 c -0.0023,0.195282 -0.172453,0.352285 -0.382996,0.352285 h -0.0034 c -0.211599,-0.0012 -0.381934,-0.161913 -0.380878,-0.35817 l 0.0023,-0.310093 h -0.0091 -0.0095 -0.0095 -0.0095 -0.0094 -0.0095 -0.0095 -0.0095 v 0 l -0.374531,0.266915 c -0.06981,0.05007 -0.151293,0.07362 -0.232757,0.07362 -0.115323,0 -0.228529,-0.04711 -0.303646,-0.137382 -0.129073,-0.156027 -0.09734,-0.378781 0.06987,-0.498499 l 0.233712,-0.166821 c -0.223956,-0.224235 -0.266311,-0.433147 0,-0.650597 l -0.224984,-0.165852 c -0.166105,-0.12168 -0.193613,-0.346395 -0.06242,-0.49948 0.132254,-0.154063 0.374534,-0.178595 0.538521,-0.05791 l 0.37876,0.278686 h 0.0079 0.0095 0.0095 0.0095 0.0095 0.0095 0.0095 0.0011 l 0.0023,-0.315979 c 0.0023,-0.196257 0.168221,-0.354245 0.386167,-0.352284 0.211597,0.0012 0.381936,0.161916 0.380881,0.358178 l -0.0023,0.310085 h 0.0091 0.0095 0.0095 0.0095 0.0095 0.0095 0.0095 0.0095 l 0.37453,-0.26789 c 0.168222,-0.118738 0.408386,-0.08932 0.537461,0.06479 0.129076,0.156025 0.09733,0.37878 -0.06983,0.498499 l -0.233763,0.16682 c 0.239479,0.225515 0.257233,0.442118 0,0.651583 z m 5.465599,0 c 0.166096,0.121687 0.193601,0.346406 0.06242,0.499483 -0.07611,0.08833 -0.187261,0.133454 -0.300473,0.133454 -0.0836,0 -0.168214,-0.02455 -0.238044,-0.07651 l -0.378767,-0.278696 h -0.0079 -0.0095 -0.0095 -0.0095 -0.0095 -0.0095 -0.0091 -0.0011 l -0.0023,0.315976 c -0.0023,0.195285 -0.172455,0.352287 -0.382996,0.352287 h -0.0034 c -0.211599,-0.0012 -0.381936,-0.161913 -0.380878,-0.35817 l 0.0023,-0.310093 h -0.0091 -0.0095 -0.0095 -0.0091 -0.0095 -0.0095 -0.0095 -0.0095 v 0 l -0.373257,0.266915 c -0.0698,0.05007 -0.151292,0.07363 -0.232759,0.07363 -0.115315,0 -0.228524,-0.0471 -0.303639,-0.137381 -0.129081,-0.156027 -0.09734,-0.378781 0.06981,-0.498499 l 0.233817,-0.166821 c -0.271973,-0.249724 -0.274678,-0.466918 0,-0.650599 l -0.225063,-0.165875 c -0.1661,-0.121675 -0.19361,-0.346392 -0.06242,-0.499475 0.132254,-0.154069 0.373473,-0.178595 0.538526,-0.05793 l 0.378755,0.278689 h 0.0081 0.0095 0.0095 0.0095 0.0095 0.0095 0.0095 0.0011 l 0.0023,-0.315975 c 0.0023,-0.195284 0.172453,-0.352285 0.382993,-0.352285 h 0.0034 c 0.211596,0.0012 0.381937,0.161911 0.380879,0.358167 l -0.0045,0.309109 h 0.0091 0.0095 0.0095 0.0095 0.0095 0.0095 0.0095 0.0095 l 0.374601,-0.267898 c 0.168224,-0.118741 0.409445,-0.08933 0.537463,0.06479 0.129074,0.15602 0.09733,0.378781 -0.06981,0.498499 l -0.233818,0.166817 c 0.23902,0.19555 0.274353,0.409543 0,0.651582 z"
       id="path2-3-2-9"
       sodipodi:nodetypes="cccccccccscccccccccccscccccccccccccsccccccccccccccccccccccccccccccccsccccscccccccccccscccccccccccccsccccccccccccccccccccccccccccccccccccscccccccccccscccccccccccccscccccccccccccccccsccccccccccccccccc"
       style="fill:#d3dae3;fill-opacity:1;stroke-width:1.01893" />
  </g>
</svg>
