<?xml version="1.0" encoding="UTF-8" standalone="no"?>
<!-- Created with Inkscape (http://www.inkscape.org/) -->

<svg
   width="32"
   height="32"
   viewBox="0 0 32 32"
   id="svg4166"
   version="1.1"
   inkscape:version="1.2.1 (9c6d41e410, 2022-07-14)"
   sodipodi:docname="kleopatra.svg"
   xmlns:inkscape="http://www.inkscape.org/namespaces/inkscape"
   xmlns:sodipodi="http://sodipodi.sourceforge.net/DTD/sodipodi-0.dtd"
   xmlns="http://www.w3.org/2000/svg"
   xmlns:svg="http://www.w3.org/2000/svg"
   xmlns:rdf="http://www.w3.org/1999/02/22-rdf-syntax-ns#"
   xmlns:cc="http://creativecommons.org/ns#"
   xmlns:dc="http://purl.org/dc/elements/1.1/">
  <style
     id="current-color-scheme"
     type="text/css">.ColorScheme-Text { color:#eff0f1; }
.ColorScheme-Highlight { color:#cdd8e5; }
</style>
  <defs
     id="defs1">
    <style
       type="text/css"
       id="style3" />
    <linearGradient
       id="b"
       gradientTransform="matrix(0.56249989,0,0,0.42499961,-243.21685,802.92918)"
       gradientUnits="userSpaceOnUse"
       x2="0"
       y1="543.79999"
       y2="503.79999">
      <stop
         offset="0"
         stop-color="#bd8d48"
         id="stop7" />
      <stop
         offset="1"
         stop-color="#e8b971"
         id="stop9" />
    </linearGradient>
    <linearGradient
       id="c"
       gradientUnits="userSpaceOnUse"
       x1="15"
       x2="40"
       y1="8"
       y2="39"
       gradientTransform="matrix(0.4999999,0,0,0.42499961,-4.9999996,1015.6622)">
      <stop
         offset="0"
         stop-color="#524220"
         stop-opacity=".553"
         id="stop12" />
      <stop
         offset="1"
         stop-color="#342a14"
         stop-opacity="0"
         id="stop14" />
    </linearGradient>
    <linearGradient
       id="a"
       gradientUnits="userSpaceOnUse"
       x1="11.875"
       x2="32.125"
       y1="-15.125"
       y2="33.5"
       gradientTransform="matrix(0.49999988,0,0,0.42499967,-5.0000009,1015.6622)">
      <stop
         offset="0"
         stop-color="#fff"
         id="stop2" />
      <stop
         offset="1"
         stop-color="#fff"
         stop-opacity="0"
         id="stop4" />
    </linearGradient>
  </defs>
  <defs
     id="defs4168" />
  <sodipodi:namedview
     id="base"
     pagecolor="#ffffff"
     bordercolor="#000000"
     borderopacity="1"
     inkscape:pageopacity="0"
     inkscape:pageshadow="2"
     inkscape:zoom="11.313709"
     inkscape:cx="25.941979"
     inkscape:cy="18.517358"
     inkscape:document-units="px"
     inkscape:current-layer="layer1"
     showgrid="false"
     units="px"
     inkscape:object-paths="true"
     inkscape:snap-intersection-paths="true"
     inkscape:object-nodes="true"
     inkscape:snap-smooth-nodes="true"
     inkscape:snap-midpoints="true"
     inkscape:window-width="1920"
     inkscape:window-height="1002"
     inkscape:window-x="0"
     inkscape:window-y="0"
     inkscape:window-maximized="1"
     inkscape:snap-grids="false"
     inkscape:pagecheckerboard="0"
     inkscape:showpageshadow="false"
     inkscape:lockguides="false"
     inkscape:deskcolor="#c7c7c7">
    <inkscape:grid
       type="xygrid"
       id="grid10124"
       originx="32.000123"
       originy="10.0001" />
  </sodipodi:namedview>
  <metadata
     id="metadata4171">
    <rdf:RDF>
      <cc:Work
         rdf:about="">
        <dc:format>image/svg+xml</dc:format>
        <dc:type
           rdf:resource="http://purl.org/dc/dcmitype/StillImage" />
      </cc:Work>
    </rdf:RDF>
  </metadata>
  <g
     inkscape:label="Layer 1"
     inkscape:groupmode="layer"
     id="layer1"
     transform="translate(9,-1011.3622)">
    <rect
       y="1030.3622"
       x="0"
       height="32"
       width="32"
       id="rect4764"
       style="fill:none;fill-opacity:1;stroke:none;stroke-width:1.45455;stroke-linecap:round;stroke-linejoin:round;stroke-miterlimit:4;stroke-dasharray:none;stroke-opacity:1" />
    <g
       id="kleopatra">
      <path
         style="opacity:0.00100002"
         d="m -9,1011.3622 h 32.000001 v 32 H -9 Z"
         id="path2" />
      <rect
         fill="url(#b)"
         height="16.999985"
         rx="0.49999991"
         width="19.999996"
         x="-3"
         y="1017.3622"
         id="rect17"
         style="fill:#b98a47;fill-opacity:1;stroke-width:0.460977" />
      <path
         d="m -3,1033.5122 v 0.425 c 0,0.2354 0.2229979,0.425 0.4999999,0.425 H 16.499996 c 0.277002,0 0.5,-0.1896 0.5,-0.425 v -0.425 c 0,0.2354 -0.222998,0.425 -0.5,0.425 H -2.5000001 C -2.7770021,1033.9372 -3,1033.7476 -3,1033.5122 Z"
         opacity="0.3"
         id="path19"
         style="stroke-width:0.460977" />
      <path
         d="m 1.4999991,1024.5872 h 2.4999995 v 0.425 H 1.4999991 Z"
         opacity="0.394"
         id="path23"
         style="fill:#4a370b;stroke-width:0.460977" />
      <path
         d="m 1.999999,1022.8872 h 2.4999995 v 0.425 H 1.999999 Z"
         opacity="0.394"
         id="path25"
         style="fill:#4a370b;stroke-width:0.460977" />
      <path
         d="m -2.0000002,1018.6372 h 2.4999995 v 0.425 h -2.4999995 z"
         opacity="0.394"
         id="path27"
         style="fill:#4a370b;stroke-width:0.460977" />
      <path
         d="m -1.0000004,1019.4872 h 2.4999995 v 0.425 h -2.4999995 z"
         opacity="0.394"
         id="path29"
         style="fill:#4a370b;stroke-width:0.460977" />
      <path
         d="m -6e-7,1020.3372 h 4.999999 v 0.425 H -6e-7 Z"
         opacity="0.394"
         id="path31"
         style="fill:#4a370b;stroke-width:0.460977" />
      <path
         d="m -6e-7,1021.1872 h 2.4999995 v 0.425 H -6e-7 Z"
         opacity="0.394"
         id="path33"
         style="fill:#4a370b;stroke-width:0.460977" />
      <path
         d="m -6e-7,1022.0372 h 3.9999992 v 0.425 H -6e-7 Z"
         opacity="0.394"
         id="path35"
         style="fill:#4a370b;stroke-width:0.460977" />
      <path
         d="m -1.0000004,1022.8872 h 2.4999995 v 0.425 h -2.4999995 z"
         opacity="0.394"
         id="path37"
         style="fill:#4a370b;stroke-width:0.460977" />
      <path
         d="M -2.0000002,1023.7372 H 1.999999 v 0.425 h -3.9999992 z"
         opacity="0.394"
         id="path39"
         style="fill:#4a370b;stroke-width:0.460977" />
      <path
         d="m -1.0000004,1024.5872 h 1.9999996 v 0.425 h -1.9999996 z"
         opacity="0.394"
         id="path41"
         style="fill:#4a370b;stroke-width:0.460977" />
      <path
         d="M -1.0000004,1025.4372 H 1.999999 v 0.425 h -2.9999994 z"
         opacity="0.394"
         id="path43"
         style="fill:#4a370b;stroke-width:0.460977" />
      <path
         d="m -1.0000004,1026.2872 h 1.9999996 v 0.425 h -1.9999996 z"
         opacity="0.394"
         id="path45"
         style="fill:#4a370b;stroke-width:0.460977" />
      <path
         d="m -2.0000002,1027.1372 h 2.4999995 v 0.425 h -2.4999995 z"
         opacity="0.394"
         id="path47"
         style="fill:#4a370b;stroke-width:0.460977" />
      <path
         d="m -1.0000004,1027.9872 h 3.4999993 v 0.425 h -3.4999993 z"
         opacity="0.394"
         id="path49"
         style="fill:#4a370b;stroke-width:0.460977" />
      <path
         d="M -0.5000005,1028.8372 H 1.999999 v 0.425 h -2.4999995 z"
         opacity="0.394"
         id="path51"
         style="fill:#4a370b;stroke-width:0.460977" />
      <path
         d="m -0.5000005,1029.6872 h 1.4999997 v 0.425 h -1.4999997 z"
         opacity="0.394"
         id="path53"
         style="fill:#4a370b;stroke-width:0.460977" />
      <path
         d="m -1.0000004,1030.5372 h 2.4999995 v 0.425 h -2.4999995 z"
         opacity="0.394"
         id="path55"
         style="fill:#4a370b;stroke-width:0.460977" />
      <path
         d="m -2.0000002,1031.3872 h 4.4999991 v 0.425 h -4.4999991 z"
         opacity="0.394"
         id="path57"
         style="fill:#4a370b;stroke-width:0.460977" />
      <path
         d="m -1.0000004,1032.2372 h 2.4999995 v 0.425 h -2.4999995 z"
         opacity="0.394"
         id="path59"
         style="fill:#4a370b;stroke-width:0.460977" />
      <path
         d="m -2.0000002,1033.0872 h 2.9999994 v 0.425 h -2.9999994 z"
         opacity="0.394"
         id="path61"
         style="fill:#4a370b;stroke-width:0.460977" />
      <path
         d="M 2.9999988,1021.1872 H 6.999998 v 0.425 H 2.9999988 Z"
         opacity="0.394"
         id="path63"
         style="fill:#4a370b;stroke-width:0.460977" />
      <path
         d="m 0.9999992,1027.1372 h 2.4999995 v 0.425 H 0.9999992 Z"
         opacity="0.394"
         id="path65"
         style="fill:#4a370b;stroke-width:0.460977" />
      <path
         d="m 0.9999992,1018.6372 h 2.4999995 v 0.425 H 0.9999992 Z"
         opacity="0.394"
         id="path67"
         style="fill:#4a370b;stroke-width:0.460977" />
      <path
         d="m 1.999999,1030.5372 h 3.4999993 v 0.425 H 1.999999 Z"
         opacity="0.394"
         id="path69"
         style="fill:#4a370b;stroke-width:0.460977" />
      <path
         d="m 1.999999,1032.2372 h 4.999999 v 0.425 H 1.999999 Z"
         opacity="0.394"
         id="path71"
         style="fill:#4a370b;stroke-width:0.460977" />
      <path
         d="m 1.4999991,1033.0872 h 2.4999995 v 0.425 H 1.4999991 Z"
         opacity="0.394"
         id="path73"
         style="fill:#4a370b;stroke-width:0.460977" />
      <path
         d="m 1.999999,1019.4872 h 1.9999996 v 0.425 H 1.999999 Z"
         opacity="0.394"
         id="path75"
         style="fill:#4a370b;stroke-width:0.460977" />
      <path
         d="m 3.9999986,1018.6372 h 2.4999995 v 0.425 H 3.9999986 Z"
         opacity="0.394"
         id="path77"
         style="fill:#4a370b;stroke-width:0.460977" />
      <path
         d="m 5.4999983,1020.3372 h 0.9999998 v 0.425 H 5.4999983 Z"
         opacity="0.394"
         id="path79"
         style="fill:#4a370b;stroke-width:0.460977" />
      <path
         d="m 2.4999989,1023.7372 h 0.9999998 v 0.425 H 2.4999989 Z"
         opacity="0.394"
         id="path81"
         style="fill:#4a370b;stroke-width:0.460977" />
      <path
         d="m 2.9999988,1031.3872 h 0.9999998 v 0.425 H 2.9999988 Z"
         opacity="0.394"
         id="path83"
         style="fill:#4a370b;stroke-width:0.460977" />
      <path
         d="m 4.4999985,1033.0872 h 0.9999998 v 0.425 H 4.4999985 Z"
         opacity="0.394"
         id="path85"
         style="fill:#4a370b;stroke-width:0.460977" />
      <path
         d="m 8.9999976,1018.6372 v 1.7 h 1.4999994 v -1.7 z m 0.4999999,0.425 h 0.4999999 v 0.85 H 9.4999975 Z"
         opacity="0.394"
         id="path87"
         style="fill:#4a370b;stroke-width:0.460977" />
      <path
         d="m 11.499997,1018.6372 h 0.5 v 1.7 h -0.5 z"
         opacity="0.394"
         id="path89"
         style="fill:#4a370b;stroke-width:0.460977" />
      <path
         d="m 12.999997,1018.6372 v 1.7 h 1.5 v -1.7 z m 0.5,0.425 h 0.5 v 0.85 h -0.5 z"
         opacity="0.394"
         id="path91"
         style="fill:#4a370b;stroke-width:0.460977" />
      <path
         d="m 15.499996,1018.6372 h 0.5 v 1.7 h -0.5 z"
         opacity="0.394"
         id="path93"
         style="fill:#4a370b;stroke-width:0.460977" />
      <path
         d="m 8.9999976,1020.7622 h 0.4999999 v 1.7 H 8.9999976 Z"
         opacity="0.394"
         id="path95"
         style="fill:#4a370b;stroke-width:0.460977" />
      <path
         d="m 10.499997,1020.7622 v 1.7 h 1.5 v -1.7 z m 0.5,0.425 h 0.5 v 0.85 h -0.5 z"
         opacity="0.394"
         id="path97"
         style="fill:#4a370b;stroke-width:0.460977" />
      <path
         d="m 14.499997,1020.7622 v 1.7 h 1.499999 v -1.7 z m 0.499999,0.425 h 0.5 v 0.85 h -0.5 z"
         opacity="0.394"
         id="path99"
         style="fill:#4a370b;stroke-width:0.460977" />
      <path
         d="m 12.999997,1020.7622 h 0.5 v 1.7 h -0.5 z"
         opacity="0.394"
         id="path101"
         style="fill:#4a370b;stroke-width:0.460977" />
      <path
         d="m 8.9999976,1022.8872 h 0.4999999 v 1.7 H 8.9999976 Z"
         opacity="0.394"
         id="path103"
         style="fill:#4a370b;stroke-width:0.460977" />
      <path
         d="m 10.499997,1022.8872 h 0.5 v 1.7 h -0.5 z"
         opacity="0.394"
         id="path105"
         style="fill:#4a370b;stroke-width:0.460977" />
      <path
         d="m 11.999997,1022.8872 v 1.7 h 1.5 v -1.7 z m 0.5,0.425 h 0.5 v 0.85 h -0.5 z"
         opacity="0.394"
         id="path107"
         style="fill:#4a370b;stroke-width:0.460977" />
      <path
         d="m 14.499997,1022.8872 v 1.7 h 1.499999 v -1.7 z m 0.499999,0.425 h 0.5 v 0.85 h -0.5 z"
         opacity="0.394"
         id="path109"
         style="fill:#4a370b;stroke-width:0.460977" />
      <path
         d="m 8.9999976,1025.0122 v 1.7 h 1.4999994 v -1.7 z m 0.4999999,0.425 h 0.4999999 v 0.85 H 9.4999975 Z"
         opacity="0.394"
         id="path111"
         style="fill:#4a370b;stroke-width:0.460977" />
      <path
         d="m 11.499997,1025.0122 v 1.7 h 1.5 v -1.7 z m 0.5,0.425 h 0.5 v 0.85 h -0.5 z"
         opacity="0.394"
         id="path113"
         style="fill:#4a370b;stroke-width:0.460977" />
      <path
         d="m 13.999997,1025.0122 h 0.5 v 1.7 h -0.5 z"
         opacity="0.394"
         id="path115"
         style="fill:#4a370b;stroke-width:0.460977" />
      <path
         d="m 15.499996,1025.0122 h 0.5 v 1.7 h -0.5 z"
         opacity="0.394"
         id="path117"
         style="fill:#4a370b;stroke-width:0.460977" />
      <path
         d="m 8.9999976,1027.1372 h 0.4999999 v 1.7 H 8.9999976 Z"
         opacity="0.394"
         id="path119"
         style="fill:#4a370b;stroke-width:0.460977" />
      <path
         d="m 10.499997,1027.1372 v 1.7 h 1.5 v -1.7 z m 0.5,0.425 h 0.5 v 0.85 h -0.5 z"
         opacity="0.394"
         id="path121"
         style="fill:#4a370b;stroke-width:0.460977" />
      <path
         d="m 14.499997,1027.1372 v 1.7 h 1.499999 v -1.7 z m 0.499999,0.425 h 0.5 v 0.85 h -0.5 z"
         opacity="0.394"
         id="path123"
         style="fill:#4a370b;stroke-width:0.460977" />
      <path
         d="m 12.999997,1027.1372 h 0.5 v 1.7 h -0.5 z"
         opacity="0.394"
         id="path125"
         style="fill:#4a370b;stroke-width:0.460977" />
      <path
         d="m 8.9999976,1029.2622 v 1.7 h 1.4999994 v -1.7 z m 0.4999999,0.425 h 0.4999999 v 0.85 H 9.4999975 Z"
         opacity="0.394"
         id="path127"
         style="fill:#4a370b;stroke-width:0.460977" />
      <path
         d="m 11.499997,1029.2622 h 0.5 v 1.7 h -0.5 z"
         opacity="0.394"
         id="path129"
         style="fill:#4a370b;stroke-width:0.460977" />
      <path
         d="m 12.999997,1029.2622 v 1.7 h 1.5 v -1.7 z m 0.5,0.425 h 0.5 v 0.85 h -0.5 z"
         opacity="0.394"
         id="path131"
         style="fill:#4a370b;stroke-width:0.460977" />
      <path
         d="m 15.499996,1029.2622 h 0.5 v 1.7 h -0.5 z"
         opacity="0.394"
         id="path133"
         style="fill:#4a370b;stroke-width:0.460977" />
      <path
         d="m 8.9999976,1031.3872 h 0.4999999 v 1.7 H 8.9999976 Z"
         opacity="0.394"
         id="path135"
         style="fill:#4a370b;stroke-width:0.460977" />
      <path
         d="m 10.499997,1031.3872 h 0.5 v 1.7 h -0.5 z"
         opacity="0.394"
         id="path137"
         style="fill:#4a370b;stroke-width:0.460977" />
      <path
         d="m 11.999997,1031.3872 v 1.7 h 1.5 v -1.7 z m 0.5,0.425 h 0.5 v 0.85 h -0.5 z"
         opacity="0.394"
         id="path139"
         style="fill:#4a370b;stroke-width:0.460977" />
      <path
         d="m 14.499997,1031.3872 v 1.7 h 1.499999 v -1.7 z m 0.499999,0.425 h 0.5 v 0.85 h -0.5 z"
         fill="#4a370b"
         opacity="0.394"
         id="path145"
         style="stroke-width:0.460977" />
      <path
         d="m 13.901791,1031.8718 c 0.598206,-0.1931 1.437993,-0.8321 1.437383,-1.7195 -3.27e-4,-0.6854 -0.221413,-1.0563 -0.760389,-1.2763 -0.990849,-0.4053 -1.95515,0.073 -1.95515,0.9729 0,0.8817 0.97641,1.3703 1.62387,0.8132 0.270073,-0.2324 0.335281,-0.6224 0.143491,-0.8577 -0.08515,-0.1097 -0.09437,-0.088 -0.0412,0.072 0.183437,0.5592 -0.316486,0.9456 -0.891676,0.6893 -0.601117,-0.2677 -0.487103,-1.1256 0.1683,-1.2683 0.32373,-0.068 0.755926,0.1748 0.96819,0.5481 0.114334,0.2004 0.118448,0.3212 0.0204,0.602 -0.321625,0.9237 -1.767158,0.9306 -3.942438,0.013 -0.527275,-0.2207 -1.2340588,-0.5558 -1.5706244,-0.7426 -0.5800915,-0.3223 -1.2864323,-0.5927 -2.2988873,-1.3582 -0.5363444,-0.4057 -0.6154386,-0.3501 0.7834005,-0.5471 0.4021646,-0.057 1.5773288,-0.3505 2.6114632,-0.6529 1.837195,-0.5364 1.906582,-0.5493 3.029309,-0.5562 0.631965,0 -0.41648,-0.037 0.632017,0 l 1.906379,0.068 v -0.8893 -0.8905 l -2.219756,-0.049 c -3.173651,-0.07 -1.627289,-0.1664 -4.9030552,-1.2545 -0.6255027,-0.2088 -1.4951199,-0.4592 -1.9324846,-0.5572 -1.0341479,-0.2325 -2.6002686,-0.3118 -3.385167,-0.1714 -0.9050259,0.1619 -2.1845968,0.7525 -2.9280201,1.351 -1.15233325,0.9273 -2.4543298,2.6618 -2.3267883,3.0988 0.057437,0.1972 0.1169487,0.2096 1.13231264,0.247 0.58943076,0.016 1.81204426,0.1369 2.71691526,0.2573 l 1.6452255,0.2179 v 0.6106 c -0.2838173,1.1188 -0.081303,1.7221 -0.030793,2.1296 0.1891395,1.4748 0.2596652,1.6349 0.697547,1.582 0.6764307,-0.9572 0.6863023,-2.7919 0.6912035,-3.8499 l 0.7573227,0.5822 c 1.8909639,1.4514 2.4476144,1.4302 4.0693695,2.1093 1.5311221,0.6413 3.2132071,0.9122 4.1523001,0.6685 z m -14.38883895,-5.1759 c -0.10457492,-0.092 0.54077917,-0.7763 1.38662698,-1.4759 1.25959307,-1.0403 1.25453647,-1.0397 1.25747297,-0.2037 0.00294,0.8206 0.2317722,1.2677 0.8906476,1.7385 l 0.4309752,0.3082 -1.9563372,-0.1605 c -1.07598738,-0.088 -1.98020961,-0.1822 -2.00938555,-0.2066 z m 7.05511705,0.073 c 0.1867548,-0.1289 0.4687934,-0.4187 0.6267531,-0.6501 0.2506064,-0.3669 0.2872026,-0.5143 0.2872026,-1.1612 0,-0.4084 0.031123,-0.7423 0.069152,-0.7423 0.038019,0 0.7833341,0.2633 1.6562464,0.5854 0.8729088,0.3209 1.6996668,0.6086 1.8372308,0.6388 0.137571,0.024 0.250124,0.082 0.250124,0.1271 0,0.037 -0.528819,0.2958 -1.175158,0.5717 -1.3180934,0.5629 -2.3040951,0.7986 -3.5777025,0.8525 l -0.3133774,0.01 z M 16.5,1022.4446 c 0,-0.5016 -0.06994,-0.5492 -0.804689,-0.5492 -1.638076,0 -2.045577,-0.2269 -4.510998,-1.1673 -2.6406862,-1.0063 -4.2407363,-1.3663 -6.0738525,-1.3663 -1.7942813,0 -3.6845421,0.4218 -5.62677401,1.2541 -1.58092549,0.6779 -2.25683449,1.2384 -1.88301209,1.5597 0.1318681,0.1158 0.041457,0.1374 2.25586573,-0.6041 1.51334267,-0.5085 3.37391687,-0.9373 4.38008767,-1.0105 1.553615,-0.1158 3.4047043,0.239 6.6803902,1.2675 1.176303,0.3693 2.52882,0.7581 3.005617,0.8622 1.019702,0.2248 1.126565,0.1896 1.976731,0.1915 H 16.5 Z"
         id="path147"
         style="fill:#333333;fill-opacity:1;stroke-width:0.623649"
         sodipodi:nodetypes="cccscccccccccccccccccccccccccccccccccccccccccccssccsccccsscsccccccccs" />
      <path
         d="M 13.963626,1015.3622 H 0.036072 c -1.335181,0 -2.615324,0.5325 -3.559318,1.4767 -0.944186,0.9441 -1.475229,2.2242 -1.476754,3.5593 v 13.9281 -2e-4 c 0.0015,1.3352 0.532568,2.6153 1.476754,3.5593 0.943994,0.9442 2.224137,1.4752 3.559318,1.4768 h 13.928035 -1.94e-4 c 1.335183,0 2.615324,-0.5326 3.559318,-1.4768 0.944187,-0.944 1.475232,-2.2241 1.476755,-3.5593 v -13.9276 c -0.0018,-1.3351 -0.532568,-2.6153 -1.476755,-3.5593 -0.943994,-0.9442 -2.224135,-1.4752 -3.559319,-1.4768 z m -13.663626,2 h 13.4 c 0.887095,0 1.603761,0.1436 2.231,0.771 0.627232,0.6272 1.067901,1.3419 1.069,2.229 v 13.5 c 0,0 0,0.5 -0.482868,0.5 H -2.4757274 c -0.024273,0 -0.5242726,0 -0.5242726,-0.5 v -13.5 c 0.0011,-0.8871 0.441775,-1.6017 1.069,-2.229 0.627201,-0.6272 1.343916,-0.7699 2.231,-0.771 z"
         id="path1193-3-3"
         style="fill:#d3dae3;fill-opacity:1;stroke-width:0.047619"
         sodipodi:nodetypes="ccccccccccccccccccccccccccc" />
    </g>
    <g
       id="22-22-kleopatra">
      <rect
         style="opacity:0.00100002"
         width="22"
         height="22"
         x="23.000122"
         y="1021.3623"
         id="rect2" />
      <rect
         fill="url(#b)"
         height="14.199"
         rx="0.41762149"
         width="16.704855"
         x="25.691126"
         y="1024.4062"
         id="rect17-3"
         style="fill:#b98a47;fill-opacity:1;stroke-width:0.385031" />
      <path
         d="m 25.691123,1037.8063 v 0.35 c 0,0.1934 0.183638,0.35 0.411747,0.35 h 15.646498 c 0.228113,0 0.411751,-0.1566 0.411751,-0.35 v -0.35 c 0,0.1935 -0.183638,0.35 -0.411751,0.35 H 26.10287 c -0.228109,0 -0.411747,-0.1565 -0.411747,-0.35 z"
         opacity="0.3"
         id="path19-6"
         style="stroke-width:0.379617" />
      <path
         d="m 29.396869,1030.4564 h 2.058756 v 0.3499 h -2.058756 z"
         opacity="0.394"
         id="path23-7"
         style="fill:#4a370b;stroke-width:0.379617" />
      <path
         d="m 29.808619,1029.0563 h 2.058748 v 0.35 h -2.058748 z"
         opacity="0.394"
         id="path25-5"
         style="fill:#4a370b;stroke-width:0.379617" />
      <path
         d="m 26.514631,1025.5563 h 2.058741 v 0.35 h -2.058741 z"
         opacity="0.394"
         id="path27-3"
         style="fill:#4a370b;stroke-width:0.379617" />
      <path
         d="m 27.338118,1026.2564 h 2.058751 v 0.35 h -2.058751 z"
         opacity="0.394"
         id="path29-5"
         style="fill:#4a370b;stroke-width:0.379617" />
      <path
         d="m 28.161625,1026.9564 h 4.117494 v 0.3499 h -4.117494 z"
         opacity="0.394"
         id="path31-6"
         style="fill:#4a370b;stroke-width:0.379617" />
      <path
         d="m 28.161625,1027.6563 h 2.058749 v 0.35 h -2.058749 z"
         opacity="0.394"
         id="path33-2"
         style="fill:#4a370b;stroke-width:0.379617" />
      <path
         d="m 28.161625,1028.3564 h 3.294 v 0.35 h -3.294 z"
         opacity="0.394"
         id="path35-9"
         style="fill:#4a370b;stroke-width:0.379617" />
      <path
         d="m 27.338118,1029.0563 h 2.058751 v 0.35 h -2.058751 z"
         opacity="0.394"
         id="path37-1"
         style="fill:#4a370b;stroke-width:0.379617" />
      <path
         d="m 26.514631,1029.7564 h 3.293988 v 0.35 h -3.293988 z"
         opacity="0.394"
         id="path39-2"
         style="fill:#4a370b;stroke-width:0.379617" />
      <path
         d="m 27.338118,1030.4564 h 1.647011 v 0.3499 h -1.647011 z"
         opacity="0.394"
         id="path41-7"
         style="fill:#4a370b;stroke-width:0.379617" />
      <path
         d="m 27.338118,1031.1563 h 2.470501 v 0.35 h -2.470501 z"
         opacity="0.394"
         id="path43-0"
         style="fill:#4a370b;stroke-width:0.379617" />
      <path
         d="m 27.338118,1031.8564 h 1.647011 v 0.35 h -1.647011 z"
         opacity="0.394"
         id="path45-9"
         style="fill:#4a370b;stroke-width:0.379617" />
      <path
         d="m 26.514631,1032.5563 h 2.058741 v 0.35 h -2.058741 z"
         opacity="0.394"
         id="path47-3"
         style="fill:#4a370b;stroke-width:0.379617" />
      <path
         d="m 27.338118,1033.2564 h 2.882256 v 0.35 h -2.882256 z"
         opacity="0.394"
         id="path49-6"
         style="fill:#4a370b;stroke-width:0.379617" />
      <path
         d="m 27.749879,1033.9564 h 2.05874 v 0.3499 h -2.05874 z"
         opacity="0.394"
         id="path51-0"
         style="fill:#4a370b;stroke-width:0.379617" />
      <path
         d="m 27.749879,1034.6563 h 1.23525 v 0.35 h -1.23525 z"
         opacity="0.394"
         id="path53-6"
         style="fill:#4a370b;stroke-width:0.379617" />
      <path
         d="m 27.338118,1035.3564 h 2.058751 v 0.35 h -2.058751 z"
         opacity="0.394"
         id="path55-2"
         style="fill:#4a370b;stroke-width:0.379617" />
      <path
         d="m 26.514631,1036.0563 h 3.705743 v 0.35 h -3.705743 z"
         opacity="0.394"
         id="path57-6"
         style="fill:#4a370b;stroke-width:0.379617" />
      <path
         d="m 27.338118,1036.7564 h 2.058751 v 0.35 h -2.058751 z"
         opacity="0.394"
         id="path59-1"
         style="fill:#4a370b;stroke-width:0.379617" />
      <path
         d="m 26.514631,1037.4564 h 2.470498 v 0.3499 h -2.470498 z"
         opacity="0.394"
         id="path61-8"
         style="fill:#4a370b;stroke-width:0.379617" />
      <path
         d="m 30.632121,1027.6563 h 3.294002 v 0.35 h -3.294002 z"
         opacity="0.394"
         id="path63-7"
         style="fill:#4a370b;stroke-width:0.379617" />
      <path
         d="m 28.985129,1032.5563 h 2.058743 v 0.35 h -2.058743 z"
         opacity="0.394"
         id="path65-9"
         style="fill:#4a370b;stroke-width:0.379617" />
      <path
         d="m 28.985129,1025.5563 h 2.058743 v 0.35 h -2.058743 z"
         opacity="0.394"
         id="path67-2"
         style="fill:#4a370b;stroke-width:0.379617" />
      <path
         d="m 29.808619,1035.3564 h 2.882252 v 0.35 h -2.882252 z"
         opacity="0.394"
         id="path69-0"
         style="fill:#4a370b;stroke-width:0.379617" />
      <path
         d="m 29.808619,1036.7564 h 4.117504 v 0.35 h -4.117504 z"
         opacity="0.394"
         id="path71-2"
         style="fill:#4a370b;stroke-width:0.379617" />
      <path
         d="m 29.396869,1037.4564 h 2.058756 v 0.3499 h -2.058756 z"
         opacity="0.394"
         id="path73-3"
         style="fill:#4a370b;stroke-width:0.379617" />
      <path
         d="m 29.808619,1026.2564 h 1.647006 v 0.35 h -1.647006 z"
         opacity="0.394"
         id="path75-7"
         style="fill:#4a370b;stroke-width:0.379617" />
      <path
         d="m 31.455625,1025.5563 h 2.058747 v 0.35 h -2.058747 z"
         opacity="0.394"
         id="path77-5"
         style="fill:#4a370b;stroke-width:0.379617" />
      <path
         d="m 32.690871,1026.9564 h 0.823501 v 0.3499 h -0.823501 z"
         opacity="0.394"
         id="path79-9"
         style="fill:#4a370b;stroke-width:0.379617" />
      <path
         d="m 30.220374,1029.7564 h 0.823498 v 0.35 h -0.823498 z"
         opacity="0.394"
         id="path81-2"
         style="fill:#4a370b;stroke-width:0.379617" />
      <path
         d="m 30.632121,1036.0563 h 0.823504 v 0.35 h -0.823504 z"
         opacity="0.394"
         id="path83-2"
         style="fill:#4a370b;stroke-width:0.379617" />
      <path
         d="m 31.867367,1037.4564 h 0.823504 v 0.3499 h -0.823504 z"
         opacity="0.394"
         id="path85-8"
         style="fill:#4a370b;stroke-width:0.379617" />
      <path
         d="m 35.573122,1025.5563 v 1.4001 h 1.235247 v -1.4001 z m 0.41175,0.35 h 0.411751 v 0.7001 h -0.411751 z"
         opacity="0.394"
         id="path87-9"
         style="fill:#4a370b;stroke-width:0.379617" />
      <path
         d="m 37.63187,1025.5563 h 0.411751 v 1.4001 H 37.63187 Z"
         opacity="0.394"
         id="path89-7"
         style="fill:#4a370b;stroke-width:0.379617" />
      <path
         d="m 38.867122,1025.5563 v 1.4001 h 1.235248 v -1.4001 z m 0.411747,0.35 h 0.411751 v 0.7001 h -0.411751 z"
         opacity="0.394"
         id="path91-3"
         style="fill:#4a370b;stroke-width:0.379617" />
      <path
         d="m 40.925872,1025.5563 h 0.41175 v 1.4001 h -0.41175 z"
         opacity="0.394"
         id="path93-6"
         style="fill:#4a370b;stroke-width:0.379617" />
      <path
         d="m 35.573122,1027.3063 h 0.41175 v 1.4001 h -0.41175 z"
         opacity="0.394"
         id="path95-1"
         style="fill:#4a370b;stroke-width:0.379617" />
      <path
         d="m 36.808369,1027.3063 v 1.4001 h 1.235252 v -1.4001 z m 0.41175,0.35 h 0.411751 v 0.7001 h -0.411751 z"
         opacity="0.394"
         id="path97-2"
         style="fill:#4a370b;stroke-width:0.379617" />
      <path
         d="m 40.10237,1027.3063 v 1.4001 h 1.235252 v -1.4001 z m 0.41175,0.35 h 0.411752 v 0.7001 H 40.51412 Z"
         opacity="0.394"
         id="path99-9"
         style="fill:#4a370b;stroke-width:0.379617" />
      <path
         d="m 38.867122,1027.3063 h 0.411747 v 1.4001 h -0.411747 z"
         opacity="0.394"
         id="path101-3"
         style="fill:#4a370b;stroke-width:0.379617" />
      <path
         d="m 35.573122,1029.0563 h 0.41175 v 1.4001 h -0.41175 z"
         opacity="0.394"
         id="path103-1"
         style="fill:#4a370b;stroke-width:0.379617" />
      <path
         d="m 36.808369,1029.0563 h 0.41175 v 1.4001 h -0.41175 z"
         opacity="0.394"
         id="path105-9"
         style="fill:#4a370b;stroke-width:0.379617" />
      <path
         d="m 38.043621,1029.0563 v 1.4001 h 1.235248 v -1.4001 z m 0.411751,0.35 h 0.41175 v 0.7001 h -0.41175 z"
         opacity="0.394"
         id="path107-4"
         style="fill:#4a370b;stroke-width:0.379617" />
      <path
         d="m 40.10237,1029.0563 v 1.4001 h 1.235252 v -1.4001 z m 0.41175,0.35 h 0.411752 v 0.7001 H 40.51412 Z"
         opacity="0.394"
         id="path109-7"
         style="fill:#4a370b;stroke-width:0.379617" />
      <path
         d="m 35.573122,1030.8063 v 1.4001 h 1.235247 v -1.4001 z m 0.41175,0.35 h 0.411751 v 0.7001 h -0.411751 z"
         opacity="0.394"
         id="path111-8"
         style="fill:#4a370b;stroke-width:0.379617" />
      <path
         d="m 37.63187,1030.8063 v 1.4001 h 1.235252 v -1.4001 z m 0.411751,0.35 h 0.411751 v 0.7001 h -0.411751 z"
         opacity="0.394"
         id="path113-4"
         style="fill:#4a370b;stroke-width:0.379617" />
      <path
         d="m 39.69062,1030.8063 h 0.41175 v 1.4001 h -0.41175 z"
         opacity="0.394"
         id="path115-5"
         style="fill:#4a370b;stroke-width:0.379617" />
      <path
         d="m 40.925872,1030.8063 h 0.41175 v 1.4001 h -0.41175 z"
         opacity="0.394"
         id="path117-0"
         style="fill:#4a370b;stroke-width:0.379617" />
      <path
         d="m 35.573122,1032.5563 h 0.41175 v 1.4001 h -0.41175 z"
         opacity="0.394"
         id="path119-3"
         style="fill:#4a370b;stroke-width:0.379617" />
      <path
         d="m 36.808369,1032.5563 v 1.4001 h 1.235252 v -1.4001 z m 0.41175,0.35 h 0.411751 v 0.7001 h -0.411751 z"
         opacity="0.394"
         id="path121-6"
         style="fill:#4a370b;stroke-width:0.379617" />
      <path
         d="m 40.10237,1032.5563 v 1.4001 h 1.235252 v -1.4001 z m 0.41175,0.35 h 0.411752 v 0.7001 H 40.51412 Z"
         opacity="0.394"
         id="path123-1"
         style="fill:#4a370b;stroke-width:0.379617" />
      <path
         d="m 38.867122,1032.5563 h 0.411747 v 1.4001 h -0.411747 z"
         opacity="0.394"
         id="path125-0"
         style="fill:#4a370b;stroke-width:0.379617" />
      <path
         d="m 35.573122,1034.3063 v 1.4001 h 1.235247 v -1.4001 z m 0.41175,0.35 h 0.411751 v 0.7001 h -0.411751 z"
         opacity="0.394"
         id="path127-6"
         style="fill:#4a370b;stroke-width:0.379617" />
      <path
         d="m 37.63187,1034.3063 h 0.411751 v 1.4001 H 37.63187 Z"
         opacity="0.394"
         id="path129-3"
         style="fill:#4a370b;stroke-width:0.379617" />
      <path
         d="m 38.867122,1034.3063 v 1.4001 h 1.235248 v -1.4001 z m 0.411747,0.35 h 0.411751 v 0.7001 h -0.411751 z"
         opacity="0.394"
         id="path131-2"
         style="fill:#4a370b;stroke-width:0.379617" />
      <path
         d="m 40.925872,1034.3063 h 0.41175 v 1.4001 h -0.41175 z"
         opacity="0.394"
         id="path133-0"
         style="fill:#4a370b;stroke-width:0.379617" />
      <path
         d="m 35.573122,1036.0563 h 0.41175 v 1.4001 h -0.41175 z"
         opacity="0.394"
         id="path135-6"
         style="fill:#4a370b;stroke-width:0.379617" />
      <path
         d="m 36.808369,1036.0563 h 0.41175 v 1.4001 h -0.41175 z"
         opacity="0.394"
         id="path137-1"
         style="fill:#4a370b;stroke-width:0.379617" />
      <path
         d="m 38.043621,1036.0563 v 1.4001 h 1.235248 v -1.4001 z m 0.411751,0.35 h 0.41175 v 0.7001 h -0.41175 z"
         opacity="0.394"
         id="path139-5"
         style="fill:#4a370b;stroke-width:0.379617" />
      <path
         d="m 40.10237,1036.0563 v 1.4001 h 1.235252 v -1.4001 z m 0.41175,0.35 h 0.411752 v 0.7001 H 40.51412 Z"
         fill="#4a370b"
         opacity="0.394"
         id="path145-5"
         style="stroke-width:0.379617" />
      <path
         d="m 39.609749,1036.4542 c 0.492621,-0.085 1.184186,-0.6857 1.183684,-1.4152 -2.68e-4,-0.5639 -0.182334,-0.8688 -0.626177,-1.0508 -0.81597,-0.335 -1.610072,0.068 -1.610072,0.8001 0,0.7266 0.804077,1.1301 1.337258,0.6706 0.22241,-0.192 0.276104,-0.513 0.118164,-0.7064 -0.07015,-0.086 -0.07764,-0.078 -0.034,0.062 0.151063,0.4615 -0.260629,0.7793 -0.734295,0.568 -0.495019,-0.2197 -0.401131,-0.9277 0.138595,-1.0441 0.266593,-0.063 0.622503,0.143 0.797306,0.4507 0.09417,0.1653 0.09753,0.2642 0.0168,0.4962 -0.264862,0.7608 -1.455254,0.7655 -3.246602,0.013 -0.434208,-0.1817 -1.016245,-0.4565 -1.293409,-0.6103 -0.477702,-0.2654 -1.059375,-0.4889 -1.893132,-1.1189 -0.441681,-0.3349 -0.506816,-0.2888 0.64513,-0.4504 0.331181,-0.057 1.298931,-0.2896 2.150538,-0.5384 1.512929,-0.4409 1.570071,-0.4523 2.494639,-0.4577 0.520422,0 -0.342972,-0.037 0.520463,0 l 1.569904,0.062 v -0.7315 -0.7339 l -1.827965,-0.049 c -2.613504,-0.062 -1.340075,-0.1371 -4.037671,-1.0333 -0.515101,-0.1712 -1.231227,-0.3782 -1.591396,-0.4591 -0.851624,-0.1903 -2.141326,-0.2566 -2.787691,-0.141 -0.745284,0.1344 -1.799009,0.6203 -2.411221,1.1137 -0.948949,0.7625 -2.021144,2.1908 -1.916112,2.5507 0.04724,0.1634 0.0963,0.1727 0.932459,0.2042 0.485396,0.016 1.492218,0.1129 2.237381,0.2122 l 1.354846,0.179 v 0.5024 c -0.233728,0.9212 -0.0669,1.4189 -0.02539,1.7545 0.155755,1.2139 0.213831,1.3453 0.574431,1.3025 0.557041,-0.7886 0.565167,-2.2991 0.569207,-3.1712 l 0.623654,0.4803 c 1.557209,1.1944 2.015609,1.178 3.351123,1.7373 1.260881,0.5271 2.646075,0.7502 3.419418,0.5493 z M 27.76054,1032.193 c -0.08609,-0.08 0.445332,-0.6394 1.141885,-1.2148 1.037279,-0.8573 1.033116,-0.8567 1.035525,-0.1677 0.0029,0.6738 0.190872,1.0427 0.733452,1.4297 l 0.354911,0.254 -1.611043,-0.1306 c -0.886083,-0.082 -1.630703,-0.1518 -1.65473,-0.1706 z m 5.809887,0.062 c 0.153794,-0.1056 0.386053,-0.3444 0.516134,-0.5339 0.20637,-0.304 0.236509,-0.4241 0.236509,-0.9571 0,-0.3363 0.02572,-0.6104 0.05685,-0.6104 0.0314,0 0.645077,0.2154 1.363918,0.4805 0.718841,0.264 1.399676,0.5012 1.512962,0.5275 0.113285,0.024 0.205973,0.066 0.205973,0.1034 0,0.037 -0.435481,0.2448 -0.96774,0.471 -1.08545,0.4631 -1.897423,0.6579 -2.946241,0.7015 l -0.258063,0.01 z m 8.178945,-3.56 c 0,-0.4146 -0.05764,-0.4532 -0.662658,-0.4532 -1.348956,0 -1.684532,-0.1866 -3.71481,-0.9602 -2.174607,-0.8294 -3.492247,-1.1263 -5.001816,-1.1263 -1.477589,0 -3.034222,0.3471 -4.633643,1.0326 -1.301893,0.5592 -1.858513,1.0208 -1.550661,1.2861 0.108588,0.093 0.03423,0.1126 1.857702,-0.499 1.246237,-0.4185 2.778413,-0.7723 3.607003,-0.8306 1.279399,-0.095 2.803771,0.1965 5.501295,1.0426 0.96869,0.3035 2.082485,0.6241 2.475127,0.7094 0.839727,0.1856 0.927724,0.1564 1.627837,0.1583 h 0.494624 z"
         id="path147-4"
         style="fill:#333333;fill-opacity:1;stroke-width:0.513572"
         sodipodi:nodetypes="cccscccccccccccccccccccccccccccccccccccccccccccssccsccccsscsccccccccs" />
      <path
         d="M 39.80301,1022.3623 H 28.196741 c -1.112651,0 -2.179461,0.4438 -2.96612,1.2306 -0.786853,0.7867 -1.22936,1.8534 -1.230622,2.9661 v 11.6067 -10e-5 c 8.62e-4,1.1126 0.443769,2.1793 1.230622,2.966 0.786659,0.7868 1.853469,1.2294 2.96612,1.2307 h 11.606699 -1.9e-4 c 1.11265,0 2.17946,-0.4439 2.96611,-1.2307 0.78686,-0.7867 1.22937,-1.8534 1.23063,-2.966 v -11.6064 c -0.002,-1.1126 -0.44377,-2.1794 -1.23063,-2.9661 -0.78665,-0.7868 -1.85346,-1.2293 -2.96611,-1.2306 z m -11.186008,2 H 39.383 c 0.73924,0 1.43628,-0.1138 1.959,0.409 0.52269,0.5227 0.6571,1.0184 0.658,1.7577 v 11.8333 H 26 v -11.8333 c 8.51e-4,-0.7393 0.135307,-1.235 0.658001,-1.7577 0.522678,-0.5227 1.219778,-0.4081 1.959001,-0.409 z"
         id="path1193-3-7"
         style="fill:#d3dae3;fill-opacity:1;stroke-width:0.0396828"
         sodipodi:nodetypes="ccccccccccccccccccccccccc" />
    </g>
  </g>
</svg>
