<?xml version="1.0" encoding="UTF-8" standalone="no"?>
<svg
   width="32"
   height="32"
   version="1.1"
   id="svg12"
   sodipodi:docname="konv_message.svg"
   inkscape:version="1.2.2 (b0a8486541, 2022-12-01)"
   xmlns:inkscape="http://www.inkscape.org/namespaces/inkscape"
   xmlns:sodipodi="http://sodipodi.sourceforge.net/DTD/sodipodi-0.dtd"
   xmlns:xlink="http://www.w3.org/1999/xlink"
   xmlns="http://www.w3.org/2000/svg"
   xmlns:svg="http://www.w3.org/2000/svg"
   xmlns:rdf="http://www.w3.org/1999/02/22-rdf-syntax-ns#"
   xmlns:cc="http://creativecommons.org/ns#"
   xmlns:dc="http://purl.org/dc/elements/1.1/">
  <g
     id="22-22-konv_message"
     transform="translate(32,9.95)">
    <rect
       style="opacity:0.00100002;stroke-width:0.996991"
       width="21.867811"
       height="22"
       x="0.13218793"
       y="0"
       id="rect2" />
    <path
       inkscape:connector-curvature="0"
       id="path9068-9-37-8-0-1-6-3-5"
       d="M 15.903863,5.0500318 H 0.99399146 l 0.99399144,12.0000002 13.9158801,-1 z"
       style="display:inline;overflow:visible;visibility:visible;opacity:0.6;fill:url(#linearGradient34728);fill-opacity:1.0;fill-rule:nonzero;stroke:none;stroke-width:0.663638;marker:none"
       sodipodi:nodetypes="ccccc" />
    <path
       d="m 19.879829,2.0500318 -10.9339059,-0.05 C 6.9579608,1.990941 7.0434752,3.9311068 7.0434752,3.9311068 v 0 L 1.9879829,4.0000318 C 1.0331885,4.0130518 0,4.7862938 0,6.0057648 v 9.9768672 c 0,1.219469 0.77682918,2.0174 1.7314675,2.0174 h 1.2505069 v 0 0 l 3.0180256,3 2.9459231,-3 h 5.9639489 c 0.95464,0 1.987983,-0.78051 1.987983,-2 v -2 l 0.094,0.05294 h 2.844603 v 0 l 0.04337,-0.0029 c 0.993992,-0.06738 1.987983,-1 1.987983,-2 V 4.0000318 c 0,-0.887863 -0.993991,-1.95 -1.987983,-1.95 z m -5.96395,13.9500002 v 0 H 4.9699563 v 0 0 H 2.9819734 v 0 0 c 0,0 -0.9819734,0 -0.9819734,-1 V 7.0000318 c -0.00477,-1 1.0813725,-1 1.0813725,-1 H 13.81648 c 0.993992,0 1.18352,1.05 1.18352,1.05 v 7.9500002 c 0,0 -0.09014,1 -1.084125,1 z"
       id="path2-3-6-9-9"
       style="fill:#d3dae3;fill-opacity:1;stroke-width:0.272666"
       sodipodi:nodetypes="csscsssscccccssccccssscscccccccsccscccs" />
    <path
       d="m 5.0513612,9.2489198 c -0.7301384,0 -1.3238932,0.597563 -1.3238932,1.3321122 0,0.734333 0.5937548,1.33211 1.3238932,1.33211 0.7301335,0 1.324104,-0.597777 1.324104,-1.33211 0,-0.7345492 -0.5939705,-1.3321122 -1.324104,-1.3321122 z m 0.00944,0.8132032 z"
       id="path4-7-9-1"
       style="fill:#d3dae3;fill-opacity:1;stroke-width:0.215073"
       sodipodi:nodetypes="sssssccccc" />
    <path
       d="m 8.4584459,9.2489198 c -0.7301355,0 -1.324107,0.597563 -1.324107,1.3321122 0,0.734333 0.5939715,1.33211 1.324107,1.33211 0.7301275,0 1.3241059,-0.597777 1.3241059,-1.33211 0,-0.7345492 -0.5939784,-1.3321122 -1.3241059,-1.3321122 z m 0,0.7011122 z"
       id="path6-5-1-0"
       style="fill:#d3dae3;fill-opacity:1;stroke-width:0.215073"
       sodipodi:nodetypes="sssssccccc" />
    <path
       d="m 11.865312,9.2489198 c -0.729924,0 -1.324112,0.597563 -1.324112,1.3321122 0,0.734333 0.594188,1.33211 1.324112,1.33211 0.730132,0 1.324319,-0.597777 1.324319,-1.33211 0,-0.7345492 -0.594188,-1.3321122 -1.324319,-1.3321122 z m 0,0.7011122 z"
       id="path8-3-4-7"
       style="fill:#d3dae3;fill-opacity:1;stroke-width:0.215073"
       sodipodi:nodetypes="sssssccccc" />
  </g>
  <metadata
     id="metadata18">
    <rdf:RDF>
      <cc:Work
         rdf:about="">
        <dc:format>image/svg+xml</dc:format>
        <dc:type
           rdf:resource="http://purl.org/dc/dcmitype/StillImage" />
      </cc:Work>
    </rdf:RDF>
  </metadata>
  <defs
     id="defs16">
    <linearGradient
       inkscape:collect="always"
       id="linearGradient501">
      <stop
         style="stop-color:#5599ff;stop-opacity:1"
         offset="0"
         id="stop497" />
      <stop
         style="stop-color:#37c871;stop-opacity:1"
         offset="1"
         id="stop499" />
    </linearGradient>
    <linearGradient
       inkscape:collect="always"
       xlink:href="#linearGradient501"
       id="linearGradient1308"
       gradientUnits="userSpaceOnUse"
       gradientTransform="matrix(0.57244293,0,0,0.39490575,-70.16127,-226.65691)"
       x1="147.86349"
       y1="597.12201"
       x2="147.86349"
       y2="635.10577" />
    <linearGradient
       inkscape:collect="always"
       xlink:href="#linearGradient501"
       id="linearGradient34728"
       gradientUnits="userSpaceOnUse"
       gradientTransform="matrix(0.56900338,0,0,0.39490575,-72.671978,-231.53188)"
       x1="148.6808"
       y1="601.61676"
       x2="148.6808"
       y2="626.93921" />
  </defs>
  <sodipodi:namedview
     pagecolor="#ffffff"
     bordercolor="#000000"
     borderopacity="1"
     objecttolerance="10"
     gridtolerance="10"
     guidetolerance="10"
     inkscape:pageopacity="0"
     inkscape:pageshadow="2"
     inkscape:window-width="1920"
     inkscape:window-height="994"
     id="namedview14"
     showgrid="false"
     inkscape:zoom="9.8125003"
     inkscape:cx="20.33121"
     inkscape:cy="17.477706"
     inkscape:window-x="0"
     inkscape:window-y="0"
     inkscape:window-maximized="1"
     inkscape:current-layer="svg12"
     inkscape:document-rotation="0"
     inkscape:showpageshadow="false"
     inkscape:pagecheckerboard="0"
     inkscape:deskcolor="#d1d1d1"
     inkscape:lockguides="true">
    <inkscape:grid
       type="xygrid"
       id="grid36415"
       originx="32"
       originy="9.95" />
  </sodipodi:namedview>
  <g
     id="konv_message">
    <path
       id="path18"
       d="M 0,0 V 32 H 32 V 0 Z"
       style="fill:none" />
    <path
       inkscape:connector-curvature="0"
       id="path9068-9-37-8-0-1-6-3"
       d="M 25.099999,8.85 H 2.539 V 24.646184 L 25,24 Z"
       style="display:inline;overflow:visible;visibility:visible;opacity:0.6;fill:url(#linearGradient1308);fill-opacity:1;fill-rule:nonzero;stroke:none;stroke-width:0.665641;marker:none"
       sodipodi:nodetypes="ccccc" />
    <path
       d="M 6.9998387,15 C 5.8969155,15 5,15.897239 5,17.000163 5,18.102762 5.8969155,19.000325 6.9998387,19.000325 8.1027618,19.000325 9,18.102762 9,17.000163 9,15.897239 8.1027618,15 6.9998387,15 Z m 0,1.052718 z"
       id="path4-0-9-7"
       style="fill:#d3dae3;fill-opacity:1;stroke-width:0.323913"
       sodipodi:nodetypes="sssssccccc" />
    <path
       d="M 13.999999,15 C 12.897165,15 12,15.897166 12,17 c 0,1.10251 0.897165,2 1.999999,2 1.102835,0 2,-0.89749 2,-2 0,-1.102834 -0.897165,-2 -2,-2 z m 0,1.052632 z"
       id="path6-6-4-5"
       style="fill:#d3dae3;fill-opacity:1;stroke-width:0.323887"
       sodipodi:nodetypes="sssssccccc" />
    <path
       d="M 21.000016,15 C 19.897497,15 19,15.897166 19,17 c 0,1.10251 0.897497,2 2.000016,2 1.102843,0 2.000341,-0.89749 2.000341,-2 0,-1.102834 -0.897498,-2 -2.000341,-2 z m 0,1.052632 z"
       id="path8-1-9-3"
       style="fill:#d3dae3;fill-opacity:1;stroke-width:0.323888"
       sodipodi:nodetypes="sssssccccc" />
    <path
       d="M 16,7 V 7 H 5.4065697 C 4.2382786,7.0008929 3.1181557,7.4755091 2.2921647,8.3185361 1.4659993,9.1613841 1.0013303,10.304366 1,11.496491 V 23.93225 24 24 c 0,2 2,4 4,4 h 3 l 3.5,3 3.5,-3 h 3 v 0 h 3 c 2,0 4,-2 4,-4 v 0 z M 6,9 h 4 v 0 l 6,-2 v 0 l 9,17 H 22.887296 20 v 0 H 5.1430127 C 4.3114073,24 3,23.95 3,21.95 V 12 C 3,10 4,9 6,9 Z"
       id="path1193-7-3-6-9"
       style="fill:#d3dae3;fill-opacity:1;stroke-width:0.0420899"
       sodipodi:nodetypes="ccccccccccccccccccccccccccccccc" />
    <path
       d="M 26,4 H 14 C 12.831022,4.0015142 11.613267,4.270437 10.786777,5.1044804 9.9601225,5.9383592 9.4951725,7.820576 9.4938415,9 H 22 c 1.916261,0 3,1 3,3 V 21.989272 24 h 1 v 0 0 0 0 0 c 3,0 5,-2 5,-5 V 9 C 31,6 29,4 26,4 Z"
       id="path1193-3-6-7-1"
       style="fill:#d3dae3;fill-opacity:1;stroke-width:0.0418776"
       sodipodi:nodetypes="ccccccccccccccccc" />
  </g>
</svg>
