<?xml version="1.0" encoding="UTF-8" standalone="no"?>
<svg
   width="32"
   height="32"
   version="1.1"
   id="svg12"
   sodipodi:docname="kopete.svg"
   inkscape:version="1.2.2 (b0a8486541, 2022-12-01)"
   xmlns:inkscape="http://www.inkscape.org/namespaces/inkscape"
   xmlns:sodipodi="http://sodipodi.sourceforge.net/DTD/sodipodi-0.dtd"
   xmlns:xlink="http://www.w3.org/1999/xlink"
   xmlns="http://www.w3.org/2000/svg"
   xmlns:svg="http://www.w3.org/2000/svg"
   xmlns:rdf="http://www.w3.org/1999/02/22-rdf-syntax-ns#"
   xmlns:cc="http://creativecommons.org/ns#"
   xmlns:dc="http://purl.org/dc/elements/1.1/">
  <g
     id="kopete">
    <rect
       style="opacity:0.00100002"
       width="32"
       height="32"
       x="0"
       y="0"
       id="rect7" />
    <path
       inkscape:connector-curvature="0"
       id="path9068-9-37-8-0-1"
       d="m 26.2,6 -20.4,5e-6 V 23.1 h 20.4 z"
       style="display:inline;overflow:visible;visibility:visible;opacity:1;fill:url(#linearGradient5058);fill-opacity:1;fill-rule:nonzero;stroke:none;stroke-width:0.653705;marker:none"
       sodipodi:nodetypes="ccccc" />
    <path
       style="fill:#d3dae3;fill-opacity:1;stroke-width:1.40831"
       d="m 16.727254,7.000093 c -0.483899,0.0019 -0.966402,0.05369 -1.440334,0.154473 3.379421,0.718617 5.804009,3.787179 5.80398,7.345527 -0.0027,3.567323 -2.441664,6.639013 -5.832366,7.345518 0.483225,0.102737 0.975333,0.154498 1.46872,0.154482 4.016623,1.2e-5 7.272746,-3.357856 7.272746,-7.5 0,-4.142144 -3.256123,-7.500012 -7.272746,-7.5 z M 9.45455,9.045547 C 8.65123,9.045545 8.000007,9.656059 8,10.409171 c -3e-6,0.753119 0.651223,1.363644 1.45455,1.363641 0.803327,3e-6 1.454553,-0.610522 1.45455,-1.363641 -7e-6,-0.753112 -0.65123,-1.363626 -1.45455,-1.363624 z m 2.9091,3.954546 c -0.805846,0 -1.45455,0.744559 -1.45455,1.5 0,0.755441 0.648704,1.5 1.45455,1.5 h 4.363604 c 0.805846,0 1.45455,-0.744559 1.45455,-1.5 0,-0.755441 -0.648704,-1.5 -1.45455,-1.5 z m -2.9091,4.227281 C 8.6512,17.227374 8,17.837888 8,18.591015 c 0,0.753083 0.651217,1.363637 1.45455,1.363637 0.514139,0 0.727254,1.36364 0.727254,1.36364 0,0 0.727296,-2.456199 0.727296,-2.727277 0,-0.753141 -0.651219,-1.363641 -1.45455,-1.363641 z"
       id="path12-4"
       sodipodi:nodetypes="cccccsccccccsssssssssscss" />
    <path
       d="M 22.963625,4 H 9.036071 C 7.70089,4.0015 6.420747,4.532573 5.476753,5.476774 4.532567,6.420786 4.001525,7.700875 4,9.036068 v 13.92805 -1.89e-4 c 0.0015,1.335155 0.05581,2.092152 1,3.036164 0.943995,0.944202 2.664818,1.998451 4,2 h 3 L 16,28 l 4,9.3e-5 h 3 v 0 c 1.335183,-0.0015 3.056006,-1.0558 4,-2 0.944187,-0.944012 0.998462,-1.701009 0.999985,-3.036164 V 9.036333 C 27.998185,7.701177 27.467417,6.421051 26.52323,5.477038 25.579236,4.532836 24.299095,4.001814 22.963911,4.000264 Z M 9.200001,6.000012 h 13.599998 c 0.887095,0.0011 1.603761,0.04384 2.231,0.671244 C 25.658231,7.298468 25.9989,8.112919 26,9.000012 V 23.000024 H 6 V 9.000012 C 6.0011,8.112919 6.341774,7.298506 6.969,6.671256 7.596201,6.044043 8.312916,6.001108 9.200001,6.000012 Z"
       id="path1193-7"
       style="fill:#d3dae3;fill-opacity:1;stroke-width:0.047619"
       sodipodi:nodetypes="cccccccccccccccccccccccccccc" />
  </g>
  <metadata
     id="metadata18">
    <rdf:RDF>
      <cc:Work
         rdf:about="">
        <dc:format>image/svg+xml</dc:format>
        <dc:type
           rdf:resource="http://purl.org/dc/dcmitype/StillImage" />
      </cc:Work>
    </rdf:RDF>
  </metadata>
  <defs
     id="defs16">
    <linearGradient
       inkscape:collect="always"
       id="linearGradient448">
      <stop
         style="stop-color:#5a9cfe;stop-opacity:1"
         offset="0"
         id="stop444" />
      <stop
         style="stop-color:#af83f8;stop-opacity:1"
         offset="1"
         id="stop446" />
    </linearGradient>
    <linearGradient
       inkscape:collect="always"
       xlink:href="#linearGradient448"
       id="linearGradient5058"
       x1="148.9608"
       y1="596.36218"
       x2="148.9608"
       y2="636.12817"
       gradientUnits="userSpaceOnUse"
       gradientTransform="matrix(0.50999969,0,0,0.42750131,-58.969959,-248.94562)" />
    <linearGradient
       inkscape:collect="always"
       xlink:href="#linearGradient448"
       id="linearGradient6958"
       gradientUnits="userSpaceOnUse"
       gradientTransform="matrix(0.43219982,0,0,0.36977632,-52.54837,-217.9207)"
       x1="146.80391"
       y1="596.36243"
       x2="146.99998"
       y2="636.3623" />
  </defs>
  <sodipodi:namedview
     pagecolor="#ffffff"
     bordercolor="#000000"
     borderopacity="1"
     objecttolerance="10"
     gridtolerance="10"
     guidetolerance="10"
     inkscape:pageopacity="0"
     inkscape:pageshadow="2"
     inkscape:window-width="1920"
     inkscape:window-height="994"
     id="namedview14"
     showgrid="false"
     inkscape:zoom="13.876971"
     inkscape:cx="24.464993"
     inkscape:cy="17.65515"
     inkscape:window-x="0"
     inkscape:window-y="0"
     inkscape:window-maximized="1"
     inkscape:current-layer="svg12"
     inkscape:lockguides="true"
     inkscape:document-rotation="0"
     inkscape:showpageshadow="false"
     inkscape:pagecheckerboard="0"
     inkscape:deskcolor="#d1d1d1"
     showguides="false">
    <inkscape:grid
       type="xygrid"
       id="grid863"
       originx="0"
       originy="0" />
    <sodipodi:guide
       position="-26,34"
       orientation="0.70710678,-0.70710678"
       id="guide37791"
       inkscape:locked="true" />
  </sodipodi:namedview>
  <g
     id="22-22-kopete"
     transform="translate(32,10)">
    <rect
       style="opacity:0.00100002"
       width="22"
       height="22"
       x="0"
       y="0"
       id="rect2" />
    <path
       inkscape:connector-curvature="0"
       id="path9068-9-37-8-0-1-0-1-3-7-4-6-1"
       d="M 19.45951,2.6 2.341,2.600005 V 17.391001 H 19.629 Z"
       style="display:inline;overflow:visible;visibility:visible;opacity:1;fill:url(#linearGradient6958);fill-opacity:1;fill-rule:nonzero;stroke:none;stroke-width:0.55969;marker:none"
       sodipodi:nodetypes="cccccc" />
    <path
       d="M 16.80302,1 H 5.19673 C 4.08408,1.0012 3.01729,1.443811 2.23063,2.230645 1.44381,3.017323 1.00127,4.084063 1,5.196724 v 11.606709 -1.58e-4 c 10e-4,1.11263 0.44381,2.179405 1.23063,2.966075 0.78666,0.78684 1.85345,1.22936 2.9661,1.23065 h 11.60669 -1.6e-4 c 1.11265,-0.001 2.17944,-0.44381 2.9661,-1.23065 0.78682,-0.78667 1.22936,-1.853445 1.23063,-2.966075 V 5.196944 C 20.99799,4.084314 20.55618,3.017542 19.76936,2.230866 18.9827,1.444031 17.91591,1.001512 16.80326,1.00022 Z M 5.633,3 h 10.734 c 0.73924,9.16e-4 1.5363,0.0032 2.059,0.526 0.52269,0.522677 0.57308,0.901432 0.574,1.640677 V 17 H 3 V 5.166677 C 3.00092,4.427432 3.0513,4.048709 3.574,3.526 4.09667,3.003323 4.89376,3.000913 5.633,3 Z"
       id="path1193-3-7-2-2-4-2"
       style="fill:#d3dae3;fill-opacity:1;stroke-width:0.0396825"
       sodipodi:nodetypes="ccccccccccccccccccccccccc" />
    <path
       style="fill:#d3dae3;fill-opacity:1;stroke-width:0.909094"
       d="M 11.454542,5.000024 A 4.5454549,4.9999997 0 0 0 10.554334,5.102977 4.5454549,4.9999997 0 0 1 14.181813,10 4.5454549,4.9999997 0 0 1 10.536571,14.89701 4.5454549,4.9999997 0 0 0 11.454542,14.99998 4.5454549,4.9999997 0 0 0 15.999998,9.999981 4.5454549,4.9999997 0 0 0 11.454542,4.99998 Z M 6.909091,6.363662 A 0.90909088,0.90909093 0 0 0 6,7.272751 0.90909088,0.90909093 0 0 0 6.909091,8.181843 0.90909088,0.90909093 0 0 0 7.818181,7.272751 0.90909088,0.90909093 0 0 0 6.909091,6.363662 Z m 1.818183,2.727273 c -0.503637,0 -0.909093,0.405454 -0.909093,0.909088 0,0.50364 0.405456,0.909092 0.909093,0.909092 h 2.727268 c 0.503642,0 0.909091,-0.405452 0.909091,-0.909092 0,-0.503634 -0.405449,-0.909088 -0.909091,-0.909088 z m -1.818183,2.72727 C 6.407006,11.818205 6,12.225236 6,12.727291 c 0,0.50208 0.407014,0.909095 0.909091,0.909095 0.321349,0 0.454545,0.909091 0.454545,0.909091 0,0 0.454545,-1.637445 0.454545,-1.818186 0,-0.502084 -0.407012,-0.909086 -0.90909,-0.909086 z"
       id="path12-5-0-0" />
  </g>
</svg>
