<?xml version="1.0" encoding="UTF-8" standalone="no"?>
<svg
   width="32"
   height="32"
   version="1.1"
   id="svg12"
   sodipodi:docname="korgac.svg"
   inkscape:version="1.2.2 (b0a8486541, 2022-12-01)"
   xmlns:inkscape="http://www.inkscape.org/namespaces/inkscape"
   xmlns:sodipodi="http://sodipodi.sourceforge.net/DTD/sodipodi-0.dtd"
   xmlns:xlink="http://www.w3.org/1999/xlink"
   xmlns="http://www.w3.org/2000/svg"
   xmlns:svg="http://www.w3.org/2000/svg"
   xmlns:rdf="http://www.w3.org/1999/02/22-rdf-syntax-ns#"
   xmlns:cc="http://creativecommons.org/ns#"
   xmlns:dc="http://purl.org/dc/elements/1.1/">
  <g
     id="22-22-korgac"
     transform="translate(32,10.000001)">
    <rect
       style="opacity:0.00100002;fill:#a8aeca;fill-opacity:1"
       width="22"
       height="22"
       x="0"
       y="0"
       id="rect2" />
    <path
       inkscape:connector-curvature="0"
       id="path9068-9-37-8-0-1-0-1-3-7-4-6-1"
       d="m 19.559255,3.6 -17.118508,5e-6 V 20 h 17.288 z"
       style="display:inline;overflow:visible;visibility:visible;opacity:1;fill:url(#linearGradient6958);fill-opacity:1.0;fill-rule:nonzero;stroke:none;stroke-width:0.589346;marker:none"
       sodipodi:nodetypes="cccccc" />
    <path
       d="M 18.963143,2.888117 H 17.024861 V 1.495541 C 17.002841,1.215583 16.771525,1 16.493788,1 16.215806,1 15.984724,1.215583 15.962457,1.495541 V 2.888117 H 6.03744 V 1.495541 C 6.01518,1.215583 5.784084,1 5.506113,1 5.228382,1 4.99705,1.215583 4.975025,1.495541 V 2.888117 H 3.03676 C 2.496437,2.888117 1.978608,3.105141 1.59644,3.4911 1.214518,3.877059 1.000001,4.400617 1.000001,4.9464 v 13.995573 c 0,0.545793 0.214523,1.069309 0.596439,1.455283 C 1.978593,20.783213 2.496437,21 3.03676,21 h 15.926458 c 0.540329,0 1.05816,-0.216793 1.440342,-0.602744 0.381901,-0.385938 0.596424,-0.909497 0.596424,-1.455283 V 4.956808 C 21.002484,4.4091 20.78924,3.882949 20.407086,3.494834 20.024715,3.106492 19.505215,2.888266 18.96326,2.888266 Z M 15.96247,3.862192 v 1.296891 c -0.0121,0.149793 0.0389,0.297909 0.139709,0.408217 0.100788,0.110538 0.242938,0.173234 0.391623,0.173234 0.148685,0 0.290767,-0.06266 0.391616,-0.173234 0.100798,-0.110316 0.151311,-0.258424 0.139463,-0.408217 V 3.862441 c 0.06522,0.02751 0.127637,0.06076 0.186808,0.09954 0.419825,0.249566 0.677919,0.704925 0.678842,1.197108 0.002,0.500575 -0.258798,0.964526 -0.685678,1.218675 -0.426669,0.253867 -0.954918,0.259376 -1.387043,0.01459 -0.431877,-0.245018 -0.702531,-0.703453 -0.710592,-1.204028 -0.0069,-0.500574 0.247915,-0.967649 0.671978,-1.226333 0.05866,-0.03759 0.120041,-0.07083 0.183261,-0.09954 z m -10.987586,0 2.4e-4,1.296891 c -0.01188,0.149793 0.03859,0.297909 0.13946,0.408217 0.100871,0.110538 0.242934,0.173234 0.391629,0.173234 0.148694,0 0.29076,-0.06266 0.391627,-0.173234 C 5.998702,5.456984 6.049373,5.308876 6.037539,5.159083 V 3.862441 c 0.06555,0.02825 0.129276,0.06151 0.190123,0.09954 0.349242,0.2132 0.588392,0.570683 0.653973,0.9777 C 6.947185,5.346922 6.832645,5.76258 6.56814,6.076697 6.30366,6.391104 5.916047,6.571996 5.507869,6.571996 c -0.407964,0 -0.79556,-0.180892 -1.060022,-0.4953 -0.26448,-0.314176 -0.379078,-0.7298 -0.313494,-1.137017 0.06556,-0.407017 0.304728,-0.764466 0.65397,-0.9777 0.05921,-0.03875 0.1217,-0.072 0.186818,-0.09954 z M 19.000001,18 v 0 0 c 0,0 0,1 -1,1 h -14 v 0 c 0,0 -1,0 -1,-1 V 7 h 16 z"
       id="path61-4-2"
       style="fill:#d3dae3;fill-opacity:1;stroke-width:0.0609343"
       sodipodi:nodetypes="cccsccccsccscsscsscscccccccsccccccccccccccsccccccsccccccccccccccc" />
    <path
       d="m 11.000001,8 c -2.757543,0 -5,2.242457 -5,5 0,2.757543 2.242457,5 5,5 2.757544,0 5,-2.242457 5,-5 0,-2.757543 -2.242456,-5 -5,-5 z m 0,0.666716 c 2.39722,0 4.333338,1.936139 4.333338,4.333317 0,2.397185 -1.936151,4.333346 -4.333338,4.333346 -2.397185,0 -4.333334,-1.936161 -4.333334,-4.333346 0,-2.397178 1.936149,-4.333317 4.333334,-4.333317 z m 0.02193,-0.02009 c -2.205162,0 -4.487705,1.745582 -4.463567,4.373225 0.02539,2.763581 2.281042,4.320876 4.486187,4.320876 2.205125,0 4.224297,-1.626598 4.325036,-4.338731 0.09792,-2.636172 -2.142524,-4.35537 -4.347656,-4.35537 z m -0.362137,1.037437 c 0.002,-2.29e-4 0.0034,2.32e-4 0.0062,0 v 0.204845 c -8.1e-4,0.08928 0.03338,0.175247 0.09596,0.238785 0.06255,0.06363 0.148191,0.09934 0.2374,0.09934 0.08928,0 0.174773,-0.03579 0.2374,-0.09934 0.06262,-0.06363 0.09726,-0.149578 0.09596,-0.238785 V 9.68406 c 1.577068,0.156175 2.826391,1.405561 2.982541,2.982549 h -0.204778 c -0.01198,-6.16e-4 -0.02324,-6.16e-4 -0.03469,0 -0.08838,0.0038 -0.171443,0.04408 -0.230659,0.109917 -0.05938,0.06584 -0.08999,0.152366 -0.08544,0.240813 0.0041,0.08836 0.04413,0.171355 0.109977,0.230658 0.0658,0.05928 0.152377,0.08992 0.24082,0.08538 h 0.204837 c -0.156174,1.57706 -1.405556,2.826386 -2.982537,2.982531 v -0.204854 c 0.0013,-0.09017 -0.03287,-0.177331 -0.09633,-0.241423 -0.06345,-0.06414 -0.150201,-0.09986 -0.240418,-0.09883 -0.08895,9.11e-4 -0.173919,0.0375 -0.235932,0.101401 -0.06193,0.06389 -0.09583,0.149893 -0.09395,0.238948 v 0.20479 c -1.57682,-0.15629 -2.82615,-1.405668 -2.9823,-2.982654 h 0.20484 c 0.08921,9.85e-4 0.175242,-0.03337 0.238791,-0.09596 0.0636,-0.06259 0.09929,-0.148194 0.09929,-0.237402 0,-0.08928 -0.03576,-0.174778 -0.09929,-0.2374 -0.06359,-0.06259 -0.14958,-0.09726 -0.238791,-0.09596 H 7.683911 C 7.839851,11.091815 9.08582,9.843156 10.659696,9.684017 Z m 0.33677,1.197931 c -0.08899,9.02e-4 -0.173929,0.03746 -0.235944,0.101341 -0.06193,0.06395 -0.09583,0.149965 -0.09395,0.238942 v 1.777819 c 0,0.08836 0.03518,0.173149 0.09773,0.235706 0.06254,0.06247 0.147248,0.09772 0.23568,0.09772 h 1.333328 c 0.08928,9.85e-4 0.175227,-0.03337 0.238792,-0.09596 0.06366,-0.06259 0.09934,-0.148189 0.09934,-0.2374 0,-0.08928 -0.0358,-0.174776 -0.09934,-0.2374 -0.06367,-0.06259 -0.149592,-0.09726 -0.238792,-0.09596 h -0.99997 v -1.44447 c 0.0013,-0.09011 -0.03285,-0.177259 -0.09633,-0.241438 -0.06345,-0.06408 -0.150209,-0.0998 -0.240415,-0.09874 z"
       id="path64-8-9"
       sodipodi:nodetypes="ssssssssssssssscccssscccccccccccccccccccssscccccccssscssscccscc"
       style="fill:#d3dae3;fill-opacity:1;stroke-width:0.019841" />
  </g>
  <g
     id="korgac">
    <rect
       style="opacity:0.00100002;fill:#a8aeca;fill-opacity:1"
       width="32"
       height="32"
       x="0"
       y="0"
       id="rect7" />
    <path
       inkscape:connector-curvature="0"
       id="path9068-9-37-8-0-1"
       d="m 26.200001,7.000001 -20.4,5.8e-6 V 27.000001 h 20.4 z"
       style="display:inline;overflow:visible;visibility:visible;opacity:1;fill:url(#linearGradient5058);fill-opacity:1;fill-rule:nonzero;stroke:none;stroke-width:0.706966;marker:none"
       sodipodi:nodetypes="ccccc" />
    <path
       d="m 25.555767,6.265741 h -2.32593 v -1.67109 c -0.02642,-0.335949 -0.304016,-0.59465 -0.637295,-0.59465 -0.333574,0 -0.610883,0.258701 -0.637591,0.59465 v 1.67109 H 10.044928 v -1.67109 c -0.02672,-0.335949 -0.304027,-0.59465 -0.637593,-0.59465 -0.333277,0 -0.610874,0.258701 -0.637304,0.59465 v 1.67109 h -2.32592 c -0.648388,0 -1.269781,0.26043 -1.728384,0.72358 -0.458307,0.463151 -0.715726,1.09142 -0.715726,1.74636 v 16.79468 c 0,0.65495 0.257429,1.28319 0.715726,1.74635 0.458584,0.46315 1.079996,0.72329 1.728384,0.72329 h 19.111755 c 0.648388,0 1.269781,-0.26015 1.728395,-0.72329 0.458296,-0.46314 0.715714,-1.09141 0.715714,-1.74635 V 8.748172 c 0.003,-0.657251 -0.252877,-1.288631 -0.71146,-1.75437 -0.45887,-0.466011 -1.082253,-0.727881 -1.732599,-0.727881 z m -3.600796,1.16889 v 1.556271 c -0.01425,0.179749 0.04661,0.357489 0.167637,0.489859 0.121042,0.13265 0.291521,0.207881 0.469954,0.207881 0.178435,0 0.348913,-0.0752 0.469944,-0.207881 0.121051,-0.13237 0.181561,-0.31011 0.167361,-0.489859 V 7.434931 c 0.07817,0.033 0.153143,0.0729 0.224172,0.11944 0.503765,0.29948 0.813492,0.84591 0.814591,1.436531 0.003,0.60069 -0.310558,1.15743 -0.822805,1.46241 -0.51201,0.304639 -1.14591,0.31125 -1.66445,0.0175 -0.518263,-0.29402 -0.84303,-0.84414 -0.852708,-1.44483 -0.009,-0.60069 0.297486,-1.16118 0.806367,-1.4716 0.07046,-0.0451 0.144058,-0.085 0.219917,-0.11944 z m -13.185109,0 2.87e-4,1.556271 c -0.01425,0.179749 0.04631,0.357489 0.167352,0.489859 0.12105,0.13265 0.291519,0.207881 0.469953,0.207881 0.178434,0 0.348913,-0.0752 0.469954,-0.207881 0.121041,-0.13237 0.181838,-0.31011 0.167638,-0.489859 V 7.434931 c 0.07866,0.0339 0.155131,0.0738 0.228149,0.11944 0.419091,0.25584 0.706069,0.684821 0.784767,1.17324 0.07866,0.48869 -0.05878,0.98748 -0.376195,1.36442 -0.317376,0.37729 -0.78251,0.59436 -1.272324,0.59436 -0.489556,0 -0.954671,-0.21707 -1.272027,-0.59436 C 7.82004,9.715021 7.682523,9.216271 7.761222,8.727611 7.839892,8.239192 8.126897,7.810252 8.545988,7.554371 c 0.07105,-0.0465 0.146047,-0.0864 0.224181,-0.11944 z m 17.230139,17.56537 v 0 c 0,0 0,1 -1,1 v 0 h -18 c -1,0 -1,-1 -1,-1 v 0 -13 h 20 z"
       id="path61-8"
       style="fill:#d3dae3;fill-opacity:1;stroke-width:0.0731208"
       sodipodi:nodetypes="cccsccccsccscsscsscscccccccsccccccccccccccsccccccsccccccccccccccc" />
    <path
       d="m 16.000001,13.000001 c -3.309049,0 -6,2.690952 -6,6 0,3.309048 2.690951,6 6,6 3.30905,0 6,-2.690952 6,-6 0,-3.309048 -2.69095,-6 -6,-6 z m 0,0.800048 c 2.87667,0 5.2,2.323381 5.2,5.2 0,2.876619 -2.32338,5.2 -5.2,5.2 -2.87662,0 -5.2,-2.323381 -5.2,-5.2 0,-2.876619 2.32338,-5.2 5.2,-5.2 z m 0.0263,-0.02413 c -2.64619,0 -5.385237,2.094693 -5.356273,5.247876 0.03046,3.316294 2.737252,5.185042 5.383423,5.185042 2.64616,0 5.06917,-1.951917 5.19004,-5.206483 0.11748,-3.163398 -2.57102,-5.226435 -5.21719,-5.226435 z m -0.43456,1.244935 c 0.003,-2.79e-4 0.005,2.79e-4 0.008,0 v 0.24581 c -9.75e-4,0.10705 0.04,0.210285 0.11514,0.286546 0.0751,0.07626 0.17783,0.119142 0.28488,0.119142 0.10706,0 0.20973,-0.04288 0.28488,-0.119142 0.0752,-0.07626 0.11663,-0.179502 0.11514,-0.286546 v -0.24581 c 1.89248,0.187407 3.39167,1.686666 3.57905,3.579047 h -0.24581 c -0.0139,-7.43e-4 -0.0278,-7.43e-4 -0.0417,0 -0.10612,0.0055 -0.20573,0.05292 -0.27679,0.131884 -0.0712,0.07896 -0.10798,0.182849 -0.10249,0.288975 0.006,0.106119 0.053,0.205637 0.13197,0.276786 0.0789,0.07106 0.18285,0.107886 0.28898,0.102401 h 0.24581 c -0.187408,1.892475 -1.686668,3.391666 -3.579048,3.579047 v -0.24581 c 0.002,-0.108259 -0.0395,-0.212798 -0.115699,-0.289714 -0.0761,-0.07701 -0.18024,-0.119791 -0.288501,-0.118675 -0.10677,0.0011 -0.2087,0.04492 -0.283119,0.121651 -0.0743,0.07664 -0.114951,0.179874 -0.112721,0.286739 v 0.245809 c -1.892479,-0.187408 -3.391669,-1.686667 -3.579049,-3.579047 h 0.245809 c 0.107051,0.0015 0.21029,-0.03999 0.28655,-0.11514 0.0763,-0.07515 0.11914,-0.17783 0.11914,-0.284882 0,-0.107052 -0.0429,-0.209728 -0.11914,-0.28488 -0.0763,-0.07515 -0.179499,-0.116629 -0.28655,-0.115141 h -0.245809 c 0.187129,-1.889691 1.682289,-3.388095 3.570949,-3.579047 z m 0.40412,1.4375 c -0.10677,0.0011 -0.2087,0.04492 -0.28312,0.12156 -0.0743,0.07673 -0.11495,0.179965 -0.11272,0.286737 v 2.133382 c 0,0.106119 0.0421,0.207776 0.11719,0.282833 0.0751,0.07506 0.17671,0.117187 0.28283,0.117187 h 1.59998 c 0.10705,0.0015 0.21028,-0.03999 0.28655,-0.11514 0.0763,-0.07515 0.11914,-0.177828 0.11914,-0.28488 0,-0.107053 -0.0429,-0.20973 -0.11914,-0.284881 -0.0763,-0.07515 -0.17951,-0.11663 -0.28655,-0.115142 h -1.19995 v -1.733356 c 0.002,-0.108167 -0.0395,-0.212705 -0.115701,-0.289715 -0.0761,-0.07692 -0.180249,-0.119697 -0.288499,-0.118582 z"
       id="path64-4"
       sodipodi:nodetypes="ssssssssssssssscccssscccccccccccccccccccssscccccccssscssscccscc"
       style="fill:#d3dae3;fill-opacity:1;stroke-width:0.0238095" />
  </g>
  <style
     id="current-color-scheme"
     type="text/css">.ColorScheme-Text { color:#d6dbf1; }
</style>
  <metadata
     id="metadata18">
    <rdf:RDF>
      <cc:Work
         rdf:about="">
        <dc:format>image/svg+xml</dc:format>
        <dc:type
           rdf:resource="http://purl.org/dc/dcmitype/StillImage" />
      </cc:Work>
    </rdf:RDF>
  </metadata>
  <defs
     id="defs16">
    <linearGradient
       inkscape:collect="always"
       id="linearGradient448">
      <stop
         style="stop-color:#1ba97f;stop-opacity:1"
         offset="0"
         id="stop444" />
      <stop
         style="stop-color:#86cfda;stop-opacity:1"
         offset="1"
         id="stop446" />
    </linearGradient>
    <linearGradient
       inkscape:collect="always"
       xlink:href="#linearGradient448"
       id="linearGradient5058"
       x1="148.9608"
       y1="605.88599"
       x2="149.25482"
       y2="636.36206"
       gradientUnits="userSpaceOnUse"
       gradientTransform="matrix(0.50999969,0,0,0.5000015,-58.969958,-291.18199)" />
    <linearGradient
       inkscape:collect="always"
       xlink:href="#linearGradient448"
       id="linearGradient6958"
       gradientUnits="userSpaceOnUse"
       gradientTransform="matrix(0.43219982,0,0,0.41000148,-52.448622,-240.90947)"
       x1="146.80391"
       y1="604.65509"
       x2="146.80391"
       y2="633.92328" />
  </defs>
  <sodipodi:namedview
     pagecolor="#ffffff"
     bordercolor="#666666"
     borderopacity="1"
     objecttolerance="10"
     gridtolerance="10"
     guidetolerance="10"
     inkscape:pageopacity="0"
     inkscape:pageshadow="2"
     inkscape:window-width="1920"
     inkscape:window-height="994"
     id="namedview14"
     showgrid="false"
     inkscape:zoom="9.8125003"
     inkscape:cx="27.057324"
     inkscape:cy="20.99363"
     inkscape:window-x="0"
     inkscape:window-y="0"
     inkscape:window-maximized="1"
     inkscape:current-layer="svg12"
     inkscape:document-rotation="0"
     inkscape:pagecheckerboard="0"
     inkscape:lockguides="true"
     inkscape:showpageshadow="2"
     inkscape:deskcolor="#d1d1d1">
    <inkscape:grid
       type="xygrid"
       id="grid3090"
       originx="32.000001"
       originy="10.000001" />
  </sodipodi:namedview>
</svg>
