<?xml version="1.0" encoding="UTF-8" standalone="no"?>
<!-- Created with Inkscape (http://www.inkscape.org/) -->

<svg
   id="svg4153"
   version="1.1"
   inkscape:version="1.2.2 (b0a8486541, 2022-12-01)"
   width="32"
   height="32"
   sodipodi:docname="kpackagekit.svg"
   viewBox="0 0 32 32"
   xmlns:inkscape="http://www.inkscape.org/namespaces/inkscape"
   xmlns:sodipodi="http://sodipodi.sourceforge.net/DTD/sodipodi-0.dtd"
   xmlns:xlink="http://www.w3.org/1999/xlink"
   xmlns="http://www.w3.org/2000/svg"
   xmlns:svg="http://www.w3.org/2000/svg"
   xmlns:rdf="http://www.w3.org/1999/02/22-rdf-syntax-ns#"
   xmlns:cc="http://creativecommons.org/ns#"
   xmlns:dc="http://purl.org/dc/elements/1.1/">
  <g
     id="22-22-kpackagekit-updates"
     transform="translate(96.003124,-21.995967)">
    <rect
       style="opacity:0.00100002"
       width="22"
       height="22"
       x="0"
       y="0"
       id="rect615" />
    <path
       inkscape:connector-curvature="0"
       id="path9068-9-37-8-0-1-0-1-3-7-4-6-1-5"
       d="M 19.31551,2.8 2.197,2.800005 V 17.591001 H 19.485 Z"
       style="display:inline;overflow:visible;visibility:visible;opacity:0.6;fill:url(#linearGradient15096);fill-opacity:1.0;fill-rule:nonzero;stroke:none;stroke-width:0.55969;marker:none"
       sodipodi:nodetypes="cccccc" />
    <path
       d="M 16.80301,1 H 5.196742 C 4.084091,1.0015 3.017281,1.44383 2.230622,2.230652 1.443769,3.017322 1.001262,4.084056 1,5.196749 V 16.803451 16.8033 c 8.62e-4,1.112617 0.443769,2.179389 1.230622,2.96606 0.786659,0.786822 1.853469,1.229367 2.96612,1.230652 h 11.606698 -1.9e-4 c 1.11265,-0.0012 2.17946,-0.44383 2.96611,-1.230652 0.78686,-0.786671 1.22937,-1.853443 1.23063,-2.96606 V 5.196976 C 20.99799,4.084321 20.55622,3.017549 19.76936,2.230878 18.98271,1.444056 17.9159,1.001511 16.80325,1.000226 Z M 5.617003,3.00005 H 16.383 c 0.73924,0.0011 1.43628,-0.113764 1.959,0.408983 0.52269,0.522671 0.6571,1.018431 0.658,1.757669 V 17.000025 H 3.000001 V 5.166702 C 3.000852,4.427464 3.135308,3.931741 3.658002,3.409033 4.18068,2.886362 4.87778,3.000957 5.617003,3.00005 Z"
       id="path1193-3-4-7"
       style="fill:#d3dae3;fill-opacity:1;stroke-width:0.0396828"
       sodipodi:nodetypes="ccccccccccccccccccccccccc" />
    <path
       d="M 10.53938,4.5 C 9.885344,4.5018 9.236152,4.618527 8.620635,4.845641 8.494335,4.892251 8.418553,5.024344 8.44072,5.160516 8.46273,5.296239 8.57643,5.396223 8.710525,5.39803 c 2.617,0.04072 4.699295,2.08339 5.000135,4.685556 h -1.37272 c -0.11218,9.5e-5 -0.21321,0.06923 -0.25618,0.175539 -0.0429,0.106359 -0.0191,0.228467 0.06,0.309895 l 2.6924,2.762412 c 0.10837,0.110847 0.28393,0.110847 0.39227,0 l 2.69242,-2.762412 c 0.0792,-0.08142 0.10293,-0.204038 0.06,-0.309895 -0.043,-0.106359 -0.14401,-0.175539 -0.25619,-0.175539 H 16.20378 C 16.05062,6.98567 13.59757,4.500091 10.54054,4.500091 h -0.0011 z m 4.49104,8.227817 z M 6.965345,6.585424 c -0.07206,0.0012 -0.140781,0.03167 -0.191802,0.08325 L 4.081134,9.431078 c -0.07924,0.08143 -0.102895,0.204038 -0.06005,0.309898 0.04295,0.106339 0.144005,0.175535 0.256187,0.175535 h 1.518925 c 0.152921,3.098049 2.606095,5.583812 5.663254,5.583494 0.65541,0 1.30509,-0.119891 1.91985,-0.347006 h 1.3e-4 c 0.12631,-0.04654 0.20208,-0.178692 0.17993,-0.314868 -0.022,-0.135725 -0.13572,-0.235708 -0.26982,-0.23751 C 10.672447,14.559901 8.590235,12.51832 8.289418,9.916418 H 9.662127 C 9.774315,9.916231 9.875338,9.847188 9.918308,9.740883 9.961208,9.634571 9.937448,9.51242 9.858288,9.430987 L 7.165853,6.668578 C 7.112733,6.613838 7.040422,6.583968 6.965381,6.585338 Z m 0.0044,0.686892 v 9.1e-5 0 0 0 0 0 0 0 0 0 0 z"
       id="path2-36-15-35-4-4"
       sodipodi:nodetypes="ccccccccccccccscccccccccccccccccccccccccccccsccccccccccccccc"
       style="color:#d6dbf1;fill:#3daee9;fill-opacity:1;stroke:none;stroke-width:0.0321079;stroke-opacity:1"
       class="ColorScheme-Text" />
  </g>
  <g
     id="kpackagekit-updates"
     transform="translate(96.003124,0.004033)">
    <rect
       style="opacity:0.00100002"
       width="32"
       height="32"
       x="0"
       y="0"
       id="rect652" />
    <path
       inkscape:connector-curvature="0"
       id="path9068-9-37-8-0-1-0"
       d="m 26.19985,6 -20.4,5e-6 V 23.1 h 20.4 z"
       style="display:inline;overflow:visible;visibility:visible;opacity:0.6;fill:url(#linearGradient12250);fill-opacity:1.0;fill-rule:nonzero;stroke:none;stroke-width:0.653705;marker:none"
       sodipodi:nodetypes="ccccc" />
    <path
       d="M 22.96363,4 H 9.03607 C 7.70089,4.0015 6.42075,4.532573 5.47676,5.476774 4.53257,6.420787 4.00153,7.700875 4,9.036068 v 13.928051 -1.9e-4 c 0.001,1.335156 0.53257,2.615282 1.47676,3.559294 0.94399,0.944202 2.22413,1.475226 3.55931,1.476775 h 13.92804 -2e-4 c 1.33519,-0.0015 2.61533,-0.532573 3.55932,-1.476775 0.94419,-0.944012 1.47523,-2.224138 1.47676,-3.559294 V 9.036333 C 27.99799,7.701177 27.46742,6.421051 26.52323,5.477039 25.57924,4.532837 24.2991,4.001814 22.96391,4.000264 Z M 9.2,6.000012 h 13.6 c 0.8871,0.0011 1.60376,0.04384 2.231,0.671244 0.62723,0.627212 0.9679,1.441663 0.969,2.328756 V 23.000024 H 6 V 9.000012 C 6.001,8.112919 6.34178,7.298506 6.969,6.671256 7.5962,6.044043 8.31292,6.001108 9.2,6.000012 Z"
       id="path1193-50-3"
       style="fill:#d3dae3;fill-opacity:1;stroke-width:0.047619"
       sodipodi:nodetypes="ccccccccccccccccccccccccc" />
    <path
       d="m 15.40463,7.450024 c -0.8409,0.0012 -1.67558,0.150857 -2.46695,0.439902 -0.16239,0.05929 -0.25981,0.227446 -0.23133,0.400757 0.0283,0.17274 0.1745,0.299984 0.3469,0.302294 3.36471,0.05182 6.04195,2.651582 6.42872,5.96343 h -1.7649 c -0.14425,1.09e-4 -0.27416,0.08813 -0.32938,0.223398 -0.0551,0.135351 -0.0247,0.290777 0.0772,0.394427 l 3.46164,3.515784 c 0.1393,0.141095 0.36505,0.141095 0.50436,0 l 3.46166,-3.515784 c 0.10192,-0.103624 0.1323,-0.259688 0.0772,-0.394427 -0.0552,-0.135332 -0.18515,-0.223398 -0.32939,-0.223398 H 22.68747 C 22.49054,10.613603 19.33662,7.450148 15.40616,7.450148 h -10e-4 z m 5.77418,10.471769 z M 10.80945,10.104194 c -0.0926,9.75e-4 -0.181,0.04035 -0.2466,0.105941 l -3.46166,3.515804 c -0.10187,0.103631 -0.1323,0.259687 -0.0772,0.39442 0.0552,0.13534 0.18515,0.223404 0.32938,0.223404 h 1.9529 c 0.19662,3.942967 3.35068,7.106669 7.28131,7.106261 0.84265,0 1.67798,-0.152591 2.46838,-0.441634 h 1.5e-4 c 0.16239,-0.05931 0.25983,-0.227434 0.23133,-0.40075 -0.0283,-0.172745 -0.17448,-0.29999 -0.3469,-0.302291 -3.36482,-0.05182 -6.04195,-2.6502 -6.42871,-5.961708 h 1.76491 c 0.14424,-2.25e-4 0.27413,-0.08813 0.32938,-0.223398 0.0551,-0.135351 0.0247,-0.290777 -0.0772,-0.394427 l -3.46167,-3.515785 c -0.0683,-0.06969 -0.16126,-0.10771 -0.25774,-0.105946 z m 0.006,0.874237 v 1.08e-4 0 0 0 0 0 0 0 0 0 0 z"
       id="path2-36-15-3-3-0"
       sodipodi:nodetypes="ccccccccccccccscccccccccccccccccccccccccccccsccccccccccccccc"
       style="color:#d6dbf1;fill:#3daee9;fill-opacity:1;stroke:none;stroke-width:0.041073;stroke-opacity:1"
       class="ColorScheme-Text" />
  </g>
  <g
     id="kpackagekit-inactive">
    <rect
       style="opacity:0.00100002"
       width="32"
       height="32"
       x="-3.8951634e-11"
       y="-4.6337427e-09"
       id="rect640" />
    <path
       inkscape:connector-curvature="0"
       id="path9068-9-37-8-0-1"
       d="m 26.2,6 -20.4,5e-6 V 23.1 h 20.4 z"
       style="display:inline;overflow:visible;visibility:visible;opacity:0.6;fill:url(#linearGradient5058);fill-opacity:1;fill-rule:nonzero;stroke:none;stroke-width:0.653705;marker:none"
       sodipodi:nodetypes="ccccc" />
    <path
       d="M 22.963777,4 H 9.0362235 c -1.335181,0.0015 -2.615324,0.532573 -3.559318,1.476774 -0.944186,0.944013 -1.475229,2.224101 -1.476753,3.559294 v 13.928051 -1.9e-4 c 0.0015,1.335156 0.532567,2.615282 1.476753,3.559294 0.943994,0.944202 2.224137,1.475226 3.559318,1.476775 h 13.9280345 -1.94e-4 c 1.335183,-0.0015 2.615324,-0.532573 3.559318,-1.476775 0.944187,-0.944012 1.475232,-2.224138 1.476755,-3.559294 V 9.036333 C 27.998337,7.701177 27.467569,6.421051 26.523382,5.477039 25.579388,4.532837 24.299247,4.001814 22.964063,4.000264 Z M 9.2001525,6.000012 H 22.800151 c 0.887095,0.0011 1.603761,0.04384 2.231,0.671244 0.627232,0.627212 0.967901,1.441663 0.969001,2.328756 V 23.000024 H 6.0001525 V 9.000012 c 0.0011,-0.887093 0.341774,-1.701506 0.969,-2.328756 0.627201,-0.627213 1.343916,-0.670148 2.231,-0.671244 z"
       id="path1193-50"
       style="fill:#d3dae3;fill-opacity:1;stroke-width:0.047619"
       sodipodi:nodetypes="ccccccccccccccccccccccccc" />
    <path
       d="m 15.404777,7.450024 c -0.8409,0.0012 -1.675574,0.150857 -2.466952,0.439902 -0.162385,0.05929 -0.259808,0.227446 -0.23132,0.400757 0.02834,0.17274 0.174491,0.299984 0.346891,0.302294 3.36471,0.05182 6.041952,2.651582 6.428726,5.96343 h -1.764901 c -0.144253,1.09e-4 -0.274158,0.08813 -0.329384,0.223398 -0.05511,0.135351 -0.02471,0.290777 0.0772,0.394427 l 3.461647,3.515784 c 0.139299,0.141095 0.365042,0.141095 0.504359,0 l 3.461661,-3.515784 c 0.101916,-0.103624 0.132294,-0.259688 0.0772,-0.394427 -0.05522,-0.135332 -0.185155,-0.223398 -0.329397,-0.223398 H 22.687625 C 22.490691,10.613603 19.336774,7.450148 15.40631,7.450148 h -0.0011 z m 5.774187,10.471769 z M 10.8096,10.104194 c -0.09262,9.75e-4 -0.181003,0.04035 -0.246603,0.105941 l -3.4616545,3.515804 c -0.101876,0.103631 -0.132301,0.259687 -0.0772,0.39442 0.05521,0.13534 0.185147,0.223404 0.329381,0.223404 h 1.952898 c 0.196616,3.942967 3.3506825,7.106669 7.2813045,7.106261 0.842656,0 1.677981,-0.152591 2.468381,-0.441634 h 1.57e-4 c 0.162382,-0.05931 0.259822,-0.227434 0.231327,-0.40075 -0.02833,-0.172745 -0.17448,-0.29999 -0.346901,-0.302291 -3.364821,-0.05182 -6.041951,-2.6502 -6.428712,-5.961708 h 1.764907 c 0.144246,-2.25e-4 0.274134,-0.08813 0.32938,-0.223398 0.05511,-0.135351 0.02471,-0.290777 -0.0772,-0.394427 l -3.461661,-3.515785 c -0.06832,-0.06969 -0.161269,-0.10771 -0.257749,-0.105946 z m 0.0058,0.874237 v 1.08e-4 0 0 0 0 0 0 0 0 0 0 z"
       id="path2-36-15-3-3"
       sodipodi:nodetypes="ccccccccccccccscccccccccccccccccccccccccccccsccccccccccccccc"
       style="color:#d6dbf1;fill:#d3dae3;fill-opacity:1;stroke:none;stroke-width:0.041073;stroke-opacity:1"
       class="ColorScheme-Text" />
  </g>
  <metadata
     id="metadata4159">
    <rdf:RDF>
      <cc:Work
         rdf:about="">
        <dc:format>image/svg+xml</dc:format>
        <dc:type
           rdf:resource="http://purl.org/dc/dcmitype/StillImage" />
      </cc:Work>
    </rdf:RDF>
  </metadata>
  <defs
     id="defs4157">
    <linearGradient
       inkscape:collect="always"
       id="linearGradient1065">
      <stop
         style="stop-color:#ffc4ff;stop-opacity:1;"
         offset="0"
         id="stop1061" />
      <stop
         style="stop-color:#ffeeaa;stop-opacity:1"
         offset="1"
         id="stop1063" />
    </linearGradient>
    <linearGradient
       inkscape:collect="always"
       id="linearGradient1053">
      <stop
         style="stop-color:#ffb380;stop-opacity:1"
         offset="0"
         id="stop1049" />
      <stop
         style="stop-color:#6db2c5;stop-opacity:1;"
         offset="1"
         id="stop1051" />
    </linearGradient>
    <linearGradient
       inkscape:collect="always"
       id="linearGradient492">
      <stop
         style="stop-color:#5581aa;stop-opacity:1;"
         offset="0"
         id="stop488" />
      <stop
         style="stop-color:#ffaaaa;stop-opacity:1"
         offset="1"
         id="stop490" />
    </linearGradient>
    <linearGradient
       inkscape:collect="always"
       id="linearGradient17769">
      <stop
         style="stop-color:#5581aa;stop-opacity:1;"
         offset="0"
         id="stop17765" />
      <stop
         style="stop-color:#6db2c5;stop-opacity:1;"
         offset="1"
         id="stop17767" />
    </linearGradient>
    <style
       type="text/css"
       id="current-color-scheme">.ColorScheme-Text { color:#d6dbf1; }
.ColorScheme-Background { color:#eff0f1; }
.ColorScheme-Highlight { color:#3daee9; }
.ColorScheme-ViewText { color:#31363b; }
.ColorScheme-ViewBackground { color:#fcfcfc; }
.ColorScheme-ViewHover { color:#93cee9; }
.ColorScheme-ViewFocus { color:#3daee9; }
.ColorScheme-ButtonText { color:#31363b; }
.ColorScheme-ButtonBackground { color:#eff0f1; }
.ColorScheme-ButtonHover { color:#93cee9; }
.ColorScheme-ButtonFocus { color:#3daee9; }
</style>
    <linearGradient
       inkscape:collect="always"
       xlink:href="#linearGradient1065"
       id="linearGradient5058"
       x1="148.9608"
       y1="596.36218"
       x2="148.9608"
       y2="636.12817"
       gradientUnits="userSpaceOnUse"
       gradientTransform="matrix(0.50999969,0,0,0.42750131,-58.969959,-248.94562)" />
    <linearGradient
       inkscape:collect="always"
       xlink:href="#linearGradient492"
       id="linearGradient12188"
       gradientUnits="userSpaceOnUse"
       gradientTransform="matrix(0.50999969,0,0,0.42750131,-58.970111,-248.94562)"
       x1="148.9608"
       y1="596.36218"
       x2="148.9608"
       y2="636.12817" />
    <linearGradient
       inkscape:collect="always"
       xlink:href="#linearGradient1053"
       id="linearGradient12219"
       gradientUnits="userSpaceOnUse"
       gradientTransform="matrix(0.50999969,0,0,0.42750131,-58.970111,-248.94561)"
       x1="148.9608"
       y1="596.36218"
       x2="148.9608"
       y2="636.12817" />
    <linearGradient
       inkscape:collect="always"
       xlink:href="#linearGradient17769"
       id="linearGradient12250"
       gradientUnits="userSpaceOnUse"
       gradientTransform="matrix(0.50999969,0,0,0.42750131,-58.970109,-248.94562)"
       x1="148.9608"
       y1="596.36218"
       x2="148.9608"
       y2="636.12817" />
    <linearGradient
       inkscape:collect="always"
       xlink:href="#linearGradient1065"
       id="linearGradient6958"
       gradientUnits="userSpaceOnUse"
       gradientTransform="matrix(0.43219982,0,0,0.36977632,-52.69237,-217.7207)"
       x1="146.80391"
       y1="596.36243"
       x2="146.99998"
       y2="636.3623" />
    <linearGradient
       inkscape:collect="always"
       xlink:href="#linearGradient492"
       id="linearGradient15034"
       gradientUnits="userSpaceOnUse"
       gradientTransform="matrix(0.43219982,0,0,0.36977632,-52.69237,-217.7207)"
       x1="146.80391"
       y1="596.36243"
       x2="146.99998"
       y2="636.3623" />
    <linearGradient
       inkscape:collect="always"
       xlink:href="#linearGradient1053"
       id="linearGradient15065"
       gradientUnits="userSpaceOnUse"
       gradientTransform="matrix(0.43219982,0,0,0.36977632,-52.692371,-217.7207)"
       x1="146.80391"
       y1="596.36243"
       x2="146.99998"
       y2="636.3623" />
    <linearGradient
       inkscape:collect="always"
       xlink:href="#linearGradient17769"
       id="linearGradient15096"
       gradientUnits="userSpaceOnUse"
       gradientTransform="matrix(0.43219982,0,0,0.36977632,-52.69237,-217.7207)"
       x1="146.80391"
       y1="596.36243"
       x2="146.99998"
       y2="636.3623" />
  </defs>
  <sodipodi:namedview
     pagecolor="#ffffff"
     bordercolor="#666666"
     borderopacity="1"
     objecttolerance="10"
     gridtolerance="10000"
     guidetolerance="10"
     inkscape:pageopacity="0"
     inkscape:pageshadow="2"
     inkscape:window-width="1920"
     inkscape:window-height="994"
     id="namedview4155"
     inkscape:document-units="px"
     showgrid="false"
     inkscape:showpageshadow="false"
     borderlayer="true"
     inkscape:zoom="5.6568545"
     inkscape:cx="47.641317"
     inkscape:cy="19.887377"
     inkscape:window-x="0"
     inkscape:window-y="0"
     inkscape:window-maximized="1"
     inkscape:current-layer="svg4153"
     inkscape:pagecheckerboard="0"
     showguides="false"
     inkscape:lockguides="true"
     inkscape:deskcolor="#d1d1d1">
    <sodipodi:guide
       position="133.45741,-42.12372"
       orientation="22,0"
       id="guide4146"
       inkscape:locked="true" />
    <sodipodi:guide
       position="133.45741,-64.12372"
       orientation="0,22"
       id="guide4148"
       inkscape:locked="true" />
    <sodipodi:guide
       position="155.45741,-64.12372"
       orientation="-22,0"
       id="guide4150"
       inkscape:locked="true" />
    <sodipodi:guide
       position="155.45741,-42.12372"
       orientation="0,-22"
       id="guide4152"
       inkscape:locked="true" />
    <sodipodi:guide
       position="136.45741,-45.12372"
       orientation="16,0"
       id="guide4154"
       inkscape:locked="true" />
    <sodipodi:guide
       position="151.45741,-61.12372"
       orientation="0,16"
       id="guide4156"
       inkscape:locked="true" />
    <sodipodi:guide
       position="152.45741,-61.12372"
       orientation="-16,0"
       id="guide4158"
       inkscape:locked="true" />
    <sodipodi:guide
       position="152.45741,-45.12372"
       orientation="0,-16"
       id="guide4160"
       inkscape:locked="true" />
    <inkscape:grid
       type="xygrid"
       id="grid882"
       originx="3.8951953e-11"
       originy="4.6337441e-09" />
  </sodipodi:namedview>
  <inkscape:clipboard
     style="opacity:0.01000001;fill:#00000f;fill-opacity:0;stroke-width:1;stroke-linecap:butt;stroke-linejoin:miter;stroke-miterlimit:4;stroke-dasharray:none;stroke-dashoffset:0;stroke-opacity:1;stroke:none"
     min="0,0"
     max="22,22" />
  <g
     id="kpackagekit-important"
     transform="translate(32.003124,0.004033)">
    <rect
       style="opacity:0.00100002"
       width="32"
       height="32"
       x="0"
       y="0"
       id="rect633" />
    <path
       inkscape:connector-curvature="0"
       id="path9068-9-37-8-0-1-5"
       d="m 26.199848,6 -20.4,5e-6 V 23.1 h 20.4 z"
       style="display:inline;overflow:visible;visibility:visible;opacity:0.6;fill:url(#linearGradient12188);fill-opacity:1.0;fill-rule:nonzero;stroke:none;stroke-width:0.653705;marker:none"
       sodipodi:nodetypes="ccccc" />
    <path
       d="M 22.963625,4 H 9.036071 C 7.70089,4.0015 6.420747,4.532573 5.476753,5.476774 4.532567,6.420787 4.001525,7.700875 4,9.036068 v 13.928051 -1.9e-4 c 0.0015,1.335156 0.532567,2.615282 1.476753,3.559294 0.943995,0.944202 2.224137,1.475226 3.559319,1.476775 h 13.928034 -1.94e-4 c 1.335183,-0.0015 2.615324,-0.532573 3.559318,-1.476775 0.944187,-0.944012 1.475232,-2.224138 1.476755,-3.559294 V 9.036333 C 27.998185,7.701177 27.467417,6.421051 26.52323,5.477039 25.579236,4.532837 24.299095,4.001814 22.963911,4.000264 Z M 9.200001,6.000012 h 13.599998 c 0.887095,0.0011 1.603761,0.04384 2.231,0.671244 C 25.658231,7.298468 25.9989,8.112919 26,9.000012 V 23.000024 H 6 V 9.000012 C 6.0011,8.112919 6.341774,7.298506 6.969,6.671256 7.596201,6.044043 8.312916,6.001108 9.200001,6.000012 Z"
       id="path1193-50-6"
       style="fill:#d3dae3;fill-opacity:1;stroke-width:0.047619"
       sodipodi:nodetypes="ccccccccccccccccccccccccc" />
    <path
       d="m 15.404625,7.450024 c -0.8409,0.0012 -1.675574,0.150857 -2.466952,0.439902 -0.162385,0.05929 -0.259808,0.227446 -0.23132,0.400757 0.02834,0.17274 0.174491,0.299984 0.346891,0.302294 3.36471,0.05182 6.041952,2.651582 6.428726,5.96343 h -1.764901 c -0.144253,1.09e-4 -0.274158,0.08813 -0.329384,0.223398 -0.05511,0.135351 -0.02471,0.290777 0.0772,0.394427 l 3.461647,3.515784 c 0.139299,0.141095 0.365042,0.141095 0.504359,0 l 3.461661,-3.515784 c 0.101916,-0.103624 0.132294,-0.259688 0.0772,-0.394427 -0.05522,-0.135332 -0.185155,-0.223398 -0.329397,-0.223398 H 22.687473 C 22.490539,10.613603 19.336622,7.450148 15.406158,7.450148 h -0.0011 z m 5.774187,10.471769 z M 10.809448,10.104194 c -0.09262,9.75e-4 -0.181003,0.04035 -0.246603,0.105941 L 7.10119,13.725939 c -0.101876,0.103631 -0.1323,0.259687 -0.0772,0.39442 0.05521,0.13534 0.185147,0.223404 0.329382,0.223404 h 1.952897 c 0.196616,3.942967 3.350683,7.106669 7.281305,7.106261 0.842656,0 1.677981,-0.152591 2.468381,-0.441634 h 1.57e-4 c 0.162382,-0.05931 0.259822,-0.227434 0.231327,-0.40075 -0.02833,-0.172745 -0.17448,-0.29999 -0.346901,-0.302291 -3.364821,-0.05182 -6.041951,-2.6502 -6.428712,-5.961708 h 1.764907 c 0.144246,-2.25e-4 0.274134,-0.08813 0.32938,-0.223398 0.05511,-0.135351 0.02471,-0.290777 -0.0772,-0.394427 l -3.461661,-3.515785 c -0.06832,-0.06969 -0.161269,-0.10771 -0.257749,-0.105946 z m 0.0058,0.874237 v 1.08e-4 0 0 0 0 0 0 0 0 0 0 z"
       id="path2-36-15-3-3-1"
       sodipodi:nodetypes="ccccccccccccccscccccccccccccccccccccccccccccsccccccccccccccc"
       style="color:#d6dbf1;fill:#bf616a;fill-opacity:1;stroke:none;stroke-width:0.041073;stroke-opacity:1"
       class="ColorScheme-Text" />
  </g>
  <g
     id="kpackagekit-security"
     transform="translate(64.003124,0.004033)">
    <rect
       style="opacity:0.00100002"
       width="32"
       height="32"
       x="0"
       y="0"
       id="rect645" />
    <path
       inkscape:connector-curvature="0"
       id="path9068-9-37-8-0-1-9"
       d="m 26.199848,6 -20.4,5e-6 V 23.1 h 20.4 z"
       style="display:inline;overflow:visible;visibility:visible;opacity:0.6;fill:url(#linearGradient12219);fill-opacity:1.0;fill-rule:nonzero;stroke:none;stroke-width:0.653705;marker:none"
       sodipodi:nodetypes="ccccc" />
    <path
       d="M 22.963625,4 H 9.036072 C 7.70089,4.0015 6.420748,4.532573 5.476753,5.476774 4.532567,6.420787 4.001525,7.700875 4,9.036068 v 13.928051 -1.9e-4 c 0.0015,1.335156 0.532567,2.615282 1.476753,3.559294 0.943995,0.944202 2.224137,1.475226 3.559319,1.476775 h 13.928034 -1.94e-4 c 1.335183,-0.0015 2.615324,-0.532573 3.559318,-1.476775 0.944187,-0.944012 1.475232,-2.224138 1.476755,-3.559294 V 9.036333 C 27.998185,7.701177 27.467417,6.421051 26.52323,5.477039 25.579236,4.532837 24.299095,4.001814 22.963911,4.000264 Z M 9.200001,6.000012 h 13.599998 c 0.887095,0.0011 1.603761,0.04384 2.231,0.671244 C 25.658231,7.298468 25.9989,8.112919 26,9.000012 V 23.000024 H 6 V 9.000012 C 6.0011,8.112919 6.341774,7.298506 6.969001,6.671256 7.596202,6.044043 8.312916,6.001108 9.200001,6.000012 Z"
       id="path1193-50-8"
       style="fill:#d3dae3;fill-opacity:1;stroke-width:0.047619"
       sodipodi:nodetypes="ccccccccccccccccccccccccc" />
    <path
       d="m 15.404625,7.450024 c -0.8409,0.0012 -1.675574,0.150857 -2.466952,0.439902 -0.162385,0.05929 -0.259808,0.227446 -0.23132,0.400757 0.02834,0.17274 0.174491,0.299984 0.346891,0.302294 3.36471,0.05182 6.041952,2.651582 6.428726,5.96343 h -1.764901 c -0.144253,1.09e-4 -0.274158,0.08813 -0.329384,0.223398 -0.05511,0.135351 -0.02471,0.290777 0.0772,0.394427 l 3.461647,3.515784 c 0.139299,0.141095 0.365042,0.141095 0.504359,0 l 3.461661,-3.515784 c 0.101916,-0.103624 0.132294,-0.259688 0.0772,-0.394427 -0.05522,-0.135332 -0.185155,-0.223398 -0.329397,-0.223398 H 22.687473 C 22.490539,10.613603 19.336622,7.450148 15.406158,7.450148 h -0.0011 z m 5.774187,10.471769 z M 10.809448,10.104194 c -0.09262,9.75e-4 -0.181003,0.04035 -0.246603,0.105941 L 7.10119,13.725939 c -0.101876,0.103631 -0.1323,0.259687 -0.0772,0.39442 0.05521,0.13534 0.185147,0.223404 0.329381,0.223404 h 1.952898 c 0.196617,3.942967 3.350683,7.106669 7.281305,7.106261 0.842656,0 1.677981,-0.152591 2.468381,-0.441634 h 1.57e-4 c 0.162382,-0.05931 0.259822,-0.227434 0.231327,-0.40075 -0.02833,-0.172745 -0.17448,-0.29999 -0.346901,-0.302291 -3.364821,-0.05182 -6.041951,-2.6502 -6.428712,-5.961708 h 1.764907 c 0.144246,-2.25e-4 0.274134,-0.08813 0.32938,-0.223398 0.05511,-0.135351 0.02471,-0.290777 -0.0772,-0.394427 l -3.461661,-3.515785 c -0.06832,-0.06969 -0.161269,-0.10771 -0.257749,-0.105946 z m 0.0058,0.874237 v 1.08e-4 0 0 0 0 0 0 0 0 0 0 z"
       id="path2-36-15-3-3-4"
       sodipodi:nodetypes="ccccccccccccccscccccccccccccccccccccccccccccsccccccccccccccc"
       style="color:#d6dbf1;fill:#d08770;fill-opacity:1;stroke:none;stroke-width:0.041073;stroke-opacity:1"
       class="ColorScheme-Text" />
  </g>
  <g
     id="22-22-kpackagekit-inactive"
     transform="translate(0.003124,-21.995967)">
    <rect
       style="opacity:0.00100002"
       width="22"
       height="22"
       x="0"
       y="0"
       id="rect601" />
    <path
       inkscape:connector-curvature="0"
       id="path9068-9-37-8-0-1-0-1-3-7-4-6-1"
       d="M 19.31551,2.8 2.197,2.800005 V 17.591001 H 19.485 Z"
       style="display:inline;overflow:visible;visibility:visible;opacity:0.6;fill:url(#linearGradient6958);fill-opacity:1.0;fill-rule:nonzero;stroke:none;stroke-width:0.55969;marker:none"
       sodipodi:nodetypes="cccccc" />
    <path
       d="M 16.803011,1 H 5.196742 C 4.084091,1.0015 3.017281,1.44383 2.230622,2.230652 1.443769,3.017322 1.001262,4.084056 1,5.196749 V 16.803451 16.8033 c 8.62e-4,1.112617 0.443769,2.179389 1.230622,2.96606 0.786659,0.786822 1.853469,1.229367 2.96612,1.230652 h 11.606699 -1.9e-4 c 1.11265,-0.0012 2.17946,-0.44383 2.96611,-1.230652 0.78686,-0.786671 1.22937,-1.853443 1.23063,-2.96606 V 5.196976 c -0.002,-1.112655 -0.44377,-2.179427 -1.23063,-2.966098 -0.78665,-0.786822 -1.85346,-1.229367 -2.96611,-1.230652 z M 5.617003,3.00005 h 10.765998 c 0.73924,0.0011 1.43628,-0.113764 1.959,0.408983 0.52269,0.522671 0.6571,1.018431 0.658,1.757669 v 11.833323 h -16 V 5.166702 C 3.000852,4.427464 3.135308,3.931741 3.658002,3.409033 4.18068,2.886362 4.87778,3.000957 5.617003,3.00005 Z"
       id="path1193-3-4"
       style="fill:#d3dae3;fill-opacity:1;stroke-width:0.0396828"
       sodipodi:nodetypes="ccccccccccccccccccccccccc" />
    <path
       d="M 10.53938,4.5 C 9.885344,4.50176 9.236152,4.6185265 8.6206347,4.845641 8.4943352,4.892247 8.4185532,5.0243439 8.4407199,5.1605164 c 0.02201,0.1357231 0.1357104,0.235707 0.2698053,0.237514 2.6169998,0.04072 4.6992978,2.0833893 5.0001328,4.6855556 h -1.372715 c -0.112178,9.5e-5 -0.213214,0.06923 -0.256181,0.175539 -0.04292,0.106359 -0.01914,0.228467 0.06002,0.309895 l 2.6924,2.762412 c 0.108368,0.110847 0.283925,0.110847 0.392272,0 l 2.692414,-2.762412 c 0.0792,-0.08142 0.102931,-0.204038 0.06002,-0.309895 -0.04302,-0.106359 -0.144004,-0.175539 -0.256185,-0.175539 H 16.203825 C 16.050655,6.9856698 13.597613,4.500091 10.54058,4.500091 h -0.0011 z m 4.491039,8.227817 z M 6.9653447,6.5854238 c -0.072062,0.00125 -0.1407809,0.03167 -0.1918022,0.083245 L 4.0811342,9.431073 C 4.0018932,9.512503 3.9782395,9.635111 4.0210822,9.740971 4.0640302,9.84731 4.1650866,9.916506 4.2772685,9.916506 H 5.796194 c 0.1529209,3.098049 2.6060951,5.583812 5.663254,5.583494 0.655414,0 1.305095,-0.119891 1.919855,-0.347006 h 1.27e-4 c 0.126308,-0.04654 0.202075,-0.178692 0.179927,-0.314868 -0.02203,-0.135725 -0.135715,-0.235708 -0.26982,-0.23751 -2.617092,-0.04072 -4.699304,-2.082301 -5.0001212,-4.684203 h 1.372709 C 9.7743125,9.916226 9.8753364,9.847183 9.9183057,9.740878 9.9612087,9.634566 9.9374497,9.512415 9.8582837,9.430982 L 7.1658493,6.6685733 c -0.05312,-0.054745 -0.1254309,-0.084608 -0.2004719,-0.08324 z m 0.00443,0.6868924 v 9.1e-5 0 0 0 0 0 0 0 0 0 0 z"
       id="path2-36-15-35-4"
       sodipodi:nodetypes="ccccccccccccccscccccccccccccccccccccccccccccsccccccccccccccc"
       style="color:#d6dbf1;fill:#d3dae3;fill-opacity:1;stroke:none;stroke-width:0.0321079;stroke-opacity:1"
       class="ColorScheme-Text" />
  </g>
  <g
     id="22-22-kpackagekit-important"
     transform="translate(32.003124,-21.995967)">
    <rect
       style="opacity:0.00100002"
       width="22"
       height="22"
       x="0"
       y="0"
       id="rect606" />
    <path
       inkscape:connector-curvature="0"
       id="path9068-9-37-8-0-1-0-1-3-7-4-6-1-3"
       d="M 19.31551,2.8 2.197,2.800005 V 17.591001 H 19.485 Z"
       style="display:inline;overflow:visible;visibility:visible;opacity:0.6;fill:url(#linearGradient15034);fill-opacity:1.0;fill-rule:nonzero;stroke:none;stroke-width:0.55969;marker:none"
       sodipodi:nodetypes="cccccc" />
    <path
       d="M 16.803011,1 H 5.196742 C 4.084091,1.0015 3.017281,1.44383 2.230622,2.230652 1.443769,3.017322 1.001262,4.084056 1,5.196749 V 16.803451 16.8033 c 8.62e-4,1.112617 0.443769,2.179389 1.230622,2.96606 0.786659,0.786822 1.853469,1.229367 2.96612,1.230652 h 11.606699 -1.9e-4 c 1.11265,-0.0012 2.17946,-0.44383 2.96611,-1.230652 0.78686,-0.786671 1.22937,-1.853443 1.23063,-2.96606 V 5.196976 c -0.002,-1.112655 -0.44377,-2.179427 -1.23063,-2.966098 -0.78665,-0.786822 -1.85346,-1.229367 -2.96611,-1.230652 z M 5.617003,3.00005 h 10.765998 c 0.73924,0.0011 1.43628,-0.113764 1.959,0.408983 0.52269,0.522671 0.6571,1.018431 0.658,1.757669 v 11.833323 h -16 V 5.166702 C 3.000852,4.427464 3.135308,3.931741 3.658002,3.409033 4.18068,2.886362 4.87778,3.000957 5.617003,3.00005 Z"
       id="path1193-3-4-1"
       style="fill:#d3dae3;fill-opacity:1;stroke-width:0.0396828"
       sodipodi:nodetypes="ccccccccccccccccccccccccc" />
    <path
       d="M 10.53938,4.5 C 9.885344,4.5018 9.236152,4.618527 8.620635,4.845641 8.494335,4.892251 8.418553,5.024344 8.44072,5.160516 8.46273,5.296239 8.57643,5.396223 8.710525,5.39803 c 2.617,0.04072 4.699298,2.08339 5.000133,4.685556 h -1.372715 c -0.112178,9.5e-5 -0.213214,0.06923 -0.256181,0.175539 -0.04292,0.106359 -0.01914,0.228467 0.06002,0.309895 l 2.6924,2.762412 c 0.108368,0.110847 0.283925,0.110847 0.392272,0 l 2.692414,-2.762412 c 0.0792,-0.08142 0.102931,-0.204038 0.06002,-0.309895 -0.04302,-0.106359 -0.144004,-0.175539 -0.256185,-0.175539 H 16.203825 C 16.050655,6.98567 13.597613,4.500091 10.54058,4.500091 h -0.0011 z m 4.491039,8.227817 z M 6.965345,6.585424 c -0.07206,0.0012 -0.140781,0.03167 -0.191803,0.08325 L 4.081134,9.431078 c -0.07924,0.08143 -0.102895,0.204038 -0.06005,0.309898 0.04295,0.106339 0.144005,0.175535 0.256186,0.175535 h 1.518926 c 0.152921,3.098049 2.606095,5.583812 5.663254,5.583494 0.655414,0 1.305095,-0.119891 1.919855,-0.347006 h 1.27e-4 c 0.126308,-0.04654 0.202075,-0.178692 0.179927,-0.314868 -0.02203,-0.135725 -0.135715,-0.235708 -0.26982,-0.23751 C 10.672447,14.559901 8.590235,12.51832 8.289418,9.916418 H 9.662127 C 9.774314,9.916231 9.875338,9.847188 9.918308,9.740883 9.961208,9.634571 9.937448,9.51242 9.858288,9.430987 L 7.165853,6.668578 C 7.112733,6.613838 7.040422,6.583968 6.965381,6.585338 Z m 0.0044,0.686892 v 9.1e-5 0 0 0 0 0 0 0 0 0 0 z"
       id="path2-36-15-35-4-7"
       sodipodi:nodetypes="ccccccccccccccscccccccccccccccccccccccccccccsccccccccccccccc"
       style="color:#d6dbf1;fill:#bf616a;fill-opacity:1;stroke:none;stroke-width:0.0321079;stroke-opacity:1"
       class="ColorScheme-Text" />
  </g>
  <g
     id="22-22-kpackagekit-security"
     transform="translate(64.003124,-21.995967)">
    <rect
       style="opacity:0.00100002"
       width="22"
       height="22"
       x="0"
       y="0"
       id="rect624" />
    <path
       inkscape:connector-curvature="0"
       id="path9068-9-37-8-0-1-0-1-3-7-4-6-1-6"
       d="M 19.315509,2.8 2.197,2.800005 v 14.790996 h 17.287999 z"
       style="display:inline;overflow:visible;visibility:visible;opacity:0.6;fill:url(#linearGradient15065);fill-opacity:1.0;fill-rule:nonzero;stroke:none;stroke-width:0.55969;marker:none"
       sodipodi:nodetypes="cccccc" />
    <path
       d="M 16.803011,1 H 5.196742 C 4.084091,1.0015 3.017281,1.44383 2.230622,2.230652 1.443769,3.017322 1.001262,4.084056 1,5.196749 V 16.803451 16.8033 c 8.62e-4,1.112617 0.443769,2.179389 1.230622,2.96606 0.786659,0.786822 1.853469,1.229367 2.96612,1.230652 h 11.6067 -1.92e-4 c 1.11265,-0.0012 2.17946,-0.44383 2.96611,-1.230652 0.786862,-0.786671 1.229372,-1.853443 1.230631,-2.96606 V 5.196976 C 20.997991,4.084321 20.556221,3.017549 19.76936,2.230878 18.98271,1.444056 17.915901,1.001511 16.80325,1.000226 Z M 5.617003,3.00005 h 10.765998 c 0.739239,0.0011 1.43628,-0.113764 1.958999,0.408983 0.522691,0.522671 0.6571,1.018431 0.658001,1.757669 v 11.833323 h -16 V 5.166702 C 3.000852,4.427464 3.135308,3.931741 3.658002,3.409033 4.18068,2.886362 4.87778,3.000957 5.617003,3.00005 Z"
       id="path1193-3-4-2"
       style="fill:#d3dae3;fill-opacity:1;stroke-width:0.0396828"
       sodipodi:nodetypes="ccccccccccccccccccccccccc" />
    <path
       d="M 10.539379,4.5 C 9.885344,4.5018 9.236152,4.618527 8.620635,4.845641 8.494335,4.892251 8.418553,5.024344 8.44072,5.160516 8.46273,5.296239 8.57643,5.396223 8.710525,5.39803 c 2.616999,0.04072 4.699297,2.08339 5.000132,4.685556 h -1.372715 c -0.112178,9.5e-5 -0.213214,0.06923 -0.25618,0.175539 -0.04292,0.106359 -0.01914,0.228467 0.06002,0.309895 l 2.6924,2.762412 c 0.108369,0.110847 0.283925,0.110847 0.392272,0 l 2.692415,-2.762412 c 0.0792,-0.08142 0.102931,-0.204038 0.06002,-0.309895 -0.04302,-0.106359 -0.144004,-0.175539 -0.256185,-0.175539 h -1.51888 C 16.050656,6.98567 13.597612,4.500091 10.54058,4.500091 h -0.0011 z m 4.491039,8.227817 z M 6.965345,6.585424 c -0.07206,0.0012 -0.140781,0.03167 -0.191803,0.08325 L 4.081134,9.431078 c -0.07924,0.08143 -0.102895,0.204038 -0.06005,0.309898 0.04295,0.106339 0.144005,0.175535 0.256186,0.175535 h 1.518926 c 0.152921,3.098049 2.606095,5.583812 5.663254,5.583494 0.655414,0 1.305095,-0.119891 1.919855,-0.347006 h 1.27e-4 c 0.126308,-0.04654 0.202075,-0.178692 0.179927,-0.314868 -0.02203,-0.135725 -0.135715,-0.235708 -0.26982,-0.23751 C 10.672447,14.559901 8.590235,12.51832 8.289418,9.916418 H 9.662127 C 9.774315,9.916231 9.875338,9.847188 9.918308,9.740883 9.961208,9.634571 9.937448,9.51242 9.858288,9.430987 L 7.165853,6.668578 C 7.112733,6.613838 7.040422,6.583968 6.965381,6.585338 Z m 0.0044,0.686892 v 9.1e-5 0 0 0 0 0 0 0 0 0 0 z"
       id="path2-36-15-35-4-1"
       sodipodi:nodetypes="ccccccccccccccscccccccccccccccccccccccccccccsccccccccccccccc"
       style="color:#d6dbf1;fill:#d08770;fill-opacity:1;stroke:none;stroke-width:0.0321079;stroke-opacity:1"
       class="ColorScheme-Text" />
  </g>
</svg>
