<?xml version="1.0" encoding="UTF-8" standalone="no"?>
<svg
   width="32"
   height="32"
   version="1.1"
   id="svg12"
   sodipodi:docname="krfb.svg"
   inkscape:version="1.2.2 (b0a8486541, 2022-12-01)"
   xmlns:inkscape="http://www.inkscape.org/namespaces/inkscape"
   xmlns:sodipodi="http://sodipodi.sourceforge.net/DTD/sodipodi-0.dtd"
   xmlns:xlink="http://www.w3.org/1999/xlink"
   xmlns="http://www.w3.org/2000/svg"
   xmlns:svg="http://www.w3.org/2000/svg"
   xmlns:rdf="http://www.w3.org/1999/02/22-rdf-syntax-ns#"
   xmlns:cc="http://creativecommons.org/ns#"
   xmlns:dc="http://purl.org/dc/elements/1.1/">
  <g
     id="22-22-krfb">
    <rect
       style="opacity:0.00100002"
       width="22"
       height="22"
       x="-22"
       y="10"
       id="rect2-6" />
    <path
       inkscape:connector-curvature="0"
       id="path9068-9-37-8-0-1-7"
       d="m -2.5,12.6 h -17.3 v 16 h 17.3 z"
       style="display:inline;overflow:visible;visibility:visible;opacity:1;fill:url(#linearGradient5843);fill-opacity:1;fill-rule:nonzero;stroke:none;stroke-width:0.593268;marker:none"
       sodipodi:nodetypes="ccccc" />
    <path
       d="m -5.196865,11 h -11.606269 c -1.112651,0.0015 -2.179461,0.44383 -2.96612,1.230652 -0.786853,0.78667 -1.22936,1.853404 -1.230622,2.966097 V 26.803451 26.8033 c 8.62e-4,1.112617 0.443769,2.179389 1.230622,2.96606 0.786659,0.786822 1.853469,1.229367 2.96612,1.230652 h 11.606698 -1.89e-4 c 1.11265,-0.0012 2.17946,-0.44383 2.966109,-1.230652 0.786861,-0.786671 1.229371,-1.853443 1.230631,-2.96606 V 15.196976 c -0.002,-1.112655 -0.44377,-2.179427 -1.230631,-2.966098 -0.786649,-0.786822 -1.853459,-1.229366 -2.966109,-1.230652 z m -11.186008,2.00005 h 10.765997 c 0.73924,0.0011 1.43628,-0.113764 1.959,0.408983 0.522691,0.52267 0.6571,1.018431 0.658001,1.757669 V 27.000025 H -18.999876 V 15.166702 c 8.52e-4,-0.739238 0.135308,-1.234961 0.658002,-1.757669 0.522678,-0.522671 1.219778,-0.408076 1.959001,-0.408983 z"
       id="path1193-3-3-9"
       style="fill:#d3dae3;fill-opacity:1;stroke-width:0.0396828"
       sodipodi:nodetypes="ccccccccccccccccccccccccc" />
    <path
       id="path1594-6-3"
       style="fill:#d1d5e9;fill-opacity:1;stroke:#d1d5e9;stroke-width:0.999917;stroke-linecap:round;stroke-linejoin:round;stroke-opacity:1"
       d="m -5.05359,25.500042 -11.89282,-8.4e-5"
       sodipodi:nodetypes="cc" />
    <path
       id="path1099-7-6"
       style="fill:#d1d5e9;fill-opacity:1;fill-rule:evenodd;stroke:#d1d5e9;stroke-width:0.436462;stroke-linecap:round;stroke-linejoin:round;stroke-opacity:1"
       d="m -10.201898,25.499999 c 0,0.43141 -0.354018,0.78177 -0.789933,0.78177 -0.435918,0 -0.789938,-0.35036 -0.789938,-0.78177 0,-0.431637 0.35402,-0.781768 0.789938,-0.781768 0.435915,0 0.789933,0.350131 0.789933,0.781768 z" />
    <path
       style="fill:#d1d5e9;fill-opacity:1;stroke-width:0.5"
       d="m -10.999338,16 c -1.462305,1.7e-4 -2.902448,0.846556 -3.551556,2.167965 -0.658669,1.225578 -0.58271,2.783147 0.16136,3.953085 0.883942,1.444926 2.748648,2.200976 4.387014,1.74804 1.456069,-0.349372 2.61626,-1.601401 2.910882,-3.061238 0.258224,-1.124573 -0.04167,-2.339033 -0.74366,-3.247971 -0.735901,-0.97161 -1.947737,-1.563917 -3.166073,-1.558331 m 0,0.499672 c 0.569144,0.0033 1.1326,0.153411 1.64056,0.406696 -0.257472,0.08454 0.1209,0.330592 -0.07209,0.460273 0.199941,0.13055 0.467182,-0.119689 0.190503,-0.249949 -0.244363,-0.385771 0.62456,0.114348 0.173889,0.251894 -0.153471,0.139471 -0.527583,0.08388 -0.22299,0.337435 0.02455,0.246222 -0.533417,-0.04949 -0.463582,0.355766 0.02696,0.182266 0.101918,0.243861 -0.16866,0.407502 -0.213396,0.296083 -0.611499,0.541462 -0.545204,0.989788 -0.107154,0.354534 0.271577,0.536934 0.576896,0.613334 0.316473,-0.02081 1.070382,-0.226104 1.200011,0.17008 -0.13466,0.350707 0.589733,0.698259 0.283784,1.046537 -0.198564,0.325905 0.03906,0.439062 -0.02446,0.774421 0.244817,0.352375 -0.635348,0.868826 -0.90352,1.026347 -0.809761,0.475636 -1.847977,0.537766 -2.738961,0.230285 -0.350204,-0.212274 0.07882,-0.378712 0.18941,-0.485772 -0.153098,-0.292379 0.08561,-0.115442 0.08792,-0.425926 0.0035,-0.469575 0.626489,-0.392857 0.582343,-0.880938 0.01305,-0.290935 0.465569,-0.687126 -0.03465,-0.805181 -0.373936,-0.07128 -0.679407,-0.04761 -0.875261,-0.371253 -0.340674,-0.04528 -0.344699,-0.403771 -0.743211,-0.339066 -0.28122,-0.167406 -0.66442,0.425878 -0.835994,-2.29e-4 0.06465,-0.218249 -0.06279,-0.56048 -0.252544,-0.516555 0.09095,-0.163527 0.08988,-0.486088 -0.120615,-0.223 -0.34199,0.303152 -0.420508,-0.210299 -0.246175,-0.429132 0.219605,-0.286302 0.748746,-0.268493 0.92616,-0.01085 -0.01803,-0.417174 0.431135,-0.478875 0.626434,-0.799987 0.221924,-0.114331 0.448951,-0.377058 0.664138,-0.254014 0.149694,-0.02187 0.306007,-0.193424 0.06031,-0.105562 -0.11772,-0.05743 0.115926,-0.255252 -0.09401,-0.203348 0.175267,-0.04518 0.358995,-0.07824 0.536053,-0.08539 -0.388237,0.229764 0.438894,0.303812 0.09278,0.04957 0.10351,-0.26642 -0.09683,-0.3418 -0.165396,-0.566466 -0.188695,0.0075 -0.205473,0.06859 -0.310323,-0.119771 -0.370354,-0.212115 0.356667,0.06041 0.407002,-0.124385 0.142652,-0.158358 0.391043,-0.10455 0.581441,-0.122006 m -1.250043,0.234344 c -0.0823,0.2832 -0.322433,0.488428 -0.511819,0.576814 -0.05315,-0.157393 0.01525,-0.202428 -0.147686,-0.239509 0.18281,-0.166069 0.438491,-0.231639 0.657993,-0.337305 m 2.687596,0.374654 c -0.302451,0.08562 0.02535,0.359665 0.08995,0.05945 0.0011,-0.04557 -0.05374,-0.0643 -0.09044,-0.059 m 1.062548,0.577054 c 0.256262,0.130473 0.689898,0.634869 0.566029,0.807043 -0.220207,-0.05359 -0.146422,0.230564 -0.391052,0.05739 -0.32802,-0.05053 -0.330822,-0.52911 -0.729468,-0.330827 -0.142634,0.100331 -0.709107,0.138961 -0.28466,-0.02823 0.185771,-0.201118 0.473438,-0.565649 0.797535,-0.313492 0.09725,0.113002 0.290405,0.337946 0.30087,0.09925 -0.07334,-0.06774 -0.397293,-0.158871 -0.257737,-0.292728 m -5.858676,1.81164 c 0.318762,0.09681 0.53486,0.668039 0.811812,0.721292 0.369335,-0.11139 0.03579,0.501839 -0.04335,0.656533 0.07128,0.38288 0.325583,0.553466 0.66665,0.755848 0.184666,0.422323 0.07879,0.915717 0.163225,1.359873 -0.435995,-0.200847 -0.823986,-0.609515 -1.115397,-1.010003 -0.451608,-0.640058 -0.667236,-1.441712 -0.614795,-2.220786 0.02691,-0.08642 0.02458,-0.238667 0.133855,-0.262505"
       id="path6-5" />
  </g>
  <g
     id="krfb">
    <rect
       style="opacity:0.00100002;fill:#d1d5e9;fill-opacity:1"
       width="32"
       height="32"
       x="0"
       y="0"
       id="rect7" />
    <path
       inkscape:connector-curvature="0"
       id="path9068-9-37-8-0-1"
       d="m 26,6 -20.2000001,5e-6 V 23.1 H 26.2 Z"
       style="display:inline;overflow:visible;visibility:visible;opacity:1;fill:url(#linearGradient5058);fill-opacity:1;fill-rule:nonzero;stroke:none;stroke-width:0.653705;marker:none"
       sodipodi:nodetypes="cccccc" />
    <path
       d="M 22.963626,4 H 9.0360719 C 7.7008909,4.0015 6.4207479,4.532574 5.4767539,5.476775 4.5325679,6.420788 4.0015249,7.700876 3.9999999,9.03607 v 13.92805 -1.89e-4 c 0.0015,1.335156 0.532568,2.615282 1.476754,3.559295 0.943994,0.944201 2.224137,1.475225 3.559318,1.476775 h 13.9280351 -1.94e-4 c 1.335183,-0.0015 2.615324,-0.532574 3.559318,-1.476775 0.944187,-0.944013 1.475232,-2.224139 1.476755,-3.559295 V 9.036335 C 27.998186,7.701178 27.467418,6.421052 26.523231,5.47704 25.579237,4.532838 24.299096,4.001815 22.963912,4.000265 Z M 9.1999999,6.000013 H 22.8 c 0.887095,0.0011 1.603761,0.04384 2.231,0.671244 C 25.658232,7.29847 25.998901,8.11292 26,9.000013 V 23.000026 H 5.9999999 V 9.000013 c 0.0011,-0.887093 0.341775,-1.701505 0.969,-2.328756 0.627201,-0.627212 1.343916,-0.670148 2.231,-0.671244 z"
       id="path1193-37"
       style="fill:#d3dae3;fill-opacity:1;stroke-width:0.047619"
       sodipodi:nodetypes="ccccccccccccccccccccccccc" />
    <path
       id="path1594"
       style="fill:#d1d5e9;fill-opacity:1;stroke:#d1d5e9;stroke-width:1.06525;stroke-linecap:round;stroke-linejoin:round;stroke-opacity:1"
       d="M 24.467123,21.491844 H 7.5323723" />
    <path
       id="path1099"
       style="fill:#d1d5e9;fill-opacity:1;fill-rule:evenodd;stroke:#d1d5e9;stroke-width:0.652037;stroke-linecap:round;stroke-linejoin:round;stroke-opacity:1"
       d="m 17.173982,21.499999 c 0,0.647847 -0.526131,1.173983 -1.173979,1.173983 -0.647848,0 -1.173984,-0.526136 -1.173984,-1.173983 0,-0.648189 0.526136,-1.17398 1.173984,-1.17398 0.647848,0 1.173979,0.525791 1.173979,1.17398 z" />
    <path
       style="fill:#d1d5e9;fill-opacity:1;stroke-width:0.75"
       d="m 16.000995,7 c -2.193458,2.55e-4 -4.353673,1.2698342 -5.327334,3.251947 -0.9880043,1.838368 -0.8740663,4.174722 0.24204,5.929629 1.325913,2.167389 4.122972,3.301464 6.580521,2.622061 2.184103,-0.524058 3.92439,-2.402103 4.366324,-4.591858 0.387336,-1.68686 -0.06251,-3.508551 -1.115491,-4.871957 C 19.643203,7.8824072 17.82545,6.9939456 15.997946,7.0023243 m 0,0.7495088 c 0.853716,0.00487 1.698899,0.2301174 2.460839,0.6100441 -0.386207,0.1268067 0.18135,0.4958878 -0.108137,0.6904088 0.299911,0.195825 0.700773,-0.1795331 0.285754,-0.3749231 -0.366545,-0.5786571 0.93684,0.1715224 0.260834,0.3778421 -0.230207,0.209207 -0.791375,0.125824 -0.334485,0.506151 0.03683,0.3693337 -0.800126,-0.07423 -0.695374,0.533649 0.04044,0.2734 0.152878,0.365792 -0.252989,0.611253 -0.320094,0.444125 -0.917249,0.812193 -0.817806,1.484682 -0.160731,0.531801 0.407365,0.805401 0.865343,0.920001 0.47471,-0.03121 1.605574,-0.339156 1.800017,0.25512 -0.20199,0.526061 0.8846,1.04739 0.425676,1.569808 -0.297846,0.488858 0.05859,0.658592 -0.03669,1.161632 0.367226,0.52856 -0.953022,1.303239 -1.35528,1.539518 -1.214641,0.713457 -2.771965,0.806651 -4.108442,0.345431 -0.525306,-0.318414 0.118224,-0.568069 0.284116,-0.728659 -0.229647,-0.43857 0.128419,-0.173163 0.131887,-0.638889 0.0052,-0.704363 0.939733,-0.589287 0.873515,-1.321407 0.01958,-0.436405 0.698353,-1.030689 -0.05198,-1.207774 -0.560904,-0.106916 -1.019111,-0.07142 -1.312892,-0.556879 -0.511011,-0.06792 -0.517048,-0.605656 -1.114817,-0.508599 -0.42183,-0.25111 -0.99663,0.638818 -1.253991,-3.43e-4 0.09698,-0.327373 -0.09419,-0.84072 -0.378816,-0.774834 0.136423,-0.245289 0.134815,-0.72913 -0.180922,-0.3345 -0.512985,0.45473 -0.630762,-0.315447 -0.369262,-0.643698 0.329407,-0.429452 1.123118,-0.402738 1.389239,-0.01627 -0.02705,-0.62576 0.646703,-0.718313 0.939651,-1.199981 0.332887,-0.171496 0.673427,-0.565586 0.996208,-0.38102 0.224541,-0.0328 0.45901,-0.290137 0.09047,-0.158344 -0.176581,-0.08615 0.173889,-0.382877 -0.141011,-0.305022 0.262901,-0.06777 0.538493,-0.117355 0.804079,-0.128091 -0.582355,0.344647 0.658342,0.455719 0.139175,0.07435 0.155265,-0.3996302 -0.145244,-0.5127015 -0.248094,-0.8496996 -0.283043,0.011175 -0.30821,0.1028904 -0.465484,-0.1796563 -0.555532,-0.3181736 0.535,0.090624 0.610503,-0.1865784 0.213978,-0.237536 0.586564,-0.1568241 0.872161,-0.1830083 m -1.875064,0.3515151 c -0.123447,0.4248001 -0.48365,0.7326436 -0.76773,0.8652221 -0.07972,-0.2360897 0.02287,-0.3036423 -0.221528,-0.3592635 0.274215,-0.2491046 0.657737,-0.347459 0.98699,-0.5059586 m 4.031393,0.5619812 c -0.453676,0.1284309 0.03802,0.5394983 0.134924,0.089175 0.0016,-0.06835 -0.08061,-0.09645 -0.135668,-0.0885 M 19.748081,9.5333 c 0.384393,0.19571 1.034846,0.952304 0.849043,1.210564 -0.330311,-0.08038 -0.219633,0.345847 -0.586578,0.08608 -0.49203,-0.07579 -0.496233,-0.793665 -1.094202,-0.496241 -0.213951,0.150497 -1.063661,0.208441 -0.42699,-0.04235 0.278656,-0.3016763 0.710157,-0.848473 1.196303,-0.470238 0.145878,0.1695037 0.435607,0.50692 0.451304,0.1488817 C 20.026953,9.868387 19.541022,9.73169 19.750356,9.530905 m -8.788014,2.717459 c 0.478143,0.145221 0.802289,1.002059 1.217718,1.081938 0.554002,-0.167085 0.05369,0.752759 -0.06502,0.9848 0.10692,0.57432 0.488375,0.8302 0.999976,1.133772 0.276999,0.633485 0.118182,1.373576 0.244837,2.03981 -0.653993,-0.301271 -1.235979,-0.914272 -1.673096,-1.515004 -0.677411,-0.960087 -1.000853,-2.162569 -0.922192,-3.33118 0.04037,-0.129637 0.03687,-0.358 0.200782,-0.393758"
       id="path6" />
  </g>
  <style
     id="current-color-scheme"
     type="text/css">.ColorScheme-Text { color:#d6dbf1; }
</style>
  <metadata
     id="metadata18">
    <rdf:RDF>
      <cc:Work
         rdf:about="">
        <dc:format>image/svg+xml</dc:format>
        <dc:type
           rdf:resource="http://purl.org/dc/dcmitype/StillImage" />
      </cc:Work>
    </rdf:RDF>
  </metadata>
  <defs
     id="defs16">
    <linearGradient
       inkscape:collect="always"
       id="linearGradient455">
      <stop
         style="stop-color:#5581aa;stop-opacity:1;"
         offset="0"
         id="stop451" />
      <stop
         style="stop-color:#5a9cfe;stop-opacity:1"
         offset="1"
         id="stop453" />
    </linearGradient>
    <linearGradient
       id="oomox"
       x1="0"
       x2="0"
       y1="0"
       y2="1">
      <stop
         offset="0%"
         style="stop-color:#303b3d; stop-opacity:1"
         id="stop18" />
      <stop
         offset="100%"
         style="stop-color:#bc985d; stop-opacity:1"
         id="stop20" />
    </linearGradient>
    <linearGradient
       inkscape:collect="always"
       xlink:href="#linearGradient455"
       id="linearGradient5058"
       x1="148.9608"
       y1="596.36218"
       x2="148.9608"
       y2="636.12817"
       gradientUnits="userSpaceOnUse"
       gradientTransform="matrix(0.50999969,0,0,0.42750131,-58.969959,-248.94562)" />
    <linearGradient
       inkscape:collect="always"
       xlink:href="#linearGradient455"
       id="linearGradient5843"
       gradientUnits="userSpaceOnUse"
       gradientTransform="matrix(0.44114972,0,0,0.40706011,-75.999013,-230.29643)"
       x1="148.9608"
       y1="596.70898"
       x2="148.9608"
       y2="636.01526" />
  </defs>
  <sodipodi:namedview
     pagecolor="#cccccc"
     bordercolor="#000000"
     borderopacity="1"
     objecttolerance="10"
     gridtolerance="10"
     guidetolerance="10"
     inkscape:pageopacity="0"
     inkscape:pageshadow="2"
     inkscape:window-width="1920"
     inkscape:window-height="994"
     id="namedview14"
     showgrid="false"
     inkscape:zoom="9.8125003"
     inkscape:cx="12.280254"
     inkscape:cy="13.350318"
     inkscape:window-x="0"
     inkscape:window-y="0"
     inkscape:window-maximized="1"
     inkscape:current-layer="svg12"
     inkscape:lockguides="false"
     inkscape:document-rotation="0"
     inkscape:showpageshadow="true"
     inkscape:pagecheckerboard="false"
     inkscape:deskcolor="#808080">
    <inkscape:grid
       type="xygrid"
       id="grid863"
       originx="0"
       originy="0" />
  </sodipodi:namedview>
</svg>
