<?xml version="1.0" encoding="UTF-8" standalone="no"?>
<svg
   width="32"
   height="32"
   version="1"
   id="svg359"
   sodipodi:docname="krusader_user.svg"
   inkscape:version="1.2.2 (b0a8486541, 2022-12-01)"
   xmlns:inkscape="http://www.inkscape.org/namespaces/inkscape"
   xmlns:sodipodi="http://sodipodi.sourceforge.net/DTD/sodipodi-0.dtd"
   xmlns:xlink="http://www.w3.org/1999/xlink"
   xmlns="http://www.w3.org/2000/svg"
   xmlns:svg="http://www.w3.org/2000/svg">
  <defs
     id="defs363">
    <linearGradient
       inkscape:collect="always"
       xlink:href="#linearGradient9585"
       id="linearGradient5843"
       gradientUnits="userSpaceOnUse"
       gradientTransform="matrix(0.44114972,0,0,0.40706011,-19.982064,-233.69643)"
       x1="148.9608"
       y1="596.70898"
       x2="148.9608"
       y2="636.01526" />
    <linearGradient
       inkscape:collect="always"
       id="linearGradient9585">
      <stop
         style="stop-color:#5581aa;stop-opacity:1;"
         offset="0"
         id="stop9581" />
      <stop
         style="stop-color:#6db2c5;stop-opacity:1;"
         offset="1"
         id="stop9583" />
    </linearGradient>
    <linearGradient
       inkscape:collect="always"
       xlink:href="#linearGradient9585"
       id="linearGradient5058"
       x1="148.9608"
       y1="596.36218"
       x2="148.9608"
       y2="636.12817"
       gradientUnits="userSpaceOnUse"
       gradientTransform="matrix(0.50999969,0,0,0.42750131,-58.969959,-248.94562)" />
  </defs>
  <sodipodi:namedview
     id="namedview361"
     pagecolor="#cccccc"
     bordercolor="#000000"
     borderopacity="1"
     inkscape:showpageshadow="2"
     inkscape:pageopacity="0"
     inkscape:pagecheckerboard="0"
     inkscape:deskcolor="#808080"
     showgrid="false"
     inkscape:zoom="10.429825"
     inkscape:cx="42.282589"
     inkscape:cy="17.018502"
     inkscape:window-width="1920"
     inkscape:window-height="1000"
     inkscape:window-x="0"
     inkscape:window-y="0"
     inkscape:window-maximized="1"
     inkscape:current-layer="svg359">
    <inkscape:grid
       type="xygrid"
       id="grid795"
       originx="15.44834"
       originy="-35.295204" />
  </sodipodi:namedview>
  <g
     id="22-22-krusader_user">
    <rect
       style="opacity:0.00100002"
       width="22"
       height="22"
       x="34.016949"
       y="6.5999999"
       id="rect2-6" />
    <path
       inkscape:connector-curvature="0"
       id="path9068-9-37-8-0-1-7"
       d="m 53.516949,9.2 h -17.3 v 16 h 17.3 z"
       style="display:inline;overflow:visible;visibility:visible;opacity:0.6;fill:url(#linearGradient5843);fill-opacity:1;fill-rule:nonzero;stroke:none;stroke-width:0.593268;marker:none"
       sodipodi:nodetypes="ccccc" />
    <path
       d="M 50.820084,7.6 H 39.213815 c -1.112651,0.0015 -2.179461,0.44383 -2.96612,1.230652 -0.786853,0.78667 -1.22936,1.853404 -1.230622,2.966097 V 23.403451 23.4033 c 8.62e-4,1.112617 0.443769,2.179389 1.230622,2.96606 0.786659,0.786822 1.853469,1.229367 2.96612,1.230652 h 11.606698 -1.89e-4 c 1.11265,-0.0012 2.17946,-0.44383 2.966109,-1.230652 0.786861,-0.786671 1.229371,-1.853443 1.230631,-2.96606 V 11.796976 C 55.015064,10.684321 54.573294,9.617549 53.786433,8.830878 52.999784,8.044056 51.932974,7.601512 50.820324,7.600226 Z M 39.634076,9.60005 h 10.765997 c 0.73924,0.0011 1.43628,-0.113764 1.959,0.408983 0.522691,0.52267 0.6571,1.018431 0.658001,1.757669 V 23.600025 H 37.017073 V 11.766702 c 8.52e-4,-0.739238 0.135308,-1.234961 0.658002,-1.757669 0.522678,-0.522671 1.219778,-0.408076 1.959001,-0.408983 z"
       id="path1193-3-3-9"
       style="fill:#d3dae3;fill-opacity:1;stroke-width:0.0396828"
       sodipodi:nodetypes="ccccccccccccccccccccccccc" />
    <path
       style="fill:#d3dae3;fill-opacity:1;stroke-width:0.544332"
       d="m 37.016949,12.7 v 0 1 h 16 v -1 0 z"
       id="path349-3-62-0-1"
       sodipodi:nodetypes="ccccccc" />
    <path
       style="fill:#d3dae3;fill-opacity:1;stroke-width:0.544332"
       d="m 37.016949,21.7 v 0 1 h 16 v -1 0 z"
       id="path349-3-6-6-9-8"
       sodipodi:nodetypes="ccccccc" />
    <path
       style="fill:#d3dae3;fill-opacity:1;stroke-width:0.411476"
       d="m 46.159809,13.7 v 0 H 43.87409 v 8 h 2.285719 v 0 z"
       id="path349-3-7-1-3-7"
       sodipodi:nodetypes="ccccccc" />
    <path
       d="m 38.159807,14.7 v 0 1 0 h 4.571428 v 0 -1 0 z"
       id="path3004-6-9-1-8-6-9"
       style="fill:#d3dae3;fill-opacity:1;stroke-width:0.104743"
       sodipodi:nodetypes="ccccccccc" />
    <path
       d="m 38.159807,16.7 v 0 1 0 h 4.571428 v 0 -1 0 z"
       id="path3004-6-9-1-8-7-0-2"
       style="fill:#d3dae3;fill-opacity:1;stroke-width:0.104743"
       sodipodi:nodetypes="ccccccccc" />
    <path
       d="m 38.159807,18.7 v 0 1 0 h 4.571428 v 0 -1 0 z"
       id="path3004-6-9-1-8-7-9-6-0"
       style="fill:#d3dae3;fill-opacity:1;stroke-width:0.104743"
       sodipodi:nodetypes="ccccccccc" />
    <path
       d="m 47.302662,14.7 v 0 1 0 h 4.571427 v 0 -1 0 z"
       id="path3004-6-9-1-8-7-9-2-2-2"
       style="fill:#d3dae3;fill-opacity:1;stroke-width:0.104743"
       sodipodi:nodetypes="ccccccccc" />
    <path
       d="M 50.07816,19.12858 51.87409,18.414301 47.302662,16.7 l 1.9592,4 z"
       fill-rule="evenodd"
       id="path3094-0-6-3"
       style="fill:#d3dae3;fill-opacity:1;stroke-width:0.00771315" />
    <path
       d="m 49.826338,10.100335 c -0.128313,0.0063 -0.238731,0.09349 -0.275504,0.217583 -0.03679,0.12409 0.0081,0.258068 0.111963,0.334285 l 0.582244,0.438135 -0.563316,0.468667 c -0.128996,0.107498 -0.147134,0.30007 -0.04051,0.43012 0.106623,0.130052 0.297637,0.148334 0.426649,0.04083 l 0.860107,-0.71674 c 0.07171,-0.05963 0.11229,-0.149155 0.11008,-0.242842 -0.0023,-0.09369 -0.04698,-0.181159 -0.121437,-0.237276 l -0.891906,-0.670171 c -0.05674,-0.0438 -0.127,-0.06597 -0.198376,-0.06259 z"
       id="path2996-2-1-7"
       style="fill:#d3dae3;fill-opacity:1;stroke-width:0.0887335" />
  </g>
  <g
     id="krusader_user">
    <rect
       style="opacity:0.00100002;fill:#ed8796;fill-opacity:1"
       width="32"
       height="32"
       x="0"
       y="0"
       id="rect352-3" />
    <path
       inkscape:connector-curvature="0"
       id="path9068-9-37-8-0-1"
       d="m 26,5.9999992 -20.2000003,5e-6 V 23.099999 H 26.2 Z"
       style="display:inline;overflow:visible;visibility:visible;opacity:0.6;fill:url(#linearGradient5058);fill-opacity:1;fill-rule:nonzero;stroke:none;stroke-width:0.653705;marker:none"
       sodipodi:nodetypes="cccccc" />
    <path
       d="M 22.963626,3.9999992 H 9.0360717 c -1.335181,0.0015 -2.615324,0.532574 -3.559318,1.476775 -0.944186,0.944013 -1.475229,2.224101 -1.476754,3.559295 V 22.964119 22.96393 c 0.0015,1.335156 0.532568,2.615282 1.476754,3.559295 0.943994,0.944201 2.224137,1.475225 3.559318,1.476775 h 13.9280353 -1.94e-4 c 1.335183,-0.0015 2.615324,-0.532574 3.559318,-1.476775 0.944188,-0.944013 1.475228,-2.224139 1.476758,-3.559295 V 9.0363342 c -0.002,-1.335157 -0.53257,-2.615283 -1.476758,-3.559295 -0.943994,-0.944202 -2.224135,-1.475225 -3.559319,-1.476775 z M 9.1999997,6.0000122 H 22.8 c 0.887095,0.0011 1.603761,0.04384 2.231,0.671244 0.627232,0.627213 0.967901,1.441663 0.969,2.328756 V 23.000025 H 5.9999997 V 9.0000122 c 0.0011,-0.887093 0.341775,-1.701505 0.969,-2.328756 0.627201,-0.627212 1.343916,-0.670148 2.231,-0.671244 z"
       id="path1193-37"
       style="fill:#d3dae3;fill-opacity:1;stroke-width:0.047619"
       sodipodi:nodetypes="ccccccccccccccccccccccccc" />
    <path
       d="m 7.818182,16.6 v 0 1 0 h 5.454541 v 0 -1 0 z"
       id="path3004-6-2-3"
       style="fill:#d3dae3;fill-opacity:1;stroke-width:0.114415"
       sodipodi:nodetypes="ccccccccc" />
    <path
       d="m 7.818182,13.6 v 0 1 0 h 5.454541 v 0 -1 0 z"
       id="path3004-6-9-6"
       style="fill:#d3dae3;fill-opacity:1;stroke-width:0.114415"
       sodipodi:nodetypes="ccccccccc" />
    <path
       d="m 7.818182,19.6 v 0 1 0 h 5.454541 v 0 -1 0 z"
       id="path3004-6-7"
       style="fill:#d3dae3;fill-opacity:1;stroke-width:0.114415"
       sodipodi:nodetypes="ccccccccc" />
    <path
       style="fill:#d3dae3;fill-opacity:1;stroke-width:0.60858"
       d="m 6,8.6 v 0 1 h 20 v -1 0 z"
       id="path349-3-5"
       sodipodi:nodetypes="ccccccc" />
    <path
       style="fill:#d3dae3;fill-opacity:1;stroke-width:0.60858"
       d="m 6,21.6 v 0 1 h 20 v -1 0 z"
       id="path349-3-6-3"
       sodipodi:nodetypes="ccccccc" />
    <path
       style="fill:#d3dae3;fill-opacity:1;stroke-width:0.449468"
       d="m 16.90909,9.6 v 0 h -1.818187 v 12 h 1.818187 v 0 z"
       id="path349-3-7-5"
       sodipodi:nodetypes="ccccccc" />
    <path
       d="m 7.818182,10.6 v 0 1 0 h 5.454541 v 0 -1 0 z"
       id="path3004-6-9-1-6"
       style="fill:#d3dae3;fill-opacity:1;stroke-width:0.114415"
       sodipodi:nodetypes="ccccccccc" />
    <path
       d="m 18.727274,10.6 v 0 1 0 h 5.454546 v 0 -1 0 z"
       id="path3004-6-9-1-9-2"
       style="fill:#d3dae3;fill-opacity:1;stroke-width:0.114415"
       sodipodi:nodetypes="ccccccccc" />
    <path
       d="M 22.233738,17.457149 25.090904,16.028608 17.81818,12.6 l 3.116917,8 z"
       fill-rule="evenodd"
       id="path3094-9"
       style="fill:#d3dae3;fill-opacity:1;stroke-width:0.0137588" />
    <path
       d="m 22.60163,6.337335 c -0.128313,0.00629 -0.238731,0.093493 -0.275504,0.217583 -0.03679,0.1240904 0.0081,0.2580683 0.111963,0.3342845 l 0.582244,0.4381351 -0.563316,0.468667 c -0.128996,0.107498 -0.147134,0.30007 -0.04051,0.43012 0.106623,0.130052 0.297637,0.148334 0.426649,0.04083 l 0.860107,-0.7167398 c 0.07171,-0.059628 0.11229,-0.1491548 0.11008,-0.2428419 -0.0023,-0.093686 -0.04698,-0.1811588 -0.121437,-0.2372755 L 22.8,6.3999255 c -0.05674,-0.043798 -0.127,-0.065969 -0.198376,-0.062589 z"
       id="path2996-2-1"
       style="fill:#d3dae3;fill-opacity:1;stroke-width:0.0887335" />
  </g>
</svg>
