<?xml version="1.0" encoding="UTF-8" standalone="no"?>
<svg
   width="32"
   height="32"
   version="1"
   id="svg18"
   sodipodi:docname="krusader_root.svg"
   inkscape:version="1.2.2 (b0a8486541, 2022-12-01)"
   xmlns:inkscape="http://www.inkscape.org/namespaces/inkscape"
   xmlns:sodipodi="http://sodipodi.sourceforge.net/DTD/sodipodi-0.dtd"
   xmlns:xlink="http://www.w3.org/1999/xlink"
   xmlns="http://www.w3.org/2000/svg"
   xmlns:svg="http://www.w3.org/2000/svg">
  <g
     id="22-22-krusader_root"
     transform="translate(34.016949,6.6)">
    <rect
       style="opacity:0.00100002"
       width="22"
       height="22"
       x="0"
       y="0"
       id="rect2-6" />
    <path
       inkscape:connector-curvature="0"
       id="path9068-9-37-8-0-1-7"
       d="M 19.5,2.6 H 2.2 v 16 h 17.3 z"
       style="display:inline;overflow:visible;visibility:visible;opacity:0.6;fill:url(#linearGradient5843);fill-opacity:1;fill-rule:nonzero;stroke:none;stroke-width:0.593268;marker:none"
       sodipodi:nodetypes="ccccc" />
    <path
       d="M 16.803135,1 H 5.196866 C 4.084215,1.0015 3.017405,1.44383 2.230746,2.230652 1.443893,3.017322 1.001386,4.084056 1.000124,5.196749 V 16.803451 16.8033 c 8.62e-4,1.112617 0.443769,2.179389 1.230622,2.96606 0.786659,0.786822 1.853469,1.229367 2.96612,1.230652 h 11.606698 -1.89e-4 c 1.11265,-0.0012 2.17946,-0.44383 2.966109,-1.230652 0.786861,-0.786671 1.229371,-1.853443 1.230631,-2.96606 V 5.196976 C 20.998115,4.084321 20.556345,3.017549 19.769484,2.230878 18.982835,1.444056 17.916025,1.001512 16.803375,1.000226 Z M 5.617127,3.00005 h 10.765997 c 0.73924,0.0011 1.43628,-0.113764 1.959,0.408983 0.522691,0.52267 0.6571,1.018431 0.658001,1.757669 V 17.000025 H 3.000124 V 5.166702 C 3.000976,4.427464 3.135432,3.931741 3.658126,3.409033 4.180804,2.886362 4.877904,3.000957 5.617127,3.00005 Z"
       id="path1193-3-3-9"
       style="fill:#d3dae3;fill-opacity:1;stroke-width:0.0396828"
       sodipodi:nodetypes="ccccccccccccccccccccccccc" />
    <path
       style="fill:#ed8796;fill-opacity:1;stroke-width:0.544332"
       d="m 3,6.1 v 0 1 h 16 v -1 0 z"
       id="path349-3-62-0-1"
       sodipodi:nodetypes="ccccccc" />
    <path
       style="fill:#ed8796;fill-opacity:1;stroke-width:0.544332"
       d="m 3,15.1 v 0 1 h 16 v -1 0 z"
       id="path349-3-6-6-9-8"
       sodipodi:nodetypes="ccccccc" />
    <path
       style="fill:#ed8796;fill-opacity:1;stroke-width:0.411476"
       d="m 12.14286,7.1 v 0 H 9.857141 v 8 h 2.285719 v 0 z"
       id="path349-3-7-1-3-7"
       sodipodi:nodetypes="ccccccc" />
    <path
       d="m 4.1428576,8.1 v 0 1 0 h 4.5714289 v 0 -1 0 z"
       id="path3004-6-9-1-8-6-9"
       style="fill:#ed8796;fill-opacity:1;stroke-width:0.104743"
       sodipodi:nodetypes="ccccccccc" />
    <path
       d="m 4.1428576,10.1 v 0 1 0 h 4.5714289 v 0 -1 0 z"
       id="path3004-6-9-1-8-7-0-2"
       style="fill:#ed8796;fill-opacity:1;stroke-width:0.104743"
       sodipodi:nodetypes="ccccccccc" />
    <path
       d="m 4.1428576,12.1 v 0 1 0 h 4.5714289 v 0 -1 0 z"
       id="path3004-6-9-1-8-7-9-6-0"
       style="fill:#ed8796;fill-opacity:1;stroke-width:0.104743"
       sodipodi:nodetypes="ccccccccc" />
    <path
       d="m 13.285713,8.1 v 0 1 0 h 4.571427 v 0 -1 0 z"
       id="path3004-6-9-1-8-7-9-2-2-2"
       style="fill:#ed8796;fill-opacity:1;stroke-width:0.104743"
       sodipodi:nodetypes="ccccccccc" />
    <path
       d="M 16.061211,12.52858 17.857141,11.814301 13.285713,10.1 l 1.9592,4 z"
       fill-rule="evenodd"
       id="path3094-0-6-3"
       style="fill:#ed8796;fill-opacity:1;stroke-width:0.00771315" />
    <path
       d="m 15.809389,3.500335 c -0.128313,0.00629 -0.238731,0.093493 -0.275504,0.217583 -0.03679,0.1240904 0.0081,0.2580683 0.111963,0.3342845 l 0.582244,0.4381351 -0.563316,0.468667 c -0.128996,0.107498 -0.147134,0.30007 -0.04051,0.43012 0.106623,0.130052 0.297637,0.148334 0.426649,0.04083 l 0.860107,-0.7167398 c 0.07171,-0.059628 0.11229,-0.1491548 0.11008,-0.2428419 -0.0023,-0.093686 -0.04698,-0.1811588 -0.121437,-0.2372755 L 16.007759,3.5629255 c -0.05674,-0.043798 -0.127,-0.065969 -0.198376,-0.062589 z"
       id="path2996-2-1-7"
       style="fill:#ed8796;fill-opacity:1;stroke-width:0.0887335" />
  </g>
  <defs
     id="defs22">
    <linearGradient
       inkscape:collect="always"
       xlink:href="#linearGradient9585"
       id="linearGradient5058"
       x1="148.9608"
       y1="596.36218"
       x2="148.9608"
       y2="636.12817"
       gradientUnits="userSpaceOnUse"
       gradientTransform="matrix(0.50999969,0,0,0.42750131,-58.969959,-248.94562)" />
    <linearGradient
       inkscape:collect="always"
       id="linearGradient9585">
      <stop
         style="stop-color:#5581aa;stop-opacity:1;"
         offset="0"
         id="stop9581" />
      <stop
         style="stop-color:#6db2c5;stop-opacity:1;"
         offset="1"
         id="stop9583" />
    </linearGradient>
    <linearGradient
       inkscape:collect="always"
       xlink:href="#linearGradient9585"
       id="linearGradient5843"
       gradientUnits="userSpaceOnUse"
       gradientTransform="matrix(0.44114972,0,0,0.40706011,-53.999013,-240.29643)"
       x1="148.9608"
       y1="596.70898"
       x2="148.9608"
       y2="636.01526" />
  </defs>
  <sodipodi:namedview
     id="namedview20"
     pagecolor="#cccccc"
     bordercolor="#000000"
     borderopacity="1"
     inkscape:showpageshadow="2"
     inkscape:pageopacity="0"
     inkscape:pagecheckerboard="0"
     inkscape:deskcolor="#808080"
     showgrid="false"
     inkscape:lockguides="false"
     inkscape:zoom="10.429825"
     inkscape:cx="23.586206"
     inkscape:cy="20.086627"
     inkscape:window-width="1920"
     inkscape:window-height="1000"
     inkscape:window-x="0"
     inkscape:window-y="0"
     inkscape:window-maximized="1"
     inkscape:current-layer="svg18"
     showguides="false">
    <inkscape:grid
       type="xygrid"
       id="grid1958"
       originx="0"
       originy="0" />
  </sodipodi:namedview>
  <path
     d="m -76.667371,-7.777964 v 0 1 0 h 6 v 0 -1 0 z"
     id="path3004-6-2"
     style="fill:#ed8796;fill-opacity:1;stroke-width:0.12"
     sodipodi:nodetypes="ccccccccc" />
  <path
     d="m -76.667371,-10.777964 v 0 1 0 h 6 v 0 -1 0 z"
     id="path3004-6-9"
     style="fill:#ed8796;fill-opacity:1;stroke-width:0.12"
     sodipodi:nodetypes="ccccccccc" />
  <path
     d="m -76.667371,-4.777964 v 0 1 0 h 6 v 0 -1 0 z"
     id="path3004-6"
     style="fill:#ed8796;fill-opacity:1;stroke-width:0.12"
     sodipodi:nodetypes="ccccccccc" />
  <path
     d="m -55.667371,2.222036 v -20 c 0,-1.346939 -1,-2 -2.1,-2 h -19.8 c -1.1,0 -2.1,0.653061 -2.1,2 v 20 c 0,1.346935 0.9,2 2,2 h 5 5 5 5 c 1.1,0 2,-0.653065 2,-2 z m -21.9,1 c -0.55,0 -1.1,-0.1 -1.1,-1.1 v -19.8 c 0,-0.673498 0,-1.1 1,-1.1 h 20 c 1,0 1,0.426502 1,1.1 v 19.8 c 0,1 -0.55,1.1 -1.1,1.1 z"
     id="path2-3-3-3"
     style="fill:#ed8796;fill-opacity:1;stroke-width:0.553283"
     sodipodi:nodetypes="ssssssscccsssssssssss" />
  <path
     style="fill:#ed8796;fill-opacity:1;stroke-width:0.638286"
     d="m -78.667371,-15.777964 v 0 1 h 22 v -1 0 z"
     id="path349-3"
     sodipodi:nodetypes="ccccccc" />
  <path
     style="fill:#ed8796;fill-opacity:1;stroke-width:0.638286"
     d="m -78.667371,-2.777964 v 0 1 h 22 v -1 0 z"
     id="path349-3-6"
     sodipodi:nodetypes="ccccccc" />
  <path
     style="fill:#ed8796;fill-opacity:1;stroke-width:0.471406"
     d="m -66.667371,-14.777964 v 0 h -2 v 12 h 2 v 0 z"
     id="path349-3-7"
     sodipodi:nodetypes="ccccccc" />
  <path
     d="m -76.667371,-13.777964 v 0 1 0 h 6 v 0 -1 0 z"
     id="path3004-6-9-1"
     style="fill:#ed8796;fill-opacity:1;stroke-width:0.12"
     sodipodi:nodetypes="ccccccccc" />
  <path
     d="m -60.339061,-18.277629 c -0.12831,0.0063 -0.23873,0.09349 -0.2755,0.217583 -0.0368,0.124091 0.008,0.258069 0.11196,0.334285 l 0.58225,0.438135 -0.56332,0.468667 c -0.12899,0.107498 -0.14713,0.30007 -0.0405,0.43012 0.10662,0.130052 0.29764,0.148334 0.42665,0.04084 l 0.86011,-0.71674 c 0.0717,-0.05963 0.11229,-0.149155 0.11008,-0.242842 -0.002,-0.09369 -0.047,-0.181159 -0.12144,-0.237275 l -0.89191,-0.670177 c -0.0567,-0.0438 -0.127,-0.06597 -0.19837,-0.06259 z"
     id="path2996-2"
     style="fill:#ed8796;fill-opacity:1;stroke-width:0.0887335" />
  <path
     d="m -64.667371,-13.777964 v 0 1 0 h 6 v 0 -1 0 z"
     id="path3004-6-9-1-9"
     style="fill:#ed8796;fill-opacity:1;stroke-width:0.12"
     sodipodi:nodetypes="ccccccccc" />
  <path
     d="m -60.810251,-6.920815 3.14288,-1.428541 -8,-3.428608 3.42861,8 z"
     fill-rule="evenodd"
     id="path3094"
     style="fill:#ed8796;fill-opacity:1;stroke-width:0.0144304" />
  <g
     id="krusader_root">
    <rect
       style="opacity:0.00100002;fill:#ed8796;fill-opacity:1"
       width="32"
       height="32"
       x="0"
       y="0"
       id="rect352" />
    <path
       inkscape:connector-curvature="0"
       id="path9068-9-37-8-0-1"
       d="m 26,5.9999992 -20.2000003,5e-6 V 23.099999 H 26.2 Z"
       style="display:inline;overflow:visible;visibility:visible;opacity:0.6;fill:url(#linearGradient5058);fill-opacity:1;fill-rule:nonzero;stroke:none;stroke-width:0.653705;marker:none"
       sodipodi:nodetypes="cccccc" />
    <path
       d="M 22.963626,3.9999992 H 9.0360717 c -1.335181,0.0015 -2.615324,0.532574 -3.559318,1.476775 -0.944186,0.944013 -1.475229,2.224101 -1.476754,3.559295 V 22.964119 22.96393 c 0.0015,1.335156 0.532568,2.615282 1.476754,3.559295 0.943994,0.944201 2.224137,1.475225 3.559318,1.476775 h 13.9280353 -1.94e-4 c 1.335183,-0.0015 2.615324,-0.532574 3.559318,-1.476775 0.944188,-0.944013 1.475228,-2.224139 1.476758,-3.559295 V 9.0363342 c -0.002,-1.335157 -0.53257,-2.615283 -1.476758,-3.559295 -0.943994,-0.944202 -2.224135,-1.475225 -3.559319,-1.476775 z M 9.1999997,6.0000122 H 22.8 c 0.887095,0.0011 1.603761,0.04384 2.231,0.671244 0.627232,0.627213 0.967901,1.441663 0.969,2.328756 V 23.000025 H 5.9999997 V 9.0000122 c 0.0011,-0.887093 0.341775,-1.701505 0.969,-2.328756 0.627201,-0.627212 1.343916,-0.670148 2.231,-0.671244 z"
       id="path1193-37"
       style="fill:#d3dae3;fill-opacity:1;stroke-width:0.047619"
       sodipodi:nodetypes="ccccccccccccccccccccccccc" />
    <path
       d="m 7.818182,16.6 v 0 1 0 h 5.454541 v 0 -1 0 z"
       id="path3004-6-2-3"
       style="fill:#ed8796;fill-opacity:1;stroke-width:0.114415"
       sodipodi:nodetypes="ccccccccc" />
    <path
       d="m 7.818182,13.6 v 0 1 0 h 5.454541 v 0 -1 0 z"
       id="path3004-6-9-6"
       style="fill:#ed8796;fill-opacity:1;stroke-width:0.114415"
       sodipodi:nodetypes="ccccccccc" />
    <path
       d="m 7.818182,19.6 v 0 1 0 h 5.454541 v 0 -1 0 z"
       id="path3004-6-7"
       style="fill:#ed8796;fill-opacity:1;stroke-width:0.114415"
       sodipodi:nodetypes="ccccccccc" />
    <path
       style="fill:#ed8796;fill-opacity:1;stroke-width:0.60858"
       d="m 6,8.6 v 0 1 h 20 v -1 0 z"
       id="path349-3-5"
       sodipodi:nodetypes="ccccccc" />
    <path
       style="fill:#ed8796;fill-opacity:1;stroke-width:0.60858"
       d="m 6,21.6 v 0 1 h 20 v -1 0 z"
       id="path349-3-6-3"
       sodipodi:nodetypes="ccccccc" />
    <path
       style="fill:#ed8796;fill-opacity:1;stroke-width:0.449468"
       d="m 16.90909,9.6 v 0 h -1.818187 v 12 h 1.818187 v 0 z"
       id="path349-3-7-5"
       sodipodi:nodetypes="ccccccc" />
    <path
       d="m 7.818182,10.6 v 0 1 0 h 5.454541 v 0 -1 0 z"
       id="path3004-6-9-1-6"
       style="fill:#ed8796;fill-opacity:1;stroke-width:0.114415"
       sodipodi:nodetypes="ccccccccc" />
    <path
       d="m 18.727274,10.6 v 0 1 0 h 5.454546 v 0 -1 0 z"
       id="path3004-6-9-1-9-2"
       style="fill:#ed8796;fill-opacity:1;stroke-width:0.114415"
       sodipodi:nodetypes="ccccccccc" />
    <path
       d="M 22.233738,17.457149 25.090904,16.028608 17.81818,12.6 l 3.116917,8 z"
       fill-rule="evenodd"
       id="path3094-9"
       style="fill:#ed8796;fill-opacity:1;stroke-width:0.0137588" />
    <path
       d="m 22.60163,6.337335 c -0.128313,0.00629 -0.238731,0.093493 -0.275504,0.217583 -0.03679,0.1240904 0.0081,0.2580683 0.111963,0.3342845 l 0.582244,0.4381351 -0.563316,0.468667 c -0.128996,0.107498 -0.147134,0.30007 -0.04051,0.43012 0.106623,0.130052 0.297637,0.148334 0.426649,0.04083 l 0.860107,-0.7167398 c 0.07171,-0.059628 0.11229,-0.1491548 0.11008,-0.2428419 -0.0023,-0.093686 -0.04698,-0.1811588 -0.121437,-0.2372755 L 22.8,6.3999255 c -0.05674,-0.043798 -0.127,-0.065969 -0.198376,-0.062589 z"
       id="path2996-2-1"
       style="fill:#ed8796;fill-opacity:1;stroke-width:0.0887335" />
  </g>
</svg>
