<?xml version="1.0" encoding="UTF-8" standalone="no"?>
<svg
   width="32"
   height="32"
   version="1.1"
   id="svg12"
   sodipodi:docname="kteatime.svg"
   inkscape:version="1.2.1 (9c6d41e410, 2022-07-14)"
   xmlns:inkscape="http://www.inkscape.org/namespaces/inkscape"
   xmlns:sodipodi="http://sodipodi.sourceforge.net/DTD/sodipodi-0.dtd"
   xmlns:xlink="http://www.w3.org/1999/xlink"
   xmlns="http://www.w3.org/2000/svg"
   xmlns:svg="http://www.w3.org/2000/svg"
   xmlns:rdf="http://www.w3.org/1999/02/22-rdf-syntax-ns#"
   xmlns:cc="http://creativecommons.org/ns#"
   xmlns:dc="http://purl.org/dc/elements/1.1/">
  <g
     id="22-22-kteatime"
     transform="translate(32,10)">
    <rect
       style="opacity:0.00100002"
       width="22"
       height="22"
       x="0"
       y="0"
       id="rect2" />
    <path
       inkscape:connector-curvature="0"
       id="path9068-9-37-8-0-1-0-1-3-7-4-6-1"
       d="M 19.118508,2.604498 2,2.604503 v 14.790996 h 17.288 z"
       style="display:inline;overflow:visible;visibility:visible;opacity:0.6;fill:url(#linearGradient6958);fill-opacity:1.0;fill-rule:nonzero;stroke:none;stroke-width:0.55969;marker:none"
       sodipodi:nodetypes="cccccc" />
    <path
       d="M 16.803011,1 H 5.196742 C 4.084091,1.0015 3.017281,1.44383 2.230622,2.230652 1.443769,3.017322 1.001262,4.084056 1,5.196749 V 16.803451 16.8033 c 8.62e-4,1.112617 0.443769,2.179389 1.230622,2.96606 0.786659,0.786822 1.853469,1.229367 2.96612,1.230652 h 11.606699 -1.9e-4 c 1.112651,-0.0012 2.179461,-0.44383 2.966111,-1.230652 0.78686,-0.786671 1.22937,-1.853443 1.23063,-2.96606 V 5.196976 c -0.002,-1.112655 -0.44377,-2.179427 -1.23063,-2.966098 -0.78665,-0.786822 -1.85346,-1.229366 -2.966111,-1.230652 z M 5.617003,3.00005 h 10.765998 c 0.73924,0.0011 1.43628,-0.113764 1.959,0.408983 0.522691,0.522671 0.6571,1.018431 0.658,1.757669 v 11.833323 h -16 V 5.166702 C 3.000852,4.427464 3.135308,3.931741 3.658002,3.409033 4.18068,2.886362 4.87778,3.000957 5.617003,3.00005 Z"
       id="path1193-3-7"
       style="fill:#d3dae3;fill-opacity:1;stroke-width:0.0396828"
       sodipodi:nodetypes="ccccccccccccccccccccccccc" />
    <path
       d="m 10.550004,10.461541 0.59984,-0.615231 c 0.117907,-0.120924 0.233111,-0.247391 0.303311,-0.402 0.0702,-0.15462 0.0918,-0.330934 0.06482,-0.498456 -0.02651,-0.168476 -0.0981,-0.325398 -0.1746,-0.476772 -0.07695,-0.150941 -0.159745,-0.302306 -0.193505,-0.468941 -0.0476,-0.237225 0.0098,-0.48828 0.125995,-0.69876 0.116567,-0.210464 0.28801,-0.384 0.474313,-0.532156 A 3.10455,3.1841545 0 0 1 14.150041,6.154 3.21885,3.301386 0 0 0 12.350032,6.769225 c -0.193515,0.143088 -0.374852,0.312 -0.495005,0.523858 a 1.0035001,1.0292315 0 0 0 -0.124186,0.343372 0.7874994,0.80769193 0 0 0 0.01935,0.363684 c 0.06565,0.22524 0.231298,0.401551 0.371698,0.587086 0.07116,0.092776 0.136789,0.190629 0.180899,0.299086 0.04371,0.108 0.06659,0.228914 0.04733,0.344315 -0.02474,0.1486 -0.115195,0.27876 -0.226787,0.377526 -0.111147,0.09831 -0.242549,0.1689295 -0.373505,0.238158 -0.3969,0.210463 -0.797854,0.415378 -1.199703,0.615231 z"
       id="path39-3-5"
       style="fill:#d3dae3;fill-opacity:1;stroke-width:0.455732" />
    <path
       d="M 10.550004,9.538462 A 6.156,6.3138501 0 0 0 9.950157,8.923225 C 9.664843,8.66892 9.355245,8.439545 9.112238,8.142313 A 1.69965,1.7432315 0 0 1 8.820205,7.647545 1.1285981,1.157538 0 0 1 8.750005,7.077084 C 8.785945,6.812141 8.928195,6.572141 9.113606,6.385225 9.299438,6.198775 9.527588,6.061688 9.762957,5.948139 10.234546,5.722917 10.755195,5.578455 11.149845,5.230917 A 1.7495987,1.794462 0 0 0 11.750149,4 c 0.216444,0.252455 0.33929,0.587084 0.33929,0.923083 0,0.336001 -0.122846,0.670605 -0.33929,0.923056 -0.2943,0.342945 -0.728556,0.515086 -1.10611,0.757406 -0.188081,0.121372 -0.367187,0.26491 -0.499045,0.449539 -0.131856,0.183229 -0.2142,0.412141 -0.194837,0.639229 0.01974,0.230771 0.13903,0.438463 0.265504,0.629998 0.125992,0.191545 0.265945,0.380307 0.334343,0.600914 0.06166,0.198465 0.06166,0.416313 0,0.615237 z"
       id="path41-6-9"
       style="fill:#d3dae3;fill-opacity:1;stroke-width:0.455732" />
    <path
       d="m 7.4,10.6 v 2.630773 c 0.0016,1.055343 0.505575,2.043407 1.350005,2.646454 V 16 h 4.499993 v -0.119081 c 0.714949,-0.51139 1.191329,-1.30378 1.315804,-2.188609 h 0.93419 c 0.497062,3e-6 0.900005,-0.41327 0.900008,-0.923083 v -0.923079 c 3e-6,-0.509794 -0.402942,-0.923073 -0.900008,-0.923067 H 14.599994 L 14.6,10.6 Z m 7.199994,0.78462 h 0.899998 c 0.248535,-10e-7 0.450007,0.20664 0.450001,0.461528 v 0.923079 c -2e-6,0.25491 -0.201472,0.461547 -0.450001,0.461546 h -0.899998 z"
       fill-rule="evenodd"
       id="path43-7-7"
       style="fill:#d3dae3;fill-opacity:1;stroke-width:0.455732"
       sodipodi:nodetypes="cccccccccccccccsccscc" />
  </g>
  <g
     id="kteatime">
    <rect
       style="opacity:0.00100002"
       width="32"
       height="32"
       x="0"
       y="0"
       id="rect7" />
    <path
       inkscape:connector-curvature="0"
       id="path9068-9-37-8-0-1"
       d="m 26.2,6 -20.4,5e-6 V 23.1 h 20.4 z"
       style="display:inline;overflow:visible;visibility:visible;opacity:0.6;fill:url(#linearGradient5058);fill-opacity:1;fill-rule:nonzero;stroke:none;stroke-width:0.653705;marker:none"
       sodipodi:nodetypes="ccccc" />
    <path
       d="M 22.963639,4 H 9.036077 C 7.700892,4.0015 6.420751,4.532569 5.476756,5.476756 4.532569,6.420753 4.001524,7.70089 4,9.036075 v 13.928043 -1.92e-4 c 0.0015,1.335182 0.532569,2.615318 1.476756,3.559315 C 6.420751,27.46743 7.700892,27.998475 9.036077,28 h 13.928043 -1.96e-4 c 1.335181,-0.0016 2.615321,-0.53257 3.559316,-1.476759 0.944189,-0.943997 1.475235,-2.224133 1.476759,-3.559315 V 9.036361 C 27.998099,7.701176 27.467429,6.421038 26.52324,5.477043 25.579245,4.532855 24.299105,4.00181 22.963923,4.000287 Z M 9.2,6 h 13.5 c 0.887094,0.0011 1.510764,0.04407 2.138,0.671275 C 25.465235,7.298482 25.998903,8.112908 26,9 V 23 H 6 V 9 C 6.0011,8.112908 6.441787,7.298511 7.069,6.671275 7.696203,6.04404 8.312914,6.001096 9.2,6 Z"
       id="path1193-7-3-6"
       style="fill:#d3dae3;fill-opacity:1;stroke-width:0.0476191"
       sodipodi:nodetypes="ccccccccccccccccccccccccc" />
    <path
       d="m 15.400001,15.115388 0.799795,-0.820306 c 0.157208,-0.161237 0.310808,-0.329856 0.404407,-0.536 0.09359,-0.206163 0.122401,-0.441237 0.0864,-0.664612 -0.03547,-0.224625 -0.130808,-0.433858 -0.2328,-0.635696 -0.102603,-0.201242 -0.213003,-0.403076 -0.258008,-0.625243 -0.06356,-0.316305 0.01323,-0.651065 0.168,-0.931685 0.155403,-0.280619 0.384,-0.512006 0.632407,-0.709543 A 4.1394005,4.2455393 0 0 1 20.199997,9.372 4.2918005,4.4018474 0 0 0 17.799995,10.192303 c -0.257991,0.190778 -0.499793,0.415999 -0.66,0.698469 a 1.3380003,1.3723084 0 0 0 -0.165596,0.45784 1.0499998,1.0769225 0 0 0 0.02586,0.484919 c 0.08756,0.300314 0.308392,0.535388 0.495593,0.782772 0.09483,0.123697 0.182399,0.254167 0.241208,0.398779 0.05826,0.144 0.0888,0.305221 0.06306,0.459083 -0.03294,0.198138 -0.153599,0.37168 -0.302396,0.50337 -0.148202,0.131077 -0.323404,0.225239 -0.498009,0.317547 -0.529195,0.280616 -1.063797,0.553837 -1.599594,0.820306 z"
       id="path39-9"
       style="fill:#d3dae3;fill-opacity:1;stroke-width:0.607637" />
    <path
       d="m 15.400001,13.884612 a 8.208003,8.4184677 0 0 0 -0.799797,-0.820309 c -0.380408,-0.339077 -0.793208,-0.644915 -1.117207,-1.041221 a 2.2662005,2.3243084 0 0 1 -0.389393,-0.659694 1.5047994,1.5433845 0 0 1 -0.09361,-0.760615 c 0.048,-0.353238 0.237593,-0.673238 0.4848,-0.92247 0.247793,-0.248606 0.551994,-0.431384 0.8658,-0.582769 0.6288,-0.300305 1.322994,-0.492924 1.849193,-0.956305 A 2.3328001,2.3926165 0 0 0 17.000198,6.5 c 0.288591,0.33661 0.452392,0.782771 0.452392,1.230771 0,0.448 -0.163801,0.894149 -0.452392,1.230763 -0.392407,0.457237 -0.971407,0.686769 -1.474806,1.009857 -0.250793,0.161839 -0.489601,0.353219 -0.665402,0.599382 -0.175791,0.244311 -0.2856,0.549531 -0.259791,0.852309 0.02638,0.307692 0.185392,0.584616 0.353992,0.84 0.168,0.255388 0.354607,0.507083 0.445805,0.801221 0.08227,0.264616 0.08227,0.555085 0,0.820309 z"
       id="path41-5"
       style="fill:#d3dae3;fill-opacity:1;stroke-width:0.607637" />
    <path
       d="m 11.2,15.166662 v 3.641036 c 0.0029,1.40713 0.674107,2.72454 1.800003,3.528605 V 22.5 h 5.999996 v -0.158768 c 0.953257,-0.681864 1.588437,-1.738379 1.754403,-2.91815 h 1.245592 c 0.662755,10e-7 1.200009,-0.551035 1.200006,-1.230779 v -1.230762 c -2e-6,-0.679739 -0.537255,-1.23077 -1.200006,-1.230767 h -1.199991 v -0.564112 z m 9.600003,1.179503 h 1.199991 c 0.331375,0 0.599999,0.275513 0.600003,0.615376 v 1.230762 c 2e-6,0.339879 -0.268624,0.615397 -0.600003,0.615395 h -1.199991 z"
       fill-rule="evenodd"
       id="path43-0"
       style="fill:#d3dae3;fill-opacity:1;stroke-width:0.607637"
       sodipodi:nodetypes="ccccccccccccccccccccc" />
  </g>
  <metadata
     id="metadata18">
    <rdf:RDF>
      <cc:Work
         rdf:about="">
        <dc:format>image/svg+xml</dc:format>
        <dc:type
           rdf:resource="http://purl.org/dc/dcmitype/StillImage" />
      </cc:Work>
    </rdf:RDF>
  </metadata>
  <defs
     id="defs16">
    <linearGradient
       inkscape:collect="always"
       id="linearGradient18921">
      <stop
         style="stop-color:#5581aa;stop-opacity:1;"
         offset="0"
         id="stop18917" />
      <stop
         style="stop-color:#6db2c5;stop-opacity:1;"
         offset="1"
         id="stop18919" />
    </linearGradient>
    <linearGradient
       id="g"
       gradientUnits="userSpaceOnUse"
       x1="21.666"
       x2="21.666"
       xlink:href="#a"
       y1="16"
       y2="6.6669998"
       gradientTransform="matrix(0.92307692,0,0,0.92307692,-0.63461497,2.1538462)" />
    <linearGradient
       id="a">
      <stop
         offset="0"
         stop-color="#f67400"
         id="stop19" />
      <stop
         offset="1"
         stop-color="#f39c1f"
         id="stop21" />
    </linearGradient>
    <linearGradient
       id="h"
       gradientUnits="userSpaceOnUse"
       x1="11"
       x2="11"
       xlink:href="#a"
       y1="14"
       y2="2"
       gradientTransform="matrix(0.92307692,0,0,0.92307692,-0.63461497,2.1538462)" />
    <linearGradient
       id="i"
       gradientUnits="userSpaceOnUse"
       x1="15"
       x2="15"
       y1="28"
       y2="15"
       gradientTransform="matrix(0.92307692,0,0,0.92307692,-0.63461497,2.1538462)">
      <stop
         offset="0"
         stop-color="#375a7d"
         id="stop4" />
      <stop
         offset=".154"
         stop-color="#3b85b5"
         id="stop6" />
      <stop
         offset="1"
         stop-color="#7cbcec"
         id="stop8" />
    </linearGradient>
    <linearGradient
       inkscape:collect="always"
       xlink:href="#linearGradient18921"
       id="linearGradient5058"
       x1="148.9608"
       y1="596.36218"
       x2="148.9608"
       y2="636.12817"
       gradientUnits="userSpaceOnUse"
       gradientTransform="matrix(0.50999969,0,0,0.42750131,-58.969959,-248.94562)" />
    <linearGradient
       inkscape:collect="always"
       xlink:href="#linearGradient18921"
       id="linearGradient6958"
       gradientUnits="userSpaceOnUse"
       gradientTransform="matrix(0.43219982,0,0,0.36977632,-52.889369,-217.9162)"
       x1="146.80391"
       y1="596.36243"
       x2="146.99998"
       y2="636.3623" />
  </defs>
  <sodipodi:namedview
     pagecolor="#ffffff"
     bordercolor="#000000"
     borderopacity="1"
     objecttolerance="10"
     gridtolerance="10"
     guidetolerance="10"
     inkscape:pageopacity="0"
     inkscape:pageshadow="2"
     inkscape:window-width="1920"
     inkscape:window-height="1002"
     id="namedview14"
     showgrid="false"
     inkscape:zoom="9.8125003"
     inkscape:cx="26.242037"
     inkscape:cy="20.127388"
     inkscape:window-x="0"
     inkscape:window-y="0"
     inkscape:window-maximized="1"
     inkscape:current-layer="svg12"
     inkscape:document-rotation="0"
     inkscape:showpageshadow="false"
     inkscape:pagecheckerboard="0"
     inkscape:deskcolor="#d1d1d1"
     inkscape:lockguides="false">
    <inkscape:grid
       type="xygrid"
       id="grid884"
       originx="0"
       originy="0" />
  </sodipodi:namedview>
</svg>
