<?xml version="1.0" encoding="UTF-8" standalone="no"?>
<svg
   width="32"
   height="32"
   version="1.1"
   id="svg12"
   sodipodi:docname="ktorrent.svg"
   inkscape:version="1.2.2 (b0a8486541, 2022-12-01)"
   xmlns:inkscape="http://www.inkscape.org/namespaces/inkscape"
   xmlns:sodipodi="http://sodipodi.sourceforge.net/DTD/sodipodi-0.dtd"
   xmlns:xlink="http://www.w3.org/1999/xlink"
   xmlns="http://www.w3.org/2000/svg"
   xmlns:svg="http://www.w3.org/2000/svg"
   xmlns:rdf="http://www.w3.org/1999/02/22-rdf-syntax-ns#"
   xmlns:cc="http://creativecommons.org/ns#"
   xmlns:dc="http://purl.org/dc/elements/1.1/">
  <g
     id="22-22-ktorrent"
     transform="translate(32,10.000001)">
    <rect
       style="opacity:0.00100002"
       width="22"
       height="22"
       x="0"
       y="0"
       id="rect2" />
    <path
       inkscape:connector-curvature="0"
       id="path9068-9-37-8-0-1-7"
       d="M 20,2.7 H 2 v 16 h 18 z"
       style="display:inline;overflow:visible;visibility:visible;opacity:0.6;fill:url(#linearGradient5843);fill-opacity:1.0;fill-rule:nonzero;stroke:none;stroke-width:0.605151;marker:none"
       sodipodi:nodetypes="ccccc" />
    <path
       d="m 11.254791,15.933593 c -0.111249,0.04368 -0.23098,0.06602 -0.359071,0.06602 -0.128084,0 -0.245966,-0.02228 -0.353635,-0.06602 -0.121457,-0.05649 -0.225939,-0.122586 -0.313323,-0.197916 L 7.196155,12.910381 c -0.08105,-0.07527 -0.148376,-0.169623 -0.20208,-0.282551 -0.0475,-0.106753 -0.07105,-0.22137 -0.07105,-0.343841 0,-0.122128 0.0236,-0.235293 0.07091,-0.339019 0.04691,-0.103625 0.114428,-0.196235 0.202076,-0.277607 0.101034,-0.08816 0.205389,-0.15414 0.313325,-0.19791 0.107669,-0.04394 0.225543,-0.06586 0.353763,-0.06586 0.13485,0 0.256044,0.02193 0.363846,0.06586 0.121326,0.05026 0.225548,0.11606 0.313459,0.19791 l 1.415203,1.308792 V 8.412266 c 0,-0.119221 0.02335,-0.230696 0.0707,-0.334419 0.04692,-0.103505 0.11456,-0.197811 0.202209,-0.28244 0.08736,-0.08485 0.191862,-0.152582 0.313323,-0.202639 0.107801,-0.03756 0.225813,-0.05648 0.353894,-0.05648 0.12809,0 0.245968,0.01891 0.354038,0.05665 0.121322,0.05 0.225543,0.117766 0.313323,0.202629 0.08766,0.08464 0.156862,0.178819 0.207116,0.282444 0.05081,0.103604 0.07598,0.215078 0.07598,0.334421 v 4.563887 l 1.405127,-1.308783 c 0.08751,-0.0819 0.192128,-0.147632 0.313458,-0.197929 0.114427,-0.04394 0.235886,-0.06586 0.363709,-0.06586 0.127958,0 0.245966,0.02193 0.353904,0.06586 0.11456,0.04374 0.218783,0.109662 0.313587,0.197929 0.08709,0.08132 0.156333,0.173855 0.207118,0.2776 0.05022,0.103485 0.07568,0.216775 0.07568,0.33888 0,0.122612 -0.02369,0.237103 -0.07092,0.343985 -0.06055,0.112925 -0.131271,0.207229 -0.211888,0.282542 l -3.032873,2.82517 c -0.09453,0.08792 -0.19704,0.153923 -0.30829,0.197931 z"
       id="path2-3-3-2"
       style="fill:#d3dae3;fill-opacity:1;stroke-width:0.126619" />
    <path
       d="M 15.809073,7.659632 C 15.652477,7.165015 15.214116,6.780415 14.662118,6.657944 c 0.0061,-0.05242 0.01032,-0.1058 0.01032,-0.159836 0,-0.798334 -0.710056,-1.445416 -1.585848,-1.445416 -0.182055,0 -0.356152,0.02916 -0.518852,0.08079 -0.503844,-0.683711 -1.35949,-1.133478 -2.331028,-1.133478 -1.455635,0 -2.652184,1.010158 -2.792869,2.303592 -0.0052,-1.21e-4 -0.0094,-6.05e-4 -0.0141,-6.05e-4 -0.856309,0 -1.552305,0.619025 -1.582806,1.392822 -0.548945,0.163209 -0.945937,0.619026 -0.945937,1.173845 0,0.690492 0.613924,1.236017 1.371578,1.236017 H 9.359151 V 8.412291 c 0,-0.191513 0.03927,-0.37445 0.116686,-0.543708 C 9.549997,7.705355 9.65749,7.55459 9.79513,7.421845 9.935151,7.285935 10.104209,7.176395 10.296472,7.097083 l 0.03252,-0.01238 C 10.680371,6.961991 11.109984,6.96187 11.462559,7.08446 l 0.03342,0.01269 c 0.191074,0.07879 0.359866,0.188249 0.501216,0.324864 0.133921,0.12913 0.241191,0.275914 0.318761,0.43575 0.08408,0.171552 0.127022,0.358714 0.127022,0.554456 v 1.693266 h 3.086585 c 0.757377,0 1.371435,-0.545521 1.371435,-1.235995 -1.34e-4,-0.603202 -0.468596,-1.09213 -1.091935,-1.2099 z"
       id="path4-6-6-8"
       style="fill:#d3dae3;fill-opacity:1;stroke-width:0.126619" />
    <path
       d="M 16.803011,0.99995 H 5.196742 C 4.084091,1.00145 3.017281,1.44378 2.230622,2.230602 1.443769,3.017272 1.001262,4.084006 1,5.196699 v 11.606702 -1.51e-4 c 8.62e-4,1.112617 0.443769,2.179389 1.230622,2.96606 0.786659,0.786822 1.853469,1.229367 2.96612,1.230652 h 11.606699 -1.9e-4 c 1.11265,-0.0012 2.17946,-0.44383 2.96611,-1.230652 0.78686,-0.786671 1.22937,-1.853443 1.23063,-2.96606 V 5.196926 c -0.002,-1.112655 -0.44377,-2.179427 -1.23063,-2.966098 -0.78665,-0.786822 -1.85346,-1.229366 -2.96611,-1.230652 z M 5.617003,3 h 10.765998 c 0.73924,0.0011 1.43628,-0.113764 1.959,0.408983 0.52269,0.522671 0.6571,1.018431 0.658,1.757669 v 11.833323 h -16 V 5.166652 C 3.000852,4.427414 3.135308,3.931691 3.658002,3.408983 4.18068,2.886312 4.87778,3.000907 5.617003,3 Z"
       id="path1193-3-9"
       style="fill:#d3dae3;fill-opacity:1;stroke-width:0.0396828"
       sodipodi:nodetypes="ccccccccccccccccccccccccc" />
  </g>
  <g
     id="ktorrent">
    <rect
       style="opacity:0.00100002"
       width="32"
       height="32"
       x="0"
       y="0"
       id="rect7" />
    <path
       inkscape:connector-curvature="0"
       id="path9068-9-37-8-0-1"
       d="M 26.7,5.7 5.6,5.7000025 5.7,23.7 h 21 z"
       style="display:inline;overflow:visible;visibility:visible;opacity:0.6;fill:url(#linearGradient5058);fill-opacity:1;fill-rule:nonzero;stroke:none;stroke-width:0.657517;marker:none"
       sodipodi:nodetypes="ccccc" />
    <path
       d="m 16.474896,21.422993 c -0.135256,0.05092 -0.280829,0.07702 -0.436559,0.07702 -0.155729,0 -0.299045,-0.02604 -0.429949,-0.07702 -0.147669,-0.06589 -0.274703,-0.143028 -0.38094,-0.23091 l -3.68705,-3.296281 c -0.0985,-0.08786 -0.180395,-0.197901 -0.245685,-0.329652 -0.05771,-0.124552 -0.08641,-0.258277 -0.08641,-0.401167 0,-0.142479 0.0287,-0.27451 0.08625,-0.395533 0.05707,-0.120894 0.139125,-0.228943 0.245685,-0.323878 0.122842,-0.102825 0.249715,-0.179844 0.380941,-0.230909 0.130903,-0.0513 0.274219,-0.07686 0.43011,-0.07686 0.163951,0 0.311298,0.02557 0.442362,0.07686 0.147508,0.05866 0.274219,0.135412 0.381102,0.230909 l 1.720602,1.526966 v -5.324702 c 0,-0.139091 0.02837,-0.269147 0.08592,-0.390169 0.05707,-0.120753 0.139286,-0.230781 0.245846,-0.329524 0.106238,-0.09901 0.233272,-0.178012 0.380941,-0.236413 0.131064,-0.04377 0.274542,-0.06588 0.430271,-0.06588 0.15573,0 0.299046,0.02211 0.430433,0.06605 0.147508,0.05836 0.274219,0.137397 0.380941,0.236412 0.10656,0.09875 0.190712,0.208628 0.251811,0.329523 0.06174,0.12088 0.09237,0.250937 0.09237,0.390169 v 5.324704 l 1.708349,-1.526965 c 0.106399,-0.09551 0.233595,-0.172237 0.381102,-0.23092 0.139125,-0.0513 0.286794,-0.07686 0.442201,-0.07686 0.155569,0 0.299046,0.02556 0.430272,0.07686 0.139286,0.05098 0.265997,0.127945 0.381263,0.23092 0.105915,0.09492 0.190067,0.202841 0.251811,0.323876 0.0611,0.12074 0.09205,0.252914 0.09205,0.395379 0,0.143044 -0.02886,0.276627 -0.08625,0.401322 -0.07367,0.131751 -0.159599,0.241776 -0.257615,0.32965 l -3.687372,3.296132 c -0.114943,0.102558 -0.239559,0.179578 -0.374815,0.23092 z"
       id="path2-3-5"
       style="fill:#d3dae3;fill-opacity:1;stroke-width:0.150799" />
    <path
       d="m 22.012,11.769739 c -0.19039,-0.577073 -0.723353,-1.025784 -1.394473,-1.168672 0.0079,-0.06118 0.01257,-0.123435 0.01257,-0.186483 0,-0.931418 -0.863284,-1.686367 -1.92808,-1.686367 -0.221343,0 -0.433012,0.03399 -0.630818,0.09423 -0.612595,-0.797692 -1.652888,-1.322433 -2.834079,-1.322433 -1.769771,0 -3.224536,1.178551 -3.395581,2.687604 -0.0058,-1.41e-4 -0.01145,-7.05e-4 -0.01709,-7.05e-4 -1.041098,0 -1.887293,0.722221 -1.924372,1.625007 C 9.232665,12.002344 8.75,12.534141 8.75,13.181458 c 0,0.805593 0.746406,1.442056 1.667563,1.442056 h 3.752663 v -1.975677 c 0,-0.223438 0.04772,-0.436867 0.141865,-0.634345 0.09012,-0.190434 0.220859,-0.366328 0.388196,-0.521213 0.170238,-0.158558 0.375782,-0.286358 0.609537,-0.378892 l 0.0395,-0.01442 c 0.427208,-0.143171 0.949531,-0.143312 1.37819,-2.83e-4 l 0.04063,0.01479 c 0.232305,0.09195 0.437526,0.219632 0.609377,0.379025 0.162822,0.150654 0.293242,0.321903 0.38755,0.508384 0.102208,0.200158 0.15444,0.418516 0.15444,0.646892 v 1.975536 h 3.752662 c 0.920836,0 1.667403,-0.636461 1.667403,-1.442045 -1.62e-4,-0.70375 -0.569719,-1.274188 -1.32757,-1.411586 z"
       id="path4-6-9"
       style="fill:#d3dae3;fill-opacity:1;stroke-width:0.150799" />
    <path
       d="M 22.963625,3.999988 H 9.036071 C 7.700891,4.001488 6.420748,4.532561 5.476754,5.476763 4.532567,6.420775 4.001525,7.700864 4,9.036057 v 13.928051 -1.9e-4 c 0.0015,1.335156 0.532567,2.615282 1.476754,3.559294 0.943994,0.944202 2.224137,1.475226 3.559318,1.476775 h 13.928034 -1.94e-4 c 1.335183,-0.0015 2.615324,-0.532573 3.559318,-1.476775 0.944187,-0.944012 1.475232,-2.224138 1.476755,-3.559294 V 9.036322 C 27.998185,7.701166 27.467417,6.42104 26.52323,5.477027 25.579236,4.532825 24.299095,4.001803 22.963911,4.000252 Z M 9.200001,6.000001 h 13.599998 c 0.887095,0.0011 1.603761,0.04384 2.231,0.671244 C 25.658231,7.298457 25.9989,8.112908 26,9.000001 V 23.000013 H 6 V 9.000001 C 6.0011,8.112908 6.341775,7.298495 6.969001,6.671245 7.596202,6.044032 8.312917,6.001097 9.200001,6.000001 Z"
       id="path1193-2"
       style="fill:#d3dae3;fill-opacity:1;stroke-width:0.047619"
       sodipodi:nodetypes="ccccccccccccccccccccccccc" />
  </g>
  <metadata
     id="metadata18">
    <rdf:RDF>
      <cc:Work
         rdf:about="">
        <dc:format>image/svg+xml</dc:format>
        <dc:type
           rdf:resource="http://purl.org/dc/dcmitype/StillImage" />
      </cc:Work>
    </rdf:RDF>
  </metadata>
  <defs
     id="defs16">
    <linearGradient
       inkscape:collect="always"
       id="linearGradient449">
      <stop
         style="stop-color:#00ccff;stop-opacity:1"
         offset="0"
         id="stop445" />
      <stop
         style="stop-color:#6db2c5;stop-opacity:1;"
         offset="1"
         id="stop447" />
    </linearGradient>
    <linearGradient
       inkscape:collect="always"
       xlink:href="#linearGradient449"
       id="linearGradient5058"
       x1="148.9608"
       y1="596.70898"
       x2="148.9608"
       y2="636.01526"
       gradientUnits="userSpaceOnUse"
       gradientTransform="matrix(0.50999969,0,0,0.43250137,-59.169959,-252.22746)" />
    <linearGradient
       inkscape:collect="always"
       xlink:href="#linearGradient449"
       id="linearGradient5843"
       gradientUnits="userSpaceOnUse"
       gradientTransform="matrix(0.45899972,0,0,0.40706011,-56.472963,-240.19643)"
       x1="148.9608"
       y1="596.70898"
       x2="148.9608"
       y2="636.01526" />
  </defs>
  <sodipodi:namedview
     pagecolor="#ffffff"
     bordercolor="#666666"
     borderopacity="1"
     objecttolerance="10"
     gridtolerance="10"
     guidetolerance="10"
     inkscape:pageopacity="0"
     inkscape:pageshadow="2"
     inkscape:window-width="1920"
     inkscape:window-height="994"
     id="namedview14"
     showgrid="false"
     inkscape:zoom="13.876971"
     inkscape:cx="28.64458"
     inkscape:cy="18.339737"
     inkscape:window-x="0"
     inkscape:window-y="0"
     inkscape:window-maximized="1"
     inkscape:current-layer="svg12"
     inkscape:document-rotation="0"
     inkscape:pagecheckerboard="0"
     showguides="false"
     inkscape:lockguides="false"
     inkscape:showpageshadow="2"
     inkscape:deskcolor="#d1d1d1">
    <inkscape:grid
       type="xygrid"
       id="grid1832"
       originx="32"
       originy="10.000001" />
  </sodipodi:namedview>
</svg>
