<?xml version="1.0" encoding="UTF-8" standalone="no"?>
<svg
   width="32.000004"
   height="32"
   version="1.1"
   id="svg2046"
   sodipodi:docname="lutris.svg"
   inkscape:version="1.2.2 (b0a8486541, 2022-12-01)"
   xmlns:inkscape="http://www.inkscape.org/namespaces/inkscape"
   xmlns:sodipodi="http://sodipodi.sourceforge.net/DTD/sodipodi-0.dtd"
   xmlns:xlink="http://www.w3.org/1999/xlink"
   xmlns="http://www.w3.org/2000/svg"
   xmlns:svg="http://www.w3.org/2000/svg">
  <sodipodi:namedview
     id="namedview2048"
     pagecolor="#cccccc"
     bordercolor="#000000"
     borderopacity="1"
     inkscape:showpageshadow="2"
     inkscape:pageopacity="0"
     inkscape:pagecheckerboard="0"
     inkscape:deskcolor="#808080"
     showgrid="false"
     inkscape:zoom="10.429825"
     inkscape:cx="14.238015"
     inkscape:cy="11.457527"
     inkscape:window-width="1920"
     inkscape:window-height="994"
     inkscape:window-x="0"
     inkscape:window-y="0"
     inkscape:window-maximized="1"
     inkscape:current-layer="svg2046">
    <inkscape:grid
       type="xygrid"
       id="grid224"
       originx="19.137858"
       originy="52.721613" />
  </sodipodi:namedview>
  <defs
     id="l4k1">
    <linearGradient
       inkscape:collect="always"
       id="linearGradient490">
      <stop
         style="stop-color:#d38d5f;stop-opacity:1"
         offset="0"
         id="stop486" />
      <stop
         style="stop-color:#6db2c5;stop-opacity:1;"
         offset="1"
         id="stop488" />
    </linearGradient>
    <style
       id="current-color-scheme"
       type="text/css">
   .ColorScheme-Background {color:#181818; } .ColorScheme-ButtonBackground { color:#343434; } .ColorScheme-Highlight { color:#4285f4; } .ColorScheme-Text { color:#dfdfdf; } .ColorScheme-ViewBackground { color:#242424; } .ColorScheme-NegativeText { color:#f44336; } .ColorScheme-PositiveText { color:#4caf50; } .ColorScheme-NeutralText { color:#ff9800; }
  </style>
    <linearGradient
       inkscape:collect="always"
       xlink:href="#linearGradient490"
       id="linearGradient5058"
       x1="147.10342"
       y1="596.93359"
       x2="147.10342"
       y2="635.79059"
       gradientUnits="userSpaceOnUse"
       gradientTransform="matrix(0.51249971,0,0,0.43750136,-59.390461,-255.15925)" />
    <linearGradient
       inkscape:collect="always"
       xlink:href="#linearGradient490"
       id="linearGradient6958"
       gradientUnits="userSpaceOnUse"
       gradientTransform="matrix(0.43219982,0,0,0.36977632,-52.533222,-217.91622)"
       x1="146.80391"
       y1="596.36243"
       x2="146.99998"
       y2="636.3623" />
    <linearGradient
       inkscape:collect="always"
       xlink:href="#linearGradient1038"
       id="linearGradient1040"
       x1="321.65744"
       y1="-172.25456"
       x2="342.44727"
       y2="-172.25456"
       gradientUnits="userSpaceOnUse"
       gradientTransform="matrix(0.08670318,0,0,0.08670318,-12.790042,28.507015)" />
    <linearGradient
       inkscape:collect="always"
       id="linearGradient1038">
      <stop
         style="stop-color:#ff5f73;stop-opacity:1"
         offset="0"
         id="stop1034" />
      <stop
         id="stop1042"
         offset="0.14546083"
         style="stop-color:#ff95a9;stop-opacity:1" />
      <stop
         style="stop-color:#ff8da4;stop-opacity:1"
         offset="0.25454578"
         id="stop1044" />
      <stop
         id="stop1046"
         offset="0.63634312"
         style="stop-color:#ff465c;stop-opacity:1" />
      <stop
         style="stop-color:#f2465b;stop-opacity:1"
         offset="1"
         id="stop1036" />
    </linearGradient>
    <radialGradient
       inkscape:collect="always"
       xlink:href="#linearGradient980"
       id="radialGradient982"
       cx="336.2753"
       cy="-262.63675"
       fx="336.2753"
       fy="-262.63675"
       r="26.392866"
       gradientUnits="userSpaceOnUse"
       gradientTransform="matrix(0.10532819,0,0,0.09166952,-19.873521,33.563921)" />
    <linearGradient
       inkscape:collect="always"
       id="linearGradient980">
      <stop
         style="stop-color:#fffdfd;stop-opacity:1"
         offset="0"
         id="stop976" />
      <stop
         id="stop992"
         offset="0.33526921"
         style="stop-color:#ffe6e9;stop-opacity:1" />
      <stop
         id="stop990"
         offset="0.59462214"
         style="stop-color:#ffd6db;stop-opacity:1" />
      <stop
         id="stop988"
         offset="0.76555932"
         style="stop-color:#ffb7c1;stop-opacity:1" />
      <stop
         id="stop984"
         offset="0.92580974"
         style="stop-color:#ff9ca8;stop-opacity:1" />
      <stop
         style="stop-color:#ffbec7;stop-opacity:1"
         offset="1"
         id="stop978" />
    </linearGradient>
    <radialGradient
       inkscape:collect="always"
       xlink:href="#linearGradient980"
       id="radialGradient982-5"
       cx="336.2753"
       cy="-262.63675"
       fx="336.2753"
       fy="-262.63675"
       r="26.392866"
       gradientUnits="userSpaceOnUse"
       gradientTransform="matrix(0.08905162,0,0,0.07750365,-19.356845,25.976366)" />
    <linearGradient
       inkscape:collect="always"
       xlink:href="#linearGradient1038"
       id="linearGradient6904"
       gradientUnits="userSpaceOnUse"
       gradientTransform="matrix(0.07330477,0,0,0.07330477,-13.36799,21.700914)"
       x1="321.65744"
       y1="-172.25456"
       x2="342.44727"
       y2="-172.25456" />
  </defs>
  <g
     id="lutris">
    <rect
       y="0"
       x="-1.3415527e-07"
       height="32"
       width="32.000004"
       id="rect4230"
       style="fill:none;fill-opacity:1;stroke:none" />
    <path
       inkscape:connector-curvature="0"
       id="path9068-9-37-8-0-1"
       d="m 25.99602,5.750013 -20.29902,5e-6 v 17.499995 h 20.5 z"
       style="display:inline;overflow:visible;visibility:visible;opacity:0.6;fill:url(#linearGradient5058);fill-opacity:1;fill-rule:nonzero;stroke:none;stroke-width:0.662926;marker:none"
       sodipodi:nodetypes="cccccc" />
    <path
       d="M 22.963626,4 H 9.036072 C 7.700891,4.0015 6.420748,4.532574 5.476754,5.476775 4.532568,6.420788 4.001525,7.700876 4,9.03607 v 13.92805 -1.89e-4 c 0.0015,1.335156 0.532568,2.615282 1.476754,3.559295 0.943994,0.944201 2.224137,1.475225 3.559318,1.476775 h 13.928035 -1.94e-4 c 1.335183,-0.0015 2.615324,-0.532574 3.559318,-1.476775 0.944187,-0.944013 1.475232,-2.224139 1.476755,-3.559295 V 9.036335 C 27.998186,7.701178 27.467418,6.421052 26.523231,5.47704 25.579237,4.532838 24.299096,4.001815 22.963912,4.000265 Z M 9.2,6.000013 h 13.6 c 0.887095,0.0011 1.603761,0.04384 2.231,0.671244 C 25.658232,7.29847 25.998901,8.11292 26,9.000013 V 23.000026 H 6 V 9.000013 C 6.0011,8.11292 6.341775,7.298508 6.969,6.671257 7.596201,6.044045 8.312916,6.001109 9.2,6.000013 Z"
       id="path1193-1"
       style="fill:#d3dae3;fill-opacity:1;stroke-width:0.047619"
       sodipodi:nodetypes="ccccccccccccccccccccccccc" />
    <path
       style="fill:#000000;fill-opacity:0.0954546;stroke:#000000;stroke-width:0;stroke-linecap:round;stroke-linejoin:round;stroke-miterlimit:4;stroke-dasharray:none;stroke-opacity:0.0941176"
       d="m 16.069744,15.031757 v 8.7e-5 c -0.586919,0.0029 -1.173812,0.09715 -1.629382,0.271653 l -6.475369,1.83722 0.0027,1.533557 c 0.0012,0.381866 0.258617,0.56092 0.608812,0.707026 l 5.863868,2.446493 c 0.451659,0.188437 1.042138,0.281062 1.632161,0.281062 0.590022,0 1.180503,-0.09262 1.632161,-0.281062 l 5.86387,-2.446493 c 0.350193,-0.146106 0.607614,-0.325159 0.608766,-0.707026 l 0.0028,-1.320539 -6.47537,-2.050238 c -0.465092,-0.147258 -1.042462,-0.268762 -1.629382,-0.271653 v -8.7e-5 c -9.14e-4,4e-6 -0.0018,4.1e-5 -0.0028,4.5e-5 -9.15e-4,-4e-6 -0.0018,-4.1e-5 -0.0028,-4.5e-5 z"
       id="path1025"
       inkscape:connector-curvature="0"
       sodipodi:nodetypes="ccsccccsccccsccccc" />
    <path
       sodipodi:nodetypes="ccsccccsccccsccccc"
       inkscape:connector-curvature="0"
       id="path940"
       d="m 15.997175,14.759621 v 8.7e-5 c -0.586919,0.0029 -1.173813,0.09715 -1.629383,0.271653 l -6.475368,1.837221 0.0027,1.533557 c 0.0012,0.381866 0.258616,0.560919 0.608812,0.707025 l 5.863868,2.446493 c 0.451659,0.188438 1.042138,0.281063 1.632161,0.281063 0.590022,0 1.180502,-0.09262 1.632161,-0.281063 l 5.86387,-2.446493 c 0.350193,-0.146106 0.607612,-0.325158 0.608766,-0.707025 l 0.0028,-1.32054 -6.47537,-2.050238 C 17.167099,14.884104 16.58973,14.7626 16.00281,14.759708 v -8.7e-5 c -9.15e-4,4e-6 -0.0018,4.1e-5 -0.0028,4.6e-5 -9.14e-4,-5e-6 -0.0018,-4.2e-5 -0.0028,-4.6e-5 z"
       style="fill:#d3dae3;fill-opacity:1;stroke:#000000;stroke-width:0;stroke-linecap:round;stroke-linejoin:round;stroke-miterlimit:4;stroke-dasharray:none;stroke-opacity:0.0941176" />
    <path
       style="fill:#fff0f3;fill-opacity:0.436364;stroke:#000000;stroke-width:0;stroke-linecap:round;stroke-linejoin:round;stroke-miterlimit:4;stroke-dasharray:none;stroke-opacity:0.0941176"
       d="m 15.997175,13.323715 v 8.7e-5 c -0.586919,0.0029 -1.173813,0.09715 -1.629383,0.271653 l -6.475368,1.837221 0.0027,1.533557 c 0.0012,0.381866 0.258616,0.560919 0.608812,0.707025 l 5.863868,2.446493 c 0.451659,0.188438 1.042138,0.281063 1.632161,0.281063 0.590022,0 1.180502,-0.09262 1.632161,-0.281063 l 5.86387,-2.446493 c 0.350193,-0.146106 0.607612,-0.325158 0.608766,-0.707025 l 0.0028,-1.32054 -6.47537,-2.050237 C 17.167099,13.448198 16.58973,13.326693 16.00281,13.323802 v -8.6e-5 c -9.15e-4,3e-6 -0.0018,4.1e-5 -0.0028,4.5e-5 -9.14e-4,-4e-6 -0.0018,-4.2e-5 -0.0028,-4.5e-5 z"
       id="path962"
       inkscape:connector-curvature="0"
       sodipodi:nodetypes="ccsccccsccccsccccc" />
    <path
       style="fill:#404040;fill-opacity:1;stroke:#000000;stroke-width:0;stroke-linecap:round;stroke-linejoin:round;stroke-miterlimit:4;stroke-dasharray:none;stroke-opacity:0.0941176"
       d="m 15.997175,13.21935 v 8.7e-5 c -0.586919,0.0029 -1.173813,0.09715 -1.629383,0.271653 l -6.475368,1.83722 0.0027,1.533557 c 0.0012,0.381866 0.258616,0.56092 0.608812,0.707025 l 5.863868,2.446493 c 0.451659,0.188438 1.042138,0.281063 1.632161,0.281063 0.590022,0 1.180502,-0.09262 1.632161,-0.281063 l 5.86387,-2.446493 c 0.350193,-0.146105 0.607612,-0.325158 0.608766,-0.707025 l 0.0028,-1.320539 -6.47537,-2.050238 C 17.167099,13.343832 16.58973,13.222327 16.00281,13.219437 v -8.7e-5 c -9.15e-4,4e-6 -0.0018,4.1e-5 -0.0028,4.5e-5 -9.14e-4,-4e-6 -0.0018,-4.1e-5 -0.0028,-4.5e-5 z"
       id="path890"
       inkscape:connector-curvature="0"
       sodipodi:nodetypes="ccsccccsccccsccccc" />
    <path
       sodipodi:nodetypes="ccccsccccc"
       inkscape:connector-curvature="0"
       id="path936"
       d="m 7.892424,15.32831 0.0027,0.380042 c 0.0012,0.381866 0.258616,0.560919 0.608812,0.707025 l 5.863868,2.446492 c 0.451659,0.188438 1.042138,0.281064 1.632161,0.281064 0.590022,0 1.180502,-0.09263 1.632161,-0.281064 l 5.86387,-2.446492 c 0.350193,-0.146106 0.607612,-0.325159 0.608766,-0.707025 l 0.0028,-0.167024 z"
       style="fill:#000000;fill-opacity:0.113636;stroke:#000000;stroke-width:0;stroke-linecap:round;stroke-linejoin:round;stroke-miterlimit:4;stroke-dasharray:none;stroke-opacity:0.0941176" />
    <path
       sodipodi:nodetypes="sssssssss"
       inkscape:connector-curvature="0"
       id="rect858"
       d="m 8.409298,14.720391 5.962183,-2.446485 c 0.905513,-0.371563 2.35479,-0.361669 3.264301,0 l 5.863869,2.331784 c 0.734994,0.292273 0.904211,1.371327 0,1.74605 l -5.863869,2.430098 c -0.904211,0.374723 -2.360089,0.374723 -3.2643,0 L 8.5076133,16.351739 C 7.6034023,15.977017 7.7824834,14.977594 8.409298,14.720391 Z"
       style="fill:#000000;fill-opacity:1;stroke:#000000;stroke-width:0;stroke-linecap:round;stroke-linejoin:round;stroke-miterlimit:4;stroke-dasharray:none;stroke-opacity:0.0941176" />
    <rect
       style="fill:#ffffff;fill-opacity:0.986364;stroke:#000000;stroke-width:0;stroke-linecap:round;stroke-linejoin:round;stroke-miterlimit:4;stroke-dasharray:none;stroke-opacity:0.0941176"
       id="rect854"
       width="9.8063469"
       height="9.8063469"
       x="-16.353376"
       y="23.866375"
       rx="1.7534111"
       ry="1.7534111"
       transform="matrix(0.92381239,-0.38284548,0.92381239,0.38284548,0,0)" />
    <rect
       transform="matrix(0.92381239,-0.38284548,0.92381239,0.38284548,0,0)"
       ry="1.7534111"
       rx="1.7534111"
       y="23.681747"
       x="-16.168747"
       height="9.8063469"
       width="9.8063469"
       id="rect844"
       style="fill:#d3dae3;fill-opacity:1;stroke:#000000;stroke-width:0;stroke-linecap:round;stroke-linejoin:round;stroke-miterlimit:4;stroke-dasharray:none;stroke-opacity:0.0941176" />
    <path
       style="fill:url(#linearGradient1040);fill-opacity:1;stroke:#000000;stroke-width:0;stroke-linecap:round;stroke-linejoin:round;stroke-miterlimit:4;stroke-dasharray:none;stroke-opacity:0.0941176"
       d="m 15.098709,11.042957 h 1.802444 v 4.612621 c 0,0.08192 0.0039,0.137911 -0.04593,0.180055 -0.435866,0.359742 -1.271469,0.337428 -1.674561,0.03163 -0.08592,-0.05451 -0.08195,-0.09689 -0.08195,-0.195299 z"
       id="rect1012"
       inkscape:connector-curvature="0"
       sodipodi:nodetypes="ccccccc" />
    <path
       sodipodi:nodetypes="ccccccc"
       inkscape:connector-curvature="0"
       id="path1048"
       d="m 15.098709,11.042957 h 1.802444 v 4.612621 c 0,0.08192 0.0039,0.137911 -0.04593,0.180055 -0.435866,0.359742 -1.271469,0.337428 -1.674561,0.03163 -0.08592,-0.05451 -0.08195,-0.09689 -0.08195,-0.195299 z"
       style="fill:#333333;fill-opacity:1;stroke:#000000;stroke-width:0;stroke-linecap:round;stroke-linejoin:round;stroke-miterlimit:4;stroke-dasharray:none;stroke-opacity:0.0941176" />
    <circle
       style="fill:url(#radialGradient982);fill-opacity:1;stroke:#000000;stroke-width:0;stroke-linecap:round;stroke-linejoin:round;stroke-miterlimit:4;stroke-dasharray:none;stroke-opacity:0.0941176"
       id="path974"
       cx="15.999952"
       cy="9.5143204"
       r="2.2883453" />
    <circle
       r="2.2883453"
       cy="9.5143204"
       cx="15.999952"
       id="circle994"
       style="fill:#d3dae3;fill-opacity:1;stroke:#000000;stroke-width:0;stroke-linecap:round;stroke-linejoin:round;stroke-miterlimit:4;stroke-dasharray:none;stroke-opacity:0.0941176" />
    <ellipse
       ry="0.51560181"
       rx="1.2223819"
       cy="15.158524"
       cx="10.952127"
       id="path1084"
       style="fill:#000000;fill-opacity:1;stroke:#000000;stroke-width:0;stroke-linecap:round;stroke-linejoin:round;stroke-miterlimit:4;stroke-dasharray:none;stroke-opacity:0.0941176" />
    <ellipse
       style="fill:#28323e;fill-opacity:1;stroke:#000000;stroke-width:0;stroke-linecap:round;stroke-linejoin:round;stroke-miterlimit:4;stroke-dasharray:none;stroke-opacity:0.0941176"
       id="ellipse1096"
       cx="10.952127"
       cy="15.129558"
       rx="1.0953203"
       ry="0.45640603" />
  </g>
  <g
     id="22-22-lutris"
     transform="translate(31.999853,10)">
    <rect
       style="fill:none;fill-opacity:1;stroke:none;stroke-width:0.1;stroke-linecap:square;stroke-linejoin:miter;stroke-miterlimit:4;stroke-dasharray:none;stroke-dashoffset:0;stroke-opacity:1"
       id="rect4148"
       width="22"
       height="22"
       x="1.3415527e-07"
       y="0" />
    <path
       inkscape:connector-curvature="0"
       id="path9068-9-37-8-0-1-0-1-3-7-4-6-1"
       d="m 19.474655,2.604474 -17.118508,5e-6 v 14.790996 h 17.288 z"
       style="display:inline;overflow:visible;visibility:visible;opacity:0.6;fill:url(#linearGradient6958);fill-opacity:1.0;fill-rule:nonzero;stroke:none;stroke-width:0.55969;marker:none"
       sodipodi:nodetypes="cccccc" />
    <path
       d="M 16.803157,0.999975 H 5.196887 c -1.11265,0.0015 -2.17946,0.443813 -2.96612,1.230647 -0.78685,0.786674 -1.22936,1.853415 -1.23062,2.966076 v 11.60671 -1.58e-4 c 8.6e-4,1.11263 0.44377,2.179402 1.23062,2.96608 0.78666,0.786834 1.85347,1.229354 2.96612,1.230645 h 11.6067 -1.9e-4 c 1.11265,-0.0012 2.17946,-0.443811 2.96611,-1.230645 0.78686,-0.786678 1.22937,-1.85345 1.23063,-2.96608 V 5.196921 c -0.002,-1.112635 -0.44377,-2.179402 -1.23063,-2.96608 -0.78665,-0.786833 -1.85346,-1.229358 -2.96611,-1.230642 z M 5.617147,3 h 10.766 c 0.73924,0.0011 1.43628,-0.113833 1.959,0.409 0.52269,0.52268 0.6571,1.018408 0.658,1.757653 V 17 h -16 V 5.166653 C 3.000997,4.427408 3.135467,3.931716 3.658147,3.409 4.180827,2.886321 4.877927,3.00091 5.617147,3 Z"
       id="path1193-3-0"
       style="fill:#d3dae3;fill-opacity:1;stroke-width:0.0396829"
       sodipodi:nodetypes="ccccccccccccccccccccccccc" />
    <path
       style="fill:#000000;fill-opacity:0.0954546;stroke:#000000;stroke-width:0;stroke-linecap:round;stroke-linejoin:round;stroke-miterlimit:4;stroke-dasharray:none;stroke-opacity:0.0941176"
       d="m 11.032035,10.308014 v 7.4e-5 c -0.496221,0.0025 -0.99242,0.08214 -1.3775899,0.229673 l -5.4747173,1.553311 0.00228,1.296574 c 0.00101,0.322855 0.2186524,0.474239 0.5147311,0.597767 l 4.9577128,2.068432 c 0.3818633,0.159317 0.8810943,0.237629 1.3799393,0.237629 0.498845,0 0.998078,-0.07831 1.37994,-0.237629 l 4.957715,-2.068432 c 0.296077,-0.123528 0.513718,-0.274911 0.514692,-0.597767 l 0.0024,-1.116474 -5.474718,-1.733411 C 12.02117,10.41326 11.533022,10.310532 11.0368,10.308088 v -7.4e-5 c -7.73e-4,3e-6 -0.0015,3.5e-5 -0.0024,3.8e-5 -7.73e-4,-3e-6 -0.0015,-3.5e-5 -0.0024,-3.8e-5 z"
       id="path1025-7"
       inkscape:connector-curvature="0"
       sodipodi:nodetypes="ccsccccsccccsccccc" />
    <path
       sodipodi:nodetypes="ccsccccsccccsccccc"
       inkscape:connector-curvature="0"
       id="path940-4"
       d="m 10.970681,10.077932 v 7.3e-5 c -0.496222,0.0025 -0.9924216,0.08214 -1.3775915,0.229674 l -5.4747165,1.553312 0.00228,1.296573 c 0.00101,0.322856 0.2186515,0.474239 0.514731,0.597767 l 4.9577129,2.068432 c 0.3818632,0.159318 0.8810941,0.23763 1.3799401,0.23763 0.498844,0 0.998076,-0.07831 1.379939,-0.23763 l 4.957715,-2.068432 c 0.296077,-0.123528 0.513716,-0.274911 0.514692,-0.597767 l 0.0024,-1.116474 -5.474718,-1.733411 c -0.393221,-0.124501 -0.881368,-0.227229 -1.37759,-0.229674 v -7.3e-5 c -7.74e-4,3e-6 -0.0015,3.4e-5 -0.0024,3.9e-5 -7.73e-4,-5e-6 -0.0015,-3.6e-5 -0.0024,-3.9e-5 z"
       style="fill:#d3dae3;fill-opacity:1;stroke:#000000;stroke-width:0;stroke-linecap:round;stroke-linejoin:round;stroke-miterlimit:4;stroke-dasharray:none;stroke-opacity:0.0941176" />
    <path
       style="fill:#fff0f3;fill-opacity:0.436364;stroke:#000000;stroke-width:0;stroke-linecap:round;stroke-linejoin:round;stroke-miterlimit:4;stroke-dasharray:none;stroke-opacity:0.0941176"
       d="m 10.970681,8.8639191 v 7.36e-5 c -0.496222,0.00245 -0.9924216,0.082137 -1.3775915,0.2296739 l -5.4747165,1.5533114 0.00228,1.296574 c 0.00101,0.322855 0.2186515,0.474239 0.514731,0.597767 l 4.9577129,2.068431 c 0.3818632,0.159318 0.8810941,0.23763 1.3799401,0.23763 0.498844,0 0.998076,-0.07831 1.379939,-0.23763 l 4.957715,-2.068431 c 0.296077,-0.123528 0.513716,-0.274911 0.514692,-0.597767 l 0.0024,-1.116475 -5.474718,-1.7334096 C 11.959814,8.9691655 11.471667,8.8664369 10.975445,8.8639927 V 8.86392 c -7.74e-4,2.5e-6 -0.0015,3.46e-5 -0.0024,3.8e-5 -7.73e-4,-3.4e-6 -0.0015,-3.55e-5 -0.0024,-3.8e-5 z"
       id="path962-5"
       inkscape:connector-curvature="0"
       sodipodi:nodetypes="ccsccccsccccsccccc" />
    <path
       style="fill:#404040;fill-opacity:1;stroke:#000000;stroke-width:0;stroke-linecap:round;stroke-linejoin:round;stroke-miterlimit:4;stroke-dasharray:none;stroke-opacity:0.0941176"
       d="m 10.970681,8.7756818 v 7.36e-5 c -0.496222,0.00245 -0.9924216,0.082137 -1.3775915,0.2296739 L 4.118373,10.55874 l 0.00228,1.296573 c 0.00101,0.322856 0.2186515,0.47424 0.514731,0.597767 l 4.9577129,2.068432 c 0.3818632,0.159318 0.8810941,0.23763 1.3799401,0.23763 0.498844,0 0.998076,-0.07831 1.379939,-0.23763 l 4.957715,-2.068432 c 0.296077,-0.123527 0.513716,-0.27491 0.514692,-0.597767 l 0.0024,-1.116473 -5.474718,-1.7334107 C 11.959814,8.8809274 11.471667,8.7781988 10.975445,8.7757554 v -7.36e-5 c -7.74e-4,3.4e-6 -0.0015,3.47e-5 -0.0024,3.81e-5 -7.73e-4,-3.4e-6 -0.0015,-3.47e-5 -0.0024,-3.81e-5 z"
       id="path890-2"
       inkscape:connector-curvature="0"
       sodipodi:nodetypes="ccsccccsccccsccccc" />
    <path
       sodipodi:nodetypes="ccccsccccc"
       inkscape:connector-curvature="0"
       id="path936-5"
       d="m 4.118373,10.55874 0.00228,0.321313 c 0.00101,0.322856 0.2186515,0.474239 0.514731,0.597767 l 4.9577129,2.068431 c 0.3818632,0.159318 0.8810941,0.237631 1.3799401,0.237631 0.498844,0 0.998076,-0.07832 1.379939,-0.237631 l 4.957715,-2.068431 c 0.296077,-0.123528 0.513716,-0.274911 0.514692,-0.597767 l 0.0024,-0.141213 z"
       style="fill:#000000;fill-opacity:0.113636;stroke:#000000;stroke-width:0;stroke-linecap:round;stroke-linejoin:round;stroke-miterlimit:4;stroke-dasharray:none;stroke-opacity:0.0941176" />
    <path
       sodipodi:nodetypes="sssssssss"
       inkscape:connector-curvature="0"
       id="rect858-4"
       d="m 4.5553734,10.044764 5.040835,-2.0684248 c 0.7655826,-0.3141446 1.9908996,-0.3057796 2.7598626,0 l 4.957713,1.9714488 c 0.621414,0.247107 0.764482,1.159413 0,1.476229 l -4.957713,2.05457 c -0.764482,0.316817 -1.99538,0.316817 -2.7598617,0 L 4.6384959,11.424017 C 3.8740144,11.107201 4.0254218,10.262221 4.5553734,10.044764 Z"
       style="fill:#000000;fill-opacity:1;stroke:#000000;stroke-width:0;stroke-linecap:round;stroke-linejoin:round;stroke-miterlimit:4;stroke-dasharray:none;stroke-opacity:0.0941176" />
    <rect
       style="fill:#ffffff;fill-opacity:0.986364;stroke:#000000;stroke-width:0;stroke-linecap:round;stroke-linejoin:round;stroke-miterlimit:4;stroke-dasharray:none;stroke-opacity:0.0941176"
       id="rect854-7"
       width="8.2909527"
       height="8.2909527"
       x="-12.073257"
       y="15.660173"
       rx="1.482453"
       ry="1.482453"
       transform="matrix(0.92381239,-0.38284549,0.92381239,0.38284549,0,0)" />
    <rect
       transform="matrix(0.92381239,-0.38284549,0.92381239,0.38284549,0,0)"
       ry="1.482453"
       rx="1.482453"
       y="15.504076"
       x="-11.917159"
       height="8.2909527"
       width="8.2909527"
       id="rect844-4"
       style="fill:#d3dae3;fill-opacity:1;stroke:#000000;stroke-width:0;stroke-linecap:round;stroke-linejoin:round;stroke-miterlimit:4;stroke-dasharray:none;stroke-opacity:0.0941176" />
    <path
       style="fill:url(#linearGradient6904);fill-opacity:1;stroke:#000000;stroke-width:0;stroke-linecap:round;stroke-linejoin:round;stroke-miterlimit:4;stroke-dasharray:none;stroke-opacity:0.0941176"
       d="m 10.211056,6.9356112 h 1.523909 v 3.8998238 c 0,0.06926 0.0033,0.116599 -0.03883,0.15223 -0.368511,0.304151 -1.074987,0.285285 -1.415788,0.02674 -0.07264,-0.04609 -0.06929,-0.08192 -0.06929,-0.165119 z"
       id="rect1012-4"
       inkscape:connector-curvature="0"
       sodipodi:nodetypes="ccccccc" />
    <path
       sodipodi:nodetypes="ccccccc"
       inkscape:connector-curvature="0"
       id="path1048-3"
       d="m 10.211056,6.9356112 h 1.523909 v 3.8998238 c 0,0.06926 0.0033,0.116599 -0.03883,0.15223 -0.368511,0.304151 -1.074987,0.285285 -1.415788,0.02674 -0.07264,-0.04609 -0.06929,-0.08192 -0.06929,-0.165119 z"
       style="fill:#333333;fill-opacity:1;stroke:#000000;stroke-width:0;stroke-linecap:round;stroke-linejoin:round;stroke-miterlimit:4;stroke-dasharray:none;stroke-opacity:0.0941176" />
    <circle
       style="fill:url(#radialGradient982-5);fill-opacity:1;stroke:#000000;stroke-width:0;stroke-linecap:round;stroke-linejoin:round;stroke-miterlimit:4;stroke-dasharray:none;stroke-opacity:0.0941176"
       id="path974-0"
       cx="10.973029"
       cy="5.643198"
       r="1.9347228" />
    <circle
       r="1.9347228"
       cy="5.643198"
       cx="10.973029"
       id="circle994-7"
       style="fill:#d3dae3;fill-opacity:1;stroke:#000000;stroke-width:0;stroke-linecap:round;stroke-linejoin:round;stroke-miterlimit:4;stroke-dasharray:none;stroke-opacity:0.0941176" />
    <ellipse
       ry="0.43592483"
       rx="1.0334848"
       cy="10.415191"
       cx="6.7052546"
       id="path1084-8"
       style="fill:#000000;fill-opacity:1;stroke:#000000;stroke-width:0;stroke-linecap:round;stroke-linejoin:round;stroke-miterlimit:4;stroke-dasharray:none;stroke-opacity:0.0941176" />
    <ellipse
       style="fill:#28323e;fill-opacity:1;stroke:#000000;stroke-width:0;stroke-linecap:round;stroke-linejoin:round;stroke-miterlimit:4;stroke-dasharray:none;stroke-opacity:0.0941176"
       id="ellipse1096-6"
       cx="6.7052546"
       cy="10.390701"
       rx="0.92605829"
       ry="0.38587669" />
  </g>
</svg>
