<?xml version="1.0" encoding="UTF-8" standalone="no"?>
<svg
   width="32"
   height="32"
   version="1.1"
   id="svg22"
   sodipodi:docname="mail.svg"
   inkscape:version="1.2.2 (b0a8486541, 2022-12-01)"
   xmlns:inkscape="http://www.inkscape.org/namespaces/inkscape"
   xmlns:sodipodi="http://sodipodi.sourceforge.net/DTD/sodipodi-0.dtd"
   xmlns:xlink="http://www.w3.org/1999/xlink"
   xmlns="http://www.w3.org/2000/svg"
   xmlns:svg="http://www.w3.org/2000/svg"
   xmlns:rdf="http://www.w3.org/1999/02/22-rdf-syntax-ns#"
   xmlns:cc="http://creativecommons.org/ns#"
   xmlns:dc="http://purl.org/dc/elements/1.1/">
  <g
     id="22-22-mail-unread-new"
     transform="translate(32,10)">
    <rect
       style="opacity:0.00100002"
       width="22"
       height="22"
       x="0"
       y="4.7683716e-07"
       id="rect2" />
    <path
       inkscape:connector-curvature="0"
       id="path9068-9-37-8-0-1-7-3"
       d="m 19.499877,2.6 h -17.3 v 16 h 17.3 z"
       style="display:inline;overflow:visible;visibility:visible;opacity:0.6;fill:url(#linearGradient5843-4);fill-opacity:1.0;fill-rule:nonzero;stroke:none;stroke-width:0.593268;marker:none"
       sodipodi:nodetypes="ccccc" />
    <path
       d="m 12.894901,11.158219 c -0.105095,0.263255 -0.158168,0.473459 -0.158168,0.631627 0,0.210204 0.105095,0.421421 0.315306,0.421421 0.894897,0 1.894895,-1.631623 1.894895,-2.946928 0,-1.946948 -1.736729,-3.263269 -3.684691,-3.263269 -2.367344,-0.106117 -4.209182,1.893878 -4.209182,4.052045 0,2.263254 1.841838,4.05305 4.263266,4.05305 1.315305,0 2.684691,-0.684691 3.368369,-1.473454 h 1.053068 c -0.89593,1.47244 -2.632661,2.367339 -4.527559,2.367339 C 8.315309,15.00005 6,12.84188 6,9.946984 6,7.210253 8.368368,5.00005 11.210205,5.00005 13.841834,5.00005 16,6.736782 16,9.105152 c 0,2.315303 -1.999999,3.84183 -3.158164,3.84183 -0.631631,0 -1,-0.315304 -1.053055,-0.894899 h -0.05306 c -0.421427,0.42144 -0.841835,0.894899 -1.684695,0.894899 -1.210205,0 -1.999999,-0.946932 -1.999999,-2.105101 0.05307,-1.789794 1.315305,-3.73673 3.263268,-3.73673 0.63163,0 1.315306,0.315306 1.578576,1.053065 h 0.05305 l 0.263268,-0.841845 h 0.8949 z M 11.315308,8.105151 c -1.210205,0 -2.105104,1.526529 -2.105104,2.684696 0,0.789797 0.473474,1.210203 1.158168,1.210203 1.053057,0 2,-1.631629 2,-2.736732 -0.05306,-0.684695 -0.36837,-1.158167 -1.053064,-1.158167 z"
       id="path4-3-5-2-6"
       style="fill:#de87cd;fill-opacity:1;stroke-width:0.010204" />
    <path
       d="M 16.803012,1 H 5.196742 C 4.084092,1.0015 3.017281,1.44383 2.230622,2.230652 1.443769,3.017322 1.001262,4.084056 1,5.196749 V 16.803451 16.8033 c 8.62e-4,1.112617 0.443769,2.179389 1.230622,2.96606 0.786659,0.786822 1.85347,1.229367 2.96612,1.230652 h 11.606699 -1.89e-4 c 1.11265,-0.0012 2.17946,-0.44383 2.966109,-1.230652 0.786861,-0.786671 1.229371,-1.853443 1.230631,-2.96606 V 5.196976 C 20.997992,4.084321 20.556222,3.017549 19.769361,2.230878 18.982712,1.444056 17.915902,1.001512 16.803252,1.000226 Z M 5.617003,3.00005 h 10.765998 c 0.73924,0.0011 1.43628,-0.113764 1.959,0.408983 0.522691,0.52267 0.6571,1.018431 0.658001,1.757669 V 17.000025 H 3.000001 V 5.166702 C 3.000853,4.427464 3.135309,3.931741 3.658002,3.409033 4.18068,2.886362 4.877781,3.000957 5.617003,3.00005 Z"
       id="path1193-3-3-9-1"
       style="fill:#d3dae3;fill-opacity:1;stroke-width:0.0396828"
       sodipodi:nodetypes="ccccccccccccccccccccccccc" />
  </g>
  <g
     id="22-22-mail-unread"
     transform="translate(32,42)">
    <rect
       style="opacity:0.00100002"
       width="22"
       height="22"
       x="0"
       y="0"
       id="rect2-6" />
    <path
       inkscape:connector-curvature="0"
       id="path9068-9-37-8-0-1-7"
       d="M 19.5,2.6 H 2.2 v 16 h 17.3 z"
       style="display:inline;overflow:visible;visibility:visible;opacity:0.6;fill:url(#linearGradient5843);fill-opacity:1.0;fill-rule:nonzero;stroke:none;stroke-width:0.593268;marker:none"
       sodipodi:nodetypes="ccccc" />
    <path
       d="m 12.895024,11.158219 c -0.105095,0.263255 -0.158168,0.473459 -0.158168,0.631627 0,0.210204 0.105095,0.421421 0.315306,0.421421 0.894897,0 1.894895,-1.631623 1.894895,-2.946928 0,-1.946948 -1.736729,-3.263269 -3.684691,-3.263269 -2.3673435,-0.106117 -4.2091815,1.893878 -4.2091815,4.052045 0,2.263254 1.841838,4.05305 4.2632655,4.05305 1.315305,0 2.684691,-0.684691 3.368369,-1.473454 h 1.053068 c -0.89593,1.47244 -2.632661,2.367339 -4.527559,2.367339 -2.8948965,0 -5.2102045,-2.15817 -5.2102045,-5.053066 0,-2.736731 2.368368,-4.946934 5.2102045,-4.946934 2.631629,0 4.789795,1.736732 4.789795,4.105102 0,2.315303 -1.999999,3.84183 -3.158164,3.84183 -0.631631,0 -1,-0.315304 -1.053055,-0.894899 h -0.05306 c -0.421427,0.42144 -0.841835,0.894899 -1.684695,0.894899 -1.2102045,0 -1.9999985,-0.946932 -1.9999985,-2.105101 0.05307,-1.789794 1.315305,-3.73673 3.2632675,-3.73673 0.63163,0 1.315306,0.315306 1.578576,1.053065 h 0.05305 l 0.263268,-0.841845 h 0.8949 z M 11.315431,8.105151 c -1.210205,0 -2.1051035,1.526529 -2.1051035,2.684696 0,0.789797 0.473473,1.210203 1.1581675,1.210203 1.053057,0 2,-1.631629 2,-2.736732 -0.05306,-0.684695 -0.36837,-1.158167 -1.053064,-1.158167 z"
       id="path4-3-5-2"
       style="fill:#d3dae3;fill-opacity:1;stroke-width:0.010204" />
    <path
       d="M 16.803135,1 H 5.1968655 c -1.112651,0.0015 -2.179461,0.44383 -2.96612,1.230652 -0.786853,0.78667 -1.22936,1.853404 -1.230622,2.966097 V 16.803451 16.8033 c 8.62e-4,1.112617 0.443769,2.179389 1.230622,2.96606 0.786659,0.786822 1.853469,1.229367 2.96612,1.230652 h 11.6066985 -1.89e-4 c 1.11265,-0.0012 2.17946,-0.44383 2.966109,-1.230652 0.786861,-0.786671 1.229371,-1.853443 1.230631,-2.96606 V 5.196976 C 20.998115,4.084321 20.556345,3.017549 19.769484,2.230878 18.982835,1.444056 17.916025,1.001512 16.803375,1.000226 Z M 5.6171265,3.00005 H 16.383124 c 0.73924,0.0011 1.43628,-0.113764 1.959,0.408983 0.522691,0.52267 0.6571,1.018431 0.658001,1.757669 V 17.000025 H 3.0001245 V 5.166702 c 8.51e-4,-0.739238 0.135307,-1.234961 0.658001,-1.757669 0.522678,-0.522671 1.219778,-0.408076 1.959001,-0.408983 z"
       id="path1193-3-3-9"
       style="fill:#d3dae3;fill-opacity:1;stroke-width:0.0396828"
       sodipodi:nodetypes="ccccccccccccccccccccccccc" />
  </g>
  <g
     id="mail-unread"
     transform="translate(0,32)">
    <rect
       style="opacity:0.00100002"
       width="32"
       height="32"
       x="0"
       y="0"
       id="rect7-3" />
    <path
       inkscape:connector-curvature="0"
       id="path9068-9-37-8-0-1"
       d="M 26.55,5.9 5.45,5.9000025 5.55,23.9 h 21 z"
       style="display:inline;overflow:visible;visibility:visible;opacity:0.6;fill:url(#linearGradient5058);fill-opacity:1.0;fill-rule:nonzero;stroke:none;stroke-width:0.657517;marker:none"
       sodipodi:nodetypes="ccccc" />
    <path
       d="m 18.68893,16.121422 c -0.147142,0.368557 -0.221436,0.662839 -0.221436,0.88428 0,0.294284 0.147142,0.589988 0.441427,0.589988 1.252857,0 2.652857,-2.284272 2.652857,-4.125699 0,-2.725732 -2.431422,-4.568583 -5.158574,-4.568583 -3.314274,-0.148564 -5.892841,2.651436 -5.892841,5.672872 0,3.168553 2.578567,5.674269 5.968556,5.674269 1.841428,0 3.758574,-0.95857 4.715727,-2.062837 h 1.474294 c -1.254304,2.061416 -3.685726,3.314274 -6.338584,3.314274 -4.052856,0 -7.294284,-3.021436 -7.294284,-7.074294 0,-3.831422 3.315716,-6.925706 7.294284,-6.925706 3.68428,0 6.705716,2.431419 6.705716,5.747142 0,3.241427 -2.8,5.378564 -4.421436,5.378564 -0.88428,0 -1.4,-0.441431 -1.474269,-1.252857 h -0.07426 c -0.589995,0.590016 -1.178564,1.252857 -2.358572,1.252857 -1.694282,0 -2.799998,-1.325706 -2.799998,-2.947142 0.07429,-2.505716 1.841436,-5.231422 4.568575,-5.231422 0.884279,0 1.841432,0.441427 2.210008,1.474294 h 0.07426 l 0.368581,-1.17859 h 1.252856 z m -2.211432,-4.274294 c -1.694284,0 -2.947141,2.137138 -2.947141,3.758574 0,1.105716 0.66286,1.694284 1.621434,1.694284 1.474274,0 2.800001,-2.284275 2.800001,-3.831422 -0.07427,-0.958571 -0.51572,-1.621436 -1.474294,-1.621436 z"
       id="path4-3-3-6-6"
       style="fill:#d3dae3;fill-opacity:1;stroke-width:0.0142848" />
    <path
       d="M 22.963625,3.999988 H 9.036071 C 7.70089,4.001488 6.420747,4.532561 5.476753,5.476762 4.532567,6.420774 4.001525,7.700863 4,9.036056 v 13.928051 -1.9e-4 c 0.0015,1.335156 0.532567,2.615282 1.476753,3.559294 0.943995,0.944202 2.224137,1.475226 3.559319,1.476775 h 13.928034 -1.94e-4 c 1.335183,-0.0015 2.615324,-0.532573 3.559318,-1.476775 0.944187,-0.944012 1.475232,-2.224138 1.476755,-3.559294 V 9.036321 C 27.998185,7.701165 27.467417,6.421039 26.52323,5.477026 25.579236,4.532824 24.299095,4.001802 22.963911,4.000252 Z M 9.200001,6 h 13.599998 c 0.887095,0.0011 1.603761,0.04384 2.231,0.671244 C 25.658231,7.298456 25.9989,8.112907 26,9 V 23.000012 H 6 V 9 C 6.0011,8.112907 6.341774,7.298494 6.969,6.671244 7.596201,6.044031 8.312916,6.001096 9.200001,6 Z"
       id="path1193-7-1"
       style="fill:#d3dae3;fill-opacity:1;stroke-width:0.047619"
       sodipodi:nodetypes="ccccccccccccccccccccccccc" />
  </g>
  <metadata
     id="metadata28">
    <rdf:RDF>
      <cc:Work
         rdf:about="">
        <dc:format>image/svg+xml</dc:format>
        <dc:type
           rdf:resource="http://purl.org/dc/dcmitype/StillImage" />
      </cc:Work>
    </rdf:RDF>
  </metadata>
  <defs
     id="defs26">
    <linearGradient
       inkscape:collect="always"
       id="linearGradient1019">
      <stop
         style="stop-color:#00ccff;stop-opacity:1"
         offset="0"
         id="stop1015" />
      <stop
         style="stop-color:#5fd3bc;stop-opacity:1"
         offset="1"
         id="stop1017" />
    </linearGradient>
    <linearGradient
       inkscape:collect="always"
       id="linearGradient459">
      <stop
         style="stop-color:#80b3ff;stop-opacity:1"
         offset="0"
         id="stop455" />
      <stop
         style="stop-color:#00ccff;stop-opacity:1"
         offset="1"
         id="stop457" />
    </linearGradient>
    <linearGradient
       inkscape:collect="always"
       xlink:href="#linearGradient459"
       id="linearGradient5058"
       x1="148.9608"
       y1="596.70898"
       x2="148.9608"
       y2="636.01526"
       gradientUnits="userSpaceOnUse"
       gradientTransform="matrix(0.50999969,0,0,0.43250137,-59.319959,-252.02746)" />
    <linearGradient
       inkscape:collect="always"
       xlink:href="#linearGradient459"
       id="linearGradient5843"
       gradientUnits="userSpaceOnUse"
       gradientTransform="matrix(0.44114972,0,0,0.40706011,-53.999013,-240.29643)"
       x1="148.9608"
       y1="596.70898"
       x2="148.9608"
       y2="636.01526" />
    <linearGradient
       inkscape:collect="always"
       xlink:href="#linearGradient1019"
       id="linearGradient5058-3"
       x1="148.9608"
       y1="596.70898"
       x2="148.9608"
       y2="636.01526"
       gradientUnits="userSpaceOnUse"
       gradientTransform="matrix(0.50999969,0,0,0.43250137,-59.319959,-252.02745)" />
    <linearGradient
       inkscape:collect="always"
       xlink:href="#linearGradient1019"
       id="linearGradient5843-4"
       gradientUnits="userSpaceOnUse"
       gradientTransform="matrix(0.44114972,0,0,0.40706011,-53.999136,-240.29643)"
       x1="148.9608"
       y1="596.70898"
       x2="148.9608"
       y2="636.01526" />
  </defs>
  <sodipodi:namedview
     pagecolor="#ffffff"
     bordercolor="#000000"
     borderopacity="1"
     objecttolerance="10"
     gridtolerance="10"
     guidetolerance="10"
     inkscape:pageopacity="0"
     inkscape:pageshadow="2"
     inkscape:window-width="1920"
     inkscape:window-height="994"
     id="namedview24"
     showgrid="false"
     inkscape:zoom="8"
     inkscape:cx="23.8125"
     inkscape:cy="26.5625"
     inkscape:window-x="0"
     inkscape:window-y="0"
     inkscape:window-maximized="1"
     inkscape:current-layer="svg22"
     inkscape:document-rotation="0"
     showguides="false"
     inkscape:showpageshadow="true"
     inkscape:lockguides="false"
     inkscape:pagecheckerboard="0"
     inkscape:deskcolor="#d1d1d1">
    <inkscape:grid
       type="xygrid"
       id="grid884"
       originx="0"
       originy="32" />
  </sodipodi:namedview>
  <g
     id="mail-unread-new">
    <rect
       style="opacity:0.00100002"
       width="32"
       height="32"
       x="0"
       y="0"
       id="rect7-5" />
    <path
       inkscape:connector-curvature="0"
       id="path9068-9-37-8-0-1-4"
       d="m 26.55,5.900012 -21.1,2e-6 0.1,17.999998 h 21 z"
       style="display:inline;overflow:visible;visibility:visible;opacity:0.6;fill:url(#linearGradient5058-3);fill-opacity:1;fill-rule:nonzero;stroke:none;stroke-width:0.657517;marker:none"
       sodipodi:nodetypes="ccccc" />
    <path
       d="m 18.68893,16.121434 c -0.147142,0.368557 -0.221436,0.662839 -0.221436,0.88428 0,0.294284 0.147142,0.589988 0.441427,0.589988 1.252857,0 2.652857,-2.284272 2.652857,-4.125699 0,-2.725732 -2.431422,-4.568583 -5.158574,-4.568583 -3.314274,-0.148564 -5.892841,2.651436 -5.892841,5.672872 0,3.168553 2.578567,5.674269 5.968556,5.674269 1.841428,0 3.758574,-0.95857 4.715727,-2.062837 h 1.474294 c -1.254304,2.061416 -3.685726,3.314274 -6.338584,3.314274 -4.052856,0 -7.294284,-3.021436 -7.294284,-7.074294 0,-3.831422 3.315716,-6.925706 7.294284,-6.925706 3.68428,0 6.705716,2.431419 6.705716,5.747142 0,3.241427 -2.8,5.378564 -4.421436,5.378564 -0.88428,0 -1.4,-0.441431 -1.474269,-1.252857 h -0.07426 c -0.589995,0.590016 -1.178564,1.252857 -2.358572,1.252857 -1.694282,0 -2.799998,-1.325706 -2.799998,-2.947142 0.07429,-2.505716 1.841436,-5.231422 4.568575,-5.231422 0.884279,0 1.841432,0.441427 2.210008,1.474294 h 0.07426 l 0.368581,-1.17859 h 1.252856 z M 16.477498,11.84714 c -1.694284,0 -2.947141,2.137138 -2.947141,3.758574 0,1.105716 0.66286,1.694284 1.621434,1.694284 1.474274,0 2.800001,-2.284275 2.800001,-3.831422 -0.07427,-0.958571 -0.51572,-1.621436 -1.474294,-1.621436 z"
       id="path4-3-3-6-6-7"
       style="fill:#de87cd;fill-opacity:1;stroke-width:0.0142848" />
    <path
       d="M 22.963625,4 H 9.036071 C 7.70089,4.0015 6.420747,4.532573 5.476753,5.476774 4.532567,6.420786 4.001525,7.700875 4,9.036068 v 13.928051 -1.9e-4 c 0.0015,1.335156 0.532567,2.615282 1.476753,3.559294 0.943995,0.944202 2.224137,1.475226 3.559319,1.476775 h 13.928034 -1.94e-4 c 1.335183,-0.0015 2.615324,-0.532573 3.559318,-1.476775 0.944187,-0.944012 1.475232,-2.224138 1.476755,-3.559294 V 9.036333 C 27.998185,7.701177 27.467417,6.421051 26.52323,5.477038 25.579236,4.532836 24.299095,4.001814 22.963911,4.000264 Z M 9.200001,6.000012 h 13.599998 c 0.887095,0.0011 1.603761,0.04384 2.231,0.671244 C 25.658231,7.298468 25.9989,8.112919 26,9.000012 V 23.000024 H 6 V 9.000012 C 6.0011,8.112919 6.341774,7.298506 6.969,6.671256 7.596201,6.044043 8.312916,6.001108 9.200001,6.000012 Z"
       id="path1193-7-1-8"
       style="fill:#d3dae3;fill-opacity:1;stroke-width:0.047619"
       sodipodi:nodetypes="ccccccccccccccccccccccccc" />
  </g>
</svg>
