<?xml version="1.0" encoding="UTF-8" standalone="no"?>
<svg
   width="32"
   height="32"
   version="1"
   id="svg12"
   sodipodi:docname="manjaro.svg"
   inkscape:version="1.2.2 (b0a8486541, 2022-12-01)"
   xmlns:inkscape="http://www.inkscape.org/namespaces/inkscape"
   xmlns:sodipodi="http://sodipodi.sourceforge.net/DTD/sodipodi-0.dtd"
   xmlns:xlink="http://www.w3.org/1999/xlink"
   xmlns="http://www.w3.org/2000/svg"
   xmlns:svg="http://www.w3.org/2000/svg"
   xmlns:rdf="http://www.w3.org/1999/02/22-rdf-syntax-ns#"
   xmlns:cc="http://creativecommons.org/ns#"
   xmlns:dc="http://purl.org/dc/elements/1.1/">
  <metadata
     id="metadata18">
    <rdf:RDF>
      <cc:Work
         rdf:about="">
        <dc:format>image/svg+xml</dc:format>
        <dc:type
           rdf:resource="http://purl.org/dc/dcmitype/StillImage" />
      </cc:Work>
    </rdf:RDF>
  </metadata>
  <defs
     id="defs16">
    <linearGradient
       inkscape:collect="always"
       id="linearGradient1007">
      <stop
         style="stop-color:#00aa44;stop-opacity:1"
         offset="0"
         id="stop1003" />
      <stop
         style="stop-color:#37c871;stop-opacity:1"
         offset="1"
         id="stop1005" />
    </linearGradient>
    <linearGradient
       inkscape:collect="always"
       xlink:href="#linearGradient1007"
       id="linearGradient5058"
       x1="148.9608"
       y1="596.70898"
       x2="148.9608"
       y2="636.01526"
       gradientUnits="userSpaceOnUse"
       gradientTransform="matrix(0.17734979,0,0,0.57420181,-18.873428,-338.11626)" />
    <linearGradient
       inkscape:collect="always"
       xlink:href="#linearGradient1007"
       id="linearGradient5058-5"
       x1="148.9608"
       y1="596.70898"
       x2="148.9608"
       y2="636.01526"
       gradientUnits="userSpaceOnUse"
       gradientTransform="matrix(0.50999969,0,0,0.34623144,-50.672507,-193.30555)" />
    <linearGradient
       inkscape:collect="always"
       xlink:href="#linearGradient1007"
       id="linearGradient3845"
       gradientUnits="userSpaceOnUse"
       gradientTransform="matrix(0.15484979,0,0,0.57420181,2.6750692,-337.91626)"
       x1="148.9608"
       y1="596.70898"
       x2="148.9608"
       y2="636.01526" />
    <linearGradient
       inkscape:collect="always"
       xlink:href="#linearGradient1007"
       id="linearGradient4853"
       gradientUnits="userSpaceOnUse"
       gradientTransform="matrix(0.14408776,0,0,0.43703671,-17.120284,-258.62)"
       x1="148.9608"
       y1="596.70898"
       x2="148.9608"
       y2="636.01526" />
    <linearGradient
       inkscape:collect="always"
       xlink:href="#linearGradient1007"
       id="linearGradient4949"
       gradientUnits="userSpaceOnUse"
       gradientTransform="matrix(0.50999969,0,0,0.27461266,-56.072058,-154.75308)"
       x1="148.9608"
       y1="596.70898"
       x2="148.9608"
       y2="636.01526" />
    <linearGradient
       inkscape:collect="always"
       xlink:href="#linearGradient1007"
       id="linearGradient5045"
       gradientUnits="userSpaceOnUse"
       gradientTransform="matrix(0.10049253,0,0,0.46210145,4.237443,-274.06384)"
       x1="148.9608"
       y1="596.70898"
       x2="148.9608"
       y2="636.01526" />
  </defs>
  <sodipodi:namedview
     pagecolor="#ffffff"
     bordercolor="#000000"
     borderopacity="1"
     objecttolerance="10"
     gridtolerance="10"
     guidetolerance="10"
     inkscape:pageopacity="0"
     inkscape:pageshadow="2"
     inkscape:window-width="1920"
     inkscape:window-height="994"
     id="namedview14"
     showgrid="false"
     inkscape:zoom="11.313708"
     inkscape:cx="-15.158602"
     inkscape:cy="19.843185"
     inkscape:window-x="0"
     inkscape:window-y="0"
     inkscape:window-maximized="1"
     inkscape:current-layer="svg12"
     inkscape:document-rotation="0"
     inkscape:lockguides="false"
     inkscape:showpageshadow="true"
     inkscape:pagecheckerboard="0"
     inkscape:deskcolor="#d1d1d1">
    <inkscape:grid
       type="xygrid"
       id="grid425"
       originx="-34"
       originy="9.9999998" />
  </sodipodi:namedview>
  <g
     id="manjaro-settings-manager">
    <rect
       style="opacity:0.00100002"
       width="32"
       height="32"
       x="4.494629e-07"
       y="6.0302739e-08"
       id="rect7" />
    <path
       inkscape:connector-curvature="0"
       id="path9068-9-37-8-0-1"
       d="M 10.674448,4.316 3.65,4.3160051 V 27.284 h 7.094 L 10.9,9.9999999 h 7.3 V 4.3 Z"
       style="display:inline;overflow:visible;visibility:visible;opacity:0.6;fill:url(#linearGradient5058);fill-opacity:1.0;fill-rule:nonzero;stroke:none;stroke-width:0.446765;marker:none"
       sodipodi:nodetypes="cccccccc" />
    <path
       inkscape:connector-curvature="0"
       id="path9068-9-37-8-0-1-6"
       d="m 18.902548,13.378 h -5 l 0.194904,13.645 4.805096,-0.03594 z"
       style="display:inline;overflow:visible;visibility:visible;opacity:0.6;fill:url(#linearGradient5058-5);fill-opacity:1.0;fill-rule:nonzero;stroke:none;stroke-width:0.588298;marker:none"
       sodipodi:nodetypes="ccccc" />
    <path
       inkscape:connector-curvature="0"
       id="path9068-9-37-8-0-1-9"
       d="M 28.474268,4.5159999 22.341,4.516005 V 27.484 h 6.194 z"
       style="display:inline;overflow:visible;visibility:visible;opacity:0.6;fill:url(#linearGradient3845);fill-opacity:1.0;fill-rule:nonzero;stroke:none;stroke-width:0.417463;marker:none"
       sodipodi:nodetypes="cccccc" />
    <path
       style="fill:#d3dae3;fill-opacity:1;stroke-width:1.0198"
       d="M 4.338593,4 C 3.597817,4 3,4.574824 3,5.287109 V 26.712891 C 3,27.425177 3.339,28 4.339,28 H 11 V 11 h 9 V 4 Z M 22,4 v 24 h 5.661411 C 28.402188,28 29,27.425177 29,26.712891 V 5.287109 C 29,4.574824 28.402188,4 27.661411,4 Z M 4.9999996,6 H 18 v 3 l -8,-2e-7 H 9 L 8.9999996,26 h -4 V 26 26 7 Z M 24,6 h 3 c 0,0 0,-0.174278 0,0 v 20 0 h -3 z m -11,7 v 15 h 7 V 13 Z m 2,2 h 3 v 11 h -3 z"
       id="path9-36"
       sodipodi:nodetypes="ssscccccsccssssccccccccccccccssccccccccccccc" />
  </g>
  <g
     id="22-22-manjaro-settings-manager"
     transform="translate(-34,9.9999999)">
    <rect
       style="opacity:0.00100002"
       width="22"
       height="22"
       x="0"
       y="0"
       id="rect2" />
    <path
       inkscape:connector-curvature="0"
       id="path9068-9-37-8-0-1-2"
       d="m 6.885876,2.012178 -5.707012,4e-6 L 1,20 H 6 V 6 h 7 V 2 Z"
       style="display:inline;overflow:visible;visibility:visible;opacity:0.6;fill:url(#linearGradient4853);fill-opacity:1;fill-rule:nonzero;stroke:none;stroke-width:0.351321;marker:none"
       sodipodi:nodetypes="cccccccc" />
    <path
       inkscape:connector-curvature="0"
       id="path9068-9-37-8-0-1-6-8"
       d="M 13,10 H 9 v 10 h 4 z"
       style="display:inline;overflow:visible;visibility:visible;opacity:0.6;fill:url(#linearGradient4949);fill-opacity:1.0;fill-rule:nonzero;stroke:none;stroke-width:0.523931;marker:none"
       sodipodi:nodetypes="ccccc" />
    <path
       inkscape:connector-curvature="0"
       id="path9068-9-37-8-0-1-9-2"
       d="M 20.980293,1.516 17,1.516004 V 20 h 4.019707 z"
       style="display:inline;overflow:visible;visibility:visible;opacity:0.6;fill:url(#linearGradient5045);fill-opacity:1.0;fill-rule:nonzero;stroke:none;stroke-width:0.301694;marker:none"
       sodipodi:nodetypes="cccccc" />
    <path
       style="fill:#d3dae3;fill-opacity:1;stroke-width:0.856348"
       d="M 1.132654,0.9999999 C 0.505845,0.9999999 0,1.4790239 0,2.0725889 V 19.92741 C 0,20.520981 0.286848,21 1.133,21 H 7 V 6.9999999 h 7 v -6 z m 14.867346,0 V 21 h 4.867337 C 21.494163,21 22,20.520981 22,19.92741 V 2.0725889 c 0,-0.593565 -0.505837,-1.072589 -1.132663,-1.072589 z m -14,2 h 10 v 2 H 6 l -1,0 V 19 H 2 v 0 0 -15.0000001 z m 16,0 h 2 v 0 V 19 19 h -2 z m -10,6 V 21 h 6 V 8.9999999 Z M 10,11 h 2 v 8 h -2 z"
       id="path9-3-0"
       sodipodi:nodetypes="ssscccccsccsssscccccccccccccccsccccccccccccc" />
  </g>
</svg>
