<?xml version="1.0" encoding="UTF-8" standalone="no"?>
<svg
   width="32"
   height="32"
   version="1.1"
   id="svg122"
   sodipodi:docname="media.svg"
   inkscape:version="1.2.2 (b0a8486541, 2022-12-01)"
   xmlns:inkscape="http://www.inkscape.org/namespaces/inkscape"
   xmlns:sodipodi="http://sodipodi.sourceforge.net/DTD/sodipodi-0.dtd"
   xmlns:xlink="http://www.w3.org/1999/xlink"
   xmlns="http://www.w3.org/2000/svg"
   xmlns:svg="http://www.w3.org/2000/svg">
  <g
     id="22-22-media-record"
     transform="translate(192,-54)">
    <path
       style="opacity:0.00100002"
       d="M 0,0 H 22 V 22 H 0 Z"
       id="path42" />
    <path
       inkscape:connector-curvature="0"
       id="path9068-9-37-8-0-1-0-1-3-7-4-6-1-4"
       d="M 19.47451,2.609 H 2.356 V 17.4 h 17.288 z"
       style="display:inline;overflow:visible;visibility:visible;opacity:0.6;fill:url(#linearGradient6958-2);fill-opacity:1;fill-rule:nonzero;stroke:none;stroke-width:0.55969;marker:none"
       sodipodi:nodetypes="cccccc" />
    <circle
       cx="11"
       cy="10"
       id="circle4-2-8"
       style="fill:#bf616a;fill-opacity:1;stroke-width:0.266667"
       r="4" />
    <path
       d="M 16.803009,0.999922 H 5.196739 c -1.11265,0.0015 -2.17946,0.443813 -2.96612,1.230647 -0.78685,0.786674 -1.22936,1.853415 -1.23062,2.966076 v 11.60671 -1.58e-4 c 8.6e-4,1.11263 0.44377,2.179402 1.23062,2.96608 0.78666,0.786834 1.85347,1.229354 2.96612,1.230645 h 11.6067 -1.9e-4 c 1.11265,-0.0012 2.17946,-0.443811 2.96611,-1.230645 0.78686,-0.786678 1.22937,-1.85345 1.23063,-2.96608 V 5.196868 c -0.002,-1.112635 -0.44377,-2.179402 -1.23063,-2.96608 -0.78665,-0.786833 -1.85346,-1.229358 -2.96611,-1.230642 z M 5.616999,2.999947 h 10.766 c 0.73924,0.0011 1.43628,-0.113833 1.959,0.409 0.52269,0.52268 0.6571,1.018408 0.658,1.757653 v 11.833347 h -16 V 5.1666 c 8.5e-4,-0.739245 0.13532,-1.234937 0.658,-1.757653 0.52268,-0.522679 1.21978,-0.40809 1.959,-0.409 z"
       id="path1193-3-3-2-0-2-3-7-5-9-8"
       style="fill:#d3dae3;fill-opacity:1;stroke-width:0.0396829"
       sodipodi:nodetypes="ccccccccccccccccccccccccc" />
  </g>
  <g
     id="22-22-media-seek-forward"
     transform="translate(128,-54)">
    <path
       style="opacity:0.00100002"
       d="M 0,0 H 22 V 22 H 0 Z"
       id="path27" />
    <path
       inkscape:connector-curvature="0"
       id="path9068-9-37-8-0-1-0-1-3-7-4-6-1-1"
       d="M 19.47451,2.809 H 2.356 V 17.6 h 17.288 z"
       style="display:inline;overflow:visible;visibility:visible;opacity:0.6;fill:url(#linearGradient6958-8);fill-opacity:1.0;fill-rule:nonzero;stroke:none;stroke-width:0.55969;marker:none"
       sodipodi:nodetypes="cccccc" />
    <path
       d="M 15.72502,9.463658 10.988812,6.111365 C 10.578338,5.820831 10.041568,6.133695 10.041568,6.647732 V 8.279178 L 6.947243,6.111365 C 6.536769,5.820831 6,6.133695 6,6.647732 v 6.704586 c 0,0.51402 0.5473,0.8269 0.947243,0.536367 l 3.083796,-2.178987 v 1.64262 c 0,0.51402 0.547299,0.8269 0.947242,0.536367 l 4.736218,-3.352293 c 0.378892,-0.257007 0.378892,-0.815727 0.01054,-1.072734 z"
       id="path2-28-3-9-3"
       style="fill:#d3dae3;fill-opacity:1;stroke-width:0.108447" />
    <path
       d="M 16.80301,1 H 5.19674 C 4.08409,1.0015 3.01728,1.443813 2.23062,2.230647 1.44377,3.017321 1.00126,4.084062 1,5.196723 v 11.60671 -1.58e-4 c 8.6e-4,1.11263 0.44377,2.179402 1.23062,2.96608 C 3.01728,20.556189 4.08409,20.998709 5.19674,21 h 11.6067 -1.9e-4 c 1.11265,-0.0012 2.17946,-0.443811 2.96611,-1.230645 0.78686,-0.786678 1.22937,-1.85345 1.23063,-2.96608 V 5.196946 C 20.99799,4.084311 20.55622,3.017544 19.76936,2.230866 18.98271,1.444033 17.9159,1.001508 16.80325,1.000224 Z M 5.617,3.000025 h 10.766 c 0.73924,0.0011 1.43628,-0.113833 1.959,0.409 0.52269,0.52268 0.6571,1.018408 0.658,1.757653 V 17.000025 H 3 V 5.166678 C 3.00085,4.427433 3.13532,3.931741 3.658,3.409025 4.18068,2.886346 4.87778,3.000935 5.617,3.000025 Z"
       id="path1193-3-3-2-0-2-3-7-9"
       style="fill:#d3dae3;fill-opacity:1;stroke-width:0.0396829"
       sodipodi:nodetypes="ccccccccccccccccccccccccc" />
  </g>
  <g
     id="22-22-media-seek-backward"
     transform="translate(96,-54)">
    <path
       style="opacity:0.00100002"
       d="M 22,0 H 0 v 22 h 22 z"
       id="path32" />
    <path
       inkscape:connector-curvature="0"
       id="path9068-9-37-8-0-1-0-1-3-7-4-6-1-68"
       d="M 19.47451,2.809 H 2.356 V 17.6 h 17.288 z"
       style="display:inline;overflow:visible;visibility:visible;opacity:0.6;fill:url(#linearGradient6958-0);fill-opacity:1;fill-rule:nonzero;stroke:none;stroke-width:0.55969;marker:none"
       sodipodi:nodetypes="cccccc" />
    <path
       d="m 6.275267,10.536367 4.741202,3.352296 c 0.410904,0.290532 0.94824,-0.02235 0.94824,-0.536367 v -1.642625 l 3.087049,2.178992 C 15.462662,14.179195 16,13.866313 16,13.352296 V 6.647704 C 16,6.133686 15.452126,5.820804 15.051758,6.111337 L 11.975245,8.290329 V 6.647704 c 0,-0.514018 -0.547872,-0.8269 -0.94824,-0.536367 L 6.285803,9.463633 c -0.379296,0.257009 -0.379296,0.815725 -0.01054,1.072734 z"
       id="path2-59-2-5"
       style="fill:#d3dae3;fill-opacity:1;stroke-width:0.108505" />
    <path
       d="M 16.80301,1 H 5.19674 C 4.08409,1.0015 3.01728,1.443813 2.23062,2.230647 1.44377,3.017321 1.00126,4.084062 1,5.196723 v 11.60671 -1.58e-4 c 8.6e-4,1.11263 0.44377,2.179402 1.23062,2.96608 C 3.01728,20.556189 4.08409,20.998709 5.19674,21 h 11.6067 -1.9e-4 c 1.11265,-0.0012 2.17946,-0.443811 2.96611,-1.230645 0.78686,-0.786678 1.22937,-1.85345 1.23063,-2.96608 V 5.196946 C 20.99799,4.084311 20.55622,3.017544 19.76936,2.230866 18.98271,1.444033 17.9159,1.001508 16.80325,1.000224 Z M 5.617,3.000025 h 10.766 c 0.73924,0.0011 1.43628,-0.113833 1.959,0.409 0.52269,0.52268 0.6571,1.018408 0.658,1.757653 V 17.000025 H 3 V 5.166678 C 3.00085,4.427433 3.13532,3.931741 3.658,3.409025 4.18068,2.886346 4.87778,3.000935 5.617,3.000025 Z"
       id="path1193-3-3-2-0-2-3-6"
       style="fill:#d3dae3;fill-opacity:1;stroke-width:0.0396829"
       sodipodi:nodetypes="ccccccccccccccccccccccccc" />
  </g>
  <g
     id="22-22-media-skip-forward"
     transform="translate(64,-54)">
    <path
       style="opacity:0.00100002"
       d="M 0,0 H 22 V 22 H 0 Z"
       id="path17" />
    <path
       inkscape:connector-curvature="0"
       id="path9068-9-37-8-0-1-0-1-3-7-4-6-1-3"
       d="M 19.47451,2.709 H 2.356 V 17.5 h 17.288 z"
       style="display:inline;overflow:visible;visibility:visible;opacity:0.6;fill:url(#linearGradient6958-47);fill-opacity:1.0;fill-rule:nonzero;stroke:none;stroke-width:0.55969;marker:none"
       sodipodi:nodetypes="cccccc" />
    <path
       d="m 7.064272,13.888357 5.289789,-3.347194 c 0.410957,-0.26056 0.410957,-0.821766 0,-1.082326 L 7.064272,6.111643 C 6.61117,5.821019 6,6.131686 6,6.652806 v 6.694388 c 0,0.52112 0.61117,0.831787 1.064272,0.541163 z"
       id="path2-23-6-6"
       style="fill:#d3dae3;fill-opacity:1;stroke-width:0.102762" />
    <path
       d="m 14.177023,13.998594 h 1.485779 C 15.852479,13.998594 16,13.848271 16,13.677904 V 6.322095 C 16,6.141708 15.84193,6.001406 15.662802,6.001406 h -1.485779 c -0.189676,0 -0.337198,0.150323 -0.337198,0.320689 v 7.345788 c 0,0.190409 0.15807,0.330711 0.337198,0.330711 z"
       id="path4-2-7"
       style="fill:#d3dae3;fill-opacity:1;stroke-width:0.102762" />
    <path
       d="M 16.80292,1 H 5.19665 C 4.084,1.0015 3.01719,1.443813 2.23053,2.230647 1.44368,3.017321 1.00117,4.084062 0.99991,5.196723 v 11.60671 -1.58e-4 c 8.6e-4,1.11263 0.44377,2.179402 1.23062,2.96608 C 3.01719,20.556189 4.084,20.998709 5.19665,21 h 11.6067 -1.9e-4 c 1.11265,-0.0012 2.17946,-0.443811 2.96611,-1.230645 0.78686,-0.786678 1.22937,-1.85345 1.23063,-2.96608 V 5.196946 C 20.9979,4.084311 20.55613,3.017544 19.76927,2.230866 18.98262,1.444033 17.91581,1.001508 16.80316,1.000224 Z M 5.61691,3.000025 h 10.766 c 0.73924,0.0011 1.43628,-0.113833 1.959,0.409 0.52269,0.52268 0.6571,1.018408 0.658,1.757653 v 11.833347 h -16 V 5.166678 c 8.5e-4,-0.739245 0.13532,-1.234937 0.658,-1.757653 0.52268,-0.522679 1.21978,-0.40809 1.959,-0.409 z"
       id="path1193-3-3-2-0-2-36"
       style="fill:#d3dae3;fill-opacity:1;stroke-width:0.0396829"
       sodipodi:nodetypes="ccccccccccccccccccccccccc" />
  </g>
  <g
     id="22-22-media-skip-backward"
     transform="translate(32,-54)">
    <path
       style="opacity:0.00100002"
       d="M 22,0 H 0 v 22 h 22 z"
       id="path22" />
    <path
       inkscape:connector-curvature="0"
       id="path9068-9-37-8-0-1-0-1-3-7-4-6-1-5"
       d="M 19.559255,2.8 H 2.440745 v 14.791 h 17.288 z"
       style="display:inline;overflow:visible;visibility:visible;opacity:0.6;fill:url(#linearGradient6958-4);fill-opacity:1.0;fill-rule:nonzero;stroke:none;stroke-width:0.55969;marker:none"
       sodipodi:nodetypes="cccccc" />
    <path
       d="M 14.93684,6.111618 9.652631,9.458812 c -0.410526,0.26056 -0.410526,0.821766 0,1.082326 l 5.284209,3.347194 C 15.389474,14.178956 16,13.868292 16,13.347169 V 6.652781 C 16,6.131661 15.389474,5.820994 14.93684,6.111618 Z"
       id="path2-36-7-9"
       style="fill:#d3dae3;fill-opacity:1;stroke-width:0.102708" />
    <path
       d="M 7.831579,6.001381 H 6.336842 C 6.147369,6.001381 6,6.151704 6,6.322071 v 7.345787 c 0,0.180388 0.157895,0.320689 0.336842,0.320689 h 1.48421 c 0.189474,0 0.336842,-0.150323 0.336842,-0.320689 V 6.322071 C 8.168424,6.141683 8.010526,6.001381 7.831579,6.001381 Z"
       id="path4-7-5-7"
       style="fill:#d3dae3;fill-opacity:1;stroke-width:0.102708" />
    <path
       d="M 16.80301,0.999975 H 5.19674 C 4.08409,1.001475 3.01728,1.443788 2.23062,2.230622 1.44377,3.017296 1.00126,4.084037 1,5.196698 v 11.60671 -1.58e-4 c 8.6e-4,1.11263 0.44377,2.179402 1.23062,2.96608 0.78666,0.786834 1.85347,1.229354 2.96612,1.230645 h 11.6067 -1.9e-4 c 1.11265,-0.0012 2.17946,-0.443811 2.96611,-1.230645 0.78686,-0.786678 1.22937,-1.85345 1.23063,-2.96608 V 5.196921 C 20.99799,4.084286 20.55622,3.017519 19.76936,2.230841 18.98271,1.444008 17.9159,1.001483 16.80325,1.000199 Z M 5.617,3 h 10.766 c 0.73924,0.0011 1.43628,-0.113833 1.959,0.409 0.52269,0.52268 0.6571,1.018408 0.658,1.757653 V 17 H 3 V 5.166653 C 3.00085,4.427408 3.13532,3.931716 3.658,3.409 4.18068,2.886321 4.87778,3.00091 5.617,3 Z"
       id="path1193-3-3-2-0-7"
       style="fill:#d3dae3;fill-opacity:1;stroke-width:0.0396829"
       sodipodi:nodetypes="ccccccccccccccccccccccccc" />
  </g>
  <g
     id="22-22-media-playback-stop"
     transform="translate(0,-54)">
    <path
       style="opacity:0.00100002"
       d="M 0,0 H 22 V 22 H 0 Z"
       id="path7" />
    <path
       inkscape:connector-curvature="0"
       id="path9068-9-37-8-0-1-0-1-3-7-4-6-1-7"
       d="M 19.474508,2.709 H 2.356 V 17.5 h 17.288 z"
       style="display:inline;overflow:visible;visibility:visible;opacity:0.6;fill:url(#linearGradient6958-56);fill-opacity:1;fill-rule:nonzero;stroke:none;stroke-width:0.55969;marker:none"
       sodipodi:nodetypes="cccccc" />
    <path
       d="M 14.351579,6 H 7.648421 C 7.294737,6 7,6.294737 7,6.648421 v 6.703158 C 7,13.713684 7.294737,14 7.648421,14 h 6.703158 C 14.713684,14 15,13.705263 15,13.351579 V 6.648421 C 15,6.294737 14.705263,6 14.351579,6 Z"
       id="path2-2-3-1"
       style="fill:#d3dae3;fill-opacity:1;stroke-width:0.0842107" />
    <path
       d="M 16.80301,0.999975 H 5.19674 C 4.08409,1.001475 3.01728,1.443788 2.23062,2.230622 1.44377,3.017296 1.00126,4.084037 1,5.196698 v 11.60671 -1.58e-4 c 8.6e-4,1.11263 0.44377,2.179402 1.23062,2.96608 0.78666,0.786834 1.85347,1.229354 2.96612,1.230645 h 11.6067 -1.9e-4 c 1.11265,-0.0012 2.17946,-0.443811 2.96611,-1.230645 0.78686,-0.786678 1.22937,-1.85345 1.23063,-2.96608 V 5.196921 C 20.99799,4.084286 20.55622,3.017519 19.76936,2.230841 18.98271,1.444008 17.9159,1.001483 16.80325,1.000199 Z M 5.617,3 h 10.766 c 0.73924,0.0011 1.43628,-0.113833 1.959,0.409 0.52269,0.52268 0.6571,1.018408 0.658,1.757653 V 17 H 3 V 5.166653 C 3.00085,4.427408 3.13532,3.931716 3.658,3.409 4.18068,2.886321 4.87778,3.00091 5.617,3 Z"
       id="path1193-3-3-2-5"
       style="fill:#d3dae3;fill-opacity:1;stroke-width:0.0396829"
       sodipodi:nodetypes="ccccccccccccccccccccccccc" />
  </g>
  <g
     id="22-22-media-playback-start"
     transform="translate(-64,-54)">
    <path
       style="opacity:0.00100002"
       d="M 0,0 H 22 V 22 H 0 Z"
       id="path2" />
    <path
       inkscape:connector-curvature="0"
       id="path9068-9-37-8-0-1-0-1-3-7-4-6-1"
       d="M 19.274508,2.709 H 2.156 V 17.5 h 17.288 z"
       style="display:inline;overflow:visible;visibility:visible;opacity:0.6;fill:url(#linearGradient6958);fill-opacity:1.0;fill-rule:nonzero;stroke:none;stroke-width:0.55969;marker:none"
       sodipodi:nodetypes="cccccc" />
    <path
       d="M 14.413386,9.39709 8.447288,5.622788 C 7.938479,5.300361 7.25009,5.651238 7.25009,6.229711 v 7.539121 c 0,0.587959 0.688389,0.929348 1.197198,0.606926 l 5.966098,-3.774303 c 0.448939,-0.275015 0.448939,-0.91987 0,-1.204365 z"
       id="path2-3-1-9"
       style="fill:#d3dae3;fill-opacity:1;stroke-width:0.0972671" />
    <path
       d="M 16.80301,1 H 5.19674 C 4.08409,1.0015 3.01728,1.443813 2.23062,2.230647 1.44377,3.017321 1.00126,4.084062 1,5.196723 v 11.606711 -1.58e-4 c 8.6e-4,1.112629 0.44377,2.1794 1.23062,2.966078 0.78666,0.786834 1.85347,1.229354 2.96612,1.230645 h 11.6067 -1.9e-4 c 1.11265,-0.0012 2.17946,-0.443811 2.96611,-1.230645 0.78686,-0.786678 1.22937,-1.853449 1.23063,-2.966078 V 5.196946 C 20.99799,4.084311 20.55622,3.017544 19.76936,2.230866 18.98271,1.444033 17.9159,1.001508 16.80325,1.000224 Z M 5.617,3.000025 h 10.766 c 0.73924,0.0011 1.43628,-0.113833 1.959,0.409 0.52269,0.52268 0.6571,1.018408 0.658,1.757653 V 17.000026 H 3 V 5.166678 C 3.00085,4.427433 3.13532,3.931741 3.658,3.409025 4.18068,2.886346 4.87778,3.000935 5.617,3.000025 Z"
       id="path1193-3-3-0-1"
       style="fill:#d3dae3;fill-opacity:1;stroke-width:0.0396829"
       sodipodi:nodetypes="ccccccccccccccccccccccccc" />
  </g>
  <g
     id="22-22-media-playback-stopped"
     transform="translate(0,32.000001)">
    <path
       style="opacity:0.00100002"
       d="M 0,0 H 22 V 22 H 0 Z"
       id="path52" />
    <path
       inkscape:connector-curvature="0"
       id="path9068-9-37-8-0-1-0-1-3-7-4-6-1-10"
       d="m 19.559254,2.6 -17.118508,5e-6 v 14.790996 h 17.288 z"
       style="display:inline;overflow:visible;visibility:visible;opacity:0.6;fill:url(#linearGradient6958-72);fill-opacity:1;fill-rule:nonzero;stroke:none;stroke-width:0.55969;marker:none"
       sodipodi:nodetypes="cccccc" />
    <path
       d="M 14.351579,5.999999 H 7.648421 C 7.294737,5.999999 7,6.294736 7,6.64842 v 6.703158 c 0,0.362105 0.294737,0.648421 0.648421,0.648421 h 6.703158 C 14.713684,13.999999 15,13.705262 15,13.351578 V 6.64842 C 15,6.294736 14.705263,5.999999 14.351579,5.999999 Z"
       id="path2-2-7-9"
       style="fill:#d3dae3;fill-opacity:1;stroke-width:0.0842107" />
    <path
       d="M 16.80301,0.999973 H 5.19674 C 4.08409,1.001473 3.01728,1.443786 2.23062,2.23062 1.44377,3.017294 1.00126,4.084035 1,5.196696 v 11.60671 -1.58e-4 c 8.6e-4,1.11263 0.44377,2.179402 1.23062,2.96608 0.78666,0.786834 1.85347,1.229354 2.96612,1.230645 h 11.6067 -1.9e-4 c 1.11265,-0.0012 2.17946,-0.443811 2.96611,-1.230645 0.78686,-0.786678 1.22937,-1.85345 1.23063,-2.96608 V 5.196919 C 20.99799,4.084284 20.55622,3.017517 19.76936,2.230839 18.98271,1.444006 17.9159,1.001481 16.80325,1.000197 Z M 5.617,2.999998 h 10.766 c 0.73924,0.0011 1.43628,-0.113833 1.959,0.409 0.52269,0.52268 0.6571,1.018408 0.658,1.757653 V 16.999998 H 3 V 5.166651 C 3.00085,4.427406 3.13532,3.931714 3.658,3.408998 4.18068,2.886319 4.87778,3.000908 5.617,2.999998 Z"
       id="path1193-3-3-5-7-0"
       style="fill:#d3dae3;fill-opacity:1;stroke-width:0.0396829"
       sodipodi:nodetypes="ccccccccccccccccccccccccc" />
  </g>
  <g
     id="22-22-media-playback-paused"
     transform="translate(-32,32.000001)">
    <path
       style="opacity:0.00100002"
       d="M 0,0 H 22 V 22 H 0 Z"
       id="path57" />
    <path
       inkscape:connector-curvature="0"
       id="path9068-9-37-8-0-1-0-1-3-7-4-6-1-2"
       d="m 19.559254,2.7 -17.118508,5e-6 v 14.790996 h 17.288 z"
       style="display:inline;overflow:visible;visibility:visible;opacity:0.6;fill:url(#linearGradient6958-7);fill-opacity:1;fill-rule:nonzero;stroke:none;stroke-width:0.55969;marker:none"
       sodipodi:nodetypes="cccccc" />
    <path
       d="M 9.584461,6.000026 H 7.384707 C 7.177559,6.000026 7,6.143033 7,6.328102 v 7.343849 c 0,0.176656 0.167693,0.328077 0.384707,0.328077 h 2.189894 c 0.20715,0 0.384709,-0.143009 0.384709,-0.328077 V 6.328102 c 0,-0.185069 -0.167694,-0.328076 -0.374849,-0.328076 z"
       id="path2-5-7-5-5"
       style="fill:#d3dae3;fill-opacity:1;stroke-width:0.091094" />
    <path
       d="m 14.625146,6.000026 h -2.199754 c -0.207144,0 -0.384698,0.143007 -0.384698,0.328076 v 7.34385 c 0,0.176655 0.167692,0.328076 0.384698,0.328076 h 2.189899 C 14.822446,14.000028 15,13.857019 15,13.671951 V 6.328102 C 15,6.143033 14.832308,6.000026 14.625146,6.000026 Z"
       id="path4-35-0-3-9"
       style="fill:#d3dae3;fill-opacity:1;stroke-width:0.091094" />
    <path
       d="M 16.80301,1 H 5.19674 C 4.08409,1.0015 3.01728,1.443814 2.23062,2.230647 1.44377,3.017321 1.00126,4.084063 1,5.196724 v 11.606709 -1.57e-4 c 8.6e-4,1.11263 0.44377,2.179402 1.23062,2.966079 C 3.01728,20.556189 4.08409,20.998709 5.19674,21 h 11.6067 -1.9e-4 c 1.11265,-0.0012 2.17946,-0.443811 2.96611,-1.230645 0.78686,-0.786677 1.22937,-1.853449 1.23063,-2.966079 V 5.196947 C 20.99799,4.084312 20.55622,3.017544 19.76936,2.230867 18.98271,1.444033 17.9159,1.001508 16.80325,1.000224 Z M 5.617,3.000025 h 10.766 c 0.73924,0.0011 1.43628,-0.113833 1.959,0.409001 0.52269,0.522679 0.6571,1.018408 0.658,1.757653 V 17.000024 H 3 V 5.166679 C 3.00085,4.427434 3.13532,3.931741 3.658,3.409025 4.18068,2.886346 4.87778,3.000936 5.617,3.000025 Z"
       id="path1193-3-3-5-4"
       style="fill:#d3dae3;fill-opacity:1;stroke-width:0.0396829"
       sodipodi:nodetypes="ccccccccccccccccccccccccc" />
  </g>
  <g
     id="media-record"
     transform="translate(192,-32)">
    <path
       style="opacity:0.00100002"
       d="M 0,0 H 32.000001 V 32.000001 H 0 Z"
       id="path92" />
    <path
       inkscape:connector-curvature="0"
       id="path9068-9-37-8-0-1-1-7-2-1-3-8-2-7-6"
       d="m 26,6 -20.2,5e-6 v 17.099994 h 20.4 z"
       style="display:inline;overflow:visible;visibility:visible;opacity:0.6;fill:url(#linearGradient6457);fill-opacity:1.0;fill-rule:nonzero;stroke:none;stroke-width:0.653705;marker:none"
       sodipodi:nodetypes="cccccc" />
    <circle
       cx="15.999989"
       cy="14.500026"
       r="6"
       id="circle4-1"
       style="fill:#bf616a;fill-opacity:1;stroke-width:0.4" />
    <path
       d="M 22.96363,4 H 9.03607 C 7.70089,4.0015 6.42075,4.532573 5.47675,5.476774 4.53257,6.420788 4.00152,7.700876 4,9.036071 v 13.928049 -1.88e-4 c 0.001,1.335155 0.53257,2.615282 1.47675,3.559294 0.944,0.944201 2.22414,1.475226 3.55932,1.476774 h 13.92804 -2e-4 c 1.33519,-0.0015 2.61533,-0.532573 3.55932,-1.476774 0.94419,-0.944013 1.47523,-2.224139 1.47676,-3.559295 V 9.036335 C 27.99799,7.701177 27.46742,6.421051 26.52323,5.477041 25.57924,4.532837 24.2991,4.001815 22.96391,4.000264 Z M 9.2,6.000014 h 13.6 c 0.88709,0.0011 1.60376,0.04384 2.231,0.671242 0.62723,0.627215 0.9679,1.441663 0.969,2.328758 V 23.000026 H 6 V 9.000014 C 6.001,8.112919 6.34177,7.298507 6.969,6.671256 7.5962,6.044044 8.31292,6.001109 9.2,6.000014 Z"
       id="path1193-3-2-1-6-1-8-7-9-2-0"
       style="fill:#d3dae3;fill-opacity:1;stroke-width:0.047619"
       sodipodi:nodetypes="ccccccccccccccccccccccccc" />
  </g>
  <g
     id="media-eject"
     transform="translate(160,-32)">
    <path
       style="opacity:0.00100002"
       d="M 32.000001,0 H 0 v 32 h 32.000001 z"
       id="path87" />
    <path
       inkscape:connector-curvature="0"
       id="path9068-9-37-8-0-1-1-7-2-1-3-8-2-7"
       d="m 26,6 -20.2,5e-6 v 17.099994 h 20.4 z"
       style="display:inline;overflow:visible;visibility:visible;opacity:0.6;fill:url(#linearGradient5540);fill-opacity:1.0;fill-rule:nonzero;stroke:none;stroke-width:0.653705;marker:none"
       sodipodi:nodetypes="cccccc" />
    <path
       d="M 21.832534,15.210528 16.811743,8.869476 c -0.39084,-0.492632 -1.232648,-0.492632 -1.623488,0 l -5.020791,6.341052 c -0.4359365,0.543158 0.03007,1.275789 0.811745,1.275789 H 21.02079 c 0.78168,0 1.247681,-0.732631 0.811744,-1.275789 z"
       id="path2-36-2-8"
       style="fill:#d3dae3;fill-opacity:1;stroke-width:0.137798" />
    <path
       d="m 10.002109,18.302107 v 1.793684 c 0,0.227368 0.225485,0.404211 0.481034,0.404211 h 11.018681 c 0.270581,0 0.481034,-0.189474 0.481034,-0.404211 v -1.781053 c 0,-0.227368 -0.225485,-0.40421 -0.481034,-0.40421 H 10.483143 c -0.270582,-0.01263 -0.481034,0.176842 -0.481034,0.391579 z"
       id="path4-7-9-4"
       style="fill:#d3dae3;fill-opacity:1;stroke-width:0.137798" />
    <path
       d="M 22.963627,4 H 9.0360685 c -1.33518,0.0015 -2.61532,0.532574 -3.55932,1.476775 -0.94418,0.944014 -1.47523,2.224102 -1.47675,3.559296 v 13.92805 -1.89e-4 c 10e-4,1.335155 0.53257,2.615282 1.47675,3.559295 0.944,0.944201 2.22414,1.475225 3.55932,1.476774 h 13.9280385 -2e-4 c 1.33519,-0.0015 2.61533,-0.532573 3.55932,-1.476775 0.94419,-0.944013 1.47523,-2.224139 1.47676,-3.559295 V 9.036335 c -0.002,-1.335157 -0.53257,-2.615283 -1.47676,-3.559294 -0.94399,-0.944203 -2.22413,-1.475226 -3.55932,-1.476776 z M 9.1999985,6.000014 H 22.799997 c 0.88709,0.0011 1.60376,0.04384 2.231,0.671243 0.62723,0.627214 0.9679,1.441663 0.969,2.328757 V 23.000027 H 5.9999985 V 9.000014 c 10e-4,-0.887094 0.341769,-1.701506 0.969,-2.328757 0.6272,-0.627212 1.34392,-0.670148 2.231,-0.671243 z"
       id="path1193-3-2-1-6-1-8-7-9-5"
       style="fill:#d3dae3;fill-opacity:1;stroke-width:0.047619"
       sodipodi:nodetypes="ccccccccccccccccccccccccc" />
  </g>
  <g
     id="media-seek-backward"
     transform="translate(96,-32)">
    <path
       style="opacity:0.00100002"
       d="M 32.000001,0 H 0 v 32 h 32.000001 z"
       id="path82" />
    <path
       inkscape:connector-curvature="0"
       id="path9068-9-37-8-0-1-1-7-2-1-3-8"
       d="m 26,5.9999975 -20.2,5e-6 V 23.099996 h 20.4 z"
       style="display:inline;overflow:visible;visibility:visible;opacity:0.6;fill:url(#linearGradient4302);fill-opacity:1.0;fill-rule:nonzero;stroke:none;stroke-width:0.653705;marker:none"
       sodipodi:nodetypes="cccccc" />
    <path
       d="m 9.385374,15.304577 6.637677,5.028443 c 0.575267,0.435798 1.327545,-0.03352 1.327545,-0.80455 v -2.463938 l 4.32186,3.268488 C 22.247723,20.768818 23,20.2995 23,19.52847 V 9.471582 C 23,8.700554 22.232973,8.231233 21.672456,8.667031 L 17.365335,11.93552 V 9.471582 c 0,-0.771028 -0.767017,-1.240349 -1.327525,-0.804551 l -6.637685,5.028443 c -0.531016,0.385515 -0.531016,1.223589 -0.014751,1.609103 z"
       id="path2-59-9"
       style="fill:#d3dae3;fill-opacity:1;stroke-width:0.157237" />
    <path
       d="M 22.96363,4 H 9.03607 C 7.70089,4.0015 6.42075,4.532574 5.47675,5.476775 4.53257,6.420788 4.00152,7.700876 4,9.03607 v 13.92805 -1.89e-4 c 0.001,1.335156 0.53257,2.615282 1.47675,3.559295 0.944,0.944201 2.22414,1.475225 3.55932,1.476775 h 13.92804 -2e-4 c 1.33519,-0.0015 2.61533,-0.532574 3.55932,-1.476775 0.94419,-0.944013 1.47523,-2.224139 1.47676,-3.559295 V 9.036334 C 27.99799,7.701178 27.46742,6.421052 26.52323,5.47704 25.57924,4.532838 24.2991,4.001815 22.96391,4.000265 Z M 9.2,6.000013 h 13.6 c 0.88709,0.0011 1.60376,0.04384 2.231,0.671244 C 25.65823,7.29847 25.9989,8.11292 26,9.000013 V 23.000026 H 6 V 9.000013 C 6.001,8.11292 6.34177,7.298508 6.969,6.671257 7.5962,6.044045 8.31292,6.001109 9.2,6.000013 Z"
       id="path1193-3-2-1-6-1-8-73"
       style="fill:#d3dae3;fill-opacity:1;stroke-width:0.047619"
       sodipodi:nodetypes="ccccccccccccccccccccccccc" />
  </g>
  <g
     id="media-skip-forward"
     transform="translate(64,-32)">
    <path
       style="opacity:0.00100002"
       d="M 0,0 H 32.000001 V 32 H 0 Z"
       id="path97" />
    <path
       inkscape:connector-curvature="0"
       id="path9068-9-37-8-0-1-1-7-2-1-3"
       d="m 26,6 -20.2,5e-6 v 17.099994 h 20.4 z"
       style="display:inline;overflow:visible;visibility:visible;opacity:0.6;fill:url(#linearGradient3523);fill-opacity:1;fill-rule:nonzero;stroke:none;stroke-width:0.653705;marker:none"
       sodipodi:nodetypes="cccccc" />
    <path
       d="m 10.518263,20.332535 7.546218,-5.02079 c 0.58626,-0.39084 0.58626,-1.23265 0,-1.62349 L 10.518263,8.667465 C 9.871874,8.231528 9,8.697529 9,9.479209 v 10.041582 c 0,0.78168 0.871874,1.247681 1.518263,0.811744 z"
       id="path2-23-7"
       style="fill:#d3dae3;fill-opacity:1;stroke-width:0.150323" />
    <path
       d="m 20.481034,20.49789 h 2.119555 c 0.270582,0 0.481034,-0.225484 0.481034,-0.481033 V 8.983143 c 0,-0.270581 -0.225485,-0.481034 -0.481034,-0.481034 H 20.481034 C 20.210452,8.502109 20,8.727594 20,8.983143 v 11.018681 c 0,0.285614 0.225485,0.496066 0.481034,0.496066 z"
       id="path4-5"
       style="fill:#d3dae3;fill-opacity:1;stroke-width:0.150323" />
    <path
       d="M 22.96363,4 H 9.03607 C 7.70089,4.0015 6.42075,4.532574 5.47675,5.476775 4.53257,6.420788 4.00152,7.700876 4,9.03607 v 13.92805 -1.89e-4 c 0.001,1.335156 0.53257,2.615282 1.47675,3.559295 0.944,0.944201 2.22414,1.475225 3.55932,1.476775 h 13.92804 -2e-4 c 1.33519,-0.0015 2.61533,-0.532574 3.55932,-1.476775 0.94419,-0.944013 1.47523,-2.224139 1.47676,-3.559295 V 9.036334 C 27.99799,7.701178 27.46742,6.421052 26.52323,5.47704 25.57924,4.532838 24.2991,4.001815 22.96391,4.000265 Z M 9.2,6.000013 h 13.6 c 0.88709,0.0011 1.60376,0.04384 2.231,0.671244 C 25.65823,7.29847 25.9989,8.11292 26,9.000013 V 23.000026 H 6 V 9.000013 C 6.001,8.11292 6.34177,7.298508 6.969,6.671257 7.5962,6.044045 8.31292,6.001109 9.2,6.000013 Z"
       id="path1193-3-2-1-6-1-9"
       style="fill:#d3dae3;fill-opacity:1;stroke-width:0.047619"
       sodipodi:nodetypes="ccccccccccccccccccccccccc" />
  </g>
  <g
     id="media-playback-paused"
     transform="translate(-32)">
    <path
       style="opacity:0.00100002"
       d="M 0,0 H 32.000001 V 32.000001 H 0 Z"
       id="path112" />
    <path
       inkscape:connector-curvature="0"
       id="path9068-9-37-8-0-1-1"
       d="m 26,6 -20.2,4.5e-6 V 23.1 h 20.4 z"
       style="display:inline;overflow:visible;visibility:visible;opacity:0.6;fill:url(#linearGradient5058-6);fill-opacity:1;fill-rule:nonzero;stroke:none;stroke-width:0.653705;marker:none"
       sodipodi:nodetypes="cccccc" />
    <path
       d="m 14.086146,8.499736 h -2.81388 c -0.26498,0 -0.49211,0.214511 -0.49211,0.492114 v 11.015772 c 0,0.264984 0.21451,0.492114 0.49211,0.492114 h 2.80127 c 0.26498,0 0.492111,-0.214512 0.492111,-0.492114 V 8.99185 c 0,-0.277603 -0.214511,-0.492114 -0.479501,-0.492114 z"
       id="path2-5-3-3-8"
       style="fill:#d3dae3;fill-opacity:1;stroke-width:0.126183" />
    <path
       d="m 20.534096,8.499736 h -2.81388 c -0.26498,0 -0.49211,0.214511 -0.49211,0.492114 v 11.015772 c 0,0.264984 0.21451,0.492114 0.49211,0.492114 h 2.80127 c 0.26498,0 0.49211,-0.214512 0.49211,-0.492114 V 8.99185 c 0,-0.277603 -0.21451,-0.492114 -0.4795,-0.492114 z"
       id="path4-35-5-6-7"
       style="fill:#d3dae3;fill-opacity:1;stroke-width:0.126183" />
    <path
       d="M 22.963626,3.999736 H 9.036072 C 7.700891,4.001236 6.420748,4.53231 5.476754,5.47651 4.53257,6.420524 4.00152,7.700612 4,9.035806 v 13.92805 -1.89e-4 c 0.001,1.335156 0.53257,2.615282 1.476754,3.559295 0.943994,0.944201 2.224137,1.475225 3.559318,1.476774 h 13.928035 -1.94e-4 c 1.335183,-0.0015 2.615324,-0.532573 3.559318,-1.476774 0.944187,-0.944013 1.475232,-2.224139 1.476755,-3.559295 V 9.03607 C 27.998186,7.700913 27.467418,6.420787 26.523231,5.476775 25.579237,4.532573 24.299096,4.001551 22.963912,4 Z M 9.2,5.999748 h 13.6 c 0.887095,0.0011 1.603761,0.04384 2.231,0.671245 0.627232,0.627213 0.967901,1.441663 0.969,2.328755 V 22.999761 H 6 V 8.999748 C 6.0011,8.112656 6.341775,7.298243 6.969,6.670993 7.596201,6.043781 8.312916,6.000844 9.2,5.999748 Z"
       id="path1193-3-9"
       style="fill:#d3dae3;fill-opacity:1;stroke-width:0.047619"
       sodipodi:nodetypes="ccccccccccccccccccccccccc" />
  </g>
  <g
     id="media-playback-pause"
     transform="translate(-32,-32)">
    <path
       style="opacity:0.00100002"
       d="M 0,0 H 32.000001 V 32.000001 H 0 Z"
       id="path67" />
    <path
       inkscape:connector-curvature="0"
       id="path9068-9-37-8-0-1"
       d="m 26.000001,6 -20.2000005,5e-6 V 23.1 H 26.2 Z"
       style="display:inline;overflow:visible;visibility:visible;opacity:0.6;fill:url(#linearGradient5058);fill-opacity:1;fill-rule:nonzero;stroke:none;stroke-width:0.653705;marker:none"
       sodipodi:nodetypes="cccccc" />
    <path
       d="m 14.050008,8.5 h -2.81388 c -0.26498,0 -0.49211,0.214511 -0.49211,0.492114 v 11.015772 c 0,0.264986 0.21451,0.492114 0.49211,0.492114 h 2.80127 c 0.26498,0 0.49211,-0.214511 0.49211,-0.492114 V 8.992114 C 14.529508,8.714511 14.314998,8.5 14.050008,8.5 Z"
       id="path2-5-3-1"
       style="fill:#d3dae3;fill-opacity:1;stroke-width:0.126183" />
    <path
       d="m 20.497958,8.5 h -2.81388 c -0.26498,0 -0.49211,0.214511 -0.49211,0.492114 v 11.015772 c 0,0.264986 0.21451,0.492114 0.49211,0.492114 h 2.80127 c 0.26498,0 0.49211,-0.214511 0.49211,-0.492114 V 8.992114 C 20.977458,8.714511 20.762948,8.5 20.497958,8.5 Z"
       id="path4-35-5-2"
       style="fill:#d3dae3;fill-opacity:1;stroke-width:0.126183" />
    <path
       d="M 22.927553,3.999999 H 9 C 7.664819,4.001499 6.384676,4.532573 5.440682,5.476774 4.496498,6.420786 3.965448,7.700874 3.963928,9.036069 v 13.928049 -1.88e-4 c 10e-4,1.335156 0.53257,2.615282 1.476754,3.559294 C 6.384676,27.467426 7.664819,27.99845 9,28 h 13.928034 -1.94e-4 c 1.335183,-0.0015 2.615324,-0.532574 3.559318,-1.476776 0.944187,-0.944012 1.475232,-2.224138 1.476755,-3.559294 V 9.036333 C 27.962113,7.701177 27.431345,6.421051 26.487158,5.477039 25.543164,4.532837 24.263023,4.001814 22.927839,4.000264 Z M 9.163927,6.000012 h 13.6 c 0.887095,0.0011 1.603762,0.04384 2.231,0.671244 0.627232,0.627212 0.967902,1.441663 0.969,2.328756 V 23.000025 H 5.963928 V 9.000012 C 5.965028,8.112919 6.305703,7.298507 6.932928,6.671256 7.560129,6.044044 8.276844,6.001108 9.163927,6.000012 Z"
       id="path1193-3-6-7"
       style="fill:#d3dae3;fill-opacity:1;stroke-width:0.047619"
       sodipodi:nodetypes="ccccccccccccccccccccccccc" />
  </g>
  <defs
     id="defs126">
    <linearGradient
       inkscape:collect="always"
       id="linearGradient1213">
      <stop
         style="stop-color:#5581aa;stop-opacity:1;"
         offset="0"
         id="stop1209" />
      <stop
         style="stop-color:#00ccff;stop-opacity:1"
         offset="1"
         id="stop1211" />
    </linearGradient>
    <linearGradient
       inkscape:collect="always"
       id="linearGradient1207">
      <stop
         style="stop-color:#5581aa;stop-opacity:1;"
         offset="0"
         id="stop1203" />
      <stop
         style="stop-color:#2a7fff;stop-opacity:1"
         offset="1"
         id="stop1205" />
    </linearGradient>
    <linearGradient
       inkscape:collect="always"
       id="linearGradient1201">
      <stop
         style="stop-color:#5581aa;stop-opacity:1;"
         offset="0"
         id="stop1197" />
      <stop
         style="stop-color:#00ffcc;stop-opacity:1"
         offset="1"
         id="stop1199" />
    </linearGradient>
    <linearGradient
       inkscape:collect="always"
       id="linearGradient1195">
      <stop
         style="stop-color:#ff9955;stop-opacity:1"
         offset="0"
         id="stop1191" />
      <stop
         style="stop-color:#6db2c5;stop-opacity:1;"
         offset="1"
         id="stop1193" />
    </linearGradient>
    <linearGradient
       inkscape:collect="always"
       id="linearGradient1189">
      <stop
         style="stop-color:#5581aa;stop-opacity:1;"
         offset="0"
         id="stop1185" />
      <stop
         style="stop-color:#ff66ff;stop-opacity:1;"
         offset="1"
         id="stop1187" />
    </linearGradient>
    <linearGradient
       inkscape:collect="always"
       id="linearGradient1183">
      <stop
         style="stop-color:#ff53ff;stop-opacity:1;"
         offset="0"
         id="stop1179" />
      <stop
         style="stop-color:#6db2c5;stop-opacity:1;"
         offset="1"
         id="stop1181" />
    </linearGradient>
    <linearGradient
       inkscape:collect="always"
       id="linearGradient623">
      <stop
         style="stop-color:#5581aa;stop-opacity:1;"
         offset="0"
         id="stop619" />
      <stop
         style="stop-color:#8d5fd3;stop-opacity:1"
         offset="1"
         id="stop621" />
    </linearGradient>
    <linearGradient
       inkscape:collect="always"
       id="linearGradient675">
      <stop
         style="stop-color:#de87aa;stop-opacity:1"
         offset="0"
         id="stop671" />
      <stop
         style="stop-color:#ec0000;stop-opacity:1;"
         offset="1"
         id="stop673" />
    </linearGradient>
    <linearGradient
       inkscape:collect="always"
       id="linearGradient2510">
      <stop
         style="stop-color:#ffff33;stop-opacity:1;"
         offset="0"
         id="stop2506" />
      <stop
         style="stop-color:#2ad4ff;stop-opacity:1"
         offset="1"
         id="stop2508" />
    </linearGradient>
    <linearGradient
       inkscape:collect="always"
       xlink:href="#linearGradient2510"
       id="linearGradient5058"
       x1="147"
       y1="596.36218"
       x2="147"
       y2="636.12817"
       gradientUnits="userSpaceOnUse"
       gradientTransform="matrix(0.50999969,0,0,0.42750131,-58.969958,-248.94562)" />
    <linearGradient
       inkscape:collect="always"
       xlink:href="#linearGradient2510"
       id="linearGradient5058-6"
       x1="148.9608"
       y1="596.36218"
       x2="148.9608"
       y2="636.12817"
       gradientUnits="userSpaceOnUse"
       gradientTransform="matrix(0.50999969,0,0,0.42750131,-58.969959,-248.94562)" />
    <linearGradient
       inkscape:collect="always"
       xlink:href="#linearGradient675"
       id="linearGradient588"
       gradientUnits="userSpaceOnUse"
       gradientTransform="matrix(0.50999969,0,0,0.42750131,-58.969959,-248.94562)"
       x1="148.9608"
       y1="596.36218"
       x2="148.9608"
       y2="636.12817" />
    <linearGradient
       inkscape:collect="always"
       xlink:href="#linearGradient675"
       id="linearGradient1255"
       gradientUnits="userSpaceOnUse"
       gradientTransform="matrix(0.50999969,0,0,0.42750131,-58.969959,-248.94562)"
       x1="148.9608"
       y1="596.36218"
       x2="148.9608"
       y2="636.12817" />
    <linearGradient
       inkscape:collect="always"
       xlink:href="#linearGradient623"
       id="linearGradient1631"
       gradientUnits="userSpaceOnUse"
       gradientTransform="matrix(0.50999969,0,0,0.42750131,-58.969959,-248.94562)"
       x1="147"
       y1="596.36218"
       x2="147"
       y2="636.12817" />
    <linearGradient
       inkscape:collect="always"
       xlink:href="#linearGradient1183"
       id="linearGradient2518"
       gradientUnits="userSpaceOnUse"
       gradientTransform="matrix(0.50999969,0,0,0.42750131,-58.969959,-248.94562)"
       x1="148.9608"
       y1="596.36218"
       x2="148.9608"
       y2="636.12817" />
    <linearGradient
       inkscape:collect="always"
       xlink:href="#linearGradient1189"
       id="linearGradient3523"
       gradientUnits="userSpaceOnUse"
       gradientTransform="matrix(0.50999969,0,0,0.42750131,-58.969959,-248.94562)"
       x1="148.9608"
       y1="596.36218"
       x2="148.9608"
       y2="636.12817" />
    <linearGradient
       inkscape:collect="always"
       xlink:href="#linearGradient1195"
       id="linearGradient4302"
       gradientUnits="userSpaceOnUse"
       gradientTransform="matrix(0.50999969,0,0,0.42750131,-58.969959,-248.94562)"
       x1="148.9608"
       y1="596.36218"
       x2="148.9608"
       y2="636.12817" />
    <linearGradient
       inkscape:collect="always"
       xlink:href="#linearGradient1201"
       id="linearGradient4984"
       gradientUnits="userSpaceOnUse"
       gradientTransform="matrix(0.50999969,0,0,0.42750131,-58.969959,-248.94562)"
       x1="148.9608"
       y1="596.36218"
       x2="148.9608"
       y2="636.12817" />
    <linearGradient
       inkscape:collect="always"
       xlink:href="#linearGradient1207"
       id="linearGradient5540"
       gradientUnits="userSpaceOnUse"
       gradientTransform="matrix(0.50999969,0,0,0.42750131,-58.969959,-248.94562)"
       x1="148.9608"
       y1="596.36218"
       x2="148.9608"
       y2="636.12817" />
    <linearGradient
       inkscape:collect="always"
       xlink:href="#linearGradient1213"
       id="linearGradient6457"
       gradientUnits="userSpaceOnUse"
       gradientTransform="matrix(0.50999969,0,0,0.42750131,-58.969959,-248.94562)"
       x1="148.9608"
       y1="596.36218"
       x2="148.9608"
       y2="636.12817" />
    <linearGradient
       inkscape:collect="always"
       xlink:href="#linearGradient623"
       id="linearGradient7175"
       gradientUnits="userSpaceOnUse"
       gradientTransform="matrix(0.50999969,0,0,0.42750131,-58.969959,-248.94562)"
       x1="148.9608"
       y1="596.36218"
       x2="148.9608"
       y2="636.12817" />
    <linearGradient
       inkscape:collect="always"
       xlink:href="#linearGradient623"
       id="linearGradient6958"
       gradientUnits="userSpaceOnUse"
       gradientTransform="matrix(0.43219982,0,0,0.36977632,-52.73337,-217.8117)"
       x1="146.80391"
       y1="596.36243"
       x2="146.99998"
       y2="636.3623" />
    <linearGradient
       inkscape:collect="always"
       xlink:href="#linearGradient2510"
       id="linearGradient6958-5"
       gradientUnits="userSpaceOnUse"
       gradientTransform="matrix(0.43219982,0,0,0.36977632,-52.448623,-217.5207)"
       x1="146.80391"
       y1="596.36243"
       x2="146.99998"
       y2="636.3623" />
    <linearGradient
       inkscape:collect="always"
       xlink:href="#linearGradient675"
       id="linearGradient6958-56"
       gradientUnits="userSpaceOnUse"
       gradientTransform="matrix(0.43219982,0,0,0.36977632,-52.533369,-217.8117)"
       x1="146.80391"
       y1="596.36243"
       x2="146.99998"
       y2="636.3623" />
    <linearGradient
       inkscape:collect="always"
       xlink:href="#linearGradient1183"
       id="linearGradient6958-4"
       gradientUnits="userSpaceOnUse"
       gradientTransform="matrix(0.43219982,0,0,0.36977632,-52.448624,-217.7207)"
       x1="146.80391"
       y1="596.36243"
       x2="146.99998"
       y2="636.3623" />
    <linearGradient
       inkscape:collect="always"
       xlink:href="#linearGradient1189"
       id="linearGradient6958-47"
       gradientUnits="userSpaceOnUse"
       gradientTransform="matrix(0.43219982,0,0,0.36977632,-52.533369,-217.8117)"
       x1="146.80391"
       y1="596.36243"
       x2="146.99998"
       y2="636.3623" />
    <linearGradient
       inkscape:collect="always"
       xlink:href="#linearGradient1195"
       id="linearGradient6958-0"
       gradientUnits="userSpaceOnUse"
       gradientTransform="matrix(0.43219982,0,0,0.36977632,-52.53337,-217.7117)"
       x1="146.80391"
       y1="596.36243"
       x2="146.99998"
       y2="636.3623" />
    <linearGradient
       inkscape:collect="always"
       xlink:href="#linearGradient1201"
       id="linearGradient6958-8"
       gradientUnits="userSpaceOnUse"
       gradientTransform="matrix(0.43219982,0,0,0.36977632,-52.53337,-217.7117)"
       x1="146.80391"
       y1="596.36243"
       x2="146.99998"
       y2="636.3623" />
    <linearGradient
       inkscape:collect="always"
       xlink:href="#linearGradient1207"
       id="linearGradient6958-49"
       gradientUnits="userSpaceOnUse"
       gradientTransform="matrix(0.43219982,0,0,0.36977632,-52.53337,-217.8117)"
       x1="146.80391"
       y1="596.36243"
       x2="146.99998"
       y2="636.3623" />
    <linearGradient
       inkscape:collect="always"
       xlink:href="#linearGradient1213"
       id="linearGradient6958-2"
       gradientUnits="userSpaceOnUse"
       gradientTransform="matrix(0.43219982,0,0,0.36977632,-52.53337,-217.9117)"
       x1="146.80391"
       y1="596.36243"
       x2="146.99998"
       y2="636.3623" />
    <linearGradient
       inkscape:collect="always"
       xlink:href="#linearGradient623"
       id="linearGradient6958-9"
       gradientUnits="userSpaceOnUse"
       gradientTransform="matrix(0.43219982,0,0,0.36977632,-52.448623,-217.9207)"
       x1="146.80391"
       y1="596.36243"
       x2="146.99998"
       y2="636.3623" />
    <linearGradient
       inkscape:collect="always"
       xlink:href="#linearGradient2510"
       id="linearGradient6958-7"
       gradientUnits="userSpaceOnUse"
       gradientTransform="matrix(0.43219982,0,0,0.36977632,-52.448623,-217.8207)"
       x1="146.80391"
       y1="596.36243"
       x2="146.99998"
       y2="636.3623" />
    <linearGradient
       inkscape:collect="always"
       xlink:href="#linearGradient675"
       id="linearGradient6958-72"
       gradientUnits="userSpaceOnUse"
       gradientTransform="matrix(0.43219982,0,0,0.36977632,-52.448623,-217.9207)"
       x1="146.80391"
       y1="596.36243"
       x2="146.99998"
       y2="636.3623" />
  </defs>
  <sodipodi:namedview
     id="namedview124"
     pagecolor="#ffffff"
     bordercolor="#000000"
     borderopacity="1"
     inkscape:pageshadow="2"
     inkscape:pageopacity="0"
     inkscape:pagecheckerboard="0"
     showgrid="false"
     inkscape:zoom="4"
     inkscape:cx="66.625"
     inkscape:cy="-3.75"
     inkscape:window-width="1920"
     inkscape:window-height="994"
     inkscape:window-x="0"
     inkscape:window-y="0"
     inkscape:window-maximized="1"
     inkscape:current-layer="svg122"
     inkscape:lockguides="false"
     showguides="false"
     inkscape:showpageshadow="true"
     inkscape:deskcolor="#d1d1d1">
    <inkscape:grid
       type="xygrid"
       id="grid1924"
       originx="-64"
       originy="0" />
  </sodipodi:namedview>
  <g
     id="media-playback-start"
     transform="translate(-64,-32)">
    <path
       style="opacity:0.00100002"
       d="M 0,0 H 32.000001 V 32.000001 H 0 Z"
       id="path62" />
    <path
       inkscape:connector-curvature="0"
       id="path9068-9-37-8-0-1-0"
       d="M 26.000001,6 5.8,6.000005 V 23.1 h 20.399999 z"
       style="display:inline;overflow:visible;visibility:visible;opacity:0.6;fill:url(#linearGradient1631);fill-opacity:1;fill-rule:nonzero;stroke:none;stroke-width:0.653705;marker:none"
       sodipodi:nodetypes="cccccc" />
    <path
       d="M 20.551139,13.696122 12.596362,8.66372 C 11.917944,8.233817 11.00009,8.70165 11.00009,9.472951 v 10.052158 c 0,0.783942 0.917854,1.239135 1.596272,0.809235 l 7.954777,-5.032405 c 0.5986,-0.366683 0.5986,-1.22649 0,-1.605817 z"
       id="path2-3-7-9"
       style="fill:#d3dae3;fill-opacity:1;stroke-width:0.129693" />
    <path
       d="M 22.963625,4 H 9.036073 C 7.700891,4.0015 6.420749,4.532574 5.476754,5.476775 4.53257,6.420788 4.00152,7.700876 4,9.03607 v 13.92805 -1.89e-4 c 0.001,1.335156 0.53257,2.615282 1.476754,3.559295 0.943995,0.944201 2.224137,1.475225 3.559319,1.476775 h 13.928034 -1.94e-4 c 1.335183,-0.0015 2.615324,-0.532574 3.559318,-1.476775 0.944187,-0.944013 1.475232,-2.224139 1.476756,-3.559295 V 9.036334 C 27.998186,7.701178 27.467418,6.421052 26.523231,5.47704 25.579237,4.532838 24.299096,4.001815 22.963912,4.000265 Z M 9.200001,6.000013 h 13.599998 c 0.887095,0.0011 1.603762,0.04384 2.231,0.671244 0.627232,0.627213 0.967902,1.441663 0.969,2.328756 V 23.000026 H 6 V 9.000013 C 6.0011,8.11292 6.341777,7.298508 6.969001,6.671257 7.596203,6.044045 8.312917,6.001109 9.200001,6.000013 Z"
       id="path1193-3-6-0-3"
       style="fill:#d3dae3;fill-opacity:1;stroke-width:0.047619"
       sodipodi:nodetypes="ccccccccccccccccccccccccc" />
  </g>
  <g
     id="media-skip-backward"
     transform="translate(32,-32)">
    <path
       style="opacity:0.00100002"
       d="M 32,0 H 0 v 32 h 32 z"
       id="path77" />
    <path
       inkscape:connector-curvature="0"
       id="path9068-9-37-8-0-1-1-7-2-1"
       d="m 26,6 -20.2,5e-6 V 23.1 h 20.4 z"
       style="display:inline;overflow:visible;visibility:visible;opacity:0.6;fill:url(#linearGradient2518);fill-opacity:1;fill-rule:nonzero;stroke:none;stroke-width:0.653705;marker:none"
       sodipodi:nodetypes="cccccc" />
    <path
       d="m 21.485915,8.667491 -7.54622,5.020791 c -0.58626,0.39084 -0.58626,1.23265 0,1.623489 l 7.54622,5.020791 c 0.64639,0.435937 1.51826,-0.03007 1.51826,-0.811746 V 9.479236 c 0,-0.78168 -0.87187,-1.247682 -1.51826,-0.811745 z"
       id="path2-36-6-7"
       style="fill:#d3dae3;fill-opacity:1;stroke-width:0.150323" />
    <path
       d="M 11.61562,8.502136 H 9.48103 C 9.21045,8.502136 9,8.727621 9,8.98317 v 11.018681 c 0,0.270581 0.22548,0.481034 0.48103,0.481034 h 2.11956 c 0.27058,0 0.48103,-0.225484 0.48103,-0.481034 V 8.98317 c 0.015,-0.270582 -0.21045,-0.481034 -0.466,-0.481034 z"
       id="path4-7-0-9"
       style="fill:#d3dae3;fill-opacity:1;stroke-width:0.150323" />
    <path
       d="M 22.96363,4 H 9.03607 C 7.70089,4.0015 6.42075,4.532574 5.47675,5.476775 4.53257,6.420788 4.00152,7.700876 4,9.03607 v 13.928049 -1.88e-4 c 0.001,1.335156 0.53257,2.615282 1.47675,3.559294 0.944,0.944203 2.22414,1.475226 3.55932,1.476777 h 13.92804 -2e-4 c 1.33519,-0.0015 2.61533,-0.532574 3.55932,-1.476777 0.94419,-0.944012 1.47523,-2.224138 1.47676,-3.559294 V 9.036334 C 27.99799,7.701178 27.46742,6.421052 26.52323,5.47704 25.57924,4.532838 24.2991,4.001815 22.96391,4.000265 Z M 9.2,6.000013 h 13.6 c 0.88709,0.0011 1.60376,0.04384 2.231,0.671244 C 25.65823,7.29847 25.9989,8.11292 26,9.000013 V 23.000026 H 6 V 9.000013 C 6.001,8.11292 6.34177,7.298508 6.969,6.671257 7.5962,6.044045 8.31292,6.001109 9.2,6.000013 Z"
       id="path1193-3-2-1-6-6-2"
       style="fill:#d3dae3;fill-opacity:1;stroke-width:0.047619"
       sodipodi:nodetypes="ccccccccccccccccccccccccc" />
  </g>
  <g
     id="media-seek-forward"
     transform="translate(128,-32)">
    <path
       style="opacity:0.00100002"
       d="M 0,0 H 32.000001 V 32 H 0 Z"
       id="path102" />
    <path
       inkscape:connector-curvature="0"
       id="path9068-9-37-8-0-1-1-7-2-1-3-8-2"
       d="m 26,5.9999975 -20.2,5e-6 V 23.099997 h 20.4 z"
       style="display:inline;overflow:visible;visibility:visible;opacity:0.6;fill:url(#linearGradient4984);fill-opacity:1;fill-rule:nonzero;stroke:none;stroke-width:0.653705;marker:none"
       sodipodi:nodetypes="cccccc" />
    <path
       d="m 22.615023,13.695583 -6.630698,-5.02844 c -0.574661,-0.435801 -1.32614,0.0335 -1.32614,0.80455 v 2.44717 L 10.326129,8.667143 C 9.751469,8.231342 8.99999,8.700643 8.99999,9.471693 v 10.05688 c 0,0.77103 0.766214,1.24035 1.326139,0.80455 l 4.317322,-3.26848 v 2.46393 c 0,0.77103 0.766213,1.24035 1.326136,0.80455 l 6.630699,-5.02844 c 0.530456,-0.38551 0.530456,-1.22359 0.01474,-1.6091 z"
       id="path2-28-3-93"
       style="fill:#d3dae3;fill-opacity:1;stroke-width:0.157154" />
    <path
       d="M 22.96363,4 H 9.03607 C 7.70089,4.0015 6.42075,4.532574 5.47675,5.476775 4.53257,6.420789 4.00152,7.700877 4,9.036071 v 13.92805 -1.89e-4 c 0.001,1.335155 0.53257,2.615282 1.47675,3.559295 0.944,0.944201 2.22414,1.475225 3.55932,1.476774 h 13.92804 -2e-4 c 1.33519,-0.0015 2.61533,-0.532573 3.55932,-1.476775 0.94419,-0.944013 1.47523,-2.224139 1.47676,-3.559295 V 9.036335 C 27.99799,7.701178 27.46742,6.421052 26.52323,5.477041 25.57924,4.532838 24.2991,4.001815 22.96391,4.000265 Z M 9.2,6.000014 h 13.6 c 0.88709,0.0011 1.60376,0.04384 2.231,0.671243 C 25.65823,7.298471 25.9989,8.11292 26,9.000014 V 23.000027 H 6 V 9.000014 C 6.001,8.11292 6.34177,7.298508 6.969,6.671257 7.5962,6.044045 8.31292,6.001109 9.2,6.000014 Z"
       id="path1193-3-2-1-6-1-8-7-1"
       style="fill:#d3dae3;fill-opacity:1;stroke-width:0.047619"
       sodipodi:nodetypes="ccccccccccccccccccccccccc" />
  </g>
  <g
     id="media-playback-playing"
     transform="translate(-64)">
    <path
       style="opacity:0.00100002"
       d="M 0,0 H 32.000001 V 32.000001 H 0 Z"
       id="path107" />
    <path
       inkscape:connector-curvature="0"
       id="path9068-9-37-8-0-1-1-2"
       d="m 26,6 -20.2,5e-6 v 17.099994 h 20.4 z"
       style="display:inline;overflow:visible;visibility:visible;opacity:0.6;fill:url(#linearGradient7175);fill-opacity:1.0;fill-rule:nonzero;stroke:none;stroke-width:0.653705;marker:none"
       sodipodi:nodetypes="cccccc" />
    <path
       d="M 22.963625,4 H 9.036072 C 7.700891,4.0015 6.420748,4.532574 5.476754,5.476775 4.53257,6.420788 4.00152,7.700876 4,9.03607 v 13.92805 -1.89e-4 c 0.001,1.335156 0.53257,2.615282 1.476754,3.559295 0.943994,0.944201 2.224137,1.475225 3.559318,1.476775 h 13.928034 -1.94e-4 c 1.335183,-0.0015 2.615324,-0.532574 3.559318,-1.476775 0.944187,-0.944013 1.475233,-2.224139 1.476755,-3.559295 V 9.036334 C 27.998186,7.701178 27.467418,6.421052 26.52323,5.47704 25.579236,4.532838 24.299095,4.001815 22.963912,4.000265 Z M 9.2,6.000013 h 13.599999 c 0.887095,0.0011 1.603761,0.04384 2.231,0.671244 0.627232,0.627213 0.967901,1.441663 0.969,2.328756 V 23.000026 H 6 V 9.000013 C 6.0011,8.11292 6.341775,7.298508 6.969,6.671257 7.596201,6.044045 8.312916,6.001109 9.2,6.000013 Z"
       id="path1193-3-93-0"
       style="fill:#d3dae3;fill-opacity:1;stroke-width:0.047619"
       sodipodi:nodetypes="ccccccccccccccccccccccccc" />
    <path
       d="M 20.551049,13.696147 12.596274,8.663745 C 11.917853,8.233842 11,8.701675 11,9.472976 v 10.052158 c 0,0.783942 0.917853,1.239135 1.596274,0.809235 l 7.954775,-5.032405 c 0.598601,-0.366683 0.598601,-1.22649 0,-1.605817 z"
       id="path2-3-7-6-6"
       style="fill:#d3dae3;fill-opacity:1;stroke-width:0.129693" />
  </g>
  <g
     id="22-22-media-playback-playing"
     transform="translate(-64,32.000001)">
    <path
       style="opacity:0.00100002"
       d="M 0,0 H 22 V 21.999999 H 0 Z"
       id="path47" />
    <path
       inkscape:connector-curvature="0"
       id="path9068-9-37-8-0-1-0-1-3-7-4-6-1-48"
       d="m 19.559254,2.6 -17.118508,5e-6 v 14.790996 h 17.288 z"
       style="display:inline;overflow:visible;visibility:visible;opacity:0.6;fill:url(#linearGradient6958-9);fill-opacity:1.0;fill-rule:nonzero;stroke:none;stroke-width:0.55969;marker:none"
       sodipodi:nodetypes="cccccc" />
    <path
       d="M 16.80301,1 H 5.19674 C 4.08409,1.0015 3.01728,1.443813 2.23062,2.230647 1.44377,3.017321 1.00126,4.084062 1,5.196723 v 11.606712 -1.6e-4 c 8.6e-4,1.11263 0.44377,2.1794 1.23062,2.96608 0.78666,0.78683 1.85347,1.22935 2.96612,1.230641 h 11.6067 -1.9e-4 c 1.11265,-10e-4 2.17946,-0.44381 2.96611,-1.230641 0.78686,-0.78668 1.22937,-1.853449 1.23063,-2.966079 V 5.196946 C 20.99799,4.084311 20.55622,3.017544 19.76936,2.230866 18.98271,1.444033 17.9159,1.001508 16.80325,1.000224 Z M 5.617,3.000025 h 10.766 c 0.73924,0.0011 1.43628,-0.113833 1.959,0.409 0.52269,0.52268 0.6571,1.018408 0.658,1.757653 V 17.000025 H 3 V 5.166678 C 3.00085,4.427433 3.13532,3.931741 3.658,3.409025 4.18068,2.886346 4.87778,3.000935 5.617,3.000025 Z"
       id="path1193-3-3-5-6-6"
       style="fill:#d3dae3;fill-opacity:1;stroke-width:0.0396829"
       sodipodi:nodetypes="ccccccccccccccccccccccccc" />
    <path
       d="M 14.413296,9.397115 8.447198,5.622814 C 7.938389,5.300387 7.25,5.651264 7.25,6.229737 v 7.539122 c 0,0.58796 0.688389,0.929349 1.197198,0.60693 l 5.966098,-3.774307 c 0.448939,-0.275015 0.448939,-0.919872 0,-1.204367 z"
       id="path2-3-1-2-1"
       style="fill:#d3dae3;fill-opacity:1;stroke-width:0.0972671" />
  </g>
  <g
     id="22-22-media-playback-pause"
     transform="translate(-32,-54)">
    <path
       style="opacity:0.00100002"
       d="M 0,0 H 22 V 22 H 0 Z"
       id="path12" />
    <path
       inkscape:connector-curvature="0"
       id="path9068-9-37-8-0-1-0-1-3-7-4-6-1-6"
       d="M 19.559254,3 H 2.440746 v 14.791 h 17.288 z"
       style="display:inline;overflow:visible;visibility:visible;opacity:0.6;fill:url(#linearGradient6958-5);fill-opacity:1;fill-rule:nonzero;stroke:none;stroke-width:0.55969;marker:none"
       sodipodi:nodetypes="cccccc" />
    <path
       d="M 9.584461,6 H 7.384707 C 7.177559,6 7,6.143007 7,6.328076 v 7.343849 C 7,13.848581 7.167693,14 7.384707,14 H 9.574601 C 9.781751,14 9.95931,13.856992 9.95931,13.671925 V 6.328076 C 9.95931,6.143007 9.791616,6 9.584461,6 Z"
       id="path2-5-7-7"
       style="fill:#d3dae3;fill-opacity:1;stroke-width:0.091094" />
    <path
       d="m 14.625146,6 h -2.199754 c -0.207144,0 -0.384698,0.143007 -0.384698,0.328076 v 7.343849 C 12.040694,13.848581 12.208386,14 12.425392,14 h 2.189899 C 14.822446,14 15,13.856992 15,13.671925 V 6.328076 C 15,6.143007 14.832308,6 14.625146,6 Z"
       id="path4-35-0-7"
       style="fill:#d3dae3;fill-opacity:1;stroke-width:0.091094" />
    <path
       d="M 16.80301,0.999975 H 5.19674 C 4.08409,1.001475 3.01728,1.443788 2.23062,2.230622 1.44377,3.017296 1.00126,4.084037 1,5.196698 v 11.606709 -1.58e-4 c 8.6e-4,1.11263 0.44377,2.179402 1.23062,2.966081 0.78666,0.786833 1.85347,1.229354 2.96612,1.230644 h 11.6067 -1.9e-4 c 1.11265,-0.0012 2.17946,-0.443811 2.96611,-1.230644 0.78686,-0.786679 1.22937,-1.853451 1.23063,-2.966081 V 5.196921 C 20.99799,4.084286 20.55622,3.017519 19.76936,2.230841 18.98271,1.444008 17.9159,1.001483 16.80325,1.000199 Z M 5.617,3 h 10.766 c 0.73924,0.0011 1.43628,-0.113833 1.959,0.409 0.52269,0.52268 0.6571,1.018408 0.658,1.757653 V 17 H 3 V 5.166653 C 3.00085,4.427408 3.13532,3.931716 3.658,3.409 4.18068,2.886321 4.87778,3.00091 5.617,3 Z"
       id="path1193-3-3-1"
       style="fill:#d3dae3;fill-opacity:1;stroke-width:0.0396829"
       sodipodi:nodetypes="ccccccccccccccccccccccccc" />
  </g>
  <g
     id="22-22-media-eject"
     transform="translate(160,-54)">
    <path
       style="opacity:0.00100002"
       d="M 0,0 H 22 V 22 H 0 Z"
       id="path37" />
    <path
       inkscape:connector-curvature="0"
       id="path9068-9-37-8-0-1-0-1-3-7-4-6-1-689"
       d="M 19.47451,2.709 H 2.356 V 17.5 h 17.288 z"
       style="display:inline;overflow:visible;visibility:visible;opacity:0.6;fill:url(#linearGradient6958-49);fill-opacity:1;fill-rule:nonzero;stroke:none;stroke-width:0.55969;marker:none"
       sodipodi:nodetypes="cccccc" />
    <path
       d="M 15.860446,10.47371 11.676454,6.2463411 c -0.3257,-0.328421 -1.027208,-0.328421 -1.352908,0 L 6.1395543,10.47371 c -0.3632808,0.362105 0.025054,0.850526 0.6764538,0.850526 h 8.3679839 c 0.6514,0 1.039734,-0.488421 0.676454,-0.850526 z"
       id="path2-36-2-6-8-3"
       style="fill:#d3dae3;fill-opacity:1;stroke-width:0.102708" />
    <path
       d="m 6.0017581,12.534762 v 1.19579 c 0,0.151579 0.1879039,0.269474 0.4008615,0.269474 h 9.1822334 c 0.225485,0 0.400862,-0.126316 0.400862,-0.269474 v -1.187368 c 0,-0.151579 -0.187904,-0.269474 -0.400862,-0.269474 H 6.4026196 C 6.177135,12.26531 6.0017581,12.391605 6.0017581,12.534762 Z"
       id="path4-7-9-2-1-9"
       style="fill:#d3dae3;fill-opacity:1;stroke-width:0.102708" />
    <path
       d="M 16.80301,1 H 5.19674 C 4.08409,1.0015 3.01728,1.443813 2.23062,2.230647 1.44377,3.017321 1.00126,4.084062 1,5.196723 v 11.60671 -1.58e-4 c 8.6e-4,1.11263 0.44377,2.179402 1.23062,2.96608 C 3.01728,20.556189 4.08409,20.998709 5.19674,21 h 11.6067 -1.9e-4 c 1.11265,-0.0012 2.17946,-0.443811 2.96611,-1.230645 0.78686,-0.786678 1.22937,-1.85345 1.23063,-2.96608 V 5.196946 C 20.99799,4.084311 20.55622,3.017544 19.76936,2.230866 18.98271,1.444033 17.9159,1.001508 16.80325,1.000224 Z M 5.617,3.000025 h 10.766 c 0.73924,0.0011 1.43628,-0.113833 1.959,0.409 0.52269,0.52268 0.6571,1.018408 0.658,1.757653 V 17.000025 H 3 V 5.166678 C 3.00085,4.427433 3.13532,3.931741 3.658,3.409025 4.18068,2.886346 4.87778,3.000935 5.617,3.000025 Z"
       id="path1193-3-3-2-0-2-3-7-5-2-0"
       style="fill:#d3dae3;fill-opacity:1;stroke-width:0.0396829"
       sodipodi:nodetypes="ccccccccccccccccccccccccc" />
  </g>
  <g
     id="media-playback-stop"
     transform="translate(0,-32)">
    <path
       style="opacity:0.00100002"
       d="M 0,0 H 32.000001 V 32.000001 H 0 Z"
       id="path72" />
    <path
       inkscape:connector-curvature="0"
       id="path9068-9-37-8-0-1-1-7-2"
       d="m 26,6 -20.2,5e-6 V 23.1 h 20.4 z"
       style="display:inline;overflow:visible;visibility:visible;opacity:0.6;fill:url(#linearGradient1255);fill-opacity:1;fill-rule:nonzero;stroke:none;stroke-width:0.653705;marker:none"
       sodipodi:nodetypes="cccccc" />
    <path
       d="M 22.96363,4 H 9.03607 C 7.70089,4.0015 6.42075,4.532574 5.47675,5.476775 4.53257,6.420788 4.00152,7.700876 4,9.03607 v 13.92805 -1.89e-4 c 0.001,1.335156 0.53257,2.615282 1.47675,3.559295 0.944,0.944201 2.22414,1.475225 3.55932,1.476775 h 13.92804 -2e-4 c 1.33519,-0.0015 2.61533,-0.532574 3.55932,-1.476775 0.94419,-0.944013 1.47523,-2.224139 1.47676,-3.559295 V 9.036334 C 27.99799,7.701178 27.46742,6.421052 26.52323,5.47704 25.57924,4.532838 24.2991,4.001815 22.96391,4.000265 Z M 9.2,6.000013 h 13.6 c 0.88709,0.0011 1.60376,0.04384 2.231,0.671244 C 25.65823,7.29847 25.9989,8.11292 26,9.000013 V 23.000026 H 6 V 9.000013 C 6.001,8.11292 6.34177,7.298508 6.969,6.671257 7.5962,6.044045 8.31292,6.001109 9.2,6.000013 Z"
       id="path1193-3-2-1-1"
       style="fill:#d3dae3;fill-opacity:1;stroke-width:0.047619"
       sodipodi:nodetypes="ccccccccccccccccccccccccc" />
    <rect
       height="10"
       ry="2.5"
       width="10"
       x="11"
       y="9.5"
       id="rect4310-6-6"
       style="fill:#d3dae3;fill-opacity:1;stroke-width:0.25"
       rx="2.65625" />
  </g>
  <g
     id="media-playback-stopped">
    <path
       style="opacity:0.00100002"
       d="M 0,0 H 32.000001 V 32.000001 H 0 Z"
       id="path117" />
    <path
       inkscape:connector-curvature="0"
       id="path9068-9-37-8-0-1-1-7"
       d="m 26,6 -20.2,4.5e-6 V 23.1 h 20.4 z"
       style="display:inline;overflow:visible;visibility:visible;opacity:0.6;fill:url(#linearGradient588);fill-opacity:1;fill-rule:nonzero;stroke:none;stroke-width:0.653705;marker:none"
       sodipodi:nodetypes="cccccc" />
    <path
       d="M 22.96363,4 H 9.03607 C 7.70089,4.0015 6.42075,4.532574 5.47675,5.476775 4.53257,6.420788 4.00152,7.700876 4,9.03607 v 13.92805 -1.89e-4 c 0.001,1.335156 0.53257,2.615282 1.47675,3.559295 0.944,0.944201 2.22414,1.475225 3.55932,1.476775 h 13.92804 -2e-4 c 1.33519,-0.0015 2.61533,-0.532574 3.55932,-1.476775 0.94419,-0.944013 1.47523,-2.224139 1.47676,-3.559295 V 9.036334 C 27.99799,7.701178 27.46742,6.421052 26.52323,5.47704 25.57924,4.532838 24.2991,4.001815 22.96391,4.000265 Z M 9.2,6.000013 h 13.6 c 0.88709,0.0011 1.60376,0.04384 2.231,0.671244 C 25.65823,7.29847 25.9989,8.11292 26,9.000013 V 23.000026 H 6 V 9.000013 C 6.001,8.11292 6.34177,7.298508 6.969,6.671257 7.5962,6.044045 8.31292,6.001109 9.2,6.000013 Z"
       id="path1193-3-2-3"
       style="fill:#d3dae3;fill-opacity:1;stroke-width:0.047619"
       sodipodi:nodetypes="ccccccccccccccccccccccccc" />
    <rect
       height="12"
       ry="2.7250004"
       width="12"
       x="10"
       y="8.5"
       id="rect4310-6-6-3"
       style="fill:#d3dae3;fill-opacity:1;stroke-width:0.3"
       rx="2.7000008" />
  </g>
</svg>
