<?xml version="1.0" encoding="UTF-8" standalone="no"?>
<svg
   width="32"
   height="32"
   x="0"
   y="0"
   version="1.1"
   id="svg18"
   sodipodi:docname="mellowplayer.svg"
   inkscape:version="1.2.2 (b0a8486541, 2022-12-01)"
   xmlns:inkscape="http://www.inkscape.org/namespaces/inkscape"
   xmlns:sodipodi="http://sodipodi.sourceforge.net/DTD/sodipodi-0.dtd"
   xmlns:xlink="http://www.w3.org/1999/xlink"
   xmlns="http://www.w3.org/2000/svg"
   xmlns:svg="http://www.w3.org/2000/svg">
  <g
     id="22-22-mellowplayer"
     transform="translate(32,10)">
    <rect
       style="opacity:0.00100002;fill:#d1d5e9;fill-opacity:1"
       width="22"
       height="22"
       x="0"
       y="0"
       id="rect4" />
    <path
       inkscape:connector-curvature="0"
       id="path9068-9-37-8-0-1-0-1-3-7-4-6-1"
       d="M 19.474508,2.625689 2.356,2.625694 V 17.41669 h 17.288 z"
       style="display:inline;overflow:visible;visibility:visible;opacity:0.6;fill:url(#linearGradient6958);fill-opacity:1.0;fill-rule:nonzero;stroke:none;stroke-width:0.55969;marker:none"
       sodipodi:nodetypes="cccccc" />
    <path
       d="M 16.80301,1 H 5.19674 C 4.08409,1.0015 3.01728,1.443813 2.23062,2.230647 1.44377,3.017321 1.00126,4.084062 1,5.196723 v 11.60671 -1.58e-4 c 8.6e-4,1.11263 0.44377,2.179402 1.23062,2.96608 C 3.01728,20.556189 4.08409,20.998709 5.19674,21 h 11.606699 -1.9e-4 c 1.11265,-0.0012 2.17946,-0.443811 2.96611,-1.230645 0.78686,-0.786678 1.22937,-1.85345 1.230631,-2.96608 V 5.196946 C 20.99799,4.084311 20.556219,3.017544 19.769359,2.230866 18.982709,1.444033 17.9159,1.001508 16.803249,1.000224 Z M 5.617,3.000025 h 10.766001 c 0.739239,0.0011 1.436278,-0.113833 1.958999,0.409 0.522691,0.52268 0.6571,1.018408 0.658001,1.757653 V 17.000025 H 3 V 5.166678 C 3.00085,4.427433 3.13532,3.931741 3.658,3.409025 4.18068,2.886346 4.87778,3.000935 5.617,3.000025 Z"
       id="path1193-3-9"
       style="fill:#d3dae3;fill-opacity:1;stroke-width:0.0396829"
       sodipodi:nodetypes="ccccccccccccccccccccccccc" />
    <circle
       style="fill:#d6dbf1;fill-opacity:0.6;stroke-width:0.130671"
       cx="13.612407"
       cy="6.6214476"
       id="circle1104-3-7-7-6"
       r="2.2214477" />
    <circle
       style="fill:#d6dbf1;fill-opacity:0.6;stroke-width:0.194142"
       cx="8.3004408"
       cy="10.036802"
       id="circle1104-6-5-5-0-0"
       r="3.3004408" />
    <circle
       style="fill:#d6dbf1;fill-opacity:0.6;stroke-width:0.17361"
       cx="13.234661"
       cy="12.948644"
       id="circle1104-7-6-3-9-6"
       r="2.9513531" />
    <path
       style="fill:#d6dbf1;fill-opacity:1;stroke-width:0.245946"
       d="M 8.6900682,5.005188 C 8.8592065,4.921787 9.0216997,5.054976 9.0216997,5.054976 l 3.8804583,2.262115 3.751935,2.1894154 c 0,0 0.237594,0.114274 0.237594,0.387393 0,0.2738576 -0.239557,0.3629986 -0.239557,0.3629986 l -3.758582,2.189409 -3.9678614,2.311162 c 0,0 -0.1157241,0.101321 -0.264924,0.03637 -0.1703704,-0.07472 -0.1260535,-0.26469 -0.1260535,-0.26469 V 9.8817104 5.3091834 c 2.461e-4,0 -0.01877,-0.218096 0.1553591,-0.3039893 z"
       id="path1120-5-2-5-3-2" />
  </g>
  <g
     id="mellowplayer">
    <rect
       style="opacity:0.00100002;fill:#d1d5e9;fill-opacity:1"
       width="32"
       height="32"
       x="0"
       y="0"
       id="rect11" />
    <path
       inkscape:connector-curvature="0"
       id="path9068-9-37-8-0-1"
       d="m 26,6 -20.2,5e-6 V 23.1 h 20.4 z"
       style="display:inline;overflow:visible;visibility:visible;opacity:0.6;fill:url(#linearGradient5058);fill-opacity:1;fill-rule:nonzero;stroke:none;stroke-width:0.653705;marker:none"
       sodipodi:nodetypes="cccccc" />
    <path
       d="M 22.963626,4 H 9.036072 C 7.700891,4.0015 6.420748,4.532574 5.476754,5.476775 4.532568,6.420788 4.001525,7.700876 4,9.03607 v 13.92805 -1.89e-4 c 0.0015,1.335156 0.532568,2.615282 1.476754,3.559295 0.943994,0.944201 2.224137,1.475225 3.559318,1.476775 h 13.928035 -1.94e-4 c 1.335183,-0.0015 2.615324,-0.532574 3.559318,-1.476775 0.944187,-0.944013 1.475232,-2.224139 1.476755,-3.559295 V 9.036335 C 27.998186,7.701178 27.467418,6.421052 26.523231,5.47704 25.579237,4.532838 24.299096,4.001815 22.963912,4.000265 Z M 9.2,6.000013 h 13.6 c 0.887095,0.0011 1.603761,0.04384 2.231,0.671244 C 25.658232,7.29847 25.998901,8.11292 26,9.000013 V 23.000026 H 6 V 9.000013 C 6.0011,8.11292 6.341775,7.298508 6.969,6.671257 7.596201,6.044045 8.312916,6.001109 9.2,6.000013 Z"
       id="path1193-2"
       style="fill:#d3dae3;fill-opacity:1;stroke-width:0.047619"
       sodipodi:nodetypes="ccccccccccccccccccccccccc" />
    <circle
       style="fill:#d6dbf1;fill-opacity:0.6;stroke-width:0.172712"
       cx="19.383114"
       cy="9.9361115"
       r="2.936111"
       id="circle1104-3-3-5" />
    <circle
       style="fill:#d6dbf1;fill-opacity:0.6;stroke-width:0.256603"
       cx="12.362226"
       cy="14.45023"
       r="4.362227"
       id="circle1104-6-5-6-6" />
    <ellipse
       style="fill:#d6dbf1;fill-opacity:0.6;stroke-width:0.229458"
       cx="18.883835"
       cy="18.29884"
       id="circle1104-7-6-7-2"
       rx="3.9008338"
       ry="3.9008341" />
    <path
       style="fill:#d6dbf1;fill-opacity:1;stroke-width:0.325066"
       d="m 12.877201,7.7998874 c 0.223553,-0.110236 0.438321,0.06581 0.438321,0.06581 l 5.128844,2.9898626 4.958967,2.893771 c 0,0 0.31403,0.15104 0.31403,0.512023 0,0.361964 -0.316627,0.479774 -0.316627,0.479774 l -4.967759,2.893769 -5.244356,3.054687 c 0,0 -0.152953,0.133929 -0.350152,0.04802 -0.225181,-0.09872 -0.166607,-0.349795 -0.166607,-0.349795 V 14.245248 8.2016904 c 3.25e-4,0 -0.02481,-0.288259 0.205339,-0.401786 z"
       id="path1120-5-2-53-9" />
  </g>
  <style
     id="current-color-scheme"
     type="text/css">.ColorScheme-Text { color:#d6dbf1; }
</style>
  <sodipodi:namedview
     id="namedview20"
     pagecolor="#ffffff"
     bordercolor="#000000"
     borderopacity="1"
     inkscape:showpageshadow="2"
     inkscape:pageopacity="0"
     inkscape:pagecheckerboard="0"
     inkscape:deskcolor="#cccccc"
     showgrid="false"
     inkscape:zoom="10.429825"
     inkscape:cx="22.675356"
     inkscape:cy="13.470983"
     inkscape:window-width="1920"
     inkscape:window-height="994"
     inkscape:window-x="0"
     inkscape:window-y="0"
     inkscape:window-maximized="1"
     inkscape:current-layer="svg18">
    <inkscape:grid
       type="xygrid"
       id="grid373"
       originx="0"
       originy="0" />
  </sodipodi:namedview>
  <defs
     id="987">
    <linearGradient
       inkscape:collect="always"
       id="linearGradient454">
      <stop
         style="stop-color:#d0b754;stop-opacity:1;"
         offset="0"
         id="stop450" />
      <stop
         style="stop-color:#ff33ff;stop-opacity:1;"
         offset="1"
         id="stop452" />
    </linearGradient>
    <style
       type="text/css"
       id="style4" />
    <linearGradient
       inkscape:collect="always"
       xlink:href="#linearGradient454"
       id="linearGradient5058"
       x1="148.9608"
       y1="596.36218"
       x2="148.9608"
       y2="636.12817"
       gradientUnits="userSpaceOnUse"
       gradientTransform="matrix(0.50999969,0,0,0.42750131,-58.969959,-248.94562)" />
    <linearGradient
       inkscape:collect="always"
       xlink:href="#linearGradient454"
       id="linearGradient6958"
       gradientUnits="userSpaceOnUse"
       gradientTransform="matrix(0.43219982,0,0,0.36977632,-52.533369,-217.89501)"
       x1="146.80391"
       y1="596.36243"
       x2="146.99998"
       y2="636.3623" />
  </defs>
</svg>
