<?xml version="1.0" encoding="UTF-8" standalone="no"?>
<svg
   id="svg50"
   width="32"
   height="32"
   version="1.1"
   sodipodi:docname="microphone.svg"
   inkscape:version="1.2.2 (b0a8486541, 2022-12-01)"
   xmlns:inkscape="http://www.inkscape.org/namespaces/inkscape"
   xmlns:sodipodi="http://sodipodi.sourceforge.net/DTD/sodipodi-0.dtd"
   xmlns:xlink="http://www.w3.org/1999/xlink"
   xmlns="http://www.w3.org/2000/svg"
   xmlns:svg="http://www.w3.org/2000/svg"
   xmlns:rdf="http://www.w3.org/1999/02/22-rdf-syntax-ns#"
   xmlns:cc="http://creativecommons.org/ns#"
   xmlns:dc="http://purl.org/dc/elements/1.1/">
  <g
     id="microphone-sensitivity-high">
    <path
       style="opacity:0.00100002;fill:#e5e9ef;fill-opacity:1"
       d="M 0,0 H 32.000001 V 32.000001 H 0 Z"
       id="path2" />
    <path
       inkscape:connector-curvature="0"
       id="path9068-9-37-8-0-1"
       d="m 26.2,6 -20.4,4e-6 v 17.099995 h 20.4 z"
       style="display:inline;overflow:visible;visibility:visible;opacity:0.4;fill:url(#linearGradient5058);fill-opacity:1;fill-rule:nonzero;stroke:none;stroke-width:0.653705;marker:none"
       sodipodi:nodetypes="ccccc" />
    <path
       d="M 22.96362,4 H 9.03607 C 7.70089,4.0015 6.42074,4.532573 5.47675,5.476774 4.53256,6.420785 4.00152,7.700874 4,9.036068 v 13.928049 -1.89e-4 c 0.001,1.335155 0.0558,2.092152 1,3.036164 0.94399,0.944202 2.66482,1.998451 4,2 h 3 l 4,-9.3e-5 4,9.3e-5 h 3 v 0 c 1.33518,-0.0015 3.056,-1.0558 4,-2 0.94419,-0.944012 0.99846,-1.701009 0.99998,-3.036164 V 9.036333 C 27.99798,7.701176 27.46741,6.42105 26.52323,5.477037 25.57923,4.532835 24.29909,4.001813 22.96391,4.000263 Z M 9.2,6.000012 h 13.6 c 0.88709,0.0011 1.60376,0.04384 2.231,0.671244 0.62723,0.627212 0.9679,1.441663 0.969,2.328756 V 23.000023 H 6 V 9.000012 C 6.001,8.112919 6.34177,7.298505 6.969,6.671256 7.5962,6.044042 8.31291,6.001107 9.2,6.000012 Z"
       id="path1193-7"
       style="fill:#d3dae3;fill-opacity:1;stroke-width:0.047619"
       sodipodi:nodetypes="cccccccccccccccccccccccccccc" />
    <path
       d="m 8,12.828046 v 1.791997 c 0,2.322248 1.53158,4.25968 3.91305,4.704367 v 1.695636 h -1.8261 c -0.78259,0 -0.78259,1.28 0,1.28 h 6.26087 c 0.78262,0 0.78262,-1.28 0,-1.28 H 14.52174 V 19.32441 c 2.38144,-0.444687 3.91306,-2.382119 3.91306,-4.704367 v -1.791997 c 0,-0.768 -1.30436,-0.768 -1.30436,0 v 1.792 c 0,2.120766 -1.60789,3.648 -3.91306,3.648 -2.30516,0 -3.91302,-1.527234 -3.91302,-3.648 v -1.792 c 0,-0.768 -1.30436,-0.768 -1.30436,0 z m 5.21738,-5.888 c -1.72894,0 -3.13043,1.289421 -3.13043,2.879999 v 4.799998 c 0,1.590575 1.40149,2.879999 3.13043,2.879999 1.72898,0 3.13044,-1.289424 3.13044,-2.879999 V 9.820045 c 0,-1.590578 -1.40146,-2.879999 -3.13044,-2.879999 z"
       id="path661-3-5"
       sodipodi:nodetypes="csccccccccsccsssccsssssss"
       style="fill:#f8fafb;fill-opacity:1;stroke-width:0.646058" />
    <path
       d="m 23.91305,8.220033 c 0,1.06091 -0.87541,1.920013 -1.95652,1.920013 C 20.87638,10.140046 20,9.280943 20,8.220033 c 0,-1.060006 0.87638,-1.919987 1.95653,-1.919987 1.08111,0 1.95652,0.859981 1.95652,1.919987 z"
       id="path72-3-6-6"
       style="color:#e5e9ef;fill:#f4f6f8;fill-opacity:1;stroke-width:0.0230723"
       class="ColorScheme-Text" />
    <path
       d="m 23.91302,12.892038 c 0,1.060913 -0.87539,1.920008 -1.9565,1.920008 -1.08014,0 -1.95652,-0.859095 -1.95652,-1.920008 0,-1.060001 0.87638,-1.919992 1.95652,-1.919992 1.08111,0 1.9565,0.859991 1.9565,1.919992 z"
       id="path72-3-3-7-2"
       style="color:#e5e9ef;fill:#fffffd;fill-opacity:1;stroke-width:0.0230723"
       class="ColorScheme-Text" />
    <path
       d="m 23.91303,17.820031 c 0,1.060913 -0.87539,1.920015 -1.9565,1.920015 -1.08015,0 -1.95653,-0.859102 -1.95653,-1.920015 0,-1.060001 0.87638,-1.919985 1.95653,-1.919985 1.08111,0 1.9565,0.859984 1.9565,1.919985 z"
       id="path72-3-3-6-53-9"
       style="color:#e5e9ef;fill:#ffffff;fill-opacity:1;stroke-width:0.0230725"
       class="ColorScheme-Text" />
  </g>
  <style
     id="current-color-scheme"
     type="text/css" />
  <metadata
     id="metadata67">
    <rdf:RDF>
      <cc:Work
         rdf:about="">
        <dc:format>image/svg+xml</dc:format>
        <dc:type
           rdf:resource="http://purl.org/dc/dcmitype/StillImage" />
      </cc:Work>
    </rdf:RDF>
  </metadata>
  <defs
     id="defs65">
    <linearGradient
       inkscape:collect="always"
       id="linearGradient1913">
      <stop
         style="stop-color:#2ad4ff;stop-opacity:1"
         offset="0"
         id="stop1909" />
      <stop
         style="stop-color:#ff7bff;stop-opacity:0.5;"
         offset="1"
         id="stop1911" />
    </linearGradient>
    <linearGradient
       inkscape:collect="always"
       id="linearGradient30780">
      <stop
         style="stop-color:#2ad4ff;stop-opacity:1"
         offset="0"
         id="stop30776" />
      <stop
         style="stop-color:#ff66ff;stop-opacity:1;"
         offset="1"
         id="stop30778" />
    </linearGradient>
    <linearGradient
       inkscape:collect="always"
       xlink:href="#linearGradient30780"
       id="linearGradient5058"
       x1="148.9608"
       y1="596.36218"
       x2="148.9608"
       y2="636.12817"
       gradientUnits="userSpaceOnUse"
       gradientTransform="matrix(0.50999969,0,0,0.42750131,-58.969964,-248.94562)" />
    <linearGradient
       inkscape:collect="always"
       xlink:href="#linearGradient30780"
       id="linearGradient2947"
       gradientUnits="userSpaceOnUse"
       gradientTransform="matrix(0.43219979,0,0,0.36977635,-148.44862,-217.52071)"
       x1="146.80391"
       y1="596.36243"
       x2="146.99998"
       y2="636.36224" />
    <linearGradient
       inkscape:collect="always"
       xlink:href="#linearGradient30780"
       id="linearGradient28974"
       gradientUnits="userSpaceOnUse"
       gradientTransform="matrix(0.50999969,0,0,0.42750131,-122.96997,-248.94561)"
       x1="148.9608"
       y1="596.36218"
       x2="148.9608"
       y2="636.12817" />
    <linearGradient
       inkscape:collect="always"
       xlink:href="#linearGradient30780"
       id="linearGradient29017"
       gradientUnits="userSpaceOnUse"
       gradientTransform="matrix(0.50999969,0,0,0.42750131,-90.969965,-248.94562)"
       x1="148.9608"
       y1="596.36218"
       x2="148.9608"
       y2="636.12817" />
    <linearGradient
       inkscape:collect="always"
       xlink:href="#linearGradient1913"
       id="linearGradient29476"
       gradientUnits="userSpaceOnUse"
       gradientTransform="matrix(0.50999969,0,0,0.42750131,-58.969966,-248.94562)"
       x1="148.9608"
       y1="596.36218"
       x2="148.9608"
       y2="636.12817" />
    <linearGradient
       inkscape:collect="always"
       xlink:href="#linearGradient30780"
       id="linearGradient2947-8"
       gradientUnits="userSpaceOnUse"
       gradientTransform="matrix(0.43219979,0,0,0.36977635,-116.44862,-217.52071)"
       x1="146.80391"
       y1="596.36243"
       x2="146.99998"
       y2="636.36224" />
    <linearGradient
       inkscape:collect="always"
       xlink:href="#linearGradient30780"
       id="linearGradient2947-3"
       gradientUnits="userSpaceOnUse"
       gradientTransform="matrix(0.43219979,0,0,0.36977635,-84.448618,-217.52071)"
       x1="146.80391"
       y1="596.36243"
       x2="146.99998"
       y2="636.36224" />
    <linearGradient
       inkscape:collect="always"
       xlink:href="#linearGradient1913"
       id="linearGradient2947-7"
       gradientUnits="userSpaceOnUse"
       gradientTransform="matrix(0.43219979,0,0,0.36977635,-52.448617,-217.52071)"
       x1="146.80391"
       y1="596.36243"
       x2="146.99998"
       y2="636.36224" />
  </defs>
  <sodipodi:namedview
     pagecolor="#000000"
     bordercolor="#0013ff"
     borderopacity="1"
     objecttolerance="10"
     gridtolerance="10"
     guidetolerance="10"
     inkscape:pageopacity="0"
     inkscape:pageshadow="2"
     inkscape:window-width="1920"
     inkscape:window-height="994"
     id="namedview63"
     showgrid="true"
     inkscape:zoom="5.656854"
     inkscape:cx="38.09538"
     inkscape:cy="26.693282"
     inkscape:window-x="0"
     inkscape:window-y="0"
     inkscape:window-maximized="1"
     inkscape:current-layer="svg50"
     inkscape:document-rotation="0"
     inkscape:lockguides="true"
     inkscape:showpageshadow="false"
     inkscape:pagecheckerboard="true"
     inkscape:deskcolor="#000000">
    <inkscape:grid
       type="xygrid"
       id="grid5308"
       originx="96.000004"
       originy="0" />
  </sodipodi:namedview>
  <g
     id="22-22-microphone-sensitivity-high"
     transform="translate(96.000004,-22)">
    <path
       style="opacity:0.00100002;fill:#e5e9ef;fill-opacity:1"
       d="m -96.000003,0 h 22 v 22 h -22 z"
       id="path7-5" />
    <path
       inkscape:connector-curvature="0"
       id="path9068-9-37-8-0-1-0"
       d="m -76.440757,2.999998 -17.118492,4e-6 v 14.790996 h 17.288 z"
       style="display:inline;overflow:visible;visibility:visible;opacity:0.4;fill:url(#linearGradient2947);fill-opacity:1.0;fill-rule:nonzero;stroke:none;stroke-width:0.559686;marker:none"
       sodipodi:nodetypes="cccccc" />
    <path
       d="m -79.196993,1 h -11.606266 c -1.112658,0.0015 -2.179468,0.443813 -2.966124,1.230643 -0.786849,0.786682 -1.229364,1.853415 -1.23062,2.966084 v 11.606705 -1.58e-4 c 8.56e-4,1.11263 0.443771,2.179403 1.23062,2.966079 0.786656,0.786835 1.853466,1.229356 2.966124,1.230647 h 11.606694 -1.95e-4 c 1.112648,-0.0012 2.179471,-0.443811 2.966119,-1.230647 0.786858,-0.786676 1.229372,-1.853449 1.230628,-2.966079 V 5.196954 c -0.002,-1.112639 -0.44377,-2.179406 -1.230628,-2.966092 -0.786648,-0.786831 -1.853471,-1.22935 -2.966119,-1.230638 z m -11.18601,2.000025 h 10.766 c 0.739238,0.0011 1.436276,-0.113835 1.959,0.409 0.522686,0.522666 0.657091,1.018406 0.658,1.757648 v 11.833351 h -16 V 5.166674 c 8.43e-4,-0.739243 0.135324,-1.234929 0.658,-1.757649 0.522676,-0.522671 1.21978,-0.408086 1.959,-0.409 z"
       id="path1193-3-3"
       style="fill:#d3dae3;fill-opacity:1;stroke-width:0.0396828"
       sodipodi:nodetypes="ccccccccccccccccccccccccc" />
    <path
       d="m -91.000004,8.896 v 1.343997 c 0,1.741688 1.123156,3.19476 2.869565,3.528277 V 15.04 h -1.33913 c -0.573913,0 -0.573913,0.96 0,0.96 h 4.591304 c 0.573913,0 0.573913,-0.96 0,-0.96 h -1.33913 v -1.271726 c 1.7464,-0.333517 2.869565,-1.786589 2.869565,-3.528277 V 8.896 c 0,-0.576 -0.956522,-0.576 -0.956522,0 v 1.344 c 0,1.59057 -1.179112,2.736 -2.869565,2.736 -1.690453,0 -2.869565,-1.14543 -2.869565,-2.736 V 8.896 c 0,-0.576 -0.956522,-0.576 -0.956522,0 z m 3.826087,-4.416 c -1.267909,0 -2.295652,0.967061 -2.295652,2.159999 v 3.599998 c 0,1.192935 1.027743,2.159999 2.295652,2.159999 1.267909,0 2.295652,-0.967064 2.295652,-2.159999 V 6.639999 c 0,-1.192938 -1.027743,-2.159999 -2.295652,-2.159999 z"
       id="path661-3-1"
       sodipodi:nodetypes="csccccccccsccsssccsssssss"
       style="fill:#ffffff;fill-opacity:1;stroke-width:0.47913" />
    <path
       d="m -79.130439,5.439987 c 0,0.79568 -0.641966,1.440013 -1.434793,1.440013 -0.792109,0 -1.434772,-0.644333 -1.434772,-1.440013 0,-0.795006 0.642663,-1.439987 1.434772,-1.439987 0.792827,0 1.434793,0.644981 1.434793,1.439987 z"
       id="path72-3-6-2"
       style="color:#e5e9ef;fill:#ffffff;fill-opacity:1;stroke-width:0.0171108"
       class="ColorScheme-Text" />
    <path
       d="m -79.130467,8.943992 c 0,0.795683 -0.641946,1.440008 -1.434775,1.440008 -0.792099,0 -1.434762,-0.644325 -1.434762,-1.440008 0,-0.795001 0.642663,-1.439992 1.434762,-1.439992 0.792829,0 1.434775,0.644991 1.434775,1.439992 z"
       id="path72-3-3-7-7"
       style="color:#e5e9ef;fill:#ffffff;fill-opacity:1;stroke-width:0.0171108"
       class="ColorScheme-Text" />
    <path
       d="m -79.130459,12.639985 c 0,0.795683 -0.641946,1.440015 -1.434773,1.440015 -0.792109,0 -1.434772,-0.644332 -1.434772,-1.440015 0,-0.795001 0.642663,-1.439985 1.434772,-1.439985 0.792827,0 1.434773,0.644984 1.434773,1.439985 z"
       id="path72-3-3-6-53-0"
       style="color:#e5e9ef;fill:#ffffff;fill-opacity:1;stroke-width:0.0171108"
       class="ColorScheme-Text" />
  </g>
  <g
     id="microphone-sensitivity-medium"
     transform="translate(96.000004)">
    <path
       style="opacity:0.00100002;fill:#e5e9ef;fill-opacity:1"
       d="m -64.000002,0 h 32.000001 v 32.000001 h -32.000001 z"
       id="path31" />
    <path
       inkscape:connector-curvature="0"
       id="path9068-9-37-8-0-1-7"
       d="m -37.800002,6 -20.4,4e-6 v 17.099995 h 20.4 z"
       style="display:inline;overflow:visible;visibility:visible;opacity:0.4;fill:url(#linearGradient28974);fill-opacity:1.0;fill-rule:nonzero;stroke:none;stroke-width:0.653705;marker:none"
       sodipodi:nodetypes="ccccc" />
    <path
       d="m -41.036382,4 h -13.92755 c -1.33518,0.0015 -2.61533,0.532573 -3.55932,1.476774 -0.94419,0.944011 -1.47523,2.2241 -1.47675,3.559294 v 13.928049 -1.89e-4 c 0.001,1.335155 0.0558,2.092152 1,3.036164 0.94399,0.944202 2.66482,1.998451 4,2 h 3 l 4,-9.3e-5 4,9.3e-5 h 3 v 0 c 1.33518,-0.0015 3.056,-1.0558 4,-2 0.94419,-0.944012 0.99846,-1.701009 0.99998,-3.036164 V 9.036333 c -0.002,-1.335157 -0.53257,-2.615283 -1.47675,-3.559296 -0.944,-0.944202 -2.22414,-1.475224 -3.55932,-1.476774 z m -13.76362,2.000012 h 13.6 c 0.88709,0.0011 1.60376,0.04384 2.231,0.671244 0.62723,0.627212 0.9679,1.441663 0.969,2.328756 v 14.000011 h -20 V 9.000012 c 0.001,-0.887093 0.34177,-1.701507 0.969,-2.328756 0.6272,-0.627214 1.34391,-0.670149 2.231,-0.671244 z"
       id="path1193-7-6"
       style="fill:#d3dae3;fill-opacity:1;stroke-width:0.047619"
       sodipodi:nodetypes="cccccccccccccccccccccccccccc" />
    <path
       d="m -56.000002,12.828046 v 1.791997 c 0,2.322248 1.53158,4.25968 3.91305,4.704367 v 1.695636 h -1.8261 c -0.78259,0 -0.78259,1.28 0,1.28 h 6.26087 c 0.78262,0 0.78262,-1.28 0,-1.28 h -1.82608 V 19.32441 c 2.38144,-0.444687 3.91306,-2.382119 3.91306,-4.704367 v -1.791997 c 0,-0.768 -1.30436,-0.768 -1.30436,0 v 1.792 c 0,2.120766 -1.60789,3.648 -3.91306,3.648 -2.30516,0 -3.91302,-1.527234 -3.91302,-3.648 v -1.792 c 0,-0.768 -1.30436,-0.768 -1.30436,0 z m 5.21738,-5.888 c -1.72894,0 -3.13043,1.289421 -3.13043,2.879999 v 4.799998 c 0,1.590575 1.40149,2.879999 3.13043,2.879999 1.72898,0 3.13044,-1.289424 3.13044,-2.879999 V 9.820045 c 0,-1.590578 -1.40146,-2.879999 -3.13044,-2.879999 z"
       id="path661-3-5-3"
       sodipodi:nodetypes="csccccccccsccsssccsssssss"
       style="fill:#ffffff;fill-opacity:1;stroke-width:0.646058" />
    <path
       d="m -40.086952,8.220033 c 0,1.06091 -0.87541,1.920013 -1.95652,1.920013 -1.08015,0 -1.95653,-0.859103 -1.95653,-1.920013 0,-1.060006 0.87638,-1.919987 1.95653,-1.919987 1.08111,0 1.95652,0.859981 1.95652,1.919987 z"
       id="path72-3-6-6-1"
       style="color:#e5e9ef;fill:#d3dae3;fill-opacity:0.5;stroke-width:0.0230723"
       class="ColorScheme-Text" />
    <path
       d="m -40.086982,12.892038 c 0,1.060913 -0.87539,1.920008 -1.9565,1.920008 -1.08014,0 -1.95652,-0.859095 -1.95652,-1.920008 0,-1.060001 0.87638,-1.919992 1.95652,-1.919992 1.08111,0 1.9565,0.859991 1.9565,1.919992 z"
       id="path72-3-3-7-2-7"
       style="color:#e5e9ef;fill:#f7f8fa;fill-opacity:1;stroke-width:0.0230723"
       class="ColorScheme-Text" />
    <path
       d="m -40.086972,17.820031 c 0,1.060913 -0.87539,1.920015 -1.9565,1.920015 -1.08015,0 -1.95653,-0.859102 -1.95653,-1.920015 0,-1.060001 0.87638,-1.919985 1.95653,-1.919985 1.08111,0 1.9565,0.859984 1.9565,1.919985 z"
       id="path72-3-3-6-53-9-5"
       style="color:#e5e9ef;fill:#ffffff;fill-opacity:1;stroke-width:0.0230725"
       class="ColorScheme-Text" />
  </g>
  <g
     id="g30197"
     transform="translate(96.000004)">
    <path
       style="opacity:0.00100002;fill:#e5e9ef;fill-opacity:1"
       d="M -32.000001,0 H 0 v 32.000001 h -32.000001 z"
       id="path38" />
    <path
       inkscape:connector-curvature="0"
       id="path9068-9-37-8-0-1-2"
       d="m -5.800001,6 -20.4,4e-6 v 17.099995 h 20.4 z"
       style="display:inline;overflow:visible;visibility:visible;opacity:0.4;fill:url(#linearGradient29017);fill-opacity:1.0;fill-rule:nonzero;stroke:none;stroke-width:0.653705;marker:none"
       sodipodi:nodetypes="ccccc" />
    <path
       d="m -9.036381,4 h -13.92755 c -1.33518,0.0015 -2.61533,0.532573 -3.55932,1.476774 -0.94419,0.944011 -1.47523,2.2241 -1.47675,3.559294 v 13.928049 -1.89e-4 c 0.001,1.335155 0.0558,2.092152 1,3.036164 0.94399,0.944202 2.66482,1.998451 4,2 h 3 l 4,-9.3e-5 4,9.3e-5 h 3 v 0 c 1.33518,-0.0015 3.056,-1.0558 4,-2 0.94419,-0.944012 0.99846,-1.701009 0.99998,-3.036164 V 9.036333 c -0.002,-1.335157 -0.53257,-2.615283 -1.47675,-3.559296 -0.944,-0.944202 -2.22414,-1.475224 -3.55932,-1.476774 z m -13.76362,2.000012 h 13.6 c 0.88709,0.0011 1.60376,0.04384 2.231,0.671244 0.62723,0.627212 0.9679,1.441663 0.969,2.328756 v 14.000011 h -20 V 9.000012 c 0.001,-0.887093 0.34177,-1.701507 0.969,-2.328756 0.6272,-0.627214 1.34391,-0.670149 2.231,-0.671244 z"
       id="path1193-7-1"
       style="fill:#d3dae3;fill-opacity:1;stroke-width:0.047619"
       sodipodi:nodetypes="cccccccccccccccccccccccccccc" />
    <path
       d="m -24.000001,12.828046 v 1.791997 c 0,2.322248 1.53158,4.25968 3.91305,4.704367 v 1.695636 h -1.8261 c -0.78259,0 -0.78259,1.28 0,1.28 h 6.26087 c 0.78262,0 0.78262,-1.28 0,-1.28 h -1.82608 V 19.32441 c 2.38144,-0.444687 3.91306,-2.382119 3.91306,-4.704367 v -1.791997 c 0,-0.768 -1.30436,-0.768 -1.30436,0 v 1.792 c 0,2.120766 -1.60789,3.648 -3.91306,3.648 -2.30516,0 -3.91302,-1.527234 -3.91302,-3.648 v -1.792 c 0,-0.768 -1.30436,-0.768 -1.30436,0 z m 5.21738,-5.888 c -1.72894,0 -3.13043,1.289421 -3.13043,2.879999 v 4.799998 c 0,1.590575 1.40149,2.879999 3.13043,2.879999 1.72898,0 3.13044,-1.289424 3.13044,-2.879999 V 9.820045 c 0,-1.590578 -1.40146,-2.879999 -3.13044,-2.879999 z"
       id="path661-3-5-7"
       sodipodi:nodetypes="csccccccccsccsssccsssssss"
       style="fill:#ffffff;fill-opacity:1;stroke-width:0.646058" />
    <path
       d="m -8.086951,8.220033 c 0,1.06091 -0.87541,1.920013 -1.95652,1.920013 -1.08015,0 -1.95653,-0.859103 -1.95653,-1.920013 0,-1.060006 0.87638,-1.919987 1.95653,-1.919987 1.08111,0 1.95652,0.859981 1.95652,1.919987 z"
       id="path72-3-6-6-8"
       style="color:#e5e9ef;fill:#d3dae3;fill-opacity:0.5;stroke-width:0.0230723"
       class="ColorScheme-Text" />
    <path
       d="m -8.086981,12.892038 c 0,1.060913 -0.87539,1.920008 -1.9565,1.920008 -1.08014,0 -1.95652,-0.859095 -1.95652,-1.920008 0,-1.060001 0.87638,-1.919992 1.95652,-1.919992 1.08111,0 1.9565,0.859991 1.9565,1.919992 z"
       id="path72-3-3-7-2-5"
       style="color:#e5e9ef;fill:#d3dae3;fill-opacity:0.5;stroke-width:0.0230723"
       class="ColorScheme-Text" />
    <path
       d="m -8.086971,17.820031 c 0,1.060913 -0.87539,1.920015 -1.9565,1.920015 -1.08015,0 -1.95653,-0.859102 -1.95653,-1.920015 0,-1.060001 0.87638,-1.919985 1.95653,-1.919985 1.08111,0 1.9565,0.859984 1.9565,1.919985 z"
       id="path72-3-3-6-53-9-7"
       style="color:#e5e9ef;fill:#ffffff;fill-opacity:1;stroke-width:0.0230725"
       class="ColorScheme-Text" />
  </g>
  <g
     id="g30208"
     transform="translate(96.000004)">
    <path
       style="opacity:0.00100002;fill:#e5e9ef;fill-opacity:1"
       d="M 0,0 H 31.999997 V 32.000001 H 0 Z"
       id="path45" />
    <path
       inkscape:connector-curvature="0"
       id="path9068-9-37-8-0-1-7-8"
       d="M 26.200001,6 5.8,6.000004 v 17.099994 h 20.400001 z"
       style="display:inline;overflow:visible;visibility:visible;opacity:0.01;fill:url(#linearGradient29476);fill-opacity:1;fill-rule:nonzero;stroke:none;stroke-width:0.653705;marker:none"
       sodipodi:nodetypes="ccccc" />
    <path
       d="M 22.963621,4 H 9.036071 C 7.70089,4.0015 6.42074,4.532573 5.47675,5.476774 4.53256,6.420785 4.00152,7.700874 4,9.036068 v 13.928049 -1.89e-4 c 0.001,1.335155 0.0558,2.092152 1,3.036164 0.94399,0.944202 2.66482,1.998451 4,2 h 3.000001 l 4,-9.3e-5 4,9.3e-5 h 3 v 0 c 1.33518,-0.0015 3.056,-1.0558 4,-2 0.94419,-0.944012 0.99846,-1.701009 0.99998,-3.036164 V 9.036333 c -0.002,-1.335157 -0.53257,-2.615283 -1.47675,-3.559296 -0.944,-0.944202 -2.22414,-1.475224 -3.55932,-1.476774 z M 9.200001,6.000012 h 13.6 c 0.88709,0.0011 1.60376,0.04384 2.231,0.671244 0.62723,0.627212 0.9679,1.441663 0.969,2.328756 v 14.00001 H 6 V 9.000013 C 6.001,8.112919 6.34177,7.298505 6.969,6.671256 7.5962,6.044042 8.31291,6.001107 9.200001,6.000012 Z"
       id="path1193-7-6-5"
       style="fill:#d3dae3;fill-opacity:1;stroke-width:0.047619"
       sodipodi:nodetypes="cccccccccccccccccccccccccccc" />
    <path
       d="m 8,12.828046 v 1.791997 c 0,2.322247 1.531581,4.259679 3.913051,4.704367 v 1.695636 h -1.8261 c -0.78259,0 -0.78259,1.280001 0,1.280001 h 6.26087 c 0.78262,0 0.78262,-1.280001 0,-1.280001 h -1.82608 V 19.32441 c 2.38144,-0.444686 3.91306,-2.382119 3.91306,-4.704367 v -1.791997 c 0,-0.768 -1.30436,-0.768 -1.30436,0 v 1.792 c 0,2.120766 -1.60789,3.648 -3.91306,3.648 -2.30516,0 -3.91302,-1.527234 -3.91302,-3.648 v -1.792 c 0,-0.768 -1.304361,-0.768 -1.304361,0 z m 5.217381,-5.888 c -1.72894,0 -3.13043,1.289421 -3.13043,2.879999 v 4.799998 c 0,1.590575 1.40149,2.879999 3.13043,2.879999 1.72898,0 3.13044,-1.289424 3.13044,-2.879998 V 9.820046 c 0,-1.590579 -1.40146,-2.88 -3.13044,-2.88 z"
       id="path661-3-5-3-9"
       sodipodi:nodetypes="csccccccccsccsssccsssssss"
       style="fill:#da4453;fill-opacity:1;stroke-width:0.646058" />
    <path
       d="m 23.913051,8.220033 c 0,1.06091 -0.87541,1.920013 -1.95652,1.920013 -1.08015,0 -1.95653,-0.859103 -1.95653,-1.920013 0,-1.060006 0.87638,-1.919987 1.95653,-1.919987 1.08111,0 1.95652,0.859981 1.95652,1.919987 z"
       id="path72-3-6-6-1-7"
       style="color:#e5e9ef;fill:#da4453;fill-opacity:1;stroke-width:0.0230723"
       class="ColorScheme-Text" />
    <path
       d="m 23.913021,12.892038 c 0,1.060913 -0.87539,1.920007 -1.9565,1.920007 -1.08014,0 -1.95652,-0.859094 -1.95652,-1.920007 0,-1.060001 0.87638,-1.919992 1.95652,-1.919992 1.08111,0 1.9565,0.859991 1.9565,1.919992 z"
       id="path72-3-3-7-2-7-5"
       style="color:#e5e9ef;fill:#da4453;fill-opacity:1;stroke-width:0.0230723"
       class="ColorScheme-Text" />
    <path
       d="m 24.797269,20.818216 -1.818303,-1.818388 1.817757,-1.81796 c 0.270282,-0.270473 0.270282,-0.708771 0,-0.979136 -0.270601,-0.270187 -0.708861,-0.270187 -0.978894,0 l -1.817984,1.818081 -1.818014,-1.818081 c -0.270322,-0.270187 -0.708603,-0.270467 -0.979084,1.07e-4 -0.270308,0.270257 -0.270308,0.708659 1.18e-4,0.979024 l 1.818014,1.817965 -1.818196,1.818388 c -0.270244,0.270277 -0.270244,0.708746 0,0.978976 C 19.338929,21.932148 19.514995,22 19.692281,22 c 0.1782,0 0.35442,-0.06782 0.48955,-0.202808 L 22,19.978836 23.818438,21.797192 C 23.953535,21.932192 24.130762,22 24.307922,22 c 0.176601,0 0.354262,-0.06782 0.489328,-0.202808 0.270313,-0.270167 0.270313,-0.708658 0,-0.978976 z"
       id="path3490-3-36-3-8"
       style="fill:#da4453;fill-opacity:1;stroke-width:0.0142191;enable-background:new" />
  </g>
  <g
     id="22-22-microphone-sensitivity-medium"
     transform="translate(96.000004,-22)">
    <path
       style="opacity:0.00100002;fill:#e5e9ef;fill-opacity:1"
       d="m -64.000002,0 h 22 v 22 h -22 z"
       id="path12" />
    <path
       inkscape:connector-curvature="0"
       id="path9068-9-37-8-0-1-0-8"
       d="m -44.440756,2.999998 -17.118492,4e-6 v 14.790996 h 17.288 z"
       style="display:inline;overflow:visible;visibility:visible;opacity:0.4;fill:url(#linearGradient2947-8);fill-opacity:1.0;fill-rule:nonzero;stroke:none;stroke-width:0.559686;marker:none"
       sodipodi:nodetypes="cccccc" />
    <path
       d="m -47.196992,1 h -11.606266 c -1.112658,0.0015 -2.179468,0.443813 -2.966124,1.230643 -0.786849,0.786682 -1.229364,1.853415 -1.23062,2.966084 v 11.606705 -1.58e-4 c 8.56e-4,1.11263 0.443771,2.179403 1.23062,2.966079 0.786656,0.786835 1.853466,1.229356 2.966124,1.230647 h 11.606694 -1.95e-4 c 1.112648,-0.0012 2.179471,-0.443811 2.966119,-1.230647 0.786858,-0.786676 1.229372,-1.853449 1.230628,-2.966079 V 5.196954 c -0.002,-1.112639 -0.44377,-2.179406 -1.230628,-2.966092 -0.786648,-0.786831 -1.853471,-1.22935 -2.966119,-1.230638 z m -11.18601,2.000025 h 10.766 c 0.739238,0.0011 1.436276,-0.113835 1.959,0.409 0.522686,0.522666 0.657091,1.018406 0.658,1.757648 v 11.833351 h -16 V 5.166674 c 8.43e-4,-0.739243 0.135324,-1.234929 0.658,-1.757649 0.522676,-0.522671 1.21978,-0.408086 1.959,-0.409 z"
       id="path1193-3-3-9"
       style="fill:#d3dae3;fill-opacity:1;stroke-width:0.0396828"
       sodipodi:nodetypes="ccccccccccccccccccccccccc" />
    <path
       d="m -59.000003,8.896 v 1.343997 c 0,1.741688 1.123156,3.19476 2.869565,3.528277 V 15.04 h -1.33913 c -0.573913,0 -0.573913,0.96 0,0.96 h 4.591304 c 0.573913,0 0.573913,-0.96 0,-0.96 h -1.33913 v -1.271726 c 1.7464,-0.333517 2.869565,-1.786589 2.869565,-3.528277 V 8.896 c 0,-0.576 -0.956522,-0.576 -0.956522,0 v 1.344 c 0,1.59057 -1.179112,2.736 -2.869565,2.736 -1.690453,0 -2.869565,-1.14543 -2.869565,-2.736 V 8.896 c 0,-0.576 -0.956522,-0.576 -0.956522,0 z m 3.826087,-4.416 c -1.267909,0 -2.295652,0.967061 -2.295652,2.159999 v 3.599998 c 0,1.192935 1.027743,2.159999 2.295652,2.159999 1.267909,0 2.295652,-0.967064 2.295652,-2.159999 V 6.639999 c 0,-1.192938 -1.027743,-2.159999 -2.295652,-2.159999 z"
       id="path661-3-1-6"
       sodipodi:nodetypes="csccccccccsccsssccsssssss"
       style="fill:#ffffff;fill-opacity:1;stroke-width:0.47913" />
    <path
       d="m -47.130438,5.439987 c 0,0.79568 -0.641966,1.440013 -1.434793,1.440013 -0.792109,0 -1.434772,-0.644333 -1.434772,-1.440013 C -50.000003,4.644981 -49.35734,4 -48.565231,4 c 0.792827,0 1.434793,0.644981 1.434793,1.439987 z"
       id="path72-3-6-2-4"
       style="color:#e5e9ef;fill:#d3dae3;fill-opacity:0.5;stroke-width:0.0171108"
       class="ColorScheme-Text" />
    <path
       d="m -47.130466,8.943992 c 0,0.795683 -0.641946,1.440008 -1.434775,1.440008 -0.792099,0 -1.434762,-0.644325 -1.434762,-1.440008 0,-0.795001 0.642663,-1.439992 1.434762,-1.439992 0.792829,0 1.434775,0.644991 1.434775,1.439992 z"
       id="path72-3-3-7-7-3"
       style="color:#e5e9ef;fill:#fffffc;fill-opacity:1;stroke-width:0.0171108"
       class="ColorScheme-Text" />
    <path
       d="m -47.130458,12.639985 c 0,0.795683 -0.641946,1.440015 -1.434773,1.440015 -0.792109,0 -1.434772,-0.644332 -1.434772,-1.440015 0,-0.795001 0.642663,-1.439985 1.434772,-1.439985 0.792827,0 1.434773,0.644984 1.434773,1.439985 z"
       id="path72-3-3-6-53-0-3"
       style="color:#e5e9ef;fill:#ffffff;fill-opacity:1;stroke-width:0.0171108"
       class="ColorScheme-Text" />
  </g>
  <g
     id="microphone-sensitivity-low"
     transform="translate(96.000004,-22)">
    <path
       style="opacity:0.00100002;fill:#e5e9ef;fill-opacity:1"
       d="m -32.000001,0 h 22 v 22 h -22 z"
       id="path19" />
    <path
       inkscape:connector-curvature="0"
       id="path9068-9-37-8-0-1-0-0"
       d="m -12.440755,2.999998 -17.118492,4e-6 v 14.790996 h 17.288 z"
       style="display:inline;overflow:visible;visibility:visible;opacity:0.4;fill:url(#linearGradient2947-3);fill-opacity:1.0;fill-rule:nonzero;stroke:none;stroke-width:0.559686;marker:none"
       sodipodi:nodetypes="cccccc" />
    <path
       d="m -15.196991,1 h -11.606266 c -1.112658,0.0015 -2.179468,0.443813 -2.966124,1.230643 -0.786849,0.786682 -1.229364,1.853415 -1.23062,2.966084 v 11.606705 -1.58e-4 c 8.56e-4,1.11263 0.443771,2.179403 1.23062,2.966079 0.786656,0.786835 1.853466,1.229356 2.966124,1.230647 h 11.606694 -1.95e-4 c 1.112648,-0.0012 2.179471,-0.443811 2.966119,-1.230647 0.786858,-0.786676 1.229372,-1.853449 1.230628,-2.966079 V 5.196954 c -0.002,-1.112639 -0.44377,-2.179406 -1.230628,-2.966092 -0.786648,-0.786831 -1.853471,-1.22935 -2.966119,-1.230638 z m -11.18601,2.000025 h 10.766 c 0.739238,0.0011 1.436276,-0.113835 1.959,0.409 0.522686,0.522666 0.657091,1.018406 0.658,1.757648 v 11.833351 h -16 V 5.166674 c 8.43e-4,-0.739243 0.135324,-1.234929 0.658,-1.757649 0.522676,-0.522671 1.21978,-0.408086 1.959,-0.409 z"
       id="path1193-3-3-4"
       style="fill:#d3dae3;fill-opacity:1;stroke-width:0.0396828"
       sodipodi:nodetypes="ccccccccccccccccccccccccc" />
    <path
       d="m -27.000002,8.896 v 1.343997 c 0,1.741688 1.123156,3.19476 2.869565,3.528277 V 15.04 h -1.33913 c -0.573913,0 -0.573913,0.96 0,0.96 h 4.591304 c 0.573913,0 0.573913,-0.96 0,-0.96 h -1.33913 v -1.271726 c 1.7464,-0.333517 2.869565,-1.786589 2.869565,-3.528277 V 8.896 c 0,-0.576 -0.956522,-0.576 -0.956522,0 v 1.344 c 0,1.59057 -1.179112,2.736 -2.869565,2.736 -1.690453,0 -2.869565,-1.14543 -2.869565,-2.736 V 8.896 c 0,-0.576 -0.956522,-0.576 -0.956522,0 z m 3.826087,-4.416 c -1.267909,0 -2.295652,0.967061 -2.295652,2.159999 v 3.599998 c 0,1.192935 1.027743,2.159999 2.295652,2.159999 1.267909,0 2.295652,-0.967064 2.295652,-2.159999 V 6.639999 c 0,-1.192938 -1.027743,-2.159999 -2.295652,-2.159999 z"
       id="path661-3-1-8"
       sodipodi:nodetypes="csccccccccsccsssccsssssss"
       style="fill:#ffffff;fill-opacity:1;stroke-width:0.47913" />
    <path
       d="m -15.130437,5.439987 c 0,0.79568 -0.641966,1.440013 -1.434793,1.440013 -0.792109,0 -1.434772,-0.644333 -1.434772,-1.440013 C -18.000002,4.644981 -17.357339,4 -16.56523,4 c 0.792827,0 1.434793,0.644981 1.434793,1.439987 z"
       id="path72-3-6-2-8"
       style="color:#e5e9ef;fill:#d3dae3;fill-opacity:0.5;stroke-width:0.0171108"
       class="ColorScheme-Text" />
    <path
       d="m -15.130465,8.943992 c 0,0.795683 -0.641946,1.440008 -1.434775,1.440008 -0.792099,0 -1.434762,-0.644325 -1.434762,-1.440008 0,-0.795001 0.642663,-1.439992 1.434762,-1.439992 0.792829,0 1.434775,0.644991 1.434775,1.439992 z"
       id="path72-3-3-7-7-8"
       style="color:#e5e9ef;fill:#d3dae3;fill-opacity:0.502994;stroke-width:0.0171108"
       class="ColorScheme-Text" />
    <path
       d="m -15.130457,12.639985 c 0,0.795683 -0.641946,1.440015 -1.434773,1.440015 -0.792109,0 -1.434772,-0.644332 -1.434772,-1.440015 0,-0.795001 0.642663,-1.439985 1.434772,-1.439985 0.792827,0 1.434773,0.644984 1.434773,1.439985 z"
       id="path72-3-3-6-53-0-9"
       style="color:#e5e9ef;fill:#ffffff;fill-opacity:1;stroke-width:0.0171108"
       class="ColorScheme-Text" />
  </g>
  <g
     id="microphone-sensitivity-muted"
     transform="translate(96.000004,-22)">
    <path
       style="opacity:0.00100002;fill:#e5e9ef;fill-opacity:1"
       d="M 0,0 H 21.999997 V 22 H 0 Z"
       id="path26" />
    <path
       inkscape:connector-curvature="0"
       id="path9068-9-37-8-0-1-0-4"
       d="m 19.559243,2.999998 -17.118489,4e-6 v 14.790996 h 17.287999 z"
       style="display:inline;overflow:visible;visibility:visible;opacity:0.01;fill:url(#linearGradient2947-7);fill-opacity:1;fill-rule:nonzero;stroke:none;stroke-width:0.559686;marker:none"
       sodipodi:nodetypes="cccccc" />
    <path
       d="M 16.803013,1 H 5.196744 C 4.084086,1.0015 3.017276,1.443813 2.23062,2.230643 1.443771,3.017325 1.001256,4.084058 1,5.196727 v 11.606705 -1.58e-4 c 8.56e-4,1.11263 0.443771,2.179403 1.23062,2.966079 C 3.017276,20.556188 4.084086,20.998709 5.196744,21 h 11.606689 -1.9e-4 c 1.11265,-0.0012 2.17947,-0.443811 2.96612,-1.230647 0.78686,-0.786676 1.22937,-1.853449 1.23063,-2.966079 V 5.196954 c -0.002,-1.112639 -0.44377,-2.179406 -1.23063,-2.966092 -0.78665,-0.786831 -1.85347,-1.22935 -2.96612,-1.230638 z M 5.617,3.000025 h 10.766003 c 0.73924,0.0011 1.43627,-0.113835 1.959,0.409 0.52268,0.522666 0.65709,1.018406 0.658,1.757648 V 17.000024 H 3 V 5.166674 C 3.000843,4.427431 3.135324,3.931745 3.658,3.409025 4.180676,2.886354 4.87778,3.000939 5.617,3.000025 Z"
       id="path1193-3-3-3"
       style="fill:#d3dae3;fill-opacity:1;stroke-width:0.0396828"
       sodipodi:nodetypes="ccccccccccccccccccccccccc" />
    <path
       d="m 4.999999,8.896 v 1.343997 c 0,1.741688 1.123154,3.19476 2.869564,3.528277 V 15.04 h -1.33913 c -0.573912,0 -0.573912,0.96 0,0.96 h 4.5913 c 0.57392,0 0.57392,-0.96 0,-0.96 h -1.33913 v -1.271726 c 1.7464,-0.333517 2.86957,-1.786589 2.86957,-3.528277 V 8.896 c 0,-0.576 -0.95652,-0.576 -0.95652,0 v 1.344 c 0,1.59057 -1.17911,2.736 -2.86957,2.736 -1.69045,0 -2.869562,-1.14543 -2.869562,-2.736 V 8.896 c 0,-0.576 -0.956522,-0.576 -0.956522,0 z M 8.826083,4.48 c -1.26791,0 -2.29565,0.967061 -2.29565,2.159999 v 3.599998 c 0,1.192935 1.02774,2.159999 2.29565,2.159999 1.26791,0 2.29566,-0.967064 2.29566,-2.159999 V 6.639999 C 11.121743,5.447061 10.093993,4.48 8.826083,4.48 Z"
       id="path661-3-1-0"
       sodipodi:nodetypes="csccccccccsccsssccsssssss"
       style="fill:#da4453;fill-opacity:1;stroke-width:0.47913" />
    <path
       d="m 16.869563,5.439987 c 0,0.79568 -0.64196,1.440013 -1.43479,1.440013 -0.79211,0 -1.43477,-0.644333 -1.43477,-1.440013 C 14.000003,4.644981 14.642663,4 15.434773,4 c 0.79283,0 1.43479,0.644981 1.43479,1.439987 z"
       id="path72-3-6-2-3"
       style="color:#e5e9ef;fill:#da4453;fill-opacity:1;stroke-width:0.0171108"
       class="ColorScheme-Text" />
    <path
       d="m 16.869533,8.943992 c 0,0.795683 -0.64194,1.440008 -1.43477,1.440008 -0.7921,0 -1.43476,-0.644325 -1.43476,-1.440008 0,-0.795001 0.64266,-1.439992 1.43476,-1.439992 0.79283,0 1.43477,0.644991 1.43477,1.439992 z"
       id="path72-3-3-7-7-0"
       style="color:#e5e9ef;fill:#da4453;fill-opacity:1;stroke-width:0.0171108"
       class="ColorScheme-Text" />
    <path
       d="m 17.364848,15.212143 -1.212203,-1.212255 1.211837,-1.211978 c 0.180187,-0.180315 0.180187,-0.472513 0,-0.652758 -0.180401,-0.180122 -0.472575,-0.180122 -0.652594,0 l -1.211989,1.212059 -1.21201,-1.212059 c -0.180221,-0.180122 -0.472402,-0.180307 -0.652723,7.2e-5 -0.180208,0.180172 -0.180208,0.472439 7.8e-5,0.652684 l 1.21201,1.21198 -1.212131,1.212255 c -0.180164,0.180188 -0.180164,0.472498 0,0.65265 0.09083,0.08997 0.208207,0.135206 0.326397,0.135206 0.1188,0 0.23628,-0.04522 0.326369,-0.135207 l 1.21211,-1.212237 1.212294,1.212237 c 0.09007,0.09 0.208214,0.135207 0.326324,0.135207 0.117731,0 0.236173,-0.04522 0.326214,-0.135207 0.180211,-0.180108 0.180211,-0.472439 0,-0.65265 z"
       id="path3490-3-36-3-8-5"
       style="fill:#da4453;fill-opacity:1;stroke-width:0.00947918;enable-background:new" />
  </g>
</svg>
