<?xml version="1.0" encoding="UTF-8" standalone="no"?>
<svg
   version="1.1"
   viewBox="0 0 32 16"
   id="svg11"
   sodipodi:docname="mobile.svg"
   inkscape:version="1.2.1 (9c6d41e410, 2022-07-14)"
   xmlns:inkscape="http://www.inkscape.org/namespaces/inkscape"
   xmlns:sodipodi="http://sodipodi.sourceforge.net/DTD/sodipodi-0.dtd"
   xmlns:xlink="http://www.w3.org/1999/xlink"
   xmlns="http://www.w3.org/2000/svg"
   xmlns:svg="http://www.w3.org/2000/svg"
   xmlns:rdf="http://www.w3.org/1999/02/22-rdf-syntax-ns#"
   xmlns:cc="http://creativecommons.org/ns#"
   xmlns:dc="http://purl.org/dc/elements/1.1/">
  <metadata
     id="metadata15">
    <rdf:RDF>
      <cc:Work
         rdf:about="">
        <dc:format>image/svg+xml</dc:format>
        <dc:type
           rdf:resource="http://purl.org/dc/dcmitype/StillImage" />
      </cc:Work>
    </rdf:RDF>
  </metadata>
  <sodipodi:namedview
     pagecolor="#ffffff"
     bordercolor="#000000"
     borderopacity="1"
     objecttolerance="10"
     gridtolerance="10"
     guidetolerance="10"
     inkscape:pageopacity="0"
     inkscape:pageshadow="2"
     inkscape:window-width="1920"
     inkscape:window-height="1002"
     id="namedview13"
     showgrid="false"
     inkscape:zoom="17.125001"
     inkscape:cx="16.729926"
     inkscape:cy="9.664233"
     inkscape:window-x="0"
     inkscape:window-y="0"
     inkscape:window-maximized="1"
     inkscape:current-layer="svg11"
     inkscape:document-rotation="0"
     inkscape:pagecheckerboard="0"
     inkscape:showpageshadow="true"
     inkscape:deskcolor="#d1d1d1"
     inkscape:lockguides="false">
    <inkscape:grid
       type="xygrid"
       id="grid538" />
  </sodipodi:namedview>
  <defs
     id="defs3">
    <style
       id="current-color-scheme"
       type="text/css" />
    <linearGradient
       inkscape:collect="always"
       xlink:href="#linearGradient4813"
       id="linearGradient5058"
       x1="148.9608"
       y1="596.36218"
       x2="148.9608"
       y2="636.12817"
       gradientUnits="userSpaceOnUse"
       gradientTransform="matrix(0.22249985,0,0,0.22500069,-24.664641,-130.6819)" />
    <linearGradient
       inkscape:collect="always"
       id="linearGradient4813">
      <stop
         style="stop-color:#5581aa;stop-opacity:1;"
         offset="0"
         id="stop4809" />
      <stop
         style="stop-color:#6db2c5;stop-opacity:1;"
         offset="1"
         id="stop4811" />
    </linearGradient>
  </defs>
  <g
     id="g2116"
     transform="matrix(3.7734101,0,0,3.7734101,0.05466992,0.00852106)"
     fill="currentColor"
     style="fill:#d6dbf1;fill-opacity:1" />
  <g
     id="mobile-close-app">
    <path
       id="path48"
       style="color:#eff0f1;fill:#d3dae3;fill-opacity:1;stroke-width:1.74964"
       d="m 18.004711,2.0003425 h 1.499411 c 0.01557,-1.87e-4 0.03117,-6.67e-4 0.04687,0 0.382277,0.0175 0.764506,0.192867 1.030846,0.46873 l 3.420533,3.421784 3.46739,-3.421784 c 0.398279,-0.345744 0.669744,-0.458231 1.030844,-0.46873 h 1.499412 v 1.499952 c 0,0.429707 -0.05149,0.825966 -0.374851,1.124974 l -3.420532,3.421772 3.373675,3.3749205 c 0.282172,0.282232 0.421697,0.680148 0.421708,1.078087 v 1.499953 h -1.499412 c -0.397794,-1.2e-5 -0.795566,-0.139647 -1.0777,-0.421855 l -3.420534,-3.421784 -3.420533,3.421784 c -0.282143,0.282267 -0.679931,0.421855 -1.077711,0.421855 h -1.49941 v -1.499953 c -5e-6,-0.397916 0.139542,-0.795855 0.421709,-1.078087 l 3.420532,-3.3749205 -3.420532,-3.421772 c -0.315989,-0.291939 -0.454561,-0.703865 -0.421709,-1.124974 z"
       class="ColorScheme-Text" />
  </g>
  <g
     id="mobile-task-switcher">
    <path
       inkscape:connector-curvature="0"
       id="path9068-9-37-8-0-1"
       d="m 12.492838,3.5 -8.9000002,2.7e-6 V 12.5 h 8.9000002 z"
       style="display:inline;overflow:visible;visibility:visible;opacity:0.6;fill:url(#linearGradient5058);fill-opacity:1;fill-rule:nonzero;stroke:none;stroke-width:0.313245;marker:none"
       sodipodi:nodetypes="ccccc" />
    <path
       class="ColorScheme-Text"
       d="m 4.086468,2.0004187 c -1.154167,0 -2.083008,0.92884 -2.083008,2.083008 v 7.8339843 c 0,1.154166 0.928841,2.083008 2.083008,2.083008 h 7.833984 c 1.154167,0 2.083008,-0.928842 2.083008,-2.083008 V 4.0834267 c 0,-1.154168 -0.92884,-2.083008 -2.083008,-2.083008 z M 5.000628,4 h 5.998744 c 0.593847,0 0.999791,0.405945 0.999791,0.9997908 v 5.9987442 c 0,0.593846 -0.405945,0.999789 -0.999791,0.999789 l -5.998744,2e-6 c -0.593846,0 -0.999791,-0.405945 -0.999791,-0.999791 V 4.9997908 C 4.000837,4.405945 4.406784,4 5.000628,4 Z"
       stroke-opacity="0"
       stroke-width="0.500002"
       id="path5-6"
       style="fill:#d3dae3;fill-opacity:1"
       sodipodi:nodetypes="ssssssssssssssssss" />
  </g>
</svg>
