<?xml version="1.0" encoding="UTF-8" standalone="no"?>
<svg
   width="32"
   height="32"
   version="1.1"
   id="svg654"
   sodipodi:docname="notifications.svg"
   inkscape:version="1.2.2 (b0a8486541, 2022-12-01)"
   xmlns:inkscape="http://www.inkscape.org/namespaces/inkscape"
   xmlns:sodipodi="http://sodipodi.sourceforge.net/DTD/sodipodi-0.dtd"
   xmlns:xlink="http://www.w3.org/1999/xlink"
   xmlns="http://www.w3.org/2000/svg"
   xmlns:svg="http://www.w3.org/2000/svg">
  <sodipodi:namedview
     id="namedview656"
     pagecolor="#ffffff"
     bordercolor="#666666"
     borderopacity="1.0"
     inkscape:showpageshadow="2"
     inkscape:pageopacity="0.0"
     inkscape:pagecheckerboard="0"
     inkscape:deskcolor="#d1d1d1"
     showgrid="false"
     inkscape:zoom="10.727273"
     inkscape:cx="25.02966"
     inkscape:cy="23.957627"
     inkscape:window-width="1920"
     inkscape:window-height="994"
     inkscape:window-x="0"
     inkscape:window-y="0"
     inkscape:window-maximized="1"
     inkscape:current-layer="svg654"
     inkscape:lockguides="true">
    <inkscape:grid
       type="xygrid"
       id="grid333" />
  </sodipodi:namedview>
  <defs
     id="rounded">
    <linearGradient
       inkscape:collect="always"
       id="linearGradient2318">
      <stop
         style="stop-color:#ff0000;stop-opacity:1;"
         offset="0"
         id="stop2314" />
      <stop
         style="stop-color:#ff8080;stop-opacity:1;"
         offset="1"
         id="stop2316" />
    </linearGradient>
    <style
       type="text/css"
       id="current-color-scheme">
        .ColorScheme-Text {
        color:#eff0f1;
        }
        .ColorScheme-NegativeText {
        color:#da4453;
        }
        .ColorScheme-Highlight {
        color:#3daee9;
        }
        .ColorScheme-Background {
        color:#31363b;
      }
      .ColorScheme-ButtonBackground {
        color:#444c53;
      }
    </style>
    <linearGradient
       inkscape:collect="always"
       xlink:href="#linearGradient2318"
       id="linearGradient2031-3"
       gradientUnits="userSpaceOnUse"
       gradientTransform="matrix(0.60895488,0,0,0.50146777,-72.33729,-295.05646)"
       x1="127.5132"
       y1="636.1344"
       x2="166.20654"
       y2="596.77771" />
    <linearGradient
       inkscape:collect="always"
       xlink:href="#linearGradient2318"
       id="linearGradient556-6"
       gradientUnits="userSpaceOnUse"
       gradientTransform="matrix(0.46842683,0,0,0.3770488,-17.95175,-213.85768)"
       x1="127.75952"
       y1="636.36816"
       x2="165.38547"
       y2="597.78528" />
  </defs>
  <g
     id="notifications-disabled">
    <path
       style="fill:none;stroke-width:1.45455"
       inkscape:connector-curvature="0"
       d="M 0,0 H 32 V 32 H 0 Z"
       id="path25" />
    <path
       inkscape:connector-curvature="0"
       id="path9068-9-37-8-0-1-9-75"
       d="M 28,7 25,4 H 9 L 5,7 V 24.05866 L 27,24 28,23 Z"
       style="display:inline;overflow:visible;visibility:visible;opacity:0.6;fill:url(#linearGradient2031-3);fill-opacity:1;fill-rule:nonzero;stroke:none;stroke-width:0.773646;marker:none"
       sodipodi:nodetypes="cccccccc" />
    <path
       d="M 25.00007,4 C 24.20436,4 23.44136,4.31604 22.87868,4.87868 22.31605,5.44135 22,6.2043 22,7 22,7.79569 22.31605,8.55864 22.87868,9.12132 23.44137,9.68395 24.20436,10 25.00007,10 25.79575,10 26.55873,9.68395 27.12135,9.12132 27.68404,8.55864 28.00014,7.79569 28.00014,7 27.99934,6.20462 27.68284,5.44208 27.12029,4.87977 26.55788,4.31724 25.79545,4.00092 25.00007,4 Z m 0,4.79999 c -0.47747,0 -0.93523,-0.18965 -1.27292,-0.52711 C 23.38968,7.93521 23.20003,7.47744 23.20003,7 c 0,-0.47745 0.18965,-0.9352 0.52712,-1.27292 C 24.06483,5.38965 24.5226,5.2 25.00007,5.2 c 0.47743,0 0.93518,0.18965 1.27281,0.52708 0.33758,0.33771 0.52723,0.79547 0.52723,1.27292 0,0.47744 -0.18965,0.9352 -0.52723,1.27288 -0.33763,0.33746 -0.79538,0.52711 -1.27281,0.52711 z"
       id="path4-9-6-6-1-3"
       style="fill:#d3dae3;fill-opacity:1;stroke-width:0.0342862" />
    <path
       d="m 7,14 h 9 v 1 H 7 Z"
       id="path6-3-1-0-7-2-5"
       style="fill:#d3dae3;fill-opacity:1;stroke-width:0.03177"
       sodipodi:nodetypes="ccccc" />
    <path
       d="m 7,19 h 12 v 1 H 7 Z"
       id="path8-27-6-5-7-6"
       style="fill:#d3dae3;fill-opacity:1;stroke-width:0.0331523"
       sodipodi:nodetypes="ccccc" />
    <circle
       id="circle-transparent-6-0-2-3-0-2"
       cx="25.00025"
       cy="6.924767"
       r="1.9312507"
       class="ColorScheme-Text"
       style="fill:#ff0000;fill-opacity:1;stroke-width:0.24141" />
    <path
       d="m 7,9 h 12 v 1 H 7 Z"
       id="path4-5-6-3-3-1-5-9-9"
       style="fill:#d3dae3;fill-opacity:1;stroke-width:0.034845"
       sodipodi:nodetypes="ccccc" />
    <path
       d="M 21,4 V 4 H 9.0360473 C 7.7008817,4.001 6.4207776,4.46217 5.4767379,5.40636 4.5325875,6.35035 4.0015508,7.63049 4,8.96567 v 13.92805 -1.9e-4 c 9.23e-4,1.33518 0.5325875,2.61531 1.4767379,3.55931 C 6.4207776,27.39703 7.7008817,27.99847 9.0360473,28 h 1.9639747 l 4.999983,3 4.999964,-3 h 1.964159 -1.84e-4 c 1.335156,-0.002 2.615269,-0.60297 3.559309,-1.54716 0.944151,-0.944 1.475187,-2.22413 1.476737,-3.55931 L 28,11 Z M 9.2000226,6 H 21 v 0 l 0,-2 v 0 l 7,7 h -1.846153 l -10e-6,12 H 5.8461532 V 9 C 5.8470578,8.11291 6.441796,7.22809 7.0690911,6.60086 7.6962293,5.97362 8.312946,6.00109 9.2000688,5.99999 Z"
       id="path1193-7-3-6-9-6-3-1"
       style="fill:#d3dae3;fill-opacity:1;stroke-width:0.0476191"
       sodipodi:nodetypes="ccccccccccccccccccccccccccccccc" />
  </g>
  <g
     id="22-22-notifications-disabled">
    <rect
       style="opacity:0.00100002;stroke-width:0.999999"
       width="22"
       height="22"
       x="39.000008"
       y="9.9999628"
       id="rect601-2-2" />
    <path
       inkscape:connector-curvature="0"
       id="path9068-9-37-8-0-1-9-7-7"
       d="M 60.00001,12.99978 57.99801,11 H 44.95453 l -3.41606,2.25568 v 12.82623 l 17.69231,-0.0442 0.76923,-0.75186 z"
       style="display:inline;overflow:visible;visibility:visible;opacity:0.6;fill:url(#linearGradient556-6);fill-opacity:1;fill-rule:nonzero;stroke:none;stroke-width:0.588366;marker:none"
       sodipodi:nodetypes="cccccccc" />
    <path
       d="m 43.00001,18 h 7 v 1 h -7 z"
       id="path6-3-1-0-7-2-3-0"
       style="fill:#d3dae3;fill-opacity:1;stroke-width:0.0241615"
       sodipodi:nodetypes="ccccc" />
    <path
       d="m 43.00001,21 h 9 v 1 h -9 z"
       id="path8-27-6-5-7-5-9"
       style="fill:#d3dae3;fill-opacity:1;stroke-width:0.0252127"
       sodipodi:nodetypes="ccccc" />
    <path
       d="m 43.00001,15 h 9 v 1 h -9 z"
       id="path4-5-6-3-3-1-5-9-2-3"
       style="fill:#d3dae3;fill-opacity:1;stroke-width:0.0265001"
       sodipodi:nodetypes="ccccc" />
    <path
       d="m 54.00001,11 v 0 h -9.80329 c -1.11264,7.7e-4 -2.17939,0.34752 -2.96609,1.05742 -0.7868,0.70977 -1.22933,1.6723 -1.23062,2.67623 V 25.206 25.20585 c 7.7e-4,1.00392 0.44382,1.96644 1.23062,2.67623 0.7867,0.70993 1.85345,1.16215 2.96609,1.16329 h 1.63664 L 50.00001,31 54.16666,29.04537 h 1.6368 -1.6e-4 c 1.11263,-0.002 2.17939,-0.45336 2.96609,-1.16329 0.7868,-0.70979 1.22933,-1.67231 1.23062,-2.67623 V 17 Z m -10,2 h 10 v 0 -2 0 l 6,6 h -2 v 8 h -16 V 15 c 0,-1 1,-2 2,-2 z"
       id="path1193-7-3-6-9-6-3-9-6"
       style="fill:#d3dae3;fill-opacity:1;stroke-width:0.0376936"
       sodipodi:nodetypes="ccccccccccccccccccccccccccccc" />
    <path
       d="m 58.00008,10.99978 c -0.53051,0 -1.03917,0.2107 -1.41427,0.5858 -0.3751,0.3751 -0.5858,0.8837 -0.5858,1.4142 0,0.53049 0.2107,1.0391 0.5858,1.4142 0.37511,0.3751 0.88376,0.5858 1.41427,0.5858 0.53043,0 1.03906,-0.2107 1.41414,-0.5858 0.37517,-0.3751 0.58589,-0.88371 0.58589,-1.4142 -5.6e-4,-0.53024 -0.21152,-1.0386 -0.5866,-1.41349 -0.3749,-0.37501 -0.8832,-0.58591 -1.41343,-0.58651 z m 0,3.19999 c -0.31833,0 -0.62349,-0.12645 -0.84866,-0.35139 -0.22493,-0.22513 -0.35138,-0.5303 -0.35138,-0.8486 0,-0.3183 0.12645,-0.62346 0.35138,-0.8486 0.22516,-0.22495 0.53033,-0.3514 0.84866,-0.3514 0.31823,0 0.62343,0.12645 0.84853,0.3514 0.22506,0.22513 0.3515,0.5303 0.3515,0.8486 0,0.3183 -0.12644,0.62346 -0.3515,0.8486 -0.2251,0.22494 -0.5303,0.35139 -0.84853,0.35139 z"
       id="path4-9-6-6-1-7"
       style="fill:#d3dae3;fill-opacity:1;stroke-width:0.0228576" />
    <circle
       id="circle-transparent-6-0-2-3-0-5"
       cx="57.999962"
       cy="12.949487"
       r="1.2875007"
       class="ColorScheme-Text"
       style="fill:#ff0000;fill-opacity:1;stroke-width:0.16094" />
  </g>
</svg>
