<?xml version="1.0" encoding="UTF-8" standalone="no"?>
<svg
   width="8.4666662mm"
   height="8.4666662mm"
   viewBox="0 0 31.999999 32"
   version="1.1"
   id="svg881"
   inkscape:version="1.2.2 (b0a8486541, 2022-12-01)"
   sodipodi:docname="notification.svg"
   xmlns:inkscape="http://www.inkscape.org/namespaces/inkscape"
   xmlns:sodipodi="http://sodipodi.sourceforge.net/DTD/sodipodi-0.dtd"
   xmlns:xlink="http://www.w3.org/1999/xlink"
   xmlns="http://www.w3.org/2000/svg"
   xmlns:svg="http://www.w3.org/2000/svg"
   xmlns:rdf="http://www.w3.org/1999/02/22-rdf-syntax-ns#"
   xmlns:cc="http://creativecommons.org/ns#"
   xmlns:dc="http://purl.org/dc/elements/1.1/">
  <defs
     id="defs875">
    <linearGradient
       inkscape:collect="always"
       id="linearGradient939">
      <stop
         style="stop-color:#8f62d4;stop-opacity:1;"
         offset="0"
         id="stop935" />
      <stop
         style="stop-color:#36c3a7;stop-opacity:1;"
         offset="1"
         id="stop937" />
    </linearGradient>
    <linearGradient
       inkscape:collect="always"
       id="linearGradient1100">
      <stop
         style="stop-color:#2a7fff;stop-opacity:1"
         offset="0"
         id="stop1096" />
      <stop
         style="stop-color:#2ad4ff;stop-opacity:1"
         offset="1"
         id="stop1098" />
    </linearGradient>
    <linearGradient
       inkscape:collect="always"
       id="linearGradient1057">
      <stop
         style="stop-color:#ff0000;stop-opacity:1"
         offset="0"
         id="stop1053" />
      <stop
         style="stop-color:#ff8080;stop-opacity:1"
         offset="1"
         id="stop1055" />
    </linearGradient>
    <linearGradient
       inkscape:collect="always"
       xlink:href="#linearGradient1100"
       id="linearGradient5058-3"
       x1="129.01816"
       y1="634.49792"
       x2="166.91818"
       y2="596.47168"
       gradientUnits="userSpaceOnUse"
       gradientTransform="matrix(0.6000001,0,0,0.50294271,132.62495,425.19184)" />
    <linearGradient
       inkscape:collect="always"
       xlink:href="#linearGradient939"
       id="linearGradient5058"
       x1="146.70592"
       y1="597.24854"
       x2="146.70592"
       y2="634.91577"
       gradientUnits="userSpaceOnUse"
       gradientTransform="matrix(0.55820858,0,0,0.451321,138.93243,420.69465)" />
    <linearGradient
       inkscape:collect="always"
       xlink:href="#linearGradient1057"
       id="linearGradient2031"
       gradientUnits="userSpaceOnUse"
       gradientTransform="matrix(0.60895488,0,0,0.50146777,132.48764,346.189)"
       x1="127.5132"
       y1="636.1344"
       x2="166.20654"
       y2="596.77771" />
    <linearGradient
       inkscape:collect="always"
       xlink:href="#linearGradient1057"
       id="linearGradient556"
       gradientUnits="userSpaceOnUse"
       gradientTransform="matrix(0.46842683,0,0,0.3770488,186.87318,427.38778)"
       x1="127.75952"
       y1="636.36816"
       x2="165.38547"
       y2="597.78528" />
    <linearGradient
       inkscape:collect="always"
       xlink:href="#linearGradient1100"
       id="linearGradient2065"
       gradientUnits="userSpaceOnUse"
       gradientTransform="matrix(0.46842683,0,0,0.3770488,187.87318,507.38778)"
       x1="127.83673"
       y1="634.75598"
       x2="166.70726"
       y2="597.40833" />
    <linearGradient
       inkscape:collect="always"
       xlink:href="#linearGradient939"
       id="linearGradient3112"
       gradientUnits="userSpaceOnUse"
       gradientTransform="matrix(0.42939122,0,0,0.33849078,192.83067,494.58229)"
       x1="146.70592"
       y1="597.24854"
       x2="146.70592"
       y2="634.91577" />
  </defs>
  <sodipodi:namedview
     id="base"
     pagecolor="#ffffff"
     bordercolor="#000000"
     borderopacity="1"
     inkscape:pageopacity="0.0"
     inkscape:pageshadow="2"
     inkscape:zoom="4"
     inkscape:cx="43.375"
     inkscape:cy="-7.5"
     inkscape:document-units="px"
     inkscape:current-layer="layer1"
     showgrid="false"
     inkscape:window-width="1920"
     inkscape:window-height="994"
     inkscape:window-x="0"
     inkscape:window-y="0"
     inkscape:window-maximized="1"
     inkscape:lockguides="false"
     inkscape:document-rotation="0"
     inkscape:pagecheckerboard="0"
     inkscape:showpageshadow="true"
     showguides="false"
     inkscape:deskcolor="#d1d1d1">
    <inkscape:grid
       type="xygrid"
       id="grid4000"
       originx="2.4000001e-05"
       originy="-36.999998" />
  </sodipodi:namedview>
  <metadata
     id="metadata878">
    <rdf:RDF>
      <cc:Work
         rdf:about="">
        <dc:format>image/svg+xml</dc:format>
        <dc:type
           rdf:resource="http://purl.org/dc/dcmitype/StillImage" />
      </cc:Work>
    </rdf:RDF>
  </metadata>
  <g
     inkscape:label="Layer 1"
     inkscape:groupmode="layer"
     id="layer1"
     transform="translate(-204.82493,-721.24546)">
    <g
       id="22-22-notification-inactive">
      <rect
         style="opacity:0.00100002;stroke-width:0.999999"
         width="22"
         height="22"
         x="244.82491"
         y="694.24542"
         id="rect601" />
      <path
         inkscape:connector-curvature="0"
         id="path9068-9-37-8-0-1-5"
         d="m 264.28644,696.44542 h -16.92308 v 13.53957 l 16.92308,-0.0791 z"
         style="display:inline;overflow:visible;visibility:visible;opacity:0.6;fill:url(#linearGradient3112);fill-opacity:1;fill-rule:nonzero;stroke:none;stroke-width:0.533739;marker:none"
         sodipodi:nodetypes="ccccc" />
      <path
         d="m 249.82494,702.24546 h 7 v 1 h -7 z"
         id="path6-3-1-0-4-2-9"
         style="fill:#d3dae3;fill-opacity:1;stroke-width:0.0240642"
         sodipodi:nodetypes="ccccc" />
      <path
         d="m 249.82494,706.24546 h 9 v 1 h -9 z"
         id="path8-27-6-9-6-2"
         style="fill:#d3dae3;fill-opacity:1;stroke-width:0.0241314"
         sodipodi:nodetypes="ccccc" />
      <path
         d="m 249.82494,699.24546 h 9 v 1 h -9 z"
         id="path4-5-6-3-3-1-2-6-2"
         style="fill:#d3dae3;fill-opacity:1;stroke-width:0.0264667"
         sodipodi:nodetypes="ccccc" />
      <path
         d="m 261.62796,695.24542 h -11.60634 c -1.11265,7.7e-4 -2.17942,0.39944 -2.96609,1.10759 -0.78681,0.70795 -1.22935,1.66807 -1.23063,2.66945 v 10.44604 -1.4e-4 c 7.7e-4,1.00138 0.44382,1.96149 1.23063,2.66949 0.78667,0.70815 1.85344,1.10642 2.96609,1.10759 h 1.63662 l 4.1667,2.00002 4.16662,-2.00002 h 1.63677 -1.5e-4 c 1.11264,-0.002 2.17941,-0.39944 2.96609,-1.10759 0.78681,-0.708 1.22935,-1.66811 1.23063,-2.66949 v -10.44569 c -0.002,-1.00137 -0.44382,-1.96149 -1.23063,-2.66949 -0.78668,-0.7081 -1.85345,-1.10642 -2.96609,-1.10754 z m -11.80302,2.00004 h 12 c 1,0 2,1 2,2 v 0 10 h -16 v -10 c 0,-1 1,-2 2,-2 z"
         id="path1193-7-3-6-4-8"
         style="fill:#d3dae3;fill-opacity:1;stroke-width:0.0376464"
         sodipodi:nodetypes="ccccccccccccccccccccccccccc" />
    </g>
    <g
       id="g1447">
      <path
         style="fill:none;stroke-width:1.45455"
         inkscape:connector-curvature="0"
         d="m 204.82493,641.24546 h 32 v 32 h -32 z"
         id="path25" />
      <path
         inkscape:connector-curvature="0"
         id="path9068-9-37-8-0-1-9"
         d="m 232.82495,648.24547 -2.99995,-3.00001 h -16.00007 l -4,3 v 17.05866 l 21.9315,-0.0587 1.06852,-0.99995 z"
         style="display:inline;overflow:visible;visibility:visible;opacity:0.6;fill:url(#linearGradient2031);fill-opacity:1;fill-rule:nonzero;stroke:none;stroke-width:0.773646;marker:none"
         sodipodi:nodetypes="cccccccc" />
      <path
         d="m 229.825,645.24546 c -0.79571,0 -1.55871,0.31604 -2.12139,0.87868 -0.56263,0.56267 -0.87868,1.32562 -0.87868,2.12132 0,0.79569 0.31605,1.55864 0.87868,2.12132 0.56269,0.56263 1.32568,0.87868 2.12139,0.87868 0.79568,0 1.55866,-0.31605 2.12128,-0.87868 0.56269,-0.56268 0.87879,-1.32563 0.87879,-2.12132 -8e-4,-0.79538 -0.3173,-1.55792 -0.87985,-2.12023 -0.56241,-0.56253 -1.32484,-0.87885 -2.12022,-0.87977 z m 0,4.79999 c -0.47747,0 -0.93523,-0.18965 -1.27292,-0.52711 -0.33747,-0.33767 -0.52712,-0.79544 -0.52712,-1.27288 0,-0.47745 0.18965,-0.9352 0.52712,-1.27292 0.33768,-0.33743 0.79545,-0.52708 1.27292,-0.52708 0.47743,0 0.93518,0.18965 1.27281,0.52708 0.33758,0.33771 0.52723,0.79547 0.52723,1.27292 0,0.47744 -0.18965,0.9352 -0.52723,1.27288 -0.33763,0.33746 -0.79538,0.52711 -1.27281,0.52711 z"
         id="path4-9-6-6-1"
         style="fill:#d3dae3;fill-opacity:1;stroke-width:0.0342862" />
      <path
         d="m 211.82493,655.24546 h 9 v 1 h -9 z"
         id="path6-3-1-0-7-2"
         style="fill:#d3dae3;fill-opacity:1;stroke-width:0.03177"
         sodipodi:nodetypes="ccccc" />
      <path
         d="m 211.82493,660.24546 h 12 v 1 h -12 z"
         id="path8-27-6-5-7"
         style="fill:#d3dae3;fill-opacity:1;stroke-width:0.0331523"
         sodipodi:nodetypes="ccccc" />
      <circle
         id="circle-transparent-6-0-2-3-0"
         cx="229.82518"
         cy="648.17023"
         r="1.9312507"
         class="ColorScheme-Text"
         style="fill:#ff0000;fill-opacity:1;stroke-width:0.24141" />
      <path
         d="m 211.82493,650.24546 h 12 v 1 h -12 z"
         id="path4-5-6-3-3-1-5-9"
         style="fill:#d3dae3;fill-opacity:1;stroke-width:0.034845"
         sodipodi:nodetypes="ccccc" />
      <path
         d="m 225.82495,645.24546 v 0 l -11.96395,0 c -1.33517,10e-4 -2.61527,0.46217 -3.55931,1.40636 -0.94415,0.94399 -1.47518,2.22413 -1.47674,3.55931 v 13.92805 -1.9e-4 c 9.2e-4,1.33518 0.53259,2.61531 1.47674,3.55931 0.94404,0.94419 2.22414,1.54563 3.55931,1.54716 h 1.96398 l 4.99998,3 4.99996,-3 h 1.96416 -1.8e-4 c 1.33516,-0.002 2.61527,-0.60297 3.55931,-1.54716 0.94415,-0.944 1.47519,-2.22413 1.47674,-3.55931 v -11.89353 z m -11.79997,2 11.79997,0 v 0 l 0,-2 v 0 l 7,7 h -1.84615 l -1e-5,12 h -20.30768 v -14 c 9e-4,-0.88709 0.59564,-1.77191 1.22293,-2.39914 0.62714,-0.62724 1.24386,-0.59977 2.13098,-0.60087 z"
         id="path1193-7-3-6-9-6-3"
         style="fill:#d3dae3;fill-opacity:1;stroke-width:0.0476192"
         sodipodi:nodetypes="ccccccccccccccccccccccccccccccc" />
    </g>
    <g
       id="notification-active">
      <path
         style="fill:none;stroke-width:1.45455"
         inkscape:connector-curvature="0"
         d="m 204.82493,721.24546 h 32 v 32 h -32 z"
         id="path14" />
      <path
         inkscape:connector-curvature="0"
         id="path9068-9-37-8-0-1-2"
         d="m 232.82495,728.24546 c -0.0682,-1.78157 -1.81325,-2.99802 -2.88,-3 h -16.32002 l -3.84,2 0.04,18.00001 h 22.00002 l 0.04,-10e-6 0.96,-1.01824 z"
         style="display:inline;overflow:visible;visibility:visible;opacity:0.5;fill:url(#linearGradient5058-3);fill-opacity:1;fill-rule:nonzero;stroke:none;stroke-width:0.769067;marker:none"
         sodipodi:nodetypes="ccccccccc" />
      <path
         d="m 229.825,725.24546 c -0.7957,0 -1.55869,0.31607 -2.12143,0.87864 -0.56257,0.56272 -0.87864,1.32567 -0.87864,2.12136 0,0.79569 0.31607,1.55867 0.87864,2.12124 0.56275,0.56269 1.32573,0.87876 2.12143,0.87876 0.79569,0 1.55866,-0.31607 2.12117,-0.87876 0.5628,-0.5626 0.87889,-1.32555 0.87889,-2.12124 -7.5e-4,-0.79536 -0.31729,-1.55796 -0.87982,-2.12021 -0.56247,-0.56252 -1.32484,-0.87895 -2.12024,-0.87979 z m 0,4.79999 c -0.47745,0 -0.93523,-0.18964 -1.27303,-0.52715 -0.33737,-0.3378 -0.52701,-0.7954 -0.52701,-1.27284 0,-0.47744 0.18964,-0.93517 0.52701,-1.27296 0.3378,-0.33739 0.79558,-0.52704 1.27303,-0.52704 0.47744,0 0.9352,0.18965 1.27277,0.52704 0.33762,0.33778 0.52725,0.79552 0.52725,1.27296 0,0.47744 -0.18963,0.93504 -0.52725,1.27284 -0.33757,0.33751 -0.79533,0.52715 -1.27277,0.52715 z"
         id="path4-9-6-3"
         style="fill:#d3dae3;fill-opacity:1;stroke-width:0.0342864" />
      <path
         d="m 212.82494,735.27946 8.99999,-0.034 v 0.966 l -8.99999,0.034 z"
         id="path6-3-1-0-6"
         style="fill:#d3dae3;fill-opacity:1;stroke-width:0.03177"
         sodipodi:nodetypes="ccccc" />
      <path
         d="m 212.82493,740.24546 h 12 v 1 h -12 z"
         id="path8-27-6-7"
         style="fill:#d3dae3;fill-opacity:1;stroke-width:0.0331523"
         sodipodi:nodetypes="ccccc" />
      <ellipse
         id="circle-transparent-6-0-2-5"
         cx="229.82518"
         cy="728.17029"
         class="ColorScheme-Text"
         style="fill:#1a9fe5;fill-opacity:1;stroke-width:0.241416"
         rx="1.9312499"
         ry="1.9312503" />
      <path
         d="m 212.82493,730.24546 h 12 v 1 h -11.99999 z"
         id="path4-5-6-3-3-1-3"
         style="fill:#d3dae3;fill-opacity:1;stroke-width:0.034845"
         sodipodi:nodetypes="ccccc" />
      <path
         d="m 225.82495,725.24546 h -1 -10.96393 c -1.33519,10e-4 -2.61531,0.53257 -3.55931,1.47676 -0.94417,0.94399 -1.47522,2.22413 -1.47676,3.55931 v 13.92805 -1.9e-4 c 9.2e-4,1.33518 0.53259,2.61531 1.47676,3.55931 0.944,0.94419 2.22412,1.47523 3.55931,1.47676 h 1.96394 l 5,3 4.99998,-3 h 1.96412 -1.8e-4 c 1.33518,-0.002 2.61531,-0.53257 3.55931,-1.47676 0.94417,-0.944 1.47522,-2.22413 1.47676,-3.55931 v -11.96393 z m -12.38461,2 h 11.38461 1 l 0,-2 0,0 7,7 h -1.84615 l -1e-5,12 h -20.30768 v -14 0 c 0,-2 1.84615,-3 2.76923,-3 z"
         id="path1193-7-3-6-9-5"
         style="fill:#d3dae3;fill-opacity:1;stroke-width:0.0476191"
         sodipodi:nodetypes="cccccccccccccccccccccccccccccc" />
    </g>
    <g
       id="notification-progress-active"
       transform="translate(278.82493,688.24546)">
      <path
         style="fill:none"
         inkscape:connector-curvature="0"
         id="empty-rectangle"
         d="M 1,1 H 23 V 23 H 1 Z" />
      <circle
         id="circle-blue"
         cx="12"
         cy="12"
         r="8"
         class="ColorScheme-ButtonFocus"
         style="fill:#5e81ac;fill-opacity:1" />
    </g>
    <g
       id="notification-progress-inactive"
       transform="translate(278.82493,728.24546)">
      <path
         style="fill:none"
         inkscape:connector-curvature="0"
         id="path10"
         d="M 1,1 H 23 V 23 H 1 Z" />
      <circle
         id="circle-transparent"
         cx="12"
         cy="12"
         r="8"
         class="ColorScheme-Text"
         style="opacity:0.4;fill:#5e81ac;fill-opacity:1" />
    </g>
    <path
       inkscape:connector-curvature="0"
       id="expander-bottom"
       d="m 191.82493,709.24546 2,-2 2,2 z"
       class="ColorScheme-Text"
       style="fill:#5e81ac;fill-opacity:1" />
    <path
       inkscape:connector-curvature="0"
       id="expander-top"
       d="m 191.82493,703.24546 2,2 2,-2 z"
       class="ColorScheme-Text"
       style="fill:#5e81ac;fill-opacity:1" />
    <path
       inkscape:connector-curvature="0"
       id="expander-right"
       d="m 196.82493,704.24546 -2,2 2,2 z"
       class="ColorScheme-Text"
       style="fill:#5e81ac;fill-opacity:1" />
    <path
       inkscape:connector-curvature="0"
       id="expander-left"
       d="m 190.82493,704.24546 2,2 -2,2 z"
       class="ColorScheme-Text"
       style="fill:#5e81ac;fill-opacity:1" />
    <g
       id="notification-empty"
       transform="translate(278.82493,648.24546)">
      <path
         style="fill:none"
         inkscape:connector-curvature="0"
         id="path31"
         d="M 1,1 H 23 V 23 H 1 Z" />
      <path
         inkscape:connector-curvature="0"
         id="circle-outline"
         d="m 12,4 a 8,8 0 0 0 -8,8 8,8 0 0 0 8,8 8,8 0 0 0 8,-8 8,8 0 0 0 -8,-8 z m 0,1 a 7,7 0 0 1 7,7 7,7 0 0 1 -7,7 7,7 0 0 1 -7,-7 7,7 0 0 1 7,-7 z"
         class="ColorScheme-Text"
         style="fill:#d3dae3;fill-opacity:1" />
    </g>
    <g
       id="notification-inactive">
      <path
         style="fill:none;stroke-width:1.45455"
         inkscape:connector-curvature="0"
         d="m 204.82493,684.24546 h 32 v 32 h -32 z"
         id="path14-1" />
      <path
         inkscape:connector-curvature="0"
         id="path9068-9-37-8-0-1"
         d="m 230.82495,690.24547 h -20 l -1.00002,17.65278 22,-0.10558 z"
         style="display:inline;overflow:visible;visibility:visible;opacity:0.6;fill:url(#linearGradient5058);fill-opacity:1;fill-rule:nonzero;stroke:none;stroke-width:0.702699;marker:none"
         sodipodi:nodetypes="ccccc" />
      <path
         d="m 212.82493,698.24546 h 9 v 1 h -8.99998 z"
         id="path6-3-1-0-4-2"
         style="fill:#d3dae3;fill-opacity:1;stroke-width:0.0316821"
         sodipodi:nodetypes="ccccc" />
      <path
         d="m 212.87494,703.27946 11.94999,-0.034 v 1 l -12,2e-5 z"
         id="path8-27-6-9-6"
         style="fill:#d3dae3;fill-opacity:1;stroke-width:0.0317705"
         sodipodi:nodetypes="ccccc" />
      <path
         d="m 212.82493,693.24546 h 12 v 1 h -11.99999 z"
         id="path4-5-6-3-3-1-2-6"
         style="fill:#d3dae3;fill-opacity:1;stroke-width:0.034845"
         sodipodi:nodetypes="ccccc" />
      <path
         d="m 227.78862,688.24546 h -13.9276 c -1.33519,10e-4 -2.61531,0.53257 -3.55931,1.47676 -0.94417,0.94399 -1.47522,2.22413 -1.47676,3.55931 v 13.92805 -1.9e-4 c 9.2e-4,1.33518 0.53259,2.61531 1.47676,3.55931 0.944,0.94419 2.22412,1.47523 3.55931,1.47676 h 1.96394 l 5,3 4.99998,-3 h 1.96412 -1.8e-4 c 1.33518,-0.002 2.6153,-0.53257 3.55931,-1.47676 0.94417,-0.944 1.47521,-2.22413 1.47676,-3.55931 v -13.92757 c -0.002,-1.33518 -0.53259,-2.61532 -1.47676,-3.55932 -0.94401,-0.94418 -2.22413,-1.47523 -3.55931,-1.47675 z m -13.76366,2 h 13.5 c 0.88708,10e-4 1.51072,0.0441 2.13795,0.67128 0.6273,0.6272 1.31475,1.44163 1.31589,2.32872 v 14 h -20.30769 v -14 c 9.3e-4,-0.88709 0.59561,-1.70149 1.22289,-2.32872 0.62714,-0.62724 1.24385,-0.67018 2.13096,-0.67128 z"
         id="path1193-7-3-6-4"
         style="fill:#d3dae3;fill-opacity:1;stroke-width:0.0476191"
         sodipodi:nodetypes="cccccccccccccccccccccccccccc" />
    </g>
    <g
       id="22-22-notification-active">
      <rect
         style="opacity:0.00100002;stroke-width:0.999999"
         width="22"
         height="22"
         x="244.82494"
         y="731.24542"
         id="rect601-0" />
      <path
         inkscape:connector-curvature="0"
         id="path9068-9-37-8-0-1-9-7-8"
         d="m 265.82494,734.24524 -2.024,-1.99978 h -13.36062 l -3.07692,2.25568 v 12.82623 l 17.69231,-0.0442 0.76923,-0.75186 z"
         style="display:inline;overflow:visible;visibility:visible;opacity:0.6;fill:url(#linearGradient2065);fill-opacity:1;fill-rule:nonzero;stroke:none;stroke-width:0.588366;marker:none"
         sodipodi:nodetypes="cccccccc" />
      <path
         d="m 248.82494,739.24546 h 7 v 1 h -7 z"
         id="path6-3-1-0-7-2-3-7"
         style="fill:#d3dae3;fill-opacity:1;stroke-width:0.0241615"
         sodipodi:nodetypes="ccccc" />
      <path
         d="m 248.82494,742.24546 h 9 v 1 h -9 z"
         id="path8-27-6-5-7-5-9"
         style="fill:#d3dae3;fill-opacity:1;stroke-width:0.0252127"
         sodipodi:nodetypes="ccccc" />
      <path
         d="m 248.82494,736.24546 h 9 v 1 h -9 z"
         id="path4-5-6-3-3-1-5-9-2-2"
         style="fill:#d3dae3;fill-opacity:1;stroke-width:0.0265001"
         sodipodi:nodetypes="ccccc" />
      <path
         d="m 259.87251,732.24546 h -0.0476 -9.80329 c -1.11264,7.7e-4 -2.17939,0.34752 -2.96609,1.05742 -0.7868,0.70977 -1.22933,1.6723 -1.23062,2.67623 v 10.47235 -1.5e-4 c 7.7e-4,1.00392 0.44382,1.96644 1.23062,2.67623 0.7867,0.70993 1.85345,1.16215 2.96609,1.16329 h 1.63664 l 4.16665,1.95463 4.16665,-1.95463 h 1.6368 -1.6e-4 c 1.11263,-0.002 2.17939,-0.45336 2.96609,-1.16329 0.7868,-0.70979 1.22933,-1.67231 1.23062,-2.67623 l 3e-5,-8.17762 z m -10.04757,2 h 10 v 0 l 0.0476,-2 v 0 l 5.9524,6.02823 -2,-0.0282 3e-5,8.00001 h -16 v -10 c 0,-1 1,-2 2,-2 z"
         id="path1193-7-3-6-9-6-3-9-0"
         style="fill:#d3dae3;fill-opacity:1;stroke-width:0.0376936"
         sodipodi:nodetypes="cccccccccccccccccccccccccccccc" />
      <path
         d="m 263.82501,732.24524 c -0.5305,0 -1.03913,0.21069 -1.41427,0.5858 -0.37511,0.37512 -0.5858,0.88371 -0.5858,1.4142 0,0.53049 0.21069,1.03909 0.5858,1.4142 0.37515,0.37511 0.88377,0.5858 1.41427,0.5858 0.53045,0 1.03906,-0.21069 1.41413,-0.5858 0.3752,-0.37512 0.58591,-0.88371 0.58591,-1.4142 -5.3e-4,-0.5302 -0.21151,-1.0386 -0.5866,-1.41345 -0.37491,-0.37506 -0.88322,-0.58595 -1.41344,-0.58655 z m 0,3.19999 c -0.31829,0 -0.62347,-0.12644 -0.84867,-0.35139 -0.22493,-0.2252 -0.35137,-0.53032 -0.35137,-0.8486 0,-0.31828 0.12644,-0.62341 0.35137,-0.8486 0.2252,-0.22495 0.53038,-0.3514 0.84867,-0.3514 0.31824,0 0.62342,0.12645 0.84853,0.3514 0.22506,0.22518 0.35149,0.53032 0.35149,0.8486 0,0.31828 -0.12643,0.6234 -0.35149,0.8486 -0.22511,0.22495 -0.53029,0.35139 -0.84853,0.35139 z"
         id="path4-9-6-3-3"
         style="fill:#d3dae3;fill-opacity:1;stroke-width:0.022858" />
      <ellipse
         id="circle-transparent-6-0-2-5-6"
         cx="263.82501"
         cy="734.19489"
         class="ColorScheme-Text"
         style="fill:#1a9fe5;fill-opacity:1;stroke-width:0.16094"
         rx="1.2875001"
         ry="1.2875006" />
    </g>
    <g
       id="notification-disabled">
      <rect
         style="opacity:0.00100002;stroke-width:0.999999"
         width="22"
         height="22"
         x="243.82494"
         y="651.24542"
         id="rect601-2" />
      <path
         inkscape:connector-curvature="0"
         id="path9068-9-37-8-0-1-9-7"
         d="m 264.82494,654.24524 -2.002,-1.99978 h -13.04348 l -3.41606,2.25568 v 12.82623 l 17.69231,-0.0442 0.76923,-0.75186 z"
         style="display:inline;overflow:visible;visibility:visible;opacity:0.6;fill:url(#linearGradient556);fill-opacity:1;fill-rule:nonzero;stroke:none;stroke-width:0.588366;marker:none"
         sodipodi:nodetypes="cccccccc" />
      <path
         d="m 247.82494,659.24546 h 7 v 1 h -7 z"
         id="path6-3-1-0-7-2-3"
         style="fill:#d3dae3;fill-opacity:1;stroke-width:0.0241615"
         sodipodi:nodetypes="ccccc" />
      <path
         d="m 247.82494,662.24546 h 9 v 1 h -9 z"
         id="path8-27-6-5-7-5"
         style="fill:#d3dae3;fill-opacity:1;stroke-width:0.0252127"
         sodipodi:nodetypes="ccccc" />
      <path
         d="m 247.82494,656.24546 h 9 v 1 h -9 z"
         id="path4-5-6-3-3-1-5-9-2"
         style="fill:#d3dae3;fill-opacity:1;stroke-width:0.0265001"
         sodipodi:nodetypes="ccccc" />
      <path
         d="m 258.82494,652.24546 v 0 h -9.80329 c -1.11264,7.7e-4 -2.17939,0.34752 -2.96609,1.05742 -0.7868,0.70977 -1.22933,1.6723 -1.23062,2.67623 v 10.47235 -1.5e-4 c 7.7e-4,1.00392 0.44382,1.96644 1.23062,2.67623 0.7867,0.70993 1.85345,1.16215 2.96609,1.16329 h 1.63664 l 4.16665,1.95463 4.16665,-1.95463 h 1.6368 -1.6e-4 c 1.11263,-0.002 2.17939,-0.45336 2.96609,-1.16329 0.7868,-0.70979 1.22933,-1.67231 1.23062,-2.67623 v -8.20585 z m -10,2 h 10 v 0 -2 0 l 6,6 h -2 v 8 h -16 v -10 c 0,-1 1,-2 2,-2 z"
         id="path1193-7-3-6-9-6-3-9"
         style="fill:#d3dae3;fill-opacity:1;stroke-width:0.0376936"
         sodipodi:nodetypes="ccccccccccccccccccccccccccccc" />
      <path
         d="m 262.82501,652.24524 c -0.53051,0 -1.03917,0.2107 -1.41427,0.5858 -0.3751,0.3751 -0.5858,0.8837 -0.5858,1.4142 0,0.53049 0.2107,1.0391 0.5858,1.4142 0.37511,0.3751 0.88376,0.5858 1.41427,0.5858 0.53043,0 1.03906,-0.2107 1.41414,-0.5858 0.37517,-0.3751 0.58589,-0.88371 0.58589,-1.4142 -5.6e-4,-0.53024 -0.21152,-1.0386 -0.5866,-1.41349 -0.3749,-0.37501 -0.8832,-0.58591 -1.41343,-0.58651 z m 0,3.19999 c -0.31833,0 -0.62349,-0.12645 -0.84866,-0.35139 -0.22493,-0.22513 -0.35138,-0.5303 -0.35138,-0.8486 0,-0.3183 0.12645,-0.62346 0.35138,-0.8486 0.22516,-0.22495 0.53033,-0.3514 0.84866,-0.3514 0.31823,0 0.62343,0.12645 0.84853,0.3514 0.22506,0.22513 0.3515,0.5303 0.3515,0.8486 0,0.3183 -0.12644,0.62346 -0.3515,0.8486 -0.2251,0.22494 -0.5303,0.35139 -0.84853,0.35139 z"
         id="path4-9-6-6-1-7"
         style="fill:#d3dae3;fill-opacity:1;stroke-width:0.0228576" />
      <circle
         id="circle-transparent-6-0-2-3-0-5"
         cx="262.82489"
         cy="654.19495"
         r="1.2875007"
         class="ColorScheme-Text"
         style="fill:#ff0000;fill-opacity:1;stroke-width:0.16094" />
    </g>
  </g>
</svg>
