<?xml version="1.0" encoding="UTF-8" standalone="no"?>
<svg
   width="32"
   height="32"
   version="1.1"
   id="svg12"
   sodipodi:docname="nulloy.svg"
   inkscape:version="1.2.2 (b0a8486541, 2022-12-01)"
   xmlns:inkscape="http://www.inkscape.org/namespaces/inkscape"
   xmlns:sodipodi="http://sodipodi.sourceforge.net/DTD/sodipodi-0.dtd"
   xmlns:xlink="http://www.w3.org/1999/xlink"
   xmlns="http://www.w3.org/2000/svg"
   xmlns:svg="http://www.w3.org/2000/svg">
  <defs
     id="defs16">
    <linearGradient
       inkscape:collect="always"
       id="linearGradient446">
      <stop
         style="stop-color:#ff4cff;stop-opacity:1;"
         offset="0"
         id="stop442" />
      <stop
         style="stop-color:#ffe680;stop-opacity:1"
         offset="1"
         id="stop444" />
    </linearGradient>
    <linearGradient
       inkscape:collect="always"
       xlink:href="#linearGradient446"
       id="linearGradient5058"
       x1="148.9608"
       y1="596.36218"
       x2="148.9608"
       y2="636.12817"
       gradientUnits="userSpaceOnUse"
       gradientTransform="matrix(0.50999969,0,0,0.42750131,-58.969959,-248.94562)" />
    <linearGradient
       inkscape:collect="always"
       xlink:href="#linearGradient446"
       id="linearGradient6958"
       gradientUnits="userSpaceOnUse"
       gradientTransform="matrix(0.43219982,0,0,0.36977632,-20.54837,-207.9207)"
       x1="146.80391"
       y1="596.36243"
       x2="146.99998"
       y2="636.3623" />
  </defs>
  <sodipodi:namedview
     id="namedview14"
     pagecolor="#ffffff"
     bordercolor="#000000"
     borderopacity="1"
     inkscape:showpageshadow="2"
     inkscape:pageopacity="0"
     inkscape:pagecheckerboard="0"
     inkscape:deskcolor="#cccccc"
     showgrid="false"
     inkscape:zoom="10.429825"
     inkscape:cx="24.305297"
     inkscape:cy="12.176618"
     inkscape:window-width="1920"
     inkscape:window-height="994"
     inkscape:window-x="0"
     inkscape:window-y="0"
     inkscape:window-maximized="1"
     inkscape:current-layer="svg12"
     showguides="false">
    <inkscape:grid
       type="xygrid"
       id="grid559"
       originx="0"
       originy="-4.6325683e-08" />
  </sodipodi:namedview>
  <g
     id="nulloy">
    <rect
       style="opacity:0.00100002"
       width="32"
       height="32"
       x="0"
       y="0"
       id="rect7" />
    <path
       inkscape:connector-curvature="0"
       id="path9068-9-37-8-0-1"
       d="m 26.2,6 -20.4,5e-6 V 23.1 h 20.4 z"
       style="display:inline;overflow:visible;visibility:visible;opacity:0.6;fill:url(#linearGradient5058);fill-opacity:1;fill-rule:nonzero;stroke:none;stroke-width:0.653705;marker:none"
       sodipodi:nodetypes="ccccc" />
    <path
       d="M 22.963625,4 H 9.036071 C 7.70089,4.0015 6.420747,4.532573 5.476753,5.476774 4.532567,6.420786 4.001525,7.700875 4,9.036068 v 13.92805 -1.89e-4 C 4.0015,24.299084 4.05581,25.255988 5,26.2 5.943995,27.144202 7,28 9,28.000093 h 3 L 16,28 h 7 v 9.3e-5 0 C 25,28 26,27.199907 27,26.2 c 0.944187,-0.944012 0.998462,-1.900916 0.999985,-3.236071 V 9.036333 C 27.998185,7.701177 27.467417,6.421051 26.52323,5.477038 25.579236,4.532836 24.299095,4.001814 22.963911,4.000264 Z M 9.200001,6.000012 h 13.599998 c 0.887095,0.0011 1.603761,0.04384 2.231,0.671244 C 25.658231,7.298468 25.9989,8.112919 26,9.000012 V 23.000024 H 6 V 9.000012 C 6.0011,8.112919 6.341774,7.298506 6.969,6.671256 7.596201,6.044043 8.312916,6.001108 9.200001,6.000012 Z"
       id="path1193-7"
       style="fill:#d3dae3;fill-opacity:1;stroke-width:0.047619"
       sodipodi:nodetypes="cccccccccccccccccccccccccccc" />
    <path
       style="fill:#d3dae3;fill-opacity:1;stroke-width:0.575101"
       d="m 9.02658,7.6 0.01328,0.0957 c 0.329637,2.247652 0.518924,4.102423 0.764121,5.229504 0.245202,1.127043 0.550191,1.798483 1.122925,2.170401 0.572728,0.371902 1.388467,0.435462 2.64287,0.394761 1.2544,-0.0407 2.951399,-0.363305 5.294005,-0.4375 l 0.07643,-0.003 -0.01008,-0.07519 C 18.709551,13.248608 18.636067,11.963323 18.486716,11.101694 18.33737,10.240054 18.103597,9.702352 17.568106,9.338034 17.032606,8.973712 16.212584,8.782052 14.88039,8.558738 13.548235,8.335422 11.702014,8.083315 9.117942,7.617087 Z m 11.225911,0 c -0.936486,0 -1.700995,0.781499 -1.700995,1.75 0,0.968607 0.764516,1.75 1.700995,1.75 0.936475,0 1.700994,-0.781393 1.700994,-1.75 0,-0.968501 -0.764508,-1.75 -1.700994,-1.75 z M 23,10.688139 l -0.137865,0.08369 c -1.103498,0.678835 -1.918945,0.800553 -2.549835,1.156988 -0.315461,0.178217 -0.582665,0.418292 -0.800663,0.810047 -0.218014,0.391762 -0.389059,0.932685 -0.526592,1.720947 l -0.01996,0.121333 0.109635,-0.0427 c 1.712934,-0.659579 2.474158,-0.717743 2.935214,-1.06128 0.23051,-0.171768 0.372574,-0.414578 0.503324,-0.816891 0.130739,-0.402309 0.253195,-0.968954 0.448495,-1.811526 z m -0.14119,2.949711 -0.182724,0.06147 c -1.830476,0.628387 -2.580701,0.80914 -2.965132,1.097163 -0.19221,0.144035 -0.283723,0.319602 -0.353824,0.567395 -0.07011,0.247797 -0.124565,0.573999 -0.250822,1.049307 l -0.02999,0.111093 0.109635,-0.02567 c 1.10856,-0.251679 1.619113,-0.311868 2.051495,-0.625481 0.432381,-0.313612 0.760097,-0.860914 1.516613,-2.069568 z m -3.867115,1.78416 -0.09303,0.007 c -2.784062,0.149271 -4.233775,0.168292 -5.199332,0.803215 -0.482765,0.31745 -0.832274,0.831004 -1.151155,1.657727 -0.318899,0.826713 -0.611888,1.680739 -0.985053,3.277831 l -0.02657,0.116202 0.111294,-0.03422 c 1.661592,-0.502221 2.840293,-0.719347 3.700978,-0.861329 0.860703,-0.141977 1.406155,-0.205433 1.810632,-0.416995 0.404493,-0.211556 0.648818,-0.572174 0.892031,-1.26294 0.243216,-0.690768 0.492379,-1.605672 0.915291,-3.192382 z m 3.342196,0.06665 c -0.817607,0.882518 -1.515553,1.042073 -2.056491,1.237307 -0.270458,0.09762 -0.505625,0.206037 -0.682707,0.422113 -0.177082,0.216102 -0.290996,0.532462 -0.335562,1.033932 l -0.007,0.08718 0.08305,-0.0103 c 0.994328,-0.132386 1.552433,-0.234675 1.975095,-0.599847 0.422659,-0.36519 0.691927,-0.974363 1.134545,-2.096923 z m -10.024921,1.650876 -0.121259,0.03252 C 10.925216,17.497448 10.342934,17.89625 9.981732,18.556302 9.620525,19.216325 9.475285,20.11762 9.04153,21.470115 L 9,21.6 9.127908,21.55556 c 0.573124,-0.194978 0.979596,-0.335828 1.290693,-0.49561 0.311103,-0.15974 0.527468,-0.340936 0.702658,-0.610098 0.350379,-0.538288 0.54692,-1.406699 1.146176,-3.190658 z m 9.757475,0.789558 -0.12292,0.04793 c -1.013273,0.396908 -1.569593,0.574151 -1.87376,0.845926 -0.152075,0.135901 -0.23618,0.299705 -0.265774,0.509282 -0.02968,0.209579 -0.01022,0.225029 0.02997,0.565683 l 0.0082,0.07866 0.07481,-0.0188 c 0.345844,-0.08997 0.597222,-0.08931 0.799006,-0.08033 0.201788,0.0091 0.360377,0.03186 0.508307,-0.03938 0.147929,-0.07122 0.260918,-0.230064 0.380398,-0.53662 0.119489,-0.306576 0.248732,-0.530882 0.428572,-1.242433 z"
       id="path9-3" />
  </g>
  <g
     id="22-22-nulloy">
    <rect
       style="opacity:0.00100002"
       width="22"
       height="22"
       x="32"
       y="10.000001"
       id="rect2" />
    <path
       inkscape:connector-curvature="0"
       id="path9068-9-37-8-0-1-0-1-3-7-4-6-1"
       d="m 51.45951,12.600001 -17.11851,5e-6 v 14.790996 h 17.288 z"
       style="display:inline;overflow:visible;visibility:visible;opacity:0.6;fill:url(#linearGradient6958);fill-opacity:1.0;fill-rule:nonzero;stroke:none;stroke-width:0.55969;marker:none"
       sodipodi:nodetypes="cccccc" />
    <path
       d="M 48.80302,11.000001 H 37.19673 c -1.11265,0.0012 -2.17944,0.443811 -2.9661,1.230645 C 33.44381,13.017324 33.00127,14.084064 33,15.196725 v 11.606709 -1.58e-4 c 10e-4,1.11263 0.44381,2.179405 1.23063,2.966075 0.78666,0.78684 1.85345,1.22936 2.9661,1.23065 h 11.60669 -1.6e-4 c 1.11265,-0.001 2.17944,-0.44381 2.9661,-1.23065 0.78682,-0.78667 1.22936,-1.853445 1.23063,-2.966075 V 15.196945 c -0.002,-1.11263 -0.44381,-2.179402 -1.23063,-2.966078 -0.78666,-0.786835 -1.85345,-1.229354 -2.9661,-1.230646 z m -11.17002,2 h 10.734 c 0.73924,9.16e-4 1.5363,0.0032 2.059,0.526 0.52269,0.522677 0.57308,0.901432 0.574,1.640677 V 27.000001 H 35 V 15.166678 c 9.2e-4,-0.739245 0.0513,-1.117968 0.574,-1.640677 0.52267,-0.522677 1.31976,-0.525087 2.059,-0.526 z"
       id="path1193-3-7-2-2-4-2"
       style="fill:#d3dae3;fill-opacity:1;stroke-width:0.0396825"
       sodipodi:nodetypes="ccccccccccccccccccccccccc" />
    <path
       style="fill:#d3dae3;fill-opacity:1;stroke-width:0.492941"
       d="m 37.022783,14.000001 0.01138,0.08203 c 0.282546,1.926559 0.444793,3.516362 0.654962,4.482432 0.210173,0.966037 0.471592,1.541558 0.962507,1.860346 0.49091,0.318776 1.190115,0.373256 2.265317,0.338365 1.0752,-0.03489 2.529773,-0.311404 4.537719,-0.374999 l 0.06552,-0.0027 -0.0087,-0.06443 c -0.189017,-1.479377 -0.252001,-2.58105 -0.380018,-3.319589 -0.12801,-0.738549 -0.328386,-1.199436 -0.78738,-1.511709 -0.459,-0.312276 -1.161872,-0.476556 -2.303756,-0.667968 -1.141847,-0.191413 -2.724322,-0.407505 -4.939241,-0.807129 z m 9.622208,0 c -0.802701,0 -1.457995,0.669856 -1.457995,1.5 0,0.830235 0.655297,1.5 1.457995,1.5 0.802695,0 1.457995,-0.669765 1.457995,-1.5 0,-0.830144 -0.655289,-1.5 -1.457995,-1.5 z M 49,16.646977 l -0.11817,0.07174 c -0.945853,0.581858 -1.64481,0.686188 -2.18557,0.991704 -0.2704,0.152757 -0.49943,0.358536 -0.686283,0.694326 -0.186874,0.335796 -0.333479,0.799444 -0.451367,1.475097 l -0.01711,0.104 0.09396,-0.0366 c 1.468236,-0.565353 2.120711,-0.615209 2.515905,-0.909668 0.197578,-0.14723 0.319348,-0.355353 0.431422,-0.700193 0.112061,-0.344836 0.217021,-0.830532 0.384421,-1.552736 z m -0.12102,2.528324 -0.15662,0.05269 c -1.56898,0.538617 -2.21203,0.693549 -2.541545,0.940426 -0.164751,0.123458 -0.243185,0.273945 -0.303275,0.486339 -0.06011,0.212395 -0.10677,0.491996 -0.214992,0.899404 l -0.02572,0.09521 0.09396,-0.02201 c 0.950193,-0.215726 1.387812,-0.267316 1.758428,-0.536129 0.370608,-0.268809 0.651506,-0.737922 1.299953,-1.773912 z m -3.31467,1.52928 -0.07977,0.0061 c -2.386331,0.127939 -3.628941,0.144241 -4.456562,0.688464 -0.413798,0.272097 -0.713377,0.712286 -0.986704,1.420906 -0.273342,0.708613 -0.524475,1.440636 -0.844331,2.809571 l -0.02277,0.09956 0.0954,-0.02934 c 1.424222,-0.430477 2.434537,-0.616583 3.172265,-0.738284 0.737745,-0.121691 1.205276,-0.176086 1.551972,-0.357423 0.346707,-0.181332 0.556133,-0.490437 0.764597,-1.082521 0.208471,-0.592083 0.422041,-1.376288 0.784539,-2.736328 z m 2.864741,0.05712 c -0.700807,0.756446 -1.299046,0.893203 -1.76271,1.060551 -0.231819,0.08367 -0.433391,0.176603 -0.585174,0.361808 -0.151787,0.185232 -0.249429,0.456392 -0.287627,0.886227 l -0.0061,0.07474 0.07119,-0.009 c 0.852284,-0.113429 1.33066,-0.201105 1.692941,-0.514111 0.362279,-0.31302 0.593082,-0.835169 0.972469,-1.797361 z m -8.592791,1.415038 -0.103936,0.02788 c -1.082139,0.278907 -1.581238,0.620737 -1.890839,1.186496 -0.309606,0.565735 -0.434098,1.338271 -0.805888,2.497555 L 37,26.000001 l 0.109635,-0.03809 c 0.49125,-0.167124 0.839654,-0.287854 1.106309,-0.424809 0.266659,-0.13692 0.452115,-0.29223 0.602278,-0.522938 0.300325,-0.461394 0.468789,-1.205745 0.982437,-2.734852 z m 8.36355,0.676766 -0.10536,0.0411 c -0.868518,0.340206 -1.345364,0.492129 -1.60608,0.725081 -0.13035,0.116484 -0.20244,0.256888 -0.227805,0.436525 -0.02547,0.179639 -0.0089,0.192886 0.02568,0.484874 l 0.0068,0.06746 0.06414,-0.01614 c 0.296438,-0.07711 0.511904,-0.07651 0.684862,-0.06887 0.172961,0.0077 0.308895,0.02731 0.435692,-0.03378 0.126796,-0.06102 0.223643,-0.197196 0.326055,-0.459961 0.10242,-0.262779 0.213199,-0.455042 0.367348,-1.064942 z"
       id="path9-3-5" />
  </g>
</svg>
