<?xml version="1.0" encoding="UTF-8" standalone="no"?>
<svg
   width="32"
   height="32"
   version="1.1"
   id="svg3204"
   sodipodi:docname="office.svg"
   inkscape:version="1.2.1 (9c6d41e410, 2022-07-14)"
   xmlns:inkscape="http://www.inkscape.org/namespaces/inkscape"
   xmlns:sodipodi="http://sodipodi.sourceforge.net/DTD/sodipodi-0.dtd"
   xmlns:xlink="http://www.w3.org/1999/xlink"
   xmlns="http://www.w3.org/2000/svg"
   xmlns:svg="http://www.w3.org/2000/svg">
  <sodipodi:namedview
     id="namedview3206"
     pagecolor="#cccccc"
     bordercolor="#000000"
     borderopacity="1"
     inkscape:showpageshadow="2"
     inkscape:pageopacity="0"
     inkscape:pagecheckerboard="0"
     inkscape:deskcolor="#808080"
     showgrid="false"
     inkscape:zoom="10.429825"
     inkscape:cx="14.238015"
     inkscape:cy="18.648443"
     inkscape:window-width="1920"
     inkscape:window-height="1002"
     inkscape:window-x="0"
     inkscape:window-y="0"
     inkscape:window-maximized="1"
     inkscape:current-layer="svg3204">
    <inkscape:grid
       type="xygrid"
       id="grid3410" />
  </sodipodi:namedview>
  <defs
     id="defs5">
    <style
       id="current-color-scheme"
       type="text/css">
   .ColorScheme-Background {color:#181818; } .ColorScheme-ButtonBackground { color:#343434; } .ColorScheme-Highlight { color:#4285f4; } .ColorScheme-Text { color:#dfdfdf; } .ColorScheme-ViewBackground { color:#242424; } .ColorScheme-NegativeText { color:#f44336; } .ColorScheme-PositiveText { color:#4caf50; } .ColorScheme-NeutralText { color:#ff9800; }
  </style>
    <linearGradient
       inkscape:collect="always"
       xlink:href="#linearGradient16623"
       id="linearGradient5058"
       x1="148.9608"
       y1="596.36218"
       x2="148.9608"
       y2="636.12817"
       gradientUnits="userSpaceOnUse"
       gradientTransform="matrix(0.50999969,0,0,0.42750131,-58.969954,-248.94566)" />
    <linearGradient
       inkscape:collect="always"
       id="linearGradient16623">
      <stop
         style="stop-color:#5581aa;stop-opacity:1;"
         offset="0"
         id="stop16619" />
      <stop
         style="stop-color:#6db2c5;stop-opacity:1;"
         offset="1"
         id="stop16621" />
    </linearGradient>
  </defs>
  <g
     id="office-chart-pie">
    <rect
       style="opacity:0.00100002"
       width="32"
       height="32"
       x="0"
       y="0"
       id="rect3197" />
    <path
       inkscape:connector-curvature="0"
       id="path9068-9-37-8-0-1"
       d="m 26.200008,5.9999535 -20.4000005,5e-6 V 23.099953 H 26.200008 Z"
       style="display:inline;overflow:visible;visibility:visible;opacity:0.6;fill:url(#linearGradient5058);fill-opacity:1;fill-rule:nonzero;stroke:none;stroke-width:0.653705;marker:none"
       sodipodi:nodetypes="ccccc" />
    <path
       d="M 22.963632,3.9999535 H 9.0360785 c -1.335181,0.0015 -2.615324,0.532573 -3.559318,1.476774 -0.944186,0.944012 -1.475228,2.224101 -1.476753,3.559294 v 13.9280495 -1.89e-4 c 0.0015,1.335155 0.05581,2.092152 1,3.036164 0.943995,0.944202 2.664818,1.998451 4,2 h 3.0000005 l 4,-9.3e-5 4,9.3e-5 h 3 v 0 c 1.335183,-0.0015 3.056006,-1.0558 4,-2 0.944187,-0.944012 0.998462,-1.701009 0.999984,-3.036164 V 9.0362865 c -0.0018,-1.335156 -0.532568,-2.615282 -1.476755,-3.559295 -0.943994,-0.944202 -2.224135,-1.475224 -3.559318,-1.476774 z M 9.2000085,5.9999655 H 22.800006 c 0.887095,0.0011 1.603761,0.04384 2.231,0.671244 0.627232,0.627212 0.967901,1.441663 0.969001,2.328756 V 22.999977 H 6.0000075 V 8.9999655 c 0.0011,-0.887093 0.341774,-1.701506 0.969,-2.328756 0.627201,-0.627213 1.343916,-0.670148 2.231001,-0.671244 z"
       id="path1193-7"
       style="fill:#d3dae3;fill-opacity:1;stroke-width:0.047619"
       sodipodi:nodetypes="cccccccccccccccccccccccccccc" />
    <path
       d="m 24.556293,12.572485 c -0.06486,-0.193062 -0.237384,-0.333812 -0.445061,-0.36298 L 18.790494,11.461557 16.410989,6.797276 C 16.318139,6.615251 16.126456,6.5 15.916631,6.5 c -0.209816,0 -0.401457,0.115251 -0.494345,0.297276 l -2.379511,4.664281 -5.3207371,0.747948 c -0.207674,0.02926 -0.380226,0.169918 -0.445063,0.36298 -0.0648,0.193062 -0.01075,0.405012 0.139537,0.546715 l 3.8500981,3.630635 -0.908873,5.12657 c -0.03549,0.200114 0.04946,0.402351 0.21931,0.521651 0.169739,0.119303 0.394781,0.1351 0.580566,0.04065 l 3.387062,-1.722667 c 0.269528,-0.137019 0.373122,-0.459519 0.231438,-0.720213 -0.141627,-0.260691 -0.475056,-0.360851 -0.744477,-0.223891 l -2.398367,1.219764 0.769063,-4.337781 c 0.03068,-0.173021 -0.02859,-0.349548 -0.158553,-0.472059 L 8.9860519,13.10982 13.488172,12.476914 c 0.179557,-0.0252 0.334748,-0.134342 0.415062,-0.291724 l 2.013397,-3.946646 2.013399,3.946646 c 0.08036,0.157484 0.235787,0.266662 0.415513,0.291781 l 4.50173,0.632849 -3.257731,3.072021 c -0.12994,0.122514 -0.189258,0.299039 -0.158552,0.472051 l 0.769061,4.337781 -2.311966,-1.175827 c -0.269481,-0.137118 -0.60285,-0.0368 -0.744538,0.223892 -0.141684,0.260685 -0.03811,0.583194 0.231432,0.720257 l 3.300733,1.678707 c 0.08061,0.04102 0.168695,0.0613 0.256466,0.0613 0.114278,0 0.228016,-0.03433 0.324049,-0.101915 0.169802,-0.119358 0.254805,-0.321596 0.219304,-0.521651 l -0.90887,-5.126584 3.850101,-3.630631 c 0.150288,-0.141703 0.204417,-0.353656 0.139531,-0.546716 z"
       id="path20-3"
       style="clip-rule:evenodd;fill:#d3dae3;fill-opacity:1;fill-rule:evenodd;stroke-width:0.0542244;stroke-linejoin:round;stroke-miterlimit:1.41421" />
  </g>
</svg>
