<?xml version="1.0" encoding="UTF-8" standalone="no"?>
<svg
   width="32"
   height="32"
   version="1"
   id="svg18"
   sodipodi:docname="offline.svg"
   inkscape:version="1.2.1 (9c6d41e410, 2022-07-14)"
   xmlns:inkscape="http://www.inkscape.org/namespaces/inkscape"
   xmlns:sodipodi="http://sodipodi.sourceforge.net/DTD/sodipodi-0.dtd"
   xmlns:xlink="http://www.w3.org/1999/xlink"
   xmlns="http://www.w3.org/2000/svg"
   xmlns:svg="http://www.w3.org/2000/svg">
  <sodipodi:namedview
     id="namedview20"
     pagecolor="#ffffff"
     bordercolor="#666666"
     borderopacity="1.0"
     inkscape:showpageshadow="2"
     inkscape:pageopacity="0.0"
     inkscape:pagecheckerboard="0"
     inkscape:deskcolor="#d1d1d1"
     showgrid="false"
     inkscape:zoom="10.429825"
     inkscape:cx="20.374263"
     inkscape:cy="12.0328"
     inkscape:window-width="1920"
     inkscape:window-height="1004"
     inkscape:window-x="0"
     inkscape:window-y="0"
     inkscape:window-maximized="1"
     inkscape:current-layer="svg18">
    <inkscape:grid
       type="xygrid"
       id="grid366"
       originx="0"
       originy="0" />
  </sodipodi:namedview>
  <defs
     id="l4k1">
    <style
       id="current-color-scheme"
       type="text/css" />
    <linearGradient
       inkscape:collect="always"
       xlink:href="#linearGradient16623"
       id="linearGradient5058"
       x1="148.9608"
       y1="596.36218"
       x2="148.9608"
       y2="636.12817"
       gradientUnits="userSpaceOnUse"
       gradientTransform="matrix(0.50999969,0,0,0.42750131,-58.969962,-248.94561)" />
    <linearGradient
       inkscape:collect="always"
       id="linearGradient16623">
      <stop
         style="stop-color:#5581aa;stop-opacity:1;"
         offset="0"
         id="stop16619" />
      <stop
         style="stop-color:#6db2c5;stop-opacity:1;"
         offset="1"
         id="stop16621" />
    </linearGradient>
    <linearGradient
       inkscape:collect="always"
       xlink:href="#linearGradient16623"
       id="linearGradient20653"
       gradientUnits="userSpaceOnUse"
       gradientTransform="matrix(0.43219982,0,0,0.36977632,-52.889361,-217.91621)"
       x1="146.80391"
       y1="596.36243"
       x2="146.99998"
       y2="636.3623" />
  </defs>
  <g
     id="offline">
    <rect
       style="opacity:0.00100002"
       width="32"
       height="32"
       x="0"
       y="0"
       id="rect11" />
    <path
       inkscape:connector-curvature="0"
       id="path9068-9-37-8-0-1"
       d="m 26.2,6 -20.4,5e-6 V 23.1 h 20.4 z"
       style="display:inline;overflow:visible;visibility:visible;opacity:0.6;fill:url(#linearGradient5058);fill-opacity:1;fill-rule:nonzero;stroke:none;stroke-width:0.653705;marker:none"
       sodipodi:nodetypes="ccccc" />
    <path
       d="M 22.963624,4 H 9.036071 C 7.70089,4.0015 6.420747,4.532573 5.476753,5.476774 4.532567,6.420786 4.001525,7.700875 4,9.036068 v 13.92805 -1.89e-4 c 0.0015,1.335155 0.05581,2.092152 1,3.036164 0.943995,0.944202 2.664818,1.998451 4,2 h 3 L 16,28 l 4,9.3e-5 h 3 v 0 c 1.335183,-0.0015 3.056006,-1.0558 4,-2 0.944187,-0.944012 0.998462,-1.701009 0.999984,-3.036164 V 9.036333 C 27.998184,7.701177 27.467416,6.421051 26.523229,5.477038 25.579235,4.532836 24.299094,4.001814 22.963911,4.000264 Z M 9.200001,6.000012 h 13.599997 c 0.887095,0.0011 1.603761,0.04384 2.231,0.671244 0.627232,0.627212 0.967901,1.441663 0.969001,2.328756 V 23.000024 H 6 V 9.000012 C 6.0011,8.112919 6.341774,7.298506 6.969,6.671256 7.596201,6.044043 8.312916,6.001108 9.200001,6.000012 Z"
       id="path1193-7"
       style="fill:#d3dae3;fill-opacity:1;stroke-width:0.047619"
       sodipodi:nodetypes="cccccccccccccccccccccccccccc" />
    <path
       style="fill:#d3dae3;fill-opacity:1;stroke-width:0.666657"
       d="m 16,6.5 c -4.418284,0 -8.0000005,3.581719 -8.0000005,8 0,4.418282 3.5817165,8 8.0000005,8 0.580878,0 1.693038,-0.179489 1.693038,-0.179489 l 1.909118,-1.37837 C 19.602156,20.942141 24,18.5 24,14.5 c 0,-4.666663 -3.581717,-8 -8,-8 z m 0,0.6666628 c 1.107592,0.00368 2.200029,0.2575432 3.195305,0.7434972 -0.20541,0.2110022 0.331222,0.6168 -0.0079,0.843741 0.399881,0.261103 0.934865,-0.2394738 0.381511,-0.5 -0.07604,-0.120107 -0.09587,-0.180523 -0.0846,-0.204421 0.07763,0.044112 0.154482,0.089745 0.230469,0.1367178 0.293329,0.2838022 0.69253,0.8882302 0.147134,1.0546822 -0.306926,0.278944 -1.05577,0.167377 -0.446593,0.6744863 0.04908,0.4924407 -1.066743,-0.09957 -0.927085,0.7109427 0.05386,0.364521 0.203918,0.487821 -0.337237,0.815089 -0.426784,0.592171 -1.555771,1.083816 -1.423176,1.98047 -0.214311,0.709077 0.543012,1.073771 1.153645,1.226567 0.632949,-0.04161 2.473804,-0.452522 2.733075,0.339843 -0.269325,0.701406 1.179596,1.395898 0.567705,2.092442 -0.397132,0.651827 0.07762,0.87876 -0.04942,1.549484 0.281862,0.405704 -1.531965,2.311937 -1.531965,2.311937 l -1.909,1.37837 c 0.204787,0.01136 0.53384,-0.580324 -0.03121,-0.678673 0,0 -1.098888,0.191259 -1.661873,0.1915 -0.783579,-0.0027 -1.561673,-0.130295 -2.30473,-0.378907 -0.370417,-0.36552 0.333422,-0.654887 0.532556,-0.847656 -0.306197,-0.584769 0.171156,-0.2306 0.175781,-0.851566 0.0075,-0.939149 1.253656,-1.22045 1.165363,-2.19661 0.02617,-0.581881 0.931408,-1.374569 -0.06907,-1.610681 -0.747872,-0.14256 -1.359599,-0.09501 -1.751304,-0.742192 -0.681348,-0.09057 -0.688657,-0.807785 -1.485677,-0.678384 -0.421832,-0.251109 -1.151327,0.335395 -1.634112,0.285161 0.09654,0.06152 0.190288,0.110864 0.277342,0.127596 0.738684,-0.222775 0.07234,1.004419 -0.0859,1.313806 0.142561,0.765757 0.651193,1.106958 1.333334,1.511723 0.355612,0.813261 0.146742,2.242205 0.28125,3.140623 C 10.109069,19.61264 8.6669433,17.16092 8.6661555,14.5 c 0.00242,-0.196506 0.01204,-0.392844 0.02992,-0.588548 0.037682,-0.174414 0.058608,-0.402554 0.248699,-0.444014 0.4137368,0.127979 0.8805048,0.652327 1.3111985,1.042981 -0.0027,-0.006 -0.006,-0.0078 -0.0079,-0.01431 0.129291,-0.43651 -0.125718,-1.121716 -0.5052216,-1.033866 0.1819093,-0.327057 0.1801091,-0.971476 -0.24088,-0.445318 -0.6839485,0.606325 -0.4997077,-0.390446 -0.1510404,-0.828121 0.4392067,-0.572597 1.498043,-0.536129 1.852862,-0.02085 -0.03596,-0.834332 0.862016,-0.958026 1.252602,-1.60025 0.443852,-0.228665 0.897765,-0.7539026 1.328139,-0.507813 C 14.08392,10.016121 14.39704,9.6732218 13.905628,9.848947 13.67017,9.734077 14.136696,9.3375879 13.716824,9.44139 14.067359,9.351029 14.43562,9.2851408 14.789733,9.270819 14.013263,9.73035 15.66685,9.87827 14.97464,9.369782 15.181653,8.8369379 14.78104,8.6863018 14.643912,8.2369728 14.26651,8.2519088 14.233821,7.8415588 14.024108,7.4648347 c -0.01397,-0.0081 -0.01493,-0.010841 -0.02741,-0.01828 0.148612,-0.03937 0.298415,-0.074201 0.449217,-0.1041657 0.157679,0.00572 0.301389,-0.0033 0.363278,-0.07553 0.393311,-0.06576 0.791342,-0.099257 1.190092,-0.1002607 z m -5.743487,7.3437562 c 0.08596,0.201043 0.215704,0.285782 0.372388,0.302084 -0.118238,-0.07534 -0.244541,-0.186128 -0.372388,-0.302084 z M 13.5,7.613282 13.502,7.97396 C 13.337369,8.54036 12.857307,8.95083 12.478527,9.1276 12.387737,8.8585993 12.470327,8.366625 12.294937,8.1822959 12.678732,7.9564 13.082315,7.765948 13.500664,7.613282 Z m 5.427088,0.627598 c -0.601342,0.171904 0.05196,0.71824 0.180991,0.1185008 C 19.110479,8.2682438 19.00055,8.230284 18.927088,8.24088 Z m 2.444016,1.44272 c 0.159953,0.081872 0.342401,0.258952 0.518223,0.460935 0.19274,0.260242 0.368032,0.532985 0.524729,0.816394 0.07434,0.195495 0.09859,0.367928 0.02612,0.468749 -0.440406,-0.107182 -0.603181,0.523463 -1.092446,0.177101 -0.656034,-0.101062 -0.66234,-1.058038 -1.459634,-0.661459 -0.285269,0.200666 -1.417908,0.277093 -0.569011,-0.05726 0.371543,-0.402242 1.319245,-1.3259304 1.967443,-0.821619 0.194511,0.225996 0.581924,0.675288 0.602862,0.197915 C 21.743448,10.12954 21.102779,9.9491002 21.371137,9.6836131 Z"
       id="path11-3"
       sodipodi:nodetypes="sssccssccccccccccccccccccccccccccccccccccccccccccccccccccccccccccccccccsccccccccss" />
    <path
       style="fill:#bf616a;fill-opacity:1;stroke-width:0.729035"
       d="m 18.784482,17.833477 h 0.583109 c 0.0068,-8.1e-5 0.012,-2.79e-4 0.01828,0 0.148656,0.0071 0.297303,0.075 0.400884,0.182281 l 1.330206,1.330693 1.34843,-1.330693 c 0.154882,-0.13445 0.260462,-0.178207 0.400878,-0.182281 h 0.583114 v 0.583308 c 0,0.167115 -0.02,0.321205 -0.145774,0.437496 l -1.330218,1.330686 1.31199,1.312452 c 0.109734,0.109771 0.16399,0.26451 0.163997,0.419269 V 22.5 h -0.583119 c -0.154681,-9e-6 -0.309372,-0.05432 -0.419104,-0.164068 L 21.116944,21.005249 19.78674,22.335932 C 19.677002,22.445714 19.522307,22.5 19.367598,22.5 h -0.583087 v -0.583312 c -5e-6,-0.154748 0.05417,-0.309498 0.163997,-0.419269 L 20.2787,20.184967 18.948508,18.854281 C 18.825621,18.740736 18.77173,18.580557 18.784507,18.416785 Z"
       id="path29-6" />
  </g>
  <g
     id="22-22-offline"
     transform="translate(32,10)">
    <rect
       style="opacity:0.00100002"
       width="22"
       height="22"
       x="0"
       y="0"
       id="rect4" />
    <path
       inkscape:connector-curvature="0"
       id="path9068-9-37-8-0-1-0-1-3-7-4-6-1-8"
       d="m 19.118511,2.604498 -17.118508,5e-6 v 14.790996 h 17.288 z"
       style="display:inline;overflow:visible;visibility:visible;opacity:0.6;fill:url(#linearGradient20653);fill-opacity:1;fill-rule:nonzero;stroke:none;stroke-width:0.55969;marker:none"
       sodipodi:nodetypes="cccccc" />
    <path
       d="M 16.803014,1 H 5.196745 C 4.084094,1.0015 3.017284,1.44383 2.230625,2.230652 1.443772,3.017322 1.001265,4.084056 1.000003,5.196749 V 16.803451 16.8033 c 8.62e-4,1.112617 0.443769,2.179389 1.230622,2.96606 0.786659,0.786822 1.853469,1.229367 2.96612,1.230652 h 11.606699 -1.9e-4 c 1.112651,-0.0012 2.179461,-0.44383 2.966111,-1.230652 0.78686,-0.786671 1.22937,-1.853443 1.23063,-2.96606 V 5.196976 c -0.002,-1.112655 -0.44377,-2.179427 -1.23063,-2.966098 -0.78665,-0.786822 -1.85346,-1.229366 -2.966111,-1.230652 z M 5.617006,3.00005 h 10.765998 c 0.73924,0.0011 1.43628,-0.113764 1.959,0.408983 0.522691,0.522671 0.6571,1.018431 0.658,1.757669 v 11.833323 h -16 V 5.166702 C 3.000855,4.427464 3.135311,3.931741 3.658005,3.409033 4.180683,2.886362 4.877783,3.000957 5.617006,3.00005 Z"
       id="path1193-3-7-3-6"
       style="fill:#d3dae3;fill-opacity:1;stroke-width:0.0396828"
       sodipodi:nodetypes="ccccccccccccccccccccccccc" />
    <path
       style="fill:#d3dae3;fill-opacity:1;stroke-width:0.75"
       d="m 11.000991,3.9999988 c -2.1934556,2.6e-4 -4.3536716,1.269832 -5.3273346,3.251941 -0.987996,1.838372 -0.874065,4.1747282 0.242039,5.9296332 1.325915,2.167389 4.1229746,3.301465 6.5805246,2.62206 2.184103,-0.524055 3.924389,-2.402102 4.36632,-4.591855 0.387339,-1.6868602 -0.06253,-3.5085492 -1.115488,-4.8719592 -1.103852,-1.457408 -2.921606,-2.34588 -4.74911,-2.337492 m 0,0.749505 c 0.853718,0.0054 1.698901,0.230114 2.46084,0.610043 -0.386206,0.126807 0.181349,0.495892 -0.108137,0.690414 0.299911,0.195821 0.700774,-0.179538 0.285754,-0.374926 -0.366544,-0.578663 0.93684,0.171525 0.260832,0.377841 -0.230206,0.209211 -0.791372,0.125825 -0.334484,0.506148 0.03683,0.36934 -0.800127,-0.07419 -0.695372,0.533651 0.04044,0.273402 0.152878,0.365791 -0.252991,0.611256 -0.320093,0.44412 -0.917247,0.812191 -0.817804,1.484679 -0.160732,0.531801 0.407364,0.805401 0.865343,0.9200012 0.474708,-0.03121 1.605571,-0.3391552 1.800017,0.25512 -0.201992,0.526061 0.884597,1.047391 0.425675,1.569808 -0.297846,0.488858 0.05858,0.658592 -0.03669,1.161632 0.367226,0.528559 -0.953022,1.30324 -1.35528,1.539519 -1.21464,0.713455 -2.771965,0.80665 -4.1084416,0.34543 -0.525306,-0.318413 0.118223,-0.568069 0.284116,-0.728659 -0.229648,-0.43857 0.128419,-0.173164 0.131887,-0.63889 0.0052,-0.70436 0.9397336,-0.589284 0.8735146,-1.321404 0.01958,-0.436406 0.69835,-1.030689 -0.05198,-1.207775 -0.560904,-0.106916 -1.0191106,-0.07142 -1.3128926,-0.55688 -0.511012,-0.06792 -0.517047,-0.6056562 -1.114816,-0.508598 -0.421829,-0.2511102 -0.99663,0.638818 -1.25399,-3.43e-4 0.09698,-0.3273732 -0.09421,-0.8407212 -0.378815,-0.7748352 0.136425,-0.245289 0.134816,-0.729131 -0.180923,-0.334501 -0.512961,0.454732 -0.630734,-0.315446 -0.369238,-0.643697 0.329406,-0.429449 1.123121,-0.402737 1.389237,-0.01626 -0.02701,-0.625757 0.646704,-0.718311 0.939651,-1.199985 0.33289,-0.171492 0.67343,-0.565584 0.996204,-0.381017 0.224548,-0.03282 0.459018,-0.290138 0.09048,-0.158339 -0.176583,-0.08616 0.173889,-0.382885 -0.141011,-0.305023 0.262904,-0.0678 0.538497,-0.117354 0.8040766,-0.128096 -0.5823496,0.344648 0.658348,0.455717 0.13918,0.07434 0.155263,-0.399628 -0.145245,-0.512702 -0.248096,-0.849701 -0.2830446,0.01119 -0.3082116,0.102896 -0.4654826,-0.179654 -0.555532,-0.318171 0.5349956,0.0906 0.6105056,-0.186579 0.213974,-0.237534 0.586562,-0.156825 0.872161,-0.183012 m -1.8750606,0.351511 c -0.123451,0.4248 -0.483654,0.732649 -0.767733,0.865228 -0.07971,-0.236095 0.02287,-0.303645 -0.221527,-0.359264 0.274214,-0.249104 0.657738,-0.347462 0.986992,-0.505964 m 4.0313906,0.561987 c -0.45367,0.12843 0.03802,0.539493 0.13493,0.08919 0.0016,-0.06834 -0.0806,-0.09647 -0.135671,-0.0885 m 1.593825,0.865581 c 0.384391,0.195707 1.034848,0.952303 0.84904,1.210563 -0.330305,-0.08038 -0.219627,0.345845 -0.586576,0.08608 -0.492025,-0.0758 -0.496229,-0.793665 -1.094204,-0.496246 -0.213949,0.1505 -1.063654,0.20844 -0.426987,-0.04236 0.27866,-0.301674 0.710154,-0.848464 1.196304,-0.470229 0.145877,0.169499 0.435603,0.50691 0.451305,0.148874 -0.109995,-0.101606 -0.595933,-0.238304 -0.386592,-0.439093 m -8.7880196,2.717461 c 0.478149,0.145217 0.802292,1.0020582 1.217721,1.0819342 0.554008,-0.167085 0.05367,0.752758 -0.06501,0.984801 0.106921,0.574319 0.488374,0.830199 0.999977,1.133776 0.277006,0.633487 0.11818,1.373572 0.244842,2.039805 -0.653998,-0.301272 -1.235986,-0.914269 -1.67311,-1.515005 -0.677406,-0.960086 -1.000847,-2.162566 -0.922193,-3.3311772 0.04034,-0.129637 0.03687,-0.358002 0.200786,-0.393761"
       id="path6-7" />
    <path
       style="fill:#bf616a;fill-opacity:1;stroke-width:0.585828"
       d="m 13.351747,12.25011 h 0.468564 c 0.005,-5.6e-5 0.0098,-2.13e-4 0.01465,0 0.119472,0.0055 0.23891,0.06031 0.322142,0.146476 l 1.068915,1.069313 1.083563,-1.069313 c 0.124459,-0.108037 0.209289,-0.143197 0.322133,-0.146476 h 0.468562 v 0.468741 c 0,0.134279 -0.01609,0.258101 -0.117136,0.351544 l -1.068917,1.069304 1.054275,1.054659 c 0.08819,0.0882 0.131772,0.212544 0.131778,0.336901 v 0.46874 h -0.468558 c -0.124307,-1.1e-5 -0.248612,-0.04372 -0.336777,-0.131831 l -1.068916,-1.069309 -1.068913,1.069309 c -0.08817,0.08819 -0.212473,0.131831 -0.336769,0.131831 h -0.468568 v -0.46874 c -3e-6,-0.124351 0.0436,-0.248695 0.131773,-0.336901 l 1.068923,-1.054659 -1.068907,-1.069304 c -0.09876,-0.09122 -0.142056,-0.21995 -0.13179,-0.351544 z"
       id="path29-3-5" />
  </g>
</svg>
