<?xml version="1.0" encoding="UTF-8" standalone="no"?>
<svg
   width="32"
   height="32"
   version="1"
   id="svg902"
   sodipodi:docname="org.rnd2.cpupower_gui.svg"
   inkscape:version="1.2.2 (b0a8486541, 2022-12-01)"
   xmlns:inkscape="http://www.inkscape.org/namespaces/inkscape"
   xmlns:sodipodi="http://sodipodi.sourceforge.net/DTD/sodipodi-0.dtd"
   xmlns:xlink="http://www.w3.org/1999/xlink"
   xmlns="http://www.w3.org/2000/svg"
   xmlns:svg="http://www.w3.org/2000/svg">
  <g
     id="22-22-org.rnd2.cpupower_gui">
    <rect
       style="opacity:0.00100002"
       width="22"
       height="22"
       x="32"
       y="10"
       id="rect892" />
    <path
       inkscape:connector-curvature="0"
       id="path9068-9-37-8-0-1-0-1-3-7-4-6-1-8"
       d="M 51.118508,12.604498 34,12.604503 v 14.790996 h 17.288 z"
       style="display:inline;overflow:visible;visibility:visible;opacity:0.6;fill:url(#linearGradient20653);fill-opacity:1.0;fill-rule:nonzero;stroke:none;stroke-width:0.55969;marker:none"
       sodipodi:nodetypes="cccccc" />
    <path
       d="M 48.803011,11 H 37.196742 c -1.112651,0.0015 -2.179461,0.44383 -2.96612,1.230652 C 33.443769,13.017322 33.001262,14.084056 33,15.196749 V 26.803451 26.8033 c 8.62e-4,1.112617 0.443769,2.179389 1.230622,2.96606 0.786659,0.786822 1.853469,1.229367 2.96612,1.230652 h 11.606699 -1.9e-4 c 1.112651,-0.0012 2.179461,-0.44383 2.966111,-1.230652 0.78686,-0.786671 1.22937,-1.853443 1.23063,-2.96606 V 15.196976 c -0.002,-1.112655 -0.44377,-2.179427 -1.23063,-2.966098 -0.78665,-0.786822 -1.85346,-1.229366 -2.966111,-1.230652 z m -11.186008,2.00005 h 10.765998 c 0.73924,0.0011 1.43628,-0.113764 1.959,0.408983 0.522691,0.522671 0.6571,1.018431 0.658,1.757669 v 11.833323 h -16 V 15.166702 c 8.51e-4,-0.739238 0.135307,-1.234961 0.658001,-1.757669 0.522678,-0.522671 1.219778,-0.408076 1.959001,-0.408983 z"
       id="path1193-3-7-3-6"
       style="fill:#d3dae3;fill-opacity:1;stroke-width:0.0396828"
       sodipodi:nodetypes="ccccccccccccccccccccccccc" />
    <path
       d="M 45.625,17.878931 C 45.625,17.684272 45.465728,17.525 45.271072,17.525 h -4.542145 c -0.194655,0 -0.353927,0.159272 -0.353927,0.353931 v 4.542138 c 0,0.19466 0.159272,0.353932 0.353927,0.353932 h 4.542145 c 0.194656,0 0.353928,-0.159272 0.353928,-0.353932 z m -0.524997,4.37947 h -4.200002 v -4.200002 h 4.200002 z"
       id="path659-3-6"
       style="fill:#d1d5e9;fill-opacity:1;stroke-width:0.0269662"
       sodipodi:nodetypes="sssssssssccccc" />
    <path
       d="M 48.692444,19.17188 C 48.861598,19.17188 49,19.036368 49,18.870745 49,18.705138 48.861598,18.569628 48.692444,18.569628 h -1.514736 v -0.677533 h 0.745828 c 0.169161,0 0.307561,-0.135516 0.307561,-0.301136 0,-0.165619 -0.1384,-0.301122 -0.307561,-0.301122 h -0.7561 c -0.0282,-0.677531 -0.579243,-1.217062 -1.271246,-1.244662 v -0.740283 c 0,-0.165629 -0.138403,-0.301135 -0.307562,-0.301135 -0.169153,0 -0.307556,0.135506 -0.307556,0.301135 v 0.730235 h -0.692 V 14.301135 C 44.589072,14.135512 44.450666,14 44.281513,14 c -0.169169,0 -0.307561,0.135512 -0.307561,0.301135 v 1.733992 h -0.666391 v -0.730235 c 0,-0.165629 -0.138407,-0.301135 -0.307562,-0.301135 -0.169153,0 -0.307561,0.135506 -0.307561,0.301135 v 0.730235 h -0.66639 V 14.301135 C 42.026048,14.135512 41.887657,14 41.718488,14 c -0.169154,0 -0.30756,0.135512 -0.30756,0.301135 v 1.733992 h -0.691999 v -0.730235 c 0,-0.165629 -0.138404,-0.301135 -0.307557,-0.301135 -0.169158,0 -0.307561,0.135506 -0.307561,0.301135 v 0.740283 c -0.692001,0.02761 -1.243058,0.567131 -1.271248,1.244662 H 38.07647 c -0.169159,0 -0.30756,0.135503 -0.30756,0.301122 0,0.16562 0.138401,0.301136 0.30756,0.301136 h 0.745829 v 0.677533 h -1.51474 C 37.138401,18.569628 37,18.705138 37,18.870745 c 0,0.165623 0.138401,0.301135 0.307559,0.301135 h 1.51474 v 0.652461 H 38.07647 c -0.169159,0 -0.30756,0.135507 -0.30756,0.301119 0,0.165624 0.138401,0.30113 0.30756,0.30113 h 0.745829 v 0.652462 h -1.51474 C 37.138401,21.079052 37,21.214559 37,21.380181 c 0,0.165614 0.138401,0.30112 0.307559,0.30112 h 1.51474 v 0.677536 H 38.07647 c -0.169159,0 -0.30756,0.135513 -0.30756,0.301136 0,0.165608 0.138401,0.301116 0.30756,0.301116 h 0.756093 c 0.02819,0.677535 0.579247,1.217067 1.271248,1.244669 v 0.740282 c 0,0.165627 0.138403,0.301136 0.307561,0.301136 0.169153,0 0.307557,-0.13551 0.307557,-0.301136 v -0.730235 h 0.691999 v 1.48306 c 0,0.165624 0.138406,0.301136 0.30756,0.301136 0.169169,0 0.30756,-0.135512 0.30756,-0.301136 v -1.48306 h 0.66639 v 0.730235 c 0,0.165627 0.138408,0.301136 0.307561,0.301136 0.169155,0 0.307562,-0.13551 0.307562,-0.301136 v -0.730235 h 0.666391 v 1.48306 c 0,0.165624 0.138392,0.301136 0.307561,0.301136 0.169153,0 0.307559,-0.135512 0.307559,-0.301136 v -1.48306 h 0.692 v 0.730235 c 0,0.165627 0.138403,0.301136 0.307556,0.301136 0.169159,0 0.307562,-0.13551 0.307562,-0.301136 v -0.740282 c 0.692003,-0.02761 1.243058,-0.567134 1.271246,-1.244669 h 0.7561 c 0.169161,0 0.307561,-0.135508 0.307561,-0.301116 0,-0.165623 -0.1384,-0.301136 -0.307561,-0.301136 h -0.745828 v -0.677536 h 1.514736 C 48.861598,21.681301 49,21.545795 49,21.380181 49,21.214559 48.861598,21.079052 48.692444,21.079052 h -1.514736 v -0.652461 h 0.745828 c 0.169161,0 0.307561,-0.135506 0.307561,-0.301131 0,-0.165612 -0.1384,-0.301119 -0.307561,-0.301119 H 47.177708 V 19.17188 Z m -2.855099,4.441555 h -0.228099 c -0.0074,0 -0.0179,-0.003 -0.02569,-0.003 -0.0074,0 -0.0179,0.003 -0.02568,0.003 h -1.237863 c -0.0074,0 -0.0179,-0.003 -0.02569,-0.003 -0.0074,0 -0.0179,0.003 -0.02568,0.003 h -1.243006 c -0.0074,0 -0.0179,-0.003 -0.02569,-0.003 -0.0074,0 -0.0179,0.003 -0.02568,0.003 h -1.237904 c -0.0074,0 -0.0179,-0.003 -0.0257,-0.003 -0.0074,0 -0.0179,0.003 -0.02569,0.003 h -1.2379 c -0.0074,0 -0.0179,-0.003 -0.02569,-0.003 -0.0074,0 -0.0179,0.003 -0.02569,0.003 h -0.228104 c -0.394706,0 -0.725323,-0.323696 -0.725323,-0.710158 v -0.22334 c 0,-0.007 0.003,-0.01751 0.003,-0.02506 0,-0.007 -0.003,-0.01751 -0.003,-0.02506 v -1.212039 c 0,-0.007 0.003,-0.01751 0.003,-0.02506 0,-0.007 -0.003,-0.01751 -0.003,-0.02506 v -1.217065 c 0,-0.007 0.003,-0.01751 0.003,-0.02506 0,-0.007 -0.003,-0.01751 -0.003,-0.02506 v -1.212037 c 0,-0.007 0.003,-0.01751 0.003,-0.02506 0,-0.007 -0.003,-0.01751 -0.003,-0.02506 v -1.21206 c 0,-0.007 0.003,-0.01751 0.003,-0.02506 0,-0.007 -0.003,-0.01751 -0.003,-0.02506 v -0.223337 c 0,-0.386451 0.330617,-0.710159 0.725323,-0.710159 h 0.228134 c 0.0074,0 0.0179,0.003 0.02569,0.003 0.0074,0 0.0179,-0.003 0.02569,-0.003 h 1.237943 c 0.0074,0 0.0179,0.003 0.02569,0.003 0.0074,0 0.0179,-0.003 0.02569,-0.003 h 1.237921 c 0.0074,0 0.0179,0.003 0.02568,0.003 0.0074,0 0.0179,-0.003 0.02569,-0.003 h 1.237925 c 0.0074,0 0.0179,0.003 0.02568,0.003 0.0074,0 0.0179,-0.003 0.02569,-0.003 h 1.237927 c 0.0073,0 0.0179,0.003 0.02568,0.003 0.0074,0 0.0179,-0.003 0.02569,-0.003 h 0.228108 c 0.394704,0 0.725327,0.323708 0.725327,0.710159 v 0.223337 c 0,0.007 -0.003,0.01751 -0.003,0.02506 0,0.007 0.003,0.01751 0.003,0.02506 v 1.212039 c 0,0.007 -0.003,0.01751 -0.003,0.02506 0,0.007 0.003,0.01751 0.003,0.02506 v 1.212033 c 0,0.007 -0.003,0.01751 -0.003,0.02506 0,0.007 0.003,0.01751 0.003,0.02506 v 1.21204 c 0,0.007 -0.003,0.01751 -0.003,0.02506 0,0.007 0.003,0.01751 0.003,0.02506 v 1.212035 c 0,0.007 -0.003,0.01751 -0.003,0.02506 0,0.007 0.003,0.01751 0.003,0.02506 v 0.223342 c 0.0058,0.391459 -0.325513,0.715178 -0.720195,0.715178 z"
       id="path661-6-2"
       style="fill:#d1d5e9;fill-opacity:1;stroke-width:0.0231872" />
    <path
       class="ColorScheme-Text"
       style="color:#7b7c7e;fill:#bf616a;fill-opacity:1;fill-rule:evenodd;stroke:none;stroke-width:0.537363"
       d="M 43.500014,17.525 41.5,20.388621 h 0.999985 v 2.38638 L 44.5,19.91134 h -0.999986 z"
       id="path3072-9"
       inkscape:connector-curvature="0"
       sodipodi:nodetypes="ccccccc" />
  </g>
  <g
     id="org.rnd2.cpupower_gui">
    <rect
       style="opacity:0.00100002"
       width="32"
       height="32"
       x="0"
       y="0"
       id="rect897" />
    <path
       inkscape:connector-curvature="0"
       id="path9068-9-37-8-0-1"
       d="m 26.2,6 -20.4,5e-6 v 17.099993 h 20.4 z"
       style="display:inline;overflow:visible;visibility:visible;opacity:0.6;fill:url(#linearGradient5058);fill-opacity:1;fill-rule:nonzero;stroke:none;stroke-width:0.653705;marker:none"
       sodipodi:nodetypes="ccccc" />
    <path
       d="M 22.963625,4 H 9.036071 C 7.700891,4.0015 6.420748,4.532573 5.476754,5.476775 4.532568,6.420788 4.001525,7.700876 4,9.036069 v 13.92805 -1.9e-4 c 0.0015,1.335156 0.532568,2.615282 1.476754,3.559294 0.943994,0.944203 2.224137,1.475226 3.559318,1.476775 h 13.928034 -1.94e-4 c 1.335183,-0.0015 2.615324,-0.532572 3.559318,-1.476775 0.944187,-0.944012 1.475232,-2.224138 1.476755,-3.559294 V 9.036334 C 27.998185,7.701178 27.467417,6.421052 26.52323,5.477039 25.579236,4.532837 24.299095,4.001814 22.963911,4.000264 Z M 9.200001,6.000013 h 13.599998 c 0.887095,0.0011 1.603761,0.04384 2.231,0.671244 C 25.658231,7.298469 25.9989,8.11292 26,9.000013 V 23.000024 H 6 V 9.000013 C 6.0011,8.11292 6.341775,7.298507 6.969001,6.671257 7.596202,6.044044 8.312917,6.001109 9.200001,6.000013 Z"
       id="path1193-5-3"
       style="fill:#d3dae3;fill-opacity:1;stroke-width:0.047619"
       sodipodi:nodetypes="ccccccccccccccccccccccccc" />
    <path
       d="m 19.166662,11.805428 c 0,-0.247184 -0.202242,-0.449429 -0.449425,-0.449429 h -5.767813 c -0.247182,0 -0.449424,0.202245 -0.449424,0.449429 v 5.767809 c 0,0.247184 0.202243,0.44943 0.449424,0.44943 h 5.767814 c 0.247182,0 0.449424,-0.202246 0.449424,-0.44943 z M 18.5,17.366667 H 13.166667 V 12.033332 H 18.5 Z"
       id="path659-36"
       style="fill:#d1d5e9;fill-opacity:1;stroke-width:0.0342423"
       sodipodi:nodetypes="sssssssssccccc" />
    <path
       d="m 23.265135,13.39584 c 0.220843,0 0.401531,-0.180676 0.401531,-0.401504 0,-0.220829 -0.180688,-0.401505 -0.401531,-0.401505 h -1.977578 v -0.903377 h 0.973718 c 0.220851,0 0.401538,-0.180676 0.401538,-0.401505 0,-0.220829 -0.180687,-0.401503 -0.401538,-0.401503 H 21.274158 C 21.237358,9.983069 20.517923,9.263695 19.614473,9.226895 V 8.239852 c 0,-0.220829 -0.180687,-0.401504 -0.401538,-0.401504 -0.220844,0 -0.401533,0.180675 -0.401533,0.401504 V 9.213496 H 17.907951 V 6.901504 C 17.907951,6.680675 17.727263,6.5 17.506418,6.5 17.285568,6.5 17.10488,6.680675 17.10488,6.901504 V 9.213496 H 16.234871 V 8.239852 c 0,-0.220829 -0.180693,-0.401504 -0.401537,-0.401504 -0.220845,0 -0.401538,0.180675 -0.401538,0.401504 v 0.973644 h -0.87001 V 6.901504 C 14.561785,6.680675 14.381099,6.5 14.160255,6.5 c -0.220852,0 -0.40154,0.180675 -0.40154,0.401504 v 2.311992 h -0.90345 V 8.239852 c 0,-0.220829 -0.180688,-0.401504 -0.401533,-0.401504 -0.22085,0 -0.401538,0.180675 -0.401538,0.401504 v 0.987043 c -0.903447,0.03681 -1.622878,0.756174 -1.659682,1.659551 h -0.98712 c -0.220847,0 -0.401537,0.180675 -0.401537,0.401503 0,0.220829 0.18069,0.401505 0.401537,0.401505 h 0.973721 V 12.59283 H 8.401536 C 8.18069,12.59283 8,12.773506 8,12.994335 c 0,0.220829 0.18069,0.401504 0.401536,0.401504 h 1.977577 V 14.26578 H 9.405392 c -0.220847,0 -0.401537,0.180676 -0.401537,0.401505 0,0.22083 0.18069,0.401504 0.401537,0.401504 h 0.973721 V 15.93873 H 8.401536 C 8.18069,15.93873 8,16.119406 8,16.340235 c 0,0.220829 0.18069,0.401504 0.401536,0.401504 h 1.977577 v 0.903378 H 9.405392 c -0.220847,0 -0.401537,0.180676 -0.401537,0.401504 0,0.220829 0.18069,0.401504 0.401537,0.401504 h 0.98712 c 0.03681,0.903378 0.756234,1.622751 1.659681,1.659552 v 0.987042 c 0,0.220829 0.180688,0.401505 0.401538,0.401505 0.220845,0 0.401533,-0.180676 0.401533,-0.401505 v -0.973644 h 0.903451 v 1.97742 c 0,0.220829 0.180688,0.401504 0.401539,0.401504 0.220844,0 0.401531,-0.180675 0.401531,-0.401504 v -1.97742 h 0.870011 v 0.973644 c 0,0.220829 0.180693,0.401505 0.401537,0.401505 0.220844,0 0.401538,-0.180676 0.401538,-0.401505 v -0.973644 h 0.870009 v 1.97742 c 0,0.220829 0.180689,0.401504 0.401538,0.401504 0.220845,0 0.401534,-0.180675 0.401534,-0.401504 v -1.97742 h 0.903449 v 0.973644 c 0,0.220829 0.18069,0.401505 0.401534,0.401505 0.220851,0 0.401538,-0.180676 0.401538,-0.401505 v -0.987042 c 0.90345,-0.03681 1.622881,-0.756174 1.659685,-1.659552 h 0.987118 c 0.220851,0 0.401538,-0.180675 0.401538,-0.401504 0,-0.220828 -0.180687,-0.401504 -0.401538,-0.401504 h -0.973718 v -0.903378 h 1.977578 c 0.220843,0 0.401531,-0.180675 0.401531,-0.401504 0,-0.220829 -0.180688,-0.401505 -0.401531,-0.401505 h -1.977578 v -0.869941 h 0.973718 c 0.220851,0 0.401538,-0.180675 0.401538,-0.401504 0,-0.220829 -0.180687,-0.401505 -0.401538,-0.401505 h -0.973718 v -0.869941 z m -3.727482,5.922074 h -0.297804 c -0.01007,0 -0.0234,-0.0033 -0.03347,-0.0033 -0.01007,0 -0.0234,0.0033 -0.03347,0.0033 h -1.616182 c -0.01007,0 -0.0234,-0.0033 -0.03347,-0.0033 -0.01007,0 -0.0234,0.0033 -0.03347,0.0033 h -1.622875 c -0.01007,0 -0.0234,-0.0033 -0.03347,-0.0033 -0.01007,0 -0.0234,0.0033 -0.03347,0.0033 h -1.616174 c -0.01007,0 -0.0234,-0.0033 -0.03347,-0.0033 -0.01007,0 -0.0234,0.0033 -0.03347,0.0033 h -1.616175 c -0.01007,0 -0.0234,-0.0033 -0.03347,-0.0033 -0.01007,0 -0.0234,0.0033 -0.03347,0.0033 h -0.29781 c -0.51531,0 -0.94695,-0.431606 -0.94695,-0.946877 v -0.297783 c 0,-0.01004 0.0033,-0.02342 0.0033,-0.03346 0,-0.01004 -0.0033,-0.02342 -0.0033,-0.03346 v -1.616052 c 0,-0.01004 0.0033,-0.02342 0.0033,-0.03346 0,-0.01004 -0.0033,-0.02342 -0.0033,-0.03346 v -1.622751 c 0,-0.01004 0.0033,-0.02342 0.0033,-0.03346 0,-0.01004 -0.0033,-0.02342 -0.0033,-0.03346 v -1.616052 c 0,-0.01004 0.0033,-0.02342 0.0033,-0.03346 0,-0.01004 -0.0033,-0.02342 -0.0033,-0.03346 v -1.616051 c 0,-0.01004 0.0033,-0.02342 0.0033,-0.03346 0,-0.01004 -0.0033,-0.02342 -0.0033,-0.03346 v -0.297783 c 0,-0.515271 0.43164,-0.946876 0.94695,-0.946876 h 0.29781 c 0.01007,0 0.0234,0.0033 0.03347,0.0033 0.01007,0 0.0234,-0.0033 0.03347,-0.0033 h 1.616175 c 0.01007,0 0.0234,0.0033 0.03347,0.0033 0.01007,0 0.0234,-0.0033 0.03347,-0.0033 h 1.616174 c 0.01007,0 0.0234,0.0033 0.03347,0.0033 0.01007,0 0.0234,-0.0033 0.03347,-0.0033 h 1.616182 c 0.01007,0 0.0234,0.0033 0.03347,0.0033 0.01007,0 0.0234,-0.0033 0.03347,-0.0033 h 1.616182 c 0.01,0 0.0234,0.0033 0.03347,0.0033 0.01007,0 0.0234,-0.0033 0.03347,-0.0033 h 0.297804 c 0.515313,0 0.946955,0.431605 0.946955,0.946876 v 0.297783 c 0,0.01004 -0.0033,0.02342 -0.0033,0.03346 0,0.01004 0.0033,0.02342 0.0033,0.03346 v 1.616051 c 0,0.01004 -0.0033,0.02342 -0.0033,0.03346 0,0.01004 0.0033,0.02342 0.0033,0.03346 v 1.616051 c 0,0.01004 -0.0033,0.02342 -0.0033,0.03346 0,0.01004 0.0033,0.02342 0.0033,0.03346 v 1.616051 c 0,0.01004 -0.0033,0.02342 -0.0033,0.03346 0,0.01004 0.0033,0.02342 0.0033,0.03346 v 1.616052 c 0,0.01004 -0.0033,0.02342 -0.0033,0.03346 0,0.01004 0.0033,0.02342 0.0033,0.03346 v 0.297784 c 0.0067,0.521941 -0.424973,0.953576 -0.940255,0.953576 z"
       id="path661-7"
       style="fill:#d1d5e9;fill-opacity:1;stroke-width:0.030592" />
    <path
       sodipodi:nodetypes="ccccccc"
       inkscape:connector-curvature="0"
       id="path4444-5"
       d="M 16.388905,11.366667 14.166666,15.003 h 1.111091 v 3.030333 l 2.222241,-3.6364 h -1.111093 z"
       style="color:#7b7c7e;fill:#bf616a;fill-opacity:1;fill-rule:evenodd;stroke:none;stroke-width:0.53191"
       class="ColorScheme-Text" />
  </g>
  <sodipodi:namedview
     id="namedview904"
     pagecolor="#ffffff"
     bordercolor="#666666"
     borderopacity="1.0"
     inkscape:showpageshadow="2"
     inkscape:pageopacity="0.0"
     inkscape:pagecheckerboard="0"
     inkscape:deskcolor="#d1d1d1"
     showgrid="false"
     inkscape:zoom="11.313709"
     inkscape:cx="21.345785"
     inkscape:cy="13.125669"
     inkscape:window-width="1920"
     inkscape:window-height="994"
     inkscape:window-x="0"
     inkscape:window-y="0"
     inkscape:window-maximized="1"
     inkscape:current-layer="svg902">
    <inkscape:grid
       type="xygrid"
       id="grid2771"
       originx="32"
       originy="10" />
  </sodipodi:namedview>
  <defs
     id="l4k1">
    <linearGradient
       inkscape:collect="always"
       id="linearGradient394">
      <stop
         style="stop-color:#de8787;stop-opacity:1"
         offset="0"
         id="stop390" />
      <stop
         style="stop-color:#ffe680;stop-opacity:1"
         offset="1"
         id="stop392" />
    </linearGradient>
    <style
       id="current-color-scheme"
       type="text/css">
   .ColorScheme-Background {color:#181818; } .ColorScheme-ButtonBackground { color:#343434; } .ColorScheme-Highlight { color:#4285f4; } .ColorScheme-Text { color:#dfdfdf; } .ColorScheme-ViewBackground { color:#242424; } .ColorScheme-NegativeText { color:#f44336; } .ColorScheme-PositiveText { color:#4caf50; } .ColorScheme-NeutralText { color:#ff9800; }
  </style>
    <linearGradient
       inkscape:collect="always"
       xlink:href="#linearGradient394"
       id="linearGradient5058"
       x1="148.9608"
       y1="596.36218"
       x2="148.9608"
       y2="636.12817"
       gradientUnits="userSpaceOnUse"
       gradientTransform="matrix(0.50999969,0,0,0.42750131,-58.969959,-248.94561)" />
    <linearGradient
       inkscape:collect="always"
       xlink:href="#linearGradient394"
       id="linearGradient20653"
       gradientUnits="userSpaceOnUse"
       gradientTransform="matrix(0.43219982,0,0,0.36977632,-20.889364,-207.91621)"
       x1="146.80391"
       y1="596.36243"
       x2="146.99998"
       y2="636.3623" />
  </defs>
</svg>
