<?xml version="1.0" encoding="UTF-8" standalone="no"?>
<svg
   id="svg4153"
   version="1.1"
   width="32"
   height="32"
   viewBox="0 0 32 32"
   sodipodi:docname="pamac.svg"
   inkscape:version="1.2.2 (b0a8486541, 2022-12-01)"
   xmlns:inkscape="http://www.inkscape.org/namespaces/inkscape"
   xmlns:sodipodi="http://sodipodi.sourceforge.net/DTD/sodipodi-0.dtd"
   xmlns:xlink="http://www.w3.org/1999/xlink"
   xmlns="http://www.w3.org/2000/svg"
   xmlns:svg="http://www.w3.org/2000/svg"
   xmlns:rdf="http://www.w3.org/1999/02/22-rdf-syntax-ns#"
   xmlns:cc="http://creativecommons.org/ns#"
   xmlns:dc="http://purl.org/dc/elements/1.1/">
  <g
     id="22-22-pamac-tray-update"
     transform="translate(32.003124,32.004032)">
    <rect
       style="opacity:0.00100002"
       width="22"
       height="22"
       x="2.3706055e-07"
       y="1.3500977e-07"
       id="rect606" />
    <path
       inkscape:connector-curvature="0"
       id="path9068-9-37-8-0-1-0-1-3-7-4-6-1-8"
       d="M 19.118508,2.604498 2,2.604503 v 14.790996 h 17.288 z"
       style="display:inline;overflow:visible;visibility:visible;opacity:1;fill:url(#linearGradient20653);fill-opacity:1;fill-rule:nonzero;stroke:none;stroke-width:0.55969;marker:none"
       sodipodi:nodetypes="cccccc" />
    <path
       d="M 16.803011,1 H 5.196742 C 4.084091,1.0015 3.017281,1.44383 2.230622,2.230652 1.443769,3.017322 1.001262,4.084056 1,5.196749 V 16.803451 16.8033 c 8.62e-4,1.112617 0.443769,2.179389 1.230622,2.96606 0.786659,0.786822 1.853469,1.229367 2.96612,1.230652 h 11.606699 -1.9e-4 c 1.112651,-0.0012 2.179461,-0.44383 2.966111,-1.230652 0.78686,-0.786671 1.22937,-1.853443 1.23063,-2.96606 V 5.196976 c -0.002,-1.112655 -0.44377,-2.179427 -1.23063,-2.966098 -0.78665,-0.786822 -1.85346,-1.229366 -2.966111,-1.230652 z M 5.617003,3.00005 h 10.765998 c 0.73924,0.0011 1.43628,-0.113764 1.959,0.408983 0.522691,0.522671 0.6571,1.018431 0.658,1.757669 v 11.833323 h -16 V 5.166702 C 3.000852,4.427464 3.135308,3.931741 3.658002,3.409033 4.18068,2.886362 4.87778,3.000957 5.617003,3.00005 Z"
       id="path1193-3-7-3-6"
       style="fill:#d3dae3;fill-opacity:1;stroke-width:0.0396828"
       sodipodi:nodetypes="ccccccccccccccccccccccccc" />
    <path
       d="m 15.814243,9.179275 c 0.208502,0.24 0.24316,0.563376 0.09546,0.841096 -0.138897,0.26948 -0.443308,0.444926 -0.782272,0.444926 h -1.564527 v 4.741077 c 0,0.436384 -0.382436,0.793663 -0.86917,0.793663 H 9.303859 c -0.478145,0 -0.869171,-0.356787 -0.869171,-0.793663 V 10.465297 H 6.869985 c -0.330376,0 -0.634519,-0.173858 -0.782268,-0.444926 C 5.940017,9.74182 5.98347,9.417499 6.183167,9.179275 l 4.12871,-4.877858 c 0.342085,-0.394545 1.010113,-0.409058 1.364667,0 z"
       id="path1862-6-8-0"
       style="fill:#bf616a;fill-opacity:1;stroke-width:0.0448464"
       sodipodi:nodetypes="ccscsssscsccccc" />
  </g>
  <g
     id="22-22-pamac-tray-no-update"
     transform="translate(10.003124,32.004032)">
    <rect
       style="opacity:0.00100002"
       width="22"
       height="22"
       x="2.3706055e-07"
       y="1.3500977e-07"
       id="rect601" />
    <path
       inkscape:connector-curvature="0"
       id="path9068-9-37-8-0-1-0-1-3-7-4-6-1"
       d="M 19.118508,2.604498 2,2.604503 v 14.790996 h 17.288 z"
       style="display:inline;overflow:visible;visibility:visible;opacity:1;fill:url(#linearGradient6958);fill-opacity:1;fill-rule:nonzero;stroke:none;stroke-width:0.55969;marker:none"
       sodipodi:nodetypes="cccccc" />
    <path
       d="M 16.803011,1 H 5.196742 C 4.084091,1.0015 3.017281,1.44383 2.230622,2.230652 1.443769,3.017322 1.001262,4.084056 1,5.196749 V 16.803451 16.8033 c 8.62e-4,1.112617 0.443769,2.179389 1.230622,2.96606 0.786659,0.786822 1.853469,1.229367 2.96612,1.230652 h 11.606699 -1.9e-4 c 1.112651,-0.0012 2.179461,-0.44383 2.966111,-1.230652 0.78686,-0.786671 1.22937,-1.853443 1.23063,-2.96606 V 5.196976 c -0.002,-1.112655 -0.44377,-2.179427 -1.23063,-2.966098 -0.78665,-0.786822 -1.85346,-1.229366 -2.966111,-1.230652 z M 5.617003,3.00005 h 10.765998 c 0.73924,0.0011 1.43628,-0.113764 1.959,0.408983 0.522691,0.522671 0.6571,1.018431 0.658,1.757669 v 11.833323 h -16 V 5.166702 C 3.000852,4.427464 3.135308,3.931741 3.658002,3.409033 4.18068,2.886362 4.87778,3.000957 5.617003,3.00005 Z"
       id="path1193-3-7-3"
       style="fill:#d3dae3;fill-opacity:1;stroke-width:0.0396828"
       sodipodi:nodetypes="ccccccccccccccccccccccccc" />
    <path
       d="m 15.814243,9.179275 c 0.208502,0.24 0.24316,0.563376 0.09546,0.841096 -0.138897,0.26948 -0.443308,0.444926 -0.782272,0.444926 h -1.564527 v 4.741077 c 0,0.436384 -0.382436,0.793663 -0.86917,0.793663 H 9.303859 c -0.478145,0 -0.869171,-0.356787 -0.869171,-0.793663 V 10.465297 H 6.869985 c -0.330376,0 -0.634519,-0.173858 -0.782268,-0.444926 C 5.940017,9.74182 5.98347,9.417499 6.183167,9.179275 l 4.12871,-4.877858 c 0.342085,-0.394545 1.010113,-0.409058 1.364667,0 z"
       id="path1862-6-8"
       style="fill:#d3dae3;fill-opacity:1;stroke-width:0.0448464"
       sodipodi:nodetypes="ccscsssscsccccc" />
  </g>
  <sodipodi:namedview
     pagecolor="#ffffff"
     bordercolor="#000000"
     borderopacity="1"
     objecttolerance="10"
     gridtolerance="10"
     guidetolerance="10"
     inkscape:pageopacity="0"
     inkscape:pageshadow="2"
     inkscape:window-width="1920"
     inkscape:window-height="994"
     id="namedview9"
     showgrid="false"
     inkscape:zoom="7.5853275"
     inkscape:cx="24.323274"
     inkscape:cy="29.662529"
     inkscape:window-x="0"
     inkscape:window-y="0"
     inkscape:window-maximized="1"
     inkscape:current-layer="svg4153"
     inkscape:document-rotation="0"
     inkscape:showpageshadow="true"
     inkscape:lockguides="false"
     inkscape:pagecheckerboard="0"
     inkscape:deskcolor="#d1d1d1"
     showguides="false">
    <inkscape:grid
       type="xygrid"
       id="grid887"
       originx="10"
       originy="32.000013" />
  </sodipodi:namedview>
  <metadata
     id="metadata4159">
    <rdf:RDF>
      <cc:Work
         rdf:about="">
        <dc:format>image/svg+xml</dc:format>
        <dc:type
           rdf:resource="http://purl.org/dc/dcmitype/StillImage" />
      </cc:Work>
    </rdf:RDF>
  </metadata>
  <defs
     id="defs4157">
    <linearGradient
       inkscape:collect="always"
       id="linearGradient460">
      <stop
         style="stop-color:#5581aa;stop-opacity:1;"
         offset="0"
         id="stop456" />
      <stop
         style="stop-color:#9d7ed5;stop-opacity:1"
         offset="1"
         id="stop458" />
    </linearGradient>
    <style
       type="text/css"
       id="current-color-scheme" />
    <linearGradient
       inkscape:collect="always"
       xlink:href="#linearGradient460"
       id="linearGradient5058"
       x1="148.9608"
       y1="596.36218"
       x2="148.9608"
       y2="636.12817"
       gradientUnits="userSpaceOnUse"
       gradientTransform="matrix(0.50999969,0,0,0.42750131,-90.973083,-280.94965)" />
    <linearGradient
       inkscape:collect="always"
       xlink:href="#linearGradient460"
       id="linearGradient5058-3"
       x1="148.96695"
       y1="596.37164"
       x2="148.96695"
       y2="636.13757"
       gradientUnits="userSpaceOnUse"
       gradientTransform="matrix(0.50999969,0,0,0.42750131,-58.969972,-248.94562)" />
    <linearGradient
       inkscape:collect="always"
       xlink:href="#linearGradient460"
       id="linearGradient6958"
       gradientUnits="userSpaceOnUse"
       gradientTransform="matrix(0.43219982,0,0,0.36977632,-52.889364,-217.9162)"
       x1="146.80391"
       y1="596.36243"
       x2="146.99998"
       y2="636.3623" />
    <linearGradient
       inkscape:collect="always"
       xlink:href="#linearGradient460"
       id="linearGradient20653"
       gradientUnits="userSpaceOnUse"
       gradientTransform="matrix(0.43219982,0,0,0.36977632,-52.889364,-217.9162)"
       x1="146.80391"
       y1="596.36243"
       x2="146.99998"
       y2="636.3623" />
  </defs>
  <g
     id="pamac-tray-update"
     transform="translate(32.003124,32.004032)">
    <rect
       style="opacity:0.00100002"
       width="32"
       height="32"
       x="-32.003124"
       y="-32.004032"
       id="rect633" />
    <path
       inkscape:connector-curvature="0"
       id="path9068-9-37-8-0-1"
       d="m -5.803124,-26.004032 -20.4,5e-6 v 17.099994 h 20.4 z"
       style="display:inline;overflow:visible;visibility:visible;opacity:1;fill:url(#linearGradient5058);fill-opacity:1;fill-rule:nonzero;stroke:none;stroke-width:0.653705;marker:none"
       sodipodi:nodetypes="ccccc" />
    <path
       d="m -9.039499,-28.004032 h -13.927554 c -1.33518,0.0015 -2.615323,0.532573 -3.559317,1.476775 -0.944186,0.944013 -1.475229,2.224101 -1.476754,3.559294 v 13.928051 -1.9e-4 c 0.0015,1.335156 0.532568,2.615282 1.476754,3.559294 0.943994,0.944202 2.224137,1.475226 3.559318,1.476775 h 13.928034 -1.94e-4 c 1.335183,-0.0015 2.615324,-0.532573 3.559318,-1.476775 0.944187,-0.944012 1.475232,-2.224138 1.476755,-3.559294 v -13.927596 c -0.0018,-1.335156 -0.532568,-2.615282 -1.476755,-3.559295 -0.943994,-0.944202 -2.224135,-1.475225 -3.559319,-1.476775 z m -13.763624,2.000013 h 13.599998 c 0.887095,0.0011 1.603761,0.04384 2.231,0.671244 0.627232,0.627212 0.967901,1.441663 0.969001,2.328756 v 14.000012 h -20 v -14.000012 c 0.0011,-0.887093 0.341775,-1.701506 0.969001,-2.328756 0.627201,-0.627213 1.343916,-0.670148 2.231,-0.671244 z"
       id="path1193-5-3"
       style="fill:#d3dae3;fill-opacity:1;stroke-width:0.047619"
       sodipodi:nodetypes="ccccccccccccccccccccccccc" />
    <path
       d="m -11.188876,-18.393034 c 0.208482,0.258898 0.243175,0.610243 0.09544,0.911018 -0.138893,0.292157 -0.443309,0.482003 -0.782271,0.482003 h -1.564516 v 5.136151 c 0,0.472781 -0.382428,0.859805 -0.86917,0.859805 h -3.389871 c -0.478144,0 -0.869169,-0.386986 -0.869169,-0.859805 v -5.136151 h -1.5647 c -0.330368,0 -0.634519,-0.188977 -0.782269,-0.482003 -0.147704,-0.301229 -0.104239,-0.653103 0.09544,-0.911018 l 4.128708,-5.284535 c 0.342084,-0.427427 1.010112,-0.443074 1.364665,0 z"
       id="path1862-62-2"
       style="fill:#bf616a;fill-opacity:1;stroke-width:0.0466775"
       sodipodi:nodetypes="ccscsssscsccccc" />
  </g>
  <g
     id="pamac-tray-no-update"
     transform="translate(32,1.313501e-5)">
    <rect
       style="opacity:0.00100002"
       width="32"
       height="32"
       x="-3.8951634e-11"
       y="-4.6337427e-09"
       id="rect640" />
    <path
       inkscape:connector-curvature="0"
       id="path9068-9-37-8-0-1-9"
       d="m 25.999992,6 -20.199999,5e-6 V 23.1 h 20.399999 z"
       style="display:inline;overflow:visible;visibility:visible;opacity:1;fill:url(#linearGradient5058-3);fill-opacity:1;fill-rule:nonzero;stroke:none;stroke-width:0.653705;marker:none"
       sodipodi:nodetypes="cccccc" />
    <path
       d="M 22.963625,4 H 9.036071 C 7.70089,4.0015 6.420747,4.532573 5.476753,5.476774 4.532567,6.420787 4.001524,7.700875 4,9.036068 v 13.928051 -1.9e-4 c 0.0015,1.335156 0.532567,2.615282 1.476753,3.559294 0.943994,0.944202 2.224137,1.475226 3.559318,1.476775 h 13.928035 -1.94e-4 c 1.335183,-0.0015 2.615324,-0.532573 3.559318,-1.476775 0.944187,-0.944012 1.475232,-2.224138 1.476755,-3.559294 V 9.036333 C 27.998185,7.701177 27.467417,6.421051 26.52323,5.477038 25.579236,4.532837 24.299095,4.001814 22.963911,4.000264 Z M 9.2,6.000012 h 13.599999 c 0.887095,0.0011 1.603761,0.04384 2.231,0.671244 C 25.658231,7.298468 25.9989,8.112919 26,9.000012 V 23.000024 H 6 V 9.000012 C 6.0011,8.112919 6.341774,7.298506 6.969,6.671256 7.596201,6.044043 8.312916,6.001108 9.2,6.000012 Z"
       id="path1193-367"
       style="fill:#d3dae3;fill-opacity:1;stroke-width:0.047619"
       sodipodi:nodetypes="ccccccccccccccccccccccccc" />
    <path
       d="m 20.814247,13.610999 c 0.208482,0.258898 0.243175,0.610243 0.09544,0.911018 -0.138893,0.292157 -0.443309,0.482003 -0.782271,0.482003 H 18.5629 v 5.136151 c 0,0.472781 -0.382428,0.859805 -0.86917,0.859805 h -3.389871 c -0.478144,0 -0.869169,-0.386986 -0.869169,-0.859805 V 15.00402 h -1.5647 c -0.330368,0 -0.634519,-0.188977 -0.782269,-0.482003 -0.147704,-0.301229 -0.104239,-0.653103 0.09544,-0.911018 l 4.128708,-5.2845348 c 0.342084,-0.427427 1.010112,-0.443074 1.364665,0 z"
       id="path1862-5"
       style="fill:#d3dae3;fill-opacity:1;stroke-width:0.0466775"
       sodipodi:nodetypes="ccscsssscsccccc" />
  </g>
</svg>
