<?xml version="1.0" encoding="UTF-8" standalone="no"?>
<svg
   width="32"
   height="32"
   version="1"
   id="svg5543"
   sodipodi:docname="plasma.svg"
   inkscape:version="1.2.2 (b0a8486541, 2022-12-01)"
   xmlns:inkscape="http://www.inkscape.org/namespaces/inkscape"
   xmlns:sodipodi="http://sodipodi.sourceforge.net/DTD/sodipodi-0.dtd"
   xmlns:xlink="http://www.w3.org/1999/xlink"
   xmlns="http://www.w3.org/2000/svg"
   xmlns:svg="http://www.w3.org/2000/svg">
  <g
     id="22-22-plasma-browser-integration">
    <rect
       style="fill:none;fill-opacity:1;stroke:none"
       id="rect4150"
       width="22"
       height="22"
       x="-22.000004"
       y="10" />
    <path
       inkscape:connector-curvature="0"
       id="path9068-9-37-8-0-1-0-1-3-7-4-6-1"
       d="m -2.5405688,12.6 -17.1185102,5e-6 v 14.790996 h 17.2880002 z"
       style="display:inline;overflow:visible;visibility:visible;opacity:0.6;fill:url(#linearGradient6958);fill-opacity:1.0;fill-rule:nonzero;stroke:none;stroke-width:0.55969;marker:none"
       sodipodi:nodetypes="cccccc" />
    <path
       d="M -5.1970588,11 H -16.803349 c -1.11265,0.0012 -2.17944,0.443811 -2.9661,1.230645 -0.78682,0.786678 -1.22936,1.853418 -1.23063,2.966079 v 11.606709 -1.58e-4 c 0.001,1.11263 0.44381,2.179405 1.23063,2.966075 0.78666,0.78684 1.85345,1.22936 2.9661,1.23065 h 11.6066902 -1.6e-4 c 1.11265,-0.001 2.17944,-0.44381 2.9661,-1.23065 0.78682,-0.78667 1.22936,-1.853445 1.23063,-2.966075 V 15.196944 c -0.002,-1.11263 -0.44381,-2.179402 -1.23063,-2.966078 -0.78666,-0.786835 -1.85345,-1.229354 -2.9661,-1.230646 z m -11.1700202,2 h 10.7340002 c 0.73924,9.16e-4 1.5363,0.0032 2.059,0.526 0.52269,0.522677 0.57308,0.901432 0.574,1.640677 V 27 H -19.000079 V 15.166677 c 9.2e-4,-0.739245 0.0513,-1.117968 0.574,-1.640677 0.52267,-0.522677 1.31976,-0.525087 2.059,-0.526 z"
       id="path1193-3-7-2-2-4-2"
       style="fill:#d3dae3;fill-opacity:1;stroke-width:0.0396825"
       sodipodi:nodetypes="ccccccccccccccccccccccccc" />
    <path
       id="path16-3"
       style="color:#31363b;fill:#d3dae3;fill-opacity:1;stroke-width:0.660419"
       d="m -14.358337,14.312782 c -0.364736,0 -0.660413,0.295677 -0.660413,0.660421 0,0.364733 0.295677,0.660415 0.660413,0.660415 0.364742,0 0.660421,-0.295682 0.660421,-0.660415 0,-0.364744 -0.295679,-0.660421 -0.660421,-0.660421 z m 4.6229242,0 c -0.7514192,-0.425084 -1.7202552,0.425138 -1.3208342,1.320836 l 1.9812492,1.981249 -1.9812492,1.981254 c -0.46343,0.833643 0.417197,1.786304 1.3208342,1.320835 l 3.302086,-3.302089 z m -6.2739652,3.962505 c -0.54711,0 -0.990626,0.443518 -0.990626,0.990624 0,0.547107 0.443516,0.990627 0.990626,0.990627 0.547109,0 0.990628,-0.44352 0.990628,-0.990627 0,-0.547106 -0.443519,-0.990624 -0.990628,-0.990624 z m 2.971876,3.962503 c -0.729478,0 -1.320835,0.591361 -1.320835,1.320833 0,0.729476 0.591357,1.320835 1.320835,1.320835 0.729478,0 1.320836,-0.591359 1.320836,-1.320835 0,-0.729472 -0.591358,-1.320833 -1.320836,-1.320833 z"
       class="ColorScheme-Text"
       sodipodi:nodetypes="ssssscccccccssssssssss" />
    <path
       style="fill:#d3dae3;fill-opacity:1;stroke-width:0.013191"
       inkscape:connector-curvature="0"
       d="m -5.4076028,24.773691 c 0.188391,-0.363224 0.295121,-0.775342 0.295121,-1.213855 0,-0.828175 -0.380773,-1.566533 -0.976293,-2.051283 0.04604,0.04235 0.08956,0.08458 0.125298,0.116236 0.183137,0.169073 0.343894,0.365874 0.47171,0.57985 -0.0061,0 -0.0067,0.0022 -0.0067,0.0028 0.08818,0.128151 0.156811,0.270775 0.212107,0.418713 -0.03171,-0.04357 -0.138327,-0.11095 -0.087,-0.0074 0.02481,0.0515 0.087,0.07791 0.105309,0.12813 0.01428,-0.0022 0.0067,-0.01985 0.01532,-0.01985 0.01428,0.02501 -0.006,0.05546 0.02483,0.07392 0.03688,0.121559 0.06444,0.24707 0.08453,0.375197 -0.110639,0.03046 -0.200269,0.142656 -0.270093,0.0063 -0.03681,-0.07262 -0.05544,-0.122821 -0.105304,-0.188855 -0.03692,-0.05014 -0.08974,-0.08852 -0.104406,-0.153211 -0.02489,-0.105666 -0.197629,-0.169072 -0.202895,-0.285304 -0.0039,-0.0172 -0.04345,-0.100403 -0.04105,-0.103006 0.01109,-0.0095 0.0067,-0.05289 0.0067,-0.06461 0.0059,-0.04357 0.01208,-0.07791 0.004,-0.121495 -0.09371,0.02504 -0.172584,-0.01312 -0.26877,-0.02237 0.006,-0.0022 0.0067,-0.0043 0.0067,-0.0074 -0.02774,-0.02501 -0.04742,-0.04237 -0.08034,-0.06069 0.03684,-0.03691 -0.004,-0.02111 -0.0067,-0.04494 -0.0067,-0.03299 0.08029,-0.01854 0.09469,-0.02502 -0.0039,-0.0043 -0.01209,-0.0095 -0.01209,-0.01463 -0.03407,-0.0063 -0.02924,0.03046 -0.06708,0.0042 -0.02915,-0.02112 -0.03287,-0.0066 -0.06068,-0.0042 0.0061,0.0066 0.0067,0.01463 0.0067,0.02236 0,0 -0.04739,-0.03427 -0.04215,-0.0066 0.02777,0.02647 0.04345,0.0542 0.07634,0.08056 -0.01977,0.01094 -0.03674,-0.0022 -0.05385,-0.01463 0.004,0.0074 0.01108,0.04883 0.01699,0.05289 -0.03823,-0.0042 -0.06068,-0.02236 -0.04483,-0.0555 -0.02917,-0.0043 -0.09224,-0.06606 -0.0988,-0.09643 -0.0084,-0.05545 -0.08452,-0.06203 -0.0896,-0.09641 -0.01431,-0.0022 -0.166025,-0.106991 -0.162116,-0.07658 0.0067,0.04881 0.08702,0.116227 0.137038,0.121507 0.0067,0.04101 0.08452,0.03046 0.08557,0.07526 -0.07261,-0.01979 -0.04468,-0.02502 -0.03681,0.02651 -0.004,-0.0063 -0.04217,0.05685 -0.04742,0.025 0.07625,0.0066 -0.166006,-0.1836 -0.156833,-0.162464 -0.05385,-0.0555 -0.06319,-0.07659 -0.134328,-0.03964 -0.03404,0.01722 -0.150238,-0.04356 -0.119787,0.03299 -0.004,0.0059 -0.160717,0.07392 -0.09223,0.104337 -0.02109,0.0291 -0.05384,0.05415 -0.083,0.06606 -0.03544,-0.01289 -0.100074,0.03562 -0.121174,0.0043 -0.0248,-0.041 -0.04214,-0.02504 -0.08452,-0.02779 -0.04342,-0.0043 -0.0067,-0.147935 -0.0067,-0.166424 0,-0.02642 -0.02218,-0.0634 0.03293,-0.05942 0.04746,0.0043 0.0936,0.0144 0.142294,0.01983 0.05384,-0.0066 0.07502,0.01212 0.07125,-0.06205 -0.004,0 -0.004,0.0022 -0.0059,0.0022 0.03294,-0.05414 -0.114637,-0.06868 -0.114637,-0.09772 0,-0.01982 0.08556,-0.0022 0.09467,-0.0042 0,-0.0093 -0.0067,-0.01725 -0.0067,-0.02779 0.0685,0.0063 0.07759,-0.0198 0.135765,-0.03177 0.04868,-0.01094 0.0422,-0.06203 0.100047,-0.05816 0.01699,0.0022 0.07903,0.006 0.06448,-0.02109 -0.03404,-0.05943 -0.03404,-0.05943 0.02914,-0.08457 0.0059,0.01857 0.01221,0.02502 0.01512,0.03175 -0.0059,0 -0.0067,0.01095 -0.0067,0.02374 0.01207,0.0022 0.01973,0.0062 0.01699,0.0211 -0.0059,-0.0095 -0.01428,-0.006 -0.02107,-0.0095 -0.0059,0.0144 -0.0067,0.02504 -0.0059,0.01858 0.0317,0.0043 0.06992,0.0022 0.101502,0.0061 -0.0067,0.03826 0.116103,-0.0061 0.144996,0.0062 -0.004,0.0029 -0.0059,0.006 -0.0059,0.0066 0.01207,0.0022 0.02482,0.0022 0.03547,0.0022 -0.0084,-0.06603 0.109265,-0.09112 0.109265,-0.07392 0,-0.01597 -0.05281,-0.03563 -0.0368,-0.04234 0.04474,-0.02373 0.09728,0.01212 0.14624,-0.0062 -0.01859,-0.0198 -0.247703,-0.01312 -0.213446,-0.05685 -0.01974,-0.0061 -0.017,-0.01852 -0.02641,-0.03175 0.0067,0.0022 0.10268,-0.03298 0.101515,-0.03691 -0.0186,-0.04493 -0.09372,-0.0062 -0.101515,0.0062 0.0067,0.0211 -0.09729,0.01211 -0.09377,0.04357 0.0067,0.03429 0.04748,0.02501 0.05542,0.05549 0.004,0.006 -0.101498,0.04745 -0.03681,0.05941 0.004,0.02501 -0.07759,0.04493 -0.09466,0.04356 -0.01473,-0.0029 -0.04605,-0.06207 -0.05384,-0.0752 -0.01972,-0.0291 -0.02919,-0.05146 -0.06199,-0.03047 -0.0122,0.0062 -0.109264,0.03173 -0.113389,-0.0043 -0.004,-0.0092 0.017,0.0022 0.01428,-0.01439 -0.01428,-0.0022 -0.01428,-0.0022 -0.02482,0 0.006,-0.0061 0.0067,-0.0093 0.01471,-0.01212 -0.06855,-0.04752 0.06205,-0.07393 0.09372,-0.06997 -0.01109,-0.0029 -0.0146,-0.0042 -0.02217,-0.006 0.01975,-0.0022 0.172583,-0.0634 0.177847,-0.07931 -0.02108,0.0022 -0.0292,0.0043 -0.04863,0.0043 0.006,-0.0022 0.01428,-0.0043 0.01532,-0.0043 -0.006,0 -0.01423,-0.0029 -0.01423,-0.0029 0.0059,-0.0074 0.07123,-0.0029 0.07265,-0.0029 -0.0067,-0.0022 -0.0067,-0.0022 -0.01428,-0.0022 0.01108,-0.0043 0.02221,-0.0062 0.03399,-0.0043 -0.0067,-0.0032 -0.0061,-0.0032 -0.0067,-0.0043 0.03173,-0.0092 0.07118,0 0.104267,-0.006 -0.02481,-0.0043 0.05936,-0.01982 0.05127,0.006 0.0341,0.0043 0.06997,0.01463 0.105269,0.03299 -0.407738,-0.259972 -0.891268,-0.411877 -1.410383,-0.411877 -1.454567,0 -2.6337672,1.183486 -2.6337672,2.64038 0,0.962903 0.5125252,1.802957 1.2793342,2.263933 -0.01514,-0.02235 -0.0061,-0.04747 -0.01514,-0.07394 -0.01699,-0.03561 -0.0447,-0.041 -0.0447,-0.08982 0,-0.09774 -0.0067,-0.158507 -0.04602,-0.256245 -0.04172,-0.05547 -0.03516,-0.178322 -0.04719,-0.247009 -0.02346,-0.066 -0.03272,-0.133391 -0.06056,-0.198112 -0.03041,-0.06997 -0.115992,-0.11887 -0.190956,-0.128126 -0.0973,-0.01724 -0.11197,-0.100377 -0.171305,-0.165099 -0.05018,-0.05288 -0.100037,-0.113569 -0.139689,-0.173029 -0.01974,-0.0265 -0.05935,-0.0291 -0.0713,-0.07521 -0.01107,-0.04233 0.03046,-0.05941 0.03046,-0.09774 -0.05813,-0.03176 -0.04113,-0.03964 -0.03963,-0.102994 0.004,-0.05416 0.07499,-0.112279 0.07381,-0.16774 -0.01428,-0.0061 -0.01977,-0.01287 -0.01428,-0.02501 -0.01209,-0.05289 -0.07912,-0.14002 -0.01209,-0.16776 -0.01432,-0.07261 0.075,-0.121507 0.129018,-0.145296 0.01208,-0.0059 0.02486,-0.04236 0.04109,-0.02115 0.0068,0.0066 0.0068,0.01723 -0.006,0.02506 0,0.01721 -0.01106,0.101683 0.02778,0.100378 0.01699,-0.0029 -0.04744,-0.09113 0.04109,-0.09641 -0.0067,-0.01596 -0.02483,-0.0066 -0.02914,-0.02502 0.03171,-0.0022 0.06997,0.02631 0.0882,0.04745 0.01474,0.01596 0.07125,0.0074 0.08961,0.01462 0.02637,0.01103 0.07902,-0.02502 0.114681,-0.02502 -0.0061,0.0042 -0.01431,0.006 -0.0186,0.0042 0.01206,0.05943 0.143601,0.07394 0.180502,0.128134 0.0292,0.04235 0.152845,0.05415 0.198961,0.0529 0.05383,-0.0044 0.146227,0.128128 0.121146,0.162465 -0.03824,0.05147 0.01699,0.114917 0.06553,0.109674 0.04867,-0.006 0.006,-0.09241 0.0988,-0.05414 0.03543,0.01597 0.04867,0.01287 0.05928,0.05549 0.04341,-0.0061 0.101532,-0.0211 0.152817,-0.0074 0.05126,0.01463 0.08301,0.04744 0.137101,0.05941 0.11716,0.02501 0.0067,0.240397 -0.02217,0.293229 -0.01979,0.03964 0.03963,0.17303 0.03172,0.231149 -0.02482,0.10166 -0.04109,0.137358 -0.127817,0.194163 -0.02369,0.01465 -0.06853,0.06204 -0.06319,0.09512 0.0067,0.02777 0.01701,0.05685 0.02641,0.08459 -0.01512,0.0198 -0.02367,0.04233 -0.02367,0.06605 v 0 c -0.0067,0.06339 -0.03297,0.120167 -0.04472,0.186237 -0.0067,0.04356 -0.142297,0.06339 -0.147632,0.05015 0.0248,0.06738 0.121147,0.03831 0.07634,0.140025 -0.01533,0.03561 -0.07115,0.04355 -0.102672,0.0515 -0.03962,0.0094 0.004,0.05419 0,0.07519 0.01861,0.04233 -0.04475,0.02109 -0.06995,0.02782 -0.04747,0.01316 0.07117,0.06741 0.06319,0.0515 0.01207,0.02501 -0.0278,0.01172 -0.03689,0.01464 0.0111,0.02503 0.04866,0.08579 0.004,0.106991 -0.07118,0.04357 0.05382,0.06864 0.06568,0.102981 0.304333,0.122808 0.636346,0.191509 0.984189,0.191509 0.996055,0 1.863006,-0.55476 2.309652,-1.372364 0.01428,-0.02633 0.02371,-0.041 0.0369,-0.05288 z m -0.996084,-3.242685 c 0,0.0069 -0.0067,0.01982 -0.01862,0.01857 -0.0067,0 -0.01207,-0.0062 -0.01207,-0.0092 0.0067,0 0.01433,-0.0029 0.01975,-0.0029 -0.02218,-0.01721 0.0061,-0.01095 0.01108,-0.0063 z m -0.106665,0.0144 c -0.0066,0.0062 -0.01211,0.01287 -0.017,0.02112 -0.01428,-0.01212 0.01207,-0.02237 0.017,-0.02112 z m -0.163386,0.0475 c -0.01976,0.0022 -0.01209,0.03964 -0.04215,0.01856 0.006,-0.0043 0.0067,-0.0043 0.0067,0 0.0068,0 0.01428,-0.0043 0.01428,-0.0066 -0.04601,-0.0095 -0.0059,-0.05015 0.02108,-0.01094 z m -0.21477,-0.328863 c -0.006,0.0021 -0.0067,0.0021 -0.0067,0.0021 0.0067,0.0029 0.01206,0.0029 0.01532,0.0043 -0.0122,-0.0029 0.02641,0.0029 0.0317,0.0043 -0.02481,-0.02235 0.02639,-0.0074 0.02774,-0.0074 0,0.0031 -0.004,0.0031 -0.004,0.006 0.01207,-0.0029 0.0277,0 0.04342,0.0031 -0.0059,-0.0022 -0.0067,-0.0031 -0.0067,-0.006 0.0085,0.0022 0.01976,0 0.02913,0 -0.0059,0 -0.03046,-0.0022 -0.03169,-0.0022 -0.0067,0 -0.02919,0.0022 -0.03294,-0.0063 0.0067,0 0.01428,0 0.02108,0.0022 v -0.0022 c 0.0061,0 0.0067,0 0.01107,0 -0.004,-0.0022 -0.0059,-0.0022 -0.006,-0.0031 0.04343,0 0.112005,-0.0069 0.152824,0.01095 -0.01431,0.0028 -0.083,0.01313 -0.121129,0.0066 0.0067,0.0029 0.01209,0.0043 0.01699,0.0062 -0.0059,0.0022 -0.006,0 -0.0067,0 0.01978,0.0029 0.04602,0.0063 0.06705,0.01596 -0.01973,0.0022 -0.0264,0.0062 -0.04474,0.0074 -0.0059,-0.0022 -0.0059,-0.0043 0,-0.0061 -0.0067,0 -0.02369,-0.0022 -0.03172,-0.0029 0,-0.0043 0.0067,-0.0029 0.0084,-0.0061 -0.0067,0 -0.0084,-0.0043 -0.01428,-0.0066 -0.02915,0.0066 -0.113422,0.03829 -0.116078,0.0062 0.01431,0 0.02639,0.0022 0.04113,0.0022 -0.0067,-0.0031 -0.04867,0 -0.04867,-0.0074 0,0 0.02483,-0.0042 0.03824,-0.006 -0.01701,0 -0.04743,0.0043 -0.05545,-0.0029 0.004,-0.0022 0.0059,-0.0022 0.006,-0.0022 -0.0084,-0.0022 -0.01699,-0.0043 -0.01475,-0.0063 -0.0067,-0.0022 -0.0121,-0.0042 -0.01855,-0.0061 0.01514,-0.0022 0.03037,-0.0031 0.04604,0.0022 z m -0.04343,0.0073 v 0 c 0,0.0022 0,0.0022 0,0 0,0.0022 0,0 0,0 z m -0.004,0 c 0.0067,0.0029 0.01428,0.0043 0.017,0.0093 -0.0085,0 -0.0237,-0.0062 -0.017,-0.0093 z m 1.067172,1.034262 c 0.004,0.01597 -0.0528,0.04746 -0.05936,0.01462 0.01472,-0.006 0.04111,-0.01313 0.05936,-0.01462 z m -0.263449,-0.0093 c -0.01857,0.0071 -0.05813,-0.006 -0.07377,-0.01463 0.02482,-0.0022 0.05383,0.0063 0.07377,0.01463 z m -0.376502,-0.142324 c -0.0059,0.0095 -0.006,0.04756 -0.006,0.04756 -0.01513,-0.0022 -0.08452,-0.03964 -0.08555,-0.05289 0.0143,-0.0043 0.07502,0.0022 0.08959,0.0061 z m -0.209218,-0.18209 c 0,0.0061 0.0059,0.0095 0.0068,0.0095 -0.0059,0.01172 -0.006,0.03426 -0.0068,0.03964 -0.01207,-0.0042 -0.01699,-0.03176 -0.02483,-0.041 0.0067,0 0.017,-0.0029 0.02483,-0.0074 z m -0.01207,0.08984 c -0.004,-0.0073 -0.01207,-0.01463 -0.01428,-0.02373 0.08701,-0.01289 0.02483,0.116235 0.01428,0.02373 z m -0.171303,0.0063 c 0.004,0.01172 -0.02482,-0.0061 -0.02482,-0.0063 0.01428,-0.01094 0.02108,-0.0073 0.02482,0.0063 z m -0.230974,-0.581096 c -0.0068,0.0059 -0.01514,0.0093 -0.02481,0.01288 0.01109,0.01984 0.03052,0.02505 0.0621,0.0073 0.006,0.01724 -0.0317,0.03177 -0.0341,0.04101 0.04113,0.01094 0.101509,0.05155 0.104301,0.0938 0.0067,-0.0022 0.0067,-0.0042 0.01207,-0.0042 0.02371,-0.01095 0.02371,0.01441 -0.004,0.04358 0.0067,0.0022 0.01459,0.0032 0.02216,0.006 0,0.0069 -0.180508,0.02372 -0.200279,0.02239 0.01208,-0.02113 0.0712,-0.03046 0.0712,-0.04236 -0.0067,0.0066 -0.06447,-0.0043 -0.06447,-0.0074 0,-0.01313 0.02109,-0.01721 0.02109,-0.04233 0.01699,0.0022 0.04605,0.0022 0.04605,-0.01981 -0.01515,0 -0.02919,-0.0029 -0.017,-0.01854 -0.0067,-0.0022 -0.05017,0.0043 -0.04862,-0.0062 0,-0.02374 0.0277,-0.01209 -0.0067,-0.0291 -0.0067,0.0043 -0.0059,0.0062 0,0.0066 -0.006,0 -0.0067,0 -0.0067,0 0,-0.02502 -0.006,-0.0198 -0.006,-0.03825 -0.01428,-0.0029 -0.02219,-0.0062 -0.02219,-0.01211 0.0059,0 0.02774,0.0071 0.02774,0.0043 -0.01977,-0.0063 0.06856,-0.05292 0.06555,-0.01855 z m -0.04602,0.110945 c 0,-0.0043 0.004,-0.0062 0.0067,-0.0071 0.004,0 0.006,0.0022 0.0067,0.0022 0,0.0022 -0.004,0.0043 -0.004,0.0069 -0.0059,-0.0022 -0.0067,-0.0022 -0.01207,-0.0022 z m -0.03682,-0.114917 c 0,0.0066 -0.0067,0.01312 -0.01976,0.01211 -0.0211,0 0.01701,-0.01211 0.01976,-0.01211 z m -0.107934,0.10829 c 0.004,-0.01212 0.03411,-0.007 0.04213,-0.01212 -0.01975,-0.02115 0.0329,-0.02115 0.04214,-0.01856 0.06072,0.0043 0.01514,0.03176 0.01514,0.03826 -0.004,0.04883 -0.03407,0.06461 -0.08821,0.06067 -0.05658,-0.0042 0.0059,-0.03964 0.0067,-0.05414 -0.0067,-0.0061 -0.01108,-0.01095 -0.01856,-0.01442 z m -1.470407,-0.264232 c 0.01107,0 0.02222,0 0.03171,0 -0.0067,0 -0.01428,0 -0.01977,-0.0043 0.0067,-0.0043 0.01699,-0.0031 0.02639,-0.0031 -0.004,-0.0022 -0.006,-0.0022 -0.006,-0.0029 0.0122,-0.0029 0.02483,-0.0029 0.0368,-0.0043 -0.0067,-0.0022 -0.01515,-0.0022 -0.01105,-0.0043 0.02107,0 0.06445,0.01855 0.0776,0.0093 l -0.0039,-0.0022 c 0.01515,-0.0022 0.01414,0.0022 0.0059,0.0074 0.02109,-0.01212 0.02639,0.01442 0.06068,-0.0093 0.0059,-0.0022 -0.01512,-0.0066 -0.02218,-0.0066 0.01513,0 0.01978,-0.0022 0.01109,-0.0043 -0.01701,0 -0.0304,-0.0031 -0.03294,-0.0062 0.0067,-0.0022 0.01428,-0.0031 0.01976,-0.0043 -0.0067,0.0022 -0.01864,0.0022 -0.02773,0.0022 0.01431,-0.006 0.02918,-0.006 0.04602,-0.0061 -0.01514,-0.0029 -0.0317,0.0061 -0.04746,0.003 0.0084,-0.0022 0.01428,-0.003 0.02217,-0.0043 -0.01472,0.0029 -0.02779,0.0029 -0.04218,0.0029 0.07629,-0.02782 0.292491,-0.04746 0.368913,-0.01979 -0.03963,0.01094 0.06447,-0.0061 0.06066,0.0043 -0.006,0.0071 -0.06566,0.0071 -0.07125,0.0071 0.0059,0.0022 0.02108,-0.0022 0.03169,-0.0022 -0.05541,0.01595 -0.114659,0.01443 -0.16995,0.02782 0.0067,0 0.0084,0 0.01478,0 -0.006,0.0042 -0.0068,0.0042 -0.01976,0.0042 0.0067,0.0022 0.01108,0.0022 0.01108,0.0061 -0.02483,0.006 -0.03829,0.01095 -0.06447,0.01313 -0.0067,0.01212 -0.02778,0.0063 -0.03829,0.01597 0.0067,-0.0022 0.02481,-0.0029 0.02222,0 -0.04214,0.041 -0.139691,0.0061 -0.201582,0.01093 0.01219,-0.0043 0.02482,-0.0063 0.03836,-0.0063 -0.03406,-0.01597 0.04342,-0.0062 0.05383,-0.0066 -0.01699,-0.01285 -0.04604,-0.01095 -0.06319,-0.0062 0,0.0022 0.0059,0.0028 0.004,0.0042 -0.01428,0 -0.06067,-0.0042 -0.0738,0.0022 0.0059,0 0.0067,0 0.0067,0 -0.0059,0 -0.0067,0.0022 -0.01108,0.0022 0.004,0 0.0059,-0.0022 0.0059,-0.0022 -0.0061,0 -0.0068,-0.0022 -0.01108,-0.0061 0.01861,-0.0043 0.03686,-0.006 0.05546,-0.006 -0.0067,-0.0022 -0.0354,-0.0029 -0.05283,-0.0029 0.004,0 0.006,0 0.0067,-0.0022 -0.02107,0.0062 -0.03295,0.0062 -0.02369,0 z m 0.229242,0.08712 c -0.01513,0.0067 -0.0513,0.0061 -0.06849,0.0067 -0.004,0 -0.02641,-0.0061 -0.01977,-0.01094 0.01977,-0.01595 0.06706,-0.003 0.08821,0.0029 z m -0.293865,-0.08325 c 0.0067,0 0.01699,0 0.02107,-0.0022 -0.0059,0.0022 -0.0067,0.0043 -0.0067,0.0059 0.01108,0 -0.02217,0.0022 -0.01428,-0.0043 z m 0.03038,0.02501 c 0.0067,-0.0022 0.0067,0 0,0 v 0 c -0.0146,0 -0.06561,0.0043 -0.03398,-0.0022 -0.01531,-0.01312 0.05019,-0.01721 0.03398,0.0022 z m 0.0237,0.0029 c -0.0067,0.0043 -0.01208,0.0061 -0.01861,0.0061 -0.0059,0 -0.03545,-0.0022 -0.03545,-0.0022 0.01858,-0.0043 0.03674,-0.0043 0.05385,-0.0043 z m 0.0317,0.01982 c -0.0067,0.0022 -0.017,0.0022 -0.02483,0.0022 -0.0067,0.0063 0.01515,0.0029 0.02108,0.006 -0.01478,0.0043 0.181823,-0.01312 0.184464,-0.0022 -0.006,0 -0.0067,0.0022 -0.0121,0.0043 0.0061,0 0.0067,0 0.0067,0 -0.04861,0.03046 -0.140877,-0.01462 -0.184452,0.0092 -0.01213,0 -0.09225,0 -0.04868,-0.0067 -0.006,-0.01313 -0.01108,-0.01596 -0.02369,-0.0066 -0.01109,0 -0.02109,-0.0029 -0.0317,-0.0062 0.0067,-0.0062 0.109248,-0.0062 0.112004,0.0043 z m -0.09467,0.01312 c 0.01973,0.0092 -0.05546,0.0066 -0.05546,0.0066 0.006,-0.0029 0.01431,-0.0043 0.01477,-0.0043 0.01428,-0.0066 0.02644,-0.0093 0.04112,-0.0043 z m -0.11868,-0.04098 c 0.0059,0 0.0067,-0.0022 0.0067,-0.0029 -0.0067,0 -0.0084,-0.0022 -0.0067,-0.0029 0.017,-0.0029 0.07118,-0.0074 0.08451,0.0061 -0.0059,0 -0.0067,0.0022 -0.0067,0.0029 0.0067,0.006 -0.01428,0.0071 -0.0368,0.0071 -0.0068,0.0022 -0.01206,0.0022 -0.01975,0.0029 0.0061,0 0.0084,-0.0022 0.01478,-0.0029 -0.01856,0 -0.03828,-0.0029 -0.04214,-0.0062 0.0084,0.0022 0.01977,-0.0022 0.0277,-0.0062 -0.01515,0.0028 -0.02108,0.0042 -0.0222,0.0028 z m -0.04113,0.01462 c 0.01514,-0.0022 0.0067,0.0061 0.01858,0.0061 -0.006,0.0022 -0.0084,0.0043 -0.01422,0.0043 -0.0067,0.0022 -0.01109,-0.0061 -0.0067,-0.0093 z m -0.0059,0.01856 v 0 c 0,-0.0066 0.02916,0.0042 0.0369,0.006 h 0.0039 c -0.0059,-0.0022 -0.0061,-0.0022 -0.0061,-0.003 0.01428,-0.0074 0.02482,0.0042 0.03963,-0.006 -0.01106,0.0022 -0.01976,0.0022 -0.01515,-0.0028 0.0067,-0.0022 0.05933,0 0.05933,0 0,0.03426 -0.06706,0.01313 -0.0819,0.02236 0.0067,-0.0062 0.02642,-0.0066 0.0341,-0.0092 -0.0067,-0.0043 -0.01976,-0.0031 -0.0317,-0.0031 0,0.0022 0,0.0022 0,0.0022 0,0 0,0 -0.004,-0.0022 -0.01428,0.0031 -0.02642,0.0043 -0.03543,0.0043 0.004,-0.0022 0.004,-0.0022 0.0059,-0.0043 -0.0067,0.0031 -0.0067,0 -0.01109,-0.0022 z m 0.05932,0.03833 c -0.01207,0.0061 -0.02369,0.0066 -0.03677,0.01094 0.0068,0 0.03171,-0.0066 0.01477,0.0043 0.0059,0 0.01107,0.0022 0.01428,0.0022 -0.02483,0.01441 -0.08555,0.0356 -0.107958,0.0042 0.01701,-0.01094 0.03405,0.0022 0.05127,-0.01094 -0.04746,-0.0022 0.06195,-0.0062 0.06564,-0.0092 z m -0.07625,0.07789 c -0.01207,0.0043 -0.09618,0.0043 -0.05283,-0.0043 -0.017,0.0043 0.06564,-0.025 0.05283,0.0043 z m -0.01857,-0.0951 c -0.0067,0.0022 -0.0067,0 -0.01207,0.0022 0.0084,-0.0061 0.01862,-0.0063 0.02917,-0.0069 -0.0059,0.0062 -0.0067,0.0092 -0.01699,0.0062 z m -0.07636,-0.03961 c 0.0085,-0.0062 0.0412,-0.0043 0.05936,-0.0043 0.0061,-0.0022 0.0068,-0.0022 0.01207,-0.0022 -0.004,0.0022 -0.0066,0.0022 -0.01207,0.0022 -0.0059,0 -0.0067,0.0022 -0.0067,0.0022 0.004,0.0022 0.0059,0.0031 0.0059,0.0043 -0.03545,0.0043 -0.03963,0.006 -0.01435,0.0043 -0.0067,0.006 -0.03171,0.0067 -0.04342,0.0067 -0.01428,0.0022 0.0068,-0.0067 0.02915,-0.01462 -0.0111,-0.0029 -0.01862,-0.0022 -0.02642,0.0022 z m -0.01701,0.0061 c -0.0068,0.006 -0.01433,0.006 -0.01861,0.0022 0.0067,-0.0042 0.01428,-0.0042 0.01861,-0.0022 z m -0.04112,0.01599 c 0.0067,-0.0022 0.01433,-0.0022 0.01973,-0.0022 -0.0067,0.0043 -0.01221,0.0063 -0.01861,0.006 -0.0059,-0.0022 -0.0067,-0.0029 -0.004,-0.0043 z m -0.0067,-0.0092 c 0.0067,0.0029 0.0067,0.006 -0.0085,0.0062 -0.0066,0.0074 -0.0143,0.01209 -0.02643,0.0092 0.0085,-0.01211 0.02108,-0.01726 0.03546,-0.01594 z m -0.05017,0.02639 c 0.0067,-0.0043 0.01109,-0.0043 0.01862,-0.0043 -0.004,0 -0.0059,-0.0022 -0.0061,-0.0022 0.0067,-0.0029 0.0122,-0.0043 0.01861,-0.0043 -0.0059,0 -0.006,-0.0022 0,-0.0029 0.03037,-0.0043 0.06068,0.01854 0.09371,0.006 -0.0067,0.0022 -0.0067,0 -0.01109,-0.0022 0.0067,0 0.01109,-0.0022 0.01428,-0.0043 -0.02481,-0.0022 0.03047,-0.01094 0.03544,-0.01094 -0.03033,0.01463 0.03171,0.0092 0.02639,0.01286 -0.04341,0.02502 -0.111984,0.006 -0.159428,0.01441 0,0.0092 -0.0067,0.01209 -0.02219,0.0069 0.0067,-0.0043 0.01429,-0.0069 0.02219,-0.0069 0,0 0,-0.0021 0,-0.0021 -0.006,0 -0.0084,0.003 -0.01206,0.0043 -0.0121,0.0029 -0.0248,0.0043 -0.03684,0.0029 0.0067,-0.0067 0.01435,-0.01211 0.02218,-0.01094 -0.0059,0.0022 -0.006,0 -0.0067,0 z m -0.11339,0.0858 c 0.0066,-0.0074 0.0411,-0.03561 0.06212,-0.04358 -0.004,0 -0.0059,0 -0.006,0 0.0067,-0.0043 0.01108,-0.0066 0.01532,-0.01094 0.004,0.0042 0,0.0062 -0.004,0.0071 0.0067,0 0.0067,0.0029 0.0067,0.01094 0.03294,-0.0067 0.08557,0.01095 0.08033,0.01095 0.03171,-0.0022 0.06319,-0.05154 0.105318,-0.03687 -0.0059,-0.0022 -0.03829,0.02237 -0.04111,0.02781 -0.01515,0.03299 0.0059,0.01287 0.02481,0.03176 -0.01106,0.0043 -0.03298,0.0022 -0.04217,0.0066 0.004,-0.0022 0.0067,0.0062 0.0067,0.0062 -0.0305,0.01463 -0.209497,0.02112 -0.217402,0.01212 -0.0059,-0.0022 -0.01477,0 -0.02371,0 0.02641,-0.02111 0.04112,-0.01978 0.0726,-0.02371 -0.01427,-0.006 -0.03287,-0.0029 -0.04218,0 z m -0.03824,0.02911 c 0.0067,-0.0022 0.0067,0.0029 0.0067,0.01094 -0.0067,0.0022 -0.01513,0.0022 -0.02369,0.0043 0.0067,-0.006 0.01206,-0.01093 0.01699,-0.01463 z m -0.42385,1.468849 c 0.0059,-0.0095 0.0067,-0.01463 0.017,-0.01721 0.0061,-0.0095 0.0061,-0.01854 0.01107,-0.01095 -0.01864,0.05419 -0.02108,0.01595 -0.02778,0.02779 z m 0.134314,0.257562 c -0.07627,0.0029 -0.0422,-0.0396 -0.03287,-0.03827 0.01435,0.0043 0.02482,0.01721 0.03045,0.02369 0,-0.0022 0,-0.0043 0,-0.006 0.0067,0.006 0.0067,0.01172 0.0059,0.01981 z m 0.004,-0.143975 c 0.02216,-0.05418 0.0067,-0.140019 -0.07503,-0.149253 -0.02108,-0.07135 -0.02775,0.01853 -0.09224,0.0095 0.06447,-0.08326 0.114678,-0.09642 0.185773,-0.02502 0.02218,0.02374 0.07502,0.09774 0.0726,0.117561 0.0354,0.01093 0.0085,0.03045 0.02641,0.05546 -0.03679,0.04876 -0.07632,-0.0022 -0.117144,-0.0066 z m 0.109212,-0.29982 c 0.006,-0.0062 0.0067,0.01979 0.0067,0.02506 -0.01433,0.02778 -0.0067,-0.02112 -0.0067,-0.02506 z m 0.107914,0.450407 c -0.0059,-0.02503 -0.04111,0.03562 -0.05017,0.033 0,0 -0.05812,-0.103009 -0.08182,-0.03696 -0.06193,-0.03701 0.06067,-0.04755 0.06708,-0.04358 0.004,-0.01172 0.0059,-0.129446 0.03294,-0.0846 0.01431,0.02236 0.03411,0.0061 0.05382,0.0066 0.04121,0.0062 0.03546,0.04623 0.05018,0.07393 -0.0059,-0.0095 -0.006,-0.01312 0,0.0021 0,0 0,-0.0021 0,-0.0021 0.006,0.01721 0.01477,0.05415 0.01477,0.05146 -0.0061,0 -0.08699,0 -0.08699,-0.0022 z m -0.08828,-0.525727 c 0.0067,-0.0061 0.01428,-0.0095 0.02109,-0.0095 0.0067,0.0022 0.0067,0.0066 0.0067,0.01286 -0.01428,0 -0.0237,-0.0043 -0.02915,-0.0043 z m 0.07625,0.278694 c -0.0059,0.01724 -0.01206,0.02506 -0.03035,0.02373 -0.0186,-0.006 0.02642,-0.01978 0.03035,-0.02373 z m -0.03174,-0.266757 c 0,0.0042 0,0.0073 0,0.01312 -0.0061,0 -0.0059,-0.0074 0,-0.01312 z m 0.169954,0.549465 c 0.0084,-0.0278 0.05385,0.0095 0.05542,0.02374 -0.01432,0.01982 -0.06319,0.006 -0.05542,-0.02374 z m 0.564168,-1.20471 c -0.04215,0.02374 0.004,-0.04877 0.05933,-0.05146 -0.0147,0.0028 -0.01855,-0.0029 -0.0084,-0.01313 -0.04216,0.0022 -0.113432,0.05015 -0.146247,0.04234 -0.03545,-0.0066 -0.144965,0.08191 -0.08451,0.08058 -0.03677,0.01287 -0.09087,0.01095 -0.130416,0.02786 0.0067,0 0.03046,-0.006 0.03692,0.0022 -0.02218,0.0062 -0.122595,0.04234 -0.116099,0.05686 -0.01861,0.01095 -0.02482,0.06998 -0.05932,0.0687 0.0059,0 0.01478,-0.05015 0.01531,-0.05549 -0.0067,0.0066 -0.03823,0.06069 -0.03545,0.07001 0.0059,0 0.0067,0 0.0067,0 -0.0067,0.01171 -0.01477,0.02112 -0.02778,0.02503 0,0.0069 0.006,0.0095 0.0084,0.01095 -0.01108,0.01286 -0.03828,0.0074 -0.01973,0.02912 -0.02361,0.01856 -0.05545,0.02238 -0.08035,0.03964 0,0 0.004,0.0029 0.004,0.0029 -0.101531,0.04236 -0.191046,0.08713 -0.204218,0.207374 -0.006,0.03046 -0.03961,0.165101 -0.08449,0.159825 -0.04113,-0.006 0.03688,-0.200767 0.0317,-0.216615 0,-0.0022 -0.113416,-0.02111 -0.107957,-0.03174 -0.017,0.0043 -0.03406,0 -0.05382,0.0062 0.0067,0.006 0.0067,0.006 0.01429,0.0022 -0.01207,0.01856 -0.02641,0.02909 -0.02107,0.04103 -0.03294,0.01463 -0.06319,-0.05292 -0.107946,-0.02785 -0.06706,0.03563 -0.1160822,0.0674 -0.1541652,0.134725 -0.004,0 -0.004,0 -0.0059,0 -0.0084,0.02373 -0.20686,0.351345 -0.116083,0.371166 0.123789,0.02631 0.129052,-0.147934 0.2635092,-0.125484 -0.01699,0.03562 -0.04746,0.0607 -0.06319,0.09641 -0.01106,0.02236 -0.02108,0.03425 -0.03172,0.04748 -0.01531,0.02505 -0.15284,0.138683 -0.03292,0.143979 0.1436032,0.0095 0.03679,0.145291 0.0067,0.219262 -0.02483,0.06606 -0.07758,0.281332 0.04603,0.228506 0.05929,-0.02504 0.06067,0.06341 0.06996,0.09775 -0.0061,0.0062 -0.04861,0.04623 -0.04861,0.04623 -0.0059,-0.01982 0.01973,-0.0898 -0.0067,-0.100387 -0.05546,-0.01977 -0.05927,0.112306 -0.08698,0.100387 -0.0528,-0.02114 -0.02639,-0.224541 -0.06553,-0.237751 -0.006,0.0061 -0.0067,0.01443 -0.0067,0.0198 -0.0061,-0.0022 -0.0067,-0.0029 -0.0085,-0.0042 -0.01108,-0.04101 0.02482,-0.08323 0.0222,-0.12679 -0.0059,-0.03824 -0.0068,-0.07136 0.0059,-0.109661 -0.03548,-0.01093 -0.06855,-0.03561 -0.087,-0.08191 -0.0067,-0.01721 0.004,-0.101647 -0.01699,-0.105667 -0.01206,-0.04885 -0.034,0.01462 -0.05657,0.007 -0.02482,-0.0063 -0.03288,-0.09107 -0.05382,-0.09107 0.06996,-0.381724 0.225303,-0.746278 0.4519242,-1.063281 0.110668,-0.155866 0.239786,-0.297196 0.382082,-0.425318 0.04604,-0.04235 0.102691,-0.09241 0.173939,-0.06741 0.01219,0.0042 0.04866,0.0021 0.06995,-0.01595 -0.004,0 -0.0059,0 -0.0059,0 -0.01207,0.0029 -0.04746,0.0074 -0.04215,0.0043 0.0068,-0.0043 0.01973,-0.0043 0.04215,-0.0043 0.0059,0 0.0061,0 0.0061,0 0,0 -0.004,0 -0.004,0 0.05542,0.0029 0.143555,0.01313 0.175212,0.006 0.0067,-0.0043 0.01206,-0.0066 0.01206,-0.0066 0,0.0043 -0.0067,0.0063 -0.01206,0.0066 -0.0067,0.0043 -0.0067,0.006 0.0067,0.0043 0.02218,-0.01721 0.05938,-0.01286 0.06853,-0.02628 -0.0068,0.0022 -0.0121,0.0029 -0.01977,0.0043 0.0068,-0.0043 0.0143,-0.0063 0.01977,-0.01094 0.0067,-0.0061 -0.03172,-0.0071 -0.02484,-0.01312 0.02484,-0.01856 0.113435,-0.02111 0.09223,-0.0061 -0.0084,0.0043 -0.01861,0.0062 -0.02775,0.0067 0.004,0.006 0.02107,0.0022 0.02918,0.0043 -0.02918,0.0069 0.0067,0.0022 -0.01428,0.01721 -0.0061,0 0.07259,-0.01855 0.05809,-0.0062 -0.01861,-0.0022 -0.02482,0.0062 -0.0222,0.01982 0.02107,0.02114 0.08451,-0.03694 0.101533,-0.04099 -0.004,0 -0.130499,-0.0028 -0.114687,-0.01463 0.01859,0.0066 0.03398,0.0062 0.04747,-0.0061 -0.0061,-0.0029 -0.04479,-0.0043 -0.04479,-0.0043 -0.0067,-0.01724 0.04866,-0.02503 0.05813,-0.02913 -0.01517,0.0061 -0.04346,0.0031 -0.05934,0.01095 0.0059,0 0.0067,0 0.0067,-0.0022 -0.01435,0.0066 -0.02767,0.01212 -0.04342,0.01094 0.04604,-0.03176 0.06995,-0.03176 0.133148,-0.03427 -0.01109,0.006 -0.01976,0.0066 -0.03172,0.01094 0.03049,-0.0061 0.05807,-0.0061 0.08697,-0.006 -0.01106,0.0031 -0.06191,0.01598 -0.04602,0.01598 -0.03405,0.01595 0.109263,-0.03296 0.117159,-0.0074 0.004,0.0022 -0.0067,0.01313 -0.0085,0.01313 0.06068,0 0.110649,0.0198 0.168656,0.02112 0,0.0022 -0.004,0.003 -0.004,0.0043 0.0067,-0.0022 0.01414,0 0.01858,0.0062 -0.0066,0.0022 -0.01428,0 -0.01699,0.0043 0.0068,-0.0022 0.01477,0 0.01978,0.0029 -0.0067,0.0028 -0.01206,0.0028 -0.01699,0.0062 0.0067,0.0029 0.07499,0.025 0.07377,0.02782 -0.0067,0.03176 -0.05657,0.0172 -0.08184,0.01463 -0.0059,0.0063 -0.0067,0.0022 -0.01109,0.0093 0.01428,-0.0022 0.01975,0.01722 0.03828,0.01463 -0.01432,0.04749 -0.01432,0.01982 -0.06707,0.03047 -0.004,-0.0029 0.06067,0.02778 0.02778,0.03559 -0.0412,0.0066 -0.08818,-0.02111 -0.113459,-0.03299 -0.0084,-0.0061 -0.117147,0.0066 -0.113429,0.0022 0.0237,-0.03176 0.08556,-0.02114 0.118691,-0.03694 -0.02641,-0.0074 0.06853,-0.025 0.03682,-0.04744 0,0.02112 -0.05126,0.0062 -0.05017,0.006 0.01427,-0.0066 0.02639,-0.01212 0.04217,-0.01094 -0.0067,-0.0043 -0.04482,-0.006 -0.04602,-0.006 0.0068,-0.0022 0.01206,-0.0029 0.01861,-0.006 -0.0061,-0.0043 -0.0084,-0.0074 -0.01431,-0.0074 -0.0067,0 -0.01699,0.0029 -0.02218,0.0074 0.0067,-0.0062 0.01531,-0.0074 0.02218,-0.0074 0,0 0.004,0 0.0059,0 -0.01533,-0.0066 -0.07503,0.0062 -0.0632,-0.0029 -0.0084,0 -0.02482,0 -0.04214,0.0021 0.01428,0.0022 0.02641,0.0074 0.03963,0.0074 -0.02483,0.02115 -0.0726,0.04358 -0.123808,0.05942 0.01107,-0.0029 0.0067,0.0029 0.0067,0.006 -0.0084,0 -0.01206,-0.0029 -0.0067,-0.006 -0.0067,0.0029 -0.017,0.006 -0.02641,0.0074 0,0.0029 0.004,0.0043 0,0.0062 0.0067,-0.0043 0.04343,0.0022 0.04748,0.01094 0,0.0029 -0.0061,0.006 -0.0059,0.0074 0.0068,0.0061 0.02367,0.0022 0.02481,0.0062 -0.03542,0.0093 -0.09619,0.01597 -0.133151,0.01855 -0.0084,0 -0.0059,-0.0042 0.006,-0.0073 -0.01109,-0.0022 -0.02642,0.0022 -0.03289,0.0022 0.01208,-0.0092 0.0447,-0.02779 0.06995,-0.03964 -0.02769,0.0042 -0.05385,0.0042 -0.07502,-0.003 -0.0059,0.01212 0.02483,0.0066 0.04601,0.01093 -0.03048,0.02501 -0.107958,0.03562 -0.154177,0.03046 0.006,0.0022 0.0067,0.0043 0.0122,0.0062 -0.0411,0.03703 -0.137046,0.06742 -0.187092,0.10039 0.03961,-0.0062 0.03543,0.0074 0.0084,0.03562 0.09371,-0.0043 0.0845,0.05147 0.159441,0.04883 0.02484,0.01724 -0.01207,0.04101 -0.01477,0.05416 0.0084,-0.0022 0.02639,-0.0022 0.0186,0.0073 -0.0067,0.0022 -0.01207,-0.0022 -0.0186,-0.0042 0.0059,0.006 0.01514,0.0066 0.04748,0.0066 0.0368,-0.04101 -0.0067,-0.05545 0.06559,-0.08457 0.08961,-0.03562 0.0237,-0.03562 0.0222,-0.08191 0.09618,-0.0211 0.05811,-0.106993 0.185765,-0.04493 0.03681,0.01721 0.147627,0.05014 0.175233,-0.0022 -0.01699,0.02913 -0.0068,0.03299 0.0085,0.03824 -0.0067,-0.0043 -0.01106,-0.0062 -0.01469,-0.01212 0.03294,-0.04492 0.104262,0.05015 0.04742,0.06999 0.0068,0.006 0.01516,0.01288 0.03832,0.01288 l -0.004,0.0022 c -0.01862,0.03176 0.07501,0.02239 0.06706,0.03176 -0.01429,0.01313 -0.07379,0.01861 -0.100031,0.02501 0.0059,0.01288 0.110713,-0.01464 0.119789,-0.01855 0.03297,0.11096 -0.297765,0.100431 -0.366283,0.155863 0.0068,0 0.175219,-0.03964 0.162114,-0.01442 -0.01206,0.01981 -0.04218,0.01442 -0.05932,0.02502 0.0084,0 0.01974,0.0029 0.02483,0.0029 -0.05936,0.07265 0.07382,0.06341 0.06706,0.07661 -0.02107,0.02372 -0.135798,0.04238 -0.160708,0.05549 z m -0.186478,-0.471236 c -0.01413,0.0062 -0.04215,0.01593 -0.05541,0.01721 0.0059,-0.0022 0.0061,-0.0043 0.0067,-0.006 0.01515,-0.0066 0.03171,-0.01595 0.04866,-0.01212 z m 0.375517,0.270764 c 0.02107,0.0043 -0.01861,0.01597 0,0 z m -0.0059,0.03299 c -0.01976,0.01598 -0.05016,-0.0061 -0.06554,-0.01858 0.03542,-0.0061 0.04866,0.0093 0.06554,0.01858 z m -0.05381,0.08193 c -0.01428,0.02648 -0.06205,-0.0022 -0.05812,-0.0074 0.004,-0.0043 0.0067,-0.0059 0.0067,-0.0066 0.01207,0.01723 0.02915,0.02236 0.05016,0.01597 z m 0.01973,0.01595 c 0.01207,-0.01212 0.02482,-0.02236 0.04109,-0.02912 0,0.0043 0.0066,0.0059 0.0061,0.0074 -0.0061,0.0066 -0.0237,0.01288 0.0059,0.01288 -0.0067,0.01856 -0.0528,0.01982 -0.04744,0.0066 z m 0.142451,-0.03556 c 0,0 -0.05382,0.02779 -0.0513,0.02235 0.0067,-0.0062 0.01107,-0.01095 0.0186,-0.01312 -0.01434,0 -0.134311,-0.0095 -0.133121,-0.0095 0.0067,-0.01285 0.02482,-0.0066 0.03051,-0.02113 -0.0061,0 -0.0068,-0.0022 -0.0068,-0.0043 0.04744,-0.01463 0.08452,-0.08584 0.135776,-0.08584 0.01512,0 -0.04602,0.05015 -0.04747,0.05415 0.01206,-0.0066 0.02371,-0.0066 0.03683,-0.0042 -0.0067,0.0029 -0.0085,0.0062 -0.01108,0.01172 0.0067,0 0.0143,0 0.01976,0 0,0.0022 -0.0059,0.0043 -0.0059,0.0043 0.0067,0 0.01106,-0.0029 0.01515,-0.0043 0.01208,0.0043 0.02639,0.0043 0.03406,0 -0.0059,0.0074 -0.0067,0.01462 -0.01208,0.02644 0.0059,-0.0022 0.0084,-0.0029 0.01474,-0.0029 -0.0084,0.01855 -0.0067,0.0074 -0.01474,0.02631 0.01208,0.0022 0.0084,-0.0029 0.01699,-0.006 -0.02217,0.06204 -0.01978,0.0278 -0.0434,0.0043 z m 0.672315,-0.549446 c -0.01108,0.03176 -0.05017,-0.01981 -0.05537,0 0.0084,0.0061 0.06319,0.01313 0.05657,0.03426 -0.0061,0.01463 -0.06854,-0.0093 -0.07759,-0.01211 -0.0061,0.0092 0.0068,0.0092 -0.01207,0.01211 -0.0059,0.0092 0.05658,0.0066 0.06995,0.01095 -0.05657,0.0198 -0.11868,0.02912 -0.177844,0.02912 -0.03829,0.01094 -0.06067,0.03682 -0.1053,0.03562 0.004,-0.0029 0.004,-0.0043 0.0059,-0.0062 -0.04107,0.0067 -0.08959,0.0911 -0.110655,0.08851 -0.01478,-0.0022 -0.113436,-0.04621 -0.07759,-0.06608 -0.0067,-0.0074 -0.03682,-0.01313 -0.01974,-0.03701 -0.0059,-0.0021 -0.0067,-0.0021 -0.0067,0 0.0067,-0.0211 0.04214,-0.02503 0.05545,-0.04234 -0.01429,-0.0029 -0.04341,-0.0043 -0.04213,-0.01211 0.01207,-0.0029 0.02925,0.01211 0.03681,0 -0.0061,0 -0.0329,-0.01723 -0.04348,-0.01596 0.01211,-0.0063 0.01432,-0.01094 0.004,-0.01313 0.01861,-0.04495 -0.07759,-0.04495 -0.10428,-0.0383 0.004,0 0.004,0.0022 0.0059,0.0022 -0.0067,0.0022 -0.017,0 -0.02481,-0.0043 0.006,-0.0022 0.0067,-0.0022 0.0067,-0.0043 -0.0067,-0.0042 -0.01515,-0.006 -0.02369,-0.0031 0.0084,-0.01442 0.04218,0 0.05385,-0.01288 -0.0066,0 -0.06319,0.006 -0.06067,-0.0043 0.01206,-0.02373 0.07261,-0.0022 0.08558,-0.02643 -0.0067,0.0022 -0.017,0 -0.02483,-0.0028 0.01428,-0.02777 0.14624,-0.03295 0.166003,-0.03427 0.0067,-0.0092 0.0198,-0.0073 0.03048,-0.0042 -0.004,-0.0022 -0.0059,-0.0043 -0.004,-0.0043 0.0067,-0.0092 0.05938,0 0.06995,0 -0.0068,0 -0.01516,-0.0022 -0.02217,-0.0066 0.0067,-0.0029 0.01422,-0.0043 0.01978,-0.0043 -0.0059,-0.0022 -0.0067,-0.0022 -0.0067,-0.0029 0.131713,-0.03046 0.278015,-0.02372 0.412406,-0.01981 -0.0084,0.0067 -0.02483,0.01312 -0.04342,0.01594 0.01429,-0.0022 0.02484,-0.0032 0.02484,0 -0.004,0.0022 -0.05385,0.01721 -0.05657,0.02111 0.01476,-0.0028 0.270104,-0.03301 0.267462,-0.02914 -0.0068,0.01313 -0.06198,0.01593 -0.08961,0.01721 -0.0067,0.01463 -0.110682,0.03687 -0.129071,0.04746 0.01515,-0.0043 0.03171,-0.0022 0.04747,0.0031 -0.0061,0.0022 -0.0084,0.0029 -0.01432,0.0029 0.0084,0.0022 0.01863,0.0043 0.02771,0.0074 -0.0068,0.01721 -0.06069,-0.0074 -0.06854,0.01095 -0.0059,0.0043 0.03171,0.0022 0.0264,0.01597 -0.0067,0.01442 -0.02218,0 -0.0264,0.01095 0.0067,0.0061 0.01699,0.0074 0.0264,0.0061 -0.0067,0.006 -0.02109,0.0067 -0.03547,0.0067 0,0.0029 0.0059,0.0043 0.0066,0.006 -0.01699,0.01982 -0.05018,0.0061 -0.07121,0.0061 0.01478,0.0063 0.02639,0.01211 0.03679,0.01854 z m 0.03293,0.05817 c 0.01108,0 0.03036,0 0.03963,-0.0022 0.004,0.0022 -0.03037,-0.01312 -0.02914,-0.01721 0.01107,-0.0022 0.02641,-0.0063 0.0368,-0.0061 -0.01109,0.02371 0.01427,0.01441 0.02107,0.0093 0.0067,0.01094 0.02109,0.0022 0.03172,0.0066 0.004,-0.0066 0.08185,-0.0022 0.09094,0 -0.02107,0.0062 0.01108,0.02111 0.006,0.03046 -0.07633,0.03299 -0.117148,0.0031 -0.188402,-0.0043 0.0059,-0.0029 0.0067,-0.0043 0.0067,-0.0043 0.0061,-0.0062 0.0068,-0.0066 0.0143,-0.01288 -0.0084,-0.0022 -0.02368,0.0029 -0.02768,-0.0029 z m 2.126514,2.863606 c -0.0044,0.04749 0.06199,0.09513 0.04343,0.138687 -0.05386,0.114919 0.04862,0.231147 -0.08451,0.315683 -0.04605,0.0291 -0.10666,0.05545 -0.117183,0.116252 -0.08555,0.01726 -0.0067,0.118861 -0.0067,0.161138 -0.0061,0.09773 -0.02217,0.07658 -0.083,0.128131 -0.06319,0.05414 -0.0059,0.100352 -0.05656,0.165104 -0.05016,0.05941 -0.07626,0.130765 -0.122593,0.194171 -0.01975,0.02636 -0.114662,0.06068 -0.11869,0.08189 -0.05131,0.0062 -0.09471,-0.0062 -0.144982,0.01984 -0.04746,0.02502 -0.102682,-0.0066 -0.119758,0.0021 0.004,-0.169079 -0.133164,-0.297202 -0.152821,-0.47419 -0.0067,-0.08192 -0.01104,-0.113555 -0.04863,-0.187552 -0.03961,-0.07794 -0.07264,-0.165097 -0.05657,-0.253598 0.01206,-0.06462 0.06319,-0.108336 0.0776,-0.16908 0.01434,-0.06064 -0.01474,-0.155799 -0.03045,-0.215231 -0.01699,-0.06339 -0.02109,-0.142653 -0.06319,-0.195485 -0.04217,-0.05289 -0.114612,-0.12283 -0.08701,-0.198127 0.04217,-0.114909 0.06197,-0.233786 -0.104302,-0.231146 -0.05125,0.0022 -0.04603,-0.100385 -0.106674,-0.09908 -0.08187,0.0029 -0.14763,0.09641 -0.216072,0.09773 -0.02776,0.0022 -0.0513,-0.02505 -0.08031,-0.02374 -0.03547,0 -0.06066,0.01983 -0.09222,0.03177 -0.06996,0.02374 -0.121137,-0.04494 -0.164709,-0.08849 -0.05811,-0.05941 -0.06853,-0.138685 -0.122595,-0.19944 -0.03036,-0.03299 -0.06068,-0.06739 -0.08454,-0.106987 0.004,0 0.0059,0 0.006,0 0,-0.04621 -0.02914,-0.09241 -0.0067,-0.128128 0.02371,-0.03694 0.03961,-0.08851 0.04217,-0.13343 0.0059,-0.06339 -0.04217,-0.154546 -0.0084,-0.212659 0.02483,-0.04357 0.04213,-0.08851 0.06194,-0.134725 0.02643,-0.05685 0.05127,-0.128128 0.113421,-0.150572 0.03405,-0.01313 0.07632,-0.04882 0.08697,-0.08461 0.01208,-0.03831 0.0061,-0.08327 0.02915,-0.117548 0.03541,-0.05015 0.0776,-0.09379 0.116117,-0.14265 -0.004,0 -0.004,0 -0.0059,0 0.04215,-0.05685 0.106656,0.0063 0.180513,-0.03699 0.05929,-0.03299 0.13315,-0.07131 0.202897,-0.07392 0.04603,-0.0022 0.0882,0 0.135751,-0.0022 0.02219,0 0.05126,-0.04236 0.07116,-0.01094 0.01207,0.01592 0.02372,0.01592 0.03674,0.0043 -0.0059,0.041 -0.01974,0.0752 -0.01974,0.120157 0,0.08057 0.07629,0.05416 0.123821,0.07006 0.04342,0.01443 0.210809,0.196803 0.208156,0.05685 -0.0059,-0.12151 0.175232,-0.01722 0.220036,-0.0022 0.0632,0.02236 0.112008,0.03048 0.173931,0.0066 0.04741,-0.01722 0.08958,0.01289 0.138329,0 0.02924,0.07261 0.02482,0.08978 0.0067,0.163782 -0.0264,-0.0042 -0.05385,-0.07261 -0.0763,-0.09908 0.006,0.07657 0.0763,0.167756 0.111984,0.235112 0.02369,0.04494 0.02916,0.0924 0.05383,0.136037 0.03052,0.05148 0.01699,0.122844 0.05383,0.163785 0.03963,0.04357 0.05384,0.06605 0.06707,0.126787 0.01701,0.0793 0.144956,0.130763 0.162124,0.206051 0.02482,0.108315 0.05929,0.08191 0.147631,0.06603 0.05017,-0.01095 0.09728,-0.03695 0.144938,-0.05289 0.05129,0.125473 -0.08448,0.365875 -0.154197,0.468908 -0.0803,0.117546 -0.21081,0.161142 -0.245059,0.313034 -0.0067,0.04101 -0.04475,0.06205 -0.04475,0.106999 -0.0044,0.03964 0.0067,0.08189 0.0067,0.125472 z"
       id="path1025-6-3-6-6-6-3-5" />
  </g>
  <g
     id="plasma-browser-integration">
    <rect
       style="fill:none;fill-rule:evenodd;stroke:none;stroke-width:1px;stroke-linecap:butt;stroke-linejoin:miter;stroke-opacity:1"
       id="rect3343"
       width="32"
       height="32"
       x="-1.8530274e-07"
       y="0" />
    <path
       inkscape:connector-curvature="0"
       id="path9068-9-37-8-0-1"
       d="m 26.200008,5.9999535 -20.4,5e-6 V 23.099953 h 20.4 z"
       style="display:inline;overflow:visible;visibility:visible;opacity:0.6;fill:url(#linearGradient5058);fill-opacity:1;fill-rule:nonzero;stroke:none;stroke-width:0.653705;marker:none"
       sodipodi:nodetypes="ccccc" />
    <path
       d="M 22.963632,3.9999535 H 9.036079 C 7.700898,4.0014535 6.420755,4.5325265 5.47676,5.4767275 4.532575,6.4207395 4.001533,7.7008285 4.000008,9.036022 v 13.928049 -1.89e-4 c 0.0015,1.335155 0.05581,2.292106 1,3.236118 0.943995,0.944202 1.999992,1.8 4,1.800046 h 3 l 4,-9.3e-5 4,9.3e-5 h 3 v 0 C 25,28 26.056002,27.1442 26.999996,26.2 27.944183,25.255988 27.99847,24.299037 27.999992,22.963882 V 9.036287 C 27.998192,7.7011305 27.467424,6.4210045 26.523237,5.4769915 25.579243,4.5327895 24.299102,4.0017675 22.963919,4.0002175 Z M 9.200009,5.9999655 h 13.599997 c 0.887095,0.0011 1.603761,0.04384 2.231,0.671244 0.627232,0.627212 0.967901,1.4416635 0.969001,2.3287565 V 22.999977 H 6.000008 V 8.999966 C 6.001108,8.112873 6.341782,7.2984595 6.969007,6.6712095 7.596209,6.0439965 8.312924,6.0010615 9.200009,5.9999655 Z"
       id="path1193-7"
       style="fill:#d3dae3;fill-opacity:1;stroke-width:0.047619"
       sodipodi:nodetypes="cccccccccccccccccccccccccccc" />
    <path
       id="path20-3"
       style="color:#31363b;fill:#d3dae3;fill-opacity:1;stroke-width:0.609331"
       d="m 11.655974,6.7587764 c -0.50478,0 -0.913991,0.4092062 -0.913991,0.9139946 0,0.5047806 0.409211,0.9139963 0.913991,0.9139963 0.504788,0 0.914,-0.4092157 0.914,-0.9139963 0,-0.5047884 -0.409212,-0.9139946 -0.914,-0.9139946 z m 6.397962,0 C 16.939992,6.1404858 15.619064,7.4499576 16.225949,8.5867673 l 2.741981,2.7419817 -2.741981,2.74198 c -0.75299,1.257625 0.736862,2.463574 1.827987,1.827988 l 4.569971,-4.569968 z M 9.5233241,12.242743 C 8.6820173,12.242743 8,12.924755 8,13.766066 c 0,0.841306 0.6820173,1.523324 1.5233241,1.523324 0.8413069,0 1.5233239,-0.682018 1.5233239,-1.523324 0,-0.841311 -0.682017,-1.523323 -1.5233239,-1.523323 z m 3.9606389,5.483966 c -1.009569,0 -1.827989,0.818419 -1.827989,1.82799 0,1.009567 0.81842,1.827988 1.827989,1.827988 1.009574,0 1.827995,-0.818421 1.827995,-1.827988 0,-1.009571 -0.818421,-1.82799 -1.827995,-1.82799 z"
       class="ColorScheme-Text "
       sodipodi:nodetypes="ssssscccccccssssssssss" />
    <path
       style="fill:#d3dae3;fill-opacity:1;stroke-width:0.0167346"
       inkscape:connector-curvature="0"
       d="m 23.468146,20.791484 c 0.239004,-0.4608 0.374399,-0.983625 0.374399,-1.539933 0,-1.050643 -0.483059,-1.987346 -1.238553,-2.602309 0.05838,0.05364 0.11367,0.107276 0.158957,0.147457 0.232335,0.214487 0.43627,0.464156 0.598425,0.73561 -0.0077,0 -0.0093,0.0026 -0.0093,0.0032 0.111843,0.16258 0.198936,0.343515 0.269082,0.531193 -0.04023,-0.05522 -0.17548,-0.140758 -0.110321,-0.01012 0.03151,0.06535 0.110321,0.09889 0.133597,0.162551 0.0182,-0.0024 0.0093,-0.02516 0.01951,-0.02516 0.0182,0.03175 -0.0077,0.07031 0.0315,0.09385 0.04689,0.15422 0.08184,0.313444 0.107181,0.475989 -0.14035,0.03862 -0.254061,0.180972 -0.342636,0.0085 -0.04678,-0.09211 -0.07026,-0.155814 -0.133596,-0.239593 -0.04692,-0.06361 -0.113863,-0.11233 -0.132453,-0.19436 -0.03157,-0.13405 -0.250719,-0.214492 -0.257393,-0.361943 -0.0046,-0.02176 -0.05511,-0.127377 -0.05204,-0.130682 0.01399,-0.01212 0.0093,-0.06703 0.0093,-0.08204 0.0067,-0.05524 0.01525,-0.09889 0.0047,-0.15414 -0.118878,0.03178 -0.218953,-0.01672 -0.340974,-0.02839 0.0077,-0.0026 0.0093,-0.0049 0.0093,-0.01012 -0.03506,-0.03178 -0.06011,-0.05366 -0.101928,-0.0771 0.0468,-0.04692 -0.0047,-0.0268 -0.0093,-0.0569 -0.0093,-0.04185 0.101871,-0.02343 0.120134,-0.03176 -0.0046,-0.005 -0.01526,-0.01211 -0.01526,-0.01848 -0.04309,-0.0086 -0.03705,0.03862 -0.08517,0.0049 -0.03697,-0.02684 -0.04159,-0.0091 -0.07705,-0.0049 0.0077,0.0091 0.0093,0.01848 0.0093,0.02839 0,0 -0.06015,-0.04357 -0.05343,-0.0091 0.03511,0.03352 0.05509,0.06865 0.09688,0.102185 -0.02497,0.01381 -0.04673,-0.0023 -0.06837,-0.01847 0.0047,0.01012 0.01399,0.06196 0.02153,0.06703 -0.0486,-0.0049 -0.07705,-0.02839 -0.0568,-0.07037 -0.03701,-0.005 -0.117042,-0.08383 -0.125336,-0.122319 -0.01122,-0.07031 -0.107184,-0.07878 -0.113696,-0.122298 -0.01821,-0.0023 -0.210624,-0.135734 -0.205663,-0.0972 0.0093,0.06198 0.110362,0.147451 0.173844,0.154147 0.0092,0.05198 0.107174,0.03861 0.108505,0.09552 -0.09211,-0.02513 -0.05665,-0.03177 -0.04676,0.03355 -0.0047,-0.0085 -0.05348,0.07206 -0.06011,0.03175 0.09672,0.0091 -0.210595,-0.23292 -0.198964,-0.206103 -0.06836,-0.07038 -0.08025,-0.09721 -0.170413,-0.05032 -0.04306,0.02176 -0.190594,-0.05519 -0.151966,0.04186 -0.0047,0.0075 -0.203892,0.09386 -0.117032,0.132364 -0.02679,0.0369 -0.06836,0.06861 -0.105275,0.08381 -0.04503,-0.0164 -0.126954,0.04525 -0.153723,0.005 -0.03151,-0.05197 -0.05346,-0.03178 -0.107174,-0.03517 -0.05504,-0.005 -0.0093,-0.187677 -0.0093,-0.211125 0,-0.03348 -0.02813,-0.08051 0.0418,-0.07541 0.06029,0.005 0.118739,0.01832 0.180515,0.02515 0.06837,-0.0091 0.09514,0.01533 0.09034,-0.07877 -0.0047,0 -0.0047,0.0023 -0.0067,0.0023 0.0418,-0.0686 -0.145427,-0.08709 -0.145427,-0.123981 0,-0.02518 0.108504,-0.0023 0.120113,-0.0049 0,-0.01203 -0.0093,-0.0218 -0.0093,-0.03517 0.08686,0.0085 0.09847,-0.02512 0.172237,-0.04026 0.06178,-0.01378 0.05347,-0.07877 0.126924,-0.07376 0.02152,0.0023 0.100311,0.0071 0.08185,-0.02681 -0.04306,-0.07541 -0.04306,-0.07541 0.03696,-0.107289 0.0067,0.02345 0.01538,0.03176 0.01928,0.04025 -0.0067,0 -0.0092,0.01379 -0.0092,0.03015 0.01525,0.0023 0.02494,0.0083 0.0215,0.02681 -0.0067,-0.01213 -0.0182,-0.0071 -0.02679,-0.01213 -0.0067,0.01831 -0.0093,0.03178 -0.0067,0.02345 0.04023,0.005 0.08869,0.0023 0.128765,0.0071 -0.0093,0.04863 0.14729,-0.0071 0.183948,0.0083 -0.0047,0.0031 -0.0067,0.0071 -0.0067,0.0091 0.01525,0.0023 0.03151,0.0023 0.04509,0.0023 -0.01103,-0.08379 0.138609,-0.115616 0.138609,-0.09386 0,-0.02019 -0.06695,-0.04526 -0.04674,-0.05365 0.05677,-0.03015 0.123415,0.01533 0.185528,-0.0083 -0.0236,-0.02512 -0.31424,-0.01674 -0.270787,-0.07206 -0.02497,-0.0071 -0.02152,-0.02342 -0.03344,-0.04025 0.0093,0.0023 0.130269,-0.04184 0.128788,-0.04692 -0.0236,-0.05698 -0.118878,-0.0083 -0.128788,0.0084 0.0093,0.02682 -0.123424,0.01534 -0.118938,0.05518 0.0093,0.04358 0.06027,0.03176 0.0702,0.07034 0.0047,0.0071 -0.128763,0.06021 -0.04678,0.07541 0.0047,0.03177 -0.09847,0.05693 -0.120098,0.0552 -0.01865,-0.0031 -0.05836,-0.07879 -0.06836,-0.09545 -0.02495,-0.0369 -0.03702,-0.06535 -0.07871,-0.03862 -0.01537,0.0083 -0.138614,0.04023 -0.143849,-0.005 -0.0047,-0.01195 0.02155,0.0023 0.0182,-0.01828 -0.0182,-0.0023 -0.0182,-0.0023 -0.03153,0 0.0076,-0.0071 0.0092,-0.01202 0.01856,-0.01534 -0.08691,-0.06035 0.07881,-0.09387 0.118875,-0.08874 -0.014,-0.003 -0.01843,-0.0049 -0.02812,-0.0071 0.025,-0.0023 0.21894,-0.08049 0.225621,-0.100602 -0.02679,0.0023 -0.03705,0.005 -0.06169,0.005 0.0077,-0.0023 0.0182,-0.005 0.01952,-0.005 -0.0076,0 -0.01813,-0.003 -0.01813,-0.003 0.0067,-0.01012 0.09029,-0.003 0.09223,-0.003 -0.0093,-0.0023 -0.0093,-0.0023 -0.0182,-0.0023 0.014,-0.005 0.02809,-0.0084 0.04301,-0.005 -0.0093,-0.0032 -0.0076,-0.0032 -0.0093,-0.005 0.04024,-0.01199 0.09026,0 0.132274,-0.0071 -0.03152,-0.005 0.0753,-0.02515 0.06504,0.0071 0.04313,0.005 0.08871,0.01849 0.133549,0.04186 -0.516952,-0.33022 -1.130377,-0.522923 -1.788935,-0.522923 -1.845302,0 -3.34127,1.501397 -3.34127,3.349655 0,1.221565 0.650203,2.287281 1.622996,2.872089 -0.01934,-0.02841 -0.0076,-0.06031 -0.01934,-0.0939 -0.02151,-0.04523 -0.05671,-0.05195 -0.05671,-0.113968 0,-0.123995 -0.0093,-0.201086 -0.05836,-0.325078 -0.05302,-0.07033 -0.0445,-0.226226 -0.05983,-0.313366 -0.02983,-0.08373 -0.04138,-0.169221 -0.07679,-0.251324 -0.03858,-0.08874 -0.147164,-0.150811 -0.242267,-0.16255 -0.123428,-0.0218 -0.142048,-0.127344 -0.217319,-0.209448 -0.06368,-0.06704 -0.126909,-0.144077 -0.177215,-0.219515 -0.02493,-0.03357 -0.07524,-0.03689 -0.09036,-0.09547 -0.01398,-0.05365 0.03864,-0.07543 0.03864,-0.12401 -0.07371,-0.04025 -0.0521,-0.05026 -0.05029,-0.130656 0.0047,-0.06863 0.09516,-0.142438 0.09357,-0.212801 -0.0182,-0.0069 -0.02495,-0.01637 -0.0182,-0.03179 -0.01534,-0.06705 -0.100401,-0.177632 -0.01534,-0.212822 -0.01824,-0.09215 0.09516,-0.154148 0.163674,-0.184323 0.01534,-0.0069 0.03152,-0.05366 0.05206,-0.02685 0.0095,0.0091 0.0095,0.02182 -0.0077,0.03181 0,0.02178 -0.01399,0.128993 0.03511,0.127342 0.02149,-0.0031 -0.06024,-0.115628 0.05206,-0.122299 -0.0093,-0.02019 -0.03152,-0.0091 -0.03698,-0.03179 0.04023,-0.0024 0.08872,0.03343 0.111851,0.06024 0.01861,0.02019 0.09032,0.01012 0.113726,0.01852 0.03342,0.01397 0.100287,-0.03175 0.14549,-0.03175 -0.0077,0.0045 -0.01823,0.0068 -0.02356,0.0045 0.01525,0.07541 0.182175,0.09387 0.228992,0.162549 0.03702,0.05365 0.193901,0.06862 0.252404,0.06705 0.06835,-0.0045 0.185507,0.162544 0.153693,0.206103 -0.04864,0.06534 0.02152,0.145791 0.08322,0.139138 0.06173,-0.0071 0.0077,-0.117244 0.125332,-0.06862 0.04501,0.02019 0.06173,0.0164 0.07509,0.07036 0.05507,-0.0068 0.128809,-0.02683 0.193882,-0.01012 0.06503,0.01853 0.105287,0.06026 0.173925,0.07543 0.14863,0.03179 0.0093,0.304974 -0.0281,0.371997 -0.02498,0.05027 0.05031,0.219519 0.04024,0.293244 -0.03154,0.128969 -0.05208,0.174263 -0.162152,0.246323 -0.03009,0.01851 -0.08688,0.07877 -0.08024,0.120651 0.0093,0.03516 0.02155,0.07207 0.03344,0.107283 -0.01931,0.02517 -0.03008,0.05365 -0.03008,0.08378 v 0 c -0.0092,0.08047 -0.04183,0.152448 -0.05674,0.236267 -0.0093,0.0552 -0.180519,0.08046 -0.187293,0.06364 0.03153,0.08544 0.153688,0.04864 0.09687,0.177633 -0.0195,0.04521 -0.09023,0.05524 -0.130244,0.06535 -0.0503,0.01214 0.0047,0.06867 0,0.09547 0.02353,0.05363 -0.05681,0.02681 -0.0887,0.03526 -0.06024,0.01672 0.09024,0.08548 0.08023,0.06536 0.01525,0.03178 -0.03522,0.0149 -0.04689,0.01854 0.014,0.0318 0.06181,0.108872 0.0047,0.135739 -0.09025,0.05522 0.06835,0.08705 0.08339,0.130638 0.386136,0.155842 0.80733,0.242986 1.248611,0.242986 1.263625,0 2.363472,-0.703781 2.930098,-1.741018 0.0182,-0.03342 0.0301,-0.05199 0.0469,-0.06704 z m -1.263661,-4.113763 c 0,0.0096 -0.0093,0.02514 -0.02364,0.02345 -0.0093,0 -0.01524,-0.0084 -0.01524,-0.01194 0.0093,0 0.01823,-0.0031 0.02496,-0.0031 -0.02812,-0.02177 0.0076,-0.01381 0.01399,-0.0086 z m -0.135318,0.01828 c -0.009,0.0083 -0.01531,0.01639 -0.02152,0.02681 -0.0182,-0.01531 0.01525,-0.0284 0.02152,-0.02681 z m -0.207279,0.06029 c -0.02495,0.0023 -0.01528,0.05031 -0.05347,0.02342 0.0077,-0.005 0.0093,-0.005 0.0093,0 0.0094,0 0.0182,-0.005 0.0182,-0.0091 -0.05834,-0.01213 -0.0067,-0.06365 0.02679,-0.01379 z M 21.58943,16.339076 c -0.0076,0.0023 -0.0093,0.0023 -0.0093,0.0023 0.0093,0.003 0.01525,0.003 0.01951,0.005 -0.01535,-0.003 0.03344,0.003 0.04022,0.005 -0.03151,-0.0284 0.03343,-0.01012 0.03509,-0.01012 0,0.0032 -0.0047,0.0032 -0.0047,0.0071 0.01529,-0.003 0.03502,0 0.05505,0.0035 -0.0067,-0.0023 -0.0093,-0.0035 -0.0093,-0.0074 0.01122,0.0023 0.02497,0 0.03695,0 -0.0067,0 -0.03864,-0.0023 -0.04023,-0.0023 -0.0092,0 -0.03702,0.0023 -0.04178,-0.0085 0.0093,0 0.0182,0 0.02679,0.0023 v -0.0023 c 0.0077,0 0.0093,0 0.01398,0 -0.0047,-0.0023 -0.0067,-0.0023 -0.0076,-0.0032 0.05504,0 0.142093,-0.0096 0.193874,0.0138 -0.01823,0.0029 -0.10527,0.01674 -0.153668,0.0091 0.0093,0.003 0.01534,0.005 0.0215,0.0084 -0.0067,0.0023 -0.0077,0 -0.0093,0 0.02499,0.003 0.05836,0.0085 0.08515,0.02013 -0.02495,0.0023 -0.03343,0.0084 -0.05673,0.01012 -0.0067,-0.0023 -0.0067,-0.005 0,-0.0071 -0.0093,0 -0.0301,-0.0023 -0.04023,-0.003 0,-0.005 0.0093,-0.003 0.01122,-0.0083 -0.0093,0 -0.01122,-0.005 -0.0182,-0.0091 -0.03697,0.0091 -0.143896,0.04867 -0.147261,0.0083 0.01823,0 0.03343,0.0023 0.05208,0.0023 -0.0093,-0.0032 -0.06174,0 -0.06174,-0.01012 0,0 0.03153,-0.0049 0.04862,-0.0071 -0.02152,0 -0.06011,0.005 -0.07028,-0.003 0.0047,-0.0023 0.0067,-0.0023 0.0076,-0.0023 -0.01103,-0.0023 -0.02156,-0.005 -0.0187,-0.0085 -0.0093,-0.0023 -0.01534,-0.0049 -0.02346,-0.0072 0.01934,-0.0023 0.0385,-0.0035 0.05837,0.0023 z m -0.05506,0.01012 v 0 c 0,0.0023 0,0.0023 0,0 0,0.0023 0,0 0,0 z m -0.0047,0 c 0.0093,0.003 0.0182,0.005 0.02154,0.01206 -0.01122,0 -0.0301,-0.0084 -0.02154,-0.01206 z m 1.353839,1.312091 c 0.0047,0.02018 -0.06697,0.06028 -0.07526,0.0185 0.0186,-0.0075 0.05208,-0.01674 0.07526,-0.0185 z m -0.334218,-0.01199 c -0.02359,0.0099 -0.0737,-0.0073 -0.09356,-0.0185 0.03152,-0.0023 0.06835,0.0086 0.09356,0.0185 z m -0.477614,-0.180564 c -0.0067,0.01212 -0.0077,0.06038 -0.0077,0.06038 -0.01934,-0.0023 -0.107186,-0.05029 -0.108494,-0.06703 0.01822,-0.005 0.09515,0.0023 0.11369,0.0075 z m -0.2655,-0.231056 c 0,0.0072 0.0067,0.01215 0.0094,0.01215 -0.0066,0.01493 -0.0076,0.04353 -0.0094,0.05028 -0.01525,-0.0049 -0.0215,-0.04024 -0.03153,-0.05198 0.0092,0 0.02151,-0.0032 0.03153,-0.01012 z m -0.01525,0.113996 c -0.0047,-0.01006 -0.01521,-0.0185 -0.01819,-0.03013 0.110349,-0.01642 0.03152,0.147462 0.01819,0.03013 z m -0.217314,0.0085 c 0.0047,0.01493 -0.03153,-0.0075 -0.03153,-0.0085 0.0182,-0.01379 0.02679,-0.01006 0.03153,0.0085 z M 21.280656,16.62297 c -0.0094,0.0071 -0.01934,0.01203 -0.03151,0.01642 0.01399,0.02513 0.03868,0.0318 0.07882,0.01006 0.0076,0.02178 -0.04024,0.04024 -0.04312,0.05197 0.05206,0.0138 0.128779,0.06538 0.132318,0.118983 0.0093,-0.0023 0.0093,-0.0049 0.01529,-0.0049 0.03011,-0.01379 0.03011,0.01834 -0.0047,0.05522 0.0093,0.0023 0.01842,0.0033 0.02809,0.0071 0,0.0096 -0.228992,0.03012 -0.254068,0.02841 0.01524,-0.02682 0.09027,-0.03861 0.09027,-0.05367 -0.0093,0.0091 -0.08185,-0.005 -0.08185,-0.01012 0,-0.01668 0.02678,-0.02177 0.02678,-0.05363 0.0215,0.0023 0.05835,0.0023 0.05835,-0.02516 -0.01935,0 -0.03702,-0.0031 -0.02151,-0.02342 -0.0093,-0.0023 -0.06368,0.005 -0.06169,-0.0084 0,-0.03014 0.03502,-0.01532 -0.0093,-0.0369 -0.0093,0.005 -0.0067,0.0082 0,0.0091 -0.0076,0 -0.0093,0 -0.0093,0 0,-0.03176 -0.0077,-0.02512 -0.0077,-0.04862 -0.0182,-0.0031 -0.02812,-0.0084 -0.02812,-0.01534 0.0067,0 0.03507,0.01 0.03507,0.005 -0.02498,-0.0085 0.08692,-0.06703 0.08323,-0.02344 z m -0.05835,0.140751 c 0,-0.005 0.0047,-0.0084 0.0093,-0.01 0.0047,0 0.0076,0.0023 0.0093,0.0023 0,0.0023 -0.0047,0.005 -0.0047,0.0096 -0.0067,-0.0023 -0.0093,-0.0023 -0.01525,-0.0023 z m -0.04679,-0.145795 c 0,0.0091 -0.0093,0.01672 -0.02498,0.01534 -0.0268,0 0.02157,-0.01534 0.02498,-0.01534 z m -0.13693,0.137382 c 0.0047,-0.01534 0.04313,-0.0097 0.05343,-0.01534 -0.02498,-0.02685 0.04168,-0.02685 0.05345,-0.02346 0.07709,0.005 0.01934,0.04023 0.01934,0.04864 -0.0047,0.06196 -0.04308,0.08205 -0.111888,0.07706 -0.07169,-0.0049 0.0067,-0.05029 0.0092,-0.0686 -0.0092,-0.0071 -0.01401,-0.01379 -0.02346,-0.0183 z m -1.865455,-0.335262 c 0.01399,0 0.02813,0 0.04022,0 -0.0093,0 -0.01819,0 -0.02498,-0.005 0.0093,-0.005 0.02154,-0.0035 0.03342,-0.0035 -0.0047,-0.0023 -0.0076,-0.0023 -0.0076,-0.003 0.01537,-0.003 0.03153,-0.003 0.04679,-0.005 -0.0093,-0.0023 -0.01938,-0.0023 -0.01399,-0.005 0.02678,0 0.08183,0.02342 0.09848,0.012 l -0.0046,-0.0023 c 0.01934,-0.0023 0.01799,0.0023 0.0067,0.01012 0.02679,-0.01534 0.03342,0.01831 0.07706,-0.01204 0.0067,-0.0023 -0.0193,-0.0091 -0.02811,-0.0091 0.01932,0 0.02498,-0.0023 0.01401,-0.005 -0.02155,0 -0.03856,-0.0035 -0.0418,-0.0084 0.0093,-0.0023 0.0182,-0.0035 0.02496,-0.005 -0.0092,0.0023 -0.02361,0.0023 -0.03506,0.0023 0.01823,-0.0071 0.03701,-0.0071 0.05834,-0.0083 -0.01934,-0.003 -0.04024,0.0071 -0.06024,0.0031 0.01104,-0.0023 0.01819,-0.0031 0.02813,-0.005 -0.01856,0.003 -0.03512,0.003 -0.05348,0.003 0.0968,-0.03525 0.371058,-0.06021 0.468009,-0.02515 -0.05031,0.01379 0.08185,-0.0074 0.07707,0.005 -0.0076,0.0099 -0.08337,0.0099 -0.09032,0.0099 0.0067,0.0023 0.0268,-0.0023 0.04021,-0.0023 -0.07019,0.02012 -0.14546,0.01833 -0.215606,0.03525 0.0093,0 0.01122,0 0.01869,0 -0.0076,0.0049 -0.0094,0.0049 -0.02498,0.0049 0.0093,0.0023 0.014,0.0023 0.014,0.0074 -0.03152,0.0071 -0.04866,0.01379 -0.08185,0.01674 -0.0093,0.01533 -0.03512,0.0085 -0.04866,0.02016 0.0093,-0.0023 0.03151,-0.003 0.02813,0 -0.05343,0.05195 -0.177216,0.0071 -0.255733,0.01378 0.01536,-0.005 0.03152,-0.0085 0.04872,-0.0085 -0.04308,-0.02014 0.05506,-0.0084 0.06835,-0.0091 -0.02151,-0.01637 -0.05834,-0.01379 -0.08022,-0.0083 0,0.0023 0.0067,0.0029 0.0047,0.0049 -0.0182,0 -0.07708,-0.0049 -0.09358,0.0023 0.0067,0 0.0093,0 0.0093,0 -0.0067,0 -0.0093,0.0023 -0.01401,0.0023 0.0047,0 0.0067,-0.0023 0.0067,-0.0023 -0.0076,0 -0.0094,-0.0023 -0.01399,-0.0071 0.02358,-0.005 0.04684,-0.0071 0.0703,-0.0071 -0.0093,-0.0023 -0.045,-0.003 -0.06697,-0.003 0.0047,0 0.0076,0 0.0093,-0.0023 -0.02678,0.0084 -0.04176,0.0084 -0.03008,0 z m 0.290823,0.110571 c -0.01931,0.0094 -0.06511,0.0083 -0.08686,0.0094 -0.0047,0 -0.03344,-0.0071 -0.025,-0.01379 0.025,-0.02014 0.08514,-0.0031 0.111862,0.003 z m -0.372769,-0.10552 c 0.0093,0 0.02152,0 0.0268,-0.0023 -0.0067,0.0023 -0.0093,0.005 -0.0093,0.0071 0.01398,0 -0.02811,0.0023 -0.0182,-0.005 z m 0.03852,0.03177 c 0.0093,-0.0023 0.0093,0 0,0 v 0 c -0.01847,0 -0.08329,0.005 -0.04299,-0.0023 -0.01952,-0.01672 0.06368,-0.02178 0.04299,0.0023 z m 0.03008,0.003 c -0.0093,0.005 -0.01533,0.0071 -0.02359,0.0071 -0.0077,0 -0.04509,-0.0023 -0.04509,-0.0023 0.02355,-0.005 0.04673,-0.005 0.06837,-0.005 z m 0.04022,0.02515 c -0.0093,0.0023 -0.02156,0.0023 -0.03152,0.0023 -0.0093,0.0085 0.01934,0.003 0.02679,0.0071 -0.01869,0.005 0.230671,-0.01671 0.234022,-0.0023 -0.0077,0 -0.0093,0.0023 -0.01533,0.005 0.0076,0 0.0093,0 0.0093,0 -0.06163,0.03862 -0.17872,-0.01847 -0.234007,0.01201 -0.0153,0 -0.117047,0 -0.0618,-0.0094 -0.0077,-0.01674 -0.01399,-0.02014 -0.03008,-0.0091 -0.01398,0 -0.02679,-0.003 -0.04024,-0.0084 0.0093,-0.0084 0.138599,-0.0084 0.142093,0.005 z m -0.12011,0.01675 c 0.02493,0.01195 -0.0703,0.0091 -0.0703,0.0091 0.0076,-0.003 0.01822,-0.005 0.0187,-0.005 0.0182,-0.0091 0.03347,-0.01203 0.05205,-0.005 z m -0.150577,-0.05195 c 0.0067,0 0.0093,-0.0023 0.0093,-0.003 -0.0093,0 -0.01122,-0.0023 -0.0093,-0.003 0.0215,-0.003 0.09024,-0.01012 0.107169,0.0071 -0.0067,0 -0.0093,0.0023 -0.0093,0.003 0.0093,0.0071 -0.0182,0.0099 -0.0468,0.0099 -0.0094,0.0023 -0.01525,0.0023 -0.02495,0.003 0.0076,0 0.01103,-0.0023 0.01869,-0.003 -0.02348,0 -0.04865,-0.003 -0.05342,-0.0083 0.01122,0.0023 0.02499,-0.0023 0.03502,-0.0084 -0.01934,0.0029 -0.02679,0.0049 -0.0281,0.0029 z m -0.05212,0.0185 c 0.01934,-0.0023 0.0093,0.0071 0.02358,0.0071 -0.0077,0.0023 -0.01122,0.005 -0.01813,0.005 -0.0093,0.0023 -0.01399,-0.0071 -0.0093,-0.01202 z m -0.0067,0.02344 v 0 c 0,-0.0091 0.03697,0.0049 0.04689,0.0071 h 0.0046 c -0.0067,-0.0023 -0.0076,-0.0023 -0.0076,-0.0031 0.0182,-0.01012 0.03153,0.0049 0.05032,-0.0071 -0.01399,0.0023 -0.02497,0.0023 -0.01934,-0.003 0.0093,-0.0023 0.07523,0 0.07523,0 0,0.04352 -0.08516,0.01674 -0.103861,0.0284 0.0093,-0.0084 0.03345,-0.0091 0.04312,-0.01197 -0.0092,-0.005 -0.02498,-0.0035 -0.04023,-0.0035 0,0.0025 0,0.0025 0,0.0025 0,0 0,0 -0.0047,-0.0025 -0.01821,0.0035 -0.03345,0.005 -0.04503,0.005 0.0047,-0.0023 0.0047,-0.0023 0.0067,-0.005 -0.0093,0.0035 -0.0093,0 -0.014,-0.0023 z m 0.07522,0.0487 c -0.01525,0.0071 -0.03009,0.0091 -0.04674,0.01379 0.0094,0 0.04024,-0.0091 0.0187,0.005 0.0067,0 0.01401,0.0023 0.0182,0.0023 -0.03152,0.01831 -0.108506,0.04523 -0.136957,0.0049 0.0215,-0.01378 0.04308,0.0023 0.06504,-0.01378 -0.06027,-0.0023 0.07869,-0.0084 0.08337,-0.01192 z m -0.09675,0.09886 c -0.01527,0.005 -0.122017,0.005 -0.06696,-0.005 -0.02152,0.005 0.08337,-0.03176 0.06696,0.005 z m -0.02346,-0.120631 c -0.0093,0.0023 -0.0093,0 -0.01525,0.0023 0.01122,-0.0071 0.02359,-0.0085 0.03698,-0.0096 -0.0067,0.0084 -0.0093,0.01194 -0.02154,0.0084 z m -0.09696,-0.05029 c 0.01122,-0.0083 0.0522,-0.005 0.07528,-0.005 0.0076,-0.0023 0.0094,-0.0023 0.01522,-0.0023 -0.0047,0.0023 -0.009,0.0023 -0.01522,0.0023 -0.0067,0 -0.0093,0.0023 -0.0093,0.0023 0.0047,0.0023 0.0067,0.0035 0.0067,0.005 -0.04503,0.005 -0.05032,0.0071 -0.01826,0.005 -0.0093,0.0071 -0.04024,0.0094 -0.05506,0.0094 -0.0182,0.0023 0.0094,-0.0094 0.03697,-0.01852 -0.01401,-0.003 -0.02361,-0.0023 -0.03345,0.0023 z m -0.02149,0.0071 c -0.0094,0.0071 -0.01824,0.0071 -0.02356,0.0023 0.0093,-0.0049 0.0182,-0.0049 0.02356,-0.0023 z m -0.05208,0.02013 c 0.0093,-0.0023 0.01826,-0.0023 0.02495,-0.0023 -0.0093,0.005 -0.01538,0.0086 -0.02365,0.0071 -0.0067,-0.0023 -0.0093,-0.003 -0.0047,-0.005 z m -0.0093,-0.01194 c 0.0093,0.003 0.0093,0.0071 -0.01122,0.0084 -0.009,0.01012 -0.0182,0.01529 -0.03346,0.01194 0.01122,-0.01534 0.0268,-0.02176 0.04509,-0.0201 z m -0.06368,0.03345 c 0.0093,-0.005 0.014,-0.005 0.02364,-0.005 -0.0047,0 -0.0067,-0.0023 -0.0077,-0.0023 0.0093,-0.003 0.01537,-0.005 0.02358,-0.005 -0.0067,0 -0.0076,-0.0023 0,-0.003 0.03852,-0.005 0.07706,0.02342 0.118879,0.0071 -0.0093,0.0023 -0.0093,0 -0.01399,-0.0023 0.0093,0 0.01399,-0.0023 0.0182,-0.005 -0.03151,-0.0023 0.03864,-0.01381 0.04501,-0.01381 -0.03844,0.01849 0.04024,0.01194 0.03344,0.01639 -0.05506,0.03176 -0.142064,0.0071 -0.202252,0.01832 0,0.01196 -0.0093,0.01532 -0.02811,0.0097 0.0093,-0.005 0.01821,-0.0097 0.02811,-0.0097 0,0 0,-0.0023 0,-0.0023 -0.0075,0 -0.01122,0.0031 -0.01526,0.005 -0.01526,0.003 -0.03151,0.005 -0.04683,0.003 0.0093,-0.0094 0.01829,-0.01532 0.02813,-0.01379 -0.0067,0.0023 -0.0076,0 -0.0093,0 z m -0.143806,0.108804 c 0.009,-0.01012 0.05205,-0.04526 0.07887,-0.05521 -0.0047,0 -0.0067,0 -0.0076,0 0.0092,-0.005 0.01399,-0.0091 0.0195,-0.01379 0.0047,0.0049 0,0.0083 -0.0047,0.0099 0.0093,0 0.0093,0.003 0.0093,0.01379 0.0418,-0.0094 0.108511,0.01378 0.101921,0.01378 0.04022,-0.0023 0.08022,-0.06538 0.133611,-0.04689 -0.0066,-0.0023 -0.04868,0.0284 -0.0521,0.03521 -0.01936,0.04184 0.0067,0.01641 0.03152,0.04024 -0.01401,0.005 -0.04184,0.0023 -0.05348,0.0091 0.0047,-0.0023 0.0093,0.0083 0.0093,0.0083 -0.03867,0.01851 -0.265776,0.02683 -0.275798,0.01533 -0.0067,-0.0023 -0.01869,0 -0.03009,0 0.03344,-0.02682 0.0521,-0.02512 0.09209,-0.03011 -0.0182,-0.0071 -0.0416,-0.0031 -0.05349,0 z m -0.04864,0.03689 c 0.0093,-0.0023 0.0093,0.0031 0.0093,0.0138 -0.0093,0.0023 -0.01935,0.0023 -0.03007,0.005 0.0093,-0.0071 0.01533,-0.01378 0.02154,-0.0185 z m -0.537707,1.863415 c 0.0077,-0.01207 0.0093,-0.01848 0.02154,-0.02174 0.0076,-0.01213 0.0076,-0.02344 0.01401,-0.01381 -0.02358,0.06864 -0.02681,0.02011 -0.03512,0.03516 z m 0.170392,0.326757 c -0.09679,0.0032 -0.0535,-0.05027 -0.04159,-0.04864 0.01825,0.0047 0.03151,0.0218 0.03863,0.0301 0,-0.0024 0,-0.0047 0,-0.0073 0.0093,0.0073 0.0093,0.01491 0.0067,0.02517 z m 0.0047,-0.182652 c 0.02812,-0.06865 0.0092,-0.177633 -0.09517,-0.189346 -0.02679,-0.09045 -0.03507,0.02343 -0.11703,0.01212 0.08187,-0.105561 0.145481,-0.122296 0.235675,-0.03174 0.02812,0.0301 0.09518,0.124011 0.09211,0.14914 0.04501,0.0138 0.01122,0.0386 0.03344,0.07032 -0.04677,0.06195 -0.09687,-0.0024 -0.148623,-0.0091 z m 0.138525,-0.380316 c 0.0076,-0.0084 0.0093,0.02515 0.0093,0.03179 -0.01823,0.03517 -0.0093,-0.02682 -0.0093,-0.03179 z m 0.136901,0.571399 c -0.0067,-0.03179 -0.05208,0.04525 -0.0637,0.04186 0,0 -0.07371,-0.130681 -0.103776,-0.04695 -0.07868,-0.047 0.07705,-0.0604 0.08518,-0.05521 0.0047,-0.01491 0.0067,-0.164216 0.04178,-0.107281 0.01823,0.0284 0.04316,0.0074 0.06834,0.0091 0.05221,0.0084 0.04506,0.05865 0.06369,0.09388 -0.0066,-0.0121 -0.0076,-0.01672 0,0.0024 0,0 0,-0.0024 0,-0.0024 0.0077,0.02177 0.01871,0.06862 0.01871,0.06533 -0.0077,0 -0.11033,0 -0.11033,-0.0024 z m -0.112016,-0.666947 c 0.0093,-0.0073 0.0182,-0.01212 0.0268,-0.01212 0.0092,0.0024 0.0092,0.0091 0.0092,0.01639 -0.0182,0 -0.03008,-0.0049 -0.03697,-0.0049 z m 0.09674,0.353562 c -0.0067,0.02175 -0.01525,0.03178 -0.03846,0.0301 -0.02359,-0.0075 0.03345,-0.02516 0.03846,-0.0301 z m -0.04025,-0.33842 c 0,0.0048 0,0.01006 0,0.01674 -0.0076,0 -0.0067,-0.01012 0,-0.01674 z m 0.215611,0.697071 c 0.01122,-0.03521 0.06836,0.01215 0.07019,0.03013 -0.01824,0.02518 -0.08026,0.0072 -0.07019,-0.03013 z m 0.715701,-1.528392 c -0.05345,0.03012 0.0047,-0.06193 0.07524,-0.06533 -0.01859,0.0032 -0.0235,-0.0032 -0.01122,-0.01675 -0.05346,0.0023 -0.143897,0.06365 -0.185526,0.05363 -0.0451,-0.0091 -0.183913,0.103875 -0.107178,0.102186 -0.04675,0.0164 -0.115324,0.01379 -0.165448,0.03535 0.0093,0 0.03865,-0.0072 0.04692,0.0023 -0.02813,0.0084 -0.155527,0.05364 -0.147294,0.07206 -0.02356,0.0138 -0.03152,0.08874 -0.07516,0.08714 0.0067,0 0.01869,-0.06362 0.0195,-0.07035 -0.0093,0.0091 -0.0486,0.07711 -0.04502,0.08874 0.0067,0 0.0092,0 0.0092,0 -0.0092,0.01492 -0.0187,0.02683 -0.03512,0.03179 0,0.0096 0.0076,0.01213 0.01122,0.0138 -0.01398,0.0164 -0.04865,0.01012 -0.02493,0.03689 -0.02999,0.02344 -0.07029,0.0284 -0.101943,0.0503 0,0 0.0047,0.0033 0.0047,0.0033 -0.128807,0.05369 -0.242364,0.110598 -0.259079,0.263083 -0.0076,0.03862 -0.05029,0.209452 -0.107149,0.20276 -0.05204,-0.0073 0.04689,-0.254699 0.04022,-0.274807 0,-0.0024 -0.143886,-0.02683 -0.136966,-0.04026 -0.02152,0.0049 -0.04308,0 -0.06835,0.0084 0.0093,0.0076 0.0093,0.0076 0.0182,0.0024 -0.01525,0.02344 -0.03344,0.03688 -0.02679,0.05195 -0.04181,0.01847 -0.08024,-0.06705 -0.136946,-0.03532 -0.08516,0.04525 -0.14726,0.08546 -0.195578,0.170912 -0.0047,0 -0.0047,0 -0.0067,0 -0.01122,0.03012 -0.26242,0.445733 -0.147261,0.470869 0.157046,0.03339 0.163713,-0.187671 0.334293,-0.159188 -0.02151,0.04525 -0.06026,0.0771 -0.08024,0.122299 -0.01399,0.0284 -0.02679,0.04357 -0.04024,0.0603 -0.0195,0.03178 -0.193905,0.175942 -0.0418,0.182659 0.18218,0.01211 0.04674,0.184324 0.0093,0.278162 -0.03152,0.08378 -0.09847,0.356911 0.05836,0.28989 0.07512,-0.03179 0.07707,0.08047 0.08872,0.124017 -0.0076,0.0085 -0.06166,0.05865 -0.06166,0.05865 -0.0067,-0.0252 0.02494,-0.113952 -0.0093,-0.127351 -0.07029,-0.02519 -0.07511,0.142473 -0.110346,0.127351 -0.06697,-0.02686 -0.03343,-0.28486 -0.08322,-0.301616 -0.0076,0.0069 -0.0093,0.01832 -0.0093,0.02519 -0.0076,-0.0024 -0.0093,-0.0031 -0.01122,-0.0045 -0.01399,-0.05199 0.03151,-0.105538 0.02812,-0.160849 -0.0067,-0.04859 -0.0094,-0.09043 0.0067,-0.139118 -0.04511,-0.01383 -0.08689,-0.04523 -0.110329,-0.103875 -0.0093,-0.02177 0.0047,-0.128955 -0.02154,-0.134054 -0.01522,-0.06199 -0.04303,0.01849 -0.07168,0.0097 -0.03152,-0.0085 -0.0416,-0.115559 -0.06834,-0.115559 0.0887,-0.484271 0.285817,-0.946747 0.57332,-1.34891 0.140392,-0.197735 0.304197,-0.37703 0.484723,-0.539569 0.05836,-0.05362 0.130275,-0.117234 0.220657,-0.08548 0.01536,0.0049 0.06173,0.0023 0.08869,-0.02017 -0.0047,0 -0.0066,0 -0.0066,0 -0.01525,0.0031 -0.06026,0.01012 -0.05345,0.005 0.0094,-0.005 0.02495,-0.005 0.05345,-0.005 0.0066,0 0.0076,0 0.0076,0 0,0 -0.0047,0 -0.0047,0 0.07026,0.0031 0.18212,0.01674 0.22228,0.0071 0.0093,-0.005 0.01531,-0.0091 0.01531,-0.0091 0,0.005 -0.0093,0.0086 -0.01531,0.0091 -0.0093,0.005 -0.0093,0.0071 0.0093,0.005 0.02813,-0.02176 0.07529,-0.01639 0.08688,-0.03338 -0.0095,0.0023 -0.01525,0.0031 -0.02498,0.005 0.0094,-0.005 0.01821,-0.0086 0.02498,-0.01378 0.0092,-0.0071 -0.04024,-0.0099 -0.03151,-0.0167 0.03151,-0.02345 0.143911,-0.02682 0.117018,-0.0071 -0.01103,0.005 -0.02357,0.0083 -0.03507,0.0094 0.0047,0.0071 0.0268,0.0023 0.03702,0.005 -0.03702,0.0096 0.0093,0.0023 -0.0182,0.02175 -0.0076,0 0.09208,-0.02341 0.07357,-0.0083 -0.02359,-0.0023 -0.03152,0.0083 -0.02816,0.02514 0.0268,0.02684 0.107171,-0.04695 0.128805,-0.05197 -0.0047,0 -0.165556,-0.003 -0.145493,-0.01854 0.02349,0.0091 0.04298,0.0084 0.06024,-0.0071 -0.0076,-0.003 -0.05678,-0.005 -0.05678,-0.005 -0.0092,-0.02178 0.06177,-0.03176 0.07371,-0.03691 -0.01936,0.0071 -0.05509,0.0035 -0.07523,0.01379 0.0067,0 0.0093,0 0.0093,-0.0023 -0.01825,0.0091 -0.035,0.01531 -0.05504,0.01378 0.05838,-0.04025 0.08872,-0.04025 0.168915,-0.04356 -0.01401,0.0071 -0.02497,0.0091 -0.04022,0.0138 0.03867,-0.0083 0.07358,-0.0083 0.11033,-0.0071 -0.014,0.0032 -0.07865,0.02017 -0.05837,0.02017 -0.04307,0.02014 0.138616,-0.04187 0.148631,-0.01012 0.0047,0.0023 -0.0093,0.01671 -0.01122,0.01671 0.07709,0 0.140371,0.02512 0.213961,0.02681 0,0.0023 -0.0047,0.0032 -0.0047,0.005 0.0093,-0.0023 0.01801,0 0.02348,0.0083 -0.009,0.0023 -0.0182,0 -0.02154,0.005 0.0094,-0.0023 0.01867,0 0.02498,0.0031 -0.0093,0.003 -0.01525,0.003 -0.0215,0.0084 0.0093,0.0031 0.09516,0.03176 0.09356,0.03526 -0.0093,0.04024 -0.07168,0.02176 -0.103801,0.0185 -0.0067,0.0085 -0.0093,0.0023 -0.01397,0.01203 0.0182,-0.0023 0.025,0.02178 0.04869,0.01851 -0.01826,0.0603 -0.01826,0.02512 -0.08516,0.03862 -0.0047,-0.0031 0.07705,0.03519 0.03513,0.04523 -0.05219,0.0091 -0.111863,-0.02683 -0.143939,-0.04185 -0.01104,-0.0071 -0.148613,0.0091 -0.143895,0.0023 0.03007,-0.04023 0.108489,-0.02684 0.150568,-0.04696 -0.03344,-0.01012 0.08689,-0.03175 0.04679,-0.06023 0,0.02682 -0.06502,0.0084 -0.06368,0.0071 0.0182,-0.0091 0.03342,-0.01532 0.05347,-0.01378 -0.0093,-0.005 -0.05679,-0.0071 -0.05835,-0.0071 0.0094,-0.0023 0.01526,-0.0031 0.02357,-0.0071 -0.0076,-0.005 -0.01122,-0.01012 -0.01822,-0.01012 -0.0093,0 -0.02151,0.0031 -0.02812,0.01012 0.0093,-0.0083 0.01951,-0.01012 0.02812,-0.01012 0,0 0.0047,0 0.0067,0 -0.01951,-0.0091 -0.09515,0.0084 -0.08023,-0.0031 -0.01122,0 -0.03151,0 -0.05344,0.0023 0.0182,0.0023 0.03344,0.01012 0.05029,0.01012 -0.03152,0.02684 -0.09214,0.05526 -0.157071,0.07542 0.01399,-0.0031 0.0093,0.0031 0.0093,0.0071 -0.01122,0 -0.01526,-0.0031 -0.0093,-0.0071 -0.0093,0.0031 -0.02151,0.0071 -0.03344,0.01012 0,0.0031 0.0047,0.005 0,0.0083 0.0093,-0.005 0.05506,0.0023 0.06027,0.01378 0,0.0031 -0.0076,0.0071 -0.0067,0.01012 0.0094,0.0071 0.03006,0.0023 0.0315,0.0083 -0.04501,0.01204 -0.122021,0.02014 -0.168921,0.02341 -0.01122,0 -0.0067,-0.0049 0.0076,-0.01006 -0.01401,-0.0023 -0.03345,0.0023 -0.04163,0.0023 0.0153,-0.01194 0.05674,-0.03518 0.08871,-0.05031 -0.03502,0.0049 -0.06837,0.0049 -0.09515,-0.0032 -0.0067,0.01533 0.03151,0.0091 0.05834,0.01378 -0.03867,0.03176 -0.136962,0.04526 -0.195592,0.03862 0.0076,0.0023 0.0093,0.005 0.01538,0.0084 -0.05208,0.04706 -0.173862,0.08548 -0.237352,0.12736 0.05026,-0.0084 0.045,0.01012 0.01122,0.04526 0.118879,-0.005 0.107172,0.06533 0.202279,0.06197 0.03152,0.02175 -0.01525,0.05197 -0.01869,0.06861 0.01103,-0.0023 0.03342,-0.0023 0.02357,0.01006 -0.0093,0.0023 -0.01525,-0.0023 -0.02357,-0.0049 0.0066,0.0072 0.01934,0.0091 0.06025,0.0091 0.04675,-0.05199 -0.0092,-0.07031 0.08327,-0.107282 0.113721,-0.04526 0.0301,-0.04526 0.02812,-0.103869 0.122012,-0.02682 0.07369,-0.135742 0.235667,-0.05695 0.04678,0.02175 0.187281,0.06364 0.222303,-0.0023 -0.02152,0.0369 -0.0094,0.04191 0.01122,0.04864 -0.0093,-0.005 -0.014,-0.0084 -0.01857,-0.01531 0.04177,-0.05694 0.132272,0.06364 0.06011,0.08875 0.0094,0.0071 0.01934,0.01642 0.04868,0.01642 l -0.0047,0.0023 c -0.02367,0.04025 0.09514,0.02842 0.08515,0.04025 -0.01821,0.01671 -0.09357,0.02351 -0.126901,0.03175 0.0067,0.0164 0.140453,-0.01847 0.151965,-0.02343 0.04176,0.14076 -0.377751,0.127405 -0.464676,0.197737 0.0094,0 0.222287,-0.0503 0.205659,-0.01836 -0.01524,0.02513 -0.05351,0.01836 -0.07517,0.03176 0.01122,0 0.02493,0.0032 0.03152,0.0032 -0.07528,0.09215 0.09361,0.08048 0.08516,0.09724 -0.02678,0.03011 -0.172274,0.05367 -0.203877,0.07035 z M 18.94161,16.780492 c -0.018,0.0084 -0.05346,0.02014 -0.07021,0.02177 0.0067,-0.0023 0.0076,-0.005 0.0092,-0.0071 0.01934,-0.0091 0.04023,-0.02014 0.06177,-0.01532 z m 0.476387,0.343503 c 0.0268,0.005 -0.02359,0.02016 0,0 z m -0.0067,0.04184 c -0.02499,0.02014 -0.06367,-0.0083 -0.08322,-0.02346 0.04504,-0.0072 0.06174,0.01204 0.08322,0.02346 z m -0.06832,0.103938 c -0.0182,0.03353 -0.07882,-0.0023 -0.07369,-0.01012 0.0047,-0.005 0.0092,-0.0072 0.0092,-0.0091 0.01533,0.02179 0.03697,0.0284 0.06367,0.02015 z m 0.02495,0.02015 c 0.01532,-0.01534 0.03153,-0.0284 0.05206,-0.03691 0,0.005 0.009,0.0075 0.0077,0.01012 -0.0077,0.0091 -0.0301,0.01638 0.0067,0.01638 -0.0093,0.02343 -0.06696,0.02516 -0.06023,0.0091 z m 0.18068,-0.04517 c 0,0 -0.06835,0.03517 -0.06512,0.02839 0.0093,-0.0084 0.014,-0.0138 0.02358,-0.01675 -0.01826,0 -0.1704,-0.01211 -0.16888,-0.01211 0.0093,-0.0164 0.03153,-0.0091 0.03868,-0.02684 -0.0077,0 -0.0094,-0.0023 -0.0094,-0.005 0.06015,-0.01848 0.107185,-0.108872 0.17225,-0.108872 0.01933,0 -0.05835,0.06364 -0.06026,0.0686 0.01525,-0.0091 0.0301,-0.0091 0.04681,-0.0049 -0.0093,0.0032 -0.01122,0.0084 -0.01399,0.01493 0.0093,0 0.01823,0 0.02497,0 0,0.0023 -0.0067,0.005 -0.0067,0.005 0.0093,0 0.014,-0.0032 0.01935,-0.005 0.01525,0.005 0.03342,0.005 0.04308,0 -0.0067,0.01012 -0.0093,0.01851 -0.01525,0.03349 0.0067,-0.0023 0.01122,-0.0032 0.01866,-0.0032 -0.01122,0.02342 -0.0093,0.01012 -0.01866,0.0334 0.01525,0.0023 0.01122,-0.0032 0.02151,-0.0072 -0.02813,0.07877 -0.02499,0.03517 -0.05506,0.005 z m 0.852913,-0.697048 c -0.014,0.04026 -0.06368,-0.02511 -0.07017,0 0.01122,0.0071 0.08022,0.01673 0.07167,0.04358 -0.0076,0.0185 -0.08689,-0.012 -0.09847,-0.01528 -0.0076,0.01194 0.0094,0.01194 -0.01525,0.01528 -0.0067,0.01195 0.0717,0.0091 0.08872,0.0138 -0.07168,0.02514 -0.150568,0.0369 -0.225623,0.0369 -0.04868,0.0138 -0.07706,0.04679 -0.133585,0.04526 0.0047,-0.0031 0.0047,-0.005 0.0067,-0.0081 -0.05204,0.0094 -0.113699,0.115593 -0.140383,0.11233 -0.01869,-0.0023 -0.143908,-0.05858 -0.09847,-0.08385 -0.0093,-0.01012 -0.04681,-0.01672 -0.02495,-0.04702 -0.0067,-0.0023 -0.0093,-0.0023 -0.0093,0 0.0093,-0.02682 0.05347,-0.03177 0.07029,-0.05366 -0.0182,-0.0031 -0.05507,-0.005 -0.05344,-0.01532 0.01526,-0.0031 0.03707,0.01532 0.04678,0 -0.0077,0 -0.0418,-0.02177 -0.05514,-0.02016 0.01534,-0.0085 0.01823,-0.0138 0.0047,-0.01675 0.02359,-0.05693 -0.09848,-0.05693 -0.132289,-0.04867 0.0047,0 0.0047,0.0023 0.0067,0.0023 -0.0093,0.0023 -0.0215,0 -0.03151,-0.005 0.0077,-0.0023 0.0093,-0.0023 0.0093,-0.005 -0.0093,-0.0049 -0.01935,-0.0071 -0.03011,-0.0032 0.01103,-0.01835 0.05349,0 0.06837,-0.01641 -0.009,0 -0.08024,0.0071 -0.07707,-0.005 0.01523,-0.03013 0.09207,-0.0023 0.108526,-0.03348 -0.0093,0.0023 -0.02151,0 -0.03151,-0.0029 0.0182,-0.03514 0.185525,-0.04184 0.210598,-0.04355 0.0093,-0.01199 0.02499,-0.01006 0.03866,-0.0049 -0.0047,-0.0023 -0.0067,-0.005 -0.0047,-0.005 0.0093,-0.01199 0.0753,0 0.08868,0 -0.0094,0 -0.01937,-0.0023 -0.02813,-0.0091 0.0092,-0.003 0.01813,-0.005 0.02501,-0.005 -0.0067,-0.0023 -0.0093,-0.0023 -0.0093,-0.003 0.167096,-0.03862 0.352694,-0.03012 0.523187,-0.02515 -0.01122,0.0094 -0.03151,0.01675 -0.05507,0.02015 0.01821,-0.0023 0.03153,-0.0032 0.03153,0 -0.0047,0.0023 -0.06837,0.02177 -0.07168,0.02684 0.01864,-0.0029 0.342661,-0.04184 0.339309,-0.03691 -0.0095,0.01671 -0.07871,0.02014 -0.113736,0.02176 -0.0093,0.01848 -0.140411,0.04689 -0.163744,0.06026 0.01935,-0.005 0.04023,-0.0023 0.06024,0.0035 -0.0076,0.0023 -0.01103,0.003 -0.01823,0.003 0.01122,0.0023 0.02364,0.005 0.03503,0.01012 -0.0094,0.02179 -0.07705,-0.01012 -0.08689,0.01378 -0.0067,0.005 0.04024,0.0023 0.03343,0.02016 -0.0093,0.01833 -0.02815,0 -0.03343,0.01379 0.0093,0.0071 0.02152,0.01012 0.03343,0.0071 -0.0093,0.0071 -0.02679,0.0094 -0.0451,0.0094 0,0.003 0.0067,0.005 0.009,0.0071 -0.02153,0.02515 -0.0637,0.0071 -0.09029,0.0071 0.01869,0.0085 0.03343,0.01534 0.04677,0.02342 z m 0.04176,0.07376 c 0.01401,0 0.03846,0 0.0503,-0.0023 0.0047,0.0023 -0.03854,-0.01673 -0.03697,-0.02176 0.01399,-0.0023 0.03344,-0.0085 0.04676,-0.0071 -0.01402,0.0301 0.01819,0.01831 0.02679,0.01202 0.0093,0.01379 0.02678,0.0023 0.04023,0.0091 0.0047,-0.0091 0.103804,-0.0023 0.115399,0 -0.02679,0.0083 0.01401,0.02682 0.0076,0.03863 -0.09689,0.04185 -0.148617,0.0035 -0.23901,-0.005 0.0067,-0.0031 0.0093,-0.005 0.0093,-0.005 0.0076,-0.0083 0.0094,-0.0091 0.01822,-0.0164 -0.01122,-0.0023 -0.03007,0.0031 -0.03502,-0.0031 z m 2.697757,3.632856 c -0.005,0.06034 0.07873,0.120666 0.05505,0.175933 -0.06837,0.145795 0.06164,0.293244 -0.107167,0.400489 -0.05836,0.03689 -0.135305,0.07032 -0.148658,0.147478 -0.108504,0.02181 -0.0093,0.150796 -0.0093,0.20443 -0.0076,0.12398 -0.02812,0.09721 -0.105284,0.162549 -0.08022,0.06862 -0.0067,0.127305 -0.07167,0.209455 -0.06366,0.07543 -0.09675,0.165887 -0.155521,0.24633 -0.02495,0.03345 -0.145464,0.07706 -0.150577,0.10385 -0.06508,0.0085 -0.120155,-0.0085 -0.183923,0.02518 -0.06025,0.0318 -0.130267,-0.0091 -0.151931,0.0022 0.0047,-0.214499 -0.168935,-0.377035 -0.193875,-0.60157 -0.0092,-0.103882 -0.01396,-0.144059 -0.06163,-0.23793 -0.05028,-0.09892 -0.09221,-0.209449 -0.07169,-0.321725 0.01527,-0.08203 0.08024,-0.137436 0.0985,-0.214503 0.01824,-0.07701 -0.01865,-0.197646 -0.03862,-0.273042 -0.02156,-0.08047 -0.0268,-0.180976 -0.08023,-0.248001 -0.05348,-0.06705 -0.145404,-0.155821 -0.110352,-0.251344 0.05345,-0.145785 0.07871,-0.296593 -0.132317,-0.293246 -0.06503,0.0024 -0.05831,-0.127342 -0.135333,-0.12568 -0.103822,0.0031 -0.187286,0.122295 -0.274115,0.123982 -0.03509,0.0024 -0.06513,-0.0318 -0.101892,-0.03014 -0.0451,0 -0.07706,0.02517 -0.117013,0.04025 -0.08871,0.03014 -0.153676,-0.05694 -0.208954,-0.112303 -0.07367,-0.07541 -0.08688,-0.175938 -0.155524,-0.253007 -0.0385,-0.04185 -0.07708,-0.08547 -0.107206,-0.135729 0.0047,0 0.0067,0 0.0076,0 0,-0.05865 -0.03698,-0.117241 -0.0092,-0.162549 0.03009,-0.04693 0.05027,-0.112327 0.05347,-0.169274 0.0067,-0.08048 -0.05347,-0.19606 -0.01104,-0.269783 0.03154,-0.05521 0.05344,-0.112328 0.07866,-0.170913 0.03346,-0.07206 0.06501,-0.162551 0.143894,-0.191023 0.04307,-0.01671 0.09688,-0.06197 0.110314,-0.1073 0.01525,-0.04871 0.0077,-0.105565 0.03698,-0.149124 0.04501,-0.06365 0.09848,-0.118969 0.147312,-0.180976 -0.0047,0 -0.0047,0 -0.0067,0 0.05344,-0.07206 0.135312,0.0085 0.229007,-0.04699 0.07511,-0.04185 0.16892,-0.0904 0.257398,-0.09385 0.05838,-0.0023 0.111864,0 0.172223,-0.0023 0.02815,0 0.06503,-0.05366 0.09024,-0.0138 0.01525,0.02015 0.03011,0.02015 0.04672,0.005 -0.0067,0.05198 -0.02491,0.09546 -0.02491,0.152439 0,0.102186 0.09681,0.06862 0.157077,0.08881 0.05505,0.01836 0.267436,0.249671 0.264073,0.07206 -0.0067,-0.154146 0.222305,-0.0218 0.279145,-0.0024 0.08024,0.02841 0.142094,0.03862 0.220656,0.0091 0.06012,-0.02177 0.113685,0.01639 0.175484,0 0.03707,0.09215 0.03152,0.113929 0.0092,0.207778 -0.03344,-0.0048 -0.06837,-0.09211 -0.0968,-0.125697 0.0077,0.09718 0.0968,0.212822 0.142062,0.29827 0.03009,0.05689 0.03697,0.11723 0.06835,0.172583 0.03868,0.06531 0.02151,0.155841 0.06835,0.20778 0.05027,0.05522 0.06836,0.08379 0.08516,0.16085 0.02151,0.100592 0.183895,0.165884 0.20568,0.261401 0.0315,0.13741 0.07511,0.103874 0.187286,0.08375 0.06368,-0.01383 0.1234,-0.04691 0.183872,-0.06704 0.0651,0.159179 -0.107123,0.464162 -0.195617,0.594867 -0.101901,0.14913 -0.267441,0.204433 -0.310891,0.397131 -0.0093,0.05199 -0.05675,0.07877 -0.05675,0.135739 -0.005,0.05026 0.0093,0.103849 0.0093,0.159178 z"
       id="path1025-6-3-6-6-6-6" />
  </g>
  <sodipodi:namedview
     id="namedview5545"
     pagecolor="#cccccc"
     bordercolor="#000000"
     borderopacity="1"
     inkscape:showpageshadow="2"
     inkscape:pageopacity="0"
     inkscape:pagecheckerboard="0"
     inkscape:deskcolor="#808080"
     showgrid="false"
     inkscape:zoom="10.429825"
     inkscape:cx="-3.4037004"
     inkscape:cy="19.223717"
     inkscape:window-width="1920"
     inkscape:window-height="994"
     inkscape:window-x="0"
     inkscape:window-y="0"
     inkscape:window-maximized="1"
     inkscape:current-layer="svg5543">
    <inkscape:grid
       type="xygrid"
       id="grid6017"
       originx="1.8530274e-07"
       originy="0" />
  </sodipodi:namedview>
  <defs
     id="defs2116">
    <linearGradient
       inkscape:collect="always"
       id="linearGradient449">
      <stop
         style="stop-color:#00ccff;stop-opacity:1"
         offset="0"
         id="stop445" />
      <stop
         style="stop-color:#6db2c5;stop-opacity:1;"
         offset="1"
         id="stop447" />
    </linearGradient>
    <style
       id="current-color-scheme"
       type="text/css">
   .ColorScheme-Background {color:#181818; } .ColorScheme-ButtonBackground { color:#343434; } .ColorScheme-Highlight { color:#4285f4; } .ColorScheme-Text { color:#dfdfdf; } .ColorScheme-ViewBackground { color:#242424; } .ColorScheme-NegativeText { color:#f44336; } .ColorScheme-PositiveText { color:#4caf50; } .ColorScheme-NeutralText { color:#ff9800; }
  </style>
    <linearGradient
       inkscape:collect="always"
       xlink:href="#linearGradient449"
       id="linearGradient5058"
       x1="148.9608"
       y1="596.36218"
       x2="148.9608"
       y2="636.12817"
       gradientUnits="userSpaceOnUse"
       gradientTransform="matrix(0.50999969,0,0,0.42750131,-58.969954,-248.94566)" />
    <linearGradient
       inkscape:collect="always"
       xlink:href="#linearGradient449"
       id="linearGradient6958"
       gradientUnits="userSpaceOnUse"
       gradientTransform="matrix(0.43219982,0,0,0.36977632,-74.548449,-207.9207)"
       x1="146.80391"
       y1="596.36243"
       x2="146.99998"
       y2="636.3623" />
  </defs>
</svg>
