<?xml version="1.0" encoding="UTF-8" standalone="no"?>
<svg
   width="32"
   height="32"
   version="1.1"
   id="svg12"
   sodipodi:docname="plasmavault_error.svg"
   inkscape:version="1.2.1 (9c6d41e410, 2022-07-14)"
   xmlns:inkscape="http://www.inkscape.org/namespaces/inkscape"
   xmlns:sodipodi="http://sodipodi.sourceforge.net/DTD/sodipodi-0.dtd"
   xmlns:xlink="http://www.w3.org/1999/xlink"
   xmlns="http://www.w3.org/2000/svg"
   xmlns:svg="http://www.w3.org/2000/svg"
   xmlns:rdf="http://www.w3.org/1999/02/22-rdf-syntax-ns#"
   xmlns:cc="http://creativecommons.org/ns#"
   xmlns:dc="http://purl.org/dc/elements/1.1/">
  <metadata
     id="metadata18">
    <rdf:RDF>
      <cc:Work
         rdf:about="">
        <dc:format>image/svg+xml</dc:format>
        <dc:type
           rdf:resource="http://purl.org/dc/dcmitype/StillImage" />
      </cc:Work>
    </rdf:RDF>
  </metadata>
  <defs
     id="defs16">
    <linearGradient
       inkscape:collect="always"
       id="linearGradient26548">
      <stop
         style="stop-color:#5581aa;stop-opacity:1;"
         offset="0"
         id="stop26544" />
      <stop
         style="stop-color:#6db2c5;stop-opacity:1;"
         offset="1"
         id="stop26546" />
    </linearGradient>
    <linearGradient
       inkscape:collect="always"
       xlink:href="#linearGradient26548"
       id="linearGradient24643"
       gradientUnits="userSpaceOnUse"
       gradientTransform="matrix(0.53047063,0,0,0.52750186,-93.869774,-319.28216)"
       x1="148.58699"
       y1="597.93524"
       x2="147.00002"
       y2="636.36206" />
    <linearGradient
       inkscape:collect="always"
       xlink:href="#linearGradient26548"
       id="linearGradient5562"
       gradientUnits="userSpaceOnUse"
       gradientTransform="matrix(0.44975237,0,0,0.41000145,-55.108554,-241.78737)"
       x1="148.58699"
       y1="597.93524"
       x2="146.98878"
       y2="636.06451" />
  </defs>
  <sodipodi:namedview
     pagecolor="#ffffff"
     bordercolor="#666666"
     borderopacity="1"
     objecttolerance="10"
     gridtolerance="10"
     guidetolerance="10"
     inkscape:pageopacity="0"
     inkscape:pageshadow="2"
     inkscape:window-width="1920"
     inkscape:window-height="1002"
     id="namedview14"
     showgrid="false"
     inkscape:zoom="9.8125003"
     inkscape:cx="31.643311"
     inkscape:cy="22.267515"
     inkscape:window-x="0"
     inkscape:window-y="0"
     inkscape:window-maximized="1"
     inkscape:current-layer="svg12"
     inkscape:document-rotation="0"
     inkscape:lockguides="false"
     inkscape:pagecheckerboard="0"
     inkscape:showpageshadow="2"
     inkscape:deskcolor="#d1d1d1">
    <inkscape:grid
       type="xygrid"
       id="grid868"
       originx="0"
       originy="0" />
  </sodipodi:namedview>
  <g
     id="plasmavault_error"
     transform="translate(32,10)">
    <g
       id="g2077">
      <rect
         style="opacity:0.00100002"
         width="32"
         height="32"
         x="-32"
         y="-10"
         id="rect7" />
      <path
         inkscape:connector-curvature="0"
         id="path9068-9-37-8-0-1-3"
         d="m -5.257,-1.8272327 h -8.988546 l -2.725214,-2.8727672 -9.52924,2.8e-6 V 16.4 h 21.218833 z"
         style="display:inline;overflow:visible;visibility:visible;opacity:0.6;fill:url(#linearGradient24643);fill-opacity:1;fill-rule:nonzero;stroke:none;stroke-width:0.74058;marker:none"
         sodipodi:nodetypes="ccccccc" />
      <path
         style="color:#eff0f1;fill:#bf616a;fill-opacity:1;stroke:none;stroke-width:1.51477"
         d="m -24,-6 c -2.088656,0.01077 -3.989231,1.701296 -4,3.789952 v 16.420096 c 0.01077,2.088656 1.701296,3.779183 3.789952,3.789952 H -7.789952 C -5.701296,17.98923 -4.010769,16.298704 -4,14.210048 V 0.390811 C -4,-2 -5,-3 -8,-3 l -6.384,10e-4 -1.737181,-1.737683 -0.65741,-0.655895 -0.605908,-0.605907 z m 0,2 h 6 l 1.087,1.025 L -23,3 h -3 v -5 c 0,-1 0.5,-2 2,-2 z m 5,6 h 13 v 12 c 0,1.399646 -0.600353,2 -2,2 h -16 c -1.396812,0.0034 -2.003362,-0.603188 -2,-2 V 5 h 3 1 v 0 z"
         class="ColorScheme-Text"
         id="path4-1-3"
         sodipodi:nodetypes="cccccccccccccsccccssccssccccccc" />
      <path
         d="m -9.958656,7.882663 h -0.329334 l -9.75e-4,-1.641327 c -9.75e-4,-1.788 -1.456001,-3.242672 -3.243998,-3.241335 -1.788001,0.0016 -3.242664,1.456005 -3.241336,3.244005 l 0.0035,1.64133 H -16.888 C -17.502649,7.886936 -18.001327,8.385326 -17.999997,9 v 4.886674 C -17.999997,14.501342 -17.5,15 -16.885327,15 l 6.930672,-0.0043 c 0.61466,0 1.113328,-0.498665 1.111986,-1.113331 V 8.994402 c 0,-0.614663 -0.499984,-1.112002 -1.114658,-1.112002 z m -5.618658,0.0034 -0.0035,-1.641329 c 0,-1.129335 0.917336,-2.048003 2.046669,-2.049337 1.129333,0 2.04799,0.918666 2.04799,2.046666 l 0.0035,1.641336 z"
         id="path2-3-6"
         style="color:#d6dbf1;fill:#bf616a;fill-opacity:1;stroke-width:0.13333"
         class="ColorScheme-Text" />
    </g>
  </g>
  <g
     id="22-22-plasmavault_error"
     transform="translate(32,10)">
    <rect
       style="opacity:0.00100002"
       width="22"
       height="22"
       x="0"
       y="0"
       id="rect2" />
    <path
       inkscape:connector-curvature="0"
       id="path9068-9-37-8-0-1-3-3"
       d="M 20.020591,4.9548617 H 12.399773 L 10.089237,2.7219997 2.01,2.7220017 V 19.122 h 17.990102 z"
       style="display:inline;overflow:visible;visibility:visible;opacity:0.6;fill:url(#linearGradient5562);fill-opacity:1;fill-rule:nonzero;stroke:none;stroke-width:0.601186;marker:none"
       sodipodi:nodetypes="ccccccc" />
    <path
       style="color:#eff0f1;fill:#bf616a;fill-opacity:1;stroke:none;stroke-width:1.26225"
       d="M 3.5,0.99999966 C 2.25,0.99999966 1,2.2499997 1,3.4999997 V 18.5 C 1,19.75 2.25,21 3.5,21 h 15 C 19.75,21 21,19.75 21,18.5 V 5.9999997 c -0.0084,-1.740552 -0.759448,-2.491021 -2.5,-2.5 H 12.25 L 10.899013,2.0527717 10.351179,1.5061877 9.846247,1.0012617 Z M 4,2.9999997 h 5.5 l 1,1 -5.5,4 H 3 v 0 -4 c 0,0 -0.242355,-1.138039 1,-1 z m 6,4 h 9 V 18 c 0,1 -1,1 -1,1 H 4 C 3,19 3,18 3,18 V 8.9999997 h 2.5 l 2.8,-2 z"
       class="ColorScheme-Text"
       id="path4-1-2-5"
       sodipodi:nodetypes="cccccccccccccsccccccsccsccccccc" />
    <path
       d="m 16.146497,12.25527 h -0.251748 l -7.46e-4,-1.094271 c -7.49e-4,-1.1920603 -1.112987,-2.1618913 -2.479757,-2.1609983 -1.366776,0.0011 -2.478736,0.970717 -2.477725,2.1627723 l 0.0026,1.09428 h -0.08956 c -0.469872,0.0011 -0.851058,0.333338 -0.850045,0.743146 v 3.257939 c 0,0.409798 0.382199,0.74226 0.852069,0.74226 l 5.297904,-0.0048 c 0.469861,0 0.851054,-0.33246 0.850023,-0.74226 v -3.258686 c 0,-0.409788 -0.3822,-0.741361 -0.852063,-0.741361 z m -4.294985,0.0026 -0.0026,-1.094275 c 0,-0.752929 0.701221,-1.3654043 1.564502,-1.3662953 0.863274,0 1.565512,0.6124753 1.565512,1.3645133 l 0.0026,1.094281 z"
       id="path2-3-7-6"
       style="color:#d6dbf1;fill:#bf616a;fill-opacity:1;stroke-width:0.0951828"
       class="ColorScheme-Text" />
  </g>
</svg>
