<?xml version="1.0" encoding="UTF-8" standalone="no"?>
<svg
   width="32"
   height="32"
   version="1.1"
   id="svg12"
   sodipodi:docname="plasmavault.svg"
   inkscape:version="1.2.1 (9c6d41e410, 2022-07-14)"
   xmlns:inkscape="http://www.inkscape.org/namespaces/inkscape"
   xmlns:sodipodi="http://sodipodi.sourceforge.net/DTD/sodipodi-0.dtd"
   xmlns:xlink="http://www.w3.org/1999/xlink"
   xmlns="http://www.w3.org/2000/svg"
   xmlns:svg="http://www.w3.org/2000/svg"
   xmlns:rdf="http://www.w3.org/1999/02/22-rdf-syntax-ns#"
   xmlns:cc="http://creativecommons.org/ns#"
   xmlns:dc="http://purl.org/dc/elements/1.1/">
  <g
     id="22-22-plasmavault"
     transform="translate(32,10)">
    <rect
       style="opacity:0.00100002;fill:#a8aeca;fill-opacity:1"
       width="22"
       height="22"
       x="0"
       y="0"
       id="rect2" />
    <path
       inkscape:connector-curvature="0"
       id="path9068-9-37-8-0-1-3-3"
       d="M 20.020591,4.954862 H 12.399773 L 10.089237,2.722 2.01,2.722002 V 19.122 h 17.990102 z"
       style="display:inline;overflow:visible;visibility:visible;opacity:0.6;fill:url(#linearGradient5562);fill-opacity:1;fill-rule:nonzero;stroke:none;stroke-width:0.601186;marker:none"
       sodipodi:nodetypes="ccccccc" />
    <path
       style="color:#eff0f1;fill:#d3dae3;fill-opacity:1;stroke:none;stroke-width:1.26225"
       d="M 3.5,1 C 2.25,1 1,2.25 1,3.5 v 15 C 1,19.75 2.25,21 3.5,21 h 15 C 19.75,21 21,19.75 21,18.5 V 6 C 20.9916,4.259448 20.240552,3.508979 18.5,3.5 H 12.25 L 10.899013,2.052772 10.351179,1.506188 9.846247,1.001262 Z M 4,3 h 5.5 l 1,1 L 5,8 H 3 V 8 4 C 3,4 2.757645,2.861961 4,3 Z m 6,4 h 9 v 11 c 0,1 -1,1 -1,1 H 4 C 3,19 3,18 3,18 V 9 H 5.5 L 8.3,7 Z"
       class="ColorScheme-Text"
       id="path4-1-2-5"
       sodipodi:nodetypes="cccccccccccccsccccccsccsccccccc" />
    <path
       d="m 16.146497,12.25527 h -0.251748 l -7.46e-4,-1.094271 c -7.49e-4,-1.19206 -1.112987,-2.161891 -2.479757,-2.160998 -1.366776,0.0011 -2.478736,0.970717 -2.477725,2.162772 l 0.0026,1.09428 h -0.08956 c -0.469872,0.0011 -0.851058,0.333338 -0.850045,0.743146 v 3.257939 c 0,0.409798 0.382199,0.74226 0.852069,0.74226 l 5.297904,-0.0048 c 0.469861,0 0.851054,-0.33246 0.850023,-0.74226 v -3.258686 c 0,-0.409788 -0.3822,-0.741361 -0.852063,-0.741361 z m -4.294985,0.0026 -0.0026,-1.094275 c 0,-0.752929 0.701221,-1.365404 1.564502,-1.366295 0.863274,0 1.565512,0.612475 1.565512,1.364513 l 0.0026,1.094281 z"
       id="path2-3-7-6"
       style="color:#d6dbf1;fill:#d3dae3;fill-opacity:1;stroke-width:0.0951828"
       class="ColorScheme-Text" />
  </g>
  <g
     id="plasmavault">
    <rect
       style="opacity:0.00100002;fill:#a8aeca;fill-opacity:1"
       width="32"
       height="32"
       x="0"
       y="0"
       id="rect7" />
    <path
       inkscape:connector-curvature="0"
       id="path9068-9-37-8-0-1-3"
       d="M 26.743,8.1727672 H 17.754454 L 15.02924,5.3 5.5,5.3000028 V 26.4 h 21.218833 z"
       style="display:inline;overflow:visible;visibility:visible;opacity:0.6;fill:url(#linearGradient24643);fill-opacity:1;fill-rule:nonzero;stroke:none;stroke-width:0.74058;marker:none"
       sodipodi:nodetypes="ccccccc" />
    <path
       style="color:#eff0f1;fill:#d3dae3;fill-opacity:1;stroke:none;stroke-width:1.51477"
       d="m 7.9999997,3.9999999 c -2.088656,0.01077 -3.989231,1.701296 -4,3.789952 V 24.210048 C 4.0107697,26.298704 5.7012957,27.989231 7.7899517,28 H 24.210048 C 26.298704,27.989231 27.989231,26.298704 28,24.210048 V 10.390811 C 28,7.9999999 27,6.9999999 24,6.9999999 l -6.384,0.001 -1.737181,-1.737683 -0.65741,-0.655895 -0.605908,-0.605907 z m 0,2 H 14 l 1.087,1.025 L 8.9999997,13 h -3 V 7.9999999 c 0,-1 0.5,-2 2,-2 z M 13,12 h 13 v 12 c 0,1.399646 -0.600353,2 -2,2 H 7.9999997 c -1.396812,0.0034 -2.003362,-0.603188 -2,-2 v -9 h 3 1 v 0 z"
       class="ColorScheme-Text"
       id="path4-1-3"
       sodipodi:nodetypes="cccccccccccccsccccssccssccccccc" />
    <path
       d="M 22.041344,17.882663 H 21.71201 l -9.75e-4,-1.641327 c -9.75e-4,-1.788 -1.456001,-3.242672 -3.243998,-3.241335 -1.788001,0.0016 -3.242664,1.456005 -3.241336,3.244005 l 0.0035,1.64133 H 15.112 C 14.497351,17.886936 13.998673,18.385326 14.000003,19 v 4.886674 C 14.000003,24.501342 14.5,25 15.114673,25 l 6.930672,-0.0043 c 0.61466,0 1.113328,-0.498665 1.111986,-1.113331 v -4.887967 c 0,-0.614663 -0.499984,-1.112002 -1.114658,-1.112002 z m -5.618658,0.0034 -0.0035,-1.641329 c 0,-1.129335 0.917336,-2.048003 2.046669,-2.049337 1.129333,0 2.04799,0.918666 2.04799,2.046666 l 0.0035,1.641336 z"
       id="path2-3-6"
       style="color:#d6dbf1;fill:#d3dae3;fill-opacity:1;stroke-width:0.13333"
       class="ColorScheme-Text" />
  </g>
  <style
     id="current-color-scheme"
     type="text/css">.ColorScheme-Text { color:#d6dbf1; }
</style>
  <metadata
     id="metadata18">
    <rdf:RDF>
      <cc:Work
         rdf:about="">
        <dc:format>image/svg+xml</dc:format>
        <dc:type
           rdf:resource="http://purl.org/dc/dcmitype/StillImage" />
      </cc:Work>
    </rdf:RDF>
  </metadata>
  <defs
     id="defs16">
    <linearGradient
       inkscape:collect="always"
       id="linearGradient27099">
      <stop
         style="stop-color:#5581aa;stop-opacity:1;"
         offset="0"
         id="stop27095" />
      <stop
         style="stop-color:#6db2c5;stop-opacity:1;"
         offset="1"
         id="stop27097" />
    </linearGradient>
    <linearGradient
       inkscape:collect="always"
       xlink:href="#linearGradient27099"
       id="linearGradient24643"
       gradientUnits="userSpaceOnUse"
       gradientTransform="matrix(0.53047063,0,0,0.52750186,-61.869774,-309.28216)"
       x1="148.58699"
       y1="597.93524"
       x2="148.8334"
       y2="636.36206" />
    <linearGradient
       inkscape:collect="always"
       xlink:href="#linearGradient27099"
       id="linearGradient5562"
       gradientUnits="userSpaceOnUse"
       gradientTransform="matrix(0.44975237,0,0,0.41000145,-55.108554,-241.78737)"
       x1="148.58699"
       y1="597.93524"
       x2="148.65521"
       y2="636.06451" />
  </defs>
  <sodipodi:namedview
     pagecolor="#ffffff"
     bordercolor="#666666"
     borderopacity="1"
     objecttolerance="10"
     gridtolerance="10"
     guidetolerance="10"
     inkscape:pageopacity="0"
     inkscape:pageshadow="2"
     inkscape:window-width="1920"
     inkscape:window-height="1002"
     id="namedview14"
     showgrid="false"
     inkscape:zoom="11.313709"
     inkscape:cx="28.682018"
     inkscape:cy="18.694135"
     inkscape:window-x="0"
     inkscape:window-y="0"
     inkscape:window-maximized="1"
     inkscape:current-layer="svg12"
     inkscape:document-rotation="0"
     inkscape:pagecheckerboard="0"
     inkscape:lockguides="true"
     inkscape:showpageshadow="2"
     inkscape:deskcolor="#d1d1d1">
    <inkscape:grid
       type="xygrid"
       id="grid860"
       originx="0"
       originy="0" />
  </sodipodi:namedview>
</svg>
