<?xml version="1.0" encoding="UTF-8" standalone="no"?>
<svg
   width="32"
   height="32"
   version="1.1"
   id="svg12"
   sodipodi:docname="printer.svg"
   inkscape:version="1.2.2 (b0a8486541, 2022-12-01)"
   xmlns:inkscape="http://www.inkscape.org/namespaces/inkscape"
   xmlns:sodipodi="http://sodipodi.sourceforge.net/DTD/sodipodi-0.dtd"
   xmlns:xlink="http://www.w3.org/1999/xlink"
   xmlns="http://www.w3.org/2000/svg"
   xmlns:svg="http://www.w3.org/2000/svg"
   xmlns:rdf="http://www.w3.org/1999/02/22-rdf-syntax-ns#"
   xmlns:cc="http://creativecommons.org/ns#"
   xmlns:dc="http://purl.org/dc/elements/1.1/">
  <g
     id="printer">
    <rect
       style="opacity:0.00100002;fill:#d3dae3;fill-opacity:1"
       width="32"
       height="32"
       x="0"
       y="4.6325681e-08"
       id="rect7"
       ry="2.173614" />
    <path
       inkscape:connector-curvature="0"
       id="path9068-9-37-8-0-1-3"
       d="M 28,10 H 24 V 4 H 8 v 6 H 6 v 11 h 2 v 6 h 17 v -5 h 3 z"
       style="display:inline;overflow:visible;visibility:visible;opacity:0.6;fill:url(#linearGradient24643);fill-opacity:1;fill-rule:nonzero;stroke:none;stroke-width:0.785426;marker:none"
       sodipodi:nodetypes="ccccccccccccc" />
    <path
       sodipodi:nodetypes="cccccsccscccccscscccccccccccscccccccccccccccscccccscccccccsccscccccscccccccccc"
       inkscape:connector-curvature="0"
       style="color:#d6dbf1;fill:#d3dae3;fill-opacity:1;stroke-width:0.00298494"
       id="path4-6"
       d="m 7.9999998,4 v 0 c -0.682135,0 -1,0.336365 -1,1 V 9.234852 10 l -2.026656,0.01225 c -1.76556,0.01067 -1.824428,0.169888 -2.138742,0.2672 -0.428637,0.131335 -0.856976,0.44565 -1.085622,0.788619 -0.360283,0.542961 -0.34894,0.371327 -0.34894,5.640044 V 21.414 l 0.137009,0.425524 C 1.7713668,22.416513 2.4396168,23 3.1000008,23 h 1.899999 2 l 10e-7,4.002617 c 0,0.997461 0.999999,0.997383 0.999999,0.997383 0,0 2.0739772,-3.26e-4 8.0340072,-1.63e-4 C 22,28 24,28 24,28 c 0,0 1,0 0.982509,-1.008008 L 24.999999,23 h 2 2 l 0.462355,-0.111 c 0.451621,-0.222677 0.799964,-0.483239 1.011297,-0.934562 l 0.154322,-0.325657 0.01701,-4.908435 c 0.01701,-5.440054 0.03433,-5.165738 -0.359984,-5.702728 -0.24566,-0.337 -0.6343,-0.605645 -1.068608,-0.742952 C 28.913418,10.183326 28.719824,10 26.965575,10 H 25.982787 25 V 5 C 25,4.259547 24.667114,4 24,4 l -7.96062,3e-5 z M 24,9 24.02827,12.68531 H 16.028634 8.0286958 L 7.9999958,9 V 5 h 8.0000002 8 z M 6.9714308,15.456528 c 0.09134,0.08567 0.142978,0.205662 0.142978,0.314314 0,0.108652 -0.05134,0.228647 -0.142978,0.314314 -0.08567,0.09134 -0.205663,0.142979 -0.314315,0.142979 -0.108651,0 -0.228646,-0.05134 -0.314314,-0.142979 -0.285659,-0.279987 -0.08567,-0.771308 0.314314,-0.771308 0.108652,-2.99e-4 0.228647,0.05134 0.314315,0.14268 z m 19.7483632,-0.06865 c 0.251332,0.19432 0.268644,0.508634 0.04,0.725639 -0.268645,0.251332 -0.73131,0.03433 -0.73131,-0.342969 0,-0.342671 0.43401,-0.582661 0.691312,-0.38267 z m -1.919914,0.182977 c 0.09134,0.08567 0.142979,0.205663 0.142979,0.314314 0,0.108652 -0.05134,0.228647 -0.142979,0.314315 l -0.137008,0.142978 h -1.319941 -1.31994 L 21.885684,16.19948 c -0.09134,-0.08567 -0.142979,-0.205663 -0.142979,-0.314315 0,-0.108651 0.05134,-0.228646 0.142979,-0.314314 l 0.137008,-0.142978 h 1.319941 1.31994 z M 24,23 v 4 L 15.971726,26.91504 7.9999998,27 8.0286998,22.97082 7.9999998,19 H 16 24 Z"
       class="ColorScheme-Text" />
    <path
       inkscape:connector-curvature="0"
       style="color:#d6dbf1;fill:#d3dae3;fill-opacity:1;stroke-width:0.00298494"
       id="path6-3"
       d="m 10.165398,19.72055 v 0 0 1 h 2.364013 2.635987 v -1 0 0 0 l -2.635987,0.028 z"
       class="ColorScheme-Text"
       sodipodi:nodetypes="ccccccccccccc" />
    <path
       inkscape:connector-curvature="0"
       style="color:#d6dbf1;fill:#d3dae3;fill-opacity:1;stroke-width:0.00298494"
       id="path8-8"
       d="m 17.165398,19.72055 v 0 0 1 h 2 3 v -1 0 0 0 h -3 z"
       class="ColorScheme-Text"
       sodipodi:nodetypes="ccccccccccccc" />
    <path
       inkscape:connector-curvature="0"
       style="color:#d6dbf1;fill:#d3dae3;fill-opacity:1;stroke-width:0.00298494"
       id="path10-5"
       d="m 10.165398,21.72055 v 0 0 1 h 6 6 v -1 0 0 h -6 z"
       class="ColorScheme-Text"
       sodipodi:nodetypes="cccccccccccc" />
    <path
       inkscape:connector-curvature="0"
       style="color:#d6dbf1;fill:#d3dae3;fill-opacity:1;stroke-width:0.00298494"
       id="path12-6"
       d="m 10.165398,23.72055 v 0 0 2 h 4 5 v -2 0 0 h -5 z"
       class="ColorScheme-Text"
       sodipodi:nodetypes="cccccccccccc" />
    <path
       inkscape:connector-curvature="0"
       style="color:#d6dbf1;fill:#d3dae3;fill-opacity:1;stroke-width:0.00298494"
       id="path14-1"
       d="m 20.165398,24.72055 v 0 1 h 1.065226 0.934774 v -1 0 h -1 -0.999998 z"
       class="ColorScheme-Text"
       sodipodi:nodetypes="cccccccccc" />
  </g>
  <style
     id="current-color-scheme"
     type="text/css">.ColorScheme-Text { color:#d6dbf1; }
</style>
  <metadata
     id="metadata18">
    <rdf:RDF>
      <cc:Work
         rdf:about="">
        <dc:format>image/svg+xml</dc:format>
        <dc:type
           rdf:resource="http://purl.org/dc/dcmitype/StillImage" />
      </cc:Work>
    </rdf:RDF>
  </metadata>
  <defs
     id="defs16">
    <linearGradient
       inkscape:collect="always"
       id="linearGradient454">
      <stop
         style="stop-color:#2affd5;stop-opacity:1"
         offset="0"
         id="stop450" />
      <stop
         style="stop-color:#2a7fff;stop-opacity:1"
         offset="1"
         id="stop452" />
    </linearGradient>
    <linearGradient
       inkscape:collect="always"
       xlink:href="#linearGradient454"
       id="linearGradient24643"
       gradientUnits="userSpaceOnUse"
       gradientTransform="matrix(0.54264969,0,0,0.58000184,-62.72251,-341.89119)"
       x1="146.91339"
       y1="598.08636"
       x2="146.91339"
       y2="636.01727" />
    <linearGradient
       inkscape:collect="always"
       xlink:href="#linearGradient454"
       id="linearGradient3109"
       gradientUnits="userSpaceOnUse"
       gradientTransform="matrix(0.43895438,0,0,0.47661027,-53.051144,-283.01934)"
       x1="146.91339"
       y1="598.08636"
       x2="146.91339"
       y2="636.01727" />
  </defs>
  <sodipodi:namedview
     pagecolor="#ffffff"
     bordercolor="#000000"
     borderopacity="1"
     objecttolerance="10"
     gridtolerance="10"
     guidetolerance="10"
     inkscape:pageopacity="0"
     inkscape:pageshadow="2"
     inkscape:window-width="1920"
     inkscape:window-height="996"
     id="namedview14"
     showgrid="false"
     inkscape:zoom="11.313709"
     inkscape:cx="26.030367"
     inkscape:cy="20.373513"
     inkscape:window-x="0"
     inkscape:window-y="0"
     inkscape:window-maximized="1"
     inkscape:current-layer="svg12"
     inkscape:document-rotation="0"
     inkscape:lockguides="true"
     inkscape:pagecheckerboard="0"
     inkscape:showpageshadow="true"
     inkscape:deskcolor="#cccccc">
    <inkscape:grid
       type="xygrid"
       id="grid10216"
       originx="0"
       originy="-4.6325681e-08" />
  </sodipodi:namedview>
  <g
     id="22-22-printer"
     transform="translate(32,10.000001)">
    <rect
       style="opacity:0.00100002;fill:#d3dae3;fill-opacity:1"
       width="22"
       height="22"
       x="0"
       y="0"
       id="rect2" />
    <path
       inkscape:connector-curvature="0"
       id="path9068-9-37-8-0-1-3-9"
       d="M 20.335133,6.143435 H 17.099498 V 1.213 H 4.1569476 V 6.143435 H 2.539133 v 9.03913 H 4.1569476 V 20.113 H 17.908412 v -4.108695 h 2.426721 z"
       style="display:inline;overflow:visible;visibility:visible;opacity:0.6;fill:url(#linearGradient3109);fill-opacity:1.0;fill-rule:nonzero;stroke:none;stroke-width:0.640357;marker:none"
       sodipodi:nodetypes="ccccccccccccc" />
    <path
       sodipodi:nodetypes="cccccccscccccccccccccccccccccccccccccccccccccccccccccscccccscccccsccccccccc"
       inkscape:connector-curvature="0"
       style="color:#d6dbf1;fill:#d3dae3;fill-opacity:1;stroke-width:0.0023631"
       id="path4-9-2"
       d="m 5,0.999999 v 0 c -0.705658,0 -1,0.187409 -1,1 v 4 l -1.180553,2e-6 C 2,5.999999 1,5.999999 1,5.999999 c -1,0 -1,1 -1,1 0,0 3e-5,0.199499 3e-5,4.590101 L 0,14.999999 v 0 c 0,0 0,1 1,1 h 2 1 v 4 c 0,0.854959 0.215954,1 1,1 L 11.006064,20.999885 17,20.999999 c 0.795744,0 1,-0.115454 1,-1 v -4 h 1 2 v 0 0 c 1,0 1,-1 1,-1 l -0.0052,-3.39962 C 22,6.999999 22,6.999999 22,6.999999 c 0,0 0,-1 -1,-1 h -2 -1 v -4 c 0,-0.869499 -0.205541,-1 -1,-1 l -5.9899,2e-5 z m 11,4 v 4 H 11 6 v -4 -3 h 5 5 z m -12,5 v 1 0 H 3 v -1 z m 16,1 h -1 v -1 h 1 z m -2,0 v 0 0 0 h -2 -1 v 0 0 0 -1 h 2 1 z m -2,5 v 4 H 11 6 v -3 -3 h 5 5 z"
       class="ColorScheme-Text" />
    <path
       inkscape:connector-curvature="0"
       style="color:#d6dbf1;fill:#d3dae3;fill-opacity:1;stroke-width:0.00233344"
       id="path10-4-0"
       d="m 6.600008,16 v 0 L 7,15.999999 v 1 h 4 4 v -1 0 0 L 11.000008,16 Z"
       class="ColorScheme-Text"
       sodipodi:nodetypes="ccccccccccc" />
    <path
       inkscape:connector-curvature="0"
       style="color:#d6dbf1;fill:#d3dae3;fill-opacity:1;stroke-width:0.00233344"
       id="path12-8-2"
       d="m 7,17.999999 v 0 0 1 h 3 3 v -1 0 0 h -3 z"
       class="ColorScheme-Text"
       sodipodi:nodetypes="ccccccccccc" />
    <path
       inkscape:connector-curvature="0"
       style="color:#d6dbf1;fill:#d3dae3;fill-opacity:1;stroke-width:0.00233344"
       id="path14-7-3"
       d="m 14,17.999999 h -1 v 1 h 1 1 v -1 0 z"
       class="ColorScheme-Text"
       sodipodi:nodetypes="cccccccc" />
  </g>
</svg>
