<?xml version="1.0" encoding="UTF-8" standalone="no"?>
<svg
   style="enable-background:new"
   width="32"
   height="32"
   version="1.1"
   id="svg36"
   sodipodi:docname="qbittorrent.svg"
   inkscape:version="1.2.1 (9c6d41e410, 2022-07-14)"
   xmlns:inkscape="http://www.inkscape.org/namespaces/inkscape"
   xmlns:sodipodi="http://sodipodi.sourceforge.net/DTD/sodipodi-0.dtd"
   xmlns:xlink="http://www.w3.org/1999/xlink"
   xmlns="http://www.w3.org/2000/svg"
   xmlns:svg="http://www.w3.org/2000/svg"
   xmlns:rdf="http://www.w3.org/1999/02/22-rdf-syntax-ns#"
   xmlns:cc="http://creativecommons.org/ns#"
   xmlns:dc="http://purl.org/dc/elements/1.1/">
  <g
     id="22-22-qbittorrent"
     transform="translate(32,10)">
    <path
       style="opacity:0"
       d="M 0,0 H 22 V 22 H 0 Z"
       id="path6" />
    <path
       inkscape:connector-curvature="0"
       id="path9068-9-37-8-0-1-0-1-3-7-4-6-1-8"
       d="m 19.118512,2.604492 -17.118508,5e-6 v 14.790996 h 17.288 z"
       style="display:inline;overflow:visible;visibility:visible;opacity:0.6;fill:url(#linearGradient20653);fill-opacity:1;fill-rule:nonzero;stroke:none;stroke-width:0.55969;marker:none"
       sodipodi:nodetypes="cccccc" />
    <path
       d="M 16.803015,0.999994 H 5.196746 C 4.084095,1.001494 3.017285,1.443824 2.230626,2.230646 1.443773,3.017316 1.001266,4.08405 1.000004,5.196743 v 11.606702 -1.51e-4 c 8.62e-4,1.112617 0.443769,2.179389 1.230622,2.96606 0.786659,0.786822 1.853469,1.229367 2.96612,1.230652 h 11.606699 -1.9e-4 c 1.112651,-0.0012 2.179461,-0.44383 2.966111,-1.230652 0.78686,-0.786671 1.22937,-1.853443 1.23063,-2.96606 V 5.19697 C 20.997996,4.084315 20.556226,3.017543 19.769366,2.230872 18.982716,1.44405 17.915906,1.001506 16.803255,1.00022 Z M 5.617007,3.000044 h 10.765998 c 0.73924,0.0011 1.43628,-0.113764 1.959,0.408983 0.522691,0.522671 0.6571,1.018431 0.658,1.757669 v 11.833323 h -16 V 5.166696 C 3.000856,4.427458 3.135312,3.931735 3.658006,3.409027 4.180684,2.886356 4.877784,3.000951 5.617007,3.000044 Z"
       id="path1193-3-7-3-6"
       style="fill:#d3dae3;fill-opacity:1;stroke-width:0.0396828"
       sodipodi:nodetypes="ccccccccccccccccccccccccc" />
    <path
       style="fill:#3485fd;fill-opacity:1;stroke-width:0.75;enable-background:new"
       d="M 12.5,4 A 0.75,0.75 0 0 0 11.75,4.75 V 13 h 1.5 v -0.405766 c 0.455609,0.264912 0.972978,0.404386 1.5,0.405766 1.656859,0 3,-1.343141 3,-3 0,-1.656859 -1.343141,-3 -3,-3 -0.526889,0.0012 -1.044241,0.139915 -1.5,0.404301 V 4.75 A 0.75,0.75 0 0 0 12.5,4 Z m 2.25,4.5 c 0.82842,0 1.5,0.67158 1.5,1.5 0,0.82842 -0.67158,1.5 -1.5,1.5 -0.82842,0 -1.5,-0.67158 -1.5,-1.5 0,-0.82842 0.67158,-1.5 1.5,-1.5 z"
       id="path8-3" />
    <path
       style="fill:#d3dae3;fill-opacity:1;stroke-width:0.75;enable-background:new"
       d="m 7.25,7 c -1.656859,0 -3,1.343141 -3,3 0,1.656859 1.343141,3 3,3 0.526889,-0.0013 1.044245,-0.141375 1.5,-0.405766 V 15.25 A 0.75,0.75 0 0 0 9.5,16 0.75,0.75 0 0 0 10.25,15.25 V 7 H 8.75 V 7.405766 C 8.294391,7.140853 7.777022,7.001384 7.25,7 Z m 0,1.5 c 0.82842,0 1.5,0.67158 1.5,1.5 0,0.82842 -0.67158,1.5 -1.5,1.5 -0.82842,0 -1.5,-0.67158 -1.5,-1.5 0,-0.82842 0.67158,-1.5 1.5,-1.5 z"
       id="path10-56" />
  </g>
  <metadata
     id="metadata40">
    <rdf:RDF>
      <cc:Work
         rdf:about="">
        <dc:format>image/svg+xml</dc:format>
        <dc:type
           rdf:resource="http://purl.org/dc/dcmitype/StillImage" />
      </cc:Work>
    </rdf:RDF>
  </metadata>
  <sodipodi:namedview
     pagecolor="#ffffff"
     bordercolor="#000000"
     borderopacity="1"
     objecttolerance="10"
     gridtolerance="10"
     guidetolerance="10"
     inkscape:pageopacity="0"
     inkscape:pageshadow="2"
     inkscape:window-width="1920"
     inkscape:window-height="1004"
     id="namedview38"
     showgrid="false"
     inkscape:zoom="10.429825"
     inkscape:cx="19.079898"
     inkscape:cy="16.826744"
     inkscape:window-x="0"
     inkscape:window-y="0"
     inkscape:window-maximized="1"
     inkscape:current-layer="svg36"
     inkscape:lockguides="true"
     inkscape:document-rotation="0"
     inkscape:showpageshadow="2"
     inkscape:pagecheckerboard="0"
     inkscape:deskcolor="#808080">
    <inkscape:grid
       type="xygrid"
       id="grid923"
       originx="0"
       originy="0" />
  </sodipodi:namedview>
  <defs
     id="defs4">
    <linearGradient
       id="linearGradient5606"
       inkscape:swatch="solid">
      <stop
         id="stop5608"
         offset="0"
         style="stop-color:#000000" />
    </linearGradient>
    <linearGradient
       inkscape:collect="always"
       xlink:href="#linearGradient25264"
       id="linearGradient5058"
       x1="148.9608"
       y1="596.36218"
       x2="148.9608"
       y2="636.12817"
       gradientUnits="userSpaceOnUse"
       gradientTransform="matrix(0.50999969,0,0,0.42750131,-58.969959,-248.94561)" />
    <linearGradient
       inkscape:collect="always"
       id="linearGradient25264">
      <stop
         style="stop-color:#5581aa;stop-opacity:1;"
         offset="0"
         id="stop25260" />
      <stop
         style="stop-color:#6db2c5;stop-opacity:1;"
         offset="1"
         id="stop25262" />
    </linearGradient>
    <linearGradient
       inkscape:collect="always"
       xlink:href="#linearGradient25264"
       id="linearGradient20653"
       gradientUnits="userSpaceOnUse"
       gradientTransform="matrix(0.43219982,0,0,0.36977632,-52.88936,-217.91622)"
       x1="146.80391"
       y1="596.36243"
       x2="146.99998"
       y2="636.3623" />
  </defs>
  <g
     id="qbittorrent">
    <rect
       width="32"
       height="32"
       x="0"
       y="0"
       style="opacity:0.00100002"
       id="rect13" />
    <path
       inkscape:connector-curvature="0"
       id="path9068-9-37-8-0-1"
       d="m 26.2,6 -20.4,5e-6 v 17.099993 h 20.4 z"
       style="display:inline;overflow:visible;visibility:visible;opacity:0.6;fill:url(#linearGradient5058);fill-opacity:1;fill-rule:nonzero;stroke:none;stroke-width:0.653705;marker:none"
       sodipodi:nodetypes="ccccc" />
    <path
       d="M 22.963625,4 H 9.036071 C 7.700891,4.0015 6.420748,4.532573 5.476754,5.476775 4.532568,6.420788 4.001525,7.700876 4,9.036069 v 13.92805 -1.9e-4 c 0.0015,1.335156 0.532568,2.615282 1.476754,3.559294 0.943994,0.944203 2.224137,1.475226 3.559318,1.476775 h 13.928034 -1.94e-4 c 1.335183,-0.0015 2.615324,-0.532572 3.559318,-1.476775 0.944187,-0.944012 1.475232,-2.224138 1.476755,-3.559294 V 9.036334 C 27.998185,7.701178 27.467417,6.421052 26.52323,5.477039 25.579236,4.532837 24.299095,4.001814 22.963911,4.000264 Z M 9.200001,6.000013 h 13.599998 c 0.887095,0.0011 1.603761,0.04384 2.231,0.671244 C 25.658231,7.298469 25.9989,8.11292 26,9.000013 V 23.000024 H 6 V 9.000013 C 6.0011,8.11292 6.341775,7.298507 6.969001,6.671257 7.596202,6.044044 8.312917,6.001109 9.200001,6.000013 Z"
       id="path1193-5-3"
       style="fill:#d3dae3;fill-opacity:1;stroke-width:0.047619"
       sodipodi:nodetypes="ccccccccccccccccccccccccc" />
    <path
       style="fill:#3485fd;fill-opacity:1;enable-background:new"
       d="m 18,6.6 a 1,1 0 0 0 -1,1 v 11 h 2 v -0.541016 c 0.607485,0.353206 1.297298,0.539172 2,0.541016 2.209139,0 4,-1.790861 4,-4 0,-2.209139 -1.790861,-4 -4,-4 -0.70252,0.0012 -1.392321,0.186555 -2,0.539062 V 7.6 a 1,1 0 0 0 -1,-1 z m 3,6 c 1.104569,0 2,0.895431 2,2 0,1.104569 -0.895431,2 -2,2 -1.104569,0 -2,-0.895431 -2,-2 0,-1.104569 0.895431,-2 2,-2 z"
       id="path8-7" />
    <path
       style="fill:#d3dae3;fill-opacity:1;enable-background:new"
       d="m 11,10.6 c -2.209139,0 -4,1.790861 -4,4 0,2.209139 1.790861,4 4,4 0.702523,-0.0013 1.392325,-0.188495 2,-0.541016 V 21.6 a 1,1 0 0 0 1,1 1,1 0 0 0 1,-1 v -11 h -2 v 0.541016 C 12.392515,10.787809 11.702702,10.601854 11,10.6 Z m 0,2 c 1.10457,0 2,0.895431 2,2 0,1.104569 -0.89543,2 -2,2 -1.1045688,0 -2,-0.895431 -2,-2 0,-1.104569 0.8954312,-2 2,-2 z"
       id="path10-5" />
  </g>
</svg>
