<?xml version="1.0" encoding="UTF-8" standalone="no"?>
<svg
   width="32"
   height="32"
   viewBox="0 0 32 32"
   version="1.1"
   id="svg867"
   inkscape:version="1.2.2 (b0a8486541, 2022-12-01)"
   sodipodi:docname="redshift.svg"
   xmlns:inkscape="http://www.inkscape.org/namespaces/inkscape"
   xmlns:sodipodi="http://sodipodi.sourceforge.net/DTD/sodipodi-0.dtd"
   xmlns:xlink="http://www.w3.org/1999/xlink"
   xmlns="http://www.w3.org/2000/svg"
   xmlns:svg="http://www.w3.org/2000/svg"
   xmlns:rdf="http://www.w3.org/1999/02/22-rdf-syntax-ns#"
   xmlns:cc="http://creativecommons.org/ns#"
   xmlns:dc="http://purl.org/dc/elements/1.1/">
  <defs
     id="defs3871">
    <linearGradient
       inkscape:collect="always"
       id="linearGradient1022">
      <stop
         style="stop-color:#b79be3;stop-opacity:1;"
         offset="0"
         id="stop1018" />
      <stop
         style="stop-color:#33d6ff;stop-opacity:1;"
         offset="1"
         id="stop1020" />
    </linearGradient>
    <linearGradient
       inkscape:collect="always"
       id="linearGradient511">
      <stop
         style="stop-color:#aa87de;stop-opacity:1"
         offset="0"
         id="stop507" />
      <stop
         style="stop-color:#008080;stop-opacity:1"
         offset="1"
         id="stop509" />
    </linearGradient>
    <style
       type="text/css"
       id="current-color-scheme">
      .ColorScheme-Text {
        color:#31363b;
      }
      </style>
    <linearGradient
       inkscape:collect="always"
       xlink:href="#linearGradient1022"
       id="linearGradient5058"
       x1="147.00002"
       y1="596.80664"
       x2="147.00002"
       y2="634.58429"
       gradientUnits="userSpaceOnUse"
       gradientTransform="matrix(0.51499973,0,0,0.45000137,-59.704969,-262.5638)" />
    <linearGradient
       inkscape:collect="always"
       xlink:href="#linearGradient511"
       id="linearGradient4663"
       gradientUnits="userSpaceOnUse"
       gradientTransform="matrix(0.51499973,0,0,0.45000137,-27.704968,-262.56381)"
       x1="147.00002"
       y1="596.80664"
       x2="147.00002"
       y2="634.58429" />
    <linearGradient
       inkscape:collect="always"
       xlink:href="#linearGradient1022"
       id="linearGradient6958"
       gradientUnits="userSpaceOnUse"
       gradientTransform="matrix(0.43219982,0,0,0.36977632,-96.44862,-207.82067)"
       x1="146.80391"
       y1="596.36243"
       x2="146.99998"
       y2="636.3623" />
    <linearGradient
       inkscape:collect="always"
       xlink:href="#linearGradient511"
       id="linearGradient3594"
       gradientUnits="userSpaceOnUse"
       gradientTransform="matrix(0.43219982,0,0,0.36977632,-74.44862,-207.82067)"
       x1="146.80391"
       y1="596.36243"
       x2="146.99998"
       y2="636.3623" />
  </defs>
  <sodipodi:namedview
     inkscape:object-paths="true"
     guideopacity="0.62745098"
     guidecolor="#0000ff"
     inkscape:bbox-nodes="true"
     inkscape:snap-intersection-paths="true"
     inkscape:snap-bbox="true"
     id="base"
     pagecolor="#ffffff"
     bordercolor="#666666"
     borderopacity="1.0"
     inkscape:pageopacity="0.0"
     inkscape:pageshadow="2"
     inkscape:zoom="5.656854"
     inkscape:cx="26.958447"
     inkscape:cy="8.6620585"
     inkscape:document-units="px"
     inkscape:current-layer="layer1"
     inkscape:document-rotation="0"
     showgrid="false"
     inkscape:window-width="1920"
     inkscape:window-height="994"
     inkscape:window-x="0"
     inkscape:window-y="0"
     inkscape:window-maximized="1"
     units="px"
     inkscape:snap-bbox-edge-midpoints="false"
     inkscape:lockguides="false"
     inkscape:pagecheckerboard="0"
     inkscape:showpageshadow="2"
     inkscape:deskcolor="#d1d1d1">
    <inkscape:grid
       type="xygrid"
       id="grid9564"
       originx="-22"
       originy="10" />
  </sodipodi:namedview>
  <metadata
     id="metadata864">
    <rdf:RDF>
      <cc:Work
         rdf:about="">
        <dc:format>image/svg+xml</dc:format>
        <dc:type
           rdf:resource="http://purl.org/dc/dcmitype/StillImage" />
      </cc:Work>
    </rdf:RDF>
  </metadata>
  <g
     inkscape:label="Layer 1"
     inkscape:groupmode="layer"
     id="layer1">
    <g
       id="redshift-status-off">
      <rect
         style="opacity:0.003;fill:#eff0f1;fill-opacity:1;stroke-width:1"
         id="rect1033"
         width="32"
         height="32"
         x="32"
         y="0" />
      <path
         inkscape:connector-curvature="0"
         id="path9068-9-37-8-0-1-3"
         d="m 58.098041,5.799988 -20.39804,5e-6 v 17.999995 h 20.6 z"
         style="display:inline;overflow:visible;visibility:visible;opacity:0.6;fill:url(#linearGradient4663);fill-opacity:1.0;fill-rule:nonzero;stroke:none;stroke-width:0.673967;marker:none"
         sodipodi:nodetypes="cccccc" />
      <path
         d="m 48.06749,6.999988 c -3.296874,0 -6.26749,2.8477643 -6.26749,6.398013 0,2.14502 1.287186,4.105128 2.935667,5.288445 C 44.875859,18.797403 45,18.94548 45,19.130185 v 1.257354 c 0,0.591795 0.402094,1.612449 0.928107,1.612449 H 50.06654 C 50.627745,21.999988 51,20.74087 51,20.186205 v -1.0927 c 0,-0.184933 0.118998,-0.33277 0.259217,-0.443683 C 52.872692,17.503409 54.2,15.580222 54.2,13.361346 54.34044,9.7737261 51.364434,6.999988 48.067557,6.999988 Z m 5.5e-5,0 v 0 0 h -5.5e-5 v 0 z m 0,0 v 0 0 h -5.5e-5 v 0 0 z"
         id="path2971-4-3-5"
         sodipodi:nodetypes="sscssssccccssccccccccccccc"
         style="fill:#d3dae3;fill-opacity:0.5;stroke-width:0.064313" />
      <path
         d="M 54.963626,3.999988 H 41.036072 c -1.335181,0.0015 -2.615324,0.532573 -3.559318,1.476774 -0.944186,0.944013 -1.475229,2.224101 -1.476753,3.559294 v 13.928051 -1.9e-4 c 0.0015,1.335156 0.532567,2.615282 1.476753,3.559294 0.943994,0.944202 2.224137,1.475226 3.559318,1.476775 h 13.928035 -1.94e-4 c 1.335183,-0.0015 2.615324,-0.532573 3.559317,-1.476775 0.944189,-0.944012 1.475234,-2.224138 1.476756,-3.559294 V 9.036321 C 59.998186,7.701165 59.467418,6.421039 58.52323,5.477026 57.579237,4.532825 56.299096,4.001802 54.963913,4.000252 Z M 41.200001,6 H 54.799999 C 55.687094,6.0011 56.40376,6.04384 57.031,6.671244 57.658232,7.298456 57.998901,8.112907 58.000001,9 v 14.000012 h -20 V 9 c 0.0011,-0.887093 0.341774,-1.701506 0.969,-2.328756 C 39.596202,6.044031 40.312917,6.001096 41.200001,6 Z"
         id="path1193-367-6-6"
         style="fill:#d3dae3;fill-opacity:1;stroke-width:0.047619"
         sodipodi:nodetypes="ccccccccccccccccccccccccc" />
    </g>
    <g
       id="redshift-status-on">
      <rect
         y="0"
         x="3.5527137e-15"
         height="32"
         width="32"
         id="rect910"
         style="opacity:0.003;fill:#eff0f1;fill-opacity:1;stroke-width:1" />
      <path
         inkscape:connector-curvature="0"
         id="path9068-9-37-8-0-1"
         d="m 26.09804,5.8 -20.3980398,5.3e-6 V 23.8 H 26.3 Z"
         style="display:inline;overflow:visible;visibility:visible;opacity:1;fill:url(#linearGradient5058);fill-opacity:1.0;fill-rule:nonzero;stroke:none;stroke-width:0.673967;marker:none"
         sodipodi:nodetypes="cccccc" />
      <path
         d="M 16.074568,7 C 12.773847,7 9.8,9.828715 9.8,13.355215 c 0,2.130672 1.288453,4.077668 2.938858,5.25307 C 12.879213,18.7185 13,18.865586 13,19.049056 v 1.248943 C 13,20.885835 13.401742,22 13.928369,22 H 18.07163 C 18.63349,22 19,20.848953 19,20.297999 v -1.285378 c 0,-0.183696 0.129636,-0.330544 0.270018,-0.440715 C 20.885376,17.433162 22.2,15.522839 22.2,13.318806 22.340604,9.755184 19.375358,7 16.074635,7 Z m 5.5e-5,0 v 0 0 h -5.5e-5 v 0 z m 0,0 v 0 0 h -5.5e-5 v 0 0 z"
         id="path2971-4-3"
         sodipodi:nodetypes="sscssssccccssccccccccccccc"
         style="fill:#d3dae3;fill-opacity:1;stroke-width:0.0641349" />
      <path
         d="M 22.963625,4 H 9.036071 C 7.70089,4.0015 6.420747,4.532573 5.476753,5.476774 4.532567,6.420787 4.001524,7.700875 4,9.036068 v 13.928051 -1.9e-4 c 0.0015,1.335156 0.532567,2.615282 1.476753,3.559294 0.943994,0.944202 2.224137,1.475226 3.559318,1.476775 h 13.928035 -1.94e-4 c 1.335183,-0.0015 2.615324,-0.532573 3.559317,-1.476775 0.944189,-0.944012 1.475234,-2.224138 1.476756,-3.559294 V 9.036333 C 27.998185,7.701177 27.467417,6.421051 26.523229,5.477038 25.579236,4.532837 24.299095,4.001814 22.963912,4.000264 Z M 9.2,6.000012 h 13.599998 c 0.887095,0.0011 1.603761,0.04384 2.231001,0.671244 C 25.658231,7.298468 25.9989,8.112919 26,9.000012 V 23.000024 H 6 V 9.000012 C 6.0011,8.112919 6.341774,7.298506 6.969,6.671256 7.596201,6.044043 8.312916,6.001108 9.2,6.000012 Z"
         id="path1193-367-6"
         style="fill:#d3dae3;fill-opacity:1;stroke-width:0.047619"
         sodipodi:nodetypes="ccccccccccccccccccccccccc" />
      <circle
         cx="15.999993"
         cy="13.099991"
         r="1.8778623"
         id="circle2-3-2-0-2"
         style="fill:#088699;fill-opacity:1;stroke-width:0.152666" />
      <path
         d="m 15.251909,11.054192 0.24427,-0.09162 -0.305346,-0.854962 c -0.03051,-0.07628 -0.106897,-0.106841 -0.167936,-0.07628 -0.06103,0.03051 -0.106897,0.106897 -0.07628,0.167942 z"
         id="path4-5-0-3-9"
         style="fill:#088699;fill-opacity:1;stroke-width:0.152666" />
      <path
         d="M 16.061063,9.23741 C 16.061063,9.1611 16.000033,9.1 15.923666,9.1 c -0.07628,0 -0.122141,0.06103 -0.122141,0.13741 v 1.694654 h 0.274809 V 9.23741 Z"
         id="path6-6-2-6-1"
         style="fill:#088699;fill-opacity:1;stroke-width:0.152666" />
      <path
         d="m 15.923666,16.96259 c 0,0.07628 0.06103,0.13741 0.137397,0.13741 0.07628,0 0.137412,-0.06103 0.137412,-0.13741 v -1.694654 h -0.274809 z"
         id="path8-2-3-1-2"
         style="fill:#088699;fill-opacity:1;stroke-width:0.152666" />
      <path
         d="m 16.74809,15.115269 -0.244269,0.09159 0.320602,0.854961 c 0.03051,0.07628 0.106902,0.106897 0.167948,0.07628 0.07628,-0.03051 0.106852,-0.106897 0.07628,-0.16794 z"
         id="path10-9-7-0-7"
         style="fill:#088699;fill-opacity:1;stroke-width:0.152666" />
      <path
         d="m 14.320615,11.710692 0.167936,-0.198474 -0.687026,-0.595423 c -0.06103,-0.04577 -0.137396,-0.04577 -0.183204,0.01525 -0.04576,0.06103 -0.04576,0.137398 0.01525,0.183206 z"
         id="path12-1-5-6-0"
         style="fill:#088699;fill-opacity:1;stroke-width:0.152666" />
      <path
         d="m 14.748089,11.329013 0.229014,-0.13741 -0.854962,-1.480911 C 14.091631,9.649662 14,9.619022 13.938936,9.664932 c -0.06103,0.03051 -0.09167,0.12214 -0.04577,0.183209 z"
         id="path14-3-2-9-3-9"
         style="fill:#088699;fill-opacity:1;stroke-width:0.152666" />
      <path
         d="m 17.25191,14.870987 -0.229013,0.137409 0.854962,1.465655 c 0.03051,0.06103 0.122141,0.09156 0.183205,0.04576 0.06103,-0.03051 0.09161,-0.122141 0.04577,-0.183205 z"
         id="path16-7-2-2-3"
         style="fill:#088699;fill-opacity:1;stroke-width:0.152666" />
      <path
         d="m 17.648859,14.474051 -0.167949,0.198462 0.702295,0.595423 c 0.06103,0.04576 0.137411,0.04576 0.183205,-0.01525 0.04577,-0.06103 0.04577,-0.137405 -0.01525,-0.183212 z"
         id="path18-0-2-0-6"
         style="fill:#088699;fill-opacity:1;stroke-width:0.152666" />
      <path
         d="m 12.992372,12.306103 c -0.07628,-0.01525 -0.13741,0.03051 -0.15268,0.106903 -0.01525,0.07628 0.03051,0.137404 0.106897,0.152674 l 0.90077,0.152666 0.04576,-0.259539 z"
         id="path20-9-8-6-0"
         style="fill:#088699;fill-opacity:1;stroke-width:0.152666" />
      <path
         d="m 12.549616,11.344269 1.465653,0.854961 0.137398,-0.229 -1.465641,-0.854961 c -0.06103,-0.03051 -0.15268,-0.01525 -0.183206,0.04576 -0.04577,0.06103 -0.01525,0.13741 0.04576,0.183205 z"
         id="path22-3-9-1-6"
         style="fill:#088699;fill-opacity:1;stroke-width:0.152666" />
      <path
         d="m 19.450384,14.855731 -1.465653,-0.854962 -0.137398,0.229001 1.465641,0.854961 c 0.06103,0.03051 0.152679,0.01525 0.183205,-0.04577 0.03051,-0.06103 0.01525,-0.152678 -0.04577,-0.183205 z"
         id="path24-6-7-5-2"
         style="fill:#088699;fill-opacity:1;stroke-width:0.152666" />
      <path
         d="m 18.977102,13.878628 c 0.07628,0.01525 0.137398,-0.03051 0.152668,-0.106897 0.01525,-0.07628 -0.03051,-0.137411 -0.106897,-0.152678 l -0.900763,-0.152669 -0.04576,0.259539 z"
         id="path26-0-3-5-6"
         style="fill:#088699;fill-opacity:1;stroke-width:0.152666" />
      <path
         d="m 12.916025,14.077103 c 0.03051,0.07628 0.106903,0.106897 0.167949,0.07628 l 0.854962,-0.32061 -0.09167,-0.244276 -0.854962,0.32061 c -0.06103,0.03051 -0.09158,0.106896 -0.07628,0.167939 z"
         id="path28-6-6-4-1"
         style="fill:#088699;fill-opacity:1;stroke-width:0.152666" />
      <path
         d="M 13.832064,13.023666 H 12.13741 c -0.07636,0 -0.13741,0.06103 -0.13741,0.137397 0,0.07628 0.06103,0.137412 0.13741,0.137412 h 1.694654 z"
         id="path30-2-1-7-8"
         style="fill:#088699;fill-opacity:1;stroke-width:0.152666" />
      <path
         d="m 19.86259,12.901525 h -1.694654 v 0.274808 h 1.694654 c 0.07637,0 0.13741,-0.06103 0.13741,-0.137396 0,-0.07628 -0.06103,-0.137412 -0.13741,-0.137412 z"
         id="path32-6-2-6-7"
         style="fill:#088699;fill-opacity:1;stroke-width:0.152666" />
      <path
         d="M 19.053436,12.122897 C 19.022926,12.046617 18.946539,12.016 18.8855,12.046617 l -0.854962,0.32061 0.0916,0.244275 0.854961,-0.320609 c 0.06103,-0.03051 0.0916,-0.106896 0.07628,-0.167939 z"
         id="path34-1-9-5-9"
         style="fill:#088699;fill-opacity:1;stroke-width:0.152666" />
      <path
         d="m 14.595423,14.764128 -0.198474,-0.167949 -0.595424,0.702296 c -0.04577,0.06103 -0.04577,0.137396 0.01525,0.183204 0.06103,0.04576 0.137397,0.04576 0.183205,-0.01525 z"
         id="path36-8-3-6-2"
         style="fill:#088699;fill-opacity:1;stroke-width:0.152666" />
      <path
         d="m 14.091603,14.122897 -1.465654,0.854962 c -0.06103,0.03051 -0.09154,0.122141 -0.04577,0.183205 0.04577,0.06103 0.12214,0.09164 0.183204,0.04577 l 1.465654,-0.85496 z"
         id="path38-7-1-9-0"
         style="fill:#088699;fill-opacity:1;stroke-width:0.152666" />
      <path
         d="m 17.908397,12.077103 1.465654,-0.854962 c 0.06103,-0.03051 0.09156,-0.122141 0.04576,-0.183205 -0.04576,-0.06103 -0.122141,-0.09159 -0.183205,-0.04577 l -1.465655,0.854961 z"
         id="path40-9-9-3-2"
         style="fill:#088699;fill-opacity:1;stroke-width:0.152666" />
      <path
         d="m 17.374051,11.435871 0.198462,0.167949 0.595423,-0.702294 c 0.04576,-0.06103 0.04576,-0.137397 -0.01525,-0.183206 -0.06103,-0.04577 -0.137405,-0.04577 -0.183212,0.01525 z"
         id="path42-2-4-7-3"
         style="fill:#088699;fill-opacity:1;stroke-width:0.152666" />
      <path
         d="m 15.206103,16.092372 c -0.01525,0.07628 0.03051,0.137398 0.106903,0.152666 0.07628,0.01525 0.137405,-0.03051 0.152674,-0.106897 l 0.152666,-0.900767 -0.259539,-0.04576 z"
         id="path44-0-7-4-7"
         style="fill:#088699;fill-opacity:1;stroke-width:0.152666" />
      <path
         d="m 14,16.412974 c -0.03051,0.06103 -0.01525,0.152679 0.04576,0.183205 0.06103,0.03051 0.152679,0.01525 0.183207,-0.04576 l 0.854963,-1.465653 -0.229004,-0.137398 z"
         id="path46-2-8-5-5"
         style="fill:#088699;fill-opacity:1;stroke-width:0.152666" />
      <path
         d="m 17.984731,9.787026 c 0.03051,-0.06103 0.01525,-0.15268 -0.04576,-0.183206 -0.06103,-0.03051 -0.152678,-0.01525 -0.183205,0.04577 l -0.854962,1.465654 0.229,0.137398 z"
         id="path48-3-4-2-9"
         style="fill:#088699;fill-opacity:1;stroke-width:0.152666" />
      <path
         d="m 16.778628,10.122896 c 0.01525,-0.07628 -0.03051,-0.137397 -0.106897,-0.152666 -0.07628,-0.01525 -0.137411,0.03051 -0.152678,0.106897 l -0.152669,0.900763 0.259539,0.04576 z"
         id="path50-7-5-5-2"
         style="fill:#088699;fill-opacity:1;stroke-width:0.152666" />
    </g>
    <g
       id="22-22-redshift-status-on">
      <rect
         y="10"
         x="-44"
         height="22"
         width="22"
         id="rect1467-9-7-9-9-4"
         style="opacity:0.003;fill:#eff0f1;fill-opacity:1" />
      <path
         inkscape:connector-curvature="0"
         id="path9068-9-37-8-0-1-0-1-3-7-4-6-1"
         d="m -24.44075,12.700026 -17.1185,5e-6 v 14.790995 h 17.288 z"
         style="display:inline;overflow:visible;visibility:visible;opacity:1;fill:url(#linearGradient6958);fill-opacity:1;fill-rule:nonzero;stroke:none;stroke-width:0.55969;marker:none"
         sodipodi:nodetypes="cccccc" />
      <path
         d="m -27.19699,11 h -11.60627 c -1.11265,0.0015 -2.17946,0.443814 -2.96612,1.230648 -0.78685,0.786674 -1.22936,1.853414 -1.23062,2.966076 v 11.606709 -1.58e-4 c 8.6e-4,1.11263 0.44377,2.179402 1.23062,2.96608 0.78666,0.786835 1.85347,1.229354 2.96612,1.230646 h 11.6067 -1.9e-4 c 1.11265,-0.0012 2.17946,-0.443811 2.96611,-1.230645 0.78686,-0.786679 1.22937,-1.853451 1.23063,-2.966081 V 15.196947 c -0.002,-1.112635 -0.44377,-2.179402 -1.23063,-2.96608 -0.78665,-0.786833 -1.85346,-1.229358 -2.96611,-1.230642 z M -38.383,13.000026 h 10.766 c 0.73924,0.0011 1.43628,-0.113833 1.959,0.409 0.52269,0.52268 0.6571,1.018408 0.658,1.757653 V 27.000026 H -41 V 15.166679 c 8.5e-4,-0.739245 0.13532,-1.234937 0.658,-1.757653 0.52268,-0.522679 1.21978,-0.40809 1.959,-0.409 z"
         id="path1193-3-8"
         style="fill:#d3dae3;fill-opacity:1;stroke-width:0.0396829"
         sodipodi:nodetypes="ccccccccccccccccccccccccc" />
      <path
         d="M -32.980341,14 C -35.620924,14 -38,16.262975 -38,19.084175 c 0,1.704531 1.030762,3.262127 2.351089,4.202449 0.112284,0.08819 0.208912,0.205842 0.208912,0.352622 V 24.6384 c 0,0.47027 0.32139,1.3616 0.742699,1.3616 h 3.314607 c 0.449483,0 0.742694,-0.920836 0.742694,-1.3616 v -1.0283 c 0,-0.14696 0.103704,-0.26444 0.216018,-0.352574 1.292281,-0.910993 2.34398,-2.439257 2.34398,-4.202479 C -27.967516,16.204144 -30.339713,14 -32.980295,14 Z m 3.7e-5,0 v 0 0 h -3.7e-5 v 0 z m 0,0 v 0 0 h -3.7e-5 v 0 0 z"
         id="path2971-4-3-2-1"
         sodipodi:nodetypes="sscssssccccssccccccccccccc"
         style="fill:#d3dae3;fill-opacity:1;stroke-width:0.0513078" />
      <circle
         cx="-33.040024"
         cy="18.879999"
         r="1.5022898"
         id="circle2-3-2-0-2-3-0"
         style="fill:#088699;fill-opacity:1;stroke-width:0.12213" />
      <path
         d="m -33.638471,17.243352 0.195411,-0.07332 -0.244277,-0.683971 c -0.02442,-0.061 -0.08551,-0.08547 -0.134345,-0.061 -0.04882,0.02442 -0.0855,0.08552 -0.06099,0.134354 z"
         id="path4-5-0-3-9-7-6"
         style="fill:#088699;fill-opacity:1;stroke-width:0.12213" />
      <path
         d="m -32.991146,15.78993 c 0,-0.06103 -0.04882,-0.10993 -0.109917,-0.10993 -0.06099,0 -0.09772,0.04882 -0.09772,0.10993 v 1.355721 h 0.219848 V 15.78993 Z"
         id="path6-6-2-6-1-5-3"
         style="fill:#088699;fill-opacity:1;stroke-width:0.12213" />
      <path
         d="m -33.101063,21.970071 c 0,0.06099 0.04882,0.10993 0.109917,0.10993 0.06099,0 0.109926,-0.04882 0.109926,-0.10993 v -1.355726 h -0.219843 z"
         id="path8-2-3-1-2-9-2"
         style="fill:#088699;fill-opacity:1;stroke-width:0.12213" />
      <path
         d="m -32.441531,20.492212 -0.195409,0.07329 0.25648,0.683968 c 0.02442,0.06099 0.08553,0.0855 0.13436,0.06099 0.061,-0.02442 0.08547,-0.08552 0.061,-0.13435 z"
         id="path10-9-7-0-7-2-0"
         style="fill:#088699;fill-opacity:1;stroke-width:0.12213" />
      <path
         d="m -34.383504,17.768551 0.134345,-0.158772 -0.549623,-0.476344 c -0.04882,-0.03661 -0.109918,-0.03661 -0.146558,0.01222 -0.03659,0.04882 -0.03659,0.109918 0.01223,0.146569 z"
         id="path12-1-5-6-0-2-6"
         style="fill:#088699;fill-opacity:1;stroke-width:0.12213" />
      <path
         d="m -34.04153,17.463213 0.183213,-0.10993 -0.683971,-1.18473 c -0.02442,-0.04882 -0.09772,-0.07337 -0.146566,-0.0366 -0.04882,0.02442 -0.07337,0.09771 -0.0366,0.146561 z"
         id="path14-3-2-9-3-9-8-1"
         style="fill:#088699;fill-opacity:1;stroke-width:0.12213" />
      <path
         d="m -32.038469,20.29679 -0.183215,0.109927 0.683974,1.172525 c 0.02442,0.04882 0.0977,0.07326 0.146561,0.03662 0.04882,-0.02442 0.07331,-0.09771 0.03663,-0.146562 z"
         id="path16-7-2-2-3-9-5"
         style="fill:#088699;fill-opacity:1;stroke-width:0.12213" />
      <path
         d="m -31.720912,19.979241 -0.134358,0.158772 0.561835,0.476332 c 0.04882,0.03664 0.109931,0.03664 0.146566,-0.01222 0.03658,-0.04882 0.03658,-0.109924 -0.01223,-0.146568 z"
         id="path18-0-2-0-6-7-5"
         style="fill:#088699;fill-opacity:1;stroke-width:0.12213" />
      <path
         d="m -35.4461,18.244883 c -0.061,-0.01223 -0.109927,0.02442 -0.122149,0.08552 -0.01222,0.06099 0.02442,0.109924 0.08551,0.122137 l 0.720617,0.122136 0.03659,-0.207631 z"
         id="path20-9-8-6-0-3-4"
         style="fill:#088699;fill-opacity:1;stroke-width:0.12213" />
      <path
         d="m -35.80031,17.475412 1.172522,0.683968 0.109919,-0.1832 -1.172512,-0.683961 c -0.04882,-0.02442 -0.122143,-0.01224 -0.146559,0.03661 -0.03661,0.04882 -0.01223,0.10993 0.03659,0.146563 z"
         id="path22-3-9-1-6-6-7"
         style="fill:#088699;fill-opacity:1;stroke-width:0.12213" />
      <path
         d="m -30.279696,20.28458 -1.172523,-0.683968 -0.109918,0.183208 1.172514,0.683968 c 0.04882,0.02442 0.122145,0.01222 0.146569,-0.03661 0.02442,-0.04882 0.01224,-0.122141 -0.0366,-0.146566 z"
         id="path24-6-7-5-2-1-6"
         style="fill:#088699;fill-opacity:1;stroke-width:0.12213" />
      <path
         d="m -30.658319,19.5029 c 0.06099,0.01222 0.109918,-0.02442 0.122139,-0.08552 0.01222,-0.061 -0.02442,-0.10993 -0.08553,-0.12214 l -0.720607,-0.122134 -0.03662,0.207632 z"
         id="path26-0-3-5-6-2-5"
         style="fill:#088699;fill-opacity:1;stroke-width:0.12213" />
      <path
         d="m -35.50718,19.661682 c 0.02442,0.061 0.08552,0.0855 0.134361,0.061 l 0.683965,-0.256491 -0.07337,-0.195415 -0.683969,0.256482 c -0.04882,0.02442 -0.07328,0.08552 -0.061,0.134357 z"
         id="path28-6-6-4-1-9-6"
         style="fill:#088699;fill-opacity:1;stroke-width:0.12213" />
      <path
         d="m -34.774345,18.818931 h -1.355726 c -0.06106,0 -0.10993,0.04882 -0.10993,0.10992 0,0.06099 0.04882,0.109927 0.10993,0.109927 h 1.355726 z"
         id="path30-2-1-7-8-3-9"
         style="fill:#088699;fill-opacity:1;stroke-width:0.12213" />
      <path
         d="m -29.94993,18.72122 h -1.35572 v 0.219842 h 1.35572 c 0.06107,0 0.10993,-0.04882 0.10993,-0.109916 0,-0.061 -0.04882,-0.109926 -0.10993,-0.109926 z"
         id="path32-6-2-6-7-1-3"
         style="fill:#088699;fill-opacity:1;stroke-width:0.12213" />
      <path
         d="m -30.597255,18.098316 c -0.02442,-0.061 -0.08552,-0.08551 -0.134345,-0.061 l -0.68397,0.256484 0.0733,0.195423 0.68397,-0.25649 c 0.04882,-0.02442 0.0733,-0.08552 0.061,-0.134348 z"
         id="path34-1-9-5-9-9-7"
         style="fill:#088699;fill-opacity:1;stroke-width:0.12213" />
      <path
         d="m -34.16366,20.2113 -0.15878,-0.134354 -0.476342,0.561836 c -0.03659,0.04882 -0.03659,0.109918 0.01222,0.146558 0.04882,0.03661 0.109918,0.03661 0.146565,-0.01223 z"
         id="path36-8-3-6-2-4-4"
         style="fill:#088699;fill-opacity:1;stroke-width:0.12213" />
      <path
         d="m -34.566718,19.698317 -1.172524,0.683971 c -0.04882,0.02442 -0.07324,0.09772 -0.03659,0.146566 0.03659,0.04882 0.09771,0.07334 0.146564,0.03661 l 1.172524,-0.683971 z"
         id="path38-7-1-9-0-7-5"
         style="fill:#088699;fill-opacity:1;stroke-width:0.12213" />
      <path
         d="m -31.513283,18.061684 1.172524,-0.683974 c 0.04882,-0.02442 0.07326,-0.0977 0.03658,-0.14656 -0.03658,-0.04882 -0.09772,-0.07329 -0.146566,-0.03662 l -1.172524,0.683967 z"
         id="path40-9-9-3-2-8-2"
         style="fill:#088699;fill-opacity:1;stroke-width:0.12213" />
      <path
         d="m -31.94076,17.5487 0.158771,0.13436 0.476339,-0.561837 c 0.03662,-0.04882 0.03662,-0.109917 -0.01222,-0.14657 -0.04882,-0.03662 -0.109922,-0.03662 -0.146565,0.01222 z"
         id="path42-2-4-7-3-4-5"
         style="fill:#088699;fill-opacity:1;stroke-width:0.12213" />
      <path
         d="m -33.675118,21.273895 c -0.01222,0.06099 0.02442,0.109918 0.0855,0.122132 0.061,0.01223 0.109925,-0.02442 0.122143,-0.08552 l 0.122129,-0.720614 -0.207632,-0.03659 z"
         id="path44-0-7-4-7-5-4"
         style="fill:#088699;fill-opacity:1;stroke-width:0.12213" />
      <path
         d="m -34.64,21.530381 c -0.02442,0.04882 -0.01222,0.122142 0.03661,0.146559 0.04882,0.02442 0.122139,0.01222 0.146567,-0.0366 l 0.683971,-1.172521 -0.183205,-0.10992 z"
         id="path46-2-8-5-5-0-7"
         style="fill:#088699;fill-opacity:1;stroke-width:0.12213" />
      <path
         d="m -31.452219,16.229623 c 0.02442,-0.04882 0.01224,-0.122146 -0.03659,-0.14657 -0.04882,-0.02442 -0.12214,-0.01224 -0.146561,0.0366 l -0.683969,1.172523 0.183202,0.109919 z"
         id="path48-3-4-2-9-3-4"
         style="fill:#088699;fill-opacity:1;stroke-width:0.12213" />
      <path
         d="m -32.417095,16.498317 c 0.01223,-0.061 -0.02442,-0.109917 -0.08553,-0.122137 -0.06099,-0.01222 -0.109923,0.02442 -0.122142,0.08552 l -0.122135,0.720609 0.207636,0.03662 z"
         id="path50-7-5-5-2-6-4"
         style="fill:#088699;fill-opacity:1;stroke-width:0.12213" />
    </g>
    <g
       id="22-22-redshift-status-off">
      <rect
         style="opacity:0.003;fill:#eff0f1;fill-opacity:1"
         id="rect1467-9-7-9-9-4-67"
         width="22"
         height="22"
         x="-22"
         y="10" />
      <path
         inkscape:connector-curvature="0"
         id="path9068-9-37-8-0-1-0-1-3-7-4-6-1-7"
         d="m -2.4407502,12.700026 -17.1184998,5e-6 v 14.790995 h 17.2879998 z"
         style="display:inline;overflow:visible;visibility:visible;opacity:0.6;fill:url(#linearGradient3594);fill-opacity:1.0;fill-rule:nonzero;stroke:none;stroke-width:0.55969;marker:none"
         sodipodi:nodetypes="cccccc" />
      <path
         d="M -5.1969902,11 H -16.80326 c -1.11265,0.0015 -2.17946,0.443814 -2.96612,1.230648 -0.78685,0.786674 -1.22936,1.853414 -1.23062,2.966076 v 11.606709 -1.58e-4 c 8.6e-4,1.11263 0.44377,2.179402 1.23062,2.96608 0.78666,0.786835 1.85347,1.229354 2.96612,1.230646 h 11.6066998 -1.9e-4 c 1.11265,-0.0012 2.17946,-0.443811 2.96611,-1.230645 0.78686,-0.786679 1.22937,-1.853451 1.23063,-2.966081 V 15.196947 c -0.002,-1.112635 -0.44377,-2.179402 -1.23063,-2.96608 -0.78665,-0.786833 -1.85346,-1.229358 -2.96611,-1.230642 z M -16.383,13.000026 h 10.7659998 c 0.73924,0.0011 1.43628,-0.113833 1.959,0.409 0.52269,0.52268 0.6571,1.018408 0.658,1.757653 V 27.000026 H -19 V 15.166679 c 8.5e-4,-0.739245 0.13532,-1.234937 0.658,-1.757653 0.52268,-0.522679 1.21978,-0.40809 1.959,-0.409 z"
         id="path1193-3-8-8"
         style="fill:#d3dae3;fill-opacity:1;stroke-width:0.0396829"
         sodipodi:nodetypes="ccccccccccccccccccccccccc" />
      <path
         d="M -10.980341,14 C -13.620924,14 -16,16.262975 -16,19.084175 c 0,1.704531 1.030762,3.262127 2.351089,4.202449 0.112284,0.08819 0.208912,0.205842 0.208912,0.352622 V 24.6384 c 0,0.47027 0.32139,1.3616 0.742699,1.3616 h 3.3146068 c 0.449483,0 0.742694,-0.920836 0.742694,-1.3616 v -1.0283 c 0,-0.14696 0.103704,-0.26444 0.216018,-0.352574 1.292281,-0.910993 2.34398,-2.439257 2.34398,-4.202479 C -5.9675162,16.204144 -8.3397132,14 -10.980295,14 Z m 3.7e-5,0 v 0 0 h -3.7e-5 v 0 z m 0,0 v 0 0 h -3.7e-5 v 0 0 z"
         id="path2971-4-3-2-1-6"
         sodipodi:nodetypes="sscssssccccssccccccccccccc"
         style="fill:#d3dae3;fill-opacity:0.4;stroke-width:0.0513078" />
    </g>
  </g>
</svg>
