<?xml version="1.0" encoding="UTF-8" standalone="no"?>
<svg
   width="32"
   height="32"
   version="1.1"
   id="svg1404"
   sodipodi:docname="ring.svg"
   inkscape:version="1.2.2 (b0a8486541, 2022-12-01)"
   xmlns:inkscape="http://www.inkscape.org/namespaces/inkscape"
   xmlns:sodipodi="http://sodipodi.sourceforge.net/DTD/sodipodi-0.dtd"
   xmlns:xlink="http://www.w3.org/1999/xlink"
   xmlns="http://www.w3.org/2000/svg"
   xmlns:svg="http://www.w3.org/2000/svg">
  <g
     id="22-22-ring-kde">
    <rect
       style="opacity:0.00100002"
       width="22"
       height="22"
       x="32"
       y="10"
       id="rect1399" />
    <path
       inkscape:connector-curvature="0"
       id="path9068-9-37-8-0-1-0-1-3-7-4-6-1"
       d="m 51.474508,12.598 -17.118508,5e-6 v 14.790996 h 17.288 z"
       style="display:inline;overflow:visible;visibility:visible;opacity:0.6;fill:url(#linearGradient6958);fill-opacity:1;fill-rule:nonzero;stroke:none;stroke-width:0.55969;marker:none"
       sodipodi:nodetypes="cccccc" />
    <path
       d="M 48.80301,11 H 37.19674 c -1.11265,0.0015 -2.17946,0.443813 -2.96612,1.230647 C 33.44377,13.017321 33.00126,14.084062 33,15.196723 v 11.60671 -1.58e-4 c 8.6e-4,1.11263 0.44377,2.179402 1.23062,2.96608 0.78666,0.786834 1.85347,1.229354 2.96612,1.230645 h 11.6067 -1.9e-4 c 1.11265,-0.0012 2.17946,-0.443811 2.96611,-1.230645 0.78686,-0.786678 1.22937,-1.85345 1.23063,-2.96608 V 15.196946 c -0.002,-1.112635 -0.44377,-2.179402 -1.23063,-2.96608 -0.78665,-0.786833 -1.85346,-1.229358 -2.96611,-1.230642 z M 37.617,13.000025 h 10.766 c 0.73924,0.0011 1.43628,-0.113833 1.959,0.409 0.52269,0.52268 0.6571,1.018408 0.658,1.757653 V 27.000025 H 35 V 15.166678 c 8.5e-4,-0.739245 0.13532,-1.234937 0.658,-1.757653 0.52268,-0.522679 1.21978,-0.40809 1.959,-0.409 z"
       id="path1193-3-3"
       style="fill:#d3dae3;fill-opacity:1;stroke-width:0.0396829"
       sodipodi:nodetypes="ccccccccccccccccccccccccc" />
    <path
       inkscape:connector-curvature="0"
       style="color:#000000;fill:#d3dae3;fill-opacity:0.698039;stroke-width:0.295439"
       id="path6313-3-1"
       d="m 38.397089,16.22057 -0.872833,1.55886 c -0.581898,1.03923 9.496762,7.039224 10.078658,5.999993 l 0.872833,-1.55885 C 49.057643,21.18134 38.978975,15.18134 38.397089,16.22057 Z" />
    <path
       inkscape:connector-curvature="0"
       style="color:#000000;fill:#d3dae3;fill-opacity:0.7;stroke-width:0.295439"
       id="path6309-6-2"
       d="m 47.602914,16.22057 0.872833,1.55886 c 0.581896,1.03923 -9.496772,7.039224 -10.078659,5.999993 l -0.872833,-1.55885 C 36.942358,21.18134 47.021019,15.18134 47.602914,16.22057 Z" />
    <path
       inkscape:connector-curvature="0"
       style="color:#000000;fill:#d3dae3;fill-opacity:1;stroke-width:0.295439"
       id="rect5354-5-7"
       d="m 42.127162,14 h 1.745677 c 1.163789,0 1.163789,12 0,12 h -1.745677 c -1.163776,0 -1.163776,-12 0,-12 z" />
  </g>
  <sodipodi:namedview
     id="namedview1406"
     pagecolor="#ffffff"
     bordercolor="#000000"
     borderopacity="1"
     inkscape:showpageshadow="2"
     inkscape:pageopacity="0.0"
     inkscape:pagecheckerboard="0"
     inkscape:deskcolor="#cccccc"
     showgrid="false"
     inkscape:zoom="10.429825"
     inkscape:cx="17.018502"
     inkscape:cy="24.401176"
     inkscape:window-width="1920"
     inkscape:window-height="998"
     inkscape:window-x="0"
     inkscape:window-y="0"
     inkscape:window-maximized="1"
     inkscape:current-layer="svg1404">
    <inkscape:grid
       type="xygrid"
       id="grid1730"
       originx="0"
       originy="0" />
  </sodipodi:namedview>
  <defs
     id="l4k1">
    <style
       type="text/css"
       id="current-color-scheme" />
    <linearGradient
       inkscape:collect="always"
       xlink:href="#linearGradient11400"
       id="linearGradient986"
       gradientUnits="userSpaceOnUse"
       gradientTransform="matrix(0.50999971,0,0,0.43250135,-58.869594,-252.09551)"
       x1="148.9608"
       y1="596.70898"
       x2="148.9608"
       y2="636.01526" />
    <linearGradient
       inkscape:collect="always"
       id="linearGradient11400">
      <stop
         style="stop-color:#5581aa;stop-opacity:1;"
         offset="0"
         id="stop11396" />
      <stop
         style="stop-color:#6db2c5;stop-opacity:1;"
         offset="1"
         id="stop11398" />
    </linearGradient>
    <linearGradient
       inkscape:collect="always"
       xlink:href="#linearGradient11400"
       id="linearGradient6958"
       gradientUnits="userSpaceOnUse"
       gradientTransform="matrix(0.43219982,0,0,0.36977632,-20.533369,-207.92269)"
       x1="146.80391"
       y1="596.36243"
       x2="146.99998"
       y2="636.3623" />
  </defs>
  <g
     id="ring-kde">
    <rect
       style="opacity:0.00100002"
       width="32"
       height="32"
       x="0"
       y="0"
       id="rect1394" />
    <rect
       y="4.0000024"
       x="4.00038"
       height="24"
       width="24"
       id="rect2996-7"
       style="opacity:0.01;fill:#d6dbf1;fill-opacity:1;stroke:none;stroke-width:1" />
    <path
       inkscape:connector-curvature="0"
       id="path9068-9-37-8-0-1-5"
       d="m 26.100377,5.832003 -20.2000039,7e-6 V 23.132 L 26.100377,22.982001 Z"
       style="display:inline;overflow:visible;visibility:visible;opacity:0.6;fill:url(#linearGradient986);fill-opacity:1;fill-rule:nonzero;stroke:none;stroke-width:0.657512;marker:none;enable-background:new"
       sodipodi:nodetypes="ccccc" />
    <path
       d="M 22.964,4 H 9.0364471 c -1.335173,0.0018 -2.615312,0.532576 -3.559308,1.476781 -0.944192,0.944001 -1.475231,2.224098 -1.476761,3.559283 v 13.928052 -1.82e-4 c 0.0018,1.335152 0.532569,2.615282 1.476761,3.559292 0.943996,0.944202 2.224135,1.47522 3.559308,1.476773 H 22.964481 22.96429 c 1.335187,-0.0016 2.61532,-0.532571 3.559324,-1.476773 0.944187,-0.94401 1.475229,-2.22414 1.476754,-3.559292 V 9.036333 C 27.998568,7.701169 27.467801,6.42105 26.523614,5.477043 25.57961,4.532842 24.299477,4.001805 22.964289,4.000269 Z M 9.2003771,6.000019 H 22.800377 c 0.887099,0.0013 1.603763,0.04387 2.230994,0.671242 0.627241,0.627203 0.967903,1.441662 0.969008,2.328757 V 23.000026 H 6.0003811 V 9.000018 c 0.0013,-0.887095 0.341778,-1.701516 0.968993,-2.328757 0.627209,-0.627224 1.343924,-0.670155 2.231003,-0.671242 z"
       id="path1193-36-3"
       style="fill:#d3dae3;fill-opacity:1;stroke-width:0.0476193;enable-background:new"
       sodipodi:nodetypes="ccccccccccccccccccccccccc" />
    <path
       inkscape:connector-curvature="0"
       style="color:#000000;fill:#d3dae3;fill-opacity:0.7;stroke-width:0.393919"
       id="path6313-5"
       d="m 9.7461144,9.4607695 -1.163784,2.0784615 c -0.775856,1.385641 12.6623656,9.385641 13.4382226,8.000001 L 23.184337,17.46077 C 23.960193,16.075129 10.521971,8.0751289 9.7461144,9.4607695 Z" />
    <path
       inkscape:connector-curvature="0"
       style="color:#000000;fill:#d3dae3;fill-opacity:0.7;stroke-width:0.393919"
       id="path6309-3"
       d="m 22.020553,9.4607695 1.163784,2.0784615 c 0.775856,1.385641 -12.662366,9.385641 -13.4382226,8.000001 L 8.5823304,17.46077 C 7.8064744,16.075129 21.244696,8.0751289 22.020553,9.4607695 Z" />
    <path
       inkscape:connector-curvature="0"
       style="color:#000000;fill:#d3dae3;fill-opacity:1;stroke-width:0.393919"
       id="rect5354-56"
       d="m 14.71955,6.5 h 2.327567 c 1.551711,0 1.551711,16.000001 0,16.000001 H 14.71955 c -1.551711,0 -1.551711,-16.000001 0,-16.000001 z" />
  </g>
</svg>
