<?xml version="1.0" encoding="UTF-8" standalone="no"?>
<svg
   version="1.1"
   width="32"
   height="32"
   id="svg3013"
   inkscape:version="1.2.2 (b0a8486541, 2022-12-01)"
   sodipodi:docname="skype.svg"
   xmlns:inkscape="http://www.inkscape.org/namespaces/inkscape"
   xmlns:sodipodi="http://sodipodi.sourceforge.net/DTD/sodipodi-0.dtd"
   xmlns:xlink="http://www.w3.org/1999/xlink"
   xmlns="http://www.w3.org/2000/svg"
   xmlns:svg="http://www.w3.org/2000/svg"
   xmlns:rdf="http://www.w3.org/1999/02/22-rdf-syntax-ns#"
   xmlns:cc="http://creativecommons.org/ns#"
   xmlns:dc="http://purl.org/dc/elements/1.1/">
  <sodipodi:namedview
     pagecolor="#cccccc"
     bordercolor="#000000"
     borderopacity="1"
     objecttolerance="10"
     gridtolerance="10"
     guidetolerance="10"
     inkscape:pageopacity="0"
     inkscape:pageshadow="2"
     inkscape:window-width="1920"
     inkscape:window-height="994"
     id="namedview66"
     showgrid="false"
     inkscape:zoom="11.313709"
     inkscape:cx="11.888232"
     inkscape:cy="17.766057"
     inkscape:window-x="0"
     inkscape:window-y="0"
     inkscape:window-maximized="1"
     inkscape:current-layer="layer1"
     inkscape:lockguides="true"
     inkscape:document-rotation="0"
     inkscape:showpageshadow="2"
     inkscape:pagecheckerboard="0"
     inkscape:deskcolor="#808080"
     showguides="true">
    <inkscape:grid
       type="xygrid"
       id="grid390"
       originx="0"
       originy="3.4782813e-05" />
  </sodipodi:namedview>
  <defs
     id="defs3015">
    <linearGradient
       inkscape:collect="always"
       id="linearGradient7460">
      <stop
         style="stop-color:#2ad4ff;stop-opacity:1"
         offset="0"
         id="stop7456" />
      <stop
         style="stop-color:#6db2c5;stop-opacity:1;"
         offset="1"
         id="stop7458" />
    </linearGradient>
    <linearGradient
       id="linearGradient5009">
      <stop
         id="stop5011"
         style="stop-color:#000000;stop-opacity:1"
         offset="0" />
      <stop
         id="stop5013"
         style="stop-color:#000000;stop-opacity:0"
         offset="1" />
    </linearGradient>
    <linearGradient
       id="linearGradient4249">
      <stop
         id="stop4251"
         style="stop-color:#ffffff;stop-opacity:1"
         offset="0" />
      <stop
         id="stop4253"
         style="stop-color:#ffffff;stop-opacity:0.78431374"
         offset="0.47000003" />
      <stop
         id="stop4255"
         style="stop-color:#ffffff;stop-opacity:0.51724136"
         offset="0.75125003" />
      <stop
         id="stop4257"
         style="stop-color:#ffffff;stop-opacity:1"
         offset="1" />
    </linearGradient>
    <linearGradient
       id="linearGradient3289">
      <stop
         id="stop3291"
         style="stop-color:#ffffff;stop-opacity:1"
         offset="0" />
      <stop
         id="stop3294"
         style="stop-color:#ffffff;stop-opacity:1"
         offset="1" />
    </linearGradient>
    <linearGradient
       id="linearGradient2916">
      <stop
         id="stop2918"
         style="stop-color:#ffffff;stop-opacity:1"
         offset="0" />
      <stop
         id="stop2920"
         style="stop-color:#ffffff;stop-opacity:0"
         offset="1" />
    </linearGradient>
    <linearGradient
       id="linearGradient3140">
      <stop
         id="stop3142"
         style="stop-color:#ffffff;stop-opacity:1"
         offset="0" />
      <stop
         id="stop3144"
         style="stop-color:#ffffff;stop-opacity:0"
         offset="1" />
    </linearGradient>
    <linearGradient
       id="linearGradient2895">
      <stop
         id="stop2897"
         style="stop-color:#ffffff;stop-opacity:1"
         offset="0" />
      <stop
         id="stop2899"
         style="stop-color:#ffffff;stop-opacity:0"
         offset="1" />
    </linearGradient>
    <linearGradient
       x1="38.875084"
       y1="67.528122"
       x2="90.409752"
       y2="67.528122"
       id="linearGradient6228"
       xlink:href="#linearGradient2916"
       gradientUnits="userSpaceOnUse"
       gradientTransform="matrix(0.511504,0,0,1.80649,68.030435,-6.0981568)" />
    <linearGradient
       x1="38.875084"
       y1="67.528122"
       x2="90.409752"
       y2="67.528122"
       id="linearGradient6233"
       xlink:href="#linearGradient2916"
       gradientUnits="userSpaceOnUse"
       gradientTransform="matrix(0.511504,0,0,0.96108,67.773305,4.8320565)" />
    <linearGradient
       x1="11.543377"
       y1="3.4375"
       x2="10.88339"
       y2="5.9006019"
       id="linearGradient6238"
       xlink:href="#linearGradient2895"
       gradientUnits="userSpaceOnUse"
       gradientTransform="matrix(5.467529,0,0,5.820575,24.290213,-2.0656323)" />
    <linearGradient
       x1="38.875084"
       y1="67.528122"
       x2="90.409752"
       y2="67.528122"
       id="linearGradient6243"
       xlink:href="#linearGradient2916"
       gradientUnits="userSpaceOnUse"
       gradientTransform="matrix(0.511504,0,0,0.77135,67.773305,6.6291413)" />
    <radialGradient
       cx="68.000046"
       cy="-117.34602"
       r="27.999956"
       fx="68.000046"
       fy="-117.34602"
       id="radialGradient9168"
       xlink:href="#linearGradient3140"
       gradientUnits="userSpaceOnUse"
       gradientTransform="matrix(0.990365,0,0,1.664158,16.251985,75.514833)" />
    <linearGradient
       x1="18.01074"
       y1="65.760353"
       x2="72.498932"
       y2="65.760353"
       id="linearGradient2867"
       xlink:href="#linearGradient3289"
       gradientUnits="userSpaceOnUse"
       gradientTransform="matrix(1.017716,0,0,0.960169,5.524222,-18.774756)" />
    <linearGradient
       id="linearGradient4046-1-38">
      <stop
         id="stop4048-6-5"
         style="stop-color:#ffffff;stop-opacity:0"
         offset="0" />
      <stop
         id="stop4051-4-0"
         style="stop-color:#ffffff;stop-opacity:0.72661871"
         offset="1" />
    </linearGradient>
    <linearGradient
       id="linearGradient16006-3-9">
      <stop
         id="stop16008-5-6"
         style="stop-color:#ffffff;stop-opacity:0.58823532"
         offset="0" />
      <stop
         id="stop16016-1-7"
         style="stop-color:#ffffff;stop-opacity:0.8705036"
         offset="0.25" />
      <stop
         id="stop16014-1-2"
         style="stop-color:#ffffff;stop-opacity:0.58823532"
         offset="0.5" />
      <stop
         id="stop3998"
         style="stop-color:#ffffff;stop-opacity:0.8561151"
         offset="0.75" />
      <stop
         id="stop16010-4-1"
         style="stop-color:#ffffff;stop-opacity:0.58823532"
         offset="1" />
    </linearGradient>
    <linearGradient
       id="linearGradient4124">
      <stop
         id="stop4126"
         style="stop-color:#ffffff;stop-opacity:0.70503598"
         offset="0" />
      <stop
         id="stop4128"
         style="stop-color:#ffffff;stop-opacity:0.6978417"
         offset="0.185378" />
      <stop
         id="stop4130"
         style="stop-color:#ffffff;stop-opacity:0.80575538"
         offset="0.44680852" />
      <stop
         id="stop4132"
         style="stop-color:#ffffff;stop-opacity:0.77697843"
         offset="0.76861703" />
      <stop
         id="stop4134"
         style="stop-color:#ffffff;stop-opacity:0.74100721"
         offset="1" />
    </linearGradient>
    <linearGradient
       x1="3.0267859"
       y1="1040.4602"
       x2="21.776787"
       y2="1040.4602"
       id="linearGradient4717"
       xlink:href="#linearGradient4124"
       gradientUnits="userSpaceOnUse" />
    <linearGradient
       x1="12.580358"
       y1="1031.4336"
       x2="12.580358"
       y2="1049.4011"
       id="linearGradient4727"
       xlink:href="#linearGradient4124"
       gradientUnits="userSpaceOnUse" />
    <linearGradient
       x1="12"
       y1="1031.3356"
       x2="12.178572"
       y2="1049.2603"
       id="linearGradient4929"
       xlink:href="#linearGradient4249"
       gradientUnits="userSpaceOnUse" />
    <linearGradient
       x1="12"
       y1="1031.3356"
       x2="12.178572"
       y2="1049.2603"
       id="linearGradient4991"
       xlink:href="#linearGradient4249"
       gradientUnits="userSpaceOnUse"
       gradientTransform="translate(24)" />
    <linearGradient
       x1="12"
       y1="1031.3356"
       x2="12.178572"
       y2="1049.2603"
       id="linearGradient4993"
       xlink:href="#linearGradient4249"
       gradientUnits="userSpaceOnUse"
       gradientTransform="translate(24)" />
    <linearGradient
       x1="12"
       y1="1031.3356"
       x2="12.178572"
       y2="1049.2603"
       id="linearGradient4995"
       xlink:href="#linearGradient4249"
       gradientUnits="userSpaceOnUse"
       gradientTransform="translate(24)" />
    <linearGradient
       x1="12"
       y1="1031.3356"
       x2="12.178572"
       y2="1049.2603"
       id="linearGradient4997"
       xlink:href="#linearGradient4249"
       gradientUnits="userSpaceOnUse"
       gradientTransform="translate(24)" />
    <linearGradient
       x1="12"
       y1="1031.3356"
       x2="12.178572"
       y2="1049.2603"
       id="linearGradient4999"
       xlink:href="#linearGradient4249"
       gradientUnits="userSpaceOnUse"
       gradientTransform="translate(24)" />
    <linearGradient
       x1="12"
       y1="1031.3356"
       x2="12.178572"
       y2="1049.2603"
       id="linearGradient5001"
       xlink:href="#linearGradient4249"
       gradientUnits="userSpaceOnUse"
       gradientTransform="translate(24)" />
    <linearGradient
       x1="12"
       y1="1031.3356"
       x2="12.178572"
       y2="1049.2603"
       id="linearGradient5003"
       xlink:href="#linearGradient4249"
       gradientUnits="userSpaceOnUse"
       gradientTransform="translate(24)" />
    <linearGradient
       x1="12"
       y1="1031.3356"
       x2="12.178572"
       y2="1049.2603"
       id="linearGradient5005"
       xlink:href="#linearGradient4249"
       gradientUnits="userSpaceOnUse"
       gradientTransform="translate(24)" />
    <linearGradient
       x1="4.2426405"
       y1="11.71402"
       x2="19.975765"
       y2="11.71402"
       id="linearGradient5015"
       xlink:href="#linearGradient5009"
       gradientUnits="userSpaceOnUse"
       gradientTransform="translate(0,1028.3622)" />
    <radialGradient
       cx="12.00265"
       cy="12.149069"
       r="9.5000095"
       fx="12.00265"
       fy="12.149069"
       id="radialGradient3937"
       xlink:href="#linearGradient2895"
       gradientUnits="userSpaceOnUse"
       gradientTransform="matrix(0.00260593,0.00181906,-0.00232252,0.00332553,15.99694,1044.2982)" />
    <radialGradient
       cx="12.00001"
       cy="11.987168"
       r="9.5000095"
       fx="12.00001"
       fy="11.987168"
       id="radialGradient3937-6"
       xlink:href="#linearGradient2916"
       gradientUnits="userSpaceOnUse"
       gradientTransform="matrix(1.3734094,0,0,1.3760626,26.640424,993.1162)" />
    <radialGradient
       cx="12.00001"
       cy="11.987168"
       r="9.5000095"
       fx="12.00001"
       fy="11.987168"
       id="radialGradient3937-6-3"
       xlink:href="#linearGradient2916"
       gradientUnits="userSpaceOnUse"
       gradientTransform="matrix(1.8311833,0,0,1.8352211,-17.554791,984.25609)" />
    <linearGradient
       inkscape:collect="always"
       xlink:href="#linearGradient7460"
       id="linearGradient986"
       gradientUnits="userSpaceOnUse"
       gradientTransform="matrix(0.50999971,0,0,0.43250135,-58.869972,776.26672)"
       x1="148.9608"
       y1="596.70898"
       x2="148.9608"
       y2="636.01526" />
    <radialGradient
       cx="12.00001"
       cy="11.987168"
       r="9.5000095"
       fx="12.00001"
       fy="11.987168"
       id="radialGradient3937-6-3-1"
       xlink:href="#linearGradient2916"
       gradientUnits="userSpaceOnUse"
       gradientTransform="matrix(1.8311833,0,0,1.8352211,-5.9743007,1020.8533)" />
    <linearGradient
       inkscape:collect="always"
       xlink:href="#linearGradient7460"
       id="linearGradient6958"
       gradientUnits="userSpaceOnUse"
       gradientTransform="matrix(0.43219982,0,0,0.36977632,-20.533369,820.43947)"
       x1="146.80391"
       y1="596.36243"
       x2="146.99998"
       y2="636.3623" />
    <radialGradient
       cx="12.00001"
       cy="11.987168"
       r="9.5000095"
       fx="12.00001"
       fy="11.987168"
       id="radialGradient3937-6-7"
       xlink:href="#linearGradient2916"
       gradientUnits="userSpaceOnUse"
       gradientTransform="matrix(1.3734094,0,0,1.3760626,26.519104,1031.8604)" />
  </defs>
  <metadata
     id="metadata3018">
    <rdf:RDF>
      <cc:Work
         rdf:about="">
        <dc:format>image/svg+xml</dc:format>
        <dc:type
           rdf:resource="http://purl.org/dc/dcmitype/StillImage" />
      </cc:Work>
    </rdf:RDF>
  </metadata>
  <g
     transform="translate(0,-1028.3622)"
     id="layer1">
    <g
       id="22-22-skype">
      <path
         style="opacity:0"
         d="m 32,1038.3622 h 22 v 22 H 32 Z"
         id="path6" />
      <path
         inkscape:connector-curvature="0"
         id="path9068-9-37-8-0-1-0-1-3-7-4-6-1"
         d="M 51.474508,1040.9602 H 34.356 v 14.791 h 17.288 z"
         style="display:inline;overflow:visible;visibility:visible;opacity:0.6;fill:url(#linearGradient6958);fill-opacity:1.0;fill-rule:nonzero;stroke:none;stroke-width:0.55969;marker:none"
         sodipodi:nodetypes="cccccc" />
      <path
         d="M 48.80301,1039.3622 H 37.19674 c -1.11265,0 -2.17946,0.4438 -2.96612,1.2306 -0.78685,0.7867 -1.22936,1.8535 -1.23062,2.9661 v 11.6067 -10e-5 c 8.6e-4,1.1126 0.44377,2.1794 1.23062,2.9661 0.78666,0.7868 1.85347,1.2293 2.96612,1.2306 h 11.6067 -1.9e-4 c 1.11265,0 2.17946,-0.4438 2.96611,-1.2306 0.78686,-0.7867 1.22937,-1.8535 1.23063,-2.9661 v -11.6064 c -0.002,-1.1126 -0.44377,-2.1794 -1.23063,-2.966 -0.78665,-0.7869 -1.85346,-1.2294 -2.96611,-1.2307 z m -11.18601,2 h 10.766 c 0.73924,0 1.43628,-0.1138 1.959,0.409 0.52269,0.5227 0.6571,1.0184 0.658,1.7577 v 11.8333 H 35 v -11.8333 c 8.5e-4,-0.7393 0.13532,-1.235 0.658,-1.7577 0.52268,-0.5227 1.21978,-0.4081 1.959,-0.409 z"
         id="path1193-3-3"
         style="fill:#d3dae3;fill-opacity:1;stroke-width:0.0396829"
         sodipodi:nodetypes="ccccccccccccccccccccccccc" />
      <path
         d="m 40.349265,1042.3665 c -0.137864,0.01 -0.278351,0.012 -0.429853,0.037 -1.659347,0.283 -2.918791,1.7355 -2.919412,3.3912 -1.51e-4,0.3966 0.06906,0.7875 0.214926,1.2317 v 0.021 l 0.08954,0.2852 v 0.8031 c 0.0021,0.7714 0.02484,1.007 0.07163,1.2318 0.544363,2.6165 2.562557,4.471 5.176134,4.6952 0.27952,0.029 0.535471,0.028 0.967173,0 l 0.465671,-0.037 0.179107,0.067 c 0.369287,0.1307 0.587742,0.1976 0.788062,0.2319 0.318339,0.057 0.69455,0.043 1.020901,0 0.755102,-0.09 1.484693,-0.4443 2.041798,-0.9996 0.476165,-0.4748 0.783895,-1.0674 0.931346,-1.75 0.04868,-0.2248 0.05397,-0.4384 0.05371,-0.7134 -4.02e-4,-0.4455 -0.05768,-0.7339 -0.232833,-1.2499 h 0.01788 l -0.08953,-0.2683 0.01787,-0.6064 c 0.01937,-0.8163 -0.02038,-1.2028 -0.161192,-1.7676 -0.492332,-1.9736 -2.004558,-3.5187 -3.99405,-4.0878 -0.515662,-0.148 -0.659064,-0.1602 -1.719409,-0.1783 l -0.931343,-0.023 -0.214927,-0.067 c -0.470122,-0.1637 -0.893641,-0.2664 -1.343293,-0.2492 z m 0.01788,0.5533 c 0.358033,-0.018 0.710468,0.061 1.146274,0.2143 l 0.304478,0.1071 1.002991,0.021 c 1.062004,0.023 1.063844,0.019 1.576125,0.1613 1.804782,0.5168 3.173856,1.9147 3.617923,3.6953 0.134776,0.5404 0.16225,0.8061 0.143283,1.6066 l -0.01788,0.7142 0.107466,0.3387 c 0.175471,0.513 0.196621,0.6557 0.197016,1.0893 2.54e-4,0.2698 -0.0037,0.4403 -0.03579,0.589 -0.128067,0.5929 -0.388061,1.0828 -0.788062,1.4821 -0.463589,0.4619 -1.095112,0.7625 -1.719411,0.839 -0.249713,0.032 -0.677509,0.032 -0.859708,0 -0.17613,-0.031 -0.346161,-0.067 -0.69851,-0.1966 l -0.304475,-0.1075 -0.55523,0.038 c -0.422144,0.028 -0.628161,0.028 -0.87761,0 -2.383955,-0.2047 -4.19222,-1.8435 -4.692558,-4.2486 -0.03756,-0.1804 -0.05191,-0.3605 -0.05372,-1.1247 v -0.9103 l -0.107472,-0.3574 c -0.138416,-0.4165 -0.197141,-0.7326 -0.197015,-1.0706 5.15e-4,-1.3691 1.064279,-2.6008 2.453744,-2.8387 0.124136,-0.024 0.238864,-0.033 0.358207,-0.037 z"
         id="path3872-3-2"
         style="fill:#d3dae3;fill-opacity:1;stroke:none;stroke-width:0.572205"
         inkscape:connector-curvature="0" />
      <path
         d="m 42.982171,1044.6136 c -1.793137,0.01 -2.894405,0.8955 -2.803586,2.2676 0.04839,0.7312 0.376713,1.2105 1.071433,1.5355 0.186775,0.086 0.874348,0.3005 1.517866,0.4643 0.643519,0.1625 1.248593,0.3367 1.33929,0.3921 0.204629,0.1263 0.285715,0.3189 0.285715,0.6249 0,0.1905 -0.03831,0.2691 -0.178571,0.4285 -0.316129,0.3601 -0.920412,0.516 -1.517862,0.3931 -0.470175,-0.097 -0.665045,-0.2242 -1.071437,-0.6789 -0.484383,-0.5415 -0.735981,-0.6399 -1.107147,-0.4636 -0.224724,0.1065 -0.358602,0.3186 -0.357145,0.6066 0.0044,0.8057 0.948829,1.5322 2.250014,1.7136 0.445508,0.062 1.375201,0.015 1.803577,-0.087 0.756804,-0.1785 1.352883,-0.6081 1.642866,-1.1964 0.16141,-0.3276 0.160982,-0.3772 0.160717,-0.8753 -2.51e-4,-0.468 -0.0021,-0.5754 -0.125005,-0.8391 -0.325784,-0.6961 -0.868432,-1.0082 -2.339294,-1.3383 -0.530355,-0.1192 -1.036276,-0.2372 -1.142861,-0.268 -0.299404,-0.083 -0.543693,-0.268 -0.625005,-0.4825 -0.0667,-0.1751 -0.06337,-0.2218 0.0357,-0.4454 0.153105,-0.3464 0.489925,-0.5177 1.071438,-0.5177 0.626776,0 0.901057,0.1111 1.392861,0.5704 0.439119,0.4114 0.585417,0.4784 0.892865,0.4286 0.570819,-0.091 0.749176,-0.6328 0.392857,-1.1605 -0.429481,-0.6356 -1.483083,-1.071 -2.589297,-1.071 z"
         id="rect3906-5-28"
         style="fill:#d3dae3;fill-opacity:1;stroke:none;stroke-width:0.571351"
         inkscape:connector-curvature="0" />
      <path
         d="m 40.375016,1042.9182 c -0.11899,0.01 -0.233375,0.019 -0.357143,0.037 -1.385324,0.2371 -2.445933,1.4689 -2.446443,2.8378 -1.27e-4,0.338 0.05839,0.6547 0.196428,1.0714 l 0.107143,0.3567 v 0.9104 c 0.0022,0.7647 0.0162,0.945 0.05354,1.1254 0.498848,2.4041 2.301736,4.0439 4.678596,4.2485 0.248703,0.027 0.454115,0.027 0.874999,0 l 0.553573,-0.037 0.303579,0.1074 c 0.351296,0.1246 0.520821,0.1659 0.696429,0.1959 0.181654,0.03 0.608177,0.031 0.857147,0 0.622446,-0.073 1.252086,-0.3762 1.714292,-0.839 0.398817,-0.3987 0.658034,-0.8893 0.78572,-1.4811 0.03212,-0.1497 0.03595,-0.3201 0.03568,-0.5894 -3.94e-4,-0.4332 -0.02144,-0.5764 -0.19643,-1.0892 l -0.10714,-0.339 0.01781,-0.7142 c 0.0189,-0.8008 -0.0083,-1.0666 -0.142861,-1.6071 -0.442743,-1.7798 -1.807741,-3.1786 -3.60716,-3.6955 -0.510754,-0.1465 -0.512585,-0.1413 -1.571436,-0.1602 l -1.000004,-0.023 -0.303574,-0.1071 c -0.434506,-0.1512 -0.785891,-0.2273 -1.142859,-0.214 z m 2.607155,1.6954 c 1.106216,0 2.159819,0.4354 2.589299,1.071 0.356317,0.5277 0.177961,1.0679 -0.392858,1.1606 -0.307448,0.053 -0.453745,-0.023 -0.892865,-0.4287 -0.491805,-0.4593 -0.766084,-0.5713 -1.392861,-0.5704 -0.581513,0 -0.918333,0.1713 -1.071438,0.5176 -0.09912,0.2237 -0.102461,0.2704 -0.03569,0.4456 0.08129,0.2144 0.325599,0.3975 0.625007,0.4824 0.106585,0.031 0.612504,0.1488 1.142861,0.268 1.470862,0.3302 2.013511,0.6423 2.339292,1.3384 0.123407,0.2638 0.124757,0.3712 0.125007,0.839 2.65e-4,0.4981 6.83e-4,0.5477 -0.160717,0.8754 -0.289982,0.5883 -0.886061,1.0178 -1.642867,1.1963 -0.428375,0.1002 -1.358068,0.1506 -1.803576,0.087 -1.301186,-0.1814 -2.245941,-0.908 -2.250015,-1.7137 -0.0019,-0.2879 0.132424,-0.5001 0.357147,-0.6066 0.371167,-0.1762 0.622763,-0.076 1.107147,0.4637 0.406391,0.4547 0.601262,0.5818 1.071435,0.6788 0.59745,0.123 1.201735,-0.033 1.517862,-0.393 0.140238,-0.1594 0.178573,-0.2381 0.178573,-0.4286 0,-0.306 -0.08105,-0.4986 -0.285716,-0.6249 -0.09069,-0.058 -0.695769,-0.2295 -1.339291,-0.3921 -0.643517,-0.1637 -1.331087,-0.3772 -1.517865,-0.4643 -0.69472,-0.325 -1.023063,-0.8042 -1.071432,-1.5353 -0.0908,-1.3724 1.010448,-2.2645 2.803587,-2.2676 z"
         id="path3859-6-9"
         style="fill:url(#radialGradient3937-6-7);fill-opacity:0;stroke:none;stroke-width:0.571351"
         inkscape:connector-curvature="0" />
    </g>
    <g
       id="skype">
      <rect
         width="32"
         height="32"
         x="0"
         y="1028.3622"
         id="rect5017"
         style="opacity:0;fill:#000000;fill-opacity:0.392157;stroke:none;stroke-width:1.33333" />
      <rect
         y="1032.3622"
         x="4.0000019"
         height="24"
         width="24"
         id="rect2996-7"
         style="opacity:0.01;fill:#d6dbf1;fill-opacity:1;stroke:none;stroke-width:1" />
      <path
         inkscape:connector-curvature="0"
         id="path9068-9-37-8-0-1-5"
         d="M 26.099999,1034.1942 H 5.899995 v 17.3 l 20.200004,-0.15 z"
         style="display:inline;overflow:visible;visibility:visible;opacity:0.6;fill:url(#linearGradient986);fill-opacity:1;fill-rule:nonzero;stroke:none;stroke-width:0.657512;marker:none;enable-background:new"
         sodipodi:nodetypes="ccccc" />
      <path
         d="M 22.963622,1032.3622 H 9.036069 c -1.335173,0 -2.615312,0.5326 -3.559308,1.4768 -0.944192,0.944 -1.475231,2.2241 -1.476761,3.5593 v 13.928 -2e-4 c 0.0018,1.3352 0.532569,2.6153 1.476761,3.5593 0.943996,0.9442 2.224135,1.4752 3.559308,1.4768 h 13.928034 -1.91e-4 c 1.335187,0 2.61532,-0.5326 3.559324,-1.4768 0.944187,-0.944 1.475229,-2.2241 1.476754,-3.5593 v -13.9276 c -0.0018,-1.3351 -0.532567,-2.6152 -1.476754,-3.5593 -0.944004,-0.9442 -2.224137,-1.4752 -3.559325,-1.4767 z m -13.763623,2 h 13.6 c 0.887099,0 1.603763,0.044 2.230994,0.6713 0.627241,0.6272 0.967903,1.4416 0.969008,2.3287 v 14 H 6.000003 v -14 c 0.0013,-0.8871 0.341778,-1.7015 0.968993,-2.3287 0.627209,-0.6273 1.343924,-0.6702 2.231003,-0.6713 z"
         id="path1193-36-3"
         style="fill:#d3dae3;fill-opacity:1;stroke-width:0.0476193;enable-background:new"
         sodipodi:nodetypes="ccccccccccccccccccccccccc" />
      <path
         d="m 12.465618,1034.8645 c -0.183815,0.01 -0.371135,0.012 -0.573127,0.047 -2.2124327,0.3786 -3.8916677,2.3156 -3.8924907,4.5239 -1.98e-4,0.529 0.09199,1.0505 0.286563,1.6428 v 0.024 l 0.119402,0.3809 v 1.0714 c 0.0025,1.0281 0.03314,1.3429 0.09552,1.6428 0.725807,3.4895 3.4166917,5.9623 6.9014097,6.2619 0.372685,0.036 0.713948,0.032 1.289537,0 l 0.620888,-0.047 0.238803,0.095 c 0.492373,0.1746 0.783644,0.2635 1.050733,0.3094 0.424446,0.069 0.926056,0.053 1.361178,0 1.006789,-0.1227 1.979565,-0.5925 2.722355,-1.3333 0.634879,-0.6331 1.045175,-1.4233 1.241776,-2.3332 0.06495,-0.3007 0.07198,-0.5854 0.07164,-0.9524 -5.39e-4,-0.5938 -0.07689,-0.9786 -0.310444,-1.6667 h 0.02388 l -0.119403,-0.3571 0.02388,-0.8095 c 0.02578,-1.0889 -0.02718,-1.6042 -0.214923,-2.3571 -0.656429,-2.6325 -2.6727,-4.6928 -5.325308,-5.4524 -0.687546,-0.1968 -0.878747,-0.213 -2.292511,-0.2381 l -1.241775,-0.024 -0.286564,-0.095 c -0.626817,-0.2188 -1.191497,-0.3552 -1.791023,-0.3333 z m 0.02388,0.7381 c 0.477373,-0.018 0.947276,0.083 1.52834,0.2858 l 0.405965,0.1428 1.337297,0.023 c 1.415985,0.025 1.41844,0.019 2.101468,0.2144 2.406341,0.6892 4.231744,2.5542 4.823822,4.9285 0.179698,0.7207 0.216332,1.0748 0.191043,2.1429 l -0.02388,0.9524 0.143282,0.4524 c 0.233961,0.6836 0.262159,0.8742 0.262684,1.4523 3.37e-4,0.3597 -0.0047,0.5867 -0.04777,0.7857 -0.170755,0.7904 -0.517406,1.4443 -1.050734,1.9761 -0.61811,0.6164 -1.460124,1.0176 -2.29251,1.1191 -0.332942,0.041 -0.903328,0.039 -1.146255,0 -0.234842,-0.041 -0.461541,-0.095 -0.931331,-0.2619 l -0.405965,-0.1429 -0.74029,0.047 c -0.562853,0.032 -0.83754,0.032 -1.170135,0 -3.178553,-0.2732 -5.5895337,-2.4594 -6.2566417,-5.6666 -0.05005,-0.2406 -0.0692,-0.4808 -0.07164,-1.4999 v -1.2143 l -0.143282,-0.4762 c -0.184556,-0.5561 -0.262851,-0.9779 -0.262683,-1.4286 6.85e-4,-1.8255 1.4190207,-3.4686 3.2716027,-3.7857 0.165518,-0.028 0.318482,-0.041 0.477606,-0.047 z"
         id="path3872-3-6-9"
         style="fill:#d3dae3;fill-opacity:1;stroke:none;stroke-width:0.763031"
         inkscape:connector-curvature="0" />
      <path
         d="m 15.9761,1037.8624 c -2.390809,0.01 -3.85914,1.1934 -3.738053,3.0238 0.0645,0.9748 0.502277,1.6141 1.428555,2.0475 0.249026,0.1166 1.165777,0.4018 2.023787,0.6191 0.858011,0.2173 1.664764,0.4492 1.785694,0.5238 0.272833,0.1677 0.380949,0.4246 0.380949,0.8333 0,0.2542 -0.05111,0.3584 -0.238093,0.5714 -0.421499,0.4802 -1.227198,0.6882 -2.023787,0.5238 -0.626887,-0.1293 -0.886713,-0.2986 -1.428555,-0.9048 -0.645838,-0.7223 -0.981294,-0.8538 -1.476174,-0.619 -0.299627,0.1422 -0.478128,0.4256 -0.476185,0.8096 0.0054,1.0747 1.26508,2.0429 2.999966,2.2856 0.594006,0.083 1.833574,0.015 2.404735,-0.119 1.009051,-0.2377 1.803815,-0.8099 2.190451,-1.5952 0.215211,-0.4372 0.21464,-0.503 0.214283,-1.1666 -3.33e-4,-0.624 -0.0021,-0.7675 -0.166665,-1.1191 -0.434372,-0.9284 -1.157893,-1.3446 -3.119012,-1.7857 -0.70713,-0.159 -1.381673,-0.3168 -1.523792,-0.3571 -0.399202,-0.1129 -0.724908,-0.358 -0.833324,-0.6429 -0.08899,-0.2338 -0.08454,-0.2965 0.04762,-0.5952 0.204137,-0.4615 0.653216,-0.6905 1.428555,-0.6905 0.835689,0 1.201395,0.1487 1.857122,0.7619 0.585478,0.5479 0.78054,0.6378 1.190462,0.5715 0.761085,-0.1236 0.99889,-0.8443 0.523804,-1.5477 -0.572631,-0.8477 -1.977413,-1.4285 -3.452343,-1.4285 z"
         id="rect3906-5-2-2"
         style="fill:#d3dae3;fill-opacity:1;stroke:none;stroke-width:0.761894"
         inkscape:connector-curvature="0" />
      <path
         d="m 12.499949,1035.6004 c -0.15865,0.01 -0.31116,0.019 -0.476185,0.047 -1.847069,0.3171 -3.2611897,1.9602 -3.2618687,3.7858 -1.67e-4,0.4507 0.07789,0.8725 0.261902,1.4286 l 0.142856,0.4761 v 1.2143 c 0.0024,1.0191 0.02153,1.2594 0.07143,1.5 0.665122,3.2072 3.0689297,5.3934 6.2380247,5.6666 0.331605,0.032 0.605476,0.031 1.166654,0 l 0.738086,-0.047 0.404758,0.1428 c 0.468392,0.1667 0.694418,0.2215 0.92856,0.2619 0.242204,0.039 0.810893,0.041 1.142844,0 0.82991,-0.1015 1.669419,-0.5027 2.285689,-1.119 0.531741,-0.5319 0.877361,-1.1858 1.047607,-1.9762 0.04286,-0.199 0.04795,-0.4259 0.04762,-0.7857 -5.23e-4,-0.5781 -0.02864,-0.7687 -0.261902,-1.4523 l -0.142855,-0.4524 0.02381,-0.9524 c 0.02522,-1.0681 -0.01131,-1.4222 -0.190474,-2.1428 -0.590317,-2.3744 -2.410287,-4.2394 -4.809469,-4.9287 -0.680995,-0.1954 -0.683443,-0.1891 -2.095214,-0.2142 l -1.333318,-0.024 -0.404758,-0.1429 c -0.579335,-0.2027 -1.04784,-0.3031 -1.523792,-0.2857 z m 3.476151,2.262 c 1.474929,0 2.879712,0.5808 3.452342,1.4285 0.475086,0.7034 0.237281,1.4241 -0.523803,1.5476 -0.409923,0.066 -0.604985,-0.023 -1.190463,-0.5714 -0.655727,-0.6133 -1.021433,-0.763 -1.857122,-0.7619 -0.775338,0 -1.224418,0.229 -1.428555,0.6905 -0.132159,0.2987 -0.136613,0.3614 -0.04762,0.5952 0.108416,0.2849 0.434122,0.53 0.833325,0.6429 0.142118,0.04 0.816661,0.1981 1.523792,0.3571 1.961118,0.4411 2.684639,0.8573 3.119012,1.7857 0.164534,0.3517 0.166331,0.4951 0.166665,1.119 3.56e-4,0.6637 9.14e-4,0.7295 -0.214284,1.1667 -0.386635,0.7853 -1.181399,1.3575 -2.190451,1.5952 -0.571161,0.1345 -1.810729,0.2021 -2.404734,0.119 -1.734887,-0.2427 -2.994535,-1.2109 -2.999966,-2.2856 -0.0019,-0.384 0.176558,-0.6674 0.476184,-0.8096 0.494881,-0.2348 0.830336,-0.1033 1.476174,0.6191 0.541842,0.6061 0.801669,0.7754 1.428555,0.9047 0.79659,0.1644 1.602288,-0.043 2.023787,-0.5238 0.186977,-0.2129 0.238093,-0.3172 0.238093,-0.5714 0,-0.4087 -0.108115,-0.6656 -0.380948,-0.8333 -0.120931,-0.075 -0.927684,-0.3065 -1.785694,-0.5238 -0.858011,-0.2173 -1.774761,-0.5025 -2.023787,-0.6191 -0.926279,-0.4334 -1.364063,-1.0727 -1.428556,-2.0475 -0.121087,-1.8304 1.347245,-3.0197 3.738054,-3.0238 z"
         id="path3859-6-6-0"
         style="fill:url(#radialGradient3937-6-3-1);fill-opacity:0;stroke:none;stroke-width:0.761894"
         inkscape:connector-curvature="0" />
    </g>
  </g>
</svg>
