<?xml version="1.0" encoding="UTF-8" standalone="no"?>
<svg
   width="32"
   height="32"
   version="1.1"
   id="svg17"
   sodipodi:docname="slc.svg"
   inkscape:version="1.2.1 (9c6d41e410, 2022-07-14)"
   xmlns:inkscape="http://www.inkscape.org/namespaces/inkscape"
   xmlns:sodipodi="http://sodipodi.sourceforge.net/DTD/sodipodi-0.dtd"
   xmlns:xlink="http://www.w3.org/1999/xlink"
   xmlns="http://www.w3.org/2000/svg"
   xmlns:svg="http://www.w3.org/2000/svg"
   xmlns:rdf="http://www.w3.org/1999/02/22-rdf-syntax-ns#"
   xmlns:cc="http://creativecommons.org/ns#"
   xmlns:dc="http://purl.org/dc/elements/1.1/">
  <g
     id="22-22-slc-like"
     transform="translate(0,-22)">
    <rect
       y="0"
       x="0"
       height="22"
       width="22"
       id="rect3791"
       style="fill:#ffffff;fill-opacity:0;stroke:none" />
    <path
       inkscape:connector-curvature="0"
       id="path9068-9-37-8-0-1-0-1-3-7-4-6-1"
       d="M 19.118508,2.604498 2,2.604503 v 14.790996 h 17.288 z"
       style="display:inline;overflow:visible;visibility:visible;opacity:0.6;fill:url(#linearGradient6958);fill-opacity:1.0;fill-rule:nonzero;stroke:none;stroke-width:0.55969;marker:none"
       sodipodi:nodetypes="cccccc" />
    <path
       d="M 16.803011,1 H 5.196742 C 4.084091,1.0015 3.017281,1.44383 2.230622,2.230652 1.443769,3.017322 1.001262,4.084056 1,5.196749 V 16.803451 16.8033 c 8.62e-4,1.112617 0.443769,2.179389 1.230622,2.96606 0.786659,0.786822 1.853469,1.229367 2.96612,1.230652 h 11.606699 -1.9e-4 c 1.112651,-0.0012 2.179461,-0.44383 2.966111,-1.230652 0.78686,-0.786671 1.22937,-1.853443 1.23063,-2.96606 V 5.196976 c -0.002,-1.112655 -0.44377,-2.179427 -1.23063,-2.966098 -0.78665,-0.786822 -1.85346,-1.229366 -2.966111,-1.230652 z M 5.617003,3.00005 h 10.765998 c 0.73924,0.0011 1.43628,-0.113764 1.959,0.408983 0.522691,0.522671 0.6571,1.018431 0.658,1.757669 v 11.833323 h -16 V 5.166702 C 3.000852,4.427464 3.135308,3.931741 3.658002,3.409033 4.18068,2.886362 4.87778,3.000957 5.617003,3.00005 Z"
       id="path1193-3-7"
       style="fill:#d3dae3;fill-opacity:1;stroke-width:0.0396828"
       sodipodi:nodetypes="ccccccccccccccccccccccccc" />
    <path
       d="m 16.619562,10.304756 c 0,0 0.909918,-1.5642746 -0.587973,-1.8369733 h -2.51989 c 0,0 1.441932,-1.6217256 0.867936,-3.3295078 0,0 -0.378003,-0.774922 -1.021927,-0.61706 0,0 -0.57401,0.172195 -0.53201,1.19116 0,0 0,1.0476303 -0.867936,1.6217265 -0.881894,0.5883395 -2.4918942,1.7077435 -2.6738906,2.0521932 0,0 -0.7238208,1.1644164 -1.283872,1.0065664 v 3.928567 c 0,0 0.9198138,-0.256564 3.3837316,1.178572 h 3.639856 c 0,0 1.637933,-0.200919 1.259894,-1.636056 0,0 1.021936,-0.660215 0.420012,-1.793915 -0.01409,0 0.727897,-0.875437 -0.08409,-1.765194 z"
       id="path37001-7-0-4"
       style="fill:#d3dae3;fill-opacity:1;stroke-width:0.0253113"
       sodipodi:nodetypes="cccccccccccccccc" />
    <path
       d="m 5.749999,15.107134 h 0.7500011 c 0.3360113,0 0.7499987,-0.441346 0.7499987,-0.785706 v -3.928567 c 0,-0.344464 -0.4140924,-0.7857218 -0.7499987,-0.7857218 H 5.749999 C 5.4139884,9.6071392 5,10.048397 5,10.392861 v 3.928567 c 0,0.358786 0.4139884,0.785706 0.749999,0.785706 z"
       id="path37003-7-6-6"
       style="fill:#d3dae3;fill-opacity:1;stroke-width:0.0253113"
       sodipodi:nodetypes="csssccsscc" />
  </g>
  <g
     id="slc-like">
    <rect
       style="opacity:0.00100002;stroke-width:1.45455"
       width="32"
       height="32"
       x="0"
       y="0"
       id="rect2" />
    <path
       inkscape:connector-curvature="0"
       id="path9068-9-37-8-0-1-9"
       d="m 25.999992,6 -20.2,5e-6 V 23.1 h 20.399999 z"
       style="display:inline;overflow:visible;visibility:visible;opacity:0.6;fill:url(#linearGradient36715);fill-opacity:1;fill-rule:nonzero;stroke:none;stroke-width:0.653705;marker:none"
       sodipodi:nodetypes="cccccc" />
    <path
       d="M 22.963624,4 H 9.036071 C 7.70089,4.0015 6.420747,4.532573 5.476753,5.476774 4.532567,6.4207871 4.001524,7.7008751 4,9.0360681 v 13.9280509 -1.9e-4 c 0.0015,1.335156 0.532567,2.615282 1.476753,3.559294 0.943994,0.944202 2.224137,1.475226 3.559318,1.476775 h 13.928035 -1.94e-4 c 1.335183,-0.0015 2.615325,-0.532573 3.559317,-1.476775 0.944188,-0.944012 1.475232,-2.224138 1.476755,-3.559294 V 9.0363331 C 27.998185,7.7011771 27.467417,6.4210511 26.523229,5.477038 25.579237,4.532837 24.299095,4.001814 22.963911,4.000264 Z M 9.2,6.000012 h 13.599999 c 0.887096,0.0011 1.60376,0.04384 2.231,0.6712441 C 25.658231,7.2984681 25.9989,8.1129191 26,9.0000121 V 23.000025 H 6 V 9.0000121 C 6.0011,8.1129191 6.341774,7.2985061 6.969,6.6712561 7.596201,6.044043 8.312916,6.001108 9.2,6.000012 Z"
       id="path1193-367-1"
       style="fill:#d3dae3;fill-opacity:1;stroke-width:0.047619"
       sodipodi:nodetypes="ccccccccccccccccccccccccc" />
    <path
       d="m 23.492762,14.887868 c 0,0 1.213215,-1.990888 -0.783968,-2.337962 h -3.359859 c 0,0 1.922587,-2.064014 1.15725,-4.2375596 0,0 -0.504005,-0.9862639 -1.362569,-0.7853446 0,0 -0.765341,0.2191443 -0.709341,1.5160243 0,0 0,1.3333369 -1.157251,2.0640169 -1.175859,0.748784 -3.322532,2.173482 -3.565193,2.61188 0,0 -0.965095,1.481991 -1.711831,1.281077 v 5 c 0,0 1.22642,-0.326538 4.511647,1.5 h 4.853137 c 0,0 2.183911,-0.255713 1.679865,-2.082254 0,0 1.362574,-0.840271 0.560017,-2.283166 -0.01882,0 0.970521,-1.11419 -0.112106,-2.246606 z"
       id="path37001-7"
       style="fill:#d3dae3;fill-opacity:1;stroke-width:0.0329723"
       sodipodi:nodetypes="cccccccccccccccc" />
    <path
       d="m 9,21 h 1 c 0.448015,0 1,-0.561728 1,-1 v -5 c 0,-0.438403 -0.552125,-1 -1,-1 H 9 c -0.4480151,0 -1,0.561597 -1,1 v 5 c 0,0.456636 0.5519849,1 1,1 z"
       id="path37003-7"
       style="fill:#d3dae3;fill-opacity:1;stroke-width:0.0329723"
       sodipodi:nodetypes="csssccsscc" />
  </g>
  <metadata
     id="metadata23">
    <rdf:RDF>
      <cc:Work
         rdf:about="">
        <dc:format>image/svg+xml</dc:format>
        <dc:type
           rdf:resource="http://purl.org/dc/dcmitype/StillImage" />
      </cc:Work>
    </rdf:RDF>
  </metadata>
  <defs
     id="defs21">
    <linearGradient
       inkscape:collect="always"
       id="linearGradient28810">
      <stop
         style="stop-color:#5581aa;stop-opacity:1;"
         offset="0"
         id="stop28806" />
      <stop
         style="stop-color:#6db2c5;stop-opacity:1;"
         offset="1"
         id="stop28808" />
    </linearGradient>
    <linearGradient
       inkscape:collect="always"
       xlink:href="#linearGradient28810"
       id="linearGradient5058"
       x1="148"
       y1="590.36218"
       x2="148"
       y2="642.36218"
       gradientUnits="userSpaceOnUse"
       gradientTransform="matrix(0.50999969,0,0,0.42750131,-58.969972,-248.94562)" />
    <linearGradient
       inkscape:collect="always"
       xlink:href="#linearGradient28810"
       id="linearGradient35495"
       gradientUnits="userSpaceOnUse"
       gradientTransform="matrix(0.50999969,0,0,0.42750131,-58.96997,-248.94562)"
       x1="148"
       y1="590.36218"
       x2="148"
       y2="642.36218" />
    <linearGradient
       inkscape:collect="always"
       xlink:href="#linearGradient28810"
       id="linearGradient36715"
       gradientUnits="userSpaceOnUse"
       gradientTransform="matrix(0.50999969,0,0,0.42750132,-58.969971,-248.94563)"
       x1="147.00003"
       y1="596.36224"
       x2="147.00002"
       y2="636.36206" />
    <linearGradient
       inkscape:collect="always"
       xlink:href="#linearGradient28810"
       id="linearGradient6958"
       gradientUnits="userSpaceOnUse"
       gradientTransform="matrix(0.43219982,0,0,0.36977632,-52.889369,-217.9162)"
       x1="146.80391"
       y1="596.36243"
       x2="146.99998"
       y2="636.3623" />
    <linearGradient
       inkscape:collect="always"
       xlink:href="#linearGradient28810"
       id="linearGradient25821"
       gradientUnits="userSpaceOnUse"
       gradientTransform="matrix(0.43219982,0,0,0.36977632,-52.889371,-217.91625)"
       x1="146.80391"
       y1="596.36243"
       x2="146.99998"
       y2="636.3623" />
    <linearGradient
       inkscape:collect="always"
       xlink:href="#linearGradient28810"
       id="linearGradient25848"
       gradientUnits="userSpaceOnUse"
       gradientTransform="matrix(0.43219982,0,0,0.36977632,-52.889371,-217.9162)"
       x1="146.80391"
       y1="596.36243"
       x2="146.99998"
       y2="636.3623" />
  </defs>
  <sodipodi:namedview
     pagecolor="#ffffff"
     bordercolor="#666666"
     borderopacity="1"
     objecttolerance="10"
     gridtolerance="10"
     guidetolerance="10"
     inkscape:pageopacity="0"
     inkscape:pageshadow="2"
     inkscape:window-width="1920"
     inkscape:window-height="1002"
     id="namedview19"
     showgrid="false"
     inkscape:zoom="7.1363635"
     inkscape:cx="-16.324841"
     inkscape:cy="9.0382167"
     inkscape:window-x="0"
     inkscape:window-y="0"
     inkscape:window-maximized="1"
     inkscape:current-layer="svg17"
     inkscape:document-rotation="0"
     inkscape:lockguides="true"
     inkscape:showpageshadow="2"
     inkscape:pagecheckerboard="0"
     inkscape:deskcolor="#d1d1d1">
    <inkscape:grid
       type="xygrid"
       id="grid32837"
       originx="-32"
       originy="0" />
  </sodipodi:namedview>
  <g
     id="slc-connect"
     transform="translate(-64,-0.021)">
    <rect
       style="opacity:0.00100002;stroke-width:1.45455"
       width="32"
       height="32"
       x="0"
       y="0"
       id="rect12" />
    <rect
       style="opacity:0.00100002"
       width="32"
       height="32"
       x="-3.8951634e-11"
       y="-4.6337427e-09"
       id="rect640" />
    <path
       inkscape:connector-curvature="0"
       id="path9068-9-37-8-0-1"
       d="m 25.999992,6 -20.1999995,5e-6 V 23.1 H 26.199992 Z"
       style="display:inline;overflow:visible;visibility:visible;opacity:0.6;fill:url(#linearGradient5058);fill-opacity:1.0;fill-rule:nonzero;stroke:none;stroke-width:0.653705;marker:none"
       sodipodi:nodetypes="cccccc" />
    <path
       d="M 22.963625,4 H 9.036071 C 7.70089,4.0015 6.420747,4.532573 5.476753,5.476774 4.532567,6.420787 4.001524,7.700875 4,9.036068 v 13.928051 -1.9e-4 c 0.0015,1.335156 0.532567,2.615282 1.476753,3.559294 0.943994,0.944202 2.224137,1.475226 3.559318,1.476775 h 13.928035 -1.94e-4 c 1.335183,-0.0015 2.615324,-0.532573 3.559318,-1.476775 0.944187,-0.944012 1.475232,-2.224138 1.476755,-3.559294 V 9.036333 C 27.998185,7.701177 27.467417,6.421051 26.52323,5.477038 25.579236,4.532837 24.299095,4.001814 22.963911,4.000264 Z M 9.2,6.000012 h 13.599999 c 0.887095,0.0011 1.603761,0.04384 2.231,0.671244 C 25.658231,7.298468 25.9989,8.112919 26,9.000012 V 23.000024 H 6 V 9.000012 C 6.0011,8.112919 6.341774,7.298506 6.969,6.671256 7.596201,6.044043 8.312916,6.001108 9.2,6.000012 Z"
       id="path1193-367"
       style="fill:#d3dae3;fill-opacity:1;stroke-width:0.047619"
       sodipodi:nodetypes="ccccccccccccccccccccccccc" />
    <path
       d="m 22,17.021 h -7 v 2 h -4 c -0.942859,0 -2,-0.968749 -2,-2 0,-1.031249 1.057141,-2 2,-2 h 10 c 1.57144,0 3,-1.30225 3,-3.020994 C 24,10.28125 22.57144,9.021 21,9.021 h -4 v -2 h -7 v 1 H 8 v 3 h 2 v 1 h 7 v -2 h 4 c 0.942854,0 2,0.947756 2,1.979006 C 23,13.031254 21.942854,14.021 21,14.021 H 11 c -1.5714303,0 -3,1.281249 -3,3 0,1.718747 1.4291406,2.957645 3,3 h 4 v 2 h 7 v -1 h 2 v -3 h -2 z m -13,-7 v -1 h 1 v 1 z M 11.428561,8.2500036 V 10.750001 Z M 23,19.021 v 1 h -1 v -1 z"
       id="path33139-1"
       style="fill:#d3dae3;fill-opacity:1;stroke-width:0.0341489"
       sodipodi:nodetypes="cccssssssccccccccccssssssccccccccccccccccccccc" />
  </g>
  <g
     id="slc-share"
     transform="translate(-32)">
    <rect
       style="opacity:0.00100002;stroke-width:1.45455"
       width="32"
       height="32"
       x="0"
       y="0"
       id="rect7" />
    <path
       inkscape:connector-curvature="0"
       id="path9068-9-37-8-0-1-1"
       d="m 25.999992,6 -20.199999,5e-6 V 23.1 h 20.399999 z"
       style="display:inline;overflow:visible;visibility:visible;opacity:0.6;fill:url(#linearGradient35495);fill-opacity:1.0;fill-rule:nonzero;stroke:none;stroke-width:0.653705;marker:none"
       sodipodi:nodetypes="cccccc" />
    <path
       d="M 22.963625,4 H 9.036071 C 7.70089,4.0015 6.420747,4.532573 5.476753,5.476774 4.532567,6.420787 4.001524,7.700875 4,9.036068 v 13.928051 -1.9e-4 c 0.0015,1.335156 0.532567,2.615282 1.476753,3.559294 0.943994,0.944202 2.224137,1.475226 3.559318,1.476775 h 13.928035 -1.94e-4 c 1.335183,-0.0015 2.615324,-0.532573 3.559318,-1.476775 0.944187,-0.944012 1.475232,-2.224138 1.476755,-3.559294 V 9.036333 C 27.998185,7.701177 27.467417,6.421051 26.52323,5.477038 25.579236,4.532837 24.299095,4.001814 22.963911,4.000264 Z M 9.2,6.000012 h 13.599999 c 0.887095,0.0011 1.603761,0.04384 2.231,0.671244 C 25.658231,7.298468 25.9989,8.112919 26,9.000012 V 23.000024 H 6 V 9.000012 C 6.0011,8.112919 6.341774,7.298506 6.969,6.671256 7.596201,6.044043 8.312916,6.001108 9.2,6.000012 Z"
       id="path1193-367-5"
       style="fill:#d3dae3;fill-opacity:1;stroke-width:0.047619"
       sodipodi:nodetypes="ccccccccccccccccccccccccc" />
    <path
       d="m 23.5,19.857168 c 0,0.765553 -0.408298,1.472973 -1.070934,1.85575 -0.662627,0.382776 -1.47923,0.382776 -2.141867,0 -0.662627,-0.382777 -1.070934,-1.090197 -1.070934,-1.85575 0.0055,-0.377879 0.110797,-0.747492 0.305268,-1.071431 L 15.773265,15 H 12.715714 C 12.540372,15.679226 12.044,16.265241 11.386589,16.509191 10.729223,16.753011 9.994142,16.659622 9.4186495,16.259029 8.8431242,15.858436 8.5,15.201466 8.5,14.500015 8.5,13.798564 8.8431542,13.141594 9.4186495,12.741001 9.994169,12.340408 10.729223,12.247009 11.386589,12.49084 12.04396,12.734783 12.540364,13.320774 12.715714,14 h 3.068071 l 3.748271,-3.785706 c -0.198169,-0.3228686 -0.30717,-0.6926032 -0.315897,-1.0714314 0,-0.5683513 0.225667,-1.1134026 0.627385,-1.5151851 0.401598,-0.401913 0.946398,-0.6276772 1.514485,-0.6276772 0.568086,0 1.112886,0.2257642 1.514485,0.6276772 0.401718,0.4017825 0.627384,0.9468338 0.627384,1.5151851 0,0.5683484 -0.225666,1.1134004 -0.627384,1.5151874 -0.401599,0.40191 -0.946399,0.627675 -1.514485,0.627675 -0.377704,-0.0055 -0.74714,-0.110851 -1.070932,-0.305407 l -3.528576,3.519805 3.528576,3.519804 c 0.323792,-0.194556 0.693229,-0.299906 1.070932,-0.305407 0.568086,0 1.112886,0.225766 1.514485,0.627675 0.401718,0.401787 0.627384,0.946839 0.627384,1.515187 z"
       id="path35134-4"
       style="fill:#d3dae3;fill-opacity:1;stroke-width:0.0306053"
       sodipodi:nodetypes="cssccccccscccccccscsccccccccc" />
  </g>
  <path
     d="m -21.5,-53.142832 c 0,0.765553 -0.408298,1.472973 -1.070934,1.85575 -0.662627,0.382776 -1.47923,0.382776 -2.141867,0 -0.662627,-0.382777 -1.070934,-1.090197 -1.070934,-1.85575 0.0055,-0.377879 0.110797,-0.747492 0.305268,-1.071431 L -29.226735,-58 h -3.057551 c -0.175342,0.679226 -0.671714,1.265241 -1.329125,1.509191 -0.657366,0.24382 -1.392447,0.150431 -1.967939,-0.250162 -0.575526,-0.400593 -0.91865,-1.057563 -0.91865,-1.759014 0,-0.701451 0.343154,-1.358421 0.91865,-1.759014 0.575519,-0.400593 1.310573,-0.493992 1.967939,-0.250161 0.657371,0.243943 1.153775,0.829934 1.329125,1.50916 h 3.068071 l 3.748271,-3.785706 c -0.198169,-0.322869 -0.30717,-0.692603 -0.315897,-1.071431 0,-0.568352 0.225667,-1.113403 0.627385,-1.515185 C -24.754858,-65.774236 -24.210058,-66 -23.641971,-66 c 0.568086,0 1.112886,0.225765 1.514485,0.627678 0.401718,0.401782 0.627384,0.946833 0.627384,1.515185 0,0.568348 -0.225666,1.1134 -0.627384,1.515187 -0.401599,0.40191 -0.946399,0.627675 -1.514485,0.627675 -0.377704,-0.0055 -0.74714,-0.110851 -1.070932,-0.305407 l -3.528576,3.519805 3.528576,3.519804 c 0.323792,-0.194556 0.693229,-0.299906 1.070932,-0.305407 0.568086,0 1.112886,0.225766 1.514485,0.627675 0.401718,0.401787 0.627384,0.946839 0.627384,1.515187 z"
     id="path35134-4-8"
     style="fill:#d3dae3;fill-opacity:1;stroke-width:0.0306053"
     sodipodi:nodetypes="cssccccccscccccccscsccccccccc" />
  <g
     id="22-22-slc-share"
     transform="translate(-32,-22)">
    <rect
       y="0"
       x="0"
       height="22"
       width="22"
       id="rect3791-7"
       style="fill:#ffffff;fill-opacity:0;stroke:none" />
    <path
       inkscape:connector-curvature="0"
       id="path9068-9-37-8-0-1-0-1-3-7-4-6-1-2"
       d="m 19.118506,2.604448 -17.118508,5e-6 v 14.790996 h 17.288 z"
       style="display:inline;overflow:visible;visibility:visible;opacity:0.6;fill:url(#linearGradient25821);fill-opacity:1.0;fill-rule:nonzero;stroke:none;stroke-width:0.55969;marker:none"
       sodipodi:nodetypes="cccccc" />
    <path
       d="M 16.803009,0.99995 H 5.19674 C 4.084089,1.00145 3.017279,1.44378 2.23062,2.230602 1.443767,3.017272 1.00126,4.084006 0.999998,5.196699 v 11.606702 -1.51e-4 c 8.62e-4,1.112617 0.443769,2.179389 1.230622,2.96606 0.786659,0.786822 1.853469,1.229367 2.96612,1.230652 h 11.606699 -1.9e-4 c 1.112651,-0.0012 2.179461,-0.44383 2.966111,-1.230652 0.78686,-0.786671 1.22937,-1.853443 1.23063,-2.96606 V 5.196926 C 20.99799,4.084271 20.55622,3.017499 19.76936,2.230828 18.98271,1.444006 17.9159,1.001462 16.803249,1.000176 Z M 5.617001,3 h 10.765998 c 0.73924,0.0011 1.43628,-0.113764 1.959,0.408983 0.522691,0.522671 0.6571,1.018431 0.658,1.757669 v 11.833323 h -16 V 5.166652 C 3.00085,4.427414 3.135306,3.931691 3.658,3.408983 4.180678,2.886312 4.877778,3.000907 5.617001,3 Z"
       id="path1193-3-7-1"
       style="fill:#d3dae3;fill-opacity:1;stroke-width:0.0396828"
       sodipodi:nodetypes="ccccccccccccccccccccccccc" />
    <path
       d="m 16.5,13.928595 c 0,0.561406 -0.299418,1.080178 -0.785345,1.360883 -0.485936,0.280696 -1.084779,0.280696 -1.570704,0 -0.485937,-0.280705 -0.785361,-0.799477 -0.785361,-1.360883 0.0047,-0.277114 0.08122,-0.548161 0.223863,-0.78573 L 10.833734,10.366667 H 8.5915228 C 8.46294,10.864765 8.0989328,11.294512 7.6168322,11.473401 7.134763,11.652211 6.5957045,11.583725 6.1736772,11.289951 5.751624,10.99619 5.5,10.514411 5.5,10.000011 5.5,9.4856128 5.751646,9.0038348 6.1736772,8.7100682 6.5957242,8.4162998 7.134763,8.3478058 7.6168322,8.526616 8.098904,8.705507 8.4629328,9.135234 8.5915228,9.6333328 h 2.2499132 l 2.74874,-2.7761836 C 13.444847,6.6203778 13.364921,6.3492398 13.358519,6.0714325 c 0,-0.4167903 0.165486,-0.8164957 0.460073,-1.1111347 C 14.113102,4.66556 14.512622,4.5 14.929227,4.5 c 0.416598,0 0.816118,0.165561 1.110613,0.4602978 0.294592,0.294639 0.46009,0.6943444 0.46009,1.1111347 0,0.4167897 -0.165498,0.8164943 -0.46009,1.1111375 -0.294495,0.294734 -0.694015,0.460295 -1.110613,0.460295 -0.276984,-0.00397 -0.547906,-0.081291 -0.785362,-0.2239655 l -2.587622,2.5811915 2.587622,2.581194 c 0.237456,-0.142674 0.508379,-0.219942 0.785362,-0.223965 0.416598,0 0.816118,0.165561 1.110613,0.460283 0.294592,0.294657 0.46009,0.694351 0.46009,1.111139 z"
       id="path35134-4-8-2"
       style="fill:#d3dae3;fill-opacity:1;stroke-width:0.0224445"
       sodipodi:nodetypes="cssccccccscccccccscsccccccccc" />
  </g>
  <g
     id="22-22-slc-connect"
     transform="translate(-64,-22.021)">
    <rect
       y="0"
       x="0"
       height="22"
       width="22"
       id="rect3791-2"
       style="fill:#ffffff;fill-opacity:0;stroke:none" />
    <path
       inkscape:connector-curvature="0"
       id="path9068-9-37-8-0-1-0-1-3-7-4-6-1-1"
       d="m 19.118507,2.604498 -17.118508,5e-6 v 14.790995 h 17.288 z"
       style="display:inline;overflow:visible;visibility:visible;opacity:0.6;fill:url(#linearGradient25848);fill-opacity:1.0;fill-rule:nonzero;stroke:none;stroke-width:0.55969;marker:none"
       sodipodi:nodetypes="cccccc" />
    <path
       d="M 16.80301,1 H 5.196741 C 4.08409,1.0015 3.01728,1.44383 2.230621,2.230652 1.443768,3.017322 1.001261,4.084056 0.999999,5.196749 V 16.80345 16.8033 c 8.62e-4,1.112617 0.443769,2.179389 1.230622,2.966061 0.786659,0.786822 1.853469,1.229365 2.96612,1.230651 h 11.606699 -1.9e-4 c 1.112651,-0.0012 2.179461,-0.443829 2.966111,-1.230651 0.78686,-0.786671 1.22937,-1.853443 1.23063,-2.96606 V 5.196976 C 20.997991,4.084321 20.556221,3.017549 19.769361,2.230878 18.982711,1.444056 17.915901,1.001512 16.80325,1.000226 Z M 5.617002,3.00005 H 16.383 c 0.73924,0.0011 1.43628,-0.113764 1.959,0.408983 0.522691,0.522671 0.6571,1.018431 0.658,1.757669 V 17.000024 H 3 V 5.166702 C 3.000851,4.427464 3.135307,3.931741 3.658001,3.409033 4.180679,2.886362 4.877779,3.000957 5.617002,3.00005 Z"
       id="path1193-3-7-10"
       style="fill:#d3dae3;fill-opacity:1;stroke-width:0.0396828"
       sodipodi:nodetypes="ccccccccccccccccccccccccc" />
    <path
       d="m 15.500006,12 h -5.250005 v 1.6 H 7.2500006 C 6.542856,13.6 5.7499999,12.825001 5.7499999,12 c 0,-0.824999 0.7928561,-1.600001 1.5000007,-1.600001 H 14.75 C 15.928581,10.399999 17,9.3582 17,7.983205 17,6.6082 15.928581,5.6 14.75,5.6 H 11.750001 V 4 H 6.5000008 V 4.8 H 5 V 7.2 H 6.5000008 V 8 H 11.750001 V 6.4 H 14.75 c 0.707148,0 1.500003,0.758205 1.500003,1.583205 0,0.824998 -0.792855,1.616797 -1.500003,1.616797 H 7.2500006 C 6.0714279,9.600002 5,10.624999 5,12 c 0,1.374997 1.0718563,2.366115 2.2500006,2.4 H 10.250001 V 16 h 5.250005 V 15.2 H 17 V 12.8 H 15.500006 Z M 5.7499999,6.4 V 5.6 H 6.5000008 V 6.4 Z M 7.5714214,4.983201 v 2 z M 16.250003,13.6 v 0.8 h -0.749997 v -0.8 z"
       id="path33139-1-5-5"
       style="fill:#d3dae3;fill-opacity:1;stroke-width:0.0264507"
       sodipodi:nodetypes="cccssssssccccccccccssssssccccccccccccccccccccc" />
  </g>
</svg>
