<?xml version="1.0" encoding="UTF-8" standalone="no"?>
<svg
   id="svg4153"
   width="32"
   height="32"
   version="1.1"
   viewBox="0 0 32 32"
   sodipodi:docname="sogoupinyin.svg"
   inkscape:version="1.3.2 (091e20ef0f, 2023-11-25)"
   xmlns:inkscape="http://www.inkscape.org/namespaces/inkscape"
   xmlns:sodipodi="http://sodipodi.sourceforge.net/DTD/sodipodi-0.dtd"
   xmlns:xlink="http://www.w3.org/1999/xlink"
   xmlns="http://www.w3.org/2000/svg"
   xmlns:svg="http://www.w3.org/2000/svg"
   xmlns:rdf="http://www.w3.org/1999/02/22-rdf-syntax-ns#"
   xmlns:cc="http://creativecommons.org/ns#"
   xmlns:dc="http://purl.org/dc/elements/1.1/">
  <metadata
     id="metadata35">
    <rdf:RDF>
      <cc:Work
         rdf:about="">
        <dc:format>image/svg+xml</dc:format>
        <dc:type
           rdf:resource="http://purl.org/dc/dcmitype/StillImage" />
      </cc:Work>
    </rdf:RDF>
  </metadata>
  <sodipodi:namedview
     pagecolor="#ffffff"
     bordercolor="#000000"
     borderopacity="1"
     objecttolerance="10"
     gridtolerance="10"
     guidetolerance="10"
     inkscape:pageopacity="0"
     inkscape:pageshadow="2"
     inkscape:window-width="1920"
     inkscape:window-height="994"
     id="namedview33"
     showgrid="false"
     inkscape:zoom="2.8284271"
     inkscape:cx="4.9497475"
     inkscape:cy="-10.606602"
     inkscape:window-x="0"
     inkscape:window-y="0"
     inkscape:window-maximized="1"
     inkscape:current-layer="svg4153"
     inkscape:document-rotation="0"
     showguides="true"
     inkscape:pagecheckerboard="0"
     inkscape:showpageshadow="false"
     inkscape:lockguides="false"
     inkscape:deskcolor="#d1d1d1">
    <inkscape:grid
       type="xygrid"
       id="grid18909"
       originx="-37.796871"
       originy="-89.549995"
       spacingy="1"
       spacingx="1"
       units="px"
       visible="false" />
  </sodipodi:namedview>
  <defs
     id="defs4157">
    <linearGradient
       inkscape:collect="always"
       id="linearGradient29458">
      <stop
         style="stop-color:#5581aa;stop-opacity:1;"
         offset="0"
         id="stop29454" />
      <stop
         style="stop-color:#6db2c5;stop-opacity:1;"
         offset="1"
         id="stop29456" />
    </linearGradient>
    <style
       id="current-color-scheme"
       type="text/css" />
    <linearGradient
       inkscape:collect="always"
       xlink:href="#linearGradient29458"
       id="linearGradient5058"
       x1="148.9608"
       y1="596.36218"
       x2="148.9608"
       y2="636.12817"
       gradientUnits="userSpaceOnUse"
       gradientTransform="matrix(0.50999969,0,0,0.42750131,-58.969959,-248.94562)" />
    <linearGradient
       inkscape:collect="always"
       xlink:href="#linearGradient29458"
       id="linearGradient1"
       gradientUnits="userSpaceOnUse"
       gradientTransform="matrix(0.50999969,0,0,0.42750131,-21.766832,-297.99562)"
       x1="148.9608"
       y1="596.36218"
       x2="148.9608"
       y2="636.12817" />
    <linearGradient
       inkscape:collect="always"
       xlink:href="#linearGradient29458"
       id="linearGradient2"
       gradientUnits="userSpaceOnUse"
       gradientTransform="matrix(0.50999969,0,0,0.42750131,-58.969959,-248.94562)"
       x1="148.9608"
       y1="596.36218"
       x2="148.9608"
       y2="636.12817" />
    <linearGradient
       inkscape:collect="always"
       xlink:href="#linearGradient29458"
       id="linearGradient3"
       gradientUnits="userSpaceOnUse"
       gradientTransform="matrix(0.43219982,0,0,0.36977632,-52.889369,-217.9162)"
       x1="146.80391"
       y1="596.36243"
       x2="146.99998"
       y2="636.3623" />
    <linearGradient
       inkscape:collect="always"
       xlink:href="#linearGradient29458"
       id="linearGradient4"
       gradientUnits="userSpaceOnUse"
       gradientTransform="matrix(0.50999969,0,0,0.42750131,-58.969959,-248.94562)"
       x1="148.9608"
       y1="596.36218"
       x2="148.9608"
       y2="636.12817" />
    <linearGradient
       inkscape:collect="always"
       xlink:href="#linearGradient29458"
       id="linearGradient5"
       gradientUnits="userSpaceOnUse"
       gradientTransform="matrix(0.50999969,0,0,0.42750131,-58.969959,-205.44562)"
       x1="148.9608"
       y1="596.36218"
       x2="148.9608"
       y2="636.12817" />
    <linearGradient
       inkscape:collect="always"
       xlink:href="#linearGradient29458"
       id="linearGradient7"
       gradientUnits="userSpaceOnUse"
       gradientTransform="matrix(0.43219982,0,0,0.36977632,-52.88937,-217.9162)"
       x1="146.80391"
       y1="596.36243"
       x2="146.99998"
       y2="636.3623" />
  </defs>
  <use
     x="0"
     y="0"
     xlink:href="#g878"
     id="use880"
     transform="translate(47.87218,-104.55403)"
     width="100%"
     height="100%" />
  <use
     x="0"
     y="0"
     xlink:href="#use880"
     id="use882"
     transform="translate(-24.48118,0.18978)"
     width="100%"
     height="100%" />
  <use
     x="0"
     y="0"
     xlink:href="#use884"
     id="use886"
     transform="translate(47.30285,-103.79493)"
     width="100%"
     height="100%" />
  <g
     id="g6"
     transform="matrix(0.81634558,0,0,0.81634558,44.26031,-117.16855)" />
  <g
     id="sogoupinyin"
     transform="translate(-37.796873,-89.55)">
    <rect
       style="opacity:0.00100002"
       width="32"
       height="32"
       x="0"
       y="0"
       id="rect633" />
    <path
       inkscape:connector-curvature="0"
       id="path9068-9-37-8-0-1"
       d="m 26.2,6 -20.4,5e-6 V 23.1 h 20.4 z"
       style="display:inline;overflow:visible;visibility:visible;opacity:0.6;fill:url(#linearGradient5058);fill-opacity:1;fill-rule:nonzero;stroke:none;stroke-width:0.653705;marker:none"
       sodipodi:nodetypes="ccccc" />
    <path
       d="M 22.963625,4 H 9.036071 C 7.700891,4.0015 6.420748,4.532573 5.476754,5.476775 4.532568,6.420788 4.001525,7.700876 4,9.036069 v 13.928051 -1.9e-4 c 0.0015,1.335156 0.532568,2.615282 1.476754,3.559294 0.943994,0.944202 2.224137,1.475226 3.559318,1.476775 h 13.928034 -1.94e-4 c 1.335183,-0.0015 2.615324,-0.532573 3.559318,-1.476775 0.944187,-0.944012 1.475232,-2.224138 1.476755,-3.559294 V 9.036334 C 27.998185,7.701178 27.467417,6.421052 26.52323,5.477039 25.579236,4.532837 24.299095,4.001814 22.963911,4.000264 Z M 9.200001,6.000013 h 13.599998 c 0.887095,0.0011 1.603761,0.04384 2.231,0.671244 C 25.658231,7.298469 25.9989,8.11292 26,9.000013 V 23.000025 H 6 V 9.000013 C 6.0011,8.11292 6.341775,7.298507 6.969001,6.671257 7.596202,6.044044 8.312917,6.001109 9.200001,6.000013 Z"
       id="path1193-5-4"
       style="fill:#d3dae3;fill-opacity:1;stroke-width:0.047619"
       sodipodi:nodetypes="ccccccccccccccccccccccccc" />
    <path
       d="m 15.619292,8.5523061 c 0.445962,-0.0075 0.898892,0.0031 1.249864,0.03515 1.763405,0.166982 3.298638,0.715941 4.622493,1.6658169 0.44495,0.315475 0.45396,0.27709 -0.353482,1.202968 -0.657448,0.751927 -0.757367,0.816341 -0.919819,0.773355 -0.0415,-0.0085 -0.229295,-0.09805 -0.423783,-0.205057 -1.008891,-0.564448 -2.152164,-0.972454 -3.042667,-1.081881 -0.477928,-0.05799 -0.847426,0.01155 -1.038987,0.205057 -0.09749,0.09698 -0.135311,0.354011 -0.0703,0.497995 0.11747,0.27048 0.575348,0.530082 1.792804,1.015489 1.742309,0.697943 2.46733,1.069683 3.183251,1.630721 0.713442,0.560448 1.156673,1.223866 1.322154,1.958785 0.10017,0.453461 0.06384,1.201869 -0.07227,1.581826 -0.138504,0.390968 -0.318254,0.669516 -0.613213,0.995981 -0.824938,0.91942 -2.391737,1.548431 -4.314026,1.702913 -0.350952,0.026 -1.348752,0.02349 -1.628722,0 -1.22836,-0.104987 -1.882788,-0.225594 -2.663803,-0.515562 -0.465459,-0.171482 -0.743218,-0.308237 -1.156073,-0.550721 -0.380479,-0.221474 -1.072682,-0.73393 -1.320155,-0.978413 -0.2505429,-0.244983 -0.2452839,-0.317325 0.117177,-0.671805 0.556949,-0.543451 1.312256,-1.215366 1.415845,-1.271361 0.136964,-0.07349 0.17422,-0.06276 0.63665,0.240203 0.45949,0.302978 1.016988,0.575877 1.579927,0.773356 0.798423,0.285479 1.372649,0.407565 2.027077,0.412065 0.35697,0.002 0.424723,-0.01943 0.613213,-0.08593 0.282969,-0.102983 0.405335,-0.221865 0.425733,-0.462839 0.01184,-0.151983 -0.0188,-0.217226 -0.09569,-0.343712 -0.196962,-0.311468 -0.618306,-0.56251 -2.003685,-1.185363 -1.155372,-0.521452 -1.556429,-0.723709 -2.075972,-1.031087 -1.223366,-0.72494 -1.872295,-1.44754 -2.146264,-2.388437 -0.08229,-0.266981 -0.05556,-0.968364 0.02344,-1.27326 0.143995,-0.504956 0.3619,-0.892813 0.730391,-1.2537639 0.672935,-0.665947 1.715811,-1.124576 3.019168,-1.324054 0.290989,-0.0435 0.73358,-0.06025 1.179571,-0.06835 z"
       id="path5640"
       style="color:#4e70ac;fill:#2ca089;fill-opacity:1"
       class="ColorScheme-Highlight" />
  </g>
  <g
     id="fcitx-sogoupinyin"
     transform="translate(-75,5)">
    <rect
       style="opacity:0.00100002"
       width="32"
       height="32"
       x="37.203129"
       y="-49.049999"
       id="rect633-5" />
    <path
       inkscape:connector-curvature="0"
       id="path9068-9-37-8-0-1-3"
       d="m 63.403127,-43.05 -20.4,5e-6 V -25.95 h 20.4 z"
       style="display:inline;overflow:visible;visibility:visible;opacity:0.6;fill:url(#linearGradient1);fill-opacity:1;fill-rule:nonzero;stroke:none;stroke-width:0.653705;marker:none"
       sodipodi:nodetypes="ccccc" />
    <path
       d="M 60.166752,-45.05 H 46.239198 c -1.33518,0.0015 -2.615323,0.532573 -3.559317,1.476775 -0.944186,0.944013 -1.475229,2.224101 -1.476754,3.559294 v 13.928051 -1.9e-4 c 0.0015,1.335156 0.532568,2.615282 1.476754,3.559294 0.943994,0.944202 2.224137,1.475226 3.559318,1.476775 h 13.928034 -1.94e-4 c 1.335183,-0.0015 2.615324,-0.532573 3.559318,-1.476775 0.944187,-0.944012 1.475232,-2.224138 1.476755,-3.559294 v -13.927596 c -0.0018,-1.335156 -0.532568,-2.615282 -1.476755,-3.559295 -0.943994,-0.944202 -2.224135,-1.475225 -3.559319,-1.476775 z m -13.763624,2.000013 h 13.599998 c 0.887095,0.0011 1.603761,0.04384 2.231,0.671244 0.627232,0.627212 0.967901,1.441663 0.969001,2.328756 v 14.000012 h -20 v -14.000012 c 0.0011,-0.887093 0.341775,-1.701506 0.969001,-2.328756 0.627201,-0.627213 1.343916,-0.670148 2.231,-0.671244 z"
       id="path1193-5-4-5"
       style="fill:#d3dae3;fill-opacity:1;stroke-width:0.047619"
       sodipodi:nodetypes="ccccccccccccccccccccccccc" />
    <path
       d="m 52.822419,-40.497694 c 0.445962,-0.0075 0.898892,0.0031 1.249864,0.03515 1.763405,0.166982 3.298638,0.715941 4.622493,1.665817 0.44495,0.315475 0.45396,0.27709 -0.353482,1.202968 -0.657448,0.751927 -0.757367,0.816341 -0.919819,0.773355 -0.0415,-0.0085 -0.229295,-0.09805 -0.423783,-0.205057 -1.008891,-0.564448 -2.152164,-0.972454 -3.042667,-1.081881 -0.477928,-0.05799 -0.847426,0.01155 -1.038987,0.205057 -0.09749,0.09698 -0.135311,0.354011 -0.0703,0.497995 0.11747,0.27048 0.575348,0.530082 1.792804,1.015489 1.742309,0.697943 2.46733,1.069683 3.183251,1.630721 0.713442,0.560448 1.156673,1.223866 1.322154,1.958785 0.10017,0.453461 0.06384,1.201869 -0.07227,1.581826 -0.138504,0.390968 -0.318254,0.669516 -0.613213,0.995981 -0.824938,0.91942 -2.391737,1.548431 -4.314026,1.702913 -0.350952,0.026 -1.348752,0.02349 -1.628722,0 -1.22836,-0.104987 -1.882788,-0.225594 -2.663803,-0.515562 -0.465459,-0.171482 -0.743218,-0.308237 -1.156073,-0.550721 -0.380479,-0.221474 -1.072682,-0.73393 -1.320155,-0.978413 -0.250543,-0.244983 -0.245284,-0.317325 0.117177,-0.671805 0.556949,-0.543451 1.312256,-1.215366 1.415845,-1.271361 0.136964,-0.07349 0.17422,-0.06276 0.63665,0.240203 0.45949,0.302978 1.016988,0.575877 1.579927,0.773356 0.798423,0.285479 1.372649,0.407565 2.027077,0.412065 0.35697,0.002 0.424723,-0.01943 0.613213,-0.08593 0.282969,-0.102983 0.405335,-0.221865 0.425733,-0.462839 0.01184,-0.151983 -0.0188,-0.217226 -0.09569,-0.343712 -0.196962,-0.311468 -0.618306,-0.56251 -2.003685,-1.185363 -1.155372,-0.521452 -1.556429,-0.723709 -2.075972,-1.031087 -1.223366,-0.72494 -1.872295,-1.44754 -2.146264,-2.388437 -0.08229,-0.266981 -0.05556,-0.968364 0.02344,-1.27326 0.143995,-0.504956 0.3619,-0.892813 0.730391,-1.253764 0.672935,-0.665947 1.715811,-1.124576 3.019168,-1.324054 0.290989,-0.0435 0.73358,-0.06025 1.179571,-0.06835 z"
       id="path5640-6"
       style="color:#4e70ac;fill:#2ca089;fill-opacity:1"
       class="ColorScheme-Highlight" />
  </g>
  <g
     id="sogou_notify"
     transform="translate(-37.796873,1.45)">
    <rect
       style="opacity:0.00100002"
       width="32"
       height="32"
       x="0"
       y="0"
       id="rect633-5-2" />
    <path
       inkscape:connector-curvature="0"
       id="path9068-9-37-8-0-1-3-7"
       d="m 26.2,6 -20.4,5e-6 V 23.1 h 20.4 z"
       style="display:inline;overflow:visible;visibility:visible;opacity:0.6;fill:url(#linearGradient2);fill-opacity:1;fill-rule:nonzero;stroke:none;stroke-width:0.653705;marker:none"
       sodipodi:nodetypes="ccccc" />
    <path
       d="M 22.963625,4 H 9.036071 C 7.700891,4.0015 6.420748,4.532573 5.476754,5.476775 4.532568,6.420788 4.001525,7.700876 4,9.036069 v 13.928051 -1.9e-4 c 0.0015,1.335156 0.532568,2.615282 1.476754,3.559294 0.943994,0.944202 2.224137,1.475226 3.559318,1.476775 h 13.928034 -1.94e-4 c 1.335183,-0.0015 2.615324,-0.532573 3.559318,-1.476775 0.944187,-0.944012 1.475232,-2.224138 1.476755,-3.559294 V 9.036334 C 27.998185,7.701178 27.467417,6.421052 26.52323,5.477039 25.579236,4.532837 24.299095,4.001814 22.963911,4.000264 Z M 9.200001,6.000013 h 13.599998 c 0.887095,0.0011 1.603761,0.04384 2.231,0.671244 C 25.658231,7.298469 25.9989,8.11292 26,9.000013 V 23.000025 H 6 V 9.000013 C 6.0011,8.11292 6.341775,7.298507 6.969001,6.671257 7.596202,6.044044 8.312917,6.001109 9.200001,6.000013 Z"
       id="path1193-5-4-5-0"
       style="fill:#d3dae3;fill-opacity:1;stroke-width:0.047619"
       sodipodi:nodetypes="ccccccccccccccccccccccccc" />
    <path
       d="m 15.619292,8.552306 c 0.445962,-0.0075 0.898892,0.0031 1.249864,0.03515 1.763405,0.166982 3.298638,0.715941 4.622493,1.665817 0.44495,0.315475 0.45396,0.27709 -0.353482,1.202968 -0.657448,0.751927 -0.757367,0.816341 -0.919819,0.773355 -0.0415,-0.0085 -0.229295,-0.09805 -0.423783,-0.205057 -1.008891,-0.564448 -2.152164,-0.972454 -3.042667,-1.081881 -0.477928,-0.05799 -0.847426,0.01155 -1.038987,0.205057 -0.09749,0.09698 -0.135311,0.354011 -0.0703,0.497995 0.11747,0.27048 0.575348,0.530082 1.792804,1.015489 1.742309,0.697943 2.46733,1.069683 3.183251,1.630721 0.713442,0.560448 1.156673,1.223866 1.322154,1.958785 0.10017,0.453461 0.06384,1.201869 -0.07227,1.581826 -0.138504,0.390968 -0.318254,0.669516 -0.613213,0.995981 -0.824938,0.91942 -2.391737,1.548431 -4.314026,1.702913 -0.350952,0.026 -1.348752,0.02349 -1.628722,0 -1.22836,-0.104987 -1.882788,-0.225594 -2.663803,-0.515562 -0.465459,-0.171482 -0.743218,-0.308237 -1.156073,-0.550721 -0.380479,-0.221474 -1.072682,-0.73393 -1.320155,-0.978413 -0.2505429,-0.244983 -0.2452839,-0.317325 0.117177,-0.671805 0.556949,-0.543451 1.312256,-1.215366 1.415845,-1.271361 0.136964,-0.07349 0.17422,-0.06276 0.63665,0.240203 0.45949,0.302978 1.016988,0.575877 1.579927,0.773356 0.798423,0.285479 1.372649,0.407565 2.027077,0.412065 0.35697,0.002 0.424723,-0.01943 0.613213,-0.08593 0.282969,-0.102983 0.405335,-0.221865 0.425733,-0.462839 0.01184,-0.151983 -0.0188,-0.217226 -0.09569,-0.343712 -0.196962,-0.311468 -0.618306,-0.56251 -2.003685,-1.185363 -1.155372,-0.521452 -1.556429,-0.723709 -2.075972,-1.031087 -1.223366,-0.72494 -1.872295,-1.44754 -2.146264,-2.388437 -0.08229,-0.266981 -0.05556,-0.968364 0.02344,-1.27326 0.143995,-0.504956 0.3619,-0.892813 0.730391,-1.253764 0.672935,-0.665947 1.715811,-1.124576 3.019168,-1.324054 0.290989,-0.0435 0.73358,-0.06025 1.179571,-0.06835 z"
       id="path5640-6-9"
       style="color:#4e70ac;fill:#2ca089;fill-opacity:1"
       class="ColorScheme-Highlight" />
  </g>
  <g
     id="22-22-fcitx-sogoupinyin"
     transform="translate(-75,-40.5)">
    <rect
       style="opacity:0.00100002"
       width="22"
       height="22"
       x="0"
       y="0"
       id="rect606-6" />
    <path
       inkscape:connector-curvature="0"
       id="path9068-9-37-8-0-1-0-1-3-7-4-6-1-4-2"
       d="M 19.118508,2.604498 2,2.604503 v 14.790996 h 17.288 z"
       style="display:inline;overflow:visible;visibility:visible;opacity:0.6;fill:url(#linearGradient3);fill-opacity:1;fill-rule:nonzero;stroke:none;stroke-width:0.55969;marker:none"
       sodipodi:nodetypes="cccccc" />
    <path
       d="M 16.803011,1 H 5.196742 C 4.084091,1.0015 3.017281,1.44383 2.230622,2.230652 1.443769,3.017322 1.001262,4.084056 1,5.196749 V 16.803451 16.8033 c 8.62e-4,1.112617 0.443769,2.179389 1.230622,2.96606 0.786659,0.786822 1.853469,1.229367 2.96612,1.230652 h 11.606699 -1.9e-4 c 1.112651,-0.0012 2.179461,-0.44383 2.966111,-1.230652 0.78686,-0.786671 1.22937,-1.853443 1.23063,-2.96606 V 5.196976 c -0.002,-1.112655 -0.44377,-2.179427 -1.23063,-2.966098 -0.78665,-0.786822 -1.85346,-1.229366 -2.966111,-1.230652 z M 5.617003,3.00005 h 10.765998 c 0.73924,0.0011 1.43628,-0.113764 1.959,0.408983 0.522691,0.522671 0.6571,1.018431 0.658,1.757669 v 11.833323 h -16 V 5.166702 C 3.000852,4.427464 3.135308,3.931741 3.658002,3.409033 4.18068,2.886362 4.87778,3.000957 5.617003,3.00005 Z"
       id="path1193-3-7-0-6"
       style="fill:#d3dae3;fill-opacity:1;stroke-width:0.0396828"
       sodipodi:nodetypes="ccccccccccccccccccccccccc" />
    <path
       d="m 10.328041,5.0018871 c 0.371668,-0.0062 0.74915,0.00269 1.041658,0.029299 1.469642,0.1391515 2.749122,0.596617 3.852437,1.3881793 0.370831,0.2628952 0.378337,0.2309066 -0.294591,1.0024709 -0.547929,0.6266053 -0.631203,0.6802821 -0.766595,0.6444616 -0.03466,-0.0071 -0.191091,-0.081709 -0.353181,-0.17088 -0.840819,-0.4703732 -1.793646,-0.810377 -2.535801,-0.9015675 -0.398306,-0.048323 -0.70625,0.00969 -0.865903,0.1708815 -0.0812,0.08082 -0.112787,0.2950088 -0.05866,0.4149958 0.09792,0.2253994 0.479502,0.4417342 1.494146,0.8462387 1.45206,0.5816183 2.056304,0.8914003 2.652959,1.3589303 0.594593,0.4670453 0.963988,1.0198873 1.101903,1.6323173 0.08351,0.377882 0.05316,1.001559 -0.06018,1.318185 -0.115411,0.325806 -0.265236,0.557937 -0.511057,0.829986 -0.687517,0.766182 -1.993304,1.29036 -3.595364,1.41909 -0.292491,0.02172 -1.124071,0.01965 -1.357399,0 C 9.0487135,14.896975 8.5033052,14.796479 7.8523978,14.554844 7.4644742,14.411944 7.2329862,14.297978 6.8889077,14.095907 6.5718118,13.91135 5.9949209,13.4843 5.788674,13.280568 5.5798689,13.07641 5.5842525,13.016133 5.8863364,12.720733 c 0.4641691,-0.452878 1.0936515,-1.012806 1.1799822,-1.059466 0.1141424,-0.06121 0.1451992,-0.05225 0.5305925,0.200169 0.3829454,0.252473 0.8475717,0.479897 1.3167322,0.644457 0.6654142,0.237898 1.1439837,0.339643 1.6893927,0.34339 0.297501,0.0013 0.353967,-0.01615 0.51106,-0.07168 0.235827,-0.08586 0.337811,-0.184884 0.354811,-0.385697 0.0099,-0.126654 -0.01572,-0.181024 -0.0798,-0.286429 C 11.224992,11.845974 10.873841,11.636773 9.7192475,11.117732 8.7563548,10.683196 8.4221099,10.514652 7.9891174,10.258502 6.9695483,9.6543857 6.428722,9.0522227 6.2003924,8.2681421 6.1318057,8.0456587 6.1540966,7.4611734 6.2199221,7.2070927 6.3399271,6.7862985 6.5215349,6.4630842 6.8286386,6.1622931 7.3894722,5.6073373 8.2586167,5.2251476 9.3448515,5.0589163 9.5873635,5.0226733 9.9562255,5.0087043 10.32792,5.0019543 Z"
       id="path5"
       style="color:#4e70ac;fill:#2ca089;fill-opacity:1;stroke-width:1.2494"
       class="ColorScheme-Highlight" />
  </g>
  <g
     id="sogouwubi"
     transform="translate(3.7214735e-7,-43.5)">
    <rect
       style="opacity:0.00100002"
       width="32"
       height="32"
       x="0"
       y="0"
       id="rect633-2" />
    <path
       inkscape:connector-curvature="0"
       id="path9068-9-37-8-0-1-02"
       d="m 26.2,6 -20.4,5e-6 V 23.1 h 20.4 z"
       style="display:inline;overflow:visible;visibility:visible;opacity:0.6;fill:url(#linearGradient4);fill-opacity:1;fill-rule:nonzero;stroke:none;stroke-width:0.653705;marker:none"
       sodipodi:nodetypes="ccccc" />
    <path
       d="M 22.963625,4 H 9.036071 C 7.700891,4.0015 6.420748,4.532573 5.476754,5.476775 4.532568,6.420788 4.001525,7.700876 4,9.036069 v 13.928051 -1.9e-4 c 0.0015,1.335156 0.532568,2.615282 1.476754,3.559294 0.943994,0.944202 2.224137,1.475226 3.559318,1.476775 h 13.928034 -1.94e-4 c 1.335183,-0.0015 2.615324,-0.532573 3.559318,-1.476775 0.944187,-0.944012 1.475232,-2.224138 1.476755,-3.559294 V 9.036334 C 27.998185,7.701178 27.467417,6.421052 26.52323,5.477039 25.579236,4.532837 24.299095,4.001814 22.963911,4.000264 Z M 9.200001,6.000013 h 13.599998 c 0.887095,0.0011 1.603761,0.04384 2.231,0.671244 C 25.658231,7.298469 25.9989,8.11292 26,9.000013 V 23.000025 H 6 V 9.000013 C 6.0011,8.11292 6.341775,7.298507 6.969001,6.671257 7.596202,6.044044 8.312917,6.001109 9.200001,6.000013 Z"
       id="path1193-5-4-3"
       style="fill:#d3dae3;fill-opacity:1;stroke-width:0.047619"
       sodipodi:nodetypes="ccccccccccccccccccccccccc" />
    <path
       d="m 21.620327,16.002302 c 0.445962,-0.0075 0.898892,0.0031 1.249864,0.03515 1.763405,0.166982 3.298638,0.715941 4.622493,1.665817 0.44495,0.315475 0.45396,0.27709 -0.353482,1.202968 -0.657448,0.751927 -0.757367,0.816341 -0.919819,0.773355 -0.0415,-0.0085 -0.229295,-0.09805 -0.423783,-0.205057 -1.008891,-0.564448 -2.152164,-0.972454 -3.042667,-1.081881 -0.477928,-0.05799 -0.847426,0.01155 -1.038987,0.205057 -0.09749,0.09698 -0.135311,0.354011 -0.0703,0.497995 0.11747,0.27048 0.575348,0.530082 1.792804,1.015489 1.742309,0.697943 2.46733,1.069683 3.183251,1.630721 0.713442,0.560448 1.156673,1.223866 1.322154,1.958785 0.10017,0.453461 0.06384,1.201869 -0.07227,1.581826 -0.138504,0.390968 -0.318254,0.669516 -0.613213,0.995981 -0.824938,0.91942 -2.391737,1.548431 -4.314026,1.702913 -0.350952,0.026 -1.348752,0.02349 -1.628722,0 -1.22836,-0.104987 -1.882788,-0.225594 -2.663803,-0.515562 -0.465459,-0.171482 -0.743218,-0.308237 -1.156073,-0.550721 -0.380479,-0.221474 -1.072682,-0.73393 -1.320155,-0.978413 -0.250543,-0.244983 -0.245284,-0.317325 0.117177,-0.671805 0.556949,-0.543451 1.312256,-1.215366 1.415845,-1.271361 0.136964,-0.07349 0.17422,-0.06276 0.63665,0.240203 0.45949,0.302978 1.016988,0.575877 1.579927,0.773356 0.798423,0.285479 1.372649,0.407565 2.027077,0.412065 0.35697,0.002 0.424723,-0.01943 0.613213,-0.08593 0.282969,-0.102983 0.405335,-0.221865 0.425733,-0.462839 0.01184,-0.151983 -0.0188,-0.217226 -0.09569,-0.343712 -0.196962,-0.311468 -0.618306,-0.56251 -2.003685,-1.185363 -1.155372,-0.521452 -1.556429,-0.723709 -2.075972,-1.031087 -1.223366,-0.72494 -1.872295,-1.44754 -2.146264,-2.388437 -0.08229,-0.266981 -0.05556,-0.968364 0.02344,-1.27326 0.143995,-0.504956 0.3619,-0.892813 0.730391,-1.253764 0.672935,-0.665947 1.715811,-1.124576 3.019168,-1.324054 0.290989,-0.0435 0.73358,-0.06025 1.179571,-0.06835 z"
       id="path5640-7"
       style="color:#4e70ac;fill:#2ca089;fill-opacity:1"
       class="ColorScheme-Highlight" />
    <path
       id="path5654"
       d="m 9.606,8.55 v 1.500001 h 4.754882 l -0.802733,3 h -2.45215 V 14.55 h 2.047852 L 11.94975,19.050001 H 9.606 V 20.55 h 5.999999 V 19.050001 H 13.502483 L 14.709516,14.55 h 3.896484 0.169921 1.555665 l 0.36621,-1.371092 -1.450196,-0.38965 -0.07031,0.260743 h -4.066405 l 0.802734,-3 h 5.692383 V 8.55 h -6.84375 z"
       style="color:#d1d5e9;fill:currentColor;fill-opacity:1"
       class="ColorScheme-Text" />
  </g>
  <g
     id="fcitx-sogouwubi"
     transform="translate(3.7214735e-7,-43.5)">
    <rect
       style="opacity:0.00100002"
       width="32"
       height="32"
       x="-3.7214735e-07"
       y="43.5"
       id="rect633-2-2" />
    <path
       inkscape:connector-curvature="0"
       id="path9068-9-37-8-0-1-02-8"
       d="m 26.2,49.5 -20.4000004,5e-6 V 66.6 H 26.2 Z"
       style="display:inline;overflow:visible;visibility:visible;opacity:0.6;fill:url(#linearGradient5);fill-opacity:1;fill-rule:nonzero;stroke:none;stroke-width:0.653705;marker:none"
       sodipodi:nodetypes="ccccc" />
    <path
       d="M 22.963625,47.5 H 9.0360706 c -1.33518,0.0015 -2.615323,0.532573 -3.559317,1.476775 -0.944186,0.944013 -1.475229,2.224101 -1.476754,3.559294 v 13.928051 -1.9e-4 c 0.0015,1.335156 0.532568,2.615282 1.476754,3.559294 0.943994,0.944202 2.224137,1.475226 3.559318,1.476775 h 13.9280344 -1.94e-4 c 1.335183,-0.0015 2.615324,-0.532573 3.559318,-1.476775 0.944187,-0.944012 1.475232,-2.224138 1.476755,-3.559294 V 52.536334 c -0.0018,-1.335156 -0.532568,-2.615282 -1.476755,-3.559295 -0.943994,-0.944202 -2.224135,-1.475225 -3.559319,-1.476775 z M 9.2000006,49.500013 H 22.799999 c 0.887095,0.0011 1.603761,0.04384 2.231,0.671244 C 25.658231,50.798469 25.9989,51.61292 26,52.500013 V 66.500025 H 5.9999996 V 52.500013 c 0.0011,-0.887093 0.341775,-1.701506 0.969001,-2.328756 0.627201,-0.627213 1.343916,-0.670148 2.231,-0.671244 z"
       id="path1193-5-4-3-9"
       style="fill:#d3dae3;fill-opacity:1;stroke-width:0.047619"
       sodipodi:nodetypes="ccccccccccccccccccccccccc" />
    <path
       d="m 21.620327,59.502302 c 0.445962,-0.0075 0.898892,0.0031 1.249864,0.03515 1.763405,0.166982 3.298638,0.715941 4.622493,1.665817 0.44495,0.315475 0.45396,0.27709 -0.353482,1.202968 -0.657448,0.751927 -0.757367,0.816341 -0.919819,0.773355 -0.0415,-0.0085 -0.229295,-0.09805 -0.423783,-0.205057 -1.008891,-0.564448 -2.152164,-0.972454 -3.042667,-1.081881 -0.477928,-0.05799 -0.847426,0.01155 -1.038987,0.205057 -0.09749,0.09698 -0.135311,0.354011 -0.0703,0.497995 0.11747,0.27048 0.575348,0.530082 1.792804,1.015489 1.742309,0.697943 2.46733,1.069683 3.183251,1.630721 0.713442,0.560448 1.156673,1.223866 1.322154,1.958785 0.10017,0.453461 0.06384,1.201869 -0.07227,1.581826 -0.138504,0.390968 -0.318254,0.669516 -0.613213,0.995981 -0.824938,0.91942 -2.391737,1.548431 -4.314026,1.702913 -0.350952,0.026 -1.348752,0.02349 -1.628722,0 -1.22836,-0.104987 -1.882788,-0.225594 -2.663803,-0.515562 -0.465459,-0.171482 -0.743218,-0.308237 -1.156073,-0.550721 -0.380479,-0.221474 -1.072682,-0.73393 -1.320155,-0.978413 -0.250543,-0.244983 -0.245284,-0.317325 0.117177,-0.671805 0.556949,-0.543451 1.312256,-1.215366 1.415845,-1.271361 0.136964,-0.07349 0.17422,-0.06276 0.63665,0.240203 0.45949,0.302978 1.016988,0.575877 1.579927,0.773356 0.798423,0.285479 1.372649,0.407565 2.027077,0.412065 0.35697,0.002 0.424723,-0.01943 0.613213,-0.08593 0.282969,-0.102983 0.405335,-0.221865 0.425733,-0.462839 0.01184,-0.151983 -0.0188,-0.217226 -0.09569,-0.343712 -0.196962,-0.311468 -0.618306,-0.56251 -2.003685,-1.185363 -1.155372,-0.521452 -1.556429,-0.723709 -2.075972,-1.031087 -1.223366,-0.72494 -1.872295,-1.44754 -2.146264,-2.388437 -0.08229,-0.266981 -0.05556,-0.968364 0.02344,-1.27326 0.143995,-0.504956 0.3619,-0.892813 0.730391,-1.253764 0.672935,-0.665947 1.715811,-1.124576 3.019168,-1.324054 0.290989,-0.0435 0.73358,-0.06025 1.179571,-0.06835 z"
       id="path5640-7-7"
       style="color:#4e70ac;fill:#2ca089;fill-opacity:1"
       class="ColorScheme-Highlight" />
    <path
       id="path5654-3"
       d="m 9.6059996,52.05 v 1.500001 h 4.7548824 l -0.802733,3 h -2.45215 V 58.05 h 2.047852 L 11.94975,62.550001 H 9.6059996 V 64.05 H 15.605999 V 62.550001 H 13.502483 L 14.709516,58.05 h 3.896484 0.169921 1.555665 l 0.36621,-1.371092 -1.450196,-0.38965 -0.07031,0.260743 h -4.066405 l 0.802734,-3 h 5.692383 V 52.05 h -6.84375 z"
       style="color:#d1d5e9;fill:currentColor;fill-opacity:1"
       class="ColorScheme-Text" />
  </g>
  <g
     id="22-22-fcitx-sogouwubi"
     transform="translate(-75,5)">
    <rect
       style="opacity:0.00100002"
       width="22"
       height="22"
       x="0"
       y="0"
       id="rect606-6-9" />
    <path
       inkscape:connector-curvature="0"
       id="path9068-9-37-8-0-1-0-1-3-7-4-6-1-4-2-3"
       d="M 19.118508,2.604498 2,2.604503 v 14.790996 h 17.288 z"
       style="display:inline;overflow:visible;visibility:visible;opacity:0.6;fill:url(#linearGradient7);fill-opacity:1;fill-rule:nonzero;stroke:none;stroke-width:0.55969;marker:none"
       sodipodi:nodetypes="cccccc" />
    <path
       d="M 16.803011,1 H 5.196742 C 4.084091,1.0015 3.017281,1.44383 2.230622,2.230652 1.443769,3.017322 1.001262,4.084056 1,5.196749 V 16.803451 16.8033 c 8.62e-4,1.112617 0.443769,2.179389 1.230622,2.96606 0.786659,0.786822 1.853469,1.229367 2.96612,1.230652 h 11.606699 -1.9e-4 c 1.112651,-0.0012 2.179461,-0.44383 2.966111,-1.230652 0.78686,-0.786671 1.22937,-1.853443 1.23063,-2.96606 V 5.196976 c -0.002,-1.112655 -0.44377,-2.179427 -1.23063,-2.966098 -0.78665,-0.786822 -1.85346,-1.229366 -2.966111,-1.230652 z M 5.617003,3.00005 h 10.765998 c 0.73924,0.0011 1.43628,-0.113764 1.959,0.408983 0.522691,0.522671 0.6571,1.018431 0.658,1.757669 v 11.833323 h -16 V 5.166702 C 3.000852,4.427464 3.135308,3.931741 3.658002,3.409033 4.18068,2.886362 4.87778,3.000957 5.617003,3.00005 Z"
       id="path1193-3-7-0-6-1"
       style="fill:#d3dae3;fill-opacity:1;stroke-width:0.0396828"
       sodipodi:nodetypes="ccccccccccccccccccccccccc" />
    <path
       d="m 15.684041,11.001887 c 0.371668,-0.0062 0.74915,0.0027 1.041658,0.0293 1.469642,0.139152 2.749122,0.596617 3.852437,1.388179 0.370831,0.262896 0.378337,0.230907 -0.294591,1.002471 -0.547929,0.626606 -0.631203,0.680282 -0.766595,0.644462 -0.03466,-0.0071 -0.191091,-0.08171 -0.353181,-0.17088 -0.840819,-0.470373 -1.793646,-0.810377 -2.535801,-0.901568 -0.398306,-0.04832 -0.70625,0.0097 -0.865903,0.170882 -0.0812,0.08082 -0.112787,0.295009 -0.05866,0.414996 0.09792,0.225399 0.479502,0.441734 1.494146,0.846238 1.45206,0.581619 2.056304,0.891401 2.652959,1.358931 0.594593,0.467045 0.963988,1.019887 1.101903,1.632317 0.08351,0.377882 0.05316,1.001559 -0.06018,1.318185 -0.115411,0.325806 -0.265236,0.557937 -0.511057,0.829986 -0.687517,0.766182 -1.993304,1.29036 -3.595364,1.41909 -0.292491,0.02172 -1.124071,0.01965 -1.357399,0 -1.023699,-0.0875 -1.569108,-0.187996 -2.220015,-0.429631 -0.387924,-0.1429 -0.619412,-0.256866 -0.96349,-0.458937 -0.317096,-0.184557 -0.893987,-0.611607 -1.100234,-0.815339 -0.208805,-0.204158 -0.204421,-0.264435 0.09766,-0.559835 0.464169,-0.452878 1.093652,-1.012806 1.179983,-1.059466 0.114142,-0.06121 0.145199,-0.05225 0.530592,0.200169 0.382945,0.252473 0.847572,0.479897 1.316732,0.644457 0.665415,0.237898 1.143984,0.339643 1.689393,0.34339 0.297501,0.0013 0.353967,-0.01615 0.51106,-0.07168 0.235827,-0.08586 0.337811,-0.184884 0.354811,-0.385697 0.0099,-0.126654 -0.01572,-0.181024 -0.0798,-0.286429 -0.164115,-0.259503 -0.515266,-0.468704 -1.66986,-0.987745 -0.962892,-0.434536 -1.297137,-0.60308 -1.73013,-0.85923 -1.019569,-0.604116 -1.560395,-1.206279 -1.788725,-1.99036 -0.06859,-0.222483 -0.0463,-0.806969 0.01953,-1.061049 0.120005,-0.420795 0.301613,-0.744009 0.608717,-1.0448 0.560833,-0.554956 1.429978,-0.937145 2.516213,-1.103377 0.242511,-0.03624 0.611374,-0.05021 0.983068,-0.05696 z"
       id="path5-9"
       style="color:#4e70ac;fill:#2ca089;fill-opacity:1;stroke-width:1.2494"
       class="ColorScheme-Highlight" />
    <path
       id="rect4637"
       d="m 6.6439977,5.9999983 v 1 h 3.1699216 l -0.535156,2 H 7.6439977 v 1 h 1.365234 l -0.802734,3.0000007 h -1.5625 v 1 h 3.9999993 v -1 H 9.2416533 L 10.046341,9.9999983 h 2.597656 0.113281 1.03711 l 0.24414,-0.914062 -0.966797,-0.259766 -0.04687,0.173828 h -2.710937 l 0.535156,-2 h 3.794922 v -1 h -4.5625 z"
       style="color:#d1d5e9;fill:currentColor;fill-opacity:1"
       class="ColorScheme-Text" />
  </g>
</svg>
