<?xml version="1.0" encoding="UTF-8" standalone="no"?>
<svg
   viewBox="0 0 32 32"
   id="svg2"
   version="1.1"
   sodipodi:docname="start.svg"
   inkscape:version="1.2.2 (b0a8486541, 2022-12-01)"
   width="32"
   height="32"
   xmlns:inkscape="http://www.inkscape.org/namespaces/inkscape"
   xmlns:sodipodi="http://sodipodi.sourceforge.net/DTD/sodipodi-0.dtd"
   xmlns:xlink="http://www.w3.org/1999/xlink"
   xmlns="http://www.w3.org/2000/svg"
   xmlns:svg="http://www.w3.org/2000/svg"
   xmlns:rdf="http://www.w3.org/1999/02/22-rdf-syntax-ns#"
   xmlns:cc="http://creativecommons.org/ns#"
   xmlns:dc="http://purl.org/dc/elements/1.1/">
  <g
     id="22-22-start-here-kde"
     transform="translate(-2e-5,53.950317)">
    <rect
       style="fill:none;fill-opacity:1;stroke:none"
       id="rect4150"
       width="22"
       height="22"
       x="0"
       y="-22" />
    <path
       inkscape:connector-curvature="0"
       id="path9068-9-37-8-0-1-0-1-3-7-4-6-1"
       d="m 19.474508,-19.374311 -17.118508,5e-6 V -4.58331 h 17.288 z"
       style="display:inline;overflow:visible;visibility:visible;opacity:1;fill:url(#linearGradient6958);fill-opacity:1;fill-rule:nonzero;stroke:none;stroke-width:0.55969;marker:none"
       sodipodi:nodetypes="cccccc" />
    <path
       d="M 16.80301,-21 H 5.19674 c -1.11265,0.0015 -2.17946,0.443813 -2.96612,1.230647 C 1.44377,-18.982679 1.00126,-17.915938 1,-16.803277 v 11.60671 -1.58e-4 c 8.6e-4,1.11263 0.44377,2.179402 1.23062,2.96608 C 3.01728,-1.443811 4.08409,-1.001291 5.19674,-1 h 11.606699 -1.9e-4 c 1.11265,-0.0012 2.17946,-0.443811 2.96611,-1.230645 0.78686,-0.786678 1.22937,-1.85345 1.230631,-2.96608 v -11.606329 c -0.002,-1.112635 -0.443771,-2.179402 -1.230631,-2.96608 -0.78665,-0.786833 -1.853459,-1.229358 -2.96611,-1.230642 z M 5.617,-18.999975 h 10.766001 c 0.739239,0.0011 1.436278,-0.113833 1.958999,0.409 0.522691,0.52268 0.6571,1.018408 0.658001,1.757653 V -4.999975 H 3 v -11.833347 c 8.5e-4,-0.739245 0.13532,-1.234937 0.658,-1.757653 0.52268,-0.522679 1.21978,-0.40809 1.959,-0.409 z"
       id="path1193-3-9"
       style="fill:#d3dae3;fill-opacity:1;stroke-width:0.0396829"
       sodipodi:nodetypes="ccccccccccccccccccccccccc" />
    <path
       d="m 6.500067,-10.727333 c 0.07677,-1.506604 0.791268,-2.836776 2.302986,-3.697196 2.104861,-1.198051 4.228676,-2.364961 6.34294,-3.547631 0.08743,-0.04891 0.112935,-0.03486 0.148547,0.05393 0.50939,1.270126 0.01977,2.612378 -0.895808,3.400319 -0.07966,0.06855 -0.169604,0.123174 -0.261945,0.174698 -1.100391,0.613787 -2.200543,1.227978 -3.300371,1.842666 -0.157164,0.08783 -0.235882,0.233388 -0.211355,0.381934 0.02686,0.162478 0.162557,0.297092 0.329834,0.326474 0.107977,0.01896 0.199626,-0.02364 0.288949,-0.07348 1.078988,-0.60211 2.15793,-1.204268 3.236844,-1.806449 0.1026,-0.05728 0.206924,-0.111901 0.306964,-0.173062 0.05779,-0.03532 0.08255,-0.02295 0.105205,0.03618 0.157878,0.412482 0.242265,0.836831 0.210844,1.277342 -0.06894,0.965465 -0.504336,1.744506 -1.322602,2.29903 -0.393267,0.266524 -0.828209,0.475588 -1.244647,0.710048 -0.187085,0.105352 -0.369678,0.219911 -0.563782,0.311546 -0.440614,0.207996 -0.654252,0.573819 -0.751696,1.010343 -0.201575,0.902904 0.538052,1.767312 1.493848,1.75941 0.05276,-4.53e-4 0.105501,-0.0091 0.158173,-0.01483 0.047,-0.0051 0.08365,0.01301 0.09587,0.05539 0.01146,0.03997 -0.01729,0.06822 -0.05423,0.08159 -0.122063,0.04422 -0.243269,0.09168 -0.367839,0.128207 -2.445655,0.717022 -5.095497,-0.6511 -5.839002,-3.013972 C 6.568847,-9.646475 6.510866,-10.099896 6.5,-10.727329"
       id="path2-3-3"
       style="fill:#d3dae3;fill-opacity:1;stroke-width:0.0346018" />
  </g>
  <sodipodi:namedview
     pagecolor="#ffffff"
     bordercolor="#000000"
     borderopacity="1"
     objecttolerance="10"
     gridtolerance="10"
     guidetolerance="10"
     inkscape:pageopacity="0"
     inkscape:pageshadow="2"
     inkscape:window-width="1920"
     inkscape:window-height="994"
     id="namedview17"
     showgrid="false"
     inkscape:zoom="7.9999996"
     inkscape:cx="12.562501"
     inkscape:cy="41.375002"
     inkscape:window-x="0"
     inkscape:window-y="0"
     inkscape:window-maximized="1"
     inkscape:current-layer="svg2"
     inkscape:lockguides="true"
     inkscape:document-rotation="0"
     inkscape:showpageshadow="true"
     inkscape:pagecheckerboard="0"
     inkscape:deskcolor="#d1d1d1">
    <inkscape:grid
       type="xygrid"
       id="grid4466" />
  </sodipodi:namedview>
  <metadata
     id="metadata21">
    <rdf:RDF>
      <cc:Work
         rdf:about="">
        <dc:format>image/svg+xml</dc:format>
        <dc:type
           rdf:resource="http://purl.org/dc/dcmitype/StillImage" />
      </cc:Work>
    </rdf:RDF>
  </metadata>
  <defs
     id="defs3051">
    <linearGradient
       inkscape:collect="always"
       id="linearGradient3204">
      <stop
         style="stop-color:#009999;stop-opacity:1;"
         offset="0"
         id="stop3200" />
      <stop
         style="stop-color:#274268;stop-opacity:1;"
         offset="1"
         id="stop3202" />
    </linearGradient>
    <style
       type="text/css"
       id="current-color-scheme">
      .ColorScheme-Text {
        color:#31363b;
      }
      </style>
    <linearGradient
       inkscape:collect="always"
       xlink:href="#linearGradient3204"
       id="linearGradient3478"
       gradientUnits="userSpaceOnUse"
       x1="1.1767771"
       y1="30.760855"
       x2="30.823223"
       y2="0.97398025"
       gradientTransform="matrix(0.71830986,0,0,0.74231903,4.715177,3.881111)" />
    <radialGradient
       cx="12.00001"
       cy="11.987168"
       r="9.5000095"
       fx="12.00001"
       fy="11.987168"
       id="radialGradient3937-6-3-1"
       xlink:href="#linearGradient2916"
       gradientUnits="userSpaceOnUse"
       gradientTransform="matrix(1.8311833,0,0,1.8352211,-5.9743007,-7.4222)" />
    <linearGradient
       id="linearGradient2916">
      <stop
         id="stop2918"
         style="stop-color:#ffffff;stop-opacity:1"
         offset="0" />
      <stop
         id="stop2920"
         style="stop-color:#ffffff;stop-opacity:0"
         offset="1" />
    </linearGradient>
    <linearGradient
       inkscape:collect="always"
       xlink:href="#linearGradient3204"
       id="linearGradient6958"
       gradientUnits="userSpaceOnUse"
       gradientTransform="matrix(0.43219982,0,0,0.36977632,-52.533369,-239.89501)"
       x1="146.80391"
       y1="596.36243"
       x2="146.99998"
       y2="636.3623" />
    <linearGradient
       inkscape:collect="always"
       xlink:href="#linearGradient3204"
       id="linearGradient10400"
       gradientUnits="userSpaceOnUse"
       gradientTransform="matrix(0.30253982,0,0,0.25884344,-36.473353,-152.22649)"
       x1="146.80391"
       y1="596.36243"
       x2="146.99998"
       y2="636.3623" />
  </defs>
  <g
     id="16-16-start-here-kde"
     transform="translate(-2e-5,53.950317)">
    <path
       style="fill:none"
       d="M 0,0 V 16 H 16 V 0 Z"
       id="path17" />
    <path
       inkscape:connector-curvature="0"
       id="path9068-9-37-8-0-1-0-1-3-7-4-6-1-5"
       d="M 13.93215,2.1379823 1.9492,2.1379858 V 12.49169 h 12.1016 z"
       style="display:inline;overflow:visible;visibility:visible;fill:url(#linearGradient10400);fill-opacity:1;fill-rule:nonzero;stroke:none;stroke-width:0.391789;marker:none"
       sodipodi:nodetypes="cccccc" />
    <path
       d="M 12.06211,1 H 3.937715 C 3.15887,1.00105 2.412102,1.3106691 1.861439,1.8614529 1.310636,2.4121247 1.000885,3.1588439 1,3.9377064 v 8.1246976 -1.07e-4 c 6.05e-4,0.778833 0.310636,1.525582 0.861439,2.076247 C 2.412102,14.689329 3.15887,14.99909 3.937715,15 h 8.124695 -1.34e-4 c 0.778854,-0.0012 1.525614,-0.310671 2.076272,-0.861456 0.55081,-0.550665 0.860559,-1.297414 0.861443,-2.076247 V 3.9378625 C 14.998191,3.159017 14.689358,2.4122808 14.138548,1.8616062 13.58789,1.3108231 12.84113,1.0010556 12.062276,1.0001568 Z M 4.2319,2.4000175 h 7.536201 c 0.51747,7.7e-4 1.0054,-0.079683 1.371299,0.2863 0.36589,0.3658761 0.45997,0.712885 0.460601,1.2303566 V 12.200022 H 2.4 V 3.9166741 C 2.400596,3.3992025 2.4947,3.052219 2.8606,2.6863175 3.226482,2.3204422 3.714441,2.4006545 4.2319,2.4000175 Z"
       id="path1193-3-9-3"
       style="fill:#d3dae3;fill-opacity:1;stroke-width:0.0277784"
       sodipodi:nodetypes="ccccccccccccccccccccccccc" />
    <path
       d="M 4.850052,8.1908675 C 4.903832,7.1362444 5.40393,6.205123 6.462138,5.602829 7.935532,4.764194 9.422204,3.947357 10.902193,3.119488 c 0.06118,-0.034236 0.07906,-0.024405 0.103982,0.037745 0.35657,0.8890878 0.0138,1.8286643 -0.627068,2.3802233 -0.05574,0.047983 -0.118723,0.08622 -0.18336,0.1222883 C 9.425476,6.0893955 8.655375,6.5193291 7.885496,6.9496107 7.775477,7.0110957 7.720369,7.1129818 7.737546,7.2169646 7.756336,7.3306991 7.851338,7.4249283 7.96843,7.4454958 8.04401,7.4587648 8.108159,7.4289448 8.170695,7.3940568 8.925984,6.9725799 9.681237,6.5510696 10.43649,6.1295427 c 0.07183,-0.040101 0.144842,-0.078333 0.214867,-0.1211434 0.04041,-0.024718 0.05784,-0.016065 0.07361,0.025323 0.110511,0.288737 0.169583,0.5857817 0.147591,0.894139 C 10.824278,7.603687 10.519519,8.1490158 9.946738,8.5371827 9.671451,8.7237492 9.366996,8.8700938 9.075483,9.0342172 8.94452,9.1079612 8.816704,9.1881523 8.68084,9.2522979 8.372406,9.3978944 8.222863,9.653972 8.154644,9.959536 c -0.1411,0.632031 0.376644,1.237117 1.045702,1.231585 0.03699,-3.19e-4 0.07384,-0.0068 0.110714,-0.01041 0.0329,-0.0034 0.05854,0.0091 0.06707,0.03877 0.0076,0.02797 -0.01205,0.04778 -0.03801,0.05712 -0.08545,0.03098 -0.170285,0.06416 -0.257487,0.08974 C 7.370673,11.868254 5.515785,10.910568 4.995331,9.2565575 4.898071,8.9474176 4.857496,8.6300233 4.84989,8.1908205"
       id="path2-3-3-5"
       style="fill:#d3dae3;fill-opacity:1;stroke-width:0.0242218" />
  </g>
  <g
     id="start-here-kde">
    <path
       id="rect4328-6"
       d="M 9.0676465,5.016278 22.778414,4.9180659 C 24.686371,4.9043987 27.553,7.0186502 27.553,9.0174346 V 23.285083 c 0,1.998786 -2.10626,3.607917 -4.014262,3.607917 H 7.0719012 c -1.9080009,0 -2.2792214,-1.118622 -2.3036596,-3.117252 L 4.5781707,8.2313433 C 4.5537316,6.2327185 7.1596913,5.0299449 9.0676465,5.016278 Z"
       style="fill:url(#linearGradient3478);fill-opacity:1;fill-rule:nonzero;stroke:none;stroke-width:0;stroke-linecap:round;stroke-linejoin:round;stroke-miterlimit:4;stroke-dasharray:none;stroke-opacity:1"
       inkscape:connector-curvature="0"
       sodipodi:nodetypes="sssssssss" />
    <rect
       width="32"
       height="32"
       x="0"
       y="-2.3356628e-09"
       id="rect5017"
       style="opacity:0;fill:#000000;fill-opacity:0.392157;stroke:none;stroke-width:1.33333" />
    <path
       d="m 10.725,15.88481 c 0.08957,-1.757712 0.923146,-3.309582 2.686837,-4.313413 2.455676,-1.397727 4.933465,-2.7591292 7.400114,-4.138916 0.102028,-0.05706 0.131757,-0.040671 0.173305,0.06292 0.594291,1.4818193 0.02308,3.047776 -1.045109,3.967044 -0.09293,0.07999 -0.197878,0.143706 -0.305609,0.203815 -1.283794,0.716089 -2.567306,1.432648 -3.850441,2.149788 -0.183358,0.102472 -0.275196,0.272285 -0.246588,0.445589 0.03134,0.189558 0.189659,0.346611 0.384816,0.380888 0.125969,0.02208 0.232898,-0.02752 0.337106,-0.08577 1.258826,-0.702463 2.517593,-1.404982 3.776331,-2.107531 0.1197,-0.06676 0.241406,-0.130551 0.358126,-0.201904 0.06741,-0.04127 0.09632,-0.0268 0.122739,0.04223 0.184188,0.481234 0.282638,0.976309 0.245986,1.490241 -0.08044,1.126378 -0.588395,2.035261 -1.543044,2.682209 -0.458811,0.310947 -0.966246,0.554855 -1.452089,0.828394 -0.218266,0.12291 -0.431295,0.256564 -0.657749,0.36347 -0.514052,0.242665 -0.763303,0.669457 -0.876989,1.17874 -0.235162,1.053387 0.627739,2.061869 1.742836,2.052651 0.06156,-5.28e-4 0.12308,-0.01065 0.184532,-0.01738 0.05481,-0.0067 0.09761,0.01514 0.111853,0.06466 0.01339,0.04669 -0.02017,0.07955 -0.06323,0.09519 -0.142408,0.05155 -0.283813,0.106962 -0.429143,0.149577 C 14.926329,22.01385 11.834841,20.417699 10.96741,17.661009 10.80532,17.14581 10.737678,16.616816 10.725,15.88481"
       id="path2-3"
       style="fill:#d3dae3;fill-opacity:1;stroke-width:0.0403686" />
    <path
       d="M 22.963626,4 H 9.036072 C 7.700891,4.0015 6.420748,4.532574 5.476754,5.476775 4.532568,6.420788 4.001525,7.700876 4,9.03607 v 13.92805 -1.89e-4 c 0.0015,1.335156 0.532568,2.615282 1.476754,3.559295 0.943994,0.944201 2.224137,1.475225 3.559318,1.476775 h 13.928035 -1.94e-4 c 1.335183,-0.0015 2.615324,-0.532574 3.559318,-1.476775 0.944187,-0.944013 1.475232,-2.224139 1.476755,-3.559295 V 9.036335 C 27.998186,7.701178 27.467418,6.421052 26.523231,5.47704 25.579237,4.532838 24.299096,4.001815 22.963912,4.000265 Z M 9.2,6.000013 h 13.6 c 0.887095,0.0011 1.603761,0.04384 2.231,0.671244 C 25.658232,7.29847 25.998901,8.11292 26,9.000013 V 23.000026 H 6 V 9.000013 C 6.0011,8.11292 6.341775,7.298508 6.969,6.671257 7.596201,6.044045 8.312916,6.001109 9.2,6.000013 Z"
       id="path1193-0"
       style="fill:#d3dae3;fill-opacity:1;stroke-width:0.047619"
       sodipodi:nodetypes="ccccccccccccccccccccccccc" />
  </g>
</svg>
