<?xml version="1.0" encoding="UTF-8" standalone="no"?>
<svg
   width="32"
   height="32"
   version="1"
   id="svg419"
   sodipodi:docname="strawberry.svg"
   inkscape:version="1.2.2 (b0a8486541, 2022-12-01)"
   xmlns:inkscape="http://www.inkscape.org/namespaces/inkscape"
   xmlns:sodipodi="http://sodipodi.sourceforge.net/DTD/sodipodi-0.dtd"
   xmlns:xlink="http://www.w3.org/1999/xlink"
   xmlns="http://www.w3.org/2000/svg"
   xmlns:svg="http://www.w3.org/2000/svg">
  <defs
     id="defs423">
    <linearGradient
       inkscape:collect="always"
       id="linearGradient334">
      <stop
         style="stop-color:#ff2a2a;stop-opacity:1"
         offset="0"
         id="stop330" />
      <stop
         style="stop-color:#ff8080;stop-opacity:1"
         offset="1"
         id="stop332" />
    </linearGradient>
    <linearGradient
       inkscape:collect="always"
       xlink:href="#linearGradient334"
       id="linearGradient5058"
       x1="148.96695"
       y1="596.37164"
       x2="148.96695"
       y2="636.13757"
       gradientUnits="userSpaceOnUse"
       gradientTransform="matrix(0.50999969,0,0,0.42750131,-58.969971,-248.94562)" />
    <linearGradient
       inkscape:collect="always"
       xlink:href="#linearGradient334"
       id="linearGradient6958"
       gradientUnits="userSpaceOnUse"
       gradientTransform="matrix(0.43219982,0,0,0.36977632,-52.889365,-217.9162)"
       x1="146.80391"
       y1="596.36243"
       x2="146.99998"
       y2="636.3623" />
  </defs>
  <sodipodi:namedview
     id="namedview421"
     pagecolor="#ffffff"
     bordercolor="#000000"
     borderopacity="0.25"
     inkscape:showpageshadow="2"
     inkscape:pageopacity="0.0"
     inkscape:pagecheckerboard="0"
     inkscape:deskcolor="#d1d1d1"
     showgrid="false"
     inkscape:zoom="7.375"
     inkscape:cx="3.8644068"
     inkscape:cy="27.050847"
     inkscape:window-width="1920"
     inkscape:window-height="994"
     inkscape:window-x="0"
     inkscape:window-y="0"
     inkscape:window-maximized="1"
     inkscape:current-layer="svg419" />
  <g
     id="strawberry">
    <rect
       style="opacity:0.00100002;fill:#d1d5e9;fill-opacity:1"
       width="32"
       height="32"
       x="0"
       y="0"
       id="rect7" />
    <path
       inkscape:connector-curvature="0"
       id="path9068-9-37-8-0-1"
       d="m 25.999993,6 -20.2000002,5e-6 V 23.1 H 26.199993 Z"
       style="display:inline;overflow:visible;visibility:visible;opacity:0.6;fill:url(#linearGradient5058);fill-opacity:1;fill-rule:nonzero;stroke:none;stroke-width:0.653705;marker:none"
       sodipodi:nodetypes="cccccc" />
    <path
       d="M 22.963626,4 H 9.0360718 c -1.335181,0.0015 -2.615324,0.532573 -3.559318,1.476774 -0.944186,0.944013 -1.475229,2.224101 -1.476753,3.559294 v 13.928051 -1.9e-4 c 0.0015,1.335156 0.532567,2.615282 1.476753,3.559294 0.943994,0.944202 2.224137,1.475226 3.559318,1.476775 h 13.9280352 -1.94e-4 c 1.335183,-0.0015 2.615324,-0.532573 3.559318,-1.476775 0.944187,-0.944012 1.475232,-2.224138 1.476755,-3.559294 V 9.036333 C 27.998186,7.701177 27.467418,6.421051 26.523231,5.477038 25.579237,4.532837 24.299096,4.001814 22.963912,4.000264 Z M 9.2000008,6.000012 H 22.8 c 0.887095,0.0011 1.603761,0.04384 2.231,0.671244 0.627232,0.627212 0.967901,1.441663 0.969001,2.328756 V 23.000024 H 6.0000008 V 9.000012 c 0.0011,-0.887093 0.341774,-1.701506 0.969,-2.328756 0.627201,-0.627213 1.343916,-0.670148 2.231,-0.671244 z"
       id="path1193-367"
       style="fill:#d3dae3;fill-opacity:1;stroke-width:0.047619"
       sodipodi:nodetypes="ccccccccccccccccccccccccc" />
    <path
       style="fill:#d3dae3;fill-opacity:1;stroke-width:0.757036"
       d="m 9.500013,13.330238 c 0,0.06541 0.140786,0.08494 0.326602,0.0446 0,0 0.592621,-0.115937 1.026894,-0.893722 0.282293,-0.540968 0.445953,-0.540654 0.615223,0.0028 0.07378,0.236874 0.212742,0.525546 0.309894,0.640429 0.160226,0.18947 0.226273,0.120244 0.712446,-0.74405 0.294775,-0.524051 0.622434,-1.050052 0.727634,-1.168611 0.182652,-0.205826 0.207824,-0.197203 0.562059,0.204367 0.395459,0.448297 1.31999,0.978636 1.705918,0.978636 0.208647,0 0.226828,-0.08775 0.161022,-0.826086 -0.04045,-0.454221 -0.09217,-0.952972 -0.113928,-1.109595 l -0.03951,-0.284962 1.049683,0.04028 c 0.577202,0.02235 1.193153,0.08765 1.368688,0.145354 0.175531,0.05771 0.345451,0.08157 0.378246,0.05327 C 18.428957,10.29356 18.124794,9.80723 17.703001,9.473167 17.271792,9.1316476 17.262192,9.1097166 17.526793,9.0371066 c 0.474342,-0.244548 0.890721,-0.353102 1.306403,-0.732547 0.0088,-0.08471 -0.105981,-0.148558 -0.341792,-0.202917 -0.725979,-0.167372 -1.428322,-0.07763 -2.154047,0.274874 -0.391068,0.189939 -1.007917,0.375431 -1.370209,0.413038 -0.362288,0.0376 -0.782875,0.09878 -0.93575,0.136725 -0.2323,0.05767 -0.368823,-0.05285 -0.826377,-0.679287 -0.520977,-0.713274 -0.817372,-0.89867 -1.01018,-0.628912 -0.04791,0.06697 0.09727,0.421139 0.322045,0.785779 0.224769,0.364642 0.408628,0.734168 0.408628,0.82177 0,0.08759 -0.281998,0.3619984 -0.625861,0.6102034 -0.597606,0.43136 -0.66591,0.451888 -1.547937,0.451888 -0.8380887,0 -0.925571,0.02225 -0.961569,0.240345 -0.02911,0.176243 0.06649,0.27858 0.361533,0.384255 0.221061,0.07915 0.40256,0.182898 0.40256,0.23171 0,0.04878 -0.237287,0.535809 -0.52712,1.080818 C 9.73729,12.769837 9.5,13.266897 9.5,13.330099 Z m 0.809667,0.643307 c 0.005,0.04888 0.0031,0.07169 0.0091,0.126648 0.20293,1.799882 1.379846,3.300788 3.931367,5.018383 0.770418,0.518619 1.759035,1.184884 2.198102,1.480906 1.849618,1.247037 3.748395,1.193901 4.546588,-0.128087 0.515874,-0.854411 0.719725,-1.679329 0.739792,-2.986277 0.01007,-0.656917 0.06048,-1.619988 0.110889,-2.138607 0.140651,-1.446964 0.137071,-1.628152 -0.05014,-2.646631 C 21.58585,11.559969 21.149485,10.681723 20.443409,9.975534 20.159031,9.691116 19.616936,9.3473878 19.065602,9.0602216 c -0.170803,0.100145 -0.331406,0.159532 -0.504327,0.2417802 0.103059,0.1161272 0.236561,0.2209382 0.314444,0.3454022 0.08345,0.133367 0.156254,0.266001 0.200517,0.456213 0.04425,0.190216 0.07297,0.564447 -0.261277,0.853428 -0.296354,0.256263 -0.443719,0.200828 -0.542314,0.204365 -0.09859,0.0035 -0.166298,-0.0055 -0.232419,-0.0144 -0.13223,-0.01868 -0.253,-0.04801 -0.382802,-0.09069 0.09237,0.03034 -0.139158,-0.02624 -0.366097,-0.05036 -0.22694,-0.02414 -0.510344,-0.04567 -0.779289,-0.05617 l -0.147347,-0.0064 c 0.0202,0.200031 0.03752,0.336117 0.05772,0.562716 0.03359,0.37689 0.07342,0.568562 0.01216,0.885089 -0.03059,0.158265 -0.137018,0.422598 -0.379776,0.582864 -0.242757,0.160258 -0.458584,0.15687 -0.568134,0.15687 -0.569049,0 -0.865235,-0.205715 -1.251716,-0.427434 -0.263314,-0.150869 -0.48635,-0.357638 -0.715488,-0.555325 -0.108801,0.178649 -0.226043,0.371472 -0.341795,0.577243 -0.245913,0.437177 -0.338472,0.654829 -0.587877,0.915312 -0.06234,0.06513 -0.1427,0.141763 -0.284069,0.211559 -0.141367,0.06979 -0.367593,0.115067 -0.563582,0.07915 -0.39197,-0.07183 -0.498844,-0.264557 -0.569652,-0.348279 -0.06999,-0.08276 -0.07019,-0.157843 -0.118484,-0.234585 -0.155407,0.157101 -0.304394,0.394479 -0.449642,0.485 -0.105769,0.06591 -0.200704,0.100731 -0.294701,0.139599 z m 1.001071,0.558398 c 0.101853,0.03839 0.167903,0.102482 0.284066,0.12377 0.40531,0.07428 0.719135,0.01187 1.025376,-0.130966 -0.0088,0.0646 -0.0114,0.132525 -0.0019,0.202924 0.03309,0.236656 0.162873,0.489634 0.331155,0.649061 0.299171,0.283435 0.760683,0.306902 1.029935,0.05181 0.269249,-0.255086 0.244482,-0.692323 -0.05471,-0.975755 -0.188912,-0.17898 -0.497944,-0.297272 -0.771685,-0.306544 0.0028,-0.0029 0.0097,-0.0072 0.01216,-0.01009 0.271028,-0.283062 0.40362,-0.561085 0.574208,-0.873575 0.03811,0.02415 0.05196,0.04857 0.09265,0.07199 0.354754,0.203517 0.887371,0.533933 1.654275,0.533933 0.09262,0 0.588834,-0.0091 1.01322,-0.289275 0.174153,-0.114973 0.294986,-0.24425 0.394959,-0.375623 0.2985,0.239568 0.719718,0.255042 0.973728,0.01441 0.26925,-0.255084 0.244482,-0.692325 -0.05471,-0.975755 -0.148556,-0.140747 -0.374084,-0.251917 -0.596998,-0.297912 -0.0067,-0.06828 -0.01187,-0.137324 -0.01824,-0.2058 0.0021,1.8e-4 0.0043,-1.9e-4 0.0064,0 0.0756,0.008 0.172186,0.02446 0.24457,0.03741 0.03618,0.0069 0.03561,0.0095 0.127601,0.0202 0.0029,3.2e-4 0.009,0.0015 0.01216,0.0019 0.110895,0.02935 0.220451,0.06267 0.337235,0.07916 0.07341,0.01036 0.21541,0.0273 0.375211,0.02163 -0.118872,0.0045 0.09959,0.02603 0.340272,-0.0259 0.240679,-0.05201 0.481043,-0.184349 0.697257,-0.371308 0.381073,-0.329499 0.476885,-0.706644 0.499777,-1.044837 0.0065,0.0064 0.03419,0.02055 0.03951,0.02592 0.594699,0.594791 0.961653,1.311827 1.151458,2.344409 0.118526,0.644843 0.153442,0.903847 0.13064,1.368654 -0.01473,-0.170109 -0.09156,-0.342916 -0.235456,-0.479246 -0.299168,-0.28343 -0.912589,-0.450813 -1.181839,-0.195727 -0.06734,0.06377 -0.10641,0.148466 -0.123047,0.24322 -0.01249,0.07104 -0.01254,0.148507 -0.0019,0.227389 0.03309,0.236654 0.162876,0.489634 0.331158,0.649067 0.299167,0.283431 0.760683,0.306896 1.029933,0.05181 0.11948,-0.113198 0.170808,-0.263225 0.176214,-0.418799 -0.01505,0.247909 -0.03991,0.541275 -0.08509,1.005978 -0.05402,0.556673 -0.10343,1.513831 -0.113889,2.195997 -0.019,1.238886 -0.183902,1.881203 -0.636494,2.630801 -0.269344,0.446097 -0.642105,0.639805 -1.22741,0.656262 -0.585308,0.01645 -1.375423,-0.211172 -2.193547,-0.76276 -0.439245,-0.296155 -1.427387,-0.962098 -2.198099,-1.480915 -2.183596,-1.469924 -3.066373,-2.665804 -3.390574,-3.986499 z m 2.863453,3.143146 c 0.03309,0.236656 0.162879,0.489635 0.33116,0.649065 0.299168,0.283432 0.760684,0.306899 1.02993,0.05181 0.269254,-0.255088 0.244484,-0.692326 -0.05471,-0.975757 -0.299168,-0.283431 -0.91259,-0.450815 -1.181838,-0.195727 -0.06735,0.06377 -0.106409,0.148465 -0.123044,0.24322 -0.01244,0.07106 -0.01254,0.148503 -0.0019,0.227389 z m 1.555531,-2.210567 c 0.03309,0.236657 0.162878,0.489637 0.33116,0.649068 0.299169,0.28343 0.760679,0.306898 1.029934,0.05181 0.26925,-0.255087 0.244481,-0.692328 -0.05471,-0.975756 -0.299168,-0.28343 -0.912594,-0.450816 -1.181838,-0.195729 -0.06734,0.06377 -0.106409,0.148467 -0.123049,0.243219 -0.01249,0.07105 -0.01254,0.148506 -0.0019,0.227388 z m 1.555533,3.684277 c 0.03309,0.236655 0.162878,0.489634 0.331161,0.649065 0.299167,0.28343 0.760679,0.306898 1.029932,0.05181 0.269251,-0.255088 0.244482,-0.692326 -0.05471,-0.975757 -0.299169,-0.283431 -0.912596,-0.450816 -1.181842,-0.195727 -0.06735,0.06377 -0.10641,0.148465 -0.123051,0.24322 -0.01249,0.07106 -0.01254,0.148504 -0.0019,0.227389 z m 1.555533,-2.94742 c 0.03309,0.236656 0.162879,0.489635 0.331162,0.649065 0.299166,0.283432 0.760679,0.306899 1.02993,0.05181 0.269254,-0.255087 0.244484,-0.692327 -0.05471,-0.975756 -0.299169,-0.283434 -0.912587,-0.450814 -1.181843,-0.195727 -0.06735,0.06377 -0.106409,0.148464 -0.123047,0.243219 -0.01249,0.07107 -0.01254,0.148504 -0.0019,0.227389 z"
       id="path411-3" />
  </g>
  <g
     id="22-22-strawberry"
     transform="translate(32,10.000001)">
    <rect
       style="opacity:0.00100002;fill:#d1d5e9;fill-opacity:1"
       width="22"
       height="22"
       x="0"
       y="0"
       id="rect2" />
    <path
       inkscape:connector-curvature="0"
       id="path9068-9-37-8-0-1-0-1-3-7-4-6-1"
       d="m 19.118512,2.604498 -17.118508,5e-6 v 14.790996 h 17.288 z"
       style="display:inline;overflow:visible;visibility:visible;opacity:0.6;fill:url(#linearGradient6958);fill-opacity:1.0;fill-rule:nonzero;stroke:none;stroke-width:0.55969;marker:none"
       sodipodi:nodetypes="cccccc" />
    <path
       d="M 16.803015,1 H 5.196746 C 4.084095,1.0015 3.017285,1.44383 2.230626,2.230652 1.443773,3.017322 1.001266,4.084056 1.000004,5.1967492 V 16.803451 16.8033 c 8.62e-4,1.112617 0.443769,2.179389 1.230622,2.96606 0.786659,0.786822 1.853469,1.229367 2.96612,1.230652 h 11.606699 -1.9e-4 c 1.112651,-0.0012 2.179461,-0.44383 2.966111,-1.230652 0.78686,-0.786671 1.22937,-1.853443 1.23063,-2.96606 V 5.1969762 C 20.997996,4.084321 20.556226,3.017549 19.769366,2.230878 18.982716,1.444056 17.915906,1.001512 16.803255,1.000226 Z M 5.617007,3.00005 h 10.765998 c 0.73924,0.0011 1.43628,-0.113764 1.959,0.408983 0.522691,0.522671 0.6571,1.018431 0.658,1.7576692 V 17.000025 h -16 V 5.1667022 C 3.000856,4.427464 3.135312,3.931741 3.658006,3.409033 4.180684,2.886362 4.877784,3.000957 5.617007,3.00005 Z"
       id="path1193-3-7"
       style="fill:#d3dae3;fill-opacity:1;stroke-width:0.0396828"
       sodipodi:nodetypes="ccccccccccccccccccccccccc" />
    <path
       style="fill:#d3dae3;fill-opacity:1;stroke-width:0.648889"
       d="m 5.5,8.997251 c 0,0.05609 0.120668,0.07284 0.279942,0.03825 0,0 0.507971,-0.0994 0.880208,-0.766056 C 6.902117,7.805749 7.042399,7.80602 7.187492,8.271945 7.250762,8.474985 7.36984,8.722421 7.453118,8.820894 7.590456,8.983298 7.647069,8.923969 8.063792,8.183129 8.316467,7.733937 8.597317,7.283071 8.687489,7.181449 8.84405,7.005026 8.865625,7.012417 9.169263,7.356624 c 0.338969,0.384257 1.131435,0.838839 1.462236,0.838839 0.178841,0 0.194425,-0.07523 0.138018,-0.70808 -0.03468,-0.389341 -0.07903,-0.816844 -0.09761,-0.951094 l -0.03384,-0.244255 0.899744,0.03455 c 0.494752,0.01915 1.022712,0.07518 1.173169,0.12459 0.150463,0.04942 0.296107,0.06991 0.324223,0.04567 C 13.153549,6.394526 12.89283,5.977647 12.531295,5.691307 12.161681,5.398575 12.153451,5.379771 12.380258,5.317532 c 0.406579,-0.209613 0.763479,-0.3026551 1.119788,-0.6278951 0.008,-0.07263 -0.09087,-0.127342 -0.292972,-0.173941 -0.622277,-0.143461 -1.224286,-0.06654 -1.846354,0.235619 -0.335203,0.1628 -0.863938,0.3217991 -1.174475,0.3540361 C 9.87571,5.137601 9.515204,5.190041 9.384166,5.222543 9.185048,5.271943 9.068027,5.177233 8.675832,4.6402869 8.229268,4.0289069 7.975219,3.8699899 7.809949,4.1012099 c -0.04103,0.05745 0.08334,0.360986 0.276039,0.673542 0.192669,0.3125491 0.350263,0.6292891 0.350263,0.7043781 0,0.07514 -0.241714,0.310289 -0.53646,0.523042 -0.512242,0.369736 -0.570782,0.387335 -1.326815,0.387335 -0.718379,0 -0.793363,0.01907 -0.824226,0.206008 -0.02498,0.151075 0.05698,0.238794 0.3099,0.329364 0.189487,0.06785 0.345051,0.156774 0.345051,0.198614 0,0.04185 -0.203389,0.459271 -0.451819,0.926427 C 5.703454,8.51706 5.500056,8.943115 5.500056,8.997292 Z m 0.694005,0.551413 c 0.004,0.04189 0.0023,0.06141 0.008,0.108565 0.173945,1.542772 1.182742,2.829281 3.369787,4.301527 0.660367,0.44453 1.507764,1.015625 1.88411,1.269362 1.585411,1.068906 3.212956,1.023355 3.897128,-0.109793 0.442181,-0.732361 0.616918,-1.439443 0.634111,-2.559699 0.0088,-0.563081 0.05182,-1.388578 0.09502,-1.833111 0.12056,-1.240274 0.117494,-1.395581 -0.04299,-2.268571 -0.179598,-0.97708 -0.55363,-1.729873 -1.158853,-2.335186 -0.243752,-0.243792 -0.708412,-0.538421 -1.180986,-0.784564 -0.146403,0.08585 -0.284067,0.136745 -0.432291,0.207244 0.0884,0.09954 0.202772,0.189371 0.269531,0.29606 0.07159,0.114319 0.133935,0.228005 0.171874,0.391051 0.03798,0.163042 0.06254,0.483815 -0.223959,0.731517 -0.254018,0.219656 -0.380331,0.172136 -0.46484,0.175167 -0.08446,0.0028 -0.142544,-0.0041 -0.199215,-0.01232 -0.113347,-0.01599 -0.21687,-0.04112 -0.328128,-0.07776 0.07917,0.02603 -0.119281,-0.0225 -0.313801,-0.04316 -0.194522,-0.02069 -0.437444,-0.03921 -0.66797,-0.04813 l -0.1263,-0.005 c 0.01731,0.171454 0.0322,0.288102 0.04945,0.482332 0.02879,0.323052 0.06288,0.487345 0.01054,0.758656 -0.02626,0.135658 -0.117438,0.362232 -0.325519,0.499605 -0.208082,0.137366 -0.39308,0.134461 -0.486981,0.134461 -0.487762,0 -0.741642,-0.176328 -1.072913,-0.366376 C 9.333112,8.331224 9.141935,8.153992 8.945526,7.984541 8.852246,8.137674 8.75177,8.302949 8.652556,8.479325 8.441769,8.854054 8.362434,9.040617 8.148657,9.263889 8.095187,9.319729 8.026337,9.385403 7.905165,9.445227 7.783988,9.505057 7.590081,9.543837 7.42209,9.513067 7.086109,9.451537 6.994501,9.286299 6.933809,9.214537 6.873819,9.143597 6.873669,9.079244 6.832205,9.013463 6.698996,9.148123 6.571292,9.351592 6.446787,9.429186 6.356097,9.485716 6.27476,9.515516 6.194185,9.548841 Z M 7.052083,10.0273 c 0.08733,0.0329 0.143913,0.08781 0.243482,0.106078 0.347419,0.06369 0.61641,0.01036 0.878906,-0.112259 -0.008,0.05536 -0.01,0.113599 -0.0013,0.173938 0.0284,0.202851 0.13961,0.41969 0.283853,0.556347 0.256431,0.242949 0.652019,0.26306 0.882812,0.04441 C 9.570621,10.577163 9.549393,10.202381 9.292926,9.959435 9.131,9.806027 8.866108,9.704631 8.631469,9.696685 c 0.0021,-0.0023 0.0086,-0.0055 0.01054,-0.0089 0.232313,-0.242628 0.345963,-0.480934 0.492184,-0.748789 0.03263,0.02067 0.04453,0.04166 0.07938,0.0617 0.304076,0.174443 0.760611,0.45766 1.417962,0.45766 0.07934,0 0.504727,-0.008 0.868486,-0.247954 0.149277,-0.09853 0.252852,-0.209358 0.338541,-0.321968 0.255867,0.205351 0.616909,0.218612 0.834639,0.01232 0.230791,-0.218647 0.209555,-0.593427 -0.04691,-0.836372 -0.127332,-0.120641 -0.320646,-0.215931 -0.511713,-0.255354 -0.0053,-0.05853 -0.01036,-0.117707 -0.01564,-0.176402 0.0014,1.58e-4 0.0034,-1.61e-4 0.005,0 0.0648,0.0074 0.147595,0.02096 0.209638,0.03208 0.03106,0.0066 0.03048,0.0084 0.109372,0.01728 0.0022,2.74e-4 0.008,0.0013 0.01054,0.0013 0.09503,0.02515 0.188958,0.05374 0.289059,0.06782 0.06291,0.0091 0.18464,0.02346 0.321615,0.01855 -0.101897,0.0036 0.08534,0.02238 0.291666,-0.02219 0.206297,-0.04454 0.412331,-0.158016 0.597658,-0.318269 0.326636,-0.282431 0.408759,-0.605702 0.428383,-0.895589 0.0051,0.005 0.02924,0.01764 0.03383,0.02219 0.509751,0.50983 0.824289,1.12444 0.986979,2.009519 0.101634,0.552726 0.131519,0.774737 0.111979,1.173147 C 15.482027,9.592656 15.416227,9.444535 15.292836,9.327674 15.0364,9.084732 14.510603,8.941262 14.279815,9.159907 c -0.05773,0.05466 -0.09121,0.127259 -0.10548,0.20848 -0.01072,0.0609 -0.01081,0.127289 -0.0013,0.194902 0.02842,0.202851 0.139611,0.419692 0.283854,0.556356 0.256433,0.242945 0.652025,0.263053 0.882814,0.04441 0.102389,-0.09705 0.146408,-0.225628 0.151039,-0.358975 -0.01293,0.212496 -0.03422,0.463955 -0.07295,0.862275 -0.04635,0.477154 -0.08867,1.297584 -0.09759,1.882311 -0.01633,1.061913 -0.157636,1.612478 -0.545572,2.254995 -0.23087,0.382378 -0.550384,0.548415 -1.052082,0.562519 C 13.22085,15.3813 12.543602,15.186176 11.84234,14.713381 11.465841,14.459537 10.618851,13.888723 9.958232,13.444014 8.086551,12.184064 7.32988,11.159013 7.051989,10.02697 Z m 2.454415,2.69416 c 0.0284,0.202847 0.139616,0.419689 0.283855,0.556348 0.256433,0.242942 0.652025,0.263058 0.882812,0.04441 0.230792,-0.218645 0.209559,-0.593427 -0.0469,-0.836369 -0.256432,-0.242946 -0.782229,-0.386417 -1.013018,-0.167768 -0.05772,0.05468 -0.09121,0.127255 -0.105483,0.208478 -0.01072,0.06093 -0.01081,0.127288 -0.0013,0.194907 z m 1.33333,-1.894796 c 0.02841,0.202852 0.139615,0.419691 0.283855,0.556347 0.256435,0.242945 0.652023,0.263063 0.882814,0.04441 0.23079,-0.21865 0.209556,-0.593432 -0.04691,-0.836369 -0.256429,-0.242946 -0.782225,-0.386422 -1.013017,-0.167774 -0.05772,0.05465 -0.09121,0.127261 -0.105472,0.208482 -0.01072,0.06094 -0.01081,0.127291 -0.0013,0.194905 z m 1.333331,3.157991 c 0.02842,0.202849 0.139613,0.41969 0.283854,0.556348 0.256434,0.242939 0.652024,0.263059 0.882814,0.04441 0.230789,-0.21865 0.209555,-0.593428 -0.0469,-0.836373 -0.256432,-0.242945 -0.782225,-0.386419 -1.013018,-0.167771 -0.05772,0.0547 -0.09121,0.12726 -0.105483,0.20848 -0.01072,0.06095 -0.01081,0.127291 -0.0013,0.194908 z m 1.333332,-2.526395 c 0.02842,0.202851 0.139611,0.419697 0.283851,0.55635 0.256433,0.242943 0.652025,0.263061 0.882813,0.04441 0.230792,-0.218649 0.209557,-0.593431 -0.04689,-0.836372 -0.256432,-0.24295 -0.782226,-0.386417 -1.013016,-0.167771 -0.05772,0.05462 -0.09121,0.127256 -0.105483,0.208476 -0.01072,0.06096 -0.01081,0.127295 -0.0013,0.194906 z"
       id="path411-6" />
  </g>
</svg>
