<?xml version="1.0" encoding="UTF-8" standalone="no"?>
<svg
   width="22"
   height="22"
   version="1.1"
   id="svg12"
   sodipodi:docname="telegram.svg"
   inkscape:version="1.3.2 (091e20ef0f, 2023-11-25)"
   xmlns:inkscape="http://www.inkscape.org/namespaces/inkscape"
   xmlns:sodipodi="http://sodipodi.sourceforge.net/DTD/sodipodi-0.dtd"
   xmlns:xlink="http://www.w3.org/1999/xlink"
   xmlns="http://www.w3.org/2000/svg"
   xmlns:svg="http://www.w3.org/2000/svg"
   xmlns:rdf="http://www.w3.org/1999/02/22-rdf-syntax-ns#"
   xmlns:cc="http://creativecommons.org/ns#"
   xmlns:dc="http://purl.org/dc/elements/1.1/">
  <style
     type="text/css"
     id="current-color-scheme">
.ColorScheme-Text {
    color:#eff0f1;
}
</style>
  <metadata
     id="metadata18">
    <rdf:RDF>
      <cc:Work
         rdf:about="">
        <dc:format>image/svg+xml</dc:format>
        <dc:type
           rdf:resource="http://purl.org/dc/dcmitype/StillImage" />
      </cc:Work>
    </rdf:RDF>
  </metadata>
  <defs
     id="defs16">
    <linearGradient
       inkscape:collect="always"
       xlink:href="#linearGradient8962"
       id="linearGradient5058"
       x1="148.96695"
       y1="596.37164"
       x2="148.96695"
       y2="636.13757"
       gradientUnits="userSpaceOnUse"
       gradientTransform="matrix(0.33999976,0,0,0.28500083,-82.979981,-165.63044)" />
    <linearGradient
       inkscape:collect="always"
       id="linearGradient8962">
      <stop
         style="stop-color:#cd87de;stop-opacity:1"
         offset="0"
         id="stop8958" />
      <stop
         style="stop-color:#00ccff;stop-opacity:1"
         offset="1"
         id="stop8960" />
    </linearGradient>
    <linearGradient
       inkscape:collect="always"
       xlink:href="#linearGradient8962"
       id="linearGradient1"
       gradientUnits="userSpaceOnUse"
       gradientTransform="matrix(0.33999976,0,0,0.28500083,-60.979975,-165.63044)"
       x1="148.96695"
       y1="596.37164"
       x2="148.96695"
       y2="636.13757" />
    <linearGradient
       inkscape:collect="always"
       xlink:href="#linearGradient8962"
       id="linearGradient2"
       gradientUnits="userSpaceOnUse"
       gradientTransform="matrix(0.33999976,0,0,0.28500083,-38.979973,-165.63044)"
       x1="148.96695"
       y1="596.37164"
       x2="148.96695"
       y2="636.13757" />
  </defs>
  <sodipodi:namedview
     pagecolor="#ffffff"
     bordercolor="#000000"
     borderopacity="1"
     objecttolerance="10"
     gridtolerance="10"
     guidetolerance="10"
     inkscape:pageopacity="0"
     inkscape:pageshadow="2"
     inkscape:window-width="1920"
     inkscape:window-height="994"
     id="namedview14"
     showgrid="false"
     inkscape:zoom="9.9124993"
     inkscape:cx="-11.197983"
     inkscape:cy="9.4325353"
     inkscape:window-x="0"
     inkscape:window-y="0"
     inkscape:window-maximized="1"
     inkscape:current-layer="svg12"
     inkscape:document-rotation="0"
     inkscape:pagecheckerboard="false"
     inkscape:lockguides="true"
     inkscape:showpageshadow="2"
     inkscape:deskcolor="#cccccc"
     showguides="true">
    <inkscape:grid
       type="xygrid"
       id="grid833"
       originx="-32"
       originy="-10"
       spacingy="1"
       spacingx="1"
       units="px"
       visible="false" />
  </sodipodi:namedview>
  <g
     id="telegram-panel">
    <rect
       style="opacity:0.00100002"
       width="22"
       height="22"
       x="-44"
       y="0"
       id="rect2-1" />
    <path
       inkscape:connector-curvature="0"
       id="path9068-9-37-8-0-1"
       d="m -26.333348,4.333342 -13.466658,5e-6 v 11.399996 h 13.6 z"
       style="display:inline;overflow:visible;visibility:visible;fill:url(#linearGradient5058);fill-opacity:1;fill-rule:nonzero;stroke:none;stroke-width:0.435796;marker:none"
       sodipodi:nodetypes="cccccc" />
    <path
       d="m -28.357574,3 h -9.285044 c -0.890122,0.0015 -1.74355,0.355053 -2.372879,0.984523 C -40.644955,4.613846 -40.998984,5.467257 -41,6.357367 v 9.28539 -1.25e-4 c 10e-4,0.890088 0.355045,1.743522 0.984503,2.372845 0.629329,0.62947 1.482757,0.983483 2.372879,0.984523 h 9.285365 -1.32e-4 c 0.890105,-0.0015 1.743545,-0.355053 2.372863,-0.984523 0.629461,-0.629323 0.983484,-1.482757 0.984509,-2.372845 V 6.357552 C -25.001813,5.46744 -25.355061,4.614029 -25.984522,3.9847 -26.61384,3.355235 -27.46728,3.0012 -28.357386,3.000184 Z m -9.17576,1.333354 h 9.066676 c 0.591378,0.0011 1.069158,0.0293 1.487336,0.447489 0.418133,0.418124 0.645264,0.961113 0.645982,1.552511 v 9.333323 H -39.666666 V 6.333354 c 7.87e-4,-0.591398 0.227848,-1.134357 0.646,-1.552511 0.418133,-0.418158 0.895942,-0.446775 1.487332,-0.447489 z"
       id="path1193-367"
       style="fill:#d3dae3;fill-opacity:1;stroke-width:0.031747"
       sodipodi:nodetypes="ccccccccccccccccccccccccc" />
    <path
       class="st3"
       d="m -35.556681,8.771431 c -1.08345,0.506852 -2.193325,0.906997 -2.193325,1.173761 0,0.346793 0.660639,0.453499 1.400555,0.693586 0.607791,0.213409 1.400558,0.213409 1.876218,-0.160059 0.554938,-0.426823 2.668984,-1.787318 3.329625,-2.267492 0.660639,-0.50685 0.713491,-0.08003 0.42281,0.186737 -0.264257,0.266763 -1.849793,1.76064 -2.64256,2.587606 -0.343532,0.320116 -0.07927,0.800291 0.264254,1.040378 l 1.638389,1.120407 c 1.242002,0.853644 1.109876,0.853644 1.559109,0.853644 0.475662,0 0.634213,-0.560204 0.739917,-1.120408 0.105703,-0.560203 0.449234,-2.374196 0.713491,-4.454952 0.264256,-2.080755 0.264256,-2.240814 0,-2.374195 -0.264257,-0.133384 -0.687064,0 -1.638388,0.373467 -0.951319,0.37347 -4.386647,1.867346 -5.470095,2.34752 z"
       id="path3"
       style="fill:#ffffff;stroke-width:0.265507" />
  </g>
  <g
     id="telegram-mute-panel">
    <rect
       style="opacity:0.00100002"
       width="22"
       height="22"
       x="-22"
       y="0"
       id="rect2-8" />
    <path
       inkscape:connector-curvature="0"
       id="path9068-9-37-8-0-1-5"
       d="m -4.333342,4.333342 -13.466657,5e-6 V 15.733343 H -4.2 Z"
       style="display:inline;overflow:visible;visibility:visible;opacity:0.4;fill:url(#linearGradient1);fill-opacity:1;fill-rule:nonzero;stroke:none;stroke-width:0.435796;marker:none"
       sodipodi:nodetypes="cccccc" />
    <path
       d="m -6.357568,3 h -9.285044 c -0.890121,0.0015 -1.743549,0.355053 -2.372878,0.984523 -0.629459,0.629323 -0.983488,1.482734 -0.984504,2.372844 v 9.28539 -1.25e-4 c 0.001,0.890088 0.355045,1.743522 0.984504,2.372845 0.629329,0.62947 1.482757,0.983483 2.372878,0.984523 h 9.285366 -1.32e-4 c 0.890104,-0.0015 1.743545,-0.355053 2.372862,-0.984523 0.629461,-0.629323 0.983484,-1.482757 0.984509,-2.372845 V 6.357552 C -3.001807,5.46744 -3.355055,4.614029 -3.984516,3.9847 -4.613833,3.355235 -5.467274,3.0012 -6.357379,3.000184 Z m -9.17576,1.333354 h 9.066676 c 0.591378,0.0011 1.069158,0.0293 1.487336,0.447489 0.418133,0.418124 0.645264,0.961113 0.645982,1.552511 v 9.333323 H -17.66666 V 6.333354 c 7.88e-4,-0.591398 0.227849,-1.134357 0.646001,-1.552511 0.418133,-0.418158 0.895942,-0.446775 1.487331,-0.447489 z"
       id="path1193-367-0"
       style="fill:#d3dae3;fill-opacity:1;stroke-width:0.031747"
       sodipodi:nodetypes="ccccccccccccccccccccccccc" />
    <path
       class="st3"
       d="m -13.556674,8.771431 c -1.08345,0.506852 -2.193325,0.906997 -2.193325,1.173761 0,0.346793 0.660639,0.453499 1.400555,0.693586 0.607791,0.213409 1.400558,0.213409 1.876218,-0.160059 0.554938,-0.426823 2.6689837,-1.787318 3.3296243,-2.267492 0.660639,-0.50685 0.713491,-0.08003 0.42281,0.186737 -0.264257,0.266763 -1.8497923,1.76064 -2.6425593,2.587606 -0.343532,0.320116 -0.07927,0.800291 0.264254,1.040378 l 1.6383883,1.120407 c 1.242002,0.853644 1.109876,0.853644 1.559109,0.853644 0.475662,0 0.634213,-0.560204 0.739917,-1.120408 0.105703,-0.560203 0.449234,-2.374196 0.713491,-4.454952 0.264256,-2.080755 0.264256,-2.240814 0,-2.374195 -0.264257,-0.133384 -0.687064,0 -1.638388,0.373467 -0.951319,0.373469 -4.3866463,1.867346 -5.4700943,2.34752 z"
       id="path3-2"
       style="fill:#c83771;fill-opacity:1;stroke-width:0.265507" />
  </g>
  <g
     id="telegram-attention-panel">
    <rect
       style="opacity:0.00100002"
       width="22"
       height="22"
       x="0"
       y="0"
       id="rect2" />
    <path
       inkscape:connector-curvature="0"
       id="path9068-9-37-8-0-1-1"
       d="m 17.666658,4.333342 -13.4666575,5e-6 V 15.733343 H 17.8 Z"
       style="display:inline;overflow:visible;visibility:visible;fill:url(#linearGradient2);fill-opacity:1;fill-rule:nonzero;stroke:none;stroke-width:0.435796;marker:none"
       sodipodi:nodetypes="cccccc" />
    <path
       d="M 15.642432,3 H 6.3573885 c -0.890122,0.0015 -1.74355,0.355053 -2.372879,0.984523 -0.629458,0.629323 -0.983487,1.482734 -0.984503,2.372844 v 9.28539 -1.25e-4 c 10e-4,0.890088 0.355045,1.743522 0.984503,2.372845 0.629329,0.62947 1.482757,0.983483 2.372879,0.984523 h 9.2853655 -1.32e-4 c 0.890105,-0.0015 1.743545,-0.355053 2.372862,-0.984523 0.629462,-0.629323 0.983484,-1.482757 0.98451,-2.372845 V 6.357552 C 18.998193,5.46744 18.644947,4.614029 18.015484,3.9847 17.386167,3.355235 16.532727,3.0012 15.642621,3.000184 Z M 6.4666725,4.333354 h 9.0666755 c 0.591378,0.0011 1.069158,0.0293 1.487336,0.447489 0.418133,0.418124 0.645264,0.961113 0.645982,1.552511 v 9.333323 H 4.3333405 V 6.333354 c 7.87e-4,-0.591398 0.227848,-1.134357 0.646,-1.552511 0.418134,-0.418158 0.895942,-0.446775 1.487332,-0.447489 z"
       id="path1193-367-7"
       style="fill:#d3dae3;fill-opacity:1;stroke-width:0.031747"
       sodipodi:nodetypes="ccccccccccccccccccccccccc" />
    <path
       class="st3"
       d="m 8.4433252,8.77143 c -1.08345,0.506852 -2.193325,0.906997 -2.193325,1.173761 0,0.346794 0.660639,0.4535 1.400555,0.693587 0.607791,0.213409 1.4005581,0.213409 1.8762181,-0.160059 0.5549377,-0.426823 2.6689837,-1.787319 3.3296247,-2.267493 0.660639,-0.50685 0.713491,-0.08003 0.42281,0.186737 -0.264257,0.266763 -1.849793,1.760641 -2.64256,2.587607 -0.343532,0.320116 -0.07927,0.800291 0.264254,1.040378 l 1.638389,1.120407 c 1.242002,0.853644 1.109876,0.853644 1.559109,0.853644 0.475662,0 0.634213,-0.560204 0.739917,-1.120408 0.105703,-0.560203 0.449234,-2.374196 0.713491,-4.454953 0.264256,-2.080754 0.264256,-2.240813 0,-2.374194 -0.264257,-0.133384 -0.687064,0 -1.638388,0.373467 C 12.962101,6.79738 9.5267733,8.291256 8.4433252,8.77143 Z"
       id="path3-0"
       style="fill:#2aff80;fill-opacity:1;stroke-width:0.265507" />
  </g>
</svg>
