<?xml version="1.0" encoding="UTF-8" standalone="no"?>
<svg
   width="32"
   height="32"
   version="1.1"
   id="svg22"
   sodipodi:docname="touchpad.svg"
   inkscape:version="1.2.1 (9c6d41e410, 2022-07-14)"
   xmlns:inkscape="http://www.inkscape.org/namespaces/inkscape"
   xmlns:sodipodi="http://sodipodi.sourceforge.net/DTD/sodipodi-0.dtd"
   xmlns:xlink="http://www.w3.org/1999/xlink"
   xmlns="http://www.w3.org/2000/svg"
   xmlns:svg="http://www.w3.org/2000/svg"
   xmlns:rdf="http://www.w3.org/1999/02/22-rdf-syntax-ns#"
   xmlns:cc="http://creativecommons.org/ns#"
   xmlns:dc="http://purl.org/dc/elements/1.1/">
  <g
     id="touchpad_disabled"
     transform="translate(32)">
    <rect
       style="opacity:0.00100002"
       width="32"
       height="32"
       x="0"
       y="2.5878907e-07"
       id="rect17" />
    <path
       inkscape:connector-curvature="0"
       id="path9068-9-37-8-0-1-4"
       d="m 26.000061,8.935306 c 0,-2.023529 -1.261063,-3.035294 -2.965004,-3.035294 H 8.9686634 c -1.968602,0 -2.968602,1.011765 -2.968602,3.035294 V 23.100012 H 26.000061 Z"
       style="display:inline;overflow:visible;visibility:visible;opacity:0.6;fill:url(#linearGradient22485);fill-opacity:1.0;fill-rule:nonzero;stroke:none;stroke-width:0.657539;marker:none"
       sodipodi:nodetypes="ccccccc" />
    <path
       d="M 22.963686,4 H 9.0361324 9.0000624 c -3,0 -5.012975,2 -5,5.036069 v 13.92805 -1.9e-4 c 0.0015,1.335156 0.532567,2.615282 1.476754,3.559294 0.943994,0.944202 2.224137,1.475226 3.559318,1.476775 h 13.9280336 -1.94e-4 c 1.335183,-0.0015 2.615324,-0.532573 3.559318,-1.476775 0.944187,-0.944012 1.475232,-2.224138 1.476755,-3.559294 V 9.036333 l 1.5e-5,-0.03633 c 0.0016,-3 -2,-5.020834 -5.036089,-4.999736 z M 8.9908634,6 h 14.0441936 -0.035 c 1.838418,0 3,0.997012 3,3.000012 V 23.000024 H 6.0000614 V 9.000012 c 0,-2.000012 1,-3.000012 3,-3.000012 z"
       id="path1193-7-94"
       style="fill:#d3dae3;fill-opacity:0.5;stroke-width:0.047619"
       sodipodi:nodetypes="ccccccccccccccccccccccccc" />
    <rect
       style="fill:#3daee9;fill-opacity:0.50196081;stroke-width:0.980001;stroke-opacity:0.550265"
       height="14"
       rx="7"
       y="7.5"
       x="9"
       width="14"
       id="rect16-8-2" />
    <path
       style="fill:#ffffff;fill-opacity:0.5;fill-rule:nonzero;stroke:none;stroke-width:14.8874;stroke-miterlimit:4;stroke-dasharray:none;stroke-opacity:1"
       d="m 15.797697,9.934658 c -0.941492,-0.0043 -1.748728,0.170439 -2.482813,0.537989 -0.244379,0.122352 -0.282422,0.16527 -0.266602,0.297363 0.03234,0.269594 0.171513,0.295766 0.583787,0.110742 0.766452,-0.343959 1.13938,-0.41731 2.106152,-0.41836 1.109555,-9e-4 1.518164,0.09413 2.428128,0.565333 0.156346,0.08085 0.651298,0.462916 0.836039,0.257715 0.182963,-0.182952 0.08629,-0.334377 -0.384866,-0.602246 -0.92918,-0.528273 -1.74104,-0.743427 -2.819825,-0.748536 z m -0.02874,1.089649 c -1.242229,-9.46e-4 -2.483683,0.489849 -3.394041,1.473145 -0.352174,0.38039 -0.762894,1.003858 -0.762894,1.158007 0,0.17974 0.07409,0.278907 0.208497,0.278907 0.105335,0 0.21252,-0.113642 0.467579,-0.496973 0.570439,-0.857311 1.309957,-1.426056 2.262698,-1.74043 0.738886,-0.241164 1.604139,-0.213244 2.435642,0 1.073618,0.352895 1.994666,1.139059 2.499223,2.133496 0.109786,0.216382 0.175462,0.282326 0.283006,0.282326 0.185208,0 0.293951,-0.137828 0.243358,-0.308985 -0.08154,-0.276066 -0.516781,-0.944974 -0.846287,-1.30088 -0.91163,-0.984681 -2.154553,-1.477674 -3.396781,-1.478613 z m 0.05879,1.082129 c -0.264764,-0.0046 -0.533408,0.02045 -0.801851,0.07656 -1.275616,0.266645 -2.341811,1.299727 -2.683107,2.599709 -0.181123,0.68986 -0.09786,1.816684 0.200973,2.717969 0.08933,0.269347 0.132432,0.32552 0.260451,0.34043 0.29434,0.03421 0.323102,-0.105882 0.146972,-0.715039 -0.503984,-1.743049 -0.07012,-3.225988 1.179887,-4.034572 1.235822,-0.799432 2.935472,-0.562842 3.902639,0.542774 0.606068,0.692832 0.938494,1.864746 0.674018,2.376173 -0.174709,0.337862 -0.600089,0.540919 -0.949511,0.453223 -0.255348,-0.06409 -0.558034,-0.377891 -0.596777,-0.618653 -0.136737,-0.849619 -0.329735,-1.182113 -0.818263,-1.409571 -0.416731,-0.194037 -0.764085,-0.18868 -1.173046,0.01846 -0.381053,0.193011 -0.673005,0.582571 -0.732131,0.976856 -0.02133,0.142083 -0.01194,0.449555 0.02121,0.682911 0.206155,1.453581 1.246138,2.603489 2.674216,2.957227 0.179601,0.04446 0.473238,0.07589 0.652836,0.06973 l 0.326757,-0.01094 c 0.184573,-0.09369 0.194676,-0.309327 0,-0.415625 l -0.462108,-0.07041 c -0.581624,-0.08863 -0.822476,-0.165268 -1.222264,-0.390332 -0.869398,-0.48943 -1.492283,-1.550409 -1.492283,-2.541602 0,-0.436808 0.165379,-0.691959 0.550974,-0.851759 0.278615,-0.115472 0.282611,-0.115472 0.561228,0 0.352609,0.146132 0.522335,0.390692 0.566015,0.814161 0.08018,0.777168 0.619526,1.288575 1.358986,1.288575 0.593452,0 1.092979,-0.385111 1.270122,-0.978907 0.173374,-0.581127 -0.0594,-1.55719 -0.548243,-2.299611 -0.647893,-0.983912 -1.720345,-1.557803 -2.867679,-1.577735 z m -0.03829,1.12588 c -0.369519,0.0047 -0.749515,0.07286 -1.060941,0.19414 -0.48018,0.235172 -0.937741,0.704829 -1.174412,1.204493 -0.180095,0.380191 -0.190832,0.439401 -0.190725,1.084864 1.32e-4,0.794112 0.09624,1.215966 0.438182,1.929102 0.294656,0.614485 0.702881,1.150419 1.156644,1.517579 0.393311,0.318248 0.435097,0.333694 0.598826,0.213966 0.167626,-0.122561 0.07411,-0.33303 -0.264549,-0.592677 -0.367216,-0.281526 -0.763838,-0.790764 -1.031541,-1.324805 -0.439723,-0.877174 -0.550507,-1.961287 -0.263869,-2.581935 0.208031,-0.450443 0.525243,-0.786445 0.929688,-0.985059 0.485925,-0.23863 1.195714,-0.23863 1.681641,0 0.579988,0.284816 0.950827,0.803427 1.082132,1.514844 0.07836,0.424655 0.19701,0.565808 0.378025,0.449122 0.08386,-0.05407 0.102139,-0.144164 0.09434,-0.467579 -0.01894,-0.786184 -0.569794,-1.575532 -1.374713,-1.970802 -0.2702,-0.131474 -0.62921,-0.189927 -0.998728,-0.185253 z"
       id="path20-8-8" />
    <path
       style="fill:#ffffff;fill-opacity:0.5;fill-rule:nonzero;stroke:none;stroke-width:14.8874;stroke-miterlimit:4;stroke-dasharray:none;stroke-opacity:1"
       d="m 17.430173,18.009299 c -1.014519,-0.221306 -1.79648,-1.11515 -1.884271,-2.15387 -0.02776,-0.32829 -0.01811,-0.371676 0.09552,-0.432524 0.21654,-0.115888 0.341692,0.0058 0.385,0.374267 0.10891,0.926593 0.789839,1.625428 1.705886,1.750704 0.44818,0.0613 0.592317,0.233366 0.376376,0.449309 -0.108123,0.108118 -0.228544,0.110271 -0.678519,0.01215 z"
       id="path22-4-3" />
  </g>
  <g
     id="22-22-touchpad_disabled"
     transform="translate(32)">
    <rect
       style="opacity:0.00100002"
       width="22"
       height="22"
       x="0"
       y="-22.000015"
       id="rect7" />
    <path
       inkscape:connector-curvature="0"
       id="path9068-9-37-8-0-1-4-2"
       d="m 19,-17.042872 c 0,-1.028571 -1,-2.057143 -2,-2.057143 H 5 c -1,0 -2,1.028572 -2,2.057143 V -5 h 16 z"
       style="display:inline;overflow:visible;visibility:visible;opacity:0.6;fill:url(#linearGradient23558);fill-opacity:1.0;fill-rule:nonzero;stroke:none;stroke-width:0.538128;marker:none"
       sodipodi:nodetypes="ccccccc" />
    <path
       d="M 16.803011,-21.000015 H 5.196742 c -1.112651,0.0015 -2.179461,0.44383 -2.96612,1.230652 -0.786853,0.78667 -1.22936,1.853404 -1.230622,2.966097 v 11.606702 -1.51e-4 c 8.62e-4,1.112617 0.443769,2.179389 1.230622,2.96606 0.786659,0.786822 1.853469,1.229367 2.96612,1.230652 h 11.606699 -1.9e-4 c 1.11265,-0.0012 2.17946,-0.44383 2.96611,-1.230652 0.78686,-0.786671 1.22937,-1.853443 1.23063,-2.96606 v -11.606324 c -0.002,-1.112655 -0.44377,-2.179427 -1.23063,-2.966098 -0.78665,-0.786822 -1.85346,-1.229366 -2.96611,-1.230652 z m -10.803011,2 h 8 3 c 1,0 2,1 2,2 l 1e-6,12.000025 h -16 L 3,-17.000015 c 0,-1 1,-2 2,-2 z"
       id="path1193-3-5-4"
       style="fill:#d3dae3;fill-opacity:0.5;stroke-width:0.0396828"
       sodipodi:nodetypes="ccccccccccccccccccccccccc" />
    <rect
       style="fill:#3daee9;fill-opacity:0.50196081;stroke-width:0.700003;stroke-opacity:0.550265"
       height="10"
       rx="5"
       y="-17.000015"
       x="6"
       width="10"
       id="rect16-7-0-2-2" />
    <path
       style="fill:#ffffff;fill-opacity:0.502531;fill-rule:nonzero;stroke:none;stroke-width:9.9246;stroke-miterlimit:4;stroke-dasharray:none;stroke-opacity:1"
       d="m 10.892539,-15.592596 c -0.627646,-0.003 -1.1657896,0.113619 -1.6551706,0.358648 -0.162915,0.08156 -0.188276,0.110175 -0.177726,0.198241 0.02157,0.179723 0.114332,0.197171 0.38918,0.07386 0.5109569,-0.229299 0.7595656,-0.278202 1.4040676,-0.278898 0.739686,-6.05e-4 1.012086,0.06274 1.618715,0.37688 0.104227,0.0539 0.434186,0.308598 0.557347,0.1718 0.121969,-0.12196 0.05749,-0.222907 -0.256571,-0.401485 -0.61944,-0.352172 -1.160668,-0.495603 -1.879842,-0.499011 z m -0.01914,0.726412 c -0.828135,-6.32e-4 -1.6557496,0.326561 -2.2626406,0.982076 -0.234777,0.253591 -0.508587,0.66922 -0.508587,0.77199 0,0.119821 0.04935,0.185928 0.138995,0.185928 0.07018,0 0.141681,-0.07577 0.31171,-0.331302 0.380287,-0.57153 0.873284,-0.950686 1.5084346,-1.160264 0.492581,-0.160769 1.069398,-0.142158 1.623721,0 0.71573,0.235257 1.329748,0.759355 1.666112,1.4223 0.0732,0.144248 0.116971,0.188213 0.188663,0.188213 0.123473,0 0.195965,-0.09188 0.162234,-0.205987 -0.05434,-0.184041 -0.344509,-0.629969 -0.564174,-0.867234 -0.607738,-0.656438 -1.436337,-0.985088 -2.264468,-0.98572 z m 0.03919,0.721404 c -0.176505,-0.0033 -0.355596,0.01363 -0.534551,0.05098 -0.8503866,0.177759 -1.5611726,0.866464 -1.7886986,1.733095 -0.120745,0.459896 -0.06524,1.211097 0.133981,1.811939 0.05954,0.17956 0.0883,0.217006 0.173628,0.226946 0.196225,0.02283 0.215398,-0.07063 0.09797,-0.476676 -0.335981,-1.162006 -0.04678,-2.15061 0.786577,-2.689656 0.8238566,-0.53294 1.9569336,-0.37522 2.6016956,0.361843 0.404034,0.46188 0.625649,1.243135 0.449334,1.584078 -0.116469,0.225236 -0.400049,0.360605 -0.632994,0.30214 -0.170226,-0.04274 -0.372015,-0.251919 -0.397842,-0.412423 -0.09115,-0.566398 -0.219817,-0.788057 -0.545493,-0.939692 -0.277815,-0.129354 -0.50938,-0.125785 -0.782014,0.01231 -0.254032,0.128674 -0.448661,0.388377 -0.4880749,0.651224 -0.01417,0.09472 -0.0082,0.299697 0.0141,0.455261 0.137434,0.969033 0.830739,1.735622 1.782769,1.971441 0.119735,0.02963 0.315485,0.05058 0.435212,0.04653 l 0.217833,-0.0076 c 0.123046,-0.06249 0.129783,-0.206208 0,-0.277075 l -0.308065,-0.04696 c -0.387739,-0.05903 -0.548303,-0.110173 -0.814821,-0.26021 -0.579587,-0.326282 -0.994834,-1.033582 -0.994834,-1.694362 0,-0.291197 0.110248,-0.461294 0.367309,-0.567826 0.185734,-0.07701 0.188404,-0.07701 0.37414,0 0.235072,0.09742 0.348218,0.260456 0.377337,0.542759 0.05348,0.518101 0.413008,0.859028 0.905971,0.859028 0.395623,0 0.728634,-0.25673 0.846725,-0.652588 0.115584,-0.387409 -0.03956,-1.0381 -0.365483,-1.533036 -0.43192,-0.655925 -1.146868,-1.03851 -1.911745,-1.051801 z m -0.02549,0.750571 c -0.246343,0.0034 -0.499666,0.04859 -0.707273,0.129421 -0.3201189,0.156777 -0.6251526,0.469876 -0.7829296,0.802981 -0.120058,0.253451 -0.127221,0.292923 -0.127142,0.723223 8.1e-5,0.529394 0.06422,0.810623 0.292108,1.286037 0.196437,0.409647 0.4685806,0.766926 0.7710856,1.011691 0.262194,0.212159 0.290052,0.222465 0.399207,0.142642 0.111745,-0.08173 0.04935,-0.222009 -0.176368,-0.395108 -0.244806,-0.187681 -0.509214,-0.527158 -0.6876769,-0.883179 -0.2931397,-0.584773 -0.3669917,-1.307499 -0.1759047,-1.721251 0.1386807,-0.300286 0.3501476,-0.524283 0.6197796,-0.656688 0.323936,-0.159087 0.797123,-0.159087 1.121064,0 0.386646,0.189873 0.633866,0.535604 0.721403,1.009872 0.05222,0.283093 0.131336,0.377196 0.252014,0.299405 0.05586,-0.03601 0.06807,-0.09611 0.06289,-0.311712 -0.01258,-0.524109 -0.379851,-1.050332 -0.916452,-1.313838 -0.180126,-0.08764 -0.419467,-0.126611 -0.665805,-0.123496 z"
       id="path20-0-7-9-9" />
    <path
       style="fill:#ffffff;fill-opacity:0.5;fill-rule:nonzero;stroke:none;stroke-width:9.9246;stroke-miterlimit:4;stroke-dasharray:none;stroke-opacity:1"
       d="m 11.98083,-10.209632 c -0.676329,-0.147535 -1.197628,-0.743412 -1.25615,-1.435878 -0.01846,-0.218856 -0.01203,-0.247775 0.06368,-0.288341 0.144349,-0.07725 0.227788,0.0038 0.256659,0.249504 0.07263,0.617713 0.526549,1.083593 1.137228,1.167108 0.298783,0.04084 0.394875,0.155574 0.250915,0.299534 -0.07211,0.07211 -0.152359,0.07348 -0.452336,0.0081 z"
       id="path22-9-8-6-0" />
  </g>
  <g
     id="22-22-touchpad_enabled"
     transform="translate(0,-22.000015)">
    <rect
       style="opacity:0.00100002"
       width="22"
       height="22"
       x="0"
       y="0"
       id="rect2" />
    <path
       inkscape:connector-curvature="0"
       id="path9068-9-37-8-0-1-0-1-3-7-4-6-1"
       d="M 19.474508,2.704 2.356,2.704005 V 17.495 h 17.288 z"
       style="display:inline;overflow:visible;visibility:visible;opacity:0.6;fill:url(#linearGradient6958);fill-opacity:1.0;fill-rule:nonzero;stroke:none;stroke-width:0.55969;marker:none"
       sodipodi:nodetypes="cccccc" />
    <rect
       style="fill:#3daee9;fill-opacity:1;stroke-width:0.700003;stroke-opacity:0.550265"
       height="10"
       rx="5"
       y="5.0000348"
       x="6.0000014"
       width="10"
       id="rect16-7-1" />
    <path
       style="fill:#ffffff;fill-opacity:1;fill-rule:nonzero;stroke:none;stroke-width:9.9246;stroke-miterlimit:4;stroke-dasharray:none;stroke-opacity:1"
       d="M 10.892542,6.407453 C 10.264896,6.404453 9.726752,6.521072 9.237371,6.766101 9.074456,6.847661 9.049095,6.876276 9.059645,6.964342 9.081215,7.144065 9.173977,7.161513 9.448825,7.038202 9.959782,6.808903 10.208391,6.76 10.852893,6.759304 c 0.739686,-6.05e-4 1.012086,0.06274 1.618715,0.37688 0.104227,0.0539 0.434186,0.308598 0.557347,0.1718 0.121969,-0.12196 0.05749,-0.222907 -0.256571,-0.401485 -0.61944,-0.352172 -1.160668,-0.495603 -1.879842,-0.499011 z m -0.01914,0.726412 c -0.828135,-6.32e-4 -1.65575,0.326561 -2.262641,0.982076 -0.234777,0.253591 -0.508587,0.66922 -0.508587,0.77199 0,0.119821 0.04935,0.185928 0.138995,0.185928 0.07018,0 0.141681,-0.07577 0.31171,-0.331302 0.380287,-0.57153 0.873284,-0.950686 1.508435,-1.160264 0.492581,-0.160769 1.069398,-0.142158 1.623721,0 0.71573,0.235257 1.329748,0.759355 1.666112,1.4223 0.0732,0.144248 0.116971,0.188213 0.188663,0.188213 0.123473,0 0.195965,-0.09188 0.162234,-0.205987 C 13.647704,8.802778 13.357535,8.35685 13.13787,8.119585 12.530132,7.463147 11.701533,7.134497 10.873402,7.133865 Z m 0.03919,0.721404 c -0.176505,-0.0033 -0.355596,0.01363 -0.534551,0.05098 -0.850387,0.177759 -1.561173,0.866464 -1.788699,1.733095 -0.120745,0.459896 -0.06524,1.211097 0.133981,1.811939 0.05954,0.17956 0.0883,0.217006 0.173628,0.226946 0.196225,0.02283 0.215398,-0.07063 0.09797,-0.476676 -0.335981,-1.162006 -0.04678,-2.15061 0.786577,-2.689656 0.823857,-0.53294 1.956934,-0.37522 2.601696,0.361843 0.404034,0.46188 0.625649,1.243135 0.449334,1.584078 -0.116469,0.225236 -0.400049,0.360605 -0.632994,0.30214 -0.170226,-0.04274 -0.372015,-0.251919 -0.397842,-0.412423 -0.09115,-0.566398 -0.219817,-0.788057 -0.545493,-0.939692 -0.277815,-0.129354 -0.50938,-0.125785 -0.782014,0.01231 -0.254032,0.128674 -0.448661,0.388377 -0.488075,0.651224 -0.01417,0.09472 -0.0082,0.299697 0.0141,0.455261 0.137434,0.969033 0.830739,1.735622 1.782769,1.971441 0.119735,0.02963 0.315485,0.05058 0.435212,0.04653 l 0.217833,-0.0076 c 0.123046,-0.06249 0.129783,-0.206208 0,-0.277075 l -0.308065,-0.04696 c -0.387739,-0.05903 -0.548303,-0.110173 -0.814821,-0.26021 -0.579587,-0.326282 -0.994834,-1.033582 -0.994834,-1.694362 0,-0.291197 0.110248,-0.461294 0.367309,-0.567826 0.185734,-0.07701 0.188404,-0.07701 0.37414,0 0.235072,0.09742 0.348218,0.260456 0.377337,0.542759 0.05348,0.518101 0.413008,0.859028 0.905971,0.859028 0.395623,0 0.728634,-0.25673 0.846725,-0.652588 0.115584,-0.387409 -0.03956,-1.0381 -0.365483,-1.533036 -0.43192,-0.655925 -1.146868,-1.03851 -1.911745,-1.051801 z M 10.887102,8.60584 C 10.640759,8.60924 10.387436,8.65443 10.179829,8.735261 9.85971,8.892038 9.554676,9.205137 9.396899,9.538242 9.276841,9.791693 9.269678,9.831165 9.269757,10.261465 c 8.1e-5,0.529394 0.06422,0.810623 0.292108,1.286037 0.196437,0.409647 0.468581,0.766926 0.771086,1.011691 0.262194,0.212159 0.290052,0.222465 0.399207,0.142642 0.111745,-0.08173 0.04935,-0.222009 -0.176368,-0.395108 -0.244806,-0.187681 -0.509214,-0.527158 -0.687677,-0.883179 -0.29314,-0.584773 -0.366992,-1.307499 -0.175905,-1.721251 0.138681,-0.300286 0.350148,-0.524283 0.61978,-0.656688 0.323936,-0.159087 0.797123,-0.159087 1.121064,0 0.386646,0.189873 0.633866,0.535604 0.721403,1.009872 0.05222,0.283093 0.131336,0.377196 0.252014,0.299405 0.05586,-0.03601 0.06807,-0.09611 0.06289,-0.311712 C 12.456779,9.519065 12.089508,8.992842 11.552907,8.729336 11.372781,8.641696 11.13344,8.602725 10.887102,8.60584 Z"
       id="path20-0-0" />
    <path
       style="fill:#ffffff;fill-opacity:1;fill-rule:nonzero;stroke:none;stroke-width:9.9246;stroke-miterlimit:4;stroke-dasharray:none;stroke-opacity:1"
       d="m 11.980833,11.790417 c -0.676329,-0.147535 -1.197628,-0.743412 -1.25615,-1.435878 -0.01846,-0.218856 -0.01203,-0.247775 0.06368,-0.288341 0.144349,-0.07725 0.227788,0.0038 0.256659,0.249504 0.07263,0.617713 0.526549,1.083593 1.137228,1.167108 0.298783,0.04084 0.394875,0.155574 0.250915,0.299534 -0.07211,0.07211 -0.152359,0.07348 -0.452336,0.0081 z"
       id="path22-9-7" />
    <path
       d="M 16.803011,1 H 5.196742 C 4.084091,1.0015 3.017281,1.44383 2.230622,2.230652 1.443769,3.017323 1.001262,4.084056 1,5.196749 V 16.803451 16.8033 c 8.62e-4,1.112617 0.443769,2.179389 1.230622,2.96606 0.786659,0.786822 1.853469,1.229367 2.96612,1.230652 h 11.606699 -1.9e-4 c 1.11265,-0.0012 2.17946,-0.44383 2.96611,-1.230652 0.78686,-0.786671 1.22937,-1.853443 1.23063,-2.96606 V 5.196976 c -0.002,-1.112655 -0.44377,-2.179426 -1.23063,-2.966097 -0.78665,-0.786822 -1.85346,-1.229367 -2.96611,-1.230652 z M 5.617003,3.00005 h 10.765998 c 0.73924,0.0011 1.43628,-0.113763 1.959,0.408983 0.52269,0.522671 0.6571,1.018431 0.658,1.757669 v 11.833323 h -16 V 5.166702 C 3.000852,4.427464 3.135308,3.931742 3.658002,3.409033 4.18068,2.886362 4.87778,3.000957 5.617003,3.00005 Z"
       id="path1193-3-5"
       style="fill:#d3dae3;fill-opacity:1;stroke-width:0.0396828"
       sodipodi:nodetypes="ccccccccccccccccccccccccc" />
  </g>
  <g
     id="touchpad_enabled">
    <rect
       style="opacity:0.00100002"
       width="32"
       height="32"
       x="0"
       y="0"
       id="rect12" />
    <path
       inkscape:connector-curvature="0"
       id="path9068-9-37-8-0-1"
       d="m 26.2,6 -20.4,5e-6 V 23.1 h 20.4 z"
       style="display:inline;overflow:visible;visibility:visible;opacity:0.6;fill:url(#linearGradient5058);fill-opacity:1.0;fill-rule:nonzero;stroke:none;stroke-width:0.653705;marker:none"
       sodipodi:nodetypes="ccccc" />
    <rect
       style="fill:#3daee9;fill-opacity:1;stroke-width:0.980001;stroke-opacity:0.550265"
       height="14"
       rx="7"
       y="7.4999995"
       x="9"
       width="14"
       id="rect16-74" />
    <path
       style="fill:#ffffff;fill-opacity:1;fill-rule:nonzero;stroke:none;stroke-width:14.8874;stroke-miterlimit:4;stroke-dasharray:none;stroke-opacity:1"
       d="m 15.797698,9.9346567 c -0.941492,-0.0043 -1.748728,0.1704393 -2.482813,0.5379893 -0.244379,0.122352 -0.282422,0.16527 -0.266602,0.297363 0.03234,0.269594 0.171513,0.295766 0.583786,0.110742 0.766452,-0.343959 1.13938,-0.41731 2.106153,-0.41836 1.109555,-9e-4 1.518164,0.09413 2.428128,0.565333 0.156345,0.08085 0.651298,0.462916 0.836039,0.257715 0.182963,-0.182952 0.08629,-0.334377 -0.384866,-0.602246 -0.92918,-0.528273 -1.74104,-0.7434263 -2.819825,-0.7485363 z m -0.02874,1.0896493 c -1.242229,-9.46e-4 -2.483683,0.489849 -3.394041,1.473145 -0.352174,0.38039 -0.762894,1.003858 -0.762894,1.158007 0,0.17974 0.07409,0.278907 0.208497,0.278907 0.105335,0 0.21252,-0.113642 0.467579,-0.496973 0.570439,-0.857311 1.309957,-1.426056 2.262698,-1.74043 0.738886,-0.241164 1.604139,-0.213244 2.435642,0 1.073618,0.352895 1.994666,1.139059 2.499223,2.133496 0.109786,0.216382 0.175462,0.282326 0.283006,0.282326 0.185208,0 0.293951,-0.137828 0.243358,-0.308985 -0.08154,-0.276066 -0.516781,-0.944974 -0.846287,-1.30088 -0.91163,-0.984681 -2.154553,-1.477674 -3.396781,-1.478613 z m 0.05879,1.082129 c -0.264765,-0.0046 -0.533409,0.02045 -0.801852,0.07656 -1.275616,0.266645 -2.34181,1.299727 -2.683107,2.599709 -0.181123,0.68986 -0.09786,1.816684 0.200973,2.717969 0.08933,0.269347 0.132432,0.32552 0.260451,0.34043 0.29434,0.03421 0.323102,-0.105882 0.146972,-0.715039 -0.503983,-1.743049 -0.07012,-3.225988 1.179888,-4.034572 1.235821,-0.799432 2.935472,-0.562842 3.902639,0.542774 0.606068,0.692832 0.938494,1.864746 0.674018,2.376173 -0.174709,0.337862 -0.60009,0.540919 -0.949511,0.453223 -0.255348,-0.06409 -0.558034,-0.377891 -0.596778,-0.618653 -0.136736,-0.849619 -0.329734,-1.182113 -0.818262,-1.409571 -0.416732,-0.194037 -0.764085,-0.18868 -1.173046,0.01846 -0.381053,0.193011 -0.673005,0.582571 -0.732131,0.976856 -0.02133,0.142083 -0.01194,0.449555 0.02121,0.682911 0.206155,1.453581 1.246139,2.603489 2.674217,2.957227 0.179601,0.04446 0.473238,0.07589 0.652836,0.06973 l 0.326757,-0.01094 c 0.184573,-0.09369 0.194676,-0.309327 0,-0.415625 l -0.462108,-0.07041 c -0.581624,-0.08863 -0.822476,-0.165268 -1.222264,-0.390332 -0.869399,-0.48943 -1.492283,-1.550409 -1.492283,-2.541602 0,-0.436808 0.165379,-0.691959 0.550974,-0.851759 0.278615,-0.115472 0.282611,-0.115472 0.561228,0 0.352609,0.146132 0.522335,0.390692 0.566015,0.814161 0.08018,0.777168 0.619526,1.288575 1.358986,1.288575 0.593452,0 1.092979,-0.385111 1.270122,-0.978907 0.173374,-0.581127 -0.0594,-1.55719 -0.548243,-2.299611 -0.647893,-0.983912 -1.720345,-1.557803 -2.86768,-1.577735 z m -0.03829,1.12588 c -0.369519,0.0047 -0.749515,0.07286 -1.060941,0.19414 -0.48018,0.235172 -0.937741,0.704829 -1.174412,1.204493 -0.180096,0.380191 -0.190833,0.439401 -0.190725,1.084864 1.32e-4,0.794112 0.09624,1.215966 0.438182,1.929102 0.294656,0.614485 0.702881,1.150419 1.156644,1.517579 0.393311,0.318248 0.435097,0.333694 0.598826,0.213966 0.167626,-0.122561 0.07411,-0.33303 -0.264549,-0.592677 -0.367216,-0.281526 -0.763838,-0.790764 -1.031541,-1.324805 -0.439723,-0.877174 -0.550507,-1.961287 -0.26387,-2.581935 0.208032,-0.450443 0.525244,-0.786445 0.929688,-0.985059 0.485925,-0.23863 1.195715,-0.23863 1.681642,0 0.579988,0.284816 0.950827,0.803427 1.082132,1.514844 0.07836,0.424655 0.19701,0.565808 0.378025,0.449122 0.08386,-0.05407 0.102139,-0.144164 0.09434,-0.467579 -0.01894,-0.786184 -0.569793,-1.575532 -1.374712,-1.970802 -0.2702,-0.131474 -0.62921,-0.189927 -0.998727,-0.185253 z"
       id="path20-4" />
    <path
       style="fill:#ffffff;fill-opacity:1;fill-rule:nonzero;stroke:none;stroke-width:14.8874;stroke-miterlimit:4;stroke-dasharray:none;stroke-opacity:1"
       d="m 17.430173,18.009298 c -1.014518,-0.221306 -1.79648,-1.11515 -1.884271,-2.15387 -0.02776,-0.32829 -0.01811,-0.371676 0.09552,-0.432524 0.21654,-0.115888 0.341692,0.0058 0.385,0.374267 0.10891,0.926593 0.78984,1.625428 1.705887,1.750704 0.44818,0.0613 0.592317,0.233366 0.376376,0.449309 -0.108123,0.108118 -0.228544,0.110271 -0.678519,0.01215 z"
       id="path22-3" />
    <path
       d="M 22.963624,3.9999877 H 9.036072 C 7.70089,4.0014877 6.420748,4.5325607 5.476754,5.4767617 4.532567,6.4207747 4.001524,7.7008627 4,9.0360557 v 13.9280513 -1.9e-4 c 0.0015,1.335156 0.532567,2.615282 1.476754,3.559294 0.943994,0.944202 2.224136,1.475226 3.559318,1.476775 h 13.928033 -1.94e-4 c 1.335183,-0.0015 2.615325,-0.532573 3.559319,-1.476775 0.944186,-0.944012 1.475232,-2.224138 1.476755,-3.559294 V 9.0363207 c -0.0018,-1.335156 -0.532569,-2.615282 -1.476755,-3.559295 -0.943994,-0.944201 -2.224136,-1.475224 -3.55932,-1.476774 z M 9.2,5.9999997 h 13.599998 c 0.887095,0.0011 1.603761,0.04384 2.231,0.671244 0.627232,0.627212 0.967902,1.441663 0.969001,2.328756 V 23.000012 H 6 V 8.9999997 C 6.0011,8.1129067 6.341774,7.2984937 6.969,6.6712437 7.596201,6.0440307 8.312917,6.0010957 9.2,5.9999997 Z"
       id="path1193-0"
       style="fill:#d3dae3;fill-opacity:1;stroke-width:0.047619"
       sodipodi:nodetypes="ccccccccccccccccccccccccc" />
  </g>
  <metadata
     id="metadata28">
    <rdf:RDF>
      <cc:Work
         rdf:about="">
        <dc:format>image/svg+xml</dc:format>
        <dc:type
           rdf:resource="http://purl.org/dc/dcmitype/StillImage" />
      </cc:Work>
    </rdf:RDF>
  </metadata>
  <defs
     id="defs26">
    <linearGradient
       inkscape:collect="always"
       id="linearGradient31070">
      <stop
         style="stop-color:#5581aa;stop-opacity:1;"
         offset="0"
         id="stop31066" />
      <stop
         style="stop-color:#6db2c5;stop-opacity:1;"
         offset="1"
         id="stop31068" />
    </linearGradient>
    <linearGradient
       gradientTransform="matrix(0.35000018,0,0,0.35000018,-127.12577,-169.60226)"
       xlink:href="#linearGradient4177"
       id="linearGradient4205"
       x1="388.73499"
       y1="503.991"
       x2="428.40799"
       y2="543.93201"
       gradientUnits="userSpaceOnUse" />
    <linearGradient
       id="linearGradient4177">
      <stop
         offset="0"
         style="stop-color:#3f3f3f;stop-opacity:1;"
         id="stop3" />
      <stop
         style="stop-color:#de7d9c;stop-opacity:1"
         offset=".11"
         id="stop5" />
      <stop
         offset=".449"
         style="stop-color:#cc3d8a;stop-opacity:1"
         id="stop7" />
      <stop
         style="stop-color:#5f2b76;stop-opacity:1"
         offset=".934"
         id="stop9" />
      <stop
         offset="1"
         style="stop-color:#3f3f3f;stop-opacity:0;"
         id="stop11" />
    </linearGradient>
    <linearGradient
       inkscape:collect="always"
       xlink:href="#linearGradient31070"
       id="linearGradient5058"
       x1="148.9608"
       y1="596.36218"
       x2="148.9608"
       y2="636.12817"
       gradientUnits="userSpaceOnUse"
       gradientTransform="matrix(0.50999969,0,0,0.42750131,-58.969959,-248.94562)" />
    <linearGradient
       inkscape:collect="always"
       xlink:href="#linearGradient31070"
       id="linearGradient6958"
       gradientUnits="userSpaceOnUse"
       gradientTransform="matrix(0.43219982,0,0,0.36977632,-52.533369,-217.81671)"
       x1="146.80391"
       y1="596.36243"
       x2="146.99998"
       y2="636.3623" />
    <linearGradient
       inkscape:collect="always"
       xlink:href="#linearGradient31070"
       id="linearGradient23558"
       gradientUnits="userSpaceOnUse"
       gradientTransform="matrix(0.4079997,0,0,0.36211879,-48.975965,-235.05396)"
       x1="148.9608"
       y1="596.36218"
       x2="148.9608"
       y2="636.12817" />
    <linearGradient
       inkscape:collect="always"
       xlink:href="#linearGradient31070"
       id="linearGradient22485"
       gradientUnits="userSpaceOnUse"
       gradientTransform="matrix(0.50999969,0,0,0.43253077,-58.969898,-252.045)"
       x1="148.9608"
       y1="596.36218"
       x2="148.9608"
       y2="636.12817" />
    <linearGradient
       inkscape:collect="always"
       xlink:href="#linearGradient31070"
       id="linearGradient532"
       gradientUnits="userSpaceOnUse"
       gradientTransform="matrix(0.43219982,0,0,0.36977632,-84.683344,-239.81671)"
       x1="146.80391"
       y1="596.36243"
       x2="146.99998"
       y2="636.3623" />
    <linearGradient
       inkscape:collect="always"
       xlink:href="#linearGradient31070"
       id="linearGradient534"
       gradientUnits="userSpaceOnUse"
       gradientTransform="matrix(0.50999969,0,0,0.42750131,-91.119934,-248.9456)"
       x1="148.9608"
       y1="596.36218"
       x2="148.9608"
       y2="636.12817" />
  </defs>
  <sodipodi:namedview
     pagecolor="#ffffff"
     bordercolor="#000000"
     borderopacity="1"
     objecttolerance="10"
     gridtolerance="10"
     guidetolerance="10"
     inkscape:pageopacity="0"
     inkscape:pageshadow="2"
     inkscape:window-width="1920"
     inkscape:window-height="1002"
     id="namedview24"
     showgrid="false"
     inkscape:zoom="4.90625"
     inkscape:cx="23.541401"
     inkscape:cy="36.585987"
     inkscape:window-x="0"
     inkscape:window-y="0"
     inkscape:window-maximized="1"
     inkscape:current-layer="svg22"
     inkscape:document-rotation="0"
     inkscape:lockguides="true"
     inkscape:showpageshadow="true"
     inkscape:pagecheckerboard="0"
     inkscape:deskcolor="#d1d1d1">
    <inkscape:grid
       type="xygrid"
       id="grid37269"
       originx="32"
       originy="-22.000015" />
  </sodipodi:namedview>
  <g
     id="22-22-touchpad">
    <rect
       style="opacity:0.00100002"
       width="22"
       height="22"
       x="-32.149975"
       y="-22"
       id="rect2-5" />
    <path
       inkscape:connector-curvature="0"
       id="path9068-9-37-8-0-1-0-1-3-7-4-6-1-3"
       d="m -12.675467,-19.296 -17.118508,5e-6 V -4.505 h 17.288 z"
       style="display:inline;overflow:visible;visibility:visible;opacity:0.6;fill:url(#linearGradient532);fill-opacity:1.0;fill-rule:nonzero;stroke:none;stroke-width:0.55969;marker:none"
       sodipodi:nodetypes="cccccc" />
    <rect
       style="fill:#3daee9;fill-opacity:1;stroke-width:0.700003;stroke-opacity:0.550265"
       height="10"
       rx="5"
       y="-16.999966"
       x="-26.149973"
       width="10"
       id="rect16-7-1-5" />
    <path
       style="fill:#ffffff;fill-opacity:1;fill-rule:nonzero;stroke:none;stroke-width:9.9246;stroke-miterlimit:4;stroke-dasharray:none;stroke-opacity:1"
       d="m -21.257433,-15.592547 c -0.627646,-0.003 -1.16579,0.113619 -1.655171,0.358648 -0.162915,0.08156 -0.188276,0.110175 -0.177726,0.198241 0.02157,0.179723 0.114332,0.197171 0.38918,0.07386 0.510957,-0.229299 0.759566,-0.278202 1.404068,-0.278898 0.739686,-6.05e-4 1.012086,0.06274 1.618715,0.37688 0.104227,0.0539 0.434186,0.308598 0.557347,0.1718 0.121969,-0.12196 0.05749,-0.222907 -0.256571,-0.401485 -0.61944,-0.352172 -1.160668,-0.495603 -1.879842,-0.499011 z m -0.01914,0.726412 c -0.828135,-6.32e-4 -1.65575,0.326561 -2.262641,0.982076 -0.234777,0.253591 -0.508587,0.66922 -0.508587,0.77199 0,0.119821 0.04935,0.185928 0.138995,0.185928 0.07018,0 0.141681,-0.07577 0.31171,-0.331302 0.380287,-0.57153 0.873284,-0.950686 1.508435,-1.160264 0.492581,-0.160769 1.069398,-0.142158 1.623721,0 0.71573,0.235257 1.329748,0.759355 1.666112,1.4223 0.0732,0.144248 0.116971,0.188213 0.188663,0.188213 0.123473,0 0.195965,-0.09188 0.162234,-0.205987 -0.05434,-0.184041 -0.344509,-0.629969 -0.564174,-0.867234 -0.607738,-0.656438 -1.436337,-0.985088 -2.264468,-0.98572 z m 0.03919,0.721404 c -0.176505,-0.0033 -0.355596,0.01363 -0.534551,0.05098 -0.850387,0.177759 -1.561173,0.866464 -1.788699,1.733095 -0.120745,0.459896 -0.06524,1.211097 0.133981,1.811939 0.05954,0.17956 0.0883,0.217006 0.173628,0.226946 0.196225,0.02283 0.215398,-0.07063 0.09797,-0.476676 -0.335981,-1.162006 -0.04678,-2.15061 0.786577,-2.689656 0.823857,-0.53294 1.956934,-0.37522 2.601696,0.361843 0.404034,0.46188 0.625649,1.243135 0.449334,1.584078 -0.116469,0.225236 -0.400049,0.360605 -0.632994,0.30214 -0.170226,-0.04274 -0.372015,-0.251919 -0.397842,-0.412423 -0.09115,-0.566398 -0.219817,-0.788057 -0.545493,-0.939692 -0.277815,-0.129354 -0.50938,-0.125785 -0.782014,0.01231 -0.254032,0.128674 -0.448661,0.388377 -0.488075,0.651224 -0.01417,0.09472 -0.0082,0.299697 0.0141,0.455261 0.137434,0.969033 0.830739,1.735622 1.782769,1.971441 0.119735,0.02963 0.315485,0.05058 0.435212,0.04653 l 0.217833,-0.0076 c 0.123046,-0.06249 0.129783,-0.206208 0,-0.277075 l -0.308065,-0.04696 c -0.387739,-0.05903 -0.548303,-0.110173 -0.814821,-0.26021 -0.579587,-0.326282 -0.994834,-1.033582 -0.994834,-1.694362 0,-0.291197 0.110248,-0.461294 0.367309,-0.567826 0.185734,-0.07701 0.188404,-0.07701 0.37414,0 0.235072,0.09742 0.348218,0.260456 0.377337,0.542759 0.05348,0.518101 0.413008,0.859028 0.905971,0.859028 0.395623,0 0.728634,-0.25673 0.846725,-0.652588 0.115584,-0.387409 -0.03956,-1.0381 -0.365483,-1.533036 -0.43192,-0.655925 -1.146868,-1.03851 -1.911745,-1.051801 z m -0.02549,0.750571 c -0.246343,0.0034 -0.499666,0.04859 -0.707273,0.129421 -0.320119,0.156777 -0.625153,0.469876 -0.78293,0.802981 -0.120058,0.253451 -0.127221,0.292923 -0.127142,0.723223 8.1e-5,0.529394 0.06422,0.810623 0.292108,1.286037 0.196437,0.409647 0.468581,0.766926 0.771086,1.011691 0.262194,0.212159 0.290052,0.222465 0.399207,0.142642 0.111745,-0.08173 0.04935,-0.222009 -0.176368,-0.395108 -0.244806,-0.187681 -0.509214,-0.527158 -0.687677,-0.883179 -0.29314,-0.584773 -0.366992,-1.307499 -0.175905,-1.721251 0.138681,-0.300286 0.350148,-0.524283 0.61978,-0.656688 0.323936,-0.159087 0.797123,-0.159087 1.121064,0 0.386646,0.189873 0.633866,0.535604 0.721403,1.009872 0.05222,0.283093 0.131336,0.377196 0.252014,0.299405 0.05586,-0.03601 0.06807,-0.09611 0.06289,-0.311712 -0.01258,-0.524109 -0.379851,-1.050332 -0.916452,-1.313838 -0.180126,-0.08764 -0.419467,-0.126611 -0.665805,-0.123496 z"
       id="path20-0-0-6" />
    <path
       style="fill:#ffffff;fill-opacity:1;fill-rule:nonzero;stroke:none;stroke-width:9.9246;stroke-miterlimit:4;stroke-dasharray:none;stroke-opacity:1"
       d="m -20.169142,-10.209583 c -0.676329,-0.147535 -1.197628,-0.743412 -1.25615,-1.435878 -0.01846,-0.218856 -0.01203,-0.247775 0.06368,-0.288341 0.144349,-0.07725 0.227788,0.0038 0.256659,0.249504 0.07263,0.617713 0.526549,1.083593 1.137228,1.167108 0.298783,0.04084 0.394875,0.155574 0.250915,0.299534 -0.07211,0.07211 -0.152359,0.07348 -0.452336,0.0081 z"
       id="path22-9-7-2" />
    <path
       d="m -15.346964,-21 h -11.606269 c -1.112651,0.0015 -2.179461,0.44383 -2.96612,1.230652 -0.786853,0.786671 -1.22936,1.853404 -1.230622,2.966097 V -5.196549 -5.1967 c 8.62e-4,1.112617 0.443769,2.179389 1.230622,2.96606 0.786659,0.786822 1.853469,1.229367 2.96612,1.230652 h 11.606699 -1.9e-4 c 1.11265,-0.0012 2.17946,-0.44383 2.96611,-1.230652 0.78686,-0.786671 1.22937,-1.853443 1.23063,-2.96606 v -11.606324 c -0.002,-1.112655 -0.44377,-2.179426 -1.23063,-2.966097 -0.78665,-0.786822 -1.85346,-1.229367 -2.96611,-1.230652 z m -11.186008,2.00005 h 10.765998 c 0.73924,0.0011 1.43628,-0.113763 1.959,0.408983 0.52269,0.522671 0.6571,1.018431 0.658,1.757669 v 11.833323 h -16 v -11.833323 c 8.51e-4,-0.739238 0.135307,-1.23496 0.658001,-1.757669 0.522678,-0.522671 1.219778,-0.408076 1.959001,-0.408983 z"
       id="path1193-3-5-9"
       style="fill:#d3dae3;fill-opacity:1;stroke-width:0.0396828"
       sodipodi:nodetypes="ccccccccccccccccccccccccc" />
  </g>
  <g
     id="touchpad">
    <rect
       style="opacity:0.00100002"
       width="32"
       height="32"
       x="-32.149975"
       y="1.5e-05"
       id="rect12-2" />
    <path
       inkscape:connector-curvature="0"
       id="path9068-9-37-8-0-1-7"
       d="m -5.949975,6.000015 -20.4,5e-6 v 17.099995 h 20.4 z"
       style="display:inline;overflow:visible;visibility:visible;opacity:0.6;fill:url(#linearGradient534);fill-opacity:1;fill-rule:nonzero;stroke:none;stroke-width:0.653705;marker:none"
       sodipodi:nodetypes="ccccc" />
    <rect
       style="fill:#3daee9;fill-opacity:1;stroke-width:0.980001;stroke-opacity:0.550265"
       height="14"
       rx="7"
       y="7.5000143"
       x="-23.149975"
       width="14"
       id="rect16-74-0" />
    <path
       style="fill:#ffffff;fill-opacity:1;fill-rule:nonzero;stroke:none;stroke-width:14.8874;stroke-miterlimit:4;stroke-dasharray:none;stroke-opacity:1"
       d="m -16.352277,9.9346717 c -0.941492,-0.0043 -1.748728,0.1704393 -2.482813,0.5379893 -0.244379,0.122352 -0.282422,0.16527 -0.266602,0.297363 0.03234,0.269594 0.171513,0.295766 0.583786,0.110742 0.766452,-0.343959 1.13938,-0.41731 2.106153,-0.41836 1.109555,-9e-4 1.518164,0.09413 2.428128,0.565333 0.156345,0.08085 0.651298,0.462916 0.836039,0.257715 0.182963,-0.182952 0.08629,-0.334377 -0.384866,-0.602246 -0.92918,-0.528273 -1.74104,-0.7434263 -2.819825,-0.7485363 z m -0.02874,1.0896493 c -1.242229,-9.46e-4 -2.483683,0.489849 -3.394041,1.473145 -0.352174,0.38039 -0.762894,1.003858 -0.762894,1.158007 0,0.17974 0.07409,0.278907 0.208497,0.278907 0.105335,0 0.21252,-0.113642 0.467579,-0.496973 0.570439,-0.857311 1.309957,-1.426056 2.262698,-1.74043 0.738886,-0.241164 1.604139,-0.213244 2.435642,0 1.073618,0.352895 1.994666,1.139059 2.499223,2.133496 0.109786,0.216382 0.175462,0.282326 0.283006,0.282326 0.185208,0 0.293951,-0.137828 0.243358,-0.308985 -0.08154,-0.276066 -0.516781,-0.944974 -0.846287,-1.30088 -0.91163,-0.984681 -2.154553,-1.477674 -3.396781,-1.478613 z m 0.05879,1.082129 c -0.264765,-0.0046 -0.533409,0.02045 -0.801852,0.07656 -1.275616,0.266645 -2.34181,1.299727 -2.683107,2.599709 -0.181123,0.68986 -0.09786,1.816684 0.200973,2.717969 0.08933,0.269347 0.132432,0.32552 0.260451,0.34043 0.29434,0.03421 0.323102,-0.105882 0.146972,-0.715039 -0.503983,-1.743049 -0.07012,-3.225988 1.179888,-4.034572 1.235821,-0.799432 2.935472,-0.562842 3.902639,0.542774 0.606068,0.692832 0.938494,1.864746 0.674018,2.376173 -0.174709,0.337862 -0.60009,0.540919 -0.949511,0.453223 -0.255348,-0.06409 -0.558034,-0.377891 -0.596778,-0.618653 -0.136736,-0.849619 -0.329734,-1.182113 -0.818262,-1.409571 -0.416732,-0.194037 -0.764085,-0.18868 -1.173046,0.01846 -0.381053,0.193011 -0.673005,0.582571 -0.732131,0.976856 -0.02133,0.142083 -0.01194,0.449555 0.02121,0.682911 0.206155,1.453581 1.246139,2.603489 2.674217,2.957227 0.179601,0.04446 0.473238,0.07589 0.652836,0.06973 l 0.326757,-0.01094 c 0.184573,-0.09369 0.194676,-0.309327 0,-0.415625 l -0.462108,-0.07041 c -0.581624,-0.08863 -0.822476,-0.165268 -1.222264,-0.390332 -0.869399,-0.48943 -1.492283,-1.550409 -1.492283,-2.541602 0,-0.436808 0.165379,-0.691959 0.550974,-0.851759 0.278615,-0.115472 0.282611,-0.115472 0.561228,0 0.352609,0.146132 0.522335,0.390692 0.566015,0.814161 0.08018,0.777168 0.619526,1.288575 1.358986,1.288575 0.593452,0 1.092979,-0.385111 1.270122,-0.978907 0.173374,-0.581127 -0.0594,-1.55719 -0.548243,-2.299611 -0.647893,-0.983912 -1.720345,-1.557803 -2.86768,-1.577735 z m -0.03829,1.12588 c -0.369519,0.0047 -0.749515,0.07286 -1.060941,0.19414 -0.48018,0.235172 -0.937741,0.704829 -1.174412,1.204493 -0.180096,0.380191 -0.190833,0.439401 -0.190725,1.084864 1.32e-4,0.794112 0.09624,1.215966 0.438182,1.929102 0.294656,0.614485 0.702881,1.150419 1.156644,1.517579 0.393311,0.318248 0.435097,0.333694 0.598826,0.213966 0.167626,-0.122561 0.07411,-0.33303 -0.264549,-0.592677 -0.367216,-0.281526 -0.763838,-0.790764 -1.031541,-1.324805 -0.439723,-0.877174 -0.550507,-1.961287 -0.26387,-2.581935 0.208032,-0.450443 0.525244,-0.786445 0.929688,-0.985059 0.485925,-0.23863 1.195715,-0.23863 1.681642,0 0.579988,0.284816 0.950827,0.803427 1.082132,1.514844 0.07836,0.424655 0.19701,0.565808 0.378025,0.449122 0.08386,-0.05407 0.102139,-0.144164 0.09434,-0.467579 -0.01894,-0.786184 -0.569793,-1.575532 -1.374712,-1.970802 -0.2702,-0.131474 -0.62921,-0.189927 -0.998727,-0.185253 z"
       id="path20-4-9" />
    <path
       style="fill:#ffffff;fill-opacity:1;fill-rule:nonzero;stroke:none;stroke-width:14.8874;stroke-miterlimit:4;stroke-dasharray:none;stroke-opacity:1"
       d="m -14.719802,18.009313 c -1.014518,-0.221306 -1.79648,-1.11515 -1.884271,-2.15387 -0.02776,-0.32829 -0.01811,-0.371676 0.09552,-0.432524 0.21654,-0.115888 0.341692,0.0058 0.385,0.374267 0.10891,0.926593 0.78984,1.625428 1.705887,1.750704 0.44818,0.0613 0.592317,0.233366 0.376376,0.449309 -0.108123,0.108118 -0.228544,0.110271 -0.678519,0.01215 z"
       id="path22-3-3" />
    <path
       d="m -9.186351,4.0000027 h -13.927552 c -1.335182,0.0015 -2.615324,0.532573 -3.559318,1.476774 -0.944187,0.944013 -1.47523,2.224101 -1.476754,3.559294 v 13.9280513 -1.9e-4 c 0.0015,1.335156 0.532567,2.615282 1.476754,3.559294 0.943994,0.944202 2.224136,1.475226 3.559318,1.476775 h 13.928033 -1.94e-4 c 1.335183,-0.0015 2.615325,-0.532573 3.559319,-1.476775 0.944186,-0.944012 1.475232,-2.224138 1.476755,-3.559294 V 9.0363357 c -0.0018,-1.335156 -0.532569,-2.615282 -1.476755,-3.559295 -0.943994,-0.944201 -2.224136,-1.475224 -3.55932,-1.476774 z m -13.763624,2.000012 h 13.599998 c 0.887095,0.0011 1.603761,0.04384 2.231,0.671244 0.627232,0.627212 0.967902,1.441663 0.969001,2.328756 V 23.000027 H -26.149975 V 9.0000147 c 0.0011,-0.887093 0.341774,-1.701506 0.969,-2.328756 0.627201,-0.627213 1.343917,-0.670148 2.231,-0.671244 z"
       id="path1193-0-6"
       style="fill:#d3dae3;fill-opacity:1;stroke-width:0.047619"
       sodipodi:nodetypes="ccccccccccccccccccccccccc" />
  </g>
</svg>
