<?xml version="1.0" encoding="UTF-8" standalone="no"?>
<svg
   id="svg4153"
   version="1.1"
   width="22"
   height="22"
   sodipodi:docname="user.svg"
   inkscape:version="1.2.1 (9c6d41e410, 2022-07-14)"
   xmlns:inkscape="http://www.inkscape.org/namespaces/inkscape"
   xmlns:sodipodi="http://sodipodi.sourceforge.net/DTD/sodipodi-0.dtd"
   xmlns="http://www.w3.org/2000/svg"
   xmlns:svg="http://www.w3.org/2000/svg"
   xmlns:rdf="http://www.w3.org/1999/02/22-rdf-syntax-ns#"
   xmlns:cc="http://creativecommons.org/ns#"
   xmlns:dc="http://purl.org/dc/elements/1.1/">
  <metadata
     id="metadata48">
    <rdf:RDF>
      <cc:Work
         rdf:about="">
        <dc:format>image/svg+xml</dc:format>
        <dc:type
           rdf:resource="http://purl.org/dc/dcmitype/StillImage" />
      </cc:Work>
    </rdf:RDF>
  </metadata>
  <sodipodi:namedview
     pagecolor="#ffffff"
     bordercolor="#000000"
     borderopacity="1"
     objecttolerance="10"
     gridtolerance="10"
     guidetolerance="10"
     inkscape:pageopacity="0"
     inkscape:pageshadow="2"
     inkscape:window-width="1920"
     inkscape:window-height="1002"
     id="namedview46"
     showgrid="false"
     inkscape:lockguides="true"
     inkscape:zoom="2"
     inkscape:cx="-161.5"
     inkscape:cy="-3.5"
     inkscape:window-x="0"
     inkscape:window-y="0"
     inkscape:window-maximized="1"
     inkscape:current-layer="svg4153"
     inkscape:document-rotation="0"
     inkscape:pagecheckerboard="0"
     inkscape:showpageshadow="2"
     inkscape:deskcolor="#d1d1d1"
     showguides="false">
    <inkscape:grid
       type="xygrid"
       id="grid2175"
       originx="0"
       originy="0"
       color="#0099e5"
       opacity="0.68627451"
       empcolor="#0099e5"
       empopacity="1" />
  </sodipodi:namedview>
  <defs
     id="defs4157">
    <style
       type="text/css"
       id="current-color-scheme">.ColorScheme-Text{color:#dfdfdf}.ColorScheme-Background{color:#eff0f1}</style>
  </defs>
  <g
     id="user-online"
     transform="translate(44)">
    <path
       id="rect4554"
       opacity="0.97"
       fill="none"
       fill-opacity="1"
       stroke="none"
       d="m -44,0 h 22 v 22 h -22 z" />
    <ellipse
       cy="6.9961267"
       cx="-32.918289"
       id="path4144-3"
       opacity="1"
       fill-opacity="1"
       stroke="none"
       style="fill:#5e81ac;fill-opacity:1;stroke-width:1.14228"
       rx="4.0000005"
       ry="3.9961269" />
    <path
       id="path4166-6"
       d="m -30.729,5 0.643284,0.6417513 -3.428569,3.4252513 L -35.8,6.7835028 -35.157,6.142 l 1.643,1.642 z"
       class="ColorScheme-Background"
       fill="currentColor"
       fill-rule="evenodd"
       stroke="none"
       stroke-width="1.14228"
       stroke-linecap="butt"
       stroke-linejoin="miter"
       stroke-opacity="1"
       style="color:#eff0f1;fill:#fefeff;fill-opacity:1"
       sodipodi:nodetypes="ccccccc" />
    <path
       style="fill:#5e81ac;fill-opacity:1;stroke-width:1.52448"
       id="path2-5-6"
       d="m -33.00001,11.737554 c -4.418278,0 -8,2.926368 -8,6.536225 0.0012,0.242698 0.01892,0.485154 0.05312,0.726241 h 15.88768 c 0.03623,-0.240994 0.05599,-0.48345 0.0592,-0.726241 0,-3.609857 -3.581722,-6.536225 -8,-6.536225 M -33,13 v 0 0 0"
       sodipodi:nodetypes="cccccccccc" />
  </g>
  <g
     id="user-identity"
     transform="translate(44)">
    <path
       id="rect4585"
       opacity="0.97"
       fill="none"
       fill-opacity="1"
       stroke="none"
       d="m -132,0 h 22 v 22 h -22 z" />
    <ellipse
       cy="6.9961271"
       cx="-120.91827"
       id="path4144-3-92"
       opacity="1"
       fill-opacity="1"
       stroke="none"
       style="fill:#d3dae3;fill-opacity:1;stroke-width:1.14228"
       rx="4.0000005"
       ry="3.9961269" />
    <path
       style="fill:#d3dae3;fill-opacity:1;stroke-width:1.52448"
       id="path2-5-6-1"
       d="m -121,11.737554 c -4.41828,0 -8,2.926368 -8,6.536225 0.001,0.242698 0.0189,0.485154 0.0531,0.726241 h 15.88768 c 0.0362,-0.240994 0.056,-0.48345 0.0592,-0.726241 0,-3.609857 -3.58172,-6.536225 -8,-6.536225 M -121,13 v 0 0 0"
       sodipodi:nodetypes="cccccccccc" />
  </g>
  <g
     id="user-offline"
     transform="translate(44)">
    <path
       id="rect4564"
       opacity="0.97"
       fill="none"
       fill-opacity="1"
       stroke="none"
       d="m -66,0 h 22 v 22 h -22 z" />
    <ellipse
       cy="6.9961276"
       cx="-54.918282"
       id="path4144-3-5"
       opacity="1"
       fill-opacity="1"
       stroke="none"
       style="fill:#bf616a;fill-opacity:1;stroke-width:1.14228"
       rx="4.0000005"
       ry="3.9961276" />
    <path
       style="fill:#bf616a;fill-opacity:1;stroke-width:1.52448"
       id="path2-5-6-2"
       d="m -55,11.737534 c -4.418278,0 -8,2.926368 -8,6.536226 0.0012,0.242698 0.01892,0.485154 0.05312,0.726241 h 15.88768 c 0.03623,-0.240994 0.05599,-0.48345 0.0592,-0.726241 0,-3.609858 -3.581722,-6.536226 -8,-6.536226 M -55,13 v 0 0 0"
       sodipodi:nodetypes="cccccccccc" />
    <path
       id="rect4152-8-2"
       opacity="1"
       fill-opacity="1"
       stroke="none"
       d="M -52.795639,6.6 V 7.3999995 H -57.3 V 6.6 Z"
       style="fill:#ffffff;fill-opacity:1;stroke-width:1.50073"
       sodipodi:nodetypes="ccccc" />
  </g>
  <g
     id="user-away"
     transform="translate(44)">
    <path
       id="rect4562"
       opacity="0.97"
       fill="none"
       d="m -88,0 h 22 v 22 h -22 z"
       style="fill-opacity:1;stroke:none" />
    <ellipse
       cy="6.9961271"
       cx="-76.918274"
       id="path4144-3-9"
       opacity="1"
       fill-opacity="1"
       stroke="none"
       style="fill:#ebcb8b;fill-opacity:1;stroke-width:1.14228"
       rx="4.0000005"
       ry="3.9961269" />
    <path
       style="fill:#ebcb8b;fill-opacity:1;stroke-width:1.52448"
       id="path2-5-6-75"
       d="m -77,11.737544 c -4.418278,0 -8,2.926368 -8,6.536225 0.0012,0.242698 0.01892,0.485154 0.05312,0.726241 h 15.88768 c 0.03623,-0.240994 0.05599,-0.48345 0.0592,-0.726241 0,-3.609857 -3.581722,-6.536225 -8,-6.536225 M -77,13 v 0 0 0"
       sodipodi:nodetypes="cccccccccc" />
    <path
       id="path4227-9"
       d="m -74.29999,4.3 -5.5,2.75 1.375,0.6875 0.6875,2.0625 0.6875,-1.375 1.375,0.6875 z"
       fill-rule="evenodd"
       stroke-width="0.6875"
       stroke-linecap="butt"
       stroke-linejoin="miter"
       stroke-opacity="1"
       style="fill:#ffffff;fill-opacity:1" />
  </g>
  <g
     id="user-busy"
     transform="translate(44)">
    <path
       id="rect4560"
       opacity="0.97"
       fill="none"
       fill-opacity="1"
       stroke="none"
       d="m -110,0 h 22 v 22 h -22 z" />
    <ellipse
       cy="6.9961157"
       cx="-98.918282"
       id="path4144-3-3"
       opacity="1"
       fill-opacity="1"
       stroke="none"
       style="fill:#d08770;fill-opacity:1;stroke-width:1.14229"
       rx="4.0000005"
       ry="3.9961157" />
    <path
       style="fill:#d08770;fill-opacity:1;stroke-width:1.52448"
       id="path2-5-6-3"
       d="m -99,11.737573 c -4.41828,0 -8,2.92636 -8,6.536208 0.001,0.242697 0.0189,0.485152 0.0531,0.726238 h 15.8877 c 0.03623,-0.240993 0.05599,-0.483448 0.0592,-0.726238 10e-7,-3.609848 -3.581722,-6.536208 -8,-6.536208 M -99,13 v 0 0 0"
       sodipodi:nodetypes="cccccccccc" />
    <path
       id="rect4146-3"
       d="m -99.4,4.4999988 v 3.5 h 2.333335 v -1.166665 h -1.16667 v -2.333335 z"
       class="ColorScheme-Background"
       opacity="1"
       fill="currentColor"
       fill-opacity="1"
       stroke="none"
       style="color:#eff0f1;fill:#ffffff;fill-opacity:1;stroke-width:1.16665" />
  </g>
  <g
     id="user-invisible"
     transform="translate(44)">
    <path
       id="rect4556"
       opacity="0.97"
       fill="none"
       fill-opacity="1"
       stroke="none"
       d="M -22,0 H 0 v 22 h -22 z" />
    <ellipse
       cy="6.9961271"
       cx="-10.918273"
       id="path4144-3-7"
       opacity="1"
       fill-opacity="1"
       stroke="none"
       style="fill:#59748c;fill-opacity:1;stroke-width:1.14228"
       rx="4.0000005"
       ry="3.9961269" />
    <path
       inkscape:connector-curvature="0"
       id="fill-3-93"
       d="m -17.47139,16.248818 -0.35661,1.722503 h 13.83812 l -0.43489,-1.722503 c -4.34887,-4.344663 -8.69775,-4.344663 -13.04662,0 z"
       style="color:#1e92ff;fill:#4e5a7e;fill-opacity:0.501961;fill-rule:nonzero;stroke:none;stroke-width:1.95648"
       class="ColorScheme-ButtonFocus"
       sodipodi:nodetypes="ccccc" />
    <path
       style="fill:#59748c;fill-opacity:1;stroke-width:1.52448"
       id="path2-5-6-0"
       d="m -11,11.737554 c -4.418278,0 -8,2.926368 -8,6.536225 0.0012,0.242698 0.01892,0.485154 0.05312,0.726241 H -3.0592 c 0.036228,-0.240994 0.055992,-0.48345 0.0592,-0.726241 -2e-7,-3.609857 -3.5817221,-6.536225 -8,-6.536225 M -11,13 v 0 0 0"
       sodipodi:nodetypes="cccccccccc" />
    <path
       id="rect4152-1"
       class="ColorScheme-Background"
       opacity="1"
       fill="currentColor"
       fill-opacity="1"
       stroke="none"
       d="m -9.707,5.0000028 0.7071,0.707106 -3.29299,3.292997 L -13,8.2929988 Z"
       style="color:#eff0f1;fill:#ffffff;fill-opacity:1" />
  </g>
  <g
     id="user-away-extended"
     transform="translate(44)">
    <path
       id="rect4649"
       opacity="0.97"
       fill="none"
       fill-opacity="1"
       stroke="none"
       d="M 0,0 H 22 V 22 H 0 Z" />
    <ellipse
       cy="6.9961271"
       cx="11.08172"
       id="path4144-3-6"
       opacity="1"
       fill-opacity="1"
       stroke="none"
       style="fill:#b48ead;fill-opacity:1;stroke-width:1.14228"
       rx="4.0000005"
       ry="3.9961269" />
    <path
       style="fill:#b48ead;fill-opacity:1;stroke-width:1.52448"
       id="path2-5-6-7"
       d="m 11,11.737554 c -4.4182779,0 -7.9999998,2.926368 -8,6.536225 0.00119,0.242698 0.018924,0.485154 0.05312,0.726241 H 18.9408 c 0.03623,-0.240994 0.05599,-0.48345 0.0592,-0.726241 0,-3.609857 -3.581722,-6.536225 -8,-6.536225 M 11,13 v 0 0 0"
       sodipodi:nodetypes="cccccccccc" />
    <circle
       r="0.5"
       cy="-9.1000156"
       cx="7.0219984"
       id="circle4659-9"
       transform="rotate(90)"
       class="ColorScheme-Background"
       opacity="0.7"
       fill="currentColor"
       fill-opacity="1"
       stroke="none"
       style="color:#eff0f1;fill:#ffffff;fill-opacity:1;opacity:1" />
    <circle
       id="circle4661-4"
       cx="11.100016"
       cy="7.0219984"
       r="0.5"
       class="ColorScheme-Background"
       opacity="0.4"
       fill="currentColor"
       fill-opacity="1"
       stroke="none"
       style="color:#eff0f1;opacity:0.6;fill:#d3dae3;fill-opacity:1" />
    <circle
       id="circle4663-7"
       cx="13.100016"
       cy="7.0219984"
       r="0.5"
       class="ColorScheme-Background"
       opacity="0.3"
       fill="currentColor"
       fill-opacity="1"
       stroke="none"
       style="color:#eff0f1;opacity:0.4;fill:#d3dae3;fill-opacity:1" />
  </g>
  <g
     id="16-16-user-desktop"
     transform="translate(-280.78889,-5.3033008)">
    <path
       id="rect856"
       d="m -48,16 h 16 v 16 h -16 z"
       fill="none" />
    <path
       id="path828"
       d="m -46,18 v 12 h 12 V 18 Z m 1,1 h 10 v 10 h -10 v -1 z m 1,8 v 1 h 8 v -1 z"
       style="fill:#d3dae3;fill-opacity:1" />
  </g>
  <g
     id="22-22-user-desktop"
     transform="translate(-280.78889,-5.3033008)">
    <path
       id="rect850"
       d="M -22,10 H 0 v 22 h -22 z"
       fill="none" />
    <path
       id="path840"
       d="M -19,13 V 29 H -3 V 13 Z m 1,1 h 14 v 14 h -14 z m 1,12 v 1 h 12 v -1 z"
       style="fill:#d3dae3;fill-opacity:1" />
  </g>
  <g
     id="32-32-user-desktop"
     transform="translate(-270.78889,-5.3033008)">
    <path
       id="rect844"
       d="M 0,0 H 32 V 32 H 0 Z"
       fill="none" />
    <path
       id="path819"
       d="M 4,4 V 28 H 28 V 4 Z M 5,5 H 27 V 27 H 5 Z m 2,19 v 1 h 18 v -1 z"
       style="fill:#d3dae3;fill-opacity:1" />
  </g>
  <g
     id="48-48-user-desktop"
     transform="translate(-270.78889,-5.3033008)">
    <path
       id="rect846"
       d="M 42,-16 H 90 V 32 H 42 Z"
       fill="none" />
    <path
       id="path819-3"
       d="m 48,-10 v 36 h 36 v -36 z m 2,2 H 82 V 24 H 50 Z m 2,28 v 2 h 28 v -2 z"
       style="fill:#d3dae3;fill-opacity:1" />
  </g>
  <g
     id="user-desktop"
     transform="translate(-270.78889,-5.3033008)">
    <path
       id="rect846-6"
       d="m 100,-32 h 64 v 64 h -64 z"
       fill="none" />
    <path
       id="path819-3-7"
       d="m 108,-24 v 48 h 48 v -48 z m 2,2 h 44 v 44 h -44 z m 3,39 v 2 h 38 v -2 z"
       style="fill:#d3dae3;fill-opacity:1" />
  </g>
</svg>
