<?xml version="1.0" encoding="UTF-8" standalone="no"?>
<svg
   width="32"
   height="32"
   version="1"
   id="svg12"
   sodipodi:docname="utilities.svg"
   inkscape:version="1.2.2 (b0a8486541, 2022-12-01)"
   xmlns:inkscape="http://www.inkscape.org/namespaces/inkscape"
   xmlns:sodipodi="http://sodipodi.sourceforge.net/DTD/sodipodi-0.dtd"
   xmlns:xlink="http://www.w3.org/1999/xlink"
   xmlns="http://www.w3.org/2000/svg"
   xmlns:svg="http://www.w3.org/2000/svg"
   xmlns:rdf="http://www.w3.org/1999/02/22-rdf-syntax-ns#"
   xmlns:cc="http://creativecommons.org/ns#"
   xmlns:dc="http://purl.org/dc/elements/1.1/">
  <metadata
     id="metadata18">
    <rdf:RDF>
      <cc:Work
         rdf:about="">
        <dc:format>image/svg+xml</dc:format>
        <dc:type
           rdf:resource="http://purl.org/dc/dcmitype/StillImage" />
      </cc:Work>
    </rdf:RDF>
  </metadata>
  <defs
     id="defs16">
    <linearGradient
       inkscape:collect="always"
       xlink:href="#linearGradient8962"
       id="linearGradient5058"
       x1="148.96695"
       y1="596.37164"
       x2="148.96695"
       y2="636.13757"
       gradientUnits="userSpaceOnUse"
       gradientTransform="matrix(0.50999969,0,0,0.42750131,-58.969971,-248.94562)" />
    <linearGradient
       inkscape:collect="always"
       id="linearGradient8962">
      <stop
         style="stop-color:#5581aa;stop-opacity:1;"
         offset="0"
         id="stop8958" />
      <stop
         style="stop-color:#6db2c5;stop-opacity:1;"
         offset="1"
         id="stop8960" />
    </linearGradient>
    <linearGradient
       inkscape:collect="always"
       xlink:href="#linearGradient8962"
       id="linearGradient6958"
       gradientUnits="userSpaceOnUse"
       gradientTransform="matrix(0.43219982,0,0,0.36977632,-52.889365,-217.9162)"
       x1="146.80391"
       y1="596.36243"
       x2="146.99998"
       y2="636.3623" />
  </defs>
  <sodipodi:namedview
     pagecolor="#cccccc"
     bordercolor="#000000"
     borderopacity="1"
     objecttolerance="10"
     gridtolerance="10"
     guidetolerance="10"
     inkscape:pageopacity="0"
     inkscape:pageshadow="2"
     inkscape:window-width="1920"
     inkscape:window-height="1002"
     id="namedview14"
     showgrid="false"
     inkscape:zoom="11.313709"
     inkscape:cx="30.228814"
     inkscape:cy="19.754795"
     inkscape:window-x="0"
     inkscape:window-y="0"
     inkscape:window-maximized="1"
     inkscape:current-layer="svg12"
     inkscape:document-rotation="0"
     inkscape:lockguides="false"
     inkscape:pagecheckerboard="0"
     inkscape:showpageshadow="2"
     inkscape:deskcolor="#808080">
    <inkscape:grid
       type="xygrid"
       id="grid852"
       originx="-1e-06"
       originy="0" />
  </sodipodi:namedview>
  <g
     id="utilities-terminal">
    <rect
       style="opacity:0.00100002;fill:#d1d5e9;fill-opacity:1"
       width="32"
       height="32"
       x="0"
       y="0"
       id="rect7" />
    <path
       inkscape:connector-curvature="0"
       id="path9068-9-37-8-0-1"
       d="m 25.999993,6 -20.2000002,5e-6 V 23.1 H 26.199993 Z"
       style="display:inline;overflow:visible;visibility:visible;opacity:0.6;fill:url(#linearGradient5058);fill-opacity:1;fill-rule:nonzero;stroke:none;stroke-width:0.653705;marker:none"
       sodipodi:nodetypes="cccccc" />
    <path
       d="M 22.963626,4 H 9.0360718 c -1.335181,0.0015 -2.615324,0.532573 -3.559318,1.476774 -0.944186,0.944013 -1.475229,2.224101 -1.476753,3.559294 v 13.928051 -1.9e-4 c 0.0015,1.335156 0.532567,2.615282 1.476753,3.559294 0.943994,0.944202 2.224137,1.475226 3.559318,1.476775 h 13.9280352 -1.94e-4 c 1.335183,-0.0015 2.615324,-0.532573 3.559318,-1.476775 0.944187,-0.944012 1.475232,-2.224138 1.476755,-3.559294 V 9.036333 C 27.998186,7.701177 27.467418,6.421051 26.523231,5.477038 25.579237,4.532837 24.299096,4.001814 22.963912,4.000264 Z M 9.2000008,6.000012 H 22.8 c 0.887095,0.0011 1.603761,0.04384 2.231,0.671244 0.627232,0.627212 0.967901,1.441663 0.969001,2.328756 V 23.000024 H 6.0000008 V 9.000012 c 0.0011,-0.887093 0.341774,-1.701506 0.969,-2.328756 0.627201,-0.627213 1.343916,-0.670148 2.231,-0.671244 z"
       id="path1193-367"
       style="fill:#d3dae3;fill-opacity:1;stroke-width:0.047619"
       sodipodi:nodetypes="ccccccccccccccccccccccccc" />
    <path
       style="fill:none;stroke:#d3dae3;stroke-width:2.2205;stroke-linecap:round;stroke-linejoin:miter;stroke-miterlimit:4;stroke-dasharray:none;stroke-opacity:1"
       d="m 11.11025,12.110235 3.961091,3.889763 -3.961091,3.889765"
       id="path3833-6"
       inkscape:connector-curvature="0"
       sodipodi:nodetypes="ccc" />
    <path
       d="m 16.606949,19 h 5.786099 c 1.475936,0.0073 1.475936,1.993124 0,2 h -5.786099 c -1.475932,-0.0072 -1.475932,-1.993123 0,-2 z m 5.786099,1.6 z"
       id="path8-6-7-36-6"
       style="color:#d6dbf1;fill:#d3dae3;fill-opacity:1;stroke-width:0.210974"
       sodipodi:nodetypes="cccccccccc"
       class="ColorScheme-Text" />
  </g>
  <g
     id="22-22-utilities-terminal"
     transform="translate(32,10.000001)">
    <rect
       style="opacity:0.00100002;fill:#d1d5e9;fill-opacity:1"
       width="22"
       height="22"
       x="0"
       y="0"
       id="rect2" />
    <path
       inkscape:connector-curvature="0"
       id="path9068-9-37-8-0-1-0-1-3-7-4-6-1"
       d="m 19.118512,2.604498 -17.118508,5e-6 v 14.790996 h 17.288 z"
       style="display:inline;overflow:visible;visibility:visible;opacity:0.6;fill:url(#linearGradient6958);fill-opacity:1;fill-rule:nonzero;stroke:none;stroke-width:0.55969;marker:none"
       sodipodi:nodetypes="cccccc" />
    <path
       d="M 16.803015,1 H 5.196746 C 4.084095,1.0015 3.017285,1.44383 2.230626,2.230652 1.443773,3.017322 1.001266,4.084056 1.000004,5.1967492 V 16.803451 16.8033 c 8.62e-4,1.112617 0.443769,2.179389 1.230622,2.96606 0.786659,0.786822 1.853469,1.229367 2.96612,1.230652 h 11.606699 -1.9e-4 c 1.112651,-0.0012 2.179461,-0.44383 2.966111,-1.230652 0.78686,-0.786671 1.22937,-1.853443 1.23063,-2.96606 V 5.1969762 C 20.997996,4.084321 20.556226,3.017549 19.769366,2.230878 18.982716,1.444056 17.915906,1.001512 16.803255,1.000226 Z M 5.617007,3.00005 h 10.765998 c 0.73924,0.0011 1.43628,-0.113764 1.959,0.408983 0.522691,0.522671 0.6571,1.018431 0.658,1.7576692 V 17.000025 h -16 V 5.1667022 C 3.000856,4.427464 3.135312,3.931741 3.658006,3.409033 4.180684,2.886362 4.877784,3.000957 5.617007,3.00005 Z"
       id="path1193-3-7"
       style="fill:#d3dae3;fill-opacity:1;stroke-width:0.0396828"
       sodipodi:nodetypes="ccccccccccccccccccccccccc" />
    <path
       style="fill:none;stroke:#d3dae3;stroke-width:1.77639;stroke-linecap:round;stroke-linejoin:miter;stroke-miterlimit:4;stroke-dasharray:none;stroke-opacity:1"
       d="M 6.888195,7.8881971 10.05706,10.999999 6.888195,14.111803"
       id="path3833-6-7"
       inkscape:connector-curvature="0"
       sodipodi:nodetypes="ccc" />
    <path
       d="m 11.830212,13.499998 h 4.339575 c 1.106952,0.0055 1.106952,1.494843 0,1.5 h -4.339574 c -1.10695,-0.0054 -1.10695,-1.494842 -1e-6,-1.5 z m 4.339575,1.2 z"
       id="path8-6-7-36-6-5"
       style="color:#d6dbf1;fill:#d3dae3;fill-opacity:1;stroke-width:0.158229"
       sodipodi:nodetypes="cccccccccc"
       class="ColorScheme-Text" />
  </g>
</svg>
