<?xml version="1.0" encoding="UTF-8" standalone="no"?>
<svg
   width="32"
   height="32"
   version="1.1"
   id="svg16"
   sodipodi:docname="virt.svg"
   inkscape:version="1.2.1 (9c6d41e410, 2022-07-14)"
   xmlns:inkscape="http://www.inkscape.org/namespaces/inkscape"
   xmlns:sodipodi="http://sodipodi.sourceforge.net/DTD/sodipodi-0.dtd"
   xmlns:xlink="http://www.w3.org/1999/xlink"
   xmlns="http://www.w3.org/2000/svg"
   xmlns:svg="http://www.w3.org/2000/svg">
  <g
     id="virt-manager">
    <rect
       style="opacity:0.00100002"
       width="32"
       height="32"
       x="0"
       y="0"
       id="rect9" />
    <path
       inkscape:connector-curvature="0"
       id="path9068-9-37-8-0-1"
       d="m 26.2,6 -20.4,5e-6 V 23.1 h 20.4 z"
       style="display:inline;overflow:visible;visibility:visible;opacity:0.6;fill:url(#linearGradient5058);fill-opacity:1;fill-rule:nonzero;stroke:none;stroke-width:0.653705;marker:none"
       sodipodi:nodetypes="ccccc" />
    <path
       d="M 22.963625,4 H 9.036071 C 7.700891,4.0015 6.420748,4.532573 5.476754,5.476775 4.532567,6.420787 4.001525,7.700876 4,9.036069 v 13.928051 -1.9e-4 c 0.0015,1.335156 0.532567,2.615282 1.476754,3.559294 0.943994,0.944202 2.224137,1.475226 3.559318,1.476775 h 13.928034 -1.94e-4 c 1.335183,-0.0015 2.615324,-0.532573 3.559318,-1.476775 0.944187,-0.944012 1.475232,-2.224138 1.476755,-3.559294 V 9.036334 C 27.998185,7.701178 27.467417,6.421052 26.52323,5.477039 25.579236,4.532837 24.299095,4.001815 22.963911,4.000264 Z M 9.200001,6.000013 h 13.599998 c 0.887095,0.0011 1.603761,0.04384 2.231,0.671244 C 25.658231,7.298469 25.9989,8.11292 26,9.000013 V 23.000025 H 6 V 9.000013 C 6.0011,8.11292 6.341775,7.298507 6.969001,6.671257 7.596202,6.044044 8.312917,6.001109 9.200001,6.000013 Z"
       id="path1193-8"
       style="fill:#d3dae3;fill-opacity:1;stroke-width:0.047619"
       sodipodi:nodetypes="ccccccccccccccccccccccccc" />
    <path
       style="color:#eff0f1;fill:currentColor;fill-opacity:0.403922;stroke-width:0.941355"
       d="m 6,9.500013 2.800735,8.163213 h 1.997426 L 13.5555,9.500013 H 11.666618 L 9.777736,14.88263 7.910581,9.500013 Z"
       id="path10-3-8"
       class="ColorScheme-Text" />
    <path
       fill-opacity="0.941"
       style="color:#eff0f1;opacity:0.5;fill:currentColor;fill-opacity:0.403922;stroke-width:0.941355"
       d="m 15.400921,9.500013 c -0.940616,2.735188 -1.8966,5.453227 -2.887581,8.163213 h 1.997436 l 1.867154,-5.357109 1.845458,5.357109 h 1.997432 l 1.845457,-5.510174 1.910578,5.510174 h 1.997433 C 24.9833,14.95324 24.00559,12.235201 23.064974,9.500013 H 21.067542 L 19.2221,14.88263 17.333233,9.500013 Z"
       id="path14-6-4"
       class="ColorScheme-Text" />
    <path
       style="color:#eff0f1;fill:currentColor;fill-opacity:1;stroke-width:0.941355"
       d="m 6,11.285716 2.800735,8.163213 h 1.997426 L 13.5555,11.285716 H 11.666618 L 9.777736,16.668333 7.910581,11.285716 Z"
       id="path10-3-3-3"
       class="ColorScheme-Text" />
    <path
       fill-opacity="0.941"
       style="fill:#bf616a;fill-opacity:1;stroke-width:0.941355"
       d="m 15.426673,11.3368 c -0.940616,2.735189 -1.896599,5.453228 -2.887581,8.163213 H 14.5365 l 1.867183,-5.357108 1.845419,5.357108 h 1.997432 l 1.845456,-5.510172 1.910578,5.510172 H 26 C 25.009022,16.790028 24.031304,14.071989 23.0907,11.3368 h -1.997407 l -1.845456,5.382618 -1.88889,-5.382618 z"
       id="path14-6-6-4-1" />
  </g>
  <defs
     id="defs20">
    <linearGradient
       inkscape:collect="always"
       id="linearGradient32656">
      <stop
         style="stop-color:#5581aa;stop-opacity:1;"
         offset="0"
         id="stop32652" />
      <stop
         style="stop-color:#6db2c5;stop-opacity:1;"
         offset="1"
         id="stop32654" />
    </linearGradient>
    <linearGradient
       inkscape:collect="always"
       xlink:href="#linearGradient32656"
       id="linearGradient5058"
       x1="148.9608"
       y1="596.36218"
       x2="148.9608"
       y2="636.12817"
       gradientUnits="userSpaceOnUse"
       gradientTransform="matrix(0.50999969,0,0,0.42750131,-58.969959,-248.94562)" />
    <linearGradient
       inkscape:collect="always"
       xlink:href="#linearGradient32656"
       id="linearGradient24340"
       gradientUnits="userSpaceOnUse"
       gradientTransform="matrix(0.43219982,0,0,0.36977632,-52.533369,-217.70441)"
       x1="146.80391"
       y1="596.36243"
       x2="146.99998"
       y2="636.3623" />
  </defs>
  <sodipodi:namedview
     id="namedview18"
     pagecolor="#ffffff"
     bordercolor="#000000"
     borderopacity="1"
     inkscape:pageshadow="2"
     inkscape:pageopacity="0.0"
     inkscape:pagecheckerboard="0"
     showgrid="false"
     inkscape:zoom="10.3125"
     inkscape:cx="27.781818"
     inkscape:cy="22.933333"
     inkscape:window-width="1920"
     inkscape:window-height="1002"
     inkscape:window-x="0"
     inkscape:window-y="0"
     inkscape:window-maximized="1"
     inkscape:current-layer="svg16"
     inkscape:lockguides="true"
     inkscape:showpageshadow="2"
     inkscape:deskcolor="#cccccc">
    <inkscape:grid
       type="xygrid"
       id="grid1230"
       originx="0"
       originy="0" />
  </sodipodi:namedview>
  <g
     id="22-22-virt-manager"
     transform="translate(32.000001,10.000001)">
    <rect
       style="opacity:0.00100002"
       width="22"
       height="22"
       x="0"
       y="0"
       id="rect2" />
    <path
       inkscape:connector-curvature="0"
       id="path9068-9-37-8-0-1-0-1-3-7-4-6-1-2"
       d="M 19.474508,2.8162938 2.356,2.8162998 V 17.607295 h 17.288 z"
       style="display:inline;overflow:visible;visibility:visible;opacity:0.6;fill:url(#linearGradient24340);fill-opacity:1.0;fill-rule:nonzero;stroke:none;stroke-width:0.55969;marker:none"
       sodipodi:nodetypes="cccccc" />
    <path
       style="color:#eff0f1;fill:currentColor;fill-opacity:0.403922;stroke-width:0.753085"
       d="m 3,6.000013 2.240587,6.530573 H 6.838529 L 9.0444,6.000013 H 7.533294 L 6.022188,10.306106 4.528465,6.000013 Z"
       id="path10-3-36-4"
       class="ColorScheme-Text" />
    <path
       fill-opacity="0.941"
       style="color:#eff0f1;opacity:0.5;fill:currentColor;fill-opacity:0.403922;stroke-width:0.753085"
       d="M 10.520721,6.000013 C 9.76824,8.188163 9.003452,10.362595 8.210672,12.530585 h 1.597944 l 1.493714,-4.285688 1.476378,4.285688 h 1.597952 l 1.476377,-4.408141 1.528458,4.408141 h 1.597944 c -0.7928,-2.16799 -1.574969,-4.342422 -2.327465,-6.530572 h -1.597952 l -1.476341,4.306093 -1.511088,-4.306093 z"
       id="path14-6-7-0"
       class="ColorScheme-Text" />
    <path
       style="color:#eff0f1;fill:currentColor;fill-opacity:1;stroke-width:0.753085"
       d="m 3,7.428576 2.240587,6.530572 H 6.838529 L 9.0444,7.428576 H 7.533294 L 6.022188,11.734672 4.528465,7.428576 Z"
       id="path10-3-3-5-9"
       class="ColorScheme-Text" />
    <path
       fill-opacity="0.941"
       style="fill:#bf616a;fill-opacity:1;stroke-width:0.753085"
       d="M 10.541353,7.469442 C 9.788855,9.657593 9.024064,11.832027 8.231272,14.000013 H 9.8292 l 1.493759,-4.285686 1.47632,4.285686 h 1.597935 l 1.476376,-4.408138 1.528458,4.408138 H 19 C 18.207222,11.832028 17.425039,9.657593 16.672559,7.469442 h -1.597918 l -1.476364,4.306096 -1.51113,-4.306096 z"
       id="path14-6-6-4-3-1" />
    <path
       d="M 16.803011,1 H 5.196742 C 4.084091,1.0015 3.017281,1.44383 2.230622,2.230652 1.443769,3.017322 1.001262,4.084056 1,5.196749 V 16.803451 16.8033 c 8.62e-4,1.112617 0.443769,2.179389 1.230622,2.96606 0.786659,0.786822 1.853469,1.229367 2.96612,1.230652 h 11.606699 -1.9e-4 c 1.11265,-0.0012 2.17946,-0.44383 2.96611,-1.230652 0.78686,-0.786671 1.22937,-1.853443 1.23063,-2.96606 V 5.196976 c -0.002,-1.112655 -0.44377,-2.179427 -1.23063,-2.966098 -0.78665,-0.786822 -1.85346,-1.229366 -2.96611,-1.230652 z M 5.617003,3.00005 h 10.765998 c 0.73924,0.0011 1.43628,-0.113764 1.959,0.408983 0.52269,0.522671 0.6571,1.018431 0.658,1.757669 v 11.833323 h -16 V 5.166702 C 3.000852,4.427464 3.135308,3.931741 3.658002,3.409033 4.18068,2.886362 4.87778,3.000957 5.617003,3.00005 Z"
       id="path1193-3-9"
       style="fill:#d3dae3;fill-opacity:1;stroke-width:0.0396828"
       sodipodi:nodetypes="ccccccccccccccccccccccccc" />
  </g>
</svg>
