<?xml version="1.0" encoding="UTF-8" standalone="no"?>
<svg
   width="32"
   height="32"
   version="1.1"
   id="svg12"
   sodipodi:docname="vlc.svg"
   inkscape:version="1.2.1 (9c6d41e410, 2022-07-14)"
   xmlns:inkscape="http://www.inkscape.org/namespaces/inkscape"
   xmlns:sodipodi="http://sodipodi.sourceforge.net/DTD/sodipodi-0.dtd"
   xmlns:xlink="http://www.w3.org/1999/xlink"
   xmlns="http://www.w3.org/2000/svg"
   xmlns:svg="http://www.w3.org/2000/svg"
   xmlns:rdf="http://www.w3.org/1999/02/22-rdf-syntax-ns#"
   xmlns:cc="http://creativecommons.org/ns#"
   xmlns:dc="http://purl.org/dc/elements/1.1/">
  <metadata
     id="metadata18">
    <rdf:RDF>
      <cc:Work
         rdf:about="">
        <dc:format>image/svg+xml</dc:format>
        <dc:type
           rdf:resource="http://purl.org/dc/dcmitype/StillImage" />
      </cc:Work>
    </rdf:RDF>
  </metadata>
  <defs
     id="defs16">
    <linearGradient
       inkscape:collect="always"
       id="linearGradient927">
      <stop
         style="stop-color:#ffb380;stop-opacity:1"
         offset="0"
         id="stop923" />
      <stop
         style="stop-color:#d08770;stop-opacity:1;"
         offset="0.48488802"
         id="stop925" />
    </linearGradient>
    <linearGradient
       inkscape:collect="always"
       xlink:href="#linearGradient927"
       id="linearGradient5058"
       x1="148.9608"
       y1="596.36218"
       x2="148.9608"
       y2="636.12817"
       gradientUnits="userSpaceOnUse"
       gradientTransform="matrix(0.50999969,0,0,0.42750131,-58.969998,-248.94562)" />
    <linearGradient
       inkscape:collect="always"
       id="linearGradient4813">
      <stop
         style="stop-color:#ffb380;stop-opacity:1"
         offset="0"
         id="stop4809" />
      <stop
         style="stop-color:#d08770;stop-opacity:1;"
         offset="0.48488802"
         id="stop4811" />
    </linearGradient>
    <linearGradient
       inkscape:collect="always"
       xlink:href="#linearGradient4813"
       id="linearGradient5141"
       gradientUnits="userSpaceOnUse"
       gradientTransform="matrix(0.43999978,0,0,0.37750121,-53.87997,-222.72745)"
       x1="148.9608"
       y1="596.36218"
       x2="148.9608"
       y2="636.12817" />
  </defs>
  <sodipodi:namedview
     pagecolor="#ffffff"
     bordercolor="#000000"
     borderopacity="1"
     objecttolerance="10"
     gridtolerance="10"
     guidetolerance="10"
     inkscape:pageopacity="0"
     inkscape:pageshadow="2"
     inkscape:window-width="1920"
     inkscape:window-height="1002"
     id="namedview14"
     showgrid="false"
     inkscape:zoom="13.876971"
     inkscape:cx="27.707776"
     inkscape:cy="20.357468"
     inkscape:window-x="0"
     inkscape:window-y="0"
     inkscape:window-maximized="1"
     inkscape:current-layer="svg12"
     inkscape:lockguides="true"
     inkscape:document-rotation="0"
     inkscape:showpageshadow="true"
     inkscape:pagecheckerboard="0"
     inkscape:deskcolor="#d1d1d1">
    <inkscape:grid
       type="xygrid"
       id="grid5023"
       originx="32"
       originy="10" />
  </sodipodi:namedview>
  <g
     id="vlc">
    <rect
       style="opacity:0.00100002"
       width="32"
       height="32"
       x="0"
       y="0"
       id="rect7" />
    <path
       inkscape:connector-curvature="0"
       id="path9068-9-37-8-0-1"
       d="m 26.199961,6 -20.4,5e-6 V 23.1 h 20.4 z"
       style="display:inline;overflow:visible;visibility:visible;opacity:1;fill:url(#linearGradient5058);fill-opacity:1;fill-rule:nonzero;stroke:none;stroke-width:0.653705;marker:none"
       sodipodi:nodetypes="ccccc" />
    <path
       d="M 22.9636,4 H 9.036038 C 7.700853,4.0015 6.420712,4.532569 5.476717,5.476756 4.53253,6.420753 4.001485,7.70089 3.999961,9.036075 v 13.928043 -1.92e-4 c 0.0015,1.335182 0.532569,2.615318 1.476756,3.559315 C 6.420712,27.46743 7.700853,27.998475 9.036038,28 h 13.928043 -1.96e-4 c 1.335181,-0.0016 2.615321,-0.53257 3.559316,-1.476759 0.944189,-0.943997 1.475235,-2.224133 1.476759,-3.559315 V 9.036361 C 27.99806,7.701176 27.46739,6.421038 26.523201,5.477043 25.579206,4.532855 24.299066,4.00181 22.963884,4.000287 Z M 9.199961,6 h 13.5 c 0.887094,0.0011 1.510764,0.04407 2.138,0.671275 0.627235,0.627207 1.160903,1.441633 1.162,2.328725 v 14 h -20 V 9 C 6.001061,8.112908 6.441748,7.298511 7.068961,6.671275 7.696164,6.04404 8.312875,6.001096 9.199961,6 Z"
       id="path1193-7-3-6"
       style="fill:#d3dae3;fill-opacity:1;stroke-width:0.0476191"
       sodipodi:nodetypes="ccccccccccccccccccccccccc" />
    <path
       d="M 14.4896,7.0371996 13.7,10 h 4.6 L 17.500001,7.0371996 c -0.914529,-0.6839598 -2.021625,-0.7478602 -3.010401,0 z M 13,12 12,15 h 8 l -1,-3 z m -1.6,6 -0.800007,2.18057 H 9.599995 L 8,21.72684 V 22.5 H 24 V 21.72684 L 22.399999,20.18057 H 21.525002 L 20.8,18 Z"
       id="path2-3-4-8"
       style="fill:#eff0f1;fill-opacity:1;stroke-width:0.196607"
       sodipodi:nodetypes="ccccccccccccccccccccc" />
  </g>
  <g
     id="22-22-vlc"
     transform="translate(32,10)">
    <rect
       style="opacity:0.00100002"
       width="22"
       height="22"
       x="0"
       y="0"
       id="rect2" />
    <path
       inkscape:connector-curvature="0"
       id="path9068-9-37-8-0-1-9"
       d="M 19.6,2.4 2,2.400004 V 17.500002 H 19.6 Z"
       style="display:inline;overflow:visible;visibility:visible;fill:url(#linearGradient5141);fill-opacity:1;fill-rule:nonzero;stroke:none;stroke-width:0.570574;marker:none"
       sodipodi:nodetypes="ccccc" />
    <path
       d="M 16.80292,0.999988 H 5.1966505 c -1.112651,0.0015 -2.179461,0.44383 -2.96612,1.230652 -0.786853,0.78667 -1.22936,1.853404 -1.230622,2.966097 v 11.606702 -1.51e-4 c 8.62e-4,1.112617 0.443769,2.179389 1.230622,2.96606 0.786659,0.786822 1.853469,1.229367 2.96612,1.230652 H 16.80335 16.803159 c 1.112651,-0.0012 2.179461,-0.44383 2.966111,-1.230652 0.78686,-0.786671 1.22937,-1.853443 1.23063,-2.96606 V 5.196964 C 20.9979,4.084309 20.55613,3.017537 19.76927,2.230866 18.98262,1.444044 17.91581,1.0015 16.803159,1.000214 Z M 5.6169115,3.000038 H 16.382909 c 0.73924,0.0011 1.43628,-0.113764 1.959,0.408983 0.522692,0.522671 0.6571,1.018431 0.658,1.757669 V 17.000013 H 2.9999095 V 5.16669 c 8.51e-4,-0.739238 0.135307,-1.234961 0.658001,-1.757669 0.522678,-0.522671 1.219778,-0.408076 1.959001,-0.408983 z"
       id="path1193-3-7-2"
       style="fill:#d3dae3;fill-opacity:1;stroke-width:0.0396828"
       sodipodi:nodetypes="ccccccccccccccccccccccccc" />
    <path
       d="m 9.867201,4.4028996 -0.6672,1.9970979 h 3.6 L 12.125002,4.4028996 c -0.685894,-0.5129719 -1.51622,-0.5608929 -2.257801,0 z M 8.6000008,8.1999985 7.9999999,10.599999 H 14.000002 L 13.400001,8.1999985 Z M 7.3999999,13 6.9499942,14.260421 H 6.1999958 L 5,15.420128 V 16 h 12.000002 v -0.579872 l -1.2,-1.159707 H 15.143753 L 14.600002,13 Z"
       id="path2-3-2"
       style="fill:#eff0f1;fill-opacity:1;stroke-width:0.147451"
       sodipodi:nodetypes="ccccccccccccccccccccc" />
  </g>
</svg>
