<?xml version="1.0" encoding="UTF-8" standalone="no"?>
<svg
   id="svg18"
   width="32"
   height="32"
   version="1"
   sodipodi:docname="yakuake.svg"
   inkscape:version="1.2.2 (b0a8486541, 2022-12-01)"
   xmlns:inkscape="http://www.inkscape.org/namespaces/inkscape"
   xmlns:sodipodi="http://sodipodi.sourceforge.net/DTD/sodipodi-0.dtd"
   xmlns:xlink="http://www.w3.org/1999/xlink"
   xmlns="http://www.w3.org/2000/svg"
   xmlns:svg="http://www.w3.org/2000/svg">
  <g
     id="22-22-yakuake"
     transform="translate(32,10)">
    <rect
       id="rect2"
       width="22"
       height="22"
       opacity="0.00100002"
       x="0"
       y="0" />
    <path
       inkscape:connector-curvature="0"
       id="path9068-9-37-8-0-1-0-1-3-7-4-6-1-2"
       d="M 19.474508,2.9143069 2.356,2.9143129 V 17.705308 h 17.288 z"
       style="display:inline;overflow:visible;visibility:visible;opacity:1;fill:url(#linearGradient24340);fill-opacity:1;fill-rule:nonzero;stroke:none;stroke-width:0.55969;marker:none"
       sodipodi:nodetypes="cccccc" />
    <path
       d="M 16.80301,1 H 5.196741 C 4.08409,1.0015 3.01728,1.44383 2.230621,2.230652 1.443768,3.017322 1.001261,4.084056 0.999999,5.196749 v 11.606701 -1.51e-4 c 8.62e-4,1.112617 0.443769,2.17939 1.230622,2.966061 0.786659,0.786821 1.853469,1.229366 2.96612,1.230652 h 11.606699 -1.9e-4 c 1.11265,-0.0012 2.17946,-0.44383 2.96611,-1.230652 0.78686,-0.786671 1.22937,-1.853444 1.23063,-2.966061 V 5.196976 C 20.99799,4.084321 20.55622,3.017549 19.76936,2.230878 18.98271,1.444056 17.9159,1.001512 16.80325,1.000226 Z M 5.617002,3.00005 H 16.383 c 0.73924,0.0011 1.43628,-0.113764 1.959,0.408983 0.52269,0.52267 0.6571,1.018431 0.658,1.757669 V 17.000025 H 3 V 5.166702 C 3.000851,4.427464 3.135307,3.931741 3.658001,3.409033 4.180679,2.886362 4.877779,3.000957 5.617002,3.00005 Z"
       id="path1193-3-4"
       style="fill:#d3dae3;fill-opacity:1;stroke-width:0.0396828"
       sodipodi:nodetypes="ccccccccccccccccccccccccc" />
    <path
       d="M 8.5930519,9.5865017 12.219865,6.3101412 c 0.928641,-0.8328067 1.92001,0.184067 0.997716,1.0233872 L 9.59076,10.609894 C 8.6620699,11.442661 7.6707449,10.425826 8.5930519,9.5865017 Z M 12.419407,6.5148152 Z"
       id="path8-6-7-36-2-9-36-3"
       style="color:#d6dbf1;fill:#d3dae3;fill-opacity:0.501961;stroke-width:0.163861"
       sodipodi:nodetypes="cccccccccc"
       class="ColorScheme-Text" />
    <path
       d="m 11,13 h 5 c 0.934239,0 0.934239,1 0,1 h -5 c -1,0 -1,-1 0,-1 z"
       id="path8-6-7-36-2-9-3-7-5"
       style="color:#d6dbf1;fill:#d3dae3;fill-opacity:1;stroke-width:0.137027"
       sodipodi:nodetypes="ccccc"
       class="ColorScheme-Text" />
    <path
       d="m 10.093241,9.9943832 c 1.97e-4,0.1154638 -0.04745,0.2262408 -0.132308,0.3078098 l -3.5980041,3.463406 c -0.746282,0.712265 -1.8593702,-0.359201 -1.119415,-1.077553 l 2.79857,-2.6936628 -2.79857,-2.693653 c -0.3082708,-0.2979015 -0.3082708,-0.7796604 0,-1.0775543 v 0 c 0.309113,-0.2975679 0.8103,-0.2975679 1.119415,0 L 9.960933,9.6865734 c 0.08487,0.08157 0.132506,0.1923459 0.132308,0.3078098 z m -0.452079,0 z"
       id="path4-3-9-2-3-6-5-6"
       style="color:#d6dbf1;fill:#d3dae3;fill-opacity:1;stroke-width:0.221887"
       sodipodi:nodetypes="ccccccsscccccccccccc"
       class="ColorScheme-Text" />
  </g>
  <style
     id="current-color-scheme"
     type="text/css">.ColorScheme-Text { color:#eceff4; }
</style>
  <sodipodi:namedview
     id="namedview14"
     pagecolor="#ffffff"
     bordercolor="#666666"
     borderopacity="1.0"
     inkscape:pageshadow="2"
     inkscape:pageopacity="0.0"
     inkscape:pagecheckerboard="0"
     showgrid="false"
     inkscape:zoom="11.313709"
     inkscape:cx="11.888232"
     inkscape:cy="19.357047"
     inkscape:window-width="1920"
     inkscape:window-height="994"
     inkscape:window-x="0"
     inkscape:window-y="0"
     inkscape:window-maximized="1"
     inkscape:current-layer="svg18"
     inkscape:lockguides="true"
     inkscape:showpageshadow="2"
     inkscape:deskcolor="#d1d1d1">
    <inkscape:grid
       type="xygrid"
       id="grid1350"
       originx="32"
       originy="10" />
  </sodipodi:namedview>
  <defs
     id="1987">
    <linearGradient
       inkscape:collect="always"
       id="linearGradient952">
      <stop
         style="stop-color:#1a75ff;stop-opacity:1;"
         offset="0"
         id="stop948" />
      <stop
         style="stop-color:#00cea5;stop-opacity:1;"
         offset="1"
         id="stop950" />
    </linearGradient>
    <style
       id="style9"
       type="text/css" />
    <linearGradient
       inkscape:collect="always"
       xlink:href="#linearGradient952"
       id="linearGradient5058"
       x1="148.9608"
       y1="596.36218"
       x2="148.9608"
       y2="636.12817"
       gradientUnits="userSpaceOnUse"
       gradientTransform="matrix(0.50999969,0,0,0.42750131,-58.969959,-248.94562)" />
    <linearGradient
       inkscape:collect="always"
       xlink:href="#linearGradient952"
       id="linearGradient24340"
       gradientUnits="userSpaceOnUse"
       gradientTransform="matrix(0.43219982,0,0,0.36977632,-52.533369,-217.60639)"
       x1="146.80391"
       y1="596.36243"
       x2="146.99998"
       y2="636.3623" />
  </defs>
  <g
     id="yakuake">
    <rect
       id="rect11"
       width="32"
       height="32"
       opacity="0.00100002"
       x="0"
       y="0" />
    <path
       inkscape:connector-curvature="0"
       id="path9068-9-37-8-0-1"
       d="m 26.2,6 -20.4,5e-6 V 23.1 h 20.4 z"
       style="display:inline;overflow:visible;visibility:visible;opacity:1;fill:url(#linearGradient5058);fill-opacity:1;fill-rule:nonzero;stroke:none;stroke-width:0.653705;marker:none"
       sodipodi:nodetypes="ccccc" />
    <path
       d="M 22.963625,3.999976 H 9.0360725 c -1.335181,0.0015 -2.615323,0.532573 -3.559318,1.476774 -0.944187,0.944013 -1.475229,2.224101 -1.476754,3.5592946 v 13.9280504 -1.9e-4 c 0.0015,1.335156 0.532567,2.615282 1.476754,3.559294 0.943995,0.944202 2.224137,1.475226 3.559318,1.476775 h 13.9280335 -1.94e-4 c 1.335183,-0.0015 2.615324,-0.532573 3.559319,-1.476775 0.944185,-0.944012 1.475232,-2.224138 1.476754,-3.559294 V 9.0363092 C 27.998186,7.701153 27.467417,6.421027 26.523231,5.477015 25.579236,4.532813 24.299095,4.00179 22.963911,4.00024 Z M 9.2000015,5.999988 H 22.799998 c 0.887096,0.0011 1.603761,0.04384 2.231001,0.671244 C 25.658231,7.298445 25.9989,8.112895 26,8.999988 V 23 H 6.0000005 V 8.999988 c 0.0011,-0.887093 0.341774,-1.701506 0.969,-2.328756 0.627202,-0.627213 1.343917,-0.670148 2.231001,-0.671244 z"
       id="path1193-2"
       style="fill:#d3dae3;fill-opacity:1;stroke-width:0.047619"
       sodipodi:nodetypes="ccccccccccccccccccccccccc" />
    <path
       d="m 12.790732,13.931437 4.835756,-4.5049905 c 1.238195,-1.145114 2.560012,0.253091 1.330287,1.4071485 l -4.835756,4.505011 c -1.238257,1.145051 -2.560024,-0.253091 -1.330287,-1.407169 z m 5.101807,-4.2235745 z"
       id="path8-6-7-36-2-9"
       style="color:#d6dbf1;fill:#d3dae3;fill-opacity:0.501961;stroke-width:0.221869"
       sodipodi:nodetypes="cccccccccc"
       class="ColorScheme-Text" />
    <path
       d="m 16.245654,18 h 6.508691 c 1.660873,0.0063 1.660873,1.993619 0,2 h -6.508691 c -1.660872,-0.0063 -1.660872,-1.993619 0,-2 z m 6.508691,0.399995 z"
       id="path8-6-7-36-2-9-3"
       style="color:#d6dbf1;fill:#d3dae3;fill-opacity:1;stroke-width:0.223758"
       sodipodi:nodetypes="cccccccccc"
       class="ColorScheme-Text" />
    <path
       d="m 14.790987,14.492286 c 2.68e-4,0.158754 -0.06321,0.311081 -0.176413,0.423228 l -4.797338,4.76219 C 8.8221979,20.657069 7.3380769,19.183803 8.3246859,18.196072 L 12.056116,14.492286 8.3246859,10.788501 c -0.411029,-0.409612 -0.411029,-1.0720315 0,-1.4816275 v 0 c 0.412147,-0.409164 1.0804031,-0.409164 1.4925501,0 l 4.797338,4.7621635 c 0.113177,0.112165 0.176682,0.264488 0.176413,0.423249 z m -0.602771,0 z"
       id="path4-3-9-2-3-6"
       style="color:#d6dbf1;fill:#d3dae3;fill-opacity:1;stroke-width:0.30043"
       sodipodi:nodetypes="ccccccsscccccccccccc"
       class="ColorScheme-Text" />
  </g>
</svg>
