<?xml version="1.0" encoding="UTF-8" standalone="no"?>
<!-- Created with Inkscape (http://www.inkscape.org/) -->

<svg
   width="64"
   version="1.1"
   height="64"
   id="svg20"
   sodipodi:docname="media-flash.svg"
   inkscape:version="1.2.2 (b0a8486541, 2022-12-01)"
   xmlns:inkscape="http://www.inkscape.org/namespaces/inkscape"
   xmlns:sodipodi="http://sodipodi.sourceforge.net/DTD/sodipodi-0.dtd"
   xmlns:xlink="http://www.w3.org/1999/xlink"
   xmlns="http://www.w3.org/2000/svg"
   xmlns:svg="http://www.w3.org/2000/svg">
  <sodipodi:namedview
     id="namedview22"
     pagecolor="#ffffff"
     bordercolor="#666666"
     borderopacity="1.0"
     inkscape:showpageshadow="2"
     inkscape:pageopacity="0.0"
     inkscape:pagecheckerboard="0"
     inkscape:deskcolor="#d1d1d1"
     showgrid="true"
     inkscape:zoom="10.429825"
     inkscape:cx="22.483599"
     inkscape:cy="39.214464"
     inkscape:window-width="1920"
     inkscape:window-height="994"
     inkscape:window-x="0"
     inkscape:window-y="0"
     inkscape:window-maximized="1"
     inkscape:current-layer="layer1">
    <inkscape:grid
       type="xygrid"
       id="grid1730" />
  </sodipodi:namedview>
  <defs
     id="defs5455">
    <linearGradient
       inkscape:collect="always"
       id="linearGradient1662">
      <stop
         style="stop-color:#999999;stop-opacity:1"
         offset="0"
         id="stop1658" />
      <stop
         style="stop-color:#808080;stop-opacity:0.45185184;"
         offset="1"
         id="stop1660" />
    </linearGradient>
    <linearGradient
       id="c-3"
       gradientUnits="userSpaceOnUse"
       x1="5"
       x2="5"
       y1="20"
       y2="7"
       gradientTransform="matrix(3.4390082,0,0,3.4390082,378.74233,511.78244)">
      <stop
         offset="0"
         stop-color="#999a9c"
         id="stop164" />
      <stop
         offset="1"
         stop-color="#f4f5f5"
         id="stop166" />
    </linearGradient>
    <linearGradient
       id="a"
       gradientTransform="matrix(1.6071411,0,0,1.6071411,-129.79047,-417.22703)"
       gradientUnits="userSpaceOnUse"
       x2="0"
       y1="545.79797"
       y2="517.79797">
      <stop
         offset="0"
         stop-color="#197cf1"
         id="stop150" />
      <stop
         offset="1"
         stop-color="#20bcfa"
         id="stop152" />
    </linearGradient>
    <linearGradient
       id="c"
       gradientUnits="userSpaceOnUse"
       x1="19.999998"
       x2="6.000001"
       y1="19"
       y2="5"
       gradientTransform="matrix(2.4999989,0,0,2.4999989,486.48439,409.94736)">
      <stop
         offset="0"
         stop-color="#292c2f"
         id="stop160" />
      <stop
         offset="1"
         stop-opacity="0"
         id="stop162" />
    </linearGradient>
    <linearGradient
       id="b"
       gradientUnits="userSpaceOnUse"
       x1="11"
       x2="11"
       y1="19"
       y2="1"
       gradientTransform="matrix(2.4999989,0,0,2.4999989,486.48439,409.94736)">
      <stop
         offset="0"
         stop-color="#7cbaf8"
         id="stop155" />
      <stop
         offset="1"
         stop-color="#f4fcff"
         id="stop157" />
    </linearGradient>
    <linearGradient
       id="media-flash-256px-c"
       x1="97.488464"
       x2="97.488464"
       y1="-2.8639693e-09"
       y2="192.61575"
       gradientTransform="matrix(0.17390906,0,0,0.21343384,399.57143,525.298)"
       gradientUnits="userSpaceOnUse">
      <stop
         offset="0%"
         stop-color="#898989"
         id="stop208" />
      <stop
         offset="100%"
         stop-color="#5A5A5A"
         id="stop210" />
    </linearGradient>
    <filter
       id="media-flash-256px-e"
       width="1"
       height="1.0092593"
       x="0"
       y="0"
       filterUnits="objectBoundingBox">
      <feOffset
         dy="2"
         in="SourceAlpha"
         result="shadowOffsetInner1"
         id="feOffset214" />
      <feComposite
         in="shadowOffsetInner1"
         in2="SourceAlpha"
         k2="-1"
         k3="1"
         operator="arithmetic"
         result="shadowInnerInner1"
         id="feComposite216"
         k1="0"
         k4="0" />
      <feColorMatrix
         in="shadowInnerInner1"
         values="0 0 0 0 1   0 0 0 0 1   0 0 0 0 1  0 0 0 0.2 0"
         id="feColorMatrix218" />
    </filter>
    <filter
       id="media-flash-256px-g"
       width="1"
       height="1.0454545"
       x="0"
       y="0"
       filterUnits="objectBoundingBox">
      <feOffset
         dy="2"
         in="SourceAlpha"
         result="shadowOffsetInner1"
         id="feOffset222" />
      <feComposite
         in="shadowOffsetInner1"
         in2="SourceAlpha"
         k2="-1"
         k3="1"
         operator="arithmetic"
         result="shadowInnerInner1"
         id="feComposite224"
         k1="0"
         k4="0" />
      <feColorMatrix
         in="shadowInnerInner1"
         values="0 0 0 0 1   0 0 0 0 0.8216105   0 0 0 0 0.32578125  0 0 0 1 0"
         id="feColorMatrix226" />
    </filter>
    <filter
       id="media-flash-256px-i"
       width="1"
       height="1.0454545"
       x="0"
       y="0"
       filterUnits="objectBoundingBox">
      <feOffset
         dy="2"
         in="SourceAlpha"
         result="shadowOffsetInner1"
         id="feOffset230" />
      <feComposite
         in="shadowOffsetInner1"
         in2="SourceAlpha"
         k2="-1"
         k3="1"
         operator="arithmetic"
         result="shadowInnerInner1"
         id="feComposite232"
         k1="0"
         k4="0" />
      <feColorMatrix
         in="shadowInnerInner1"
         values="0 0 0 0 1   0 0 0 0 0.8216105   0 0 0 0 0.32578125  0 0 0 1 0"
         id="feColorMatrix234" />
    </filter>
    <filter
       id="media-flash-256px-k"
       width="1"
       height="1.0454545"
       x="0"
       y="0"
       filterUnits="objectBoundingBox">
      <feOffset
         dy="2"
         in="SourceAlpha"
         result="shadowOffsetInner1"
         id="feOffset238" />
      <feComposite
         in="shadowOffsetInner1"
         in2="SourceAlpha"
         k2="-1"
         k3="1"
         operator="arithmetic"
         result="shadowInnerInner1"
         id="feComposite240"
         k1="0"
         k4="0" />
      <feColorMatrix
         in="shadowInnerInner1"
         values="0 0 0 0 1   0 0 0 0 0.8216105   0 0 0 0 0.32578125  0 0 0 1 0"
         id="feColorMatrix242" />
    </filter>
    <filter
       id="media-flash-256px-m"
       width="1"
       height="1.0454545"
       x="0"
       y="0"
       filterUnits="objectBoundingBox">
      <feOffset
         dy="2"
         in="SourceAlpha"
         result="shadowOffsetInner1"
         id="feOffset246" />
      <feComposite
         in="shadowOffsetInner1"
         in2="SourceAlpha"
         k2="-1"
         k3="1"
         operator="arithmetic"
         result="shadowInnerInner1"
         id="feComposite248"
         k1="0"
         k4="0" />
      <feColorMatrix
         in="shadowInnerInner1"
         values="0 0 0 0 1   0 0 0 0 0.8216105   0 0 0 0 0.32578125  0 0 0 1 0"
         id="feColorMatrix250" />
    </filter>
    <linearGradient
       inkscape:collect="always"
       xlink:href="#linearGradient1662"
       id="linearGradient1664"
       x1="263.40015"
       y1="613.55908"
       x2="433.42825"
       y2="416.48688"
       gradientUnits="userSpaceOnUse"
       gradientTransform="matrix(0.19266053,0,0,0.19266053,349.59165,446.68897)" />
  </defs>
  <metadata
     id="metadata5458" />
  <g
     inkscape:label="Capa 1"
     inkscape:groupmode="layer"
     id="layer1"
     transform="translate(-384.57143,-515.798)">
    <path
       d="m 387.57143,526.048 c 0,-4.00417 3.24594,-7.25 7.25,-7.25 h 43.5 c 4.00417,0 7.25,3.24583 7.25,7.25 v 43.5 c 0,4.00417 -3.24583,7.25 -7.25,7.25 h -43.5 c -4.00406,0 -7.25,-3.24583 -7.25,-7.25 z"
       id="path736"
       style="fill:#606c86;fill-opacity:1;stroke-width:3.625" />
    <path
       d="m 387.57143,525.59487 c 0,-3.75368 3.24594,-6.79687 7.25,-6.79687 h 43.5 c 4.00418,0 7.25,3.04319 7.25,6.79687 v 40.78125 c 0,3.7537 -3.24583,6.79688 -7.25,6.79688 h -43.5 c -4.00406,0 -7.25,-3.04318 -7.25,-6.79688 z"
       id="path738"
       style="fill:#3b4252;fill-opacity:1;stroke-width:3.625" />
    <path
       id="use257"
       d="m 399.57143,528.76556 c 0,-1.91508 1.55255,-3.46756 3.46949,-3.46756 h 19.90747 c 1.13452,0 2.70534,0.65111 3.50667,1.45244 l 7.02462,7.02462 v 3.08257 l -0.87074,0.5805 c -0.79594,0.53063 -1.44118,1.73732 -1.44118,2.69569 v 1.15404 c 0,0.95817 0.64707,2.16629 1.44118,2.6957 l 0.87074,0.58049 v 18.88118 c 0,1.91501 -1.55345,3.46745 -3.46942,3.46745 h -26.9694 c -1.91611,0 -3.46943,-1.55227 -3.46943,-3.46757 z"
       style="fill:#000000;fill-opacity:0.1;fill-rule:evenodd;stroke-width:0.192661" />
    <path
       id="use259"
       d="m 399.57143,528.76556 c 0,-1.91508 1.55255,-3.46756 3.46949,-3.46756 h 19.90747 c 1.13452,0 2.70534,0.65111 3.50667,1.45244 l 7.02462,7.02462 v 3.08257 l -0.87074,0.5805 c -0.79594,0.53063 -1.44118,1.73732 -1.44118,2.69569 v 1.15404 c 0,0.95817 0.64707,2.16629 1.44118,2.6957 l 0.87074,0.58049 v 18.88118 c 0,1.91501 -1.55345,3.46745 -3.46942,3.46745 h -26.9694 c -1.91611,0 -3.46943,-1.55227 -3.46943,-3.46757 z"
       style="fill:url(#media-flash-256px-c);fill-rule:evenodd;stroke-width:0.192661" />
    <path
       id="use261"
       d="m 399.57143,528.76556 c 0,-1.91508 1.55255,-3.46756 3.46949,-3.46756 h 19.90747 c 1.13452,0 2.70534,0.6511 3.50667,1.45244 l 7.02462,7.02462 v 3.08257 l -0.87074,0.5805 c -0.79594,0.53062 -1.44118,1.73732 -1.44118,2.69569 v 1.15404 c 0,0.95816 0.64707,2.16629 1.44118,2.69569 l 0.87074,0.5805 v 18.88117 c 0,1.91502 -1.55345,3.46745 -3.46942,3.46745 h -26.9694 c -1.91611,0 -3.46943,-1.55226 -3.46943,-3.46756 z"
       style="fill:url(#linearGradient1664);fill-opacity:1;stroke-width:0.192661" />
    <rect
       id="use263"
       width="3.0825686"
       height="8.4770632"
       x="403.42468"
       y="529.15155"
       rx="0.77064216"
       style="fill:#f5b600;fill-rule:evenodd;stroke-width:0.192661" />
    <rect
       width="16"
       height="44"
       x="279.41888"
       y="428.01834"
       rx="4"
       transform="matrix(0.19266053,0,0,0.19266053,349.59165,446.68897)"
       style="fill:#ffd42a"
       id="rect1962" />
    <rect
       id="use267"
       width="3.0825686"
       height="8.4770632"
       x="408.81918"
       y="529.15155"
       rx="0.77064216"
       style="fill:#f5b600;fill-rule:evenodd;stroke-width:0.192661" />
    <rect
       id="use269"
       width="16"
       height="44"
       x="307.41888"
       y="428.01834"
       rx="4"
       transform="matrix(0.19266053,0,0,0.19266053,349.59165,446.68897)"
       style="fill:#ffd42a" />
    <rect
       id="use271"
       width="3.0825686"
       height="8.4770632"
       x="414.21368"
       y="529.15155"
       rx="0.77064216"
       style="fill:#f5b600;fill-rule:evenodd;stroke-width:0.192661" />
    <rect
       id="use273"
       width="16"
       height="44"
       x="335.41888"
       y="428.01834"
       rx="4"
       transform="matrix(0.19266053,0,0,0.19266053,349.59165,446.68897)"
       style="fill:#ffd42a" />
    <rect
       id="use275"
       width="3.0825686"
       height="8.4770632"
       x="419.60818"
       y="529.15155"
       rx="0.77064216"
       style="fill:#f5b600;fill-rule:evenodd;stroke-width:0.192661" />
    <rect
       id="use277"
       width="16"
       height="44"
       x="363.41888"
       y="428.01834"
       rx="4"
       transform="matrix(0.19266053,0,0,0.19266053,349.59165,446.68897)"
       style="fill:#ffd42a" />
    <path
       fill="#ffffff"
       d="m 403.42464,546.10534 h 23.88991 v 15.02578 c 0,1.06499 -0.86437,1.92834 -1.92469,1.92834 h -20.04053 c -1.06298,0 -1.92469,-0.86406 -1.92469,-1.92834 z"
       id="path279"
       style="fill-rule:evenodd;stroke-width:0.192661" />
    <path
       d="m 403.42464,542.63553 c 0,-1.06297 0.86437,-1.92469 1.92469,-1.92469 h 20.04053 c 1.06297,0 1.92469,0.86074 1.92469,1.92469 v 3.46981 h -23.88991 z m 7.10235,18.93684 v -2.79358 h 0.72248 c 0.20069,0.83486 0.50172,1.4309 0.90309,1.78813 0.40138,0.35723 0.83487,0.53584 1.30046,0.53584 0.34519,0 0.62013,-0.10235 0.82483,-0.30706 0.2047,-0.2047 0.30705,-0.44552 0.30705,-0.72247 0,-0.19668 -0.0642,-0.39335 -0.19266,-0.59003 -0.12844,-0.19667 -0.43348,-0.41542 -0.91514,-0.65625 -0.92718,-0.46158 -1.55332,-0.79974 -1.87844,-1.01448 -0.32511,-0.21473 -0.586,-0.49067 -0.78268,-0.82783 -0.19667,-0.33716 -0.29501,-0.72449 -0.29501,-1.16199 0,-0.70241 0.25186,-1.28139 0.75559,-1.73695 0.50373,-0.45557 1.08672,-0.68334 1.749,-0.68334 0.69438,0 1.2844,0.23279 1.77007,0.69839 0.0803,-0.12041 0.1465,-0.30505 0.19868,-0.5539 h 0.69237 v 2.40826 h -0.67431 c -0.12041,-0.53384 -0.3492,-0.97334 -0.68635,-1.31852 -0.33716,-0.34519 -0.71646,-0.51778 -1.13791,-0.51778 -0.31708,0 -0.56895,0.0883 -0.75559,0.26491 -0.18664,0.17661 -0.27996,0.39736 -0.27996,0.66227 0,0.2047 0.0602,0.39435 0.18062,0.56895 0.12042,0.1746 0.28297,0.31909 0.48767,0.43349 0.20471,0.11439 0.63819,0.32611 1.30046,0.63518 0.59404,0.28096 1.03355,0.53182 1.31852,0.75258 0.28498,0.22075 0.51075,0.4987 0.67733,0.83385 0.16657,0.33516 0.24985,0.69739 0.24985,1.08673 0,0.72248 -0.26691,1.32354 -0.80074,1.80318 -0.53383,0.47965 -1.17001,0.71947 -1.90855,0.71947 -0.42144,0 -0.83385,-0.0883 -1.23724,-0.26491 -0.40338,-0.17661 -0.72548,-0.41141 -0.96631,-0.70441 -0.0923,0.18061 -0.16055,0.40137 -0.2047,0.66227 z m 6.61669,0.13847 v -0.66829 c 0.42947,0 0.71444,-0.0672 0.85493,-0.20169 0.14048,-0.13446 0.21072,-0.40037 0.21072,-0.79774 v -4.83457 c 0,-0.38533 -0.0662,-0.64822 -0.19868,-0.78871 -0.13246,-0.14048 -0.42144,-0.21072 -0.86697,-0.21072 v -0.66227 l 0.98136,-0.0361 c 0.98739,-0.0401 1.76204,-0.0602 2.32397,-0.0602 0.93922,0 1.70283,0.0542 2.29085,0.16256 0.58802,0.10837 1.14392,0.34618 1.66772,0.71344 0.5238,0.36726 0.92718,0.84289 1.21015,1.4269 0.28297,0.584 0.42445,1.2272 0.42445,1.92961 0,0.71847 -0.14951,1.36066 -0.44853,1.92661 -0.29903,0.56594 -0.7014,1.01748 -1.20714,1.35464 -0.50574,0.33716 -1.02953,0.54587 -1.57139,0.62615 -0.54186,0.0803 -1.45297,0.12041 -2.73337,0.12041 z m 3.20298,-7.5258 v 5.62328 c 0,0.36124 0.017,0.60407 0.0512,0.7285 0.0341,0.12442 0.12443,0.23079 0.27093,0.31909 0.14651,0.0883 0.37228,0.13245 0.67732,0.13245 0.7546,0 1.31953,-0.27694 1.69482,-0.83084 0.37528,-0.55391 0.56292,-1.38274 0.56292,-2.48653 0,-0.89106 -0.13847,-1.60048 -0.41542,-2.1283 -0.27695,-0.52781 -0.63618,-0.88603 -1.07769,-1.07468 -0.44152,-0.18865 -1.02953,-0.28297 -1.76405,-0.28297 z"
       id="path281"
       style="fill:#37c871;fill-rule:evenodd;stroke-width:0.192661" />
  </g>
</svg>
